<?xml version="1.0" encoding="UTF-8"?>
<svg xmlns="http://www.w3.org/2000/svg" xmlns:xlink="http://www.w3.org/1999/xlink" width="1501.89pt" height="1122pt" viewBox="0 0 1501.89 1122" version="1.1">
<defs>
<clipPath id="clip1">
  <path d="M 338 257 L 465 257 L 465 330 L 338 330 Z M 338 257 "/>
</clipPath>
<clipPath id="clip2">
  <path d="M 464.027344 262.878906 L 383.800781 257.210938 L 338.746094 324.3125 L 418.96875 329.980469 L 464.027344 262.878906 "/>
</clipPath>
<clipPath id="clip3">
  <path d="M 947 249 L 1072 249 L 1072 321 L 947 321 Z M 947 249 "/>
</clipPath>
<clipPath id="clip4">
  <path d="M 947.902344 260.464844 L 1023.800781 249.117188 L 1071.640625 309.609375 L 995.742188 320.957031 L 947.902344 260.464844 "/>
</clipPath>
<clipPath id="clip5">
  <path d="M 642 177 L 780 177 L 780 257 L 642 257 Z M 642 177 "/>
</clipPath>
<clipPath id="clip6">
  <path d="M 642.414063 202.554688 L 718.679688 177.027344 L 779.066406 230.746094 L 702.800781 256.273438 L 642.414063 202.554688 "/>
</clipPath>
</defs>
<g id="surface1">
<path style=" stroke:none;fill-rule:nonzero;fill:rgb(100%,100%,100%);fill-opacity:1;" d="M -0.0546875 1122 L 1501.933594 1122 L 1501.933594 0 L -0.0546875 0 Z M -0.0546875 1122 "/>
<path style=" stroke:none;fill-rule:nonzero;fill:rgb(92.576599%,92.576599%,92.576599%);fill-opacity:1;" d="M 1285.550781 1079 L 250.511719 1079 C 220.167969 1079 195.34375 1063.960938 195.34375 1045.570313 L 195.34375 1032.199219 C 195.34375 1023.96875 200.328125 1016.410156 208.550781 1010.570313 L 179.117188 1010.570313 C 148.773438 1010.570313 123.945313 995.53125 123.945313 977.144531 C 123.945313 958.761719 148.773438 943.71875 179.117188 943.71875 L 263.589844 943.71875 C 246.195313 938.078125 234.285156 926.953125 234.285156 914.222656 C 234.285156 895.839844 259.113281 880.796875 289.457031 880.796875 L 1338.769531 880.796875 C 1369.121094 880.796875 1393.941406 895.839844 1393.941406 914.222656 C 1393.941406 932.609375 1369.121094 947.652344 1338.769531 947.652344 L 1225.191406 947.199219 C 1236.949219 949.210938 1241.699219 954.550781 1244.660156 961.285156 C 1249.230469 971.675781 1248.820313 984.226563 1239.46875 992.476563 C 1234.269531 997.0625 1226.570313 999.402344 1221.660156 999.511719 L 1285.550781 998.773438 C 1315.890625 998.773438 1340.71875 1013.820313 1340.71875 1032.199219 L 1340.71875 1045.570313 C 1340.71875 1063.960938 1315.890625 1079 1285.550781 1079 "/>
<path style=" stroke:none;fill-rule:nonzero;fill:rgb(33.714294%,33.714294%,33.714294%);fill-opacity:1;" d="M 1044.640625 426.414063 L 1058.941406 441 L 1130.941406 544 L 1098.941406 606 L 1044.941406 606 L 1018.929688 433.988281 L 1044.640625 426.414063 "/>
<path style=" stroke:none;fill-rule:nonzero;fill:rgb(91.796875%,80.46875%,68.943787%);fill-opacity:1;" d="M 823.945313 247 L 838.945313 210 L 830.945313 179 L 848.945313 167 L 869.945313 188 L 859.945313 207 L 849.945313 266 L 823.945313 247 "/>
<path style=" stroke:none;fill-rule:nonzero;fill:rgb(33.714294%,33.714294%,33.714294%);fill-opacity:1;" d="M 821.945313 418 L 875.816406 415.988281 C 877.03125 407.613281 878.25 399.242188 879.445313 390.867188 C 882.878906 366.847656 883.847656 339.289063 880.484375 314.996094 C 879.714844 309.417969 878.605469 303.902344 877.09375 298.488281 C 871.648438 279.003906 866.660156 251.175781 852.445313 235.867188 C 839.445313 221.867188 826.292969 226.15625 826.292969 226.15625 L 823.691406 233.714844 L 785.945313 319 L 710.945313 363 C 710.945313 363 747.28125 415.417969 755.945313 432 L 821.945313 418 "/>
<path style=" stroke:none;fill-rule:nonzero;fill:rgb(33.714294%,33.714294%,33.714294%);fill-opacity:1;" d="M 670.65625 365.28125 L 641.945313 384 L 596.277344 438.050781 L 639.945313 442 L 670.65625 365.28125 "/>
<path style=" stroke:none;fill-rule:nonzero;fill:rgb(31.762695%,28.637695%,26.268005%);fill-opacity:1;" d="M 424.355469 973.945313 L 422.753906 983.800781 L 439.992188 997.246094 L 451.011719 989.191406 L 443.191406 977.539063 L 425.957031 964.09375 L 424.355469 973.945313 "/>
<path style=" stroke:none;fill-rule:nonzero;fill:rgb(79.296875%,70.896912%,63.084412%);fill-opacity:1;" d="M 443.09375 670.878906 L 438.230469 700.804688 L 458.957031 805.871094 L 423.886719 970.585938 L 441.933594 978.058594 L 500.328125 818.707031 L 510.890625 771.960938 L 516.640625 672 L 443.09375 670.878906 "/>
<path style=" stroke:none;fill-rule:nonzero;fill:rgb(79.296875%,70.896912%,63.084412%);fill-opacity:1;" d="M 558.527344 701.378906 L 550.121094 982.980469 L 532.570313 984.894531 L 510.050781 807.425781 L 464.519531 686.097656 L 558.527344 701.378906 "/>
<path style=" stroke:none;fill-rule:nonzero;fill:rgb(31.762695%,28.637695%,26.268005%);fill-opacity:1;" d="M 532.433594 982.6875 L 533.519531 992.652344 L 553.585938 1000.550781 L 561.988281 989.554688 L 551.414063 980.621094 L 532.433594 982.6875 "/>
<path style=" stroke:none;fill-rule:nonzero;fill:rgb(33.714294%,33.714294%,33.714294%);fill-opacity:1;" d="M 439.945313 412.925781 C 439.945313 412.925781 463.945313 392.84375 495.945313 412.925781 C 527.945313 433.007813 601.9375 617.765625 615.941406 735.257813 C 621.34375 780.558594 627.324219 830.175781 627.675781 876.242188 C 627.945313 912.007813 541.253906 911.640625 510.804688 909.667969 C 453.945313 905.980469 366.945313 913.011719 368.945313 878.867188 C 370.945313 844.726563 417.945313 719.203125 423.945313 611.753906 C 429.945313 504.308594 403.945313 435.019531 439.945313 412.925781 "/>
<path style=" stroke:none;fill-rule:nonzero;fill:rgb(65.818787%,58.006287%,41.575623%);fill-opacity:1;" d="M 436.933594 325.246094 C 447.441406 328.363281 459.660156 338.960938 461.011719 350.546875 C 461.664063 356.128906 459.34375 360.949219 460.28125 366.894531 C 462.078125 378.621094 446.464844 393.910156 459.253906 403.316406 C 465.824219 408.152344 474.738281 407.789063 482.878906 407.214844 C 483.863281 407.144531 484.898438 407.058594 485.730469 406.523438 C 487.101563 405.644531 487.519531 403.769531 487.210938 402.167969 C 486.902344 400.570313 486.019531 399.152344 485.269531 397.703125 C 477.421875 382.578125 481.894531 362.597656 479.996094 346.136719 C 478.097656 329.710938 470.078125 312.8125 454.910156 304.507813 C 446.433594 308.777344 441.441406 313.929688 438.464844 322.941406 L 436.933594 325.246094 "/>
<path style=" stroke:none;fill-rule:nonzero;fill:rgb(91.796875%,80.46875%,68.943787%);fill-opacity:1;" d="M 466.707031 336.570313 C 451.484375 304.625 413.964844 326.390625 410.265625 358.742188 C 408.15625 377.207031 420.992188 396.964844 436.8125 402.726563 C 436.539063 405.878906 437.230469 409.371094 436.710938 412.632813 C 441.800781 413.519531 446.828125 413.480469 451.6875 413.054688 C 454.5625 412.800781 456.476563 409.96875 455.671875 407.199219 C 455.191406 405.535156 454.726563 403.914063 454.453125 402.8125 C 457.214844 401.761719 459.9375 400.15625 462.566406 397.929688 C 470.78125 390.972656 474.871094 379.066406 474.871094 367.894531 C 474.871094 356.71875 471.28125 346.171875 466.707031 336.570313 "/>
<path style=" stroke:none;fill-rule:nonzero;fill:rgb(65.818787%,58.006287%,41.575623%);fill-opacity:1;" d="M 464.84375 536.707031 C 460.484375 523.585938 449.902344 513.679688 441.976563 502.347656 C 438.933594 498 436.105469 493.371094 433.59375 488.550781 C 421.710938 464.566406 427.644531 445.394531 434.621094 427.0625 C 441.605469 408.699219 443.699219 407.914063 427.070313 394.074219 C 411.621094 381.21875 419.921875 351.054688 421.171875 346.847656 C 423.691406 338.804688 427.449219 331.832031 432.335938 327.71875 C 437.160156 323.664063 442.578125 323.03125 448.601563 323.128906 C 452.726563 323.195313 452.835938 324.757813 456.390625 322.65625 C 459.117188 321.046875 461.5625 316.058594 462.273438 313.117188 C 463.476563 308.15625 461.640625 302.824219 458.464844 298.824219 C 439.863281 275.394531 412.378906 294.414063 397.433594 311.625 C 385.113281 325.8125 374.734375 342.191406 369.726563 360.445313 C 365.042969 377.515625 363.023438 402.714844 364.425781 420.304688 C 365.753906 436.96875 374.980469 453.308594 371.132813 469.574219 C 367.632813 484.363281 354.4375 494.414063 342.960938 504.375 C 331.488281 514.335938 320.113281 527.773438 322.316406 542.808594 C 323.679688 552.09375 330.304688 560.054688 338.472656 564.671875 C 346.640625 569.285156 356.199219 570.898438 365.582031 571.105469 C 373.089844 571.269531 380.726563 570.59375 388.023438 572.371094 C 395.320313 574.148438 402.472656 579.09375 404.15625 586.414063 C 405.085938 590.453125 404.632813 595.488281 408.050781 597.835938 C 409.65625 598.933594 411.710938 599.070313 413.652344 599.171875 C 419.589844 599.480469 426.339844 599.484375 430.429688 595.171875 C 436.765625 588.496094 433.476563 574.734375 441.910156 571.050781 C 444.382813 569.972656 447.199219 570.214844 449.867188 569.824219 C 463.550781 567.839844 469.203125 549.824219 464.84375 536.707031 "/>
<path style=" stroke:none;fill-rule:nonzero;fill:rgb(26.660156%,25.097656%,23.925781%);fill-opacity:1;" d="M 374.949219 352.898438 C 376.445313 357.390625 380.066406 360.53125 384.320313 360.855469 C 392.910156 361.511719 409.023438 360.703125 429.394531 350.714844 C 449.765625 340.726563 460.269531 328.484375 465.011719 321.289063 C 467.359375 317.730469 467.089844 312.941406 464.457031 309.007813 L 441.101563 274.121094 L 361.667969 313.070313 L 374.949219 352.898438 "/>
<path style=" stroke:none;fill-rule:nonzero;fill:rgb(21.972656%,20.776367%,19.993591%);fill-opacity:1;" d="M 367.042969 329.183594 L 361.667969 313.070313 L 441.101563 274.121094 L 450.503906 288.164063 L 420.429688 332.957031 L 367.042969 329.183594 "/>
<g clip-path="url(#clip1)" clip-rule="nonzero">
<g clip-path="url(#clip2)" clip-rule="nonzero">
<path style=" stroke:none;fill-rule:nonzero;fill:rgb(33.714294%,33.714294%,33.714294%);fill-opacity:1;" d="M 338.746094 324.3125 L 383.800781 257.210938 L 464.027344 262.878906 L 418.96875 329.980469 L 338.746094 324.3125 "/>
</g>
</g>
<path style=" stroke:none;fill-rule:nonzero;fill:rgb(100%,85.9375%,19.213867%);fill-opacity:1;" d="M 391.820313 357.058594 C 392.914063 356.914063 393.980469 356.578125 394.933594 356.046875 C 396.828125 354.992188 395.355469 353.503906 394.660156 352.097656 C 394.050781 350.867188 393.441406 349.636719 392.832031 348.402344 C 391.371094 345.453125 389.914063 342.503906 388.453125 339.554688 C 387.324219 337.273438 386.421875 335.199219 384.6875 333.308594 C 383.964844 332.519531 383.28125 331.769531 382.757813 330.972656 C 381.269531 328.695313 382.015625 326.417969 383.917969 323.015625 C 385.734375 319.761719 387.847656 316.554688 389.683594 313.804688 C 393.679688 307.820313 398.066406 301.628906 403.09375 294.867188 C 403.796875 293.921875 403.597656 292.589844 402.65625 291.886719 C 401.710938 291.1875 400.378906 291.382813 399.675781 292.324219 C 394.605469 299.144531 390.179688 305.398438 386.144531 311.4375 C 384.261719 314.257813 382.09375 317.550781 380.199219 320.941406 C 378.355469 324.238281 376.824219 327.996094 378.363281 331.738281 C 379.414063 334.289063 381.214844 336.460938 382.292969 338.96875 C 383.09375 340.832031 383.929688 342.429688 384.289063 344.421875 C 384.863281 347.578125 385.433594 350.734375 386.007813 353.894531 C 386.28125 355.394531 386.496094 356.324219 388.089844 356.789063 C 389.28125 357.136719 390.570313 357.222656 391.820313 357.058594 "/>
<path style=" stroke:none;fill-rule:nonzero;fill:rgb(98.826599%,69.726563%,2.352905%);fill-opacity:1;" d="M 378.789063 340.8125 C 380.371094 344.039063 384.269531 345.371094 387.496094 343.789063 C 390.722656 342.207031 392.058594 338.308594 390.472656 335.082031 C 388.890625 331.855469 384.996094 330.523438 381.765625 332.105469 C 378.539063 333.6875 377.207031 337.585938 378.789063 340.8125 "/>
<path style=" stroke:none;fill-rule:nonzero;fill:rgb(31.762695%,28.637695%,26.268005%);fill-opacity:1;" d="M 1038.648438 976.964844 L 1039.5 987.007813 L 1021.070313 999.214844 L 1010.578125 990.246094 L 1019.371094 979.121094 L 1037.800781 966.917969 L 1038.648438 976.964844 "/>
<path style=" stroke:none;fill-rule:nonzero;fill:rgb(79.296875%,70.896912%,63.084412%);fill-opacity:1;" d="M 1043.261719 670.320313 L 1045.839844 700.828125 L 1016.789063 805.027344 L 1039.390625 973.613281 L 1020.601563 979.738281 L 974.066406 814.746094 L 967.042969 766.855469 L 968.996094 665.75 L 1043.261719 670.320313 "/>
<path style=" stroke:none;fill-rule:nonzero;fill:rgb(79.296875%,70.896912%,63.084412%);fill-opacity:1;" d="M 899.058594 701.894531 L 933.6875 984.328125 L 951.542969 984.621094 L 957.742188 804.054688 L 992.335938 677.8125 L 899.058594 701.894531 "/>
<path style=" stroke:none;fill-rule:nonzero;fill:rgb(31.762695%,28.637695%,26.268005%);fill-opacity:1;" d="M 951.476563 982.394531 L 951.308594 992.515625 L 931.835938 1002.320313 L 922.347656 992.035156 L 932.167969 982.074219 L 951.476563 982.394531 "/>
<path style=" stroke:none;fill-rule:nonzero;fill:rgb(33.714294%,33.714294%,33.714294%);fill-opacity:1;" d="M 973.574219 405.910156 C 973.574219 405.910156 944.597656 404.378906 924.535156 468.40625 C 904.476563 532.433594 851.117188 856.515625 857.574219 889.328125 C 864.035156 922.144531 929.441406 897.902344 971.402344 900.703125 C 1013.359375 903.507813 1076.070313 921.425781 1090.71875 882.628906 C 1090.71875 882.628906 1043.640625 584.320313 1033.671875 521.90625 C 1023.699219 459.492188 1030.578125 405.796875 973.574219 405.910156 "/>
<path style=" stroke:none;fill-rule:nonzero;fill:rgb(61.914063%,39.988708%,32.151794%);fill-opacity:1;" d="M 968.546875 332.78125 C 955.554688 336.105469 945.175781 347.90625 943.539063 361.210938 C 936.582031 354.511719 933.140625 344.34375 934.597656 334.796875 C 936.058594 325.246094 942.378906 316.570313 951.019531 312.257813 C 958.96875 316.644531 965.058594 324.273438 967.578125 332.992188 L 968.546875 332.78125 "/>
<path style=" stroke:none;fill-rule:nonzero;fill:rgb(91.796875%,80.46875%,68.943787%);fill-opacity:1;" d="M 940.898438 344.859375 C 948.160156 309.691406 992.132813 316.519531 1004.308594 345.292969 C 1011.230469 361.65625 1003.308594 384.527344 988.746094 395.59375 C 988.386719 398.710938 987.839844 407.320313 985.414063 409.367188 C 982.792969 411.585938 974.683594 409.296875 971.503906 408.507813 C 970.621094 408.285156 969.699219 408.015625 969.070313 407.363281 C 968.28125 406.546875 968.179688 404.386719 968.203125 401.996094 C 965.863281 401.800781 963.472656 401.304688 961.042969 400.460938 C 950.847656 396.925781 943.578125 387.3125 940.679688 376.921875 C 937.78125 366.527344 938.714844 355.425781 940.898438 344.859375 "/>
<path style=" stroke:none;fill-rule:nonzero;fill:rgb(61.914063%,39.988708%,32.151794%);fill-opacity:1;" d="M 1003.230469 467.898438 C 994.84375 467.566406 986.484375 466.53125 978.277344 464.785156 C 983.917969 465.988281 986.796875 405.425781 987.070313 401.226563 C 988.320313 381.792969 990.457031 365.6875 977.484375 350.953125 C 974.175781 347.195313 948.738281 330.703125 947.789063 325.789063 C 946.742188 320.351563 949.003906 314.667969 952.644531 310.5 C 958.253906 304.082031 964.832031 300.953125 973.140625 300.890625 C 989.917969 300.769531 1007.660156 307.777344 1018.75 320.578125 C 1032.148438 336.046875 1035.691406 358.449219 1036 378.335938 C 1036.078125 383.671875 1035.851563 389.039063 1036.601563 394.320313 C 1037.410156 399.976563 1039.308594 405.402344 1040.988281 410.859375 C 1043.460938 418.921875 1045.46875 427.265625 1045.121094 435.691406 C 1044.78125 444.117188 1041.839844 452.714844 1035.679688 458.476563 C 1027.101563 466.519531 1014.488281 468.339844 1003.230469 467.898438 "/>
<path style=" stroke:none;fill-rule:nonzero;fill:rgb(26.660156%,25.097656%,23.925781%);fill-opacity:1;" d="M 1039.320313 339.492188 C 1038.230469 343.875 1035.019531 347.136719 1031 347.757813 C 1022.871094 349.019531 1007.488281 349.445313 987.367188 341.453125 C 967.246094 333.464844 956.34375 322.597656 951.300781 316.105469 C 948.800781 312.890625 948.699219 308.316406 950.914063 304.378906 L 970.546875 269.457031 L 1049 300.617188 L 1039.320313 339.492188 "/>
<path style=" stroke:none;fill-rule:nonzero;fill:rgb(21.972656%,20.776367%,19.993591%);fill-opacity:1;" d="M 1045.089844 316.347656 L 1049 300.617188 L 970.546875 269.457031 L 962.640625 283.515625 L 994.574219 323.894531 L 1045.089844 316.347656 "/>
<g clip-path="url(#clip3)" clip-rule="nonzero">
<g clip-path="url(#clip4)" clip-rule="nonzero">
<path style=" stroke:none;fill-rule:nonzero;fill:rgb(33.714294%,33.714294%,33.714294%);fill-opacity:1;" d="M 1071.640625 309.609375 L 1023.800781 249.117188 L 947.902344 260.464844 L 995.742188 320.957031 L 1071.640625 309.609375 "/>
</g>
</g>
<path style=" stroke:none;fill-rule:nonzero;fill:rgb(100%,85.9375%,19.213867%);fill-opacity:1;" d="M 1023.578125 344.703125 C 1022.53125 344.644531 1021.488281 344.402344 1020.550781 343.972656 C 1018.660156 343.109375 1019.949219 341.578125 1020.511719 340.191406 C 1021 338.976563 1021.488281 337.761719 1021.980469 336.542969 C 1023.148438 333.628906 1024.320313 330.714844 1025.480469 327.800781 C 1026.390625 325.546875 1027.101563 323.503906 1028.601563 321.578125 C 1029.230469 320.773438 1029.828125 320.011719 1030.269531 319.210938 C 1031.519531 316.933594 1030.628906 314.824219 1028.570313 311.730469 C 1026.601563 308.769531 1024.359375 305.875 1022.398438 303.394531 C 1018.160156 298 1013.53125 292.429688 1008.238281 286.371094 C 1007.511719 285.527344 1007.589844 284.242188 1008.441406 283.507813 C 1009.28125 282.769531 1010.570313 282.855469 1011.300781 283.703125 C 1016.640625 289.8125 1021.308594 295.433594 1025.601563 300.882813 C 1027.601563 303.425781 1029.898438 306.394531 1031.960938 309.480469 C 1033.949219 312.480469 1035.691406 315.941406 1034.5 319.613281 C 1033.691406 322.117188 1032.140625 324.320313 1031.300781 326.785156 C 1030.679688 328.617188 1030 330.195313 1029.808594 332.117188 C 1029.5 335.164063 1029.191406 338.214844 1028.878906 341.261719 C 1028.730469 342.707031 1028.589844 343.609375 1027.109375 344.167969 C 1026 344.585938 1024.78125 344.765625 1023.578125 344.703125 "/>
<path style=" stroke:none;fill-rule:nonzero;fill:rgb(98.826599%,69.726563%,2.352905%);fill-opacity:1;" d="M 1034.769531 328.277344 C 1033.511719 331.464844 1029.898438 333.023438 1026.710938 331.757813 C 1023.519531 330.492188 1021.960938 326.882813 1023.230469 323.695313 C 1024.5 320.507813 1028.109375 318.949219 1031.289063 320.21875 C 1034.480469 321.480469 1036.039063 325.09375 1034.769531 328.277344 "/>
<path style=" stroke:none;fill-rule:nonzero;fill:rgb(22.75238%,18.821716%,16.088867%);fill-opacity:1;" d="M 817.480469 972.894531 L 820.277344 985.726563 L 798.109375 1004 L 782.832031 993.890625 L 792.515625 978.335938 L 814.683594 960.0625 L 817.480469 972.894531 "/>
<path style=" stroke:none;fill-rule:nonzero;fill:rgb(54.881287%,58.006287%,59.568787%);fill-opacity:1;" d="M 739.957031 578.339844 L 764.691406 635.378906 L 767.023438 795.855469 L 817.886719 968.476563 L 794.234375 978.960938 L 690.449219 778.527344 L 678.636719 715.046875 L 673.941406 581.34375 L 739.957031 578.339844 "/>
<path style=" stroke:none;fill-rule:nonzero;fill:rgb(54.881287%,58.006287%,59.568787%);fill-opacity:1;" d="M 620.199219 591.121094 L 618.253906 759.304688 L 649.949219 976.148438 L 674.316406 976.148438 L 689.710938 776.0625 L 723.054688 575.980469 L 620.199219 591.121094 "/>
<path style=" stroke:none;fill-rule:nonzero;fill:rgb(22.75238%,18.821716%,16.088867%);fill-opacity:1;" d="M 674.175781 973.25 L 674.175781 986.425781 L 647.824219 999.605469 L 634.648438 986.425781 L 647.824219 973.25 L 674.175781 973.25 "/>
<path style=" stroke:none;fill-rule:nonzero;fill:rgb(33.714294%,33.714294%,33.714294%);fill-opacity:1;" d="M 687.945313 361.085938 C 687.945313 361.085938 635.945313 343.398438 604.945313 538.976563 C 573.945313 734.558594 578.945313 890.605469 604.945313 903.089844 C 630.945313 915.570313 684.882813 893.726563 738.914063 898.925781 C 792.945313 904.128906 841.945313 884.363281 841.945313 884.359375 C 841.945313 835.683594 828.5 785.820313 821.742188 737.734375 C 811.246094 663.078125 804.664063 587.515625 789.589844 513.636719 C 780.058594 466.9375 766.277344 367.191406 707.484375 359.289063 C 700.933594 358.410156 694.269531 359.179688 687.945313 361.085938 "/>
<path style=" stroke:none;fill-rule:nonzero;fill:rgb(91.796875%,80.46875%,68.943787%);fill-opacity:1;" d="M 691.386719 370.003906 C 698.945313 369.265625 706.503906 368.523438 714.066406 367.785156 C 714.148438 361.730469 713.742188 355.664063 712.859375 349.671875 C 719.164063 347.464844 726.449219 344.152344 727.554688 337.566406 C 727.902344 335.492188 727.546875 333.371094 727.191406 331.300781 C 725.722656 322.730469 724.253906 314.160156 722.785156 305.589844 C 722.277344 302.625 721.734375 299.574219 720.128906 297.03125 C 717.304688 292.574219 711.820313 290.617188 706.621094 289.707031 C 693.355469 287.386719 678.894531 290.242188 668.59375 298.917969 C 665.855469 301.226563 663.375 304.003906 662.164063 307.375 C 660.292969 312.578125 661.679688 318.316406 663.074219 323.664063 C 664.363281 328.601563 665.652344 333.535156 666.941406 338.472656 C 668.421875 344.148438 670.566406 350.601563 676.03125 352.734375 C 678.929688 353.867188 682.359375 353.542969 684.984375 355.21875 C 689.617188 358.175781 688.980469 365.0625 691.386719 370.003906 "/>
<path style=" stroke:none;fill-rule:nonzero;fill:rgb(22.75238%,18.821716%,16.088867%);fill-opacity:1;" d="M 617.535156 284.347656 C 617.386719 278.472656 618.210938 272.527344 619.386719 267.167969 C 621.402344 257.964844 632.265625 253.824219 641.667969 253.171875 C 661.972656 251.765625 681.570313 242.558594 701.398438 249.664063 C 712.734375 253.726563 727.960938 254.699219 738.214844 260.425781 C 742.5 262.816406 745.914063 266.550781 748.574219 270.671875 C 757.792969 284.949219 757.816406 304.621094 748.636719 318.925781 C 746.574219 322.136719 744.113281 325.066406 741.523438 327.867188 C 736.164063 333.660156 729.753906 340.820313 722.394531 342.960938 C 722.226563 336.375 728.253906 315.621094 723.203125 310.21875 C 715.191406 301.644531 697.042969 304.609375 687.085938 306.703125 C 676.222656 308.988281 666.535156 316.664063 655.765625 318.292969 C 648.019531 319.464844 638.136719 315.652344 631.554688 311.640625 C 621.242188 305.351563 617.800781 294.960938 617.535156 284.347656 "/>
<path style=" stroke:none;fill-rule:nonzero;fill:rgb(26.660156%,25.097656%,23.925781%);fill-opacity:1;" d="M 751.152344 267.46875 C 750.824219 272.191406 748.101563 276.140625 744.066406 277.515625 C 735.910156 280.296875 720.109375 283.539063 697.886719 278.957031 C 675.667969 274.371094 662.4375 265.140625 656.050781 259.359375 C 652.886719 256.5 651.949219 251.796875 653.515625 247.328125 L 667.417969 207.714844 L 754.0625 225.585938 L 751.152344 267.46875 "/>
<path style=" stroke:none;fill-rule:nonzero;fill:rgb(21.972656%,20.776367%,19.993591%);fill-opacity:1;" d="M 752.886719 242.53125 L 754.0625 225.585938 L 667.417969 207.714844 L 661.820313 223.660156 L 702.132813 259.519531 L 752.886719 242.53125 "/>
<g clip-path="url(#clip5)" clip-rule="nonzero">
<g clip-path="url(#clip6)" clip-rule="nonzero">
<path style=" stroke:none;fill-rule:nonzero;fill:rgb(33.714294%,33.714294%,33.714294%);fill-opacity:1;" d="M 779.066406 230.746094 L 718.679688 177.027344 L 642.414063 202.554688 L 702.800781 256.273438 L 779.066406 230.746094 "/>
</g>
</g>
<path style=" stroke:none;fill-rule:nonzero;fill:rgb(100%,85.9375%,19.213867%);fill-opacity:1;" d="M 735.855469 275.710938 C 734.761719 275.847656 733.644531 275.785156 732.589844 275.511719 C 730.488281 274.964844 731.542969 273.152344 731.867188 271.617188 C 732.148438 270.273438 732.429688 268.929688 732.710938 267.585938 C 733.390625 264.363281 734.066406 261.140625 734.742188 257.921875 C 735.265625 255.429688 735.625 253.195313 736.828125 250.933594 C 737.332031 249.984375 737.808594 249.09375 738.113281 248.1875 C 738.988281 245.609375 737.695313 243.59375 735.003906 240.773438 C 732.429688 238.078125 729.585938 235.5 727.117188 233.296875 C 721.757813 228.5 715.960938 223.597656 709.402344 218.308594 C 708.488281 217.570313 708.34375 216.230469 709.085938 215.3125 C 709.820313 214.398438 711.160156 214.257813 712.078125 214.992188 C 718.691406 220.328125 724.539063 225.277344 729.957031 230.121094 C 732.484375 232.378906 735.402344 235.027344 738.085938 237.835938 C 740.695313 240.570313 743.113281 243.824219 742.558594 247.832031 C 742.179688 250.5625 740.980469 253.117188 740.5625 255.816406 C 740.25 257.820313 739.839844 259.574219 739.988281 261.59375 C 740.222656 264.792969 740.460938 267.996094 740.691406 271.195313 C 740.804688 272.714844 740.824219 273.671875 739.398438 274.519531 C 738.332031 275.148438 737.109375 275.558594 735.855469 275.710938 "/>
<path style=" stroke:none;fill-rule:nonzero;fill:rgb(98.826599%,69.726563%,2.352905%);fill-opacity:1;" d="M 744.414063 256.726563 C 743.6875 260.246094 740.246094 262.511719 736.726563 261.78125 C 733.207031 261.058594 730.941406 257.617188 731.667969 254.097656 C 732.394531 250.578125 735.835938 248.3125 739.355469 249.039063 C 742.875 249.765625 745.140625 253.207031 744.414063 256.726563 "/>
<path style=" stroke:none;fill-rule:nonzero;fill:rgb(100%,96.875%,92.96875%);fill-opacity:1;" d="M 993.230469 922.035156 L 405.667969 873.726563 L 443 419.699219 L 1030.558594 468.007813 L 993.230469 922.035156 "/>
<path style=" stroke:none;fill-rule:nonzero;fill:rgb(74.804688%,69.726563%,52.539063%);fill-opacity:1;" d="M 470.5625 451.945313 L 996.761719 495.207031 L 964.324219 889.703125 L 438.128906 846.4375 Z M 463.246094 443.316406 L 429.5 853.757813 L 971.644531 898.332031 L 1005.390625 487.890625 L 463.246094 443.316406 "/>
<path style=" stroke:none;fill-rule:nonzero;fill:rgb(74.804688%,69.726563%,52.539063%);fill-opacity:1;" d="M 479.261719 460.910156 L 448.210938 838.550781 L 956.003906 880.300781 L 987.050781 502.664063 Z M 984.894531 504.492188 L 954.171875 878.144531 L 450.371094 836.71875 L 481.089844 463.070313 L 984.894531 504.492188 "/>
<path style=" stroke:none;fill-rule:nonzero;fill:rgb(74.804688%,65.429688%,32.93457%);fill-opacity:1;" d="M 588.097656 779.316406 L 596.117188 773.445313 L 589.167969 766.34375 L 595.390625 758.59375 L 586.839844 753.53125 L 590.847656 744.4375 L 581.273438 741.765625 L 582.792969 731.941406 L 572.855469 731.835938 L 571.78125 721.953125 L 562.152344 724.425781 L 558.554688 715.160156 L 549.894531 720.035156 L 544.023438 712.019531 L 536.921875 718.96875 L 529.175781 712.742188 L 524.113281 721.296875 L 515.019531 717.289063 L 512.34375 726.859375 L 502.523438 725.34375 L 502.414063 735.28125 L 492.535156 736.355469 L 495.003906 745.980469 L 485.738281 749.578125 L 490.617188 758.238281 L 482.597656 764.109375 L 489.550781 771.214844 L 483.324219 778.960938 L 491.878906 784.019531 L 487.867188 793.117188 L 497.441406 795.789063 L 495.921875 805.613281 L 505.859375 805.71875 L 506.9375 815.601563 L 516.5625 813.132813 L 520.160156 822.394531 L 528.820313 817.519531 L 534.691406 825.539063 L 541.792969 818.585938 L 549.539063 824.8125 L 554.601563 816.257813 L 563.695313 820.265625 L 566.371094 810.695313 L 576.195313 812.214844 L 576.300781 802.273438 L 586.179688 801.199219 L 583.710938 791.570313 L 592.976563 787.976563 L 588.097656 779.316406 "/>
<path style=" stroke:none;fill-rule:nonzero;fill:rgb(100%,96.875%,92.96875%);fill-opacity:1;" d="M 536.617188 802.125 L 530.121094 804.886719 L 531.882813 798.054688 L 527.25 792.730469 L 534.292969 792.292969 L 537.921875 786.242188 L 540.515625 792.804688 L 547.390625 794.386719 L 541.953125 798.882813 L 542.570313 805.910156 L 536.617188 802.125 "/>
<path style=" stroke:none;fill-rule:nonzero;fill:rgb(100%,96.875%,92.96875%);fill-opacity:1;" d="M 510.316406 787.875 L 503.820313 790.636719 L 505.578125 783.804688 L 500.949219 778.480469 L 507.988281 778.039063 L 511.621094 771.992188 L 514.214844 778.554688 L 521.089844 780.136719 L 515.652344 784.632813 L 516.269531 791.660156 L 510.316406 787.875 "/>
<path style=" stroke:none;fill-rule:nonzero;fill:rgb(100%,96.875%,92.96875%);fill-opacity:1;" d="M 564.890625 792.363281 L 558.398438 795.121094 L 560.15625 788.289063 L 555.523438 782.96875 L 562.566406 782.527344 L 566.199219 776.480469 L 568.792969 783.039063 L 575.667969 784.625 L 570.226563 789.117188 L 570.847656 796.144531 L 564.890625 792.363281 "/>
<path style=" stroke:none;fill-rule:nonzero;fill:rgb(85.9375%,81.639099%,66.209412%);fill-opacity:1;" d="M 857.621094 656.96875 L 581.753906 634.289063 L 582 631.296875 L 857.867188 653.980469 L 857.621094 656.96875 "/>
<path style=" stroke:none;fill-rule:nonzero;fill:rgb(85.9375%,81.639099%,66.209412%);fill-opacity:1;" d="M 852.652344 717.390625 L 576.785156 694.710938 L 577.03125 691.71875 L 852.898438 714.402344 L 852.652344 717.390625 "/>
<path style=" stroke:none;fill-rule:nonzero;fill:rgb(85.9375%,81.639099%,66.209412%);fill-opacity:1;" d="M 944 682.507813 L 492.359375 645.371094 L 492.605469 642.382813 L 944.246094 679.515625 L 944 682.507813 "/>
<path style=" stroke:none;fill-rule:nonzero;fill:rgb(85.9375%,81.639099%,66.209412%);fill-opacity:1;" d="M 821.214844 800.828125 L 611.261719 783.566406 L 611.507813 780.578125 L 821.460938 797.839844 L 821.214844 800.828125 "/>
<path style=" stroke:none;fill-rule:nonzero;fill:rgb(85.9375%,81.639099%,66.209412%);fill-opacity:1;" d="M 819.605469 820.359375 L 609.65625 803.097656 L 609.902344 800.109375 L 819.851563 817.371094 L 819.605469 820.359375 "/>
<path style=" stroke:none;fill-rule:nonzero;fill:rgb(85.9375%,81.639099%,66.209412%);fill-opacity:1;" d="M 818.003906 839.890625 L 608.050781 822.628906 L 608.296875 819.640625 L 818.246094 836.902344 L 818.003906 839.890625 "/>
<path style=" stroke:none;fill-rule:nonzero;fill:rgb(85.9375%,81.639099%,66.209412%);fill-opacity:1;" d="M 942.394531 702.035156 L 490.753906 664.902344 L 491 661.910156 L 942.640625 699.046875 L 942.394531 702.035156 "/>
<path style=" stroke:none;fill-rule:nonzero;fill:rgb(33.714294%,33.714294%,33.714294%);fill-opacity:1;" d="M 479 422.710938 C 479.457031 423.226563 504.574219 404.785156 504.574219 404.785156 L 569.765625 417.230469 L 581.644531 431.261719 L 531.761719 427.113281 L 479 422.710938 "/>
<path style=" stroke:none;fill-rule:nonzero;fill:rgb(91.796875%,80.46875%,68.943787%);fill-opacity:1;" d="M 540.78125 427.898438 L 553.167969 420.867188 L 570.789063 427.351563 L 577.410156 445.964844 L 563.71875 446.832031 L 551.808594 429.03125 L 540.78125 427.898438 "/>
<path style=" stroke:none;fill-rule:nonzero;fill:rgb(87.889099%,85.15625%,82.03125%);fill-opacity:1;" d="M 525.945313 537 L 562.945313 485 C 562.945313 485 575.945313 485 583.945313 493 C 591.945313 501 583.945313 506 583.945313 506 L 540.945313 552 L 519.945313 595 C 519.945313 595 495.945313 598 495.945313 578 L 525.945313 537 "/>
<path style=" stroke:none;fill-rule:nonzero;fill:rgb(78.125%,73.631287%,68.554688%);fill-opacity:1;" d="M 584.800781 505.339844 C 584.800781 505.339844 563.945313 497 570.945313 491 L 566.945313 492 L 506.945313 575 L 501.597656 590.867188 C 508.691406 596.402344 519.945313 595 519.945313 595 L 540.945313 552 L 583.945313 506 C 583.945313 506 584.308594 505.769531 584.800781 505.339844 "/>
<path style=" stroke:none;fill-rule:nonzero;fill:rgb(91.796875%,80.46875%,68.943787%);fill-opacity:1;" d="M 513.453125 536.746094 L 525.945313 537 L 530.945313 546 L 543.945313 549 L 539.054688 564.066406 L 515.234375 579.671875 L 504.902344 575.085938 L 499.070313 565.328125 L 502.121094 550.113281 L 513.453125 536.746094 "/>
<path style=" stroke:none;fill-rule:nonzero;fill:rgb(36.083984%,36.083984%,36.083984%);fill-opacity:1;" d="M 510.730469 542 C 509.46875 535.425781 508.328125 530.6875 507.429688 529.445313 C 507.015625 528.871094 506.171875 528.476563 504.964844 528.238281 C 451.472656 534.859375 352.945313 569 352.945313 569 L 336.945313 612 C 336.945313 612 439.648438 649.347656 487.164063 659.566406 C 488.90625 643.1875 498.371094 624.863281 506.945313 602 C 515.941406 578.007813 510.730469 542.015625 510.730469 542 "/>
<path style=" stroke:none;fill-rule:nonzero;fill:rgb(59.959412%,7.835388%,16.868591%);fill-opacity:1;" d="M 525.945313 537 L 530.054688 531.222656 C 530.054688 531.222656 534.945313 538 535.945313 539 C 536.945313 540 549.285156 543.078125 549.285156 543.078125 L 543.199219 549.589844 L 530.945313 546 L 525.945313 537 "/>
<path style=" stroke:none;fill-rule:nonzero;fill:rgb(87.889099%,85.15625%,82.03125%);fill-opacity:1;" d="M 828.953125 192.707031 L 778.628906 153.460938 C 778.628906 153.460938 779.199219 140.472656 787.539063 132.832031 C 795.882813 125.191406 800.527344 133.402344 800.527344 133.402344 L 844.597656 178.378906 L 886.632813 201.246094 C 886.632813 201.246094 888.578125 225.355469 868.597656 224.476563 L 828.953125 192.707031 "/>
<path style=" stroke:none;fill-rule:nonzero;fill:rgb(78.125%,73.631287%,68.554688%);fill-opacity:1;" d="M 799.90625 132.519531 C 799.90625 132.519531 790.660156 152.988281 784.972656 145.730469 L 785.796875 149.773438 L 866.085938 213.355469 L 881.703125 219.394531 C 887.542969 212.550781 886.632813 201.246094 886.632813 201.246094 L 844.597656 178.378906 L 800.527344 133.402344 C 800.527344 133.402344 800.316406 133.027344 799.90625 132.519531 "/>
<path style=" stroke:none;fill-rule:nonzero;fill:rgb(59.959412%,7.835388%,16.868591%);fill-opacity:1;" d="M 828.953125 192.707031 L 823.363281 188.347656 C 823.363281 188.347656 830.347656 183.761719 831.390625 182.804688 C 832.433594 181.851563 836.050781 169.65625 836.050781 169.65625 L 842.285156 176.019531 L 838.164063 188.105469 L 828.953125 192.707031 "/>
<path style=" stroke:none;fill-rule:nonzero;fill:rgb(91.796875%,80.46875%,68.943787%);fill-opacity:1;" d="M 848.945313 167 L 839.445313 172.75 L 841.945313 185 L 860.945313 197 L 869.945313 188 L 848.945313 167 "/>
<path style=" stroke:none;fill-rule:nonzero;fill:rgb(91.796875%,80.46875%,68.943787%);fill-opacity:1;" d="M 623.195313 434 L 615.945313 426 L 595.945313 428 L 592.945313 446 L 607.945313 447 L 617.945313 434 L 623.195313 434 "/>
<path style=" stroke:none;fill-rule:nonzero;fill:rgb(33.714294%,33.714294%,33.714294%);fill-opacity:1;" d="M 966.945313 407 L 927.945313 413 L 809.945313 456 L 963.945313 468 L 966.945313 407 "/>
<path style=" stroke:none;fill-rule:nonzero;fill:rgb(36.083984%,36.083984%,36.083984%);fill-opacity:1;" d="M 877.265625 423.503906 L 911.695313 430.425781 L 920.878906 497.4375 L 865.527344 506.160156 C 865.527344 506.160156 796.816406 446.171875 799.050781 446.144531 C 801.285156 446.117188 832.855469 416.535156 832.855469 416.535156 L 877.265625 423.503906 "/>
<path style=" stroke:none;fill-rule:nonzero;fill:rgb(91.796875%,80.46875%,68.943787%);fill-opacity:1;" d="M 904.503906 500.019531 L 906.398438 525.066406 L 900.828125 541.125 L 881.933594 534.566406 L 876.015625 504.507813 L 904.503906 500.019531 "/>
<path style=" stroke:none;fill-rule:nonzero;fill:rgb(87.889099%,85.15625%,82.03125%);fill-opacity:1;" d="M 953.613281 449.105469 L 945.128906 390.53125 C 945.128906 390.53125 934.402344 385.023438 924.414063 388.230469 C 914.425781 391.441406 918.90625 398.953125 918.90625 398.953125 L 934.882813 455.121094 L 933.980469 499.492188 C 933.980469 499.492188 952.507813 512.136719 960.984375 495.640625 L 953.613281 449.105469 "/>
<path style=" stroke:none;fill-rule:nonzero;fill:rgb(78.125%,73.631287%,68.554688%);fill-opacity:1;" d="M 918.480469 398.046875 C 918.480469 398.046875 939.214844 400.007813 935.984375 392.089844 L 938.859375 394.609375 L 953.179688 488.503906 L 950.867188 503.859375 C 942.667969 505.417969 933.980469 499.492188 933.980469 499.492188 L 934.882813 455.121094 L 918.90625 398.953125 C 918.90625 398.953125 918.703125 398.613281 918.480469 398.046875 "/>
<path style=" stroke:none;fill-rule:nonzero;fill:rgb(59.959412%,7.835388%,16.868591%);fill-opacity:1;" d="M 953.613281 449.105469 L 952.667969 442.597656 C 952.667969 442.597656 945.765625 446.117188 944.515625 446.519531 C 943.265625 446.917969 931.785156 444.230469 931.785156 444.230469 L 934.042969 452.175781 L 945.671875 454.410156 L 953.613281 449.105469 "/>
<path style=" stroke:none;fill-rule:nonzero;fill:rgb(91.796875%,80.46875%,68.943787%);fill-opacity:1;" d="M 963.769531 473.886719 L 953.945313 447 L 933.945313 451 L 924.945313 466 L 941.945313 488 L 954.957031 492.597656 L 963.769531 473.886719 "/>
<path style=" stroke:none;fill-rule:nonzero;fill:rgb(36.083984%,36.083984%,36.083984%);fill-opacity:1;" d="M 1130.941406 544 L 1005.941406 478 L 966.945313 468 C 966.945313 468 945.945313 505 948.945313 519 C 951.945313 533 989.945313 606 989.945313 606 L 1098.941406 606 L 1130.941406 544 "/>
<path style=" stroke:none;fill-rule:nonzero;fill:rgb(61.914063%,54.101563%,27.43988%);fill-opacity:1;" d="M 619.90625 544.09375 C 619.75 543.59375 619.492188 543.328125 619.140625 543.296875 C 618.695313 543.257813 617.941406 543.480469 616.886719 543.957031 C 614.4375 545.109375 612.175781 545.597656 610.105469 545.421875 C 607.011719 545.15625 604.4375 544.359375 602.386719 543.03125 C 600.335938 541.699219 598.851563 539.902344 597.941406 537.640625 C 597.035156 535.378906 596.707031 532.726563 596.96875 529.6875 C 597.222656 526.683594 598.066406 524.09375 599.503906 521.90625 C 600.933594 519.726563 602.808594 518.101563 605.125 517.03125 C 607.441406 515.960938 610.007813 515.542969 612.828125 515.78125 C 614.480469 515.925781 615.859375 516.269531 616.96875 516.820313 C 618.074219 517.367188 619.144531 518.109375 620.175781 519.042969 C 620.480469 519.320313 620.738281 519.46875 620.949219 519.484375 C 621.222656 519.511719 621.457031 519.339844 621.648438 518.972656 C 621.835938 518.605469 622.011719 517.996094 622.175781 517.152344 L 623.101563 517.230469 C 622.839844 519.046875 622.511719 522.292969 622.113281 526.972656 L 621.171875 526.890625 C 621.128906 525.066406 620.945313 523.570313 620.621094 522.398438 C 620.296875 521.230469 619.683594 520.210938 618.78125 519.339844 C 618.191406 518.671875 617.441406 518.121094 616.527344 517.691406 C 615.613281 517.265625 614.664063 517.011719 613.679688 516.925781 C 611.804688 516.765625 610.191406 517.273438 608.835938 518.445313 C 607.484375 519.617188 606.417969 521.226563 605.644531 523.273438 C 604.867188 525.320313 604.375 527.582031 604.164063 530.058594 C 603.371094 539.355469 605.554688 544.222656 610.707031 544.660156 C 611.875 544.757813 612.84375 544.570313 613.625 544.097656 C 614 543.890625 614.269531 543.628906 614.445313 543.3125 C 614.617188 542.996094 614.722656 542.585938 614.765625 542.074219 L 615.101563 538.140625 C 615.210938 536.882813 615.183594 535.953125 615.023438 535.351563 C 614.863281 534.75 614.519531 534.316406 613.996094 534.054688 C 613.46875 533.792969 612.613281 533.585938 611.421875 533.429688 L 611.492188 532.625 C 613.03125 532.847656 615.320313 533.089844 618.363281 533.347656 C 620.839844 533.558594 622.640625 533.664063 623.761719 533.667969 L 623.695313 534.476563 C 623.136719 534.480469 622.734375 534.554688 622.488281 534.699219 C 622.234375 534.84375 622.046875 535.136719 621.917969 535.582031 C 621.785156 536.027344 621.675781 536.761719 621.589844 537.78125 L 620.910156 545.765625 L 620.105469 545.695313 C 620.125 545.132813 620.058594 544.597656 619.90625 544.09375 "/>
<path style=" stroke:none;fill-rule:nonzero;fill:rgb(61.914063%,54.101563%,27.43988%);fill-opacity:1;" d="M 640.992188 532.164063 C 641.886719 531.660156 642.535156 530.9375 642.941406 529.992188 C 643.34375 529.050781 643.601563 527.898438 643.71875 526.535156 C 643.90625 524.332031 643.660156 522.636719 642.976563 521.441406 C 642.289063 520.246094 641.0625 519.574219 639.292969 519.421875 C 638.574219 519.359375 638.03125 519.410156 637.667969 519.570313 C 637.300781 519.730469 637.039063 520.046875 636.875 520.515625 C 636.710938 520.980469 636.585938 521.703125 636.503906 522.671875 L 635.660156 532.582031 L 637.390625 532.730469 C 638.898438 532.855469 640.097656 532.667969 640.992188 532.164063 Z M 649.960938 548.257813 C 649.097656 548.554688 648.082031 548.652344 646.917969 548.554688 C 645.371094 548.421875 644.171875 547.988281 643.324219 547.257813 C 642.472656 546.523438 641.980469 545.347656 641.839844 543.722656 L 641.453125 539.648438 C 641.328125 538.335938 641.171875 537.265625 640.984375 536.449219 C 640.796875 535.636719 640.480469 534.976563 640.042969 534.472656 C 639.605469 533.964844 638.992188 533.679688 638.207031 533.609375 L 635.589844 533.386719 L 634.800781 542.648438 C 634.71875 543.65625 634.726563 544.398438 634.832031 544.871094 C 634.9375 545.34375 635.183594 545.679688 635.574219 545.886719 C 635.96875 546.089844 636.613281 546.25 637.515625 546.367188 L 637.449219 547.171875 C 636.023438 546.972656 634.003906 546.761719 631.382813 546.535156 C 628.511719 546.292969 626.390625 546.152344 625.019531 546.113281 L 625.089844 545.308594 C 625.984375 545.34375 626.640625 545.296875 627.0625 545.160156 C 627.480469 545.023438 627.789063 544.730469 627.980469 544.285156 C 628.167969 543.839844 628.304688 543.113281 628.390625 542.105469 L 630.09375 522.125 C 630.179688 521.117188 630.164063 520.375 630.054688 519.902344 C 629.941406 519.433594 629.691406 519.09375 629.296875 518.890625 C 628.90625 518.683594 628.265625 518.523438 627.378906 518.410156 L 627.445313 517.601563 C 628.804688 517.796875 630.835938 518.011719 633.550781 518.242188 C 634.628906 518.332031 635.820313 518.421875 637.132813 518.507813 C 638.445313 518.59375 639.359375 518.65625 639.871094 518.699219 C 643.566406 519.015625 646.300781 519.859375 648.074219 521.230469 C 649.84375 522.601563 650.632813 524.410156 650.441406 526.648438 C 650.339844 527.84375 649.960938 528.953125 649.308594 529.980469 C 648.652344 531.007813 647.617188 531.859375 646.199219 532.539063 C 644.78125 533.21875 642.953125 533.59375 640.714844 533.664063 L 640.753906 533.671875 C 642.367188 533.953125 643.679688 534.339844 644.6875 534.835938 C 645.695313 535.332031 646.460938 535.96875 646.992188 536.742188 C 647.515625 537.523438 647.851563 538.484375 647.992188 539.632813 L 648.5625 543.859375 C 648.695313 544.96875 648.882813 545.742188 649.128906 546.1875 C 649.375 546.628906 649.753906 546.871094 650.265625 546.914063 C 650.578125 546.929688 650.863281 546.875 651.109375 546.75 C 651.355469 546.628906 651.640625 546.417969 651.953125 546.128906 L 652.464844 546.667969 C 651.660156 547.433594 650.824219 547.960938 649.960938 548.257813 "/>
<path style=" stroke:none;fill-rule:nonzero;fill:rgb(61.914063%,54.101563%,27.43988%);fill-opacity:1;" d="M 663.980469 526.792969 L 658.882813 537.3125 L 667.046875 538.007813 Z M 677.449219 549.121094 C 677.859375 549.558594 678.285156 549.8125 678.730469 549.875 L 678.660156 550.679688 C 677.054688 550.464844 675.019531 550.25 672.558594 550.042969 C 669.804688 549.808594 667.761719 549.671875 666.433594 549.640625 L 666.5 548.832031 C 667.511719 548.878906 668.246094 548.816406 668.707031 548.644531 C 669.160156 548.472656 669.414063 548.125 669.457031 547.601563 C 669.492188 547.191406 669.382813 546.542969 669.128906 545.648438 L 667.273438 538.839844 L 658.503906 538.089844 L 657.203125 540.773438 C 656.308594 542.597656 655.816406 544.0625 655.722656 545.164063 C 655.636719 546.160156 655.871094 546.878906 656.429688 547.324219 C 656.984375 547.765625 657.859375 548.058594 659.046875 548.199219 L 658.980469 549.003906 C 657.175781 548.769531 655.515625 548.589844 653.996094 548.460938 C 652.761719 548.355469 651.738281 548.308594 650.917969 548.316406 L 650.984375 547.511719 C 652.339844 547.402344 653.613281 546.09375 654.804688 543.578125 L 665.992188 520.804688 C 666.421875 520.882813 666.886719 520.941406 667.386719 520.980469 C 667.910156 521.027344 668.375 521.046875 668.785156 521.042969 L 676.414063 547.082031 C 676.691406 548.003906 677.035156 548.683594 677.449219 549.121094 "/>
<path style=" stroke:none;fill-rule:nonzero;fill:rgb(61.914063%,54.101563%,27.43988%);fill-opacity:1;" d="M 688.761719 549.511719 C 688.878906 550.003906 689.136719 550.359375 689.542969 550.585938 C 689.945313 550.8125 690.574219 550.960938 691.425781 551.035156 C 693.640625 551.222656 695.453125 550.851563 696.859375 549.921875 C 698.265625 548.992188 699.335938 547.550781 700.078125 545.601563 C 700.820313 543.648438 701.316406 541.152344 701.574219 538.113281 C 701.835938 535.058594 701.746094 532.523438 701.300781 530.515625 C 700.859375 528.503906 700.019531 526.957031 698.777344 525.871094 C 697.535156 524.789063 695.839844 524.15625 693.6875 523.972656 C 692.847656 523.902344 692.214844 523.945313 691.789063 524.101563 C 691.359375 524.253906 691.042969 524.566406 690.84375 525.039063 C 690.648438 525.511719 690.507813 526.222656 690.425781 527.183594 L 688.710938 547.316406 C 688.628906 548.289063 688.644531 549.019531 688.761719 549.511719 Z M 686.210938 522.742188 L 687.46875 522.832031 C 691.25 523.074219 693.359375 523.210938 693.789063 523.25 C 699.035156 523.695313 702.855469 525.214844 705.253906 527.8125 C 707.65625 530.40625 708.664063 533.976563 708.277344 538.523438 C 708.027344 541.445313 707.171875 543.953125 705.714844 546.039063 C 704.257813 548.128906 702.269531 549.671875 699.757813 550.664063 C 697.242188 551.65625 694.324219 552.015625 691.011719 551.730469 C 690.617188 551.695313 689.695313 551.601563 688.253906 551.4375 C 686.808594 551.273438 685.769531 551.164063 685.140625 551.113281 C 682.375 550.878906 680.304688 550.742188 678.9375 550.703125 L 679.003906 549.894531 C 679.898438 549.933594 680.558594 549.882813 680.980469 549.75 C 681.398438 549.613281 681.703125 549.320313 681.894531 548.875 C 682.085938 548.429688 682.222656 547.703125 682.308594 546.691406 L 684.007813 526.714844 C 684.09375 525.703125 684.082031 524.964844 683.96875 524.492188 C 683.859375 524.019531 683.605469 523.683594 683.214844 523.480469 C 682.820313 523.273438 682.183594 523.113281 681.296875 522.996094 L 681.363281 522.191406 C 683.070313 522.429688 684.6875 522.613281 686.210938 522.742188 "/>
<path style=" stroke:none;fill-rule:nonzero;fill:rgb(61.914063%,54.101563%,27.43988%);fill-opacity:1;" d="M 735.910156 528.328125 C 735.46875 528.628906 735.144531 529.117188 734.9375 529.789063 C 734.726563 530.46875 734.5625 531.492188 734.445313 532.867188 L 733.539063 543.546875 C 733.210938 547.386719 732.417969 550.1875 731.15625 551.9375 C 730.324219 553.070313 729.195313 553.90625 727.777344 554.445313 C 726.355469 554.984375 724.652344 555.167969 722.660156 555 C 719.566406 554.734375 717.203125 553.855469 715.574219 552.355469 C 714.78125 551.601563 714.199219 550.753906 713.820313 549.8125 C 713.445313 548.867188 713.230469 547.78125 713.167969 546.558594 C 713.105469 545.328125 713.15625 543.792969 713.3125 541.941406 L 714.386719 529.300781 C 714.476563 528.289063 714.460938 527.550781 714.351563 527.078125 C 714.238281 526.605469 713.984375 526.269531 713.585938 526.0625 C 713.1875 525.855469 712.542969 525.695313 711.65625 525.582031 L 711.722656 524.773438 C 713.09375 524.972656 715.179688 525.1875 717.984375 525.429688 C 720.765625 525.664063 722.90625 525.804688 724.40625 525.855469 L 724.335938 526.660156 C 723.363281 526.617188 722.652344 526.660156 722.199219 526.796875 C 721.742188 526.929688 721.414063 527.21875 721.210938 527.664063 C 721.007813 528.109375 720.867188 528.835938 720.78125 529.84375 L 719.488281 545.023438 C 719.328125 546.910156 719.363281 548.464844 719.605469 549.679688 C 719.84375 550.894531 720.34375 551.839844 721.097656 552.519531 C 721.851563 553.199219 722.9375 553.597656 724.351563 553.71875 C 727.027344 553.945313 728.996094 553.199219 730.257813 551.484375 C 731.519531 549.769531 732.289063 547.25 732.574219 543.921875 L 733.480469 533.28125 C 733.613281 531.722656 733.617188 530.558594 733.488281 529.789063 C 733.363281 529.019531 733.046875 528.441406 732.539063 528.054688 C 732.03125 527.664063 731.203125 527.363281 730.058594 527.148438 L 730.128906 526.34375 C 731.132813 526.507813 732.578125 526.667969 734.464844 526.832031 C 735.957031 526.957031 737.128906 527.019531 737.972656 527.007813 L 737.90625 527.816406 C 737.015625 527.859375 736.351563 528.03125 735.910156 528.328125 "/>
<path style=" stroke:none;fill-rule:nonzero;fill:rgb(61.914063%,54.101563%,27.43988%);fill-opacity:1;" d="M 747.449219 533.894531 L 742.355469 544.414063 L 750.515625 545.109375 Z M 760.917969 556.226563 C 761.332031 556.664063 761.757813 556.914063 762.199219 556.976563 L 762.132813 557.785156 C 760.527344 557.566406 758.492188 557.355469 756.027344 557.144531 C 753.273438 556.910156 751.234375 556.777344 749.902344 556.742188 L 749.972656 555.9375 C 750.984375 555.984375 751.71875 555.921875 752.175781 555.75 C 752.632813 555.574219 752.882813 555.230469 752.929688 554.703125 C 752.960938 554.296875 752.851563 553.648438 752.597656 552.753906 L 750.742188 545.941406 L 741.972656 545.195313 L 740.675781 547.878906 C 739.78125 549.703125 739.285156 551.164063 739.191406 552.269531 C 739.105469 553.265625 739.34375 553.980469 739.898438 554.425781 C 740.457031 554.871094 741.328125 555.160156 742.519531 555.304688 L 742.449219 556.109375 C 740.648438 555.875 738.988281 555.695313 737.464844 555.566406 C 736.234375 555.460938 735.207031 555.414063 734.386719 555.421875 L 734.457031 554.617188 C 735.8125 554.507813 737.085938 553.195313 738.277344 550.683594 L 749.464844 527.90625 C 749.894531 527.984375 750.355469 528.042969 750.855469 528.085938 C 751.378906 528.132813 751.847656 528.152344 752.257813 528.144531 L 759.882813 554.1875 C 760.160156 555.109375 760.507813 555.789063 760.917969 556.226563 "/>
<path style=" stroke:none;fill-rule:nonzero;fill:rgb(61.914063%,54.101563%,27.43988%);fill-opacity:1;" d="M 762.246094 535.96875 C 762.402344 534.132813 762.496094 531.84375 762.535156 529.101563 C 764.976563 529.386719 769.125 529.78125 774.96875 530.277344 C 780.816406 530.773438 784.957031 531.089844 787.386719 531.214844 C 786.960938 533.925781 786.667969 536.199219 786.511719 538.03125 C 786.414063 539.1875 786.371094 540.214844 786.386719 541.113281 L 785.464844 541.035156 C 785.210938 538.753906 784.816406 536.9375 784.285156 535.578125 C 783.753906 534.21875 783.0625 533.214844 782.214844 532.566406 C 781.363281 531.921875 780.296875 531.542969 779.011719 531.433594 L 778.085938 531.355469 L 776.128906 554.359375 C 776.035156 555.476563 776.082031 556.296875 776.265625 556.828125 C 776.453125 557.359375 776.828125 557.742188 777.394531 557.972656 C 777.964844 558.207031 778.871094 558.382813 780.113281 558.503906 L 780.046875 559.308594 C 776.671875 558.941406 774.125 558.6875 772.40625 558.539063 C 770.714844 558.394531 768.253906 558.226563 765.023438 558.03125 L 765.089844 557.222656 C 766.351563 557.316406 767.28125 557.300781 767.878906 557.164063 C 768.476563 557.03125 768.910156 556.71875 769.175781 556.226563 C 769.445313 555.734375 769.625 554.929688 769.71875 553.816406 L 771.675781 530.808594 L 770.792969 530.734375 C 769.496094 530.621094 768.371094 530.8125 767.425781 531.300781 C 766.480469 531.785156 765.628906 532.65625 764.878906 533.902344 C 764.125 535.152344 763.421875 536.886719 762.773438 539.101563 L 761.847656 539.023438 C 762.015625 538.140625 762.148438 537.121094 762.246094 535.96875 "/>
<path style=" stroke:none;fill-rule:nonzero;fill:rgb(61.914063%,54.101563%,27.43988%);fill-opacity:1;" d="M 800.171875 533.433594 C 799.753906 533.566406 799.449219 533.859375 799.265625 534.304688 C 799.082031 534.753906 798.949219 535.480469 798.863281 536.492188 L 797.164063 556.46875 C 797.074219 557.476563 797.085938 558.21875 797.191406 558.6875 C 797.296875 559.160156 797.542969 559.496094 797.9375 559.703125 C 798.328125 559.90625 798.976563 560.066406 799.875 560.183594 L 799.808594 560.992188 C 798.386719 560.789063 796.363281 560.578125 793.742188 560.355469 C 790.871094 560.109375 788.75 559.972656 787.378906 559.933594 L 787.449219 559.125 C 788.34375 559.164063 789.003906 559.113281 789.421875 558.980469 C 789.84375 558.84375 790.148438 558.550781 790.339844 558.105469 C 790.527344 557.660156 790.667969 556.933594 790.753906 555.921875 L 792.453125 535.945313 C 792.539063 534.933594 792.527344 534.195313 792.414063 533.722656 C 792.300781 533.25 792.050781 532.914063 791.660156 532.707031 C 791.265625 532.503906 790.625 532.34375 789.738281 532.226563 L 789.804688 531.421875 C 791.148438 531.613281 793.265625 531.835938 796.148438 532.078125 C 798.769531 532.304688 800.796875 532.4375 802.234375 532.480469 L 802.164063 533.285156 C 801.257813 533.246094 800.59375 533.296875 800.171875 533.433594 "/>
<path style=" stroke:none;fill-rule:nonzero;fill:rgb(61.914063%,54.101563%,27.43988%);fill-opacity:1;" d="M 815.015625 535.539063 C 813.792969 536.644531 812.785156 538.238281 811.992188 540.332031 C 811.203125 542.421875 810.6875 544.851563 810.453125 547.617188 C 810.214844 550.410156 810.347656 552.894531 810.847656 555.078125 C 811.347656 557.257813 812.132813 558.976563 813.203125 560.230469 C 814.269531 561.484375 815.519531 562.171875 816.945313 562.292969 C 818.429688 562.417969 819.78125 561.929688 821.003906 560.824219 C 822.226563 559.722656 823.234375 558.121094 824.027344 556.03125 C 824.816406 553.941406 825.332031 551.511719 825.566406 548.746094 C 825.804688 545.964844 825.671875 543.480469 825.171875 541.292969 C 824.671875 539.105469 823.882813 537.386719 822.808594 536.132813 C 821.734375 534.878906 820.488281 534.191406 819.074219 534.070313 C 817.59375 533.945313 816.238281 534.433594 815.015625 535.539063 Z M 826.605469 535.722656 C 828.652344 537.058594 830.171875 538.875 831.164063 541.171875 C 832.15625 543.46875 832.523438 546.128906 832.265625 549.15625 C 832.015625 552.117188 831.183594 554.6875 829.777344 556.867188 C 828.371094 559.046875 826.53125 560.671875 824.265625 561.746094 C 821.992188 562.820313 819.480469 563.238281 816.730469 563.003906 C 813.882813 562.765625 811.4375 561.972656 809.394531 560.640625 C 807.351563 559.300781 805.832031 557.484375 804.847656 555.191406 C 803.859375 552.894531 803.496094 550.234375 803.753906 547.207031 C 804.007813 544.242188 804.832031 541.671875 806.230469 539.492188 C 807.632813 537.316406 809.46875 535.691406 811.738281 534.613281 C 814.007813 533.539063 816.523438 533.121094 819.292969 533.355469 C 822.125 533.597656 824.5625 534.386719 826.605469 535.722656 "/>
<path style=" stroke:none;fill-rule:nonzero;fill:rgb(61.914063%,54.101563%,27.43988%);fill-opacity:1;" d="M 860.714844 538.949219 C 860.273438 539.253906 859.945313 539.738281 859.738281 540.414063 C 859.527344 541.089844 859.367188 542.113281 859.246094 543.492188 L 857.335938 565.96875 C 857.140625 565.9375 856.8125 565.902344 856.355469 565.863281 C 855.882813 565.824219 855.519531 565.796875 855.269531 565.789063 L 839.675781 542.164063 L 838.359375 557.617188 C 838.222656 559.203125 838.210938 560.375 838.316406 561.128906 C 838.425781 561.886719 838.730469 562.453125 839.230469 562.839844 C 839.734375 563.226563 840.582031 563.53125 841.777344 563.75 L 841.710938 564.558594 C 840.679688 564.390625 839.234375 564.226563 837.375 564.070313 C 835.890625 563.941406 834.722656 563.882813 833.863281 563.890625 L 833.933594 563.082031 C 834.820313 563.039063 835.484375 562.867188 835.925781 562.570313 C 836.371094 562.269531 836.695313 561.78125 836.902344 561.109375 C 837.113281 560.433594 837.277344 559.40625 837.394531 558.027344 L 838.9375 539.902344 C 839.023438 538.890625 839.007813 538.148438 838.898438 537.679688 C 838.785156 537.207031 838.535156 536.867188 838.140625 536.664063 C 837.75 536.460938 837.109375 536.296875 836.222656 536.183594 L 836.289063 535.378906 C 837.136719 535.527344 838.300781 535.667969 839.78125 535.796875 C 841.128906 535.90625 842.289063 535.96875 843.253906 535.96875 L 857.210938 556.507813 L 858.28125 543.902344 C 858.417969 542.316406 858.433594 541.148438 858.324219 540.390625 C 858.214844 539.636719 857.910156 539.066406 857.410156 538.679688 C 856.910156 538.296875 856.058594 537.988281 854.863281 537.769531 L 854.929688 536.964844 C 855.960938 537.132813 857.40625 537.296875 859.265625 537.453125 C 860.761719 537.578125 861.933594 537.640625 862.777344 537.632813 L 862.710938 538.4375 C 861.820313 538.480469 861.15625 538.652344 860.714844 538.949219 "/>
<path style=" stroke:none;fill-rule:nonzero;fill:rgb(61.914063%,54.101563%,27.43988%);fill-opacity:1;" d="M 614.976563 592.101563 C 614.859375 591.714844 614.652344 591.511719 614.367188 591.484375 C 614.15625 591.46875 613.871094 591.558594 613.511719 591.75 C 612.679688 592.234375 611.90625 592.628906 611.203125 592.9375 C 610.496094 593.25 609.695313 593.480469 608.804688 593.636719 C 607.914063 593.792969 606.925781 593.820313 605.835938 593.730469 C 602.992188 593.488281 600.546875 592.699219 598.5 591.363281 C 596.457031 590.027344 594.941406 588.210938 593.953125 585.914063 C 592.96875 583.621094 592.601563 580.960938 592.859375 577.929688 C 593.113281 574.96875 593.941406 572.398438 595.339844 570.21875 C 596.742188 568.039063 598.574219 566.414063 600.84375 565.339844 C 603.113281 564.265625 605.632813 563.847656 608.398438 564.082031 C 610 564.21875 611.34375 564.5625 612.441406 565.121094 C 613.535156 565.675781 614.585938 566.410156 615.589844 567.328125 C 615.871094 567.589844 616.121094 567.730469 616.347656 567.75 C 616.894531 567.796875 617.304688 567.023438 617.570313 565.4375 L 618.496094 565.515625 C 618.234375 567.328125 617.910156 570.574219 617.507813 575.257813 L 616.585938 575.175781 C 616.53125 573.8125 616.4375 572.699219 616.304688 571.835938 C 616.175781 570.972656 615.941406 570.203125 615.609375 569.527344 C 615.277344 568.851563 614.800781 568.21875 614.179688 567.625 C 613.566406 566.925781 612.824219 566.371094 611.960938 565.960938 C 611.097656 565.550781 610.1875 565.304688 609.234375 565.222656 C 607.382813 565.0625 605.808594 565.570313 604.507813 566.742188 C 603.207031 567.910156 602.195313 569.515625 601.464844 571.554688 C 600.738281 573.589844 600.265625 575.867188 600.050781 578.382813 C 599.835938 580.902344 599.929688 583.226563 600.328125 585.359375 C 600.730469 587.492188 601.488281 589.238281 602.609375 590.59375 C 603.726563 591.949219 605.203125 592.707031 607.039063 592.863281 C 607.96875 592.941406 608.894531 592.851563 609.816406 592.585938 C 610.734375 592.316406 611.53125 591.890625 612.203125 591.300781 C 612.929688 590.835938 613.515625 590.273438 613.960938 589.617188 C 614.40625 588.964844 614.761719 588.191406 615.027344 587.304688 C 615.296875 586.414063 615.570313 585.246094 615.851563 583.789063 L 616.777344 583.867188 C 616.363281 588.730469 616.128906 592.117188 616.070313 594.027344 L 615.144531 593.949219 C 615.152344 593.105469 615.09375 592.488281 614.976563 592.101563 "/>
<path style=" stroke:none;fill-rule:nonzero;fill:rgb(61.914063%,54.101563%,27.43988%);fill-opacity:1;" d="M 642.289063 590.097656 C 642.078125 592.5625 642 594.609375 642.046875 596.238281 C 640.230469 596.003906 637.160156 595.703125 632.832031 595.335938 C 626.984375 594.839844 622.613281 594.503906 619.707031 594.335938 L 619.777344 593.53125 C 620.671875 593.566406 621.328125 593.519531 621.75 593.382813 C 622.167969 593.246094 622.476563 592.953125 622.664063 592.507813 C 622.855469 592.0625 622.992188 591.335938 623.078125 590.324219 L 624.78125 570.347656 C 624.863281 569.339844 624.851563 568.597656 624.742188 568.125 C 624.628906 567.65625 624.378906 567.316406 623.984375 567.109375 C 623.59375 566.90625 622.953125 566.746094 622.066406 566.632813 L 622.132813 565.824219 C 625.023438 566.148438 629.390625 566.5625 635.238281 567.058594 C 639.183594 567.394531 641.992188 567.59375 643.664063 567.65625 C 643.292969 569.855469 643.03125 571.835938 642.882813 573.59375 C 642.78125 574.785156 642.742188 575.699219 642.769531 576.335938 L 641.84375 576.257813 C 641.734375 574.28125 641.445313 572.703125 640.976563 571.527344 C 640.511719 570.355469 639.867188 569.484375 639.042969 568.929688 C 638.21875 568.371094 637.167969 568.035156 635.898438 567.929688 L 634.246094 567.785156 C 633.40625 567.714844 632.796875 567.730469 632.410156 567.839844 C 632.023438 567.945313 631.75 568.183594 631.585938 568.5625 C 631.421875 568.9375 631.304688 569.558594 631.230469 570.421875 L 630.382813 580.390625 L 631.660156 580.5 C 633.101563 580.621094 634.234375 580.191406 635.058594 579.203125 C 635.878906 578.21875 636.5 577.015625 636.910156 575.597656 L 637.832031 575.679688 C 637.628906 576.996094 637.476563 578.253906 637.371094 579.460938 L 637.230469 581.390625 C 637.113281 582.753906 637.027344 584.667969 636.976563 587.132813 L 636.054688 587.054688 C 635.816406 583.453125 634.332031 581.539063 631.59375 581.308594 L 630.3125 581.199219 L 629.449219 591.34375 C 629.378906 592.210938 629.386719 592.839844 629.488281 593.238281 C 629.585938 593.636719 629.8125 593.921875 630.175781 594.089844 C 630.539063 594.257813 631.136719 594.378906 631.976563 594.449219 L 633.964844 594.617188 C 635.851563 594.777344 637.4375 594.257813 638.722656 593.042969 C 640.007813 591.832031 641.023438 589.699219 641.773438 586.648438 L 642.695313 586.730469 C 642.542969 587.597656 642.40625 588.722656 642.289063 590.097656 "/>
<path style=" stroke:none;fill-rule:nonzero;fill:rgb(61.914063%,54.101563%,27.43988%);fill-opacity:1;" d="M 661.203125 582.558594 C 662.097656 582.054688 662.746094 581.328125 663.148438 580.386719 C 663.554688 579.445313 663.8125 578.292969 663.929688 576.929688 C 664.117188 574.726563 663.867188 573.027344 663.1875 571.835938 C 662.5 570.640625 661.273438 569.96875 659.503906 569.816406 C 658.785156 569.757813 658.242188 569.808594 657.878906 569.96875 C 657.511719 570.128906 657.25 570.441406 657.085938 570.910156 C 656.917969 571.378906 656.796875 572.097656 656.714844 573.066406 L 655.871094 582.976563 L 657.597656 583.121094 C 659.109375 583.253906 660.308594 583.0625 661.203125 582.558594 Z M 670.171875 598.652344 C 669.308594 598.945313 668.292969 599.046875 667.128906 598.945313 C 665.582031 598.816406 664.382813 598.382813 663.535156 597.652344 C 662.683594 596.917969 662.191406 595.742188 662.050781 594.117188 L 661.664063 590.042969 C 661.539063 588.726563 661.382813 587.660156 661.195313 586.84375 C 661.007813 586.03125 660.691406 585.371094 660.253906 584.863281 C 659.816406 584.359375 659.203125 584.070313 658.414063 584.003906 L 655.800781 583.78125 L 655.011719 593.042969 C 654.925781 594.054688 654.9375 594.792969 655.042969 595.265625 C 655.144531 595.734375 655.394531 596.074219 655.785156 596.277344 C 656.175781 596.484375 656.824219 596.644531 657.726563 596.761719 L 657.65625 597.566406 C 656.234375 597.367188 654.210938 597.15625 651.589844 596.933594 C 648.71875 596.6875 646.601563 596.546875 645.230469 596.507813 L 645.300781 595.703125 C 646.195313 595.738281 646.851563 595.6875 647.273438 595.554688 C 647.691406 595.417969 648 595.128906 648.1875 594.679688 C 648.378906 594.234375 648.515625 593.507813 648.601563 592.5 L 650.300781 572.519531 C 650.386719 571.511719 650.375 570.769531 650.265625 570.300781 C 650.152344 569.828125 649.902344 569.488281 649.507813 569.285156 C 649.117188 569.078125 648.476563 568.917969 647.589844 568.804688 L 647.65625 567.996094 C 649.015625 568.191406 651.046875 568.40625 653.761719 568.636719 C 654.835938 568.726563 656.03125 568.816406 657.34375 568.902344 C 658.65625 568.988281 659.570313 569.050781 660.082031 569.09375 C 663.777344 569.410156 666.511719 570.253906 668.28125 571.625 C 670.054688 572.996094 670.84375 574.804688 670.652344 577.046875 C 670.550781 578.238281 670.171875 579.347656 669.519531 580.375 C 668.863281 581.402344 667.828125 582.257813 666.410156 582.933594 C 664.992188 583.609375 663.164063 583.988281 660.925781 584.0625 L 660.964844 584.0625 C 662.578125 584.347656 663.890625 584.734375 664.898438 585.230469 C 665.90625 585.726563 666.671875 586.359375 667.199219 587.140625 C 667.726563 587.917969 668.0625 588.878906 668.203125 590.027344 L 668.773438 594.253906 C 668.902344 595.363281 669.09375 596.136719 669.339844 596.582031 C 669.585938 597.023438 669.964844 597.269531 670.472656 597.3125 C 670.789063 597.324219 671.070313 597.269531 671.320313 597.144531 C 671.566406 597.019531 671.851563 596.8125 672.164063 596.523438 L 672.671875 597.0625 C 671.867188 597.824219 671.035156 598.355469 670.171875 598.652344 "/>
<path style=" stroke:none;fill-rule:nonzero;fill:rgb(61.914063%,54.101563%,27.43988%);fill-opacity:1;" d="M 674.742188 577.195313 C 674.898438 575.359375 674.992188 573.070313 675.027344 570.324219 C 677.472656 570.613281 681.617188 571.007813 687.464844 571.503906 C 693.3125 572.003906 697.453125 572.3125 699.882813 572.441406 C 699.453125 575.152344 699.160156 577.425781 699.003906 579.261719 C 698.90625 580.414063 698.867188 581.441406 698.882813 582.339844 L 697.960938 582.261719 C 697.703125 579.980469 697.308594 578.160156 696.78125 576.804688 C 696.246094 575.445313 695.558594 574.441406 694.710938 573.792969 C 693.859375 573.148438 692.792969 572.769531 691.507813 572.660156 L 690.585938 572.582031 L 688.625 595.589844 C 688.53125 596.703125 688.578125 597.523438 688.761719 598.054688 C 688.945313 598.585938 689.324219 598.96875 689.890625 599.199219 C 690.460938 599.433594 691.363281 599.609375 692.609375 599.730469 L 692.542969 600.535156 C 689.167969 600.167969 686.621094 599.914063 684.902344 599.769531 C 683.210938 599.625 680.75 599.453125 677.519531 599.257813 L 677.585938 598.449219 C 678.847656 598.542969 679.777344 598.523438 680.375 598.390625 C 680.972656 598.257813 681.40625 597.945313 681.671875 597.449219 C 681.9375 596.960938 682.117188 596.15625 682.214844 595.042969 L 684.171875 572.035156 L 683.289063 571.960938 C 681.988281 571.851563 680.867188 572.039063 679.921875 572.527344 C 678.976563 573.011719 678.128906 573.882813 677.371094 575.132813 C 676.621094 576.382813 675.917969 578.113281 675.265625 580.328125 L 674.34375 580.25 C 674.511719 579.367188 674.644531 578.347656 674.742188 577.195313 "/>
<path style=" stroke:none;fill-rule:nonzero;fill:rgb(61.914063%,54.101563%,27.43988%);fill-opacity:1;" d="M 712.667969 574.660156 C 712.246094 574.796875 711.945313 575.085938 711.761719 575.53125 C 711.578125 575.980469 711.441406 576.707031 711.355469 577.71875 L 709.65625 597.695313 C 709.570313 598.703125 709.582031 599.445313 709.683594 599.914063 C 709.789063 600.386719 710.039063 600.726563 710.429688 600.929688 C 710.824219 601.136719 711.46875 601.296875 712.371094 601.410156 L 712.300781 602.21875 C 710.878906 602.019531 708.859375 601.808594 706.238281 601.585938 C 703.363281 601.339844 701.246094 601.195313 699.875 601.160156 L 699.941406 600.351563 C 700.839844 600.390625 701.496094 600.339844 701.917969 600.203125 C 702.335938 600.070313 702.644531 599.777344 702.832031 599.332031 C 703.023438 598.886719 703.160156 598.15625 703.246094 597.148438 L 704.945313 577.171875 C 705.03125 576.160156 705.019531 575.421875 704.910156 574.949219 C 704.796875 574.476563 704.542969 574.140625 704.152344 573.933594 C 703.761719 573.730469 703.121094 573.570313 702.234375 573.453125 L 702.300781 572.648438 C 703.644531 572.84375 705.757813 573.0625 708.640625 573.308594 C 711.265625 573.53125 713.292969 573.660156 714.730469 573.703125 L 714.660156 574.511719 C 713.753906 574.472656 713.085938 574.523438 712.667969 574.660156 "/>
<path style=" stroke:none;fill-rule:nonzero;fill:rgb(61.914063%,54.101563%,27.43988%);fill-opacity:1;" d="M 730.546875 575.171875 C 734.492188 575.507813 737.300781 575.707031 738.972656 575.769531 C 738.59375 578.046875 738.328125 580.078125 738.179688 581.859375 C 738.070313 583.132813 738.023438 584.160156 738.035156 584.9375 L 737.113281 584.859375 C 736.933594 582.773438 736.59375 581.101563 736.09375 579.84375 C 735.59375 578.585938 734.921875 577.660156 734.082031 577.066406 C 733.242188 576.472656 732.175781 576.121094 730.894531 576.011719 L 729.554688 575.898438 C 728.714844 575.828125 728.105469 575.84375 727.71875 575.949219 C 727.335938 576.054688 727.058594 576.296875 726.894531 576.671875 C 726.730469 577.046875 726.613281 577.667969 726.539063 578.535156 L 725.675781 588.679688 L 727.089844 588.800781 C 728.519531 588.921875 729.644531 588.484375 730.46875 587.492188 C 731.292969 586.5 731.910156 585.296875 732.324219 583.878906 L 733.246094 583.957031 C 733.042969 585.273438 732.890625 586.535156 732.785156 587.742188 L 732.640625 589.667969 C 732.523438 591.070313 732.445313 592.984375 732.410156 595.414063 L 731.46875 595.332031 C 731.21875 591.746094 729.734375 589.835938 727.023438 589.605469 L 725.605469 589.484375 L 724.816406 598.746094 C 724.726563 599.820313 724.769531 600.613281 724.953125 601.125 C 725.132813 601.636719 725.507813 602.003906 726.078125 602.222656 C 726.644531 602.441406 727.558594 602.613281 728.816406 602.730469 L 728.742188 603.617188 C 725.445313 603.257813 722.992188 603.007813 721.378906 602.871094 C 720.601563 602.808594 718.484375 602.664063 715.015625 602.449219 L 715.085938 601.640625 C 715.980469 601.679688 716.636719 601.628906 717.058594 601.492188 C 717.476563 601.355469 717.785156 601.066406 717.972656 600.621094 C 718.164063 600.175781 718.300781 599.445313 718.386719 598.4375 L 720.089844 578.460938 C 720.175781 577.449219 720.160156 576.710938 720.050781 576.238281 C 719.9375 575.765625 719.683594 575.429688 719.292969 575.222656 C 718.902344 575.019531 718.261719 574.859375 717.375 574.742188 L 717.441406 573.9375 C 720.335938 574.261719 724.699219 574.675781 730.546875 575.171875 "/>
<path style=" stroke:none;fill-rule:nonzero;fill:rgb(61.914063%,54.101563%,27.43988%);fill-opacity:1;" d="M 751.640625 577.976563 C 751.21875 578.113281 750.917969 578.402344 750.734375 578.851563 C 750.550781 579.296875 750.417969 580.023438 750.332031 581.035156 L 748.628906 601.011719 C 748.542969 602.019531 748.554688 602.761719 748.660156 603.230469 C 748.761719 603.703125 749.011719 604.042969 749.40625 604.246094 C 749.792969 604.449219 750.441406 604.613281 751.34375 604.726563 L 751.277344 605.535156 C 749.851563 605.335938 747.832031 605.125 745.210938 604.898438 C 742.335938 604.65625 740.21875 604.515625 738.847656 604.476563 L 738.914063 603.671875 C 739.8125 603.707031 740.46875 603.65625 740.890625 603.523438 C 741.308594 603.386719 741.617188 603.09375 741.804688 602.648438 C 741.996094 602.203125 742.132813 601.476563 742.21875 600.464844 L 743.921875 580.488281 C 744.007813 579.480469 743.992188 578.738281 743.882813 578.265625 C 743.769531 577.796875 743.519531 577.457031 743.128906 577.253906 C 742.734375 577.046875 742.09375 576.886719 741.207031 576.769531 L 741.273438 575.964844 C 742.617188 576.15625 744.730469 576.378906 747.617188 576.625 C 750.238281 576.847656 752.265625 576.980469 753.703125 577.023438 L 753.632813 577.828125 C 752.726563 577.789063 752.058594 577.839844 751.640625 577.976563 "/>
<path style=" stroke:none;fill-rule:nonzero;fill:rgb(61.914063%,54.101563%,27.43988%);fill-opacity:1;" d="M 777.335938 605.921875 C 777.21875 605.535156 777.011719 605.328125 776.726563 605.304688 C 776.515625 605.285156 776.230469 605.375 775.871094 605.566406 C 775.039063 606.050781 774.265625 606.449219 773.5625 606.757813 C 772.855469 607.066406 772.054688 607.300781 771.164063 607.453125 C 770.273438 607.609375 769.285156 607.640625 768.195313 607.550781 C 765.351563 607.308594 762.90625 606.519531 760.863281 605.183594 C 758.816406 603.847656 757.300781 602.03125 756.316406 599.734375 C 755.328125 597.4375 754.964844 594.777344 755.222656 591.75 C 755.472656 588.785156 756.300781 586.21875 757.699219 584.039063 C 759.101563 581.859375 760.933594 580.234375 763.207031 579.160156 C 765.476563 578.085938 767.992188 577.664063 770.757813 577.898438 C 772.359375 578.035156 773.707031 578.382813 774.800781 578.9375 C 775.894531 579.492188 776.945313 580.230469 777.949219 581.144531 C 778.230469 581.40625 778.484375 581.550781 778.707031 581.566406 C 779.257813 581.613281 779.664063 580.84375 779.933594 579.253906 L 780.855469 579.335938 C 780.597656 581.148438 780.269531 584.394531 779.871094 589.074219 L 778.945313 588.996094 C 778.890625 587.632813 778.796875 586.515625 778.664063 585.652344 C 778.535156 584.792969 778.300781 584.019531 777.972656 583.347656 C 777.640625 582.671875 777.160156 582.035156 776.539063 581.441406 C 775.925781 580.742188 775.1875 580.1875 774.324219 579.777344 C 773.460938 579.367188 772.550781 579.121094 771.59375 579.039063 C 769.746094 578.882813 768.171875 579.390625 766.867188 580.5625 C 765.566406 581.730469 764.554688 583.335938 763.824219 585.371094 C 763.097656 587.40625 762.628906 589.6875 762.414063 592.203125 C 762.199219 594.722656 762.289063 597.046875 762.6875 599.179688 C 763.089844 601.3125 763.847656 603.058594 764.96875 604.410156 C 766.085938 605.769531 767.5625 606.523438 769.398438 606.679688 C 770.332031 606.761719 771.253906 606.667969 772.175781 606.402344 C 773.097656 606.136719 773.890625 605.710938 774.5625 605.121094 C 775.289063 604.652344 775.875 604.09375 776.320313 603.4375 C 776.765625 602.78125 777.121094 602.011719 777.390625 601.121094 C 777.65625 600.234375 777.929688 599.0625 778.214844 597.609375 L 779.136719 597.6875 C 778.722656 602.550781 778.488281 605.9375 778.429688 607.847656 L 777.507813 607.769531 C 777.511719 606.921875 777.457031 606.308594 777.335938 605.921875 "/>
<path style=" stroke:none;fill-rule:nonzero;fill:rgb(61.914063%,54.101563%,27.43988%);fill-opacity:1;" d="M 793.164063 586.460938 L 788.070313 596.980469 L 796.230469 597.675781 Z M 806.632813 608.789063 C 807.042969 609.230469 807.472656 609.480469 807.914063 609.542969 L 807.847656 610.351563 C 806.242188 610.132813 804.207031 609.921875 801.742188 609.710938 C 798.988281 609.476563 796.945313 609.34375 795.617188 609.308594 L 795.683594 608.503906 C 796.695313 608.550781 797.433594 608.484375 797.890625 608.3125 C 798.347656 608.140625 798.597656 607.792969 798.640625 607.269531 C 798.675781 606.863281 798.566406 606.214844 798.3125 605.320313 L 796.457031 598.507813 L 787.6875 597.761719 L 786.390625 600.441406 C 785.492188 602.269531 785 603.730469 784.90625 604.832031 C 784.820313 605.828125 785.054688 606.546875 785.613281 606.992188 C 786.167969 607.4375 787.042969 607.726563 788.234375 607.867188 L 788.164063 608.675781 C 786.359375 608.441406 784.699219 608.261719 783.179688 608.132813 C 781.949219 608.027344 780.921875 607.980469 780.101563 607.988281 L 780.171875 607.183594 C 781.527344 607.074219 782.800781 605.761719 783.992188 603.25 L 795.179688 580.476563 C 795.605469 580.550781 796.070313 580.609375 796.570313 580.652344 C 797.09375 580.695313 797.558594 580.714844 797.96875 580.710938 L 805.597656 606.75 C 805.878906 607.675781 806.21875 608.351563 806.632813 608.789063 "/>
<path style=" stroke:none;fill-rule:nonzero;fill:rgb(61.914063%,54.101563%,27.43988%);fill-opacity:1;" d="M 807.960938 588.53125 C 808.117188 586.699219 808.210938 584.410156 808.246094 581.664063 C 810.691406 581.953125 814.835938 582.34375 820.683594 582.84375 C 826.53125 583.339844 830.671875 583.652344 833.101563 583.78125 C 832.671875 586.488281 832.378906 588.765625 832.226563 590.597656 C 832.128906 591.753906 832.085938 592.777344 832.101563 593.679688 L 831.175781 593.597656 C 830.921875 591.320313 830.53125 589.5 830 588.140625 C 829.464844 586.78125 828.777344 585.777344 827.925781 585.132813 C 827.078125 584.484375 826.011719 584.105469 824.726563 583.996094 L 823.800781 583.921875 L 821.84375 606.925781 C 821.75 608.039063 821.792969 608.863281 821.976563 609.394531 C 822.164063 609.925781 822.542969 610.308594 823.109375 610.539063 C 823.679688 610.773438 824.585938 610.949219 825.828125 611.066406 L 825.757813 611.875 C 822.386719 611.507813 819.835938 611.253906 818.121094 611.105469 C 816.429688 610.960938 813.96875 610.789063 810.738281 610.597656 L 810.804688 609.789063 C 812.066406 609.882813 812.992188 609.863281 813.59375 609.730469 C 814.191406 609.597656 814.625 609.28125 814.890625 608.789063 C 815.15625 608.300781 815.339844 607.496094 815.433594 606.382813 L 817.390625 583.375 L 816.507813 583.300781 C 815.210938 583.1875 814.085938 583.378906 813.140625 583.863281 C 812.195313 584.351563 811.34375 585.21875 810.589844 586.46875 C 809.835938 587.71875 809.136719 589.453125 808.484375 591.667969 L 807.5625 591.589844 C 807.726563 590.703125 807.863281 589.6875 807.960938 588.53125 "/>
<path style=" stroke:none;fill-rule:nonzero;fill:rgb(61.914063%,54.101563%,27.43988%);fill-opacity:1;" d="M 855.675781 608.261719 C 855.46875 610.726563 855.386719 612.773438 855.433594 614.398438 C 853.617188 614.164063 850.546875 613.863281 846.21875 613.496094 C 840.371094 613 836 612.664063 833.09375 612.496094 L 833.164063 611.691406 C 834.058594 611.730469 834.714844 611.679688 835.136719 611.542969 C 835.554688 611.40625 835.863281 611.117188 836.050781 610.671875 C 836.242188 610.226563 836.378906 609.496094 836.464844 608.488281 L 838.164063 588.511719 C 838.253906 587.5 838.238281 586.761719 838.128906 586.289063 C 838.015625 585.816406 837.761719 585.476563 837.371094 585.273438 C 836.980469 585.066406 836.339844 584.90625 835.453125 584.792969 L 835.519531 583.984375 C 838.414063 584.3125 842.777344 584.722656 848.625 585.222656 C 852.570313 585.558594 855.382813 585.757813 857.050781 585.820313 C 856.679688 588.019531 856.421875 589.996094 856.269531 591.753906 C 856.171875 592.945313 856.128906 593.859375 856.152344 594.496094 L 855.230469 594.417969 C 855.121094 592.441406 854.835938 590.863281 854.367188 589.691406 C 853.898438 588.515625 853.253906 587.648438 852.429688 587.089844 C 851.605469 586.53125 850.554688 586.195313 849.285156 586.089844 L 847.632813 585.945313 C 846.796875 585.878906 846.183594 585.894531 845.796875 586 C 845.414063 586.105469 845.136719 586.347656 844.972656 586.722656 C 844.808594 587.097656 844.691406 587.71875 844.617188 588.585938 L 843.769531 598.554688 L 845.046875 598.660156 C 846.488281 598.785156 847.621094 598.351563 848.445313 597.367188 C 849.265625 596.378906 849.886719 595.179688 850.296875 593.761719 L 851.21875 593.839844 C 851.015625 595.15625 850.863281 596.417969 850.761719 597.621094 L 850.617188 599.550781 C 850.5 600.914063 850.414063 602.828125 850.363281 605.292969 L 849.441406 605.214844 C 849.203125 601.617188 847.71875 599.699219 844.980469 599.46875 L 843.699219 599.359375 L 842.835938 609.503906 C 842.761719 610.371094 842.773438 611.003906 842.871094 611.398438 C 842.972656 611.796875 843.203125 612.082031 843.5625 612.25 C 843.925781 612.421875 844.523438 612.539063 845.363281 612.613281 L 847.351563 612.78125 C 849.238281 612.941406 850.824219 612.417969 852.109375 611.207031 C 853.394531 609.996094 854.410156 607.863281 855.15625 604.8125 L 856.082031 604.890625 C 855.929688 605.761719 855.796875 606.886719 855.675781 608.261719 "/>
</g>
</svg>
