<svg width="508" height="442" viewBox="0 0 508 442" fill="none" xmlns="http://www.w3.org/2000/svg">
<g id="APS" clip-path="url(#clip0_111:300)">
<g id="notebook">
<path id="Vector" d="M145.282 298.378L192.349 271.147C194.739 269.765 198.618 269.765 201.009 271.147L440.099 409.183C442.489 410.565 442.489 412.804 440.099 414.183L393.032 441.417C390.642 442.796 386.763 442.796 384.372 441.417L294.771 389.687L281.001 397.694C273.708 401.905 261.884 401.905 254.591 397.698L213.532 374.167C206.239 369.956 206.235 363.132 213.528 358.921L227.294 350.917L145.282 303.378C142.892 301.999 142.892 299.761 145.282 298.378Z" fill="#D8D9D9" fill-opacity="0.42"/>
<path id="Vector_2" d="M254.587 393.722L219.212 373.269C215.563 371.163 213.743 368.405 213.743 365.647C213.739 362.886 213.728 360.726 213.728 360.726L247.013 341.835C248.958 340.71 250.532 337.979 250.532 335.733V292.12L312.321 327.823V371.437C312.321 373.683 310.747 376.413 308.802 377.538L280.997 393.726C273.704 397.933 261.88 397.933 254.587 393.722Z" fill="#A8A8A8"/>
<path id="Vector_3" d="M297.485 379.159V384.058L308.81 377.534C310.743 376.417 312.329 373.69 312.329 371.433V327.827L300.556 321.034C300.313 324.022 300.048 327.116 299.806 330.124L308.06 334.901V368.976C308.06 371.229 306.493 373.956 304.54 375.073L297.485 379.159Z" fill="#8A8A8A"/>
<path id="Vector_4" d="M308.06 368.983C308.06 371.229 306.485 373.96 304.54 375.081L281.001 388.804C273.708 393.015 261.884 393.015 254.591 388.808L219.196 368.354C211.903 364.147 211.903 357.323 219.196 353.112L242.751 339.378C244.696 338.253 246.271 335.522 246.271 333.276V299.202L308.06 334.901V368.983Z" fill="#EFEFEF"/>
<path id="Vector_5" d="M213.731 360.729C213.731 360.729 213.731 362.886 213.731 365.651C213.731 368.413 215.563 371.159 219.2 373.272L254.583 393.718C258.079 395.749 262.61 396.765 267.188 396.847V391.948C262.61 391.886 258.079 390.827 254.583 388.815L219.2 368.354C215.563 366.261 213.731 363.495 213.731 360.729Z" fill="#A8A8A8"/>
<path id="Vector_6" d="M398.735 415.87L159.786 277.917C157.356 276.511 155.384 273.101 155.384 270.292V61.1436C155.384 58.335 157.356 57.1982 159.786 58.6006L398.731 196.558C401.161 197.96 403.134 201.374 403.134 204.179L403.138 413.327C403.138 416.136 401.165 417.272 398.735 415.87Z" fill="#C1C1C1"/>
</g>
<g id="gantt">
<path id="Vector_7" d="M161.614 75.9053L165.436 73.6062C166.306 73.0863 167.506 73.1497 168.839 73.9303L165.012 76.2295C163.684 75.4542 162.479 75.3855 161.614 75.9053Z" fill="#9D9ECE"/>
<g id="Group">
<g id="Group_2">
<path id="Vector_8" d="M161.614 75.9052L165.436 73.6061C166.207 73.1451 167.241 73.1455 168.391 73.693L164.569 75.9922C163.414 75.4447 162.38 75.4443 161.614 75.9052Z" fill="#298D9A"/>
</g>
</g>
<g id="Group_3">
<g id="Group_4">
<path id="Vector_9" d="M164.572 75.9967L168.394 73.6976C168.545 73.766 168.691 73.845 168.842 73.9347L165.015 76.2339C164.864 76.1495 164.718 76.0652 164.572 75.9967Z" fill="#25B9CC"/>
</g>
</g>
<path id="Vector_10" d="M395.456 393.849L391.634 396.147C392.489 395.633 393.013 394.546 393.011 393.004L396.832 390.706C396.835 392.247 396.31 393.334 395.456 393.849Z" fill="#D7CCD5"/>
<path id="Vector_11" d="M165.016 76.2253L168.843 73.9261L391.679 204.221L387.857 206.52L165.016 76.2253Z" fill="#0095A9"/>
<g id="Group_5">
<path id="Vector_12" d="M387.854 206.525L391.676 204.226C394.322 205.771 396.469 209.536 396.474 212.646L392.652 214.946C392.642 211.835 390.495 208.07 387.854 206.525Z" fill="#8E90C5"/>
</g>
<g id="Group_6">
<g id="Group_7">
<path id="Vector_13" d="M387.854 206.525L391.676 204.226C393.53 205.312 395.139 207.49 395.94 209.767L392.113 212.066C391.318 209.789 389.708 207.611 387.854 206.525Z" fill="#25B9CC"/>
</g>
</g>
<g id="Group_8">
<g id="Group_9">
<path id="Vector_14" d="M392.114 212.078L395.941 209.779C396.284 210.745 396.475 211.733 396.475 212.658L392.653 214.957C392.648 214.032 392.457 213.044 392.114 212.078Z" fill="#25B9CC"/>
</g>
</g>
<path id="Vector_15" d="M392.655 214.939C392.645 211.829 390.498 208.064 387.858 206.518L165.016 76.2234C162.376 74.6781 160.232 75.9377 160.241 79.0428L160.286 101.555L392.699 237.451L392.655 214.939Z" fill="#006D90"/>
<path id="Vector_16" d="M160.285 101.553L160.594 257.109C160.603 260.209 162.755 263.979 165.401 265.524L388.237 395.82C390.877 397.365 393.016 396.1 393.012 393L392.698 237.449L160.285 101.553Z" fill="#F1F1F4"/>
<g id="Group_10">
<path id="Vector_17" d="M396.475 212.654L392.654 214.953L392.699 237.465L396.52 235.182L396.475 212.654Z" fill="#298D9A"/>
</g>
<g id="Group_11">
<path id="Vector_18" d="M392.697 237.462L393.011 393.013C393.013 394.555 392.489 395.642 391.634 396.157L395.456 393.857C396.31 393.343 396.835 392.256 396.833 390.714L396.519 235.179L392.697 237.462Z" fill="#AED1D6"/>
</g>
<path id="Vector_19" d="M211.15 108.738L165.635 82.125L165.682 91.9718L211.197 118.585L211.15 108.738Z" fill="#B7E1E0"/>
<path id="Vector_20" d="M384.565 214.679L360.558 200.645L360.604 210.486L384.611 224.526L384.565 214.679Z" fill="#F1F1F4"/>
<path id="Vector_21" d="M358.444 199.424L334.437 185.39L334.483 195.231L358.491 209.271L358.444 199.424Z" fill="#F1F1F4"/>
<path id="Vector_22" d="M332.32 184.132L323.468 178.958L323.515 188.799L332.367 193.979L332.32 184.132Z" fill="#F1F1F4"/>
<path id="Vector_23" d="M321.272 177.688L312.418 172.515L312.465 182.356L321.318 187.535L321.272 177.688Z" fill="#F1F1F4"/>
<path id="Vector_24" d="M199.363 114.559L165.695 94.8711L165.719 99.7945L199.386 119.482L199.363 114.559Z" fill="#F1F1F4"/>
<path id="Vector_25" d="M171.467 126.575L171.54 141.861L273.093 200.938L273.022 185.966L171.467 126.575Z" fill="#DEDEDE"/>
<path id="Vector_26" d="M258.184 177.285L236.88 164.833L236.953 180.113L258.257 192.571L258.184 177.285Z" fill="#E0E0E0"/>
<path id="Vector_27" d="M171.625 159.876L234.467 196.62L234.394 181.334L171.553 144.59L171.625 159.876Z" fill="#DEDEDE"/>
<path id="Vector_28" d="M282.511 224.721L282.44 209.748L236.965 182.843L237.038 198.129L282.511 224.721Z" fill="#E0E0E0"/>
<path id="Vector_29" d="M258.429 228.604L258.356 213.319L237.051 200.861L237.124 216.147L258.429 228.604Z" fill="#DEDEDE"/>
<path id="Vector_30" d="M171.711 177.893L221.939 207.312L221.871 193.021L171.638 162.607L171.711 177.893Z" fill="#DEDEDE"/>
<path id="Vector_31" d="M171.797 195.91L240.691 236.491L240.616 220.838L171.724 180.624L171.797 195.91Z" fill="#DEDEDE"/>
<path id="Vector_32" d="M258.514 246.614L258.441 231.333L237.137 218.876L237.209 234.162L258.514 246.614Z" fill="#DEDEDE"/>
<path id="Vector_33" d="M282.363 224.64L282.29 209.355L260.986 196.897L261.059 212.183L282.363 224.64Z" fill="#DFD2DA"/>
<path id="Vector_34" d="M282.448 242.656L282.375 227.37L261.071 214.913L261.144 230.199L282.448 242.656Z" fill="#DEDEDE"/>
<path id="Vector_35" d="M334.84 255.314L334.767 240.028L284.785 210.805L284.857 226.085L334.84 255.314Z" fill="#63CBE3"/>
<path id="Vector_36" d="M357.251 286.299L357.179 271.327L284.87 228.822L284.943 244.103L357.251 286.299Z" fill="#F3736B"/>
<path id="Vector_37" d="M335.012 291.347L334.939 276.061L284.956 246.838L285.029 262.118L335.012 291.347Z" fill="#7579B7"/>
<path id="Vector_38" d="M386.973 252.604L365.011 240.676L365.079 254.967L387.046 267.889L386.973 252.604Z" fill="#7579B7"/>
<path id="Vector_39" d="M387.134 285.908L387.062 270.622L337.079 241.398L337.151 256.679L387.134 285.908Z" fill="#FECC39"/>
<path id="Vector_40" d="M387.218 303.918L387.145 288.632L359.846 272.688L359.914 286.98L387.218 303.918Z" fill="#FECC39"/>
<path id="Vector_41" d="M387.306 321.912L387.233 306.626L337.25 277.402L337.323 292.683L387.306 321.912Z" fill="#63CBE3"/>
<path id="Vector_42" d="M165.831 123.296L165.903 138.582L169.658 140.776L169.585 125.49L165.831 123.296Z" fill="#FECC39"/>
<path id="Vector_43" d="M165.989 156.594L169.744 158.793L169.671 143.507L165.917 141.313L165.989 156.594Z" fill="#FECC39"/>
<path id="Vector_44" d="M166.075 174.61L169.829 176.809L169.757 161.524L166.002 159.324L166.075 174.61Z" fill="#FECC39"/>
<path id="Vector_45" d="M166.161 192.626L169.915 194.819L169.842 179.539L166.088 177.34L166.161 192.626Z" fill="#FECC39"/>
<path id="Vector_46" d="M171.883 214.005L171.956 229.285L234.797 266.03L234.724 250.744L171.883 214.005Z" fill="#DEDEDE"/>
<path id="Vector_47" d="M258.6 264.686L237.295 252.229L237.368 267.509L258.673 279.966L258.6 264.686Z" fill="#DEDEDE"/>
<path id="Vector_48" d="M172.041 247.273L234.882 284.017L234.81 268.731L171.968 231.992L172.041 247.273Z" fill="#DEDEDE"/>
<path id="Vector_49" d="M258.759 297.984L258.686 282.698L237.381 270.24L237.454 285.526L258.759 297.984Z" fill="#DEDEDE"/>
<path id="Vector_50" d="M258.844 316L258.771 300.714L237.467 288.257L237.54 303.543L258.844 316Z" fill="#DEDEDE"/>
<path id="Vector_51" d="M172.127 265.29L234.968 302.035L234.896 286.749L172.054 250.004L172.127 265.29Z" fill="#DEDEDE"/>
<path id="Vector_52" d="M282.62 278.739L261.311 266.281L261.383 281.562L282.693 294.02L282.62 278.739Z" fill="#DEDEDE"/>
<path id="Vector_53" d="M282.778 312.035L282.705 296.749L261.396 284.292L261.469 299.578L282.778 312.035Z" fill="#DEDEDE"/>
<path id="Vector_54" d="M282.864 330.051L282.791 314.766L261.482 302.309L261.555 317.594L282.864 330.051Z" fill="#DEDEDE"/>
<path id="Vector_55" d="M313.428 296.71L285.115 280.187L285.187 295.472L313.5 311.682L313.428 296.71Z" fill="#63CBE3"/>
<path id="Vector_56" d="M349.077 317.295L320.763 300.771L320.836 316.057L349.148 332.267L349.077 317.295Z" fill="#63CBE3"/>
<path id="Vector_57" d="M323.583 335.455L323.512 320.483L285.2 298.201L285.273 313.487L323.583 335.455Z" fill="#FECC39"/>
<path id="Vector_58" d="M322.731 229.306L322.66 214.333L284.348 192.052L284.42 207.338L322.731 229.306Z" fill="#FECC39"/>
<path id="Vector_59" d="M362.731 253.605L362.659 238.632L324.347 216.351L324.419 231.636L362.731 253.605Z" fill="#FECC39"/>
<path id="Vector_60" d="M335.342 360.728L335.269 345.442L285.286 316.219L285.359 331.505L335.342 360.728Z" fill="#7579B7"/>
<path id="Vector_61" d="M375.002 384.218L374.934 369.926L336.936 346.968L337.008 362.254L375.002 384.218Z" fill="#7579B7"/>
<path id="Vector_62" d="M387.389 340.008L358.753 322.375L358.827 338.028L387.462 355.289L387.389 340.008Z" fill="#F3736B"/>
<path id="Vector_63" d="M258.547 253.611L237.243 241.153L237.269 246.582L258.573 259.039L258.547 253.611Z" fill="#826C88"/>
<path id="Vector_64" d="M207.262 223.63L166.194 199.617L166.22 205.051L207.287 229.058L207.262 223.63Z" fill="#826C88"/>
<path id="Vector_65" d="M282.567 267.663L261.258 255.206L261.284 260.635L282.593 273.092L282.567 267.663Z" fill="#826C88"/>
<path id="Vector_66" d="M345.374 304.723L285.062 269.11L285.088 274.544L345.4 310.168L345.374 304.723Z" fill="#826C88"/>
<path id="Vector_67" d="M387.547 373.302L387.474 358.016L326.847 322.526L326.915 336.818L387.547 373.302Z" fill="#63CBE3"/>
<path id="Vector_68" d="M387.64 392.678L387.567 377.392L377.602 371.969L377.67 386.26L387.64 392.678Z" fill="#7579B7"/>
<path id="Vector_69" d="M166.247 210.694L166.319 225.98L170.074 228.174L170.001 212.888L166.247 210.694Z" fill="#F3736B"/>
<path id="Vector_70" d="M166.405 243.991L170.159 246.19L170.087 230.904L166.332 228.71L166.405 243.991Z" fill="#F3736B"/>
<path id="Vector_71" d="M166.491 262.006L170.245 264.206L170.172 248.92L166.418 246.726L166.491 262.006Z" fill="#F3736B"/>
</g>
<g id="job">
<path id="Vector_72" d="M133.862 154.744L138.304 152.164C139.443 151.502 141.025 151.598 142.769 152.602L138.321 155.182C136.582 154.178 135 154.083 133.862 154.744Z" fill="#F3736B"/>
<g id="Group_12">
<g id="Group_13">
<path id="Vector_73" d="M133.862 154.744L138.304 152.164C139.314 151.575 140.671 151.581 142.18 152.293L137.738 154.879C136.229 154.166 134.871 154.161 133.862 154.744Z" fill="#F3736B"/>
</g>
</g>
<g id="Group_14">
<g id="Group_15">
<path id="Vector_74" d="M137.738 154.879L142.18 152.293C142.371 152.383 142.567 152.489 142.769 152.601L138.321 155.182C138.125 155.07 137.929 154.969 137.738 154.879Z" fill="#F3736B"/>
</g>
</g>
<path id="Vector_75" d="M169.856 191.041L165.413 193.627C166.541 192.97 167.236 191.574 167.242 189.594L171.684 187.014C171.679 188.994 170.983 190.39 169.856 191.041Z" fill="#D64D42"/>
<g id="Group_16">
<g id="Group_17">
<path id="Vector_76" d="M167.242 189.594L171.684 187.014C171.679 188.994 170.983 190.39 169.856 191.041L165.413 193.627C166.541 192.97 167.236 191.574 167.242 189.594Z" fill="#D64D42"/>
</g>
</g>
<path id="Vector_77" d="M167.27 179.127L171.712 176.541L171.684 187.013L167.242 189.593L167.27 179.127Z" fill="#D64D42"/>
<path id="Vector_78" d="M138.321 155.182L142.769 152.602L165.464 165.704L161.021 168.29L138.321 155.182Z" fill="#F3736B"/>
<path id="Vector_79" d="M161.021 168.29L165.464 165.704C168.93 167.707 171.729 172.558 171.712 176.541L167.27 179.127C167.281 175.139 164.488 170.292 161.021 168.29Z" fill="#F3736B"/>
<g id="Group_18">
<g id="Group_19">
<path id="Vector_80" d="M161.021 168.29L165.464 165.704C167.898 167.112 170.001 169.917 171.033 172.845L166.591 175.425C165.553 172.497 163.45 169.692 161.021 168.29Z" fill="#F3736B"/>
</g>
</g>
<g id="Group_20">
<g id="Group_21">
<path id="Vector_81" d="M166.591 175.425L171.033 172.845C171.471 174.09 171.718 175.352 171.712 176.541L167.27 179.127C167.275 177.938 167.028 176.67 166.591 175.425Z" fill="#F05A51"/>
</g>
</g>
<path id="Vector_82" d="M161.021 168.29C164.488 170.292 167.281 175.138 167.27 179.126L167.242 189.593C167.23 193.581 164.415 195.191 160.948 193.188L138.254 180.086C134.782 178.083 131.989 173.231 132 169.249L132.028 158.777C132.039 154.789 134.855 153.179 138.321 155.181L161.021 168.29Z" fill="#F05A51"/>
</g>
<g id="plangirl">
<path id="Vector_83" d="M98.3107 199.27C99.0973 198.412 100.134 197.902 101.26 197.688C102.905 197.375 104.621 197.536 106.266 197.723C108.804 198.018 111.334 198.474 113.855 198.885C115.508 199.154 117.171 199.422 118.824 199.663C119.772 199.806 120.71 199.967 121.649 200.074C122.462 200.164 123.115 200.351 123.865 199.851C124.518 199.413 128.46 194.193 129.193 193.156C129.711 192.423 136.522 184.173 137.246 183.342C137.763 182.743 137.784 181.217 138.284 181.687C138.76 181.369 139.33 181.782 139.722 181.688C140.265 181.547 140.525 182.205 141 182.5C141.339 182.712 141.428 182.594 141.536 183C141.644 183.406 142.323 183.496 142.5 184C143.5 184.5 143 184.5 143 185.5C142.374 185.723 143.661 185.695 143 186.5C141.936 187.814 139.32 191.502 138.65 193.031C137.327 195.989 135.905 198.877 134.44 201.773C133.421 203.766 132.178 205.723 130.864 207.538C129.72 209.138 127.852 210.139 126.029 210.783C123.258 211.748 120.254 212.025 117.332 212.016C116.751 212.007 116.17 211.998 115.589 211.971C101.609 211.355 97.6761 210.461 96.7018 205.348C96.2817 203.131 96.8449 200.87 98.3107 199.27Z" fill="#FBBEA3"/>
<path id="Vector_84" d="M79.7198 328.216C79.6036 329.414 79.5142 330.647 79.5857 331.845C79.6572 332.998 80.5153 332.345 81.2125 332.086C82.5622 331.568 83.7241 330.647 84.8325 329.726C85.8336 328.895 87.0492 327.992 88.3095 328.323C90.0167 328.77 91.0536 330.987 91.867 332.372C92.1619 332.864 92.4569 333.382 92.4926 333.963C92.5552 335.089 91.6167 336.01 90.6782 336.635C89.2033 337.619 87.5587 338.316 86.0749 339.263C85.1543 339.844 84.3051 340.524 83.456 341.194C82.6694 341.82 81.8113 342.409 81.0784 343.089C80.408 343.705 79.827 344.447 79.1745 345.091C77.9321 346.324 75.626 346.843 73.9277 346.423C72.8104 346.155 71.8272 345.359 71.3446 344.313C70.5312 342.57 71.1122 340.532 71.4786 338.647C71.9524 336.215 72.006 332.301 71.6842 329.851L79.7198 328.216Z" fill="#EF9C76"/>
<path id="Vector_85" d="M71.6029 337.868C73.1135 340.022 76.081 340.979 78.682 340.46C81.6228 339.003 86.8249 334.391 84.0272 331.665C83.5803 331.227 83.2942 331.289 82.5077 331.433C83.33 330.941 84.0897 330.342 84.8316 329.725C85.8327 328.894 87.0483 327.991 88.3086 328.322C90.0159 328.769 91.0527 330.986 91.8661 332.371C92.1521 332.863 92.456 333.381 92.4918 333.962C92.5633 335.088 91.6158 336.009 90.6773 336.635C89.2025 337.618 87.5578 338.315 86.0651 339.262C85.1534 339.843 84.3043 340.523 83.4551 341.193C82.6686 341.819 81.8105 342.409 81.0775 343.088C80.4071 343.696 79.8262 344.447 79.1737 345.09C77.9312 346.324 75.6341 346.842 73.9268 346.431C72.8096 346.154 71.8263 345.349 71.3437 344.313C70.5303 342.57 71.1113 340.532 71.4777 338.646C71.5224 338.404 71.5671 338.136 71.6029 337.868Z" fill="#44403D"/>
<path id="Vector_86" d="M79.5943 331.951C79.7731 334.426 78.7273 333.005 77.8871 333.747C75.9385 335.472 73.9274 335.186 72.5062 333.774C71.7733 332.889 71.9163 331.513 71.7643 330.422C71.1118 325.443 70.1733 324.049 69.3331 321.198C68.2158 317.399 68.1532 313.35 68.6538 309.426C69.199 305.198 70.6828 301.274 71.5587 297.136C72.4168 293.051 71.4247 288.144 71.7375 283.863C71.8984 281.744 72.2202 279.465 73.7218 277.963C75.3754 276.301 78.1642 276.095 80.2736 277.123C82.3831 278.16 83.84 280.225 84.5908 282.441C85.5383 285.275 85.7886 288.904 85.7618 291.889C85.735 294.097 85.583 296.296 85.288 298.486C84.5908 303.732 83.1339 308.836 82.0077 313.994C81.5518 316.049 81.1675 318.114 80.8099 320.179C80.2736 323.298 79.3798 328.947 79.5943 331.951Z" fill="#EF9C76"/>
<path id="Vector_87" d="M103.227 293.096C103.236 294.008 103.165 294.928 103.102 295.822C102.548 302.839 101.967 309.855 101.457 316.872C100.984 323.477 99.0709 329.806 98.3022 336.358C97.9626 339.289 97.8821 342.284 96.9436 345.081C96.595 346.109 95.8442 347.396 94.8789 347.96C93.9672 348.478 92.0812 348.907 91.2142 348.129C90.8209 347.79 90.651 347.253 90.5348 346.744C90.3114 345.752 90.2131 344.742 90.0969 343.732C89.2835 337.01 87.2992 330.494 86.2802 323.799C85.726 320.161 86.1193 316.666 86.3159 313.037C86.5215 309.087 87.3528 305.234 88.2645 301.4C89.0243 298.235 87.3796 295.152 88.3807 291.827C89.2388 288.993 91.4287 286.499 94.2889 285.659C97.1403 284.819 100.555 285.883 102.11 288.403C102.977 289.806 103.218 291.433 103.227 293.096Z" fill="#FBBEA3"/>
<path id="Vector_88" d="M89.6763 349.694C90.1501 347.262 90.2216 344.751 89.8998 342.302L97.9265 339.271C97.8013 340.442 97.7566 341.631 97.7834 342.811C97.8371 345.242 100.465 344.849 102.315 344.491C103.826 344.197 105.327 343.785 106.829 343.428V350.203H112.675C110.127 353.206 105.024 352.965 101.573 354.359C98.579 355.557 95.5935 358.328 92.1254 357.479C91.0081 357.202 90.0339 356.397 89.5422 355.369C88.7289 353.618 89.3188 351.589 89.6763 349.694Z" fill="#FBBEA3"/>
<path id="Vector_89" d="M91.9107 351.426C97.0235 353.607 107.24 350.72 106.605 343.48C107.392 343.293 108.188 343.114 108.992 342.962C109.385 342.89 109.787 342.828 110.19 342.774C110.503 342.729 110.923 342.613 111.235 342.694C112.397 342.998 113.363 343.999 113.774 345.107C114.185 346.224 114.105 347.494 113.702 348.62C113.676 348.7 113.649 348.79 113.613 348.87C113.381 349.406 112.952 349.916 112.558 350.345C112.192 350.747 111.772 351.096 111.316 351.391C110.368 352.007 109.296 352.392 108.214 352.687C106.015 353.295 103.692 353.5 101.573 354.358C98.5877 355.565 95.5933 358.327 92.1253 357.478C91.008 357.201 90.0337 356.405 89.551 355.359C88.7287 353.616 89.3186 351.587 89.6851 349.692C89.7923 349.12 89.8728 348.548 89.9354 347.976C90.561 349.576 90.856 351.426 91.9107 351.426Z" fill="#44403D"/>
<path id="Vector_90" d="M70.6741 200.602C69.7088 196.437 69.3781 192.111 69.6909 187.838C69.9323 184.567 69.4764 179.633 73.2573 178.158C75.2595 177.381 78.0125 178.203 79.7019 179.419C80.256 179.812 82.4281 181.153 82.9465 181.439C84.5911 182.359 86.2179 183.325 87.8179 184.326C89.3821 185.3 89.2927 186.757 90.9731 187.499C94.4948 189.072 97.3193 191.137 100.439 193.336C103.54 195.516 106.124 196.839 107.679 200.728C109.136 204.348 109.189 208.45 108.465 212.303C107.455 217.594 104.971 221.992 104.497 227.382C104.184 230.984 104.273 234.622 104.783 238.197C104.863 238.814 104.953 239.484 104.64 240.012C104.282 240.61 103.54 240.798 102.879 240.861C100.144 241.129 98.7405 246.331 96.1484 245.384C91.6524 243.73 86.4235 244.695 82.3476 242.103C79.4248 240.235 74.4729 243.623 75.4472 239.18C75.769 237.705 75.6886 235.882 75.3578 234.425C75.0092 232.852 74.4998 231.413 75.0539 229.768C75.2863 229.089 75.6796 228.481 75.9656 227.829C76.6539 226.22 76.6539 224.387 76.4841 222.626C76.3053 220.696 75.9478 218.774 75.5187 216.888C75.0182 214.671 74.4193 212.481 73.7221 210.318C72.8462 207.574 71.8004 204.884 71.0496 202.095C70.9155 201.595 70.7814 201.103 70.6741 200.602Z" fill="#54004C"/>
<path id="Vector_91" d="M69.1552 253.141C69.0211 255.555 68.9228 257.986 68.7619 260.417C68.2524 268.131 87.2462 252.712 86.9155 260.417C86.6653 266.299 87.9155 275.76 87.9155 283.63C87.9155 295.5 85.4155 306 85.4155 322.5C85.9155 326.5 85.7623 337.24 87.9155 342C90.5393 347.801 96.4525 343.075 97.9155 342C103.153 338.121 107.17 288.823 107.027 283.156C106.848 276.47 106.678 269.784 106.509 263.099C106.294 254.938 106.625 246.652 104.882 238.652C104.462 236.74 103.407 234.666 103.398 232.735C87.2554 239.564 74.6523 228.731 74.5987 228.588C72.6859 232.431 72.23 235.265 71.6222 237.16C69.9328 242.389 69.4591 247.743 69.1552 253.141Z" fill="#1D292C"/>
<path id="Vector_92" d="M67.9155 280.5C67.7815 282.913 68.0764 291.689 67.9155 294.12C67.406 301.834 68.7458 308.295 68.4151 316C68.2681 319.455 68.4004 331.817 71.4151 336C73.5316 338.937 78.5902 334.944 79.4151 333.5C81.4151 326.5 82.5524 320.816 84.4155 311.5C85.4155 306.5 87.4155 282.5 87.4155 277.5C87.4155 264.5 88.5581 272.167 88.4151 266.5C88.2364 259.814 90.2118 262.132 90.042 255.446C89.8274 247.286 91.7848 250 90.0418 242C89.6217 240.087 89.4155 237.5 82.4155 234.5C78.9159 233 78.7993 232.391 74.9155 231C73.0027 234.843 70.5233 241.105 69.9155 243C68.2262 248.229 68.2194 275.101 67.9155 280.5Z" fill="#1D292C"/>
<path id="Vector_93" d="M80.4164 177.971C80.3628 179.285 80.3092 180.599 80.2555 181.912C80.2108 183.003 80.1572 184.12 79.7639 185.13C79.2991 186.319 78.7003 186.9 78.7986 188.241C78.9058 189.671 79.5494 190.895 80.4611 191.941C82.1862 193.917 84.5191 195.293 87.0218 195.803C88.7022 196.151 90.6061 196.035 92.1346 195.15C94.3155 193.89 93.6988 192.174 93.5379 189.903C93.377 187.472 93.4574 184.388 95.4507 182.279L80.4164 177.971Z" fill="#FBBEA3"/>
<path id="Vector_94" d="M99.786 159.468C100.608 160.478 101.243 161.631 101.457 162.99C101.86 165.555 101.002 168.102 101.297 170.65C101.547 172.893 100.331 175.664 99.7681 177.845C99.4106 179.221 98.9458 180.75 97.748 181.42C97.024 181.814 96.1481 181.823 95.4509 182.278C95.0308 182.555 94.709 182.976 94.3157 183.297C93.1448 184.245 90.9996 183.762 89.6678 183.574C88.3181 183.387 86.8611 183.154 85.6098 182.547C83.25 181.394 81.659 179.025 80.2467 176.719C68.6001 157.841 91.9292 149.68 99.786 159.468Z" fill="#FBBEA3"/>
<path id="Vector_95" d="M77.8963 156.974C78.1108 156.437 78.3432 155.901 78.7008 155.41C80.1935 153.363 82.294 151.825 84.6001 150.949C87.4425 149.859 90.5799 149.752 93.5385 150.404C94.1284 150.538 94.7273 150.699 95.2814 150.958C96.363 151.468 97.2568 152.317 98.1328 153.157C99.0803 154.06 100.385 154.927 101.038 156.098C101.69 157.278 102.218 158.663 102.182 160.049C102.164 160.665 101.833 161.166 101.556 161.711C101.351 162.104 101.047 162.426 100.787 162.784C99.9205 163.964 99.5361 165.662 99.0266 167.029C98.8032 167.619 98.5618 168.254 98.0613 168.612C97.087 169.318 95.7194 168.656 94.6021 169.041C93.9407 169.264 93.4312 169.818 93.1005 170.453C92.7698 171.087 92.5999 171.794 92.4301 172.5C92.162 173.599 92.1441 174.529 92.0279 175.628C91.9117 176.737 91.6257 177.916 90.9016 178.766C89.2659 180.669 86.0839 180.607 83.9208 180.142C83.1431 179.972 82.3566 179.785 81.6325 179.427C77.8695 177.595 75.6349 172.187 75.1969 168.111C75.0986 167.19 75.0718 166.261 75.0807 165.331C75.0897 164.348 75.1343 163.356 75.3578 162.399C75.7064 160.969 76.4662 159.691 77.208 158.458C77.4941 157.975 77.6907 157.474 77.8963 156.974Z" fill="#291A2F"/>
<path id="Vector_96" d="M117.421 198.859C117.082 198.663 116.706 198.609 116.295 198.493C115.678 198.323 115.053 198.162 114.427 198.01C113.175 197.724 111.915 197.483 110.646 197.277C108.098 196.866 105.533 196.616 102.968 196.419C101.725 196.321 100.778 196.419 99.6785 196.973C98.7579 197.438 97.9713 197.966 97.3009 198.761C95.987 200.325 95.3345 202.426 95.4953 204.455C95.5132 204.723 95.549 204.982 95.6026 205.25C95.987 207.252 97.6227 209.961 99.7232 210.408C101.529 210.801 103.343 211.15 105.149 211.471C107.884 211.954 110.628 212.392 113.381 212.678C114.007 212.741 114.632 212.803 115.249 212.848C115.741 212.884 116.518 213.062 116.965 212.901C118.145 212.49 118.851 210.372 119.173 209.264C119.924 206.654 119.987 203.641 119.03 201.076C118.735 200.299 118.306 199.566 117.671 199.029C117.591 198.967 117.511 198.913 117.421 198.859Z" fill="#54004C"/>
<path id="Vector_97" d="M139.664 179.359C139.886 178.876 140.152 178.395 140.541 178.066C141.168 177.528 142.005 177.454 142.787 177.4C142.712 178.129 142.388 178.811 141.986 179.406C141.592 180.003 141.12 180.543 140.713 181.129C140.423 181.549 140.156 181.999 139.814 182.385C139.651 182.556 139.191 184.872 138.942 184.756C138.668 184.618 138.368 183.841 138.411 183.604C138.566 182.711 139.296 180.175 139.664 179.359Z" fill="#FBBEA3"/>
<path id="Vector_98" d="M66.8658 195.792C67.6613 192.583 68.6446 189.401 70.0121 186.407C72.1752 181.67 72.6489 168.334 73.0601 165.643C73.0601 165.625 73.0601 165.616 73.069 165.599C73.3551 163.176 73.9092 160.817 75.0712 158.725C75.6611 157.661 76.3941 156.696 77.1717 155.784C79.451 153.103 82.3381 150.743 85.7257 150.162C87.3346 149.885 88.9792 150.019 90.606 150.153L90.2932 150.636C90.3915 150.654 90.4988 150.645 90.5971 150.663C91.4641 150.788 92.3222 151.011 93.1266 151.288C94.7176 151.834 96.2193 152.638 96.9433 154.336C97.4796 155.579 97.4706 157.018 97.3455 158.376C97.1578 160.352 96.7645 162.309 96.1746 164.195C95.9064 165.071 95.6472 166.162 95.1199 166.904C94.6283 167.592 94.1277 167.869 93.8417 168.79C92.9032 171.784 92.5188 174.966 92.7065 178.112C92.8317 180.168 93.1981 182.197 93.4573 184.244C94.0115 188.552 94.1188 192.932 93.7791 197.267C93.6361 199.01 93.6987 200.628 93.216 202.344C92.9747 203.229 92.6529 204.078 92.2328 204.883C92.0808 205.178 90.7758 206.867 90.8205 207.046C91.1066 208.074 90.1859 208.967 89.5245 209.772C87.7815 211.926 87.5491 216.708 84.0989 216.565C82.928 216.52 81.7034 216.127 80.6219 216.583C79.6119 216.994 78.9236 218.058 77.8868 218.397C76.7248 218.764 75.4645 218.085 74.6779 217.11C73.9003 216.145 73.4712 214.92 72.935 213.776C72.6936 213.258 72.4076 212.731 71.9249 212.471C71.335 212.167 70.6378 212.355 69.9853 212.266C68.3049 212.042 67.3574 210.147 66.848 208.449C65.6145 204.302 65.82 199.984 66.8658 195.792Z" fill="#291A2F"/>
<path id="Vector_99" d="M95.0481 167.798C93.0727 166.806 91.5532 169.255 92.1878 171.883C92.3665 172.651 92.8939 173.483 93.2425 174.18C95.6737 178.962 97.9083 175.807 97.1664 174.216C95.4413 170.515 97.5418 169.04 95.0481 167.798Z" fill="#FBBEA3"/>
<path id="Vector_100" d="M94.154 172.089C94.002 171.767 92.2232 169.372 94.1719 169.041C94.7082 168.952 95.0479 169.559 94.9317 170.069C94.8691 170.337 94.6993 170.569 94.6456 170.837C94.6099 170.989 94.6188 171.159 94.6367 171.32C94.7171 171.758 95.2892 172.384 94.9585 172.848C94.6635 173.251 94.2434 172.276 94.154 172.089Z" fill="#F4AA84"/>
</g>
</g>
<defs>
<clipPath id="clip0_111:300">
<rect width="507.27" height="441.849" fill="white"/>
</clipPath>
</defs>
</svg>
