<svg width="164" height="90" viewBox="0 0 164 90" fill="none" xmlns="http://www.w3.org/2000/svg">
<path d="M7.02488 8.5H50.5249H144.525H162.025V50.1657C162.025 50.1657 162.025 52 162.025 70.5C162.025 89 161.582 73.5 162.025 82.5C162.468 91.5 154.524 89.5 154.524 89.5H89.0242H38.5242C38.5242 89.5 13.5224 90 10.0229 89.5C6.52342 89 7.02488 86.5 7.02488 86.5V53.5V24.5V8.5Z" fill="white"/>
<g filter="url(#filter0_d_128:211)">
<path d="M7.02488 8.5L9.5 8L10 8.5V8L12 8.5H14.5L15.5 8L16 8.5H16.5L17 8L17.2837 9L17.5 8.5L18 8V9L18.5 8L17.5 8.5L19.5 8L20 9L21.5 8.5L25.5 8L24.5 8.5L38 9L42.5 8L43 8.5H43.5L44 8L44.5 9L45 8.5H49L56.5 9L57 8.5L59 9.5L59.5 9L62 8.5L67.5 9L77 8.5L80.5 9L83 8.5L89.5 9L97 8.5H103H109.5L123 9L141 8.5L144.5 9L145.5 8.5L146.5 9.5L147.5 9L162.025 8.5V45.5C162.025 45.5 162.025 45.5 162.025 64C162.025 82.5 162.052 55.2991 162.025 62.3995C161.998 69.5 126.5 86.5 126.5 86.5L87 89.5H38.5242C38.5242 89.5 13.5224 90 10.0229 89.5C6.52342 89 7.02488 86.5 7.02488 86.5V53.5V24.5V8.5Z" fill="#5A6E80"/>
</g>
<path d="M141.179 62.7816C139.003 69.1137 161 65.9476 161 65.9476C161 65.9476 159.334 70.6848 157.132 72.2796C149.639 77.7071 149.881 78.1594 146.013 78.1594C142.366 78.1594 137.526 85.1892 133.927 86.3005C127.639 88.2419 127.5 86.3006 127.5 86.3006C129.746 88.0879 143.354 56.4494 141.179 62.7816Z" fill="#E6E6E6"/>
<path d="M15.792 25.312C15.552 25.68 15.264 25.904 14.928 25.984C14.608 26.064 14.296 26.04 13.992 25.912C13.688 25.784 13.432 25.576 13.224 25.288C13.032 24.984 12.952 24.64 12.984 24.256C13 24 13.064 23.72 13.176 23.416C13.288 23.112 13.424 22.824 13.584 22.552C13.76 22.264 13.944 22 14.136 21.76C14.344 21.504 14.552 21.288 14.76 21.112C15.144 20.808 15.576 20.544 16.056 20.32C16.552 20.096 17.064 19.928 17.592 19.816C18.136 19.704 18.672 19.656 19.2 19.672C19.744 19.688 20.248 19.768 20.712 19.912C21.992 20.312 22.984 20.944 23.688 21.808C24.392 22.672 24.744 23.792 24.744 25.168C24.744 25.824 24.68 26.416 24.552 26.944C24.44 27.456 24.232 27.952 23.928 28.432C23.64 28.912 23.248 29.4 22.752 29.896C22.272 30.392 21.672 30.936 20.952 31.528C20.712 31.736 20.464 31.944 20.208 32.152C19.952 32.36 19.696 32.568 19.44 32.776C19.36 32.84 19.208 32.936 18.984 33.064C18.76 33.192 18.56 33.32 18.384 33.448C18.208 33.576 18.104 33.696 18.072 33.808C18.04 33.92 18.168 33.984 18.456 34C18.808 34.032 19.088 34.04 19.296 34.024C19.504 34.008 19.784 34 20.136 34C20.552 34 20.96 33.992 21.36 33.976C21.76 33.96 22.16 33.968 22.56 34C22.72 34.016 22.896 34.024 23.088 34.024C23.28 34.008 23.472 34.008 23.664 34.024C23.856 34.024 24.04 34.048 24.216 34.096C24.392 34.128 24.544 34.2 24.672 34.312C24.8 34.424 24.896 34.576 24.96 34.768C25.024 34.96 25.056 35.168 25.056 35.392C25.072 35.6 25.056 35.808 25.008 36.016C24.96 36.208 24.88 36.36 24.768 36.472C24.56 36.712 24.304 36.832 24 36.832C23.696 36.816 23.408 36.808 23.136 36.808H14.52C14.36 36.808 14.184 36.816 13.992 36.832C13.816 36.848 13.656 36.832 13.512 36.784C13.224 36.704 13.08 36.552 13.08 36.328C13.096 36.104 13.104 35.872 13.104 35.632C13.104 35.232 13.2 34.864 13.392 34.528C13.584 34.176 13.824 33.856 14.112 33.568C14.416 33.264 14.736 32.984 15.072 32.728C15.408 32.472 15.72 32.224 16.008 31.984C16.424 31.616 16.872 31.248 17.352 30.88C17.832 30.512 18.288 30.144 18.72 29.776C19.28 29.312 19.752 28.888 20.136 28.504C20.536 28.12 20.856 27.76 21.096 27.424C21.336 27.088 21.512 26.76 21.624 26.44C21.736 26.104 21.792 25.752 21.792 25.384C21.792 24.568 21.544 23.944 21.048 23.512C20.552 23.064 19.92 22.84 19.152 22.84C18.592 22.84 18.064 22.96 17.568 23.2C17.088 23.44 16.688 23.792 16.368 24.256C16.272 24.432 16.176 24.616 16.08 24.808C16 24.984 15.904 25.152 15.792 25.312ZM33.4071 36.928C33.1191 36.928 32.8231 36.912 32.5191 36.88C32.2311 36.832 31.9431 36.752 31.6551 36.64C31.2231 36.464 30.8071 36.232 30.4071 35.944C30.0231 35.64 29.6711 35.304 29.3511 34.936C28.5831 34.072 27.9991 33.056 27.5991 31.888C27.1991 30.704 26.9991 29.504 26.9991 28.288C26.9991 26.624 27.3191 25.016 27.9591 23.464C28.0711 23.192 28.2151 22.904 28.3911 22.6C28.5831 22.296 28.7911 22.008 29.0151 21.736C29.2551 21.448 29.4951 21.192 29.7351 20.968C29.9911 20.744 30.2471 20.576 30.5031 20.464C30.8551 20.304 31.2391 20.144 31.6551 19.984C32.1671 19.824 32.7431 19.752 33.3831 19.768C34.0231 19.784 34.6071 19.856 35.1351 19.984C35.8711 20.16 36.5031 20.48 37.0311 20.944C37.5591 21.392 38.0071 21.936 38.3751 22.576C38.7431 23.2 39.0311 23.888 39.2391 24.64C39.4471 25.376 39.5991 26.128 39.6951 26.896C39.7591 27.408 39.7831 27.92 39.7671 28.432C39.7511 28.928 39.7111 29.432 39.6471 29.944C39.5831 30.408 39.5031 30.872 39.4071 31.336C39.3271 31.8 39.2151 32.248 39.0711 32.68C38.9271 33.112 38.7431 33.528 38.5191 33.928C38.2951 34.312 38.0151 34.672 37.6791 35.008C37.0711 35.6 36.4071 36.064 35.6871 36.4C34.9831 36.72 34.2231 36.896 33.4071 36.928ZM33.3831 22.936C33.1591 22.936 32.9351 22.96 32.7111 23.008C32.5031 23.04 32.3031 23.12 32.1111 23.248C31.8871 23.392 31.6871 23.568 31.5111 23.776C31.3351 23.984 31.1831 24.2 31.0551 24.424C30.7191 25 30.4871 25.616 30.3591 26.272C30.2311 26.928 30.1671 27.592 30.1671 28.264C30.1671 28.952 30.2391 29.664 30.3831 30.4C30.5431 31.136 30.8231 31.808 31.2231 32.416C31.4151 32.704 31.6391 32.96 31.8951 33.184C32.1671 33.392 32.4791 33.544 32.8311 33.64C33.1511 33.72 33.4711 33.744 33.7911 33.712C34.1271 33.68 34.4391 33.576 34.7271 33.4C35.1911 33.112 35.5591 32.728 35.8311 32.248C36.1031 31.768 36.3031 31.248 36.4311 30.688C36.5751 30.128 36.6551 29.552 36.6711 28.96C36.7031 28.368 36.7031 27.832 36.6711 27.352C36.6391 26.872 36.5591 26.368 36.4311 25.84C36.3031 25.312 36.1111 24.832 35.8551 24.4C35.6151 23.968 35.2871 23.616 34.8711 23.344C34.4711 23.056 33.9751 22.92 33.3831 22.936ZM45.7264 19.672C45.8384 19.64 45.9424 19.616 46.0384 19.6C46.1344 19.568 46.2304 19.544 46.3264 19.528C46.4384 19.496 46.5744 19.48 46.7344 19.48C46.9104 19.464 47.0704 19.472 47.2144 19.504C47.3744 19.52 47.5184 19.568 47.6464 19.648C47.7904 19.712 47.8944 19.816 47.9584 19.96C48.0224 20.12 48.0624 20.312 48.0784 20.536C48.1104 20.744 48.1264 20.96 48.1264 21.184C48.1264 21.408 48.1184 21.632 48.1024 21.856C48.1024 22.064 48.1024 22.256 48.1024 22.432V34.696C48.1024 34.872 48.1024 35.056 48.1024 35.248C48.1184 35.424 48.1184 35.608 48.1024 35.8C48.0864 35.992 48.0384 36.176 47.9584 36.352C47.8784 36.512 47.7584 36.648 47.5984 36.76C47.3744 36.936 47.0704 37.024 46.6864 37.024C46.3184 37.04 45.9984 37 45.7264 36.904C45.4384 36.808 45.2624 36.624 45.1984 36.352C45.1504 36.08 45.1264 35.808 45.1264 35.536C45.0144 33.424 44.9584 31.36 44.9584 29.344C44.9744 27.312 44.9824 25.224 44.9824 23.08C44.9504 23.16 44.8384 23.232 44.6464 23.296C44.4704 23.36 44.2624 23.416 44.0224 23.464C43.7984 23.512 43.5824 23.552 43.3744 23.584C43.1664 23.616 43.0304 23.632 42.9664 23.632C42.5504 23.68 42.1664 23.64 41.8144 23.512C41.4784 23.368 41.2864 23.048 41.2384 22.552C41.1744 22.04 41.2864 21.64 41.5744 21.352C41.8784 21.064 42.2624 20.848 42.7264 20.704C43.2384 20.528 43.7344 20.352 44.2144 20.176C44.7104 19.984 45.2144 19.816 45.7264 19.672ZM52.0896 20.176C52.2816 20.08 52.4976 20.024 52.7376 20.008C52.9776 19.976 53.2336 19.96 53.5056 19.96H62.1936C62.4176 19.96 62.6576 19.952 62.9136 19.936C63.1696 19.92 63.4016 19.968 63.6096 20.08C63.8976 20.24 64.0656 20.496 64.1136 20.848C64.1616 21.184 64.1296 21.568 64.0176 22C63.9216 22.416 63.7696 22.864 63.5616 23.344C63.3536 23.808 63.1376 24.256 62.9136 24.688C62.6896 25.104 62.4736 25.488 62.2656 25.84C62.0576 26.176 61.9136 26.432 61.8336 26.608C61.5776 27.088 61.3376 27.528 61.1136 27.928C60.9056 28.328 60.6976 28.728 60.4896 29.128C60.2976 29.528 60.0896 29.928 59.8656 30.328C59.6576 30.728 59.4256 31.168 59.1696 31.648C58.8496 32.304 58.4816 32.992 58.0656 33.712C57.6656 34.416 57.2816 35.08 56.9136 35.704C56.8016 35.896 56.6736 36.088 56.5296 36.28C56.3856 36.472 56.2176 36.632 56.0256 36.76C55.8496 36.888 55.6416 36.968 55.4016 37C55.1776 37.032 54.9296 36.984 54.6576 36.856C54.2416 36.632 53.9696 36.304 53.8416 35.872C53.7296 35.44 53.7696 35.04 53.9616 34.672C54.2656 34.128 54.5616 33.584 54.8496 33.04C55.1376 32.48 55.4256 31.928 55.7136 31.384C56.1456 30.568 56.5456 29.784 56.9136 29.032C57.2976 28.28 57.7056 27.496 58.1376 26.68C58.2656 26.44 58.4416 26.152 58.6656 25.816C58.8896 25.464 59.0976 25.104 59.2896 24.736C59.4976 24.368 59.6576 24.008 59.7696 23.656C59.8976 23.288 59.9376 22.968 59.8896 22.696C59.3296 22.648 58.8176 22.632 58.3536 22.648C57.9056 22.648 57.4096 22.648 56.8656 22.648H54.5376C54.2496 22.648 53.9376 22.656 53.6016 22.672C53.2816 22.688 52.9776 22.672 52.6896 22.624C52.4016 22.56 52.1536 22.44 51.9456 22.264C51.7536 22.088 51.6336 21.8 51.5856 21.4C51.5536 21.064 51.5856 20.8 51.6816 20.608C51.7776 20.416 51.9136 20.272 52.0896 20.176Z" fill="white"/>
<defs>
<filter id="filter0_d_128:211" x="0" y="0" width="163.037" height="89.7227" filterUnits="userSpaceOnUse" color-interpolation-filters="sRGB">
<feFlood flood-opacity="0" result="BackgroundImageFix"/>
<feColorMatrix in="SourceAlpha" type="matrix" values="0 0 0 0 0 0 0 0 0 0 0 0 0 0 0 0 0 0 127 0" result="hardAlpha"/>
<feOffset dx="-3" dy="-4"/>
<feGaussianBlur stdDeviation="2"/>
<feComposite in2="hardAlpha" operator="out"/>
<feColorMatrix type="matrix" values="0 0 0 0 0 0 0 0 0 0 0 0 0 0 0 0 0 0 0.25 0"/>
<feBlend mode="normal" in2="BackgroundImageFix" result="effect1_dropShadow_128:211"/>
<feBlend mode="normal" in="SourceGraphic" in2="effect1_dropShadow_128:211" result="shape"/>
</filter>
</defs>
</svg>
