<svg width="157" height="129" viewBox="0 0 157 129" fill="none" xmlns="http://www.w3.org/2000/svg">
<g id="calendar">
<g id="Group 25">
<rect id="Rectangle 170" x="0.0102539" y="22" width="155" height="22" fill="#98D5C9"/>
<rect id="Rectangle 172" x="0.0102539" y="32" width="155" height="7" fill="#58C2AC"/>
<rect id="Rectangle 171" x="0.0102539" y="11" width="155" height="21" rx="10.5" fill="#98D5C9"/>
<rect id="Rectangle 181" y="44" width="155" height="3" fill="#E7E7E7"/>
</g>
<g id="Group 20">
<rect id="Rectangle 176" x="30.0103" width="16" height="24" rx="5" fill="white"/>
<rect id="Rectangle 177" x="108.01" width="16" height="24" rx="5" fill="white"/>
<g id="Rectangle 174">
<rect x="34.0103" y="2" width="8" height="18" fill="#5A6E80"/>
<rect x="34.0103" y="2" width="8" height="18" fill="#5A6E80"/>
<rect x="34.0103" y="2" width="8" height="18" fill="#5A6E80"/>
</g>
<g id="Rectangle 175">
<rect x="112.01" y="2" width="8" height="18" fill="#5A6E80"/>
<rect x="112.01" y="2" width="8" height="18" fill="#5A6E80"/>
<rect x="112.01" y="2" width="8" height="18" fill="#5A6E80"/>
</g>
</g>
<g id="Group 24">
<path id="Rectangle 178" d="M0.0248813 47H43.5249H137.525H155.025V84C155.025 84 155.025 84 155.025 102.5C155.025 121 154.582 112 155.025 121C155.468 130 147.524 128 147.524 128H82.0242H31.5242C31.5242 128 6.52243 128.5 3.02293 128C-0.476577 127.5 0.0248813 125 0.0248813 125V92V63V47Z" fill="#B6B6B6"/>
<path id="Rectangle 179" d="M0.0248813 47H43.5249H137.525H155.025V84C155.025 84 155.025 84 155.025 102.5C155.025 121 154.582 112 155.025 121C155.468 130 147.524 128 147.524 128H82.0242H31.5242C31.5242 128 6.52243 128.5 3.02293 128C-0.476577 127.5 0.0248813 125 0.0248813 125V92V63V47Z" fill="#5A6E80"/>
</g>
<path id="Year21" d="M9.792 62.312C9.552 62.68 9.264 62.904 8.928 62.984C8.608 63.064 8.296 63.04 7.992 62.912C7.688 62.784 7.432 62.576 7.224 62.288C7.032 61.984 6.952 61.64 6.984 61.256C7 61 7.064 60.72 7.176 60.416C7.288 60.112 7.424 59.824 7.584 59.552C7.76 59.264 7.944 59 8.136 58.76C8.344 58.504 8.552 58.288 8.76 58.112C9.144 57.808 9.576 57.544 10.056 57.32C10.552 57.096 11.064 56.928 11.592 56.816C12.136 56.704 12.672 56.656 13.2 56.672C13.744 56.688 14.248 56.768 14.712 56.912C15.992 57.312 16.984 57.944 17.688 58.808C18.392 59.672 18.744 60.792 18.744 62.168C18.744 62.824 18.68 63.416 18.552 63.944C18.44 64.456 18.232 64.952 17.928 65.432C17.64 65.912 17.248 66.4 16.752 66.896C16.272 67.392 15.672 67.936 14.952 68.528C14.712 68.736 14.464 68.944 14.208 69.152C13.952 69.36 13.696 69.568 13.44 69.776C13.36 69.84 13.208 69.936 12.984 70.064C12.76 70.192 12.56 70.32 12.384 70.448C12.208 70.576 12.104 70.696 12.072 70.808C12.04 70.92 12.168 70.984 12.456 71C12.808 71.032 13.088 71.04 13.296 71.024C13.504 71.008 13.784 71 14.136 71C14.552 71 14.96 70.992 15.36 70.976C15.76 70.96 16.16 70.968 16.56 71C16.72 71.016 16.896 71.024 17.088 71.024C17.28 71.008 17.472 71.008 17.664 71.024C17.856 71.024 18.04 71.048 18.216 71.096C18.392 71.128 18.544 71.2 18.672 71.312C18.8 71.424 18.896 71.576 18.96 71.768C19.024 71.96 19.056 72.168 19.056 72.392C19.072 72.6 19.056 72.808 19.008 73.016C18.96 73.208 18.88 73.36 18.768 73.472C18.56 73.712 18.304 73.832 18 73.832C17.696 73.816 17.408 73.808 17.136 73.808H8.52C8.36 73.808 8.184 73.816 7.992 73.832C7.816 73.848 7.656 73.832 7.512 73.784C7.224 73.704 7.08 73.552 7.08 73.328C7.096 73.104 7.104 72.872 7.104 72.632C7.104 72.232 7.2 71.864 7.392 71.528C7.584 71.176 7.824 70.856 8.112 70.568C8.416 70.264 8.736 69.984 9.072 69.728C9.408 69.472 9.72 69.224 10.008 68.984C10.424 68.616 10.872 68.248 11.352 67.88C11.832 67.512 12.288 67.144 12.72 66.776C13.28 66.312 13.752 65.888 14.136 65.504C14.536 65.12 14.856 64.76 15.096 64.424C15.336 64.088 15.512 63.76 15.624 63.44C15.736 63.104 15.792 62.752 15.792 62.384C15.792 61.568 15.544 60.944 15.048 60.512C14.552 60.064 13.92 59.84 13.152 59.84C12.592 59.84 12.064 59.96 11.568 60.2C11.088 60.44 10.688 60.792 10.368 61.256C10.272 61.432 10.176 61.616 10.08 61.808C10 61.984 9.904 62.152 9.792 62.312ZM27.4071 73.928C27.1191 73.928 26.8231 73.912 26.5191 73.88C26.2311 73.832 25.9431 73.752 25.6551 73.64C25.2231 73.464 24.8071 73.232 24.4071 72.944C24.0231 72.64 23.6711 72.304 23.3511 71.936C22.5831 71.072 21.9991 70.056 21.5991 68.888C21.1991 67.704 20.9991 66.504 20.9991 65.288C20.9991 63.624 21.3191 62.016 21.9591 60.464C22.0711 60.192 22.2151 59.904 22.3911 59.6C22.5831 59.296 22.7911 59.008 23.0151 58.736C23.2551 58.448 23.4951 58.192 23.7351 57.968C23.9911 57.744 24.2471 57.576 24.5031 57.464C24.8551 57.304 25.2391 57.144 25.6551 56.984C26.1671 56.824 26.7431 56.752 27.3831 56.768C28.0231 56.784 28.6071 56.856 29.1351 56.984C29.8711 57.16 30.5031 57.48 31.0311 57.944C31.5591 58.392 32.0071 58.936 32.3751 59.576C32.7431 60.2 33.0311 60.888 33.2391 61.64C33.4471 62.376 33.5991 63.128 33.6951 63.896C33.7591 64.408 33.7831 64.92 33.7671 65.432C33.7511 65.928 33.7111 66.432 33.6471 66.944C33.5831 67.408 33.5031 67.872 33.4071 68.336C33.3271 68.8 33.2151 69.248 33.0711 69.68C32.9271 70.112 32.7431 70.528 32.5191 70.928C32.2951 71.312 32.0151 71.672 31.6791 72.008C31.0711 72.6 30.4071 73.064 29.6871 73.4C28.9831 73.72 28.2231 73.896 27.4071 73.928ZM27.3831 59.936C27.1591 59.936 26.9351 59.96 26.7111 60.008C26.5031 60.04 26.3031 60.12 26.1111 60.248C25.8871 60.392 25.6871 60.568 25.5111 60.776C25.3351 60.984 25.1831 61.2 25.0551 61.424C24.7191 62 24.4871 62.616 24.3591 63.272C24.2311 63.928 24.1671 64.592 24.1671 65.264C24.1671 65.952 24.2391 66.664 24.3831 67.4C24.5431 68.136 24.8231 68.808 25.2231 69.416C25.4151 69.704 25.6391 69.96 25.8951 70.184C26.1671 70.392 26.4791 70.544 26.8311 70.64C27.1511 70.72 27.4711 70.744 27.7911 70.712C28.1271 70.68 28.4391 70.576 28.7271 70.4C29.1911 70.112 29.5591 69.728 29.8311 69.248C30.1031 68.768 30.3031 68.248 30.4311 67.688C30.5751 67.128 30.6551 66.552 30.6711 65.96C30.7031 65.368 30.7031 64.832 30.6711 64.352C30.6391 63.872 30.5591 63.368 30.4311 62.84C30.3031 62.312 30.1111 61.832 29.8551 61.4C29.6151 60.968 29.2871 60.616 28.8711 60.344C28.4711 60.056 27.9751 59.92 27.3831 59.936ZM38.5264 62.312C38.2864 62.68 37.9984 62.904 37.6624 62.984C37.3424 63.064 37.0304 63.04 36.7264 62.912C36.4224 62.784 36.1664 62.576 35.9584 62.288C35.7664 61.984 35.6864 61.64 35.7184 61.256C35.7344 61 35.7984 60.72 35.9104 60.416C36.0224 60.112 36.1584 59.824 36.3184 59.552C36.4944 59.264 36.6784 59 36.8704 58.76C37.0784 58.504 37.2864 58.288 37.4944 58.112C37.8784 57.808 38.3104 57.544 38.7904 57.32C39.2864 57.096 39.7984 56.928 40.3264 56.816C40.8704 56.704 41.4064 56.656 41.9344 56.672C42.4784 56.688 42.9824 56.768 43.4464 56.912C44.7264 57.312 45.7184 57.944 46.4224 58.808C47.1264 59.672 47.4784 60.792 47.4784 62.168C47.4784 62.824 47.4144 63.416 47.2864 63.944C47.1744 64.456 46.9664 64.952 46.6624 65.432C46.3744 65.912 45.9824 66.4 45.4864 66.896C45.0064 67.392 44.4064 67.936 43.6864 68.528C43.4464 68.736 43.1984 68.944 42.9424 69.152C42.6864 69.36 42.4304 69.568 42.1744 69.776C42.0944 69.84 41.9424 69.936 41.7184 70.064C41.4944 70.192 41.2944 70.32 41.1184 70.448C40.9424 70.576 40.8384 70.696 40.8064 70.808C40.7744 70.92 40.9024 70.984 41.1904 71C41.5424 71.032 41.8224 71.04 42.0304 71.024C42.2384 71.008 42.5184 71 42.8704 71C43.2864 71 43.6944 70.992 44.0944 70.976C44.4944 70.96 44.8944 70.968 45.2944 71C45.4544 71.016 45.6304 71.024 45.8224 71.024C46.0144 71.008 46.2064 71.008 46.3984 71.024C46.5904 71.024 46.7744 71.048 46.9504 71.096C47.1264 71.128 47.2784 71.2 47.4064 71.312C47.5344 71.424 47.6304 71.576 47.6944 71.768C47.7584 71.96 47.7904 72.168 47.7904 72.392C47.8064 72.6 47.7904 72.808 47.7424 73.016C47.6944 73.208 47.6144 73.36 47.5024 73.472C47.2944 73.712 47.0384 73.832 46.7344 73.832C46.4304 73.816 46.1424 73.808 45.8704 73.808H37.2544C37.0944 73.808 36.9184 73.816 36.7264 73.832C36.5504 73.848 36.3904 73.832 36.2464 73.784C35.9584 73.704 35.8144 73.552 35.8144 73.328C35.8304 73.104 35.8384 72.872 35.8384 72.632C35.8384 72.232 35.9344 71.864 36.1264 71.528C36.3184 71.176 36.5584 70.856 36.8464 70.568C37.1504 70.264 37.4704 69.984 37.8064 69.728C38.1424 69.472 38.4544 69.224 38.7424 68.984C39.1584 68.616 39.6064 68.248 40.0864 67.88C40.5664 67.512 41.0224 67.144 41.4544 66.776C42.0144 66.312 42.4864 65.888 42.8704 65.504C43.2704 65.12 43.5904 64.76 43.8304 64.424C44.0704 64.088 44.2464 63.76 44.3584 63.44C44.4704 63.104 44.5264 62.752 44.5264 62.384C44.5264 61.568 44.2784 60.944 43.7824 60.512C43.2864 60.064 42.6544 59.84 41.8864 59.84C41.3264 59.84 40.7984 59.96 40.3024 60.2C39.8224 60.44 39.4224 60.792 39.1024 61.256C39.0064 61.432 38.9104 61.616 38.8144 61.808C38.7344 61.984 38.6384 62.152 38.5264 62.312ZM53.7654 56.672C53.8774 56.64 53.9814 56.616 54.0774 56.6C54.1734 56.568 54.2694 56.544 54.3654 56.528C54.4774 56.496 54.6134 56.48 54.7734 56.48C54.9494 56.464 55.1094 56.472 55.2534 56.504C55.4134 56.52 55.5574 56.568 55.6854 56.648C55.8294 56.712 55.9334 56.816 55.9974 56.96C56.0614 57.12 56.1014 57.312 56.1174 57.536C56.1494 57.744 56.1654 57.96 56.1654 58.184C56.1654 58.408 56.1574 58.632 56.1414 58.856C56.1414 59.064 56.1414 59.256 56.1414 59.432V71.696C56.1414 71.872 56.1414 72.056 56.1414 72.248C56.1574 72.424 56.1574 72.608 56.1414 72.8C56.1254 72.992 56.0774 73.176 55.9974 73.352C55.9174 73.512 55.7974 73.648 55.6374 73.76C55.4134 73.936 55.1094 74.024 54.7254 74.024C54.3574 74.04 54.0374 74 53.7654 73.904C53.4774 73.808 53.3014 73.624 53.2374 73.352C53.1894 73.08 53.1654 72.808 53.1654 72.536C53.0534 70.424 52.9974 68.36 52.9974 66.344C53.0134 64.312 53.0214 62.224 53.0214 60.08C52.9894 60.16 52.8774 60.232 52.6854 60.296C52.5094 60.36 52.3014 60.416 52.0614 60.464C51.8374 60.512 51.6214 60.552 51.4134 60.584C51.2054 60.616 51.0694 60.632 51.0054 60.632C50.5894 60.68 50.2054 60.64 49.8534 60.512C49.5174 60.368 49.3254 60.048 49.2774 59.552C49.2134 59.04 49.3254 58.64 49.6134 58.352C49.9174 58.064 50.3014 57.848 50.7654 57.704C51.2774 57.528 51.7734 57.352 52.2534 57.176C52.7494 56.984 53.2534 56.816 53.7654 56.672Z" fill="white"/>
<path id="Year20" d="M9.792 62.312C9.552 62.68 9.264 62.904 8.928 62.984C8.608 63.064 8.296 63.04 7.992 62.912C7.688 62.784 7.432 62.576 7.224 62.288C7.032 61.984 6.952 61.64 6.984 61.256C7 61 7.064 60.72 7.176 60.416C7.288 60.112 7.424 59.824 7.584 59.552C7.76 59.264 7.944 59 8.136 58.76C8.344 58.504 8.552 58.288 8.76 58.112C9.144 57.808 9.576 57.544 10.056 57.32C10.552 57.096 11.064 56.928 11.592 56.816C12.136 56.704 12.672 56.656 13.2 56.672C13.744 56.688 14.248 56.768 14.712 56.912C15.992 57.312 16.984 57.944 17.688 58.808C18.392 59.672 18.744 60.792 18.744 62.168C18.744 62.824 18.68 63.416 18.552 63.944C18.44 64.456 18.232 64.952 17.928 65.432C17.64 65.912 17.248 66.4 16.752 66.896C16.272 67.392 15.672 67.936 14.952 68.528C14.712 68.736 14.464 68.944 14.208 69.152C13.952 69.36 13.696 69.568 13.44 69.776C13.36 69.84 13.208 69.936 12.984 70.064C12.76 70.192 12.56 70.32 12.384 70.448C12.208 70.576 12.104 70.696 12.072 70.808C12.04 70.92 12.168 70.984 12.456 71C12.808 71.032 13.088 71.04 13.296 71.024C13.504 71.008 13.784 71 14.136 71C14.552 71 14.96 70.992 15.36 70.976C15.76 70.96 16.16 70.968 16.56 71C16.72 71.016 16.896 71.024 17.088 71.024C17.28 71.008 17.472 71.008 17.664 71.024C17.856 71.024 18.04 71.048 18.216 71.096C18.392 71.128 18.544 71.2 18.672 71.312C18.8 71.424 18.896 71.576 18.96 71.768C19.024 71.96 19.056 72.168 19.056 72.392C19.072 72.6 19.056 72.808 19.008 73.016C18.96 73.208 18.88 73.36 18.768 73.472C18.56 73.712 18.304 73.832 18 73.832C17.696 73.816 17.408 73.808 17.136 73.808H8.52C8.36 73.808 8.184 73.816 7.992 73.832C7.816 73.848 7.656 73.832 7.512 73.784C7.224 73.704 7.08 73.552 7.08 73.328C7.096 73.104 7.104 72.872 7.104 72.632C7.104 72.232 7.2 71.864 7.392 71.528C7.584 71.176 7.824 70.856 8.112 70.568C8.416 70.264 8.736 69.984 9.072 69.728C9.408 69.472 9.72 69.224 10.008 68.984C10.424 68.616 10.872 68.248 11.352 67.88C11.832 67.512 12.288 67.144 12.72 66.776C13.28 66.312 13.752 65.888 14.136 65.504C14.536 65.12 14.856 64.76 15.096 64.424C15.336 64.088 15.512 63.76 15.624 63.44C15.736 63.104 15.792 62.752 15.792 62.384C15.792 61.568 15.544 60.944 15.048 60.512C14.552 60.064 13.92 59.84 13.152 59.84C12.592 59.84 12.064 59.96 11.568 60.2C11.088 60.44 10.688 60.792 10.368 61.256C10.272 61.432 10.176 61.616 10.08 61.808C10 61.984 9.904 62.152 9.792 62.312ZM27.4071 73.928C27.1191 73.928 26.8231 73.912 26.5191 73.88C26.2311 73.832 25.9431 73.752 25.6551 73.64C25.2231 73.464 24.8071 73.232 24.4071 72.944C24.0231 72.64 23.6711 72.304 23.3511 71.936C22.5831 71.072 21.9991 70.056 21.5991 68.888C21.1991 67.704 20.9991 66.504 20.9991 65.288C20.9991 63.624 21.3191 62.016 21.9591 60.464C22.0711 60.192 22.2151 59.904 22.3911 59.6C22.5831 59.296 22.7911 59.008 23.0151 58.736C23.2551 58.448 23.4951 58.192 23.7351 57.968C23.9911 57.744 24.2471 57.576 24.5031 57.464C24.8551 57.304 25.2391 57.144 25.6551 56.984C26.1671 56.824 26.7431 56.752 27.3831 56.768C28.0231 56.784 28.6071 56.856 29.1351 56.984C29.8711 57.16 30.5031 57.48 31.0311 57.944C31.5591 58.392 32.0071 58.936 32.3751 59.576C32.7431 60.2 33.0311 60.888 33.2391 61.64C33.4471 62.376 33.5991 63.128 33.6951 63.896C33.7591 64.408 33.7831 64.92 33.7671 65.432C33.7511 65.928 33.7111 66.432 33.6471 66.944C33.5831 67.408 33.5031 67.872 33.4071 68.336C33.3271 68.8 33.2151 69.248 33.0711 69.68C32.9271 70.112 32.7431 70.528 32.5191 70.928C32.2951 71.312 32.0151 71.672 31.6791 72.008C31.0711 72.6 30.4071 73.064 29.6871 73.4C28.9831 73.72 28.2231 73.896 27.4071 73.928ZM27.3831 59.936C27.1591 59.936 26.9351 59.96 26.7111 60.008C26.5031 60.04 26.3031 60.12 26.1111 60.248C25.8871 60.392 25.6871 60.568 25.5111 60.776C25.3351 60.984 25.1831 61.2 25.0551 61.424C24.7191 62 24.4871 62.616 24.3591 63.272C24.2311 63.928 24.1671 64.592 24.1671 65.264C24.1671 65.952 24.2391 66.664 24.3831 67.4C24.5431 68.136 24.8231 68.808 25.2231 69.416C25.4151 69.704 25.6391 69.96 25.8951 70.184C26.1671 70.392 26.4791 70.544 26.8311 70.64C27.1511 70.72 27.4711 70.744 27.7911 70.712C28.1271 70.68 28.4391 70.576 28.7271 70.4C29.1911 70.112 29.5591 69.728 29.8311 69.248C30.1031 68.768 30.3031 68.248 30.4311 67.688C30.5751 67.128 30.6551 66.552 30.6711 65.96C30.7031 65.368 30.7031 64.832 30.6711 64.352C30.6391 63.872 30.5591 63.368 30.4311 62.84C30.3031 62.312 30.1111 61.832 29.8551 61.4C29.6151 60.968 29.2871 60.616 28.8711 60.344C28.4711 60.056 27.9751 59.92 27.3831 59.936ZM38.5264 62.312C38.2864 62.68 37.9984 62.904 37.6624 62.984C37.3424 63.064 37.0304 63.04 36.7264 62.912C36.4224 62.784 36.1664 62.576 35.9584 62.288C35.7664 61.984 35.6864 61.64 35.7184 61.256C35.7344 61 35.7984 60.72 35.9104 60.416C36.0224 60.112 36.1584 59.824 36.3184 59.552C36.4944 59.264 36.6784 59 36.8704 58.76C37.0784 58.504 37.2864 58.288 37.4944 58.112C37.8784 57.808 38.3104 57.544 38.7904 57.32C39.2864 57.096 39.7984 56.928 40.3264 56.816C40.8704 56.704 41.4064 56.656 41.9344 56.672C42.4784 56.688 42.9824 56.768 43.4464 56.912C44.7264 57.312 45.7184 57.944 46.4224 58.808C47.1264 59.672 47.4784 60.792 47.4784 62.168C47.4784 62.824 47.4144 63.416 47.2864 63.944C47.1744 64.456 46.9664 64.952 46.6624 65.432C46.3744 65.912 45.9824 66.4 45.4864 66.896C45.0064 67.392 44.4064 67.936 43.6864 68.528C43.4464 68.736 43.1984 68.944 42.9424 69.152C42.6864 69.36 42.4304 69.568 42.1744 69.776C42.0944 69.84 41.9424 69.936 41.7184 70.064C41.4944 70.192 41.2944 70.32 41.1184 70.448C40.9424 70.576 40.8384 70.696 40.8064 70.808C40.7744 70.92 40.9024 70.984 41.1904 71C41.5424 71.032 41.8224 71.04 42.0304 71.024C42.2384 71.008 42.5184 71 42.8704 71C43.2864 71 43.6944 70.992 44.0944 70.976C44.4944 70.96 44.8944 70.968 45.2944 71C45.4544 71.016 45.6304 71.024 45.8224 71.024C46.0144 71.008 46.2064 71.008 46.3984 71.024C46.5904 71.024 46.7744 71.048 46.9504 71.096C47.1264 71.128 47.2784 71.2 47.4064 71.312C47.5344 71.424 47.6304 71.576 47.6944 71.768C47.7584 71.96 47.7904 72.168 47.7904 72.392C47.8064 72.6 47.7904 72.808 47.7424 73.016C47.6944 73.208 47.6144 73.36 47.5024 73.472C47.2944 73.712 47.0384 73.832 46.7344 73.832C46.4304 73.816 46.1424 73.808 45.8704 73.808H37.2544C37.0944 73.808 36.9184 73.816 36.7264 73.832C36.5504 73.848 36.3904 73.832 36.2464 73.784C35.9584 73.704 35.8144 73.552 35.8144 73.328C35.8304 73.104 35.8384 72.872 35.8384 72.632C35.8384 72.232 35.9344 71.864 36.1264 71.528C36.3184 71.176 36.5584 70.856 36.8464 70.568C37.1504 70.264 37.4704 69.984 37.8064 69.728C38.1424 69.472 38.4544 69.224 38.7424 68.984C39.1584 68.616 39.6064 68.248 40.0864 67.88C40.5664 67.512 41.0224 67.144 41.4544 66.776C42.0144 66.312 42.4864 65.888 42.8704 65.504C43.2704 65.12 43.5904 64.76 43.8304 64.424C44.0704 64.088 44.2464 63.76 44.3584 63.44C44.4704 63.104 44.5264 62.752 44.5264 62.384C44.5264 61.568 44.2784 60.944 43.7824 60.512C43.2864 60.064 42.6544 59.84 41.8864 59.84C41.3264 59.84 40.7984 59.96 40.3024 60.2C39.8224 60.44 39.4224 60.792 39.1024 61.256C39.0064 61.432 38.9104 61.616 38.8144 61.808C38.7344 61.984 38.6384 62.152 38.5264 62.312ZM56.1414 73.928C55.8534 73.928 55.5574 73.912 55.2534 73.88C54.9654 73.832 54.6774 73.752 54.3894 73.64C53.9574 73.464 53.5414 73.232 53.1414 72.944C52.7574 72.64 52.4054 72.304 52.0854 71.936C51.3174 71.072 50.7334 70.056 50.3334 68.888C49.9334 67.704 49.7334 66.504 49.7334 65.288C49.7334 63.624 50.0534 62.016 50.6934 60.464C50.8054 60.192 50.9494 59.904 51.1254 59.6C51.3174 59.296 51.5254 59.008 51.7494 58.736C51.9894 58.448 52.2294 58.192 52.4694 57.968C52.7254 57.744 52.9814 57.576 53.2374 57.464C53.5894 57.304 53.9734 57.144 54.3894 56.984C54.9014 56.824 55.4774 56.752 56.1174 56.768C56.7574 56.784 57.3414 56.856 57.8694 56.984C58.6054 57.16 59.2374 57.48 59.7654 57.944C60.2934 58.392 60.7414 58.936 61.1094 59.576C61.4774 60.2 61.7654 60.888 61.9734 61.64C62.1814 62.376 62.3334 63.128 62.4294 63.896C62.4934 64.408 62.5174 64.92 62.5014 65.432C62.4854 65.928 62.4454 66.432 62.3814 66.944C62.3174 67.408 62.2374 67.872 62.1414 68.336C62.0614 68.8 61.9494 69.248 61.8054 69.68C61.6614 70.112 61.4774 70.528 61.2534 70.928C61.0294 71.312 60.7494 71.672 60.4134 72.008C59.8054 72.6 59.1414 73.064 58.4214 73.4C57.7174 73.72 56.9574 73.896 56.1414 73.928ZM56.1174 59.936C55.8934 59.936 55.6694 59.96 55.4454 60.008C55.2374 60.04 55.0374 60.12 54.8454 60.248C54.6214 60.392 54.4214 60.568 54.2454 60.776C54.0694 60.984 53.9174 61.2 53.7894 61.424C53.4534 62 53.2214 62.616 53.0934 63.272C52.9654 63.928 52.9014 64.592 52.9014 65.264C52.9014 65.952 52.9734 66.664 53.1174 67.4C53.2774 68.136 53.5574 68.808 53.9574 69.416C54.1494 69.704 54.3734 69.96 54.6294 70.184C54.9014 70.392 55.2134 70.544 55.5654 70.64C55.8854 70.72 56.2054 70.744 56.5254 70.712C56.8614 70.68 57.1734 70.576 57.4614 70.4C57.9254 70.112 58.2934 69.728 58.5654 69.248C58.8374 68.768 59.0374 68.248 59.1654 67.688C59.3094 67.128 59.3894 66.552 59.4054 65.96C59.4374 65.368 59.4374 64.832 59.4054 64.352C59.3734 63.872 59.2934 63.368 59.1654 62.84C59.0374 62.312 58.8454 61.832 58.5894 61.4C58.3494 60.968 58.0214 60.616 57.6054 60.344C57.2054 60.056 56.7094 59.92 56.1174 59.936Z" fill="white"/>
<path id="Year19" d="M9.792 62.312C9.552 62.68 9.264 62.904 8.928 62.984C8.608 63.064 8.296 63.04 7.992 62.912C7.688 62.784 7.432 62.576 7.224 62.288C7.032 61.984 6.952 61.64 6.984 61.256C7 61 7.064 60.72 7.176 60.416C7.288 60.112 7.424 59.824 7.584 59.552C7.76 59.264 7.944 59 8.136 58.76C8.344 58.504 8.552 58.288 8.76 58.112C9.144 57.808 9.576 57.544 10.056 57.32C10.552 57.096 11.064 56.928 11.592 56.816C12.136 56.704 12.672 56.656 13.2 56.672C13.744 56.688 14.248 56.768 14.712 56.912C15.992 57.312 16.984 57.944 17.688 58.808C18.392 59.672 18.744 60.792 18.744 62.168C18.744 62.824 18.68 63.416 18.552 63.944C18.44 64.456 18.232 64.952 17.928 65.432C17.64 65.912 17.248 66.4 16.752 66.896C16.272 67.392 15.672 67.936 14.952 68.528C14.712 68.736 14.464 68.944 14.208 69.152C13.952 69.36 13.696 69.568 13.44 69.776C13.36 69.84 13.208 69.936 12.984 70.064C12.76 70.192 12.56 70.32 12.384 70.448C12.208 70.576 12.104 70.696 12.072 70.808C12.04 70.92 12.168 70.984 12.456 71C12.808 71.032 13.088 71.04 13.296 71.024C13.504 71.008 13.784 71 14.136 71C14.552 71 14.96 70.992 15.36 70.976C15.76 70.96 16.16 70.968 16.56 71C16.72 71.016 16.896 71.024 17.088 71.024C17.28 71.008 17.472 71.008 17.664 71.024C17.856 71.024 18.04 71.048 18.216 71.096C18.392 71.128 18.544 71.2 18.672 71.312C18.8 71.424 18.896 71.576 18.96 71.768C19.024 71.96 19.056 72.168 19.056 72.392C19.072 72.6 19.056 72.808 19.008 73.016C18.96 73.208 18.88 73.36 18.768 73.472C18.56 73.712 18.304 73.832 18 73.832C17.696 73.816 17.408 73.808 17.136 73.808H8.52C8.36 73.808 8.184 73.816 7.992 73.832C7.816 73.848 7.656 73.832 7.512 73.784C7.224 73.704 7.08 73.552 7.08 73.328C7.096 73.104 7.104 72.872 7.104 72.632C7.104 72.232 7.2 71.864 7.392 71.528C7.584 71.176 7.824 70.856 8.112 70.568C8.416 70.264 8.736 69.984 9.072 69.728C9.408 69.472 9.72 69.224 10.008 68.984C10.424 68.616 10.872 68.248 11.352 67.88C11.832 67.512 12.288 67.144 12.72 66.776C13.28 66.312 13.752 65.888 14.136 65.504C14.536 65.12 14.856 64.76 15.096 64.424C15.336 64.088 15.512 63.76 15.624 63.44C15.736 63.104 15.792 62.752 15.792 62.384C15.792 61.568 15.544 60.944 15.048 60.512C14.552 60.064 13.92 59.84 13.152 59.84C12.592 59.84 12.064 59.96 11.568 60.2C11.088 60.44 10.688 60.792 10.368 61.256C10.272 61.432 10.176 61.616 10.08 61.808C10 61.984 9.904 62.152 9.792 62.312ZM27.4071 73.928C27.1191 73.928 26.8231 73.912 26.5191 73.88C26.2311 73.832 25.9431 73.752 25.6551 73.64C25.2231 73.464 24.8071 73.232 24.4071 72.944C24.0231 72.64 23.6711 72.304 23.3511 71.936C22.5831 71.072 21.9991 70.056 21.5991 68.888C21.1991 67.704 20.9991 66.504 20.9991 65.288C20.9991 63.624 21.3191 62.016 21.9591 60.464C22.0711 60.192 22.2151 59.904 22.3911 59.6C22.5831 59.296 22.7911 59.008 23.0151 58.736C23.2551 58.448 23.4951 58.192 23.7351 57.968C23.9911 57.744 24.2471 57.576 24.5031 57.464C24.8551 57.304 25.2391 57.144 25.6551 56.984C26.1671 56.824 26.7431 56.752 27.3831 56.768C28.0231 56.784 28.6071 56.856 29.1351 56.984C29.8711 57.16 30.5031 57.48 31.0311 57.944C31.5591 58.392 32.0071 58.936 32.3751 59.576C32.7431 60.2 33.0311 60.888 33.2391 61.64C33.4471 62.376 33.5991 63.128 33.6951 63.896C33.7591 64.408 33.7831 64.92 33.7671 65.432C33.7511 65.928 33.7111 66.432 33.6471 66.944C33.5831 67.408 33.5031 67.872 33.4071 68.336C33.3271 68.8 33.2151 69.248 33.0711 69.68C32.9271 70.112 32.7431 70.528 32.5191 70.928C32.2951 71.312 32.0151 71.672 31.6791 72.008C31.0711 72.6 30.4071 73.064 29.6871 73.4C28.9831 73.72 28.2231 73.896 27.4071 73.928ZM27.3831 59.936C27.1591 59.936 26.9351 59.96 26.7111 60.008C26.5031 60.04 26.3031 60.12 26.1111 60.248C25.8871 60.392 25.6871 60.568 25.5111 60.776C25.3351 60.984 25.1831 61.2 25.0551 61.424C24.7191 62 24.4871 62.616 24.3591 63.272C24.2311 63.928 24.1671 64.592 24.1671 65.264C24.1671 65.952 24.2391 66.664 24.3831 67.4C24.5431 68.136 24.8231 68.808 25.2231 69.416C25.4151 69.704 25.6391 69.96 25.8951 70.184C26.1671 70.392 26.4791 70.544 26.8311 70.64C27.1511 70.72 27.4711 70.744 27.7911 70.712C28.1271 70.68 28.4391 70.576 28.7271 70.4C29.1911 70.112 29.5591 69.728 29.8311 69.248C30.1031 68.768 30.3031 68.248 30.4311 67.688C30.5751 67.128 30.6551 66.552 30.6711 65.96C30.7031 65.368 30.7031 64.832 30.6711 64.352C30.6391 63.872 30.5591 63.368 30.4311 62.84C30.3031 62.312 30.1111 61.832 29.8551 61.4C29.6151 60.968 29.2871 60.616 28.8711 60.344C28.4711 60.056 27.9751 59.92 27.3831 59.936ZM39.7264 56.672C39.8384 56.64 39.9424 56.616 40.0384 56.6C40.1344 56.568 40.2304 56.544 40.3264 56.528C40.4384 56.496 40.5744 56.48 40.7344 56.48C40.9104 56.464 41.0704 56.472 41.2144 56.504C41.3744 56.52 41.5184 56.568 41.6464 56.648C41.7904 56.712 41.8944 56.816 41.9584 56.96C42.0224 57.12 42.0624 57.312 42.0784 57.536C42.1104 57.744 42.1264 57.96 42.1264 58.184C42.1264 58.408 42.1184 58.632 42.1024 58.856C42.1024 59.064 42.1024 59.256 42.1024 59.432V71.696C42.1024 71.872 42.1024 72.056 42.1024 72.248C42.1184 72.424 42.1184 72.608 42.1024 72.8C42.0864 72.992 42.0384 73.176 41.9584 73.352C41.8784 73.512 41.7584 73.648 41.5984 73.76C41.3744 73.936 41.0704 74.024 40.6864 74.024C40.3184 74.04 39.9984 74 39.7264 73.904C39.4384 73.808 39.2624 73.624 39.1984 73.352C39.1504 73.08 39.1264 72.808 39.1264 72.536C39.0144 70.424 38.9584 68.36 38.9584 66.344C38.9744 64.312 38.9824 62.224 38.9824 60.08C38.9504 60.16 38.8384 60.232 38.6464 60.296C38.4704 60.36 38.2624 60.416 38.0224 60.464C37.7984 60.512 37.5824 60.552 37.3744 60.584C37.1664 60.616 37.0304 60.632 36.9664 60.632C36.5504 60.68 36.1664 60.64 35.8144 60.512C35.4784 60.368 35.2864 60.048 35.2384 59.552C35.1744 59.04 35.2864 58.64 35.5744 58.352C35.8784 58.064 36.2624 57.848 36.7264 57.704C37.2384 57.528 37.7344 57.352 38.2144 57.176C38.7104 56.984 39.2144 56.816 39.7264 56.672ZM51.0816 74.048C50.3456 74.048 49.6336 73.968 48.9456 73.808C48.2736 73.632 47.6576 73.296 47.0976 72.8C46.8896 72.608 46.6896 72.392 46.4976 72.152C46.3216 71.896 46.1936 71.648 46.1136 71.408C46.0496 71.152 46.0576 70.904 46.1376 70.664C46.2176 70.408 46.4176 70.184 46.7376 69.992C46.9456 69.864 47.1296 69.8 47.2896 69.8C47.4656 69.8 47.6256 69.84 47.7696 69.92C47.9296 70 48.0736 70.112 48.2016 70.256C48.3456 70.384 48.4896 70.512 48.6336 70.64C49.0016 70.944 49.3936 71.144 49.8096 71.24C50.2416 71.336 50.6896 71.384 51.1536 71.384C51.6816 71.384 52.1696 71.256 52.6176 71C53.0656 70.744 53.4416 70.408 53.7456 69.992C54.0656 69.576 54.2976 69.104 54.4416 68.576C54.5856 68.048 54.6176 67.52 54.5376 66.992C54.0736 67.264 53.5456 67.48 52.9536 67.64C52.3616 67.784 51.7936 67.856 51.2496 67.856C50.3856 67.856 49.6016 67.736 48.8976 67.496C48.2096 67.24 47.6176 66.888 47.1216 66.44C46.6256 65.976 46.2416 65.416 45.9696 64.76C45.6976 64.104 45.5616 63.376 45.5616 62.576C45.5616 61.744 45.7056 60.976 45.9936 60.272C46.2816 59.552 46.6896 58.936 47.2176 58.424C47.7456 57.896 48.3776 57.488 49.1136 57.2C49.8496 56.896 50.6656 56.744 51.5616 56.744C52.5856 56.744 53.4416 56.896 54.1296 57.2C54.8336 57.488 55.4736 57.928 56.0496 58.52C56.6416 59.144 57.0736 59.96 57.3456 60.968C57.6336 61.976 57.7776 63.304 57.7776 64.952C57.7776 66.296 57.6256 67.528 57.3216 68.648C57.0336 69.768 56.6096 70.728 56.0496 71.528C55.4896 72.328 54.7856 72.952 53.9376 73.4C53.1056 73.832 52.1536 74.048 51.0816 74.048ZM51.6336 59.648C51.3456 59.632 51.0576 59.648 50.7696 59.696C50.4976 59.728 50.2496 59.784 50.0256 59.864C49.5936 60.04 49.2496 60.328 48.9936 60.728C48.7376 61.112 48.5776 61.536 48.5136 62C48.4496 62.464 48.4816 62.928 48.6096 63.392C48.7536 63.856 49.0016 64.24 49.3536 64.544C49.6576 64.832 50.0176 65.024 50.4336 65.12C50.8496 65.216 51.2656 65.24 51.6816 65.192C52.1136 65.144 52.5216 65.024 52.9056 64.832C53.2896 64.64 53.6096 64.392 53.8656 64.088C54.1216 63.784 54.2896 63.464 54.3696 63.128C54.4656 62.776 54.4816 62.432 54.4176 62.096C54.3696 61.744 54.2576 61.416 54.0816 61.112C53.9056 60.792 53.6896 60.512 53.4336 60.272C53.2096 60.096 52.9376 59.96 52.6176 59.864C52.3136 59.752 51.9856 59.68 51.6336 59.648Z" fill="white"/>
<path id="Year18" d="M9.792 62.312C9.552 62.68 9.264 62.904 8.928 62.984C8.608 63.064 8.296 63.04 7.992 62.912C7.688 62.784 7.432 62.576 7.224 62.288C7.032 61.984 6.952 61.64 6.984 61.256C7 61 7.064 60.72 7.176 60.416C7.288 60.112 7.424 59.824 7.584 59.552C7.76 59.264 7.944 59 8.136 58.76C8.344 58.504 8.552 58.288 8.76 58.112C9.144 57.808 9.576 57.544 10.056 57.32C10.552 57.096 11.064 56.928 11.592 56.816C12.136 56.704 12.672 56.656 13.2 56.672C13.744 56.688 14.248 56.768 14.712 56.912C15.992 57.312 16.984 57.944 17.688 58.808C18.392 59.672 18.744 60.792 18.744 62.168C18.744 62.824 18.68 63.416 18.552 63.944C18.44 64.456 18.232 64.952 17.928 65.432C17.64 65.912 17.248 66.4 16.752 66.896C16.272 67.392 15.672 67.936 14.952 68.528C14.712 68.736 14.464 68.944 14.208 69.152C13.952 69.36 13.696 69.568 13.44 69.776C13.36 69.84 13.208 69.936 12.984 70.064C12.76 70.192 12.56 70.32 12.384 70.448C12.208 70.576 12.104 70.696 12.072 70.808C12.04 70.92 12.168 70.984 12.456 71C12.808 71.032 13.088 71.04 13.296 71.024C13.504 71.008 13.784 71 14.136 71C14.552 71 14.96 70.992 15.36 70.976C15.76 70.96 16.16 70.968 16.56 71C16.72 71.016 16.896 71.024 17.088 71.024C17.28 71.008 17.472 71.008 17.664 71.024C17.856 71.024 18.04 71.048 18.216 71.096C18.392 71.128 18.544 71.2 18.672 71.312C18.8 71.424 18.896 71.576 18.96 71.768C19.024 71.96 19.056 72.168 19.056 72.392C19.072 72.6 19.056 72.808 19.008 73.016C18.96 73.208 18.88 73.36 18.768 73.472C18.56 73.712 18.304 73.832 18 73.832C17.696 73.816 17.408 73.808 17.136 73.808H8.52C8.36 73.808 8.184 73.816 7.992 73.832C7.816 73.848 7.656 73.832 7.512 73.784C7.224 73.704 7.08 73.552 7.08 73.328C7.096 73.104 7.104 72.872 7.104 72.632C7.104 72.232 7.2 71.864 7.392 71.528C7.584 71.176 7.824 70.856 8.112 70.568C8.416 70.264 8.736 69.984 9.072 69.728C9.408 69.472 9.72 69.224 10.008 68.984C10.424 68.616 10.872 68.248 11.352 67.88C11.832 67.512 12.288 67.144 12.72 66.776C13.28 66.312 13.752 65.888 14.136 65.504C14.536 65.12 14.856 64.76 15.096 64.424C15.336 64.088 15.512 63.76 15.624 63.44C15.736 63.104 15.792 62.752 15.792 62.384C15.792 61.568 15.544 60.944 15.048 60.512C14.552 60.064 13.92 59.84 13.152 59.84C12.592 59.84 12.064 59.96 11.568 60.2C11.088 60.44 10.688 60.792 10.368 61.256C10.272 61.432 10.176 61.616 10.08 61.808C10 61.984 9.904 62.152 9.792 62.312ZM27.4071 73.928C27.1191 73.928 26.8231 73.912 26.5191 73.88C26.2311 73.832 25.9431 73.752 25.6551 73.64C25.2231 73.464 24.8071 73.232 24.4071 72.944C24.0231 72.64 23.6711 72.304 23.3511 71.936C22.5831 71.072 21.9991 70.056 21.5991 68.888C21.1991 67.704 20.9991 66.504 20.9991 65.288C20.9991 63.624 21.3191 62.016 21.9591 60.464C22.0711 60.192 22.2151 59.904 22.3911 59.6C22.5831 59.296 22.7911 59.008 23.0151 58.736C23.2551 58.448 23.4951 58.192 23.7351 57.968C23.9911 57.744 24.2471 57.576 24.5031 57.464C24.8551 57.304 25.2391 57.144 25.6551 56.984C26.1671 56.824 26.7431 56.752 27.3831 56.768C28.0231 56.784 28.6071 56.856 29.1351 56.984C29.8711 57.16 30.5031 57.48 31.0311 57.944C31.5591 58.392 32.0071 58.936 32.3751 59.576C32.7431 60.2 33.0311 60.888 33.2391 61.64C33.4471 62.376 33.5991 63.128 33.6951 63.896C33.7591 64.408 33.7831 64.92 33.7671 65.432C33.7511 65.928 33.7111 66.432 33.6471 66.944C33.5831 67.408 33.5031 67.872 33.4071 68.336C33.3271 68.8 33.2151 69.248 33.0711 69.68C32.9271 70.112 32.7431 70.528 32.5191 70.928C32.2951 71.312 32.0151 71.672 31.6791 72.008C31.0711 72.6 30.4071 73.064 29.6871 73.4C28.9831 73.72 28.2231 73.896 27.4071 73.928ZM27.3831 59.936C27.1591 59.936 26.9351 59.96 26.7111 60.008C26.5031 60.04 26.3031 60.12 26.1111 60.248C25.8871 60.392 25.6871 60.568 25.5111 60.776C25.3351 60.984 25.1831 61.2 25.0551 61.424C24.7191 62 24.4871 62.616 24.3591 63.272C24.2311 63.928 24.1671 64.592 24.1671 65.264C24.1671 65.952 24.2391 66.664 24.3831 67.4C24.5431 68.136 24.8231 68.808 25.2231 69.416C25.4151 69.704 25.6391 69.96 25.8951 70.184C26.1671 70.392 26.4791 70.544 26.8311 70.64C27.1511 70.72 27.4711 70.744 27.7911 70.712C28.1271 70.68 28.4391 70.576 28.7271 70.4C29.1911 70.112 29.5591 69.728 29.8311 69.248C30.1031 68.768 30.3031 68.248 30.4311 67.688C30.5751 67.128 30.6551 66.552 30.6711 65.96C30.7031 65.368 30.7031 64.832 30.6711 64.352C30.6391 63.872 30.5591 63.368 30.4311 62.84C30.3031 62.312 30.1111 61.832 29.8551 61.4C29.6151 60.968 29.2871 60.616 28.8711 60.344C28.4711 60.056 27.9751 59.92 27.3831 59.936ZM39.7264 56.672C39.8384 56.64 39.9424 56.616 40.0384 56.6C40.1344 56.568 40.2304 56.544 40.3264 56.528C40.4384 56.496 40.5744 56.48 40.7344 56.48C40.9104 56.464 41.0704 56.472 41.2144 56.504C41.3744 56.52 41.5184 56.568 41.6464 56.648C41.7904 56.712 41.8944 56.816 41.9584 56.96C42.0224 57.12 42.0624 57.312 42.0784 57.536C42.1104 57.744 42.1264 57.96 42.1264 58.184C42.1264 58.408 42.1184 58.632 42.1024 58.856C42.1024 59.064 42.1024 59.256 42.1024 59.432V71.696C42.1024 71.872 42.1024 72.056 42.1024 72.248C42.1184 72.424 42.1184 72.608 42.1024 72.8C42.0864 72.992 42.0384 73.176 41.9584 73.352C41.8784 73.512 41.7584 73.648 41.5984 73.76C41.3744 73.936 41.0704 74.024 40.6864 74.024C40.3184 74.04 39.9984 74 39.7264 73.904C39.4384 73.808 39.2624 73.624 39.1984 73.352C39.1504 73.08 39.1264 72.808 39.1264 72.536C39.0144 70.424 38.9584 68.36 38.9584 66.344C38.9744 64.312 38.9824 62.224 38.9824 60.08C38.9504 60.16 38.8384 60.232 38.6464 60.296C38.4704 60.36 38.2624 60.416 38.0224 60.464C37.7984 60.512 37.5824 60.552 37.3744 60.584C37.1664 60.616 37.0304 60.632 36.9664 60.632C36.5504 60.68 36.1664 60.64 35.8144 60.512C35.4784 60.368 35.2864 60.048 35.2384 59.552C35.1744 59.04 35.2864 58.64 35.5744 58.352C35.8784 58.064 36.2624 57.848 36.7264 57.704C37.2384 57.528 37.7344 57.352 38.2144 57.176C38.7104 56.984 39.2144 56.816 39.7264 56.672ZM51.6336 73.976C51.1536 73.976 50.6576 73.952 50.1456 73.904C49.6496 73.856 49.1616 73.76 48.6816 73.616C48.2176 73.456 47.7776 73.24 47.3616 72.968C46.9616 72.696 46.6256 72.344 46.3536 71.912C46.0496 71.448 45.8336 70.952 45.7056 70.424C45.5936 69.88 45.5536 69.328 45.5856 68.768C45.6656 67.904 45.9536 67.168 46.4496 66.56C46.9616 65.952 47.6016 65.488 48.3696 65.168C48.3056 65.168 48.2016 65.128 48.0576 65.048C47.9296 64.968 47.7936 64.872 47.6496 64.76C47.5056 64.648 47.3696 64.544 47.2416 64.448C47.1296 64.336 47.0496 64.264 47.0016 64.232C46.8096 64.024 46.6496 63.784 46.5216 63.512C46.4096 63.24 46.3136 62.968 46.2336 62.696C46.0256 61.976 46.0016 61.224 46.1616 60.44C46.3216 59.64 46.6496 58.944 47.1456 58.352C47.3536 58.096 47.6176 57.872 47.9376 57.68C48.2576 57.472 48.6016 57.304 48.9696 57.176C49.3376 57.032 49.7056 56.92 50.0736 56.84C50.4576 56.76 50.8016 56.72 51.1056 56.72C51.5216 56.72 51.9296 56.712 52.3296 56.696C52.7296 56.68 53.1296 56.704 53.5296 56.768C54.0256 56.848 54.4816 57.008 54.8976 57.248C55.3296 57.488 55.7056 57.784 56.0256 58.136C56.6656 58.84 57.0736 59.632 57.2496 60.512C57.4416 61.376 57.4176 62.264 57.1776 63.176C57.0976 63.432 56.9776 63.672 56.8176 63.896C56.6576 64.104 56.4736 64.304 56.2656 64.496C56.2176 64.528 56.1376 64.584 56.0256 64.664C55.9136 64.744 55.7856 64.832 55.6416 64.928C55.5136 65.008 55.3856 65.08 55.2576 65.144C55.1296 65.192 55.0336 65.208 54.9696 65.192C55.3536 65.432 55.7216 65.672 56.0736 65.912C56.4256 66.136 56.7136 66.456 56.9376 66.872C57.1616 67.288 57.3216 67.728 57.4176 68.192C57.5296 68.656 57.5696 69.12 57.5376 69.584C57.5216 70.048 57.4336 70.504 57.2736 70.952C57.1136 71.384 56.8816 71.776 56.5776 72.128C56.2736 72.48 55.9216 72.776 55.5216 73.016C55.1376 73.24 54.7296 73.424 54.2976 73.568C53.8656 73.712 53.4176 73.816 52.9536 73.88C52.5056 73.944 52.0656 73.976 51.6336 73.976ZM51.6816 66.968C51.3296 66.984 50.9696 67.032 50.6016 67.112C50.2496 67.192 49.9216 67.32 49.6176 67.496C49.3296 67.656 49.0816 67.88 48.8736 68.168C48.6656 68.44 48.5376 68.784 48.4896 69.2C48.4576 69.52 48.4976 69.808 48.6096 70.064C48.7376 70.304 48.8976 70.52 49.0896 70.712C49.2976 70.888 49.5376 71.032 49.8096 71.144C50.0816 71.24 50.3536 71.304 50.6256 71.336C51.2656 71.432 51.8816 71.424 52.4736 71.312C52.6976 71.264 52.9056 71.224 53.0976 71.192C53.3056 71.144 53.4896 71.08 53.6496 71C53.8256 70.92 53.9776 70.816 54.1056 70.688C54.2496 70.544 54.3696 70.352 54.4656 70.112C54.6096 69.776 54.6656 69.4 54.6336 68.984C54.6176 68.552 54.4896 68.2 54.2496 67.928C53.8976 67.512 53.5056 67.24 53.0736 67.112C52.6576 66.984 52.1936 66.936 51.6816 66.968ZM51.7056 59.36C51.3376 59.392 50.9856 59.448 50.6496 59.528C50.3136 59.608 50.0176 59.736 49.7616 59.912C49.5056 60.088 49.3056 60.32 49.1616 60.608C49.0336 60.896 48.9776 61.256 48.9936 61.688C49.0096 61.992 49.0576 62.28 49.1376 62.552C49.2176 62.808 49.3696 63.048 49.5936 63.272C49.8656 63.592 50.1936 63.784 50.5776 63.848C50.9616 63.896 51.3456 63.912 51.7296 63.896C52.3216 63.896 52.8336 63.808 53.2656 63.632C53.7136 63.456 54.0736 63.08 54.3456 62.504C54.5536 62.04 54.6096 61.608 54.5136 61.208C54.4176 60.808 54.2336 60.472 53.9616 60.2C53.6896 59.912 53.3456 59.696 52.9296 59.552C52.5296 59.392 52.1216 59.328 51.7056 59.36Z" fill="white"/>
<path id="Year17" d="M9.792 62.312C9.552 62.68 9.264 62.904 8.928 62.984C8.608 63.064 8.296 63.04 7.992 62.912C7.688 62.784 7.432 62.576 7.224 62.288C7.032 61.984 6.952 61.64 6.984 61.256C7 61 7.064 60.72 7.176 60.416C7.288 60.112 7.424 59.824 7.584 59.552C7.76 59.264 7.944 59 8.136 58.76C8.344 58.504 8.552 58.288 8.76 58.112C9.144 57.808 9.576 57.544 10.056 57.32C10.552 57.096 11.064 56.928 11.592 56.816C12.136 56.704 12.672 56.656 13.2 56.672C13.744 56.688 14.248 56.768 14.712 56.912C15.992 57.312 16.984 57.944 17.688 58.808C18.392 59.672 18.744 60.792 18.744 62.168C18.744 62.824 18.68 63.416 18.552 63.944C18.44 64.456 18.232 64.952 17.928 65.432C17.64 65.912 17.248 66.4 16.752 66.896C16.272 67.392 15.672 67.936 14.952 68.528C14.712 68.736 14.464 68.944 14.208 69.152C13.952 69.36 13.696 69.568 13.44 69.776C13.36 69.84 13.208 69.936 12.984 70.064C12.76 70.192 12.56 70.32 12.384 70.448C12.208 70.576 12.104 70.696 12.072 70.808C12.04 70.92 12.168 70.984 12.456 71C12.808 71.032 13.088 71.04 13.296 71.024C13.504 71.008 13.784 71 14.136 71C14.552 71 14.96 70.992 15.36 70.976C15.76 70.96 16.16 70.968 16.56 71C16.72 71.016 16.896 71.024 17.088 71.024C17.28 71.008 17.472 71.008 17.664 71.024C17.856 71.024 18.04 71.048 18.216 71.096C18.392 71.128 18.544 71.2 18.672 71.312C18.8 71.424 18.896 71.576 18.96 71.768C19.024 71.96 19.056 72.168 19.056 72.392C19.072 72.6 19.056 72.808 19.008 73.016C18.96 73.208 18.88 73.36 18.768 73.472C18.56 73.712 18.304 73.832 18 73.832C17.696 73.816 17.408 73.808 17.136 73.808H8.52C8.36 73.808 8.184 73.816 7.992 73.832C7.816 73.848 7.656 73.832 7.512 73.784C7.224 73.704 7.08 73.552 7.08 73.328C7.096 73.104 7.104 72.872 7.104 72.632C7.104 72.232 7.2 71.864 7.392 71.528C7.584 71.176 7.824 70.856 8.112 70.568C8.416 70.264 8.736 69.984 9.072 69.728C9.408 69.472 9.72 69.224 10.008 68.984C10.424 68.616 10.872 68.248 11.352 67.88C11.832 67.512 12.288 67.144 12.72 66.776C13.28 66.312 13.752 65.888 14.136 65.504C14.536 65.12 14.856 64.76 15.096 64.424C15.336 64.088 15.512 63.76 15.624 63.44C15.736 63.104 15.792 62.752 15.792 62.384C15.792 61.568 15.544 60.944 15.048 60.512C14.552 60.064 13.92 59.84 13.152 59.84C12.592 59.84 12.064 59.96 11.568 60.2C11.088 60.44 10.688 60.792 10.368 61.256C10.272 61.432 10.176 61.616 10.08 61.808C10 61.984 9.904 62.152 9.792 62.312ZM27.4071 73.928C27.1191 73.928 26.8231 73.912 26.5191 73.88C26.2311 73.832 25.9431 73.752 25.6551 73.64C25.2231 73.464 24.8071 73.232 24.4071 72.944C24.0231 72.64 23.6711 72.304 23.3511 71.936C22.5831 71.072 21.9991 70.056 21.5991 68.888C21.1991 67.704 20.9991 66.504 20.9991 65.288C20.9991 63.624 21.3191 62.016 21.9591 60.464C22.0711 60.192 22.2151 59.904 22.3911 59.6C22.5831 59.296 22.7911 59.008 23.0151 58.736C23.2551 58.448 23.4951 58.192 23.7351 57.968C23.9911 57.744 24.2471 57.576 24.5031 57.464C24.8551 57.304 25.2391 57.144 25.6551 56.984C26.1671 56.824 26.7431 56.752 27.3831 56.768C28.0231 56.784 28.6071 56.856 29.1351 56.984C29.8711 57.16 30.5031 57.48 31.0311 57.944C31.5591 58.392 32.0071 58.936 32.3751 59.576C32.7431 60.2 33.0311 60.888 33.2391 61.64C33.4471 62.376 33.5991 63.128 33.6951 63.896C33.7591 64.408 33.7831 64.92 33.7671 65.432C33.7511 65.928 33.7111 66.432 33.6471 66.944C33.5831 67.408 33.5031 67.872 33.4071 68.336C33.3271 68.8 33.2151 69.248 33.0711 69.68C32.9271 70.112 32.7431 70.528 32.5191 70.928C32.2951 71.312 32.0151 71.672 31.6791 72.008C31.0711 72.6 30.4071 73.064 29.6871 73.4C28.9831 73.72 28.2231 73.896 27.4071 73.928ZM27.3831 59.936C27.1591 59.936 26.9351 59.96 26.7111 60.008C26.5031 60.04 26.3031 60.12 26.1111 60.248C25.8871 60.392 25.6871 60.568 25.5111 60.776C25.3351 60.984 25.1831 61.2 25.0551 61.424C24.7191 62 24.4871 62.616 24.3591 63.272C24.2311 63.928 24.1671 64.592 24.1671 65.264C24.1671 65.952 24.2391 66.664 24.3831 67.4C24.5431 68.136 24.8231 68.808 25.2231 69.416C25.4151 69.704 25.6391 69.96 25.8951 70.184C26.1671 70.392 26.4791 70.544 26.8311 70.64C27.1511 70.72 27.4711 70.744 27.7911 70.712C28.1271 70.68 28.4391 70.576 28.7271 70.4C29.1911 70.112 29.5591 69.728 29.8311 69.248C30.1031 68.768 30.3031 68.248 30.4311 67.688C30.5751 67.128 30.6551 66.552 30.6711 65.96C30.7031 65.368 30.7031 64.832 30.6711 64.352C30.6391 63.872 30.5591 63.368 30.4311 62.84C30.3031 62.312 30.1111 61.832 29.8551 61.4C29.6151 60.968 29.2871 60.616 28.8711 60.344C28.4711 60.056 27.9751 59.92 27.3831 59.936ZM39.7264 56.672C39.8384 56.64 39.9424 56.616 40.0384 56.6C40.1344 56.568 40.2304 56.544 40.3264 56.528C40.4384 56.496 40.5744 56.48 40.7344 56.48C40.9104 56.464 41.0704 56.472 41.2144 56.504C41.3744 56.52 41.5184 56.568 41.6464 56.648C41.7904 56.712 41.8944 56.816 41.9584 56.96C42.0224 57.12 42.0624 57.312 42.0784 57.536C42.1104 57.744 42.1264 57.96 42.1264 58.184C42.1264 58.408 42.1184 58.632 42.1024 58.856C42.1024 59.064 42.1024 59.256 42.1024 59.432V71.696C42.1024 71.872 42.1024 72.056 42.1024 72.248C42.1184 72.424 42.1184 72.608 42.1024 72.8C42.0864 72.992 42.0384 73.176 41.9584 73.352C41.8784 73.512 41.7584 73.648 41.5984 73.76C41.3744 73.936 41.0704 74.024 40.6864 74.024C40.3184 74.04 39.9984 74 39.7264 73.904C39.4384 73.808 39.2624 73.624 39.1984 73.352C39.1504 73.08 39.1264 72.808 39.1264 72.536C39.0144 70.424 38.9584 68.36 38.9584 66.344C38.9744 64.312 38.9824 62.224 38.9824 60.08C38.9504 60.16 38.8384 60.232 38.6464 60.296C38.4704 60.36 38.2624 60.416 38.0224 60.464C37.7984 60.512 37.5824 60.552 37.3744 60.584C37.1664 60.616 37.0304 60.632 36.9664 60.632C36.5504 60.68 36.1664 60.64 35.8144 60.512C35.4784 60.368 35.2864 60.048 35.2384 59.552C35.1744 59.04 35.2864 58.64 35.5744 58.352C35.8784 58.064 36.2624 57.848 36.7264 57.704C37.2384 57.528 37.7344 57.352 38.2144 57.176C38.7104 56.984 39.2144 56.816 39.7264 56.672ZM46.0896 57.176C46.2816 57.08 46.4976 57.024 46.7376 57.008C46.9776 56.976 47.2336 56.96 47.5056 56.96H56.1936C56.4176 56.96 56.6576 56.952 56.9136 56.936C57.1696 56.92 57.4016 56.968 57.6096 57.08C57.8976 57.24 58.0656 57.496 58.1136 57.848C58.1616 58.184 58.1296 58.568 58.0176 59C57.9216 59.416 57.7696 59.864 57.5616 60.344C57.3536 60.808 57.1376 61.256 56.9136 61.688C56.6896 62.104 56.4736 62.488 56.2656 62.84C56.0576 63.176 55.9136 63.432 55.8336 63.608C55.5776 64.088 55.3376 64.528 55.1136 64.928C54.9056 65.328 54.6976 65.728 54.4896 66.128C54.2976 66.528 54.0896 66.928 53.8656 67.328C53.6576 67.728 53.4256 68.168 53.1696 68.648C52.8496 69.304 52.4816 69.992 52.0656 70.712C51.6656 71.416 51.2816 72.08 50.9136 72.704C50.8016 72.896 50.6736 73.088 50.5296 73.28C50.3856 73.472 50.2176 73.632 50.0256 73.76C49.8496 73.888 49.6416 73.968 49.4016 74C49.1776 74.032 48.9296 73.984 48.6576 73.856C48.2416 73.632 47.9696 73.304 47.8416 72.872C47.7296 72.44 47.7696 72.04 47.9616 71.672C48.2656 71.128 48.5616 70.584 48.8496 70.04C49.1376 69.48 49.4256 68.928 49.7136 68.384C50.1456 67.568 50.5456 66.784 50.9136 66.032C51.2976 65.28 51.7056 64.496 52.1376 63.68C52.2656 63.44 52.4416 63.152 52.6656 62.816C52.8896 62.464 53.0976 62.104 53.2896 61.736C53.4976 61.368 53.6576 61.008 53.7696 60.656C53.8976 60.288 53.9376 59.968 53.8896 59.696C53.3296 59.648 52.8176 59.632 52.3536 59.648C51.9056 59.648 51.4096 59.648 50.8656 59.648H48.5376C48.2496 59.648 47.9376 59.656 47.6016 59.672C47.2816 59.688 46.9776 59.672 46.6896 59.624C46.4016 59.56 46.1536 59.44 45.9456 59.264C45.7536 59.088 45.6336 58.8 45.5856 58.4C45.5536 58.064 45.5856 57.8 45.6816 57.608C45.7776 57.416 45.9136 57.272 46.0896 57.176Z" fill="white"/>
<path id="Year16" d="M9.792 62.312C9.552 62.68 9.264 62.904 8.928 62.984C8.608 63.064 8.296 63.04 7.992 62.912C7.688 62.784 7.432 62.576 7.224 62.288C7.032 61.984 6.952 61.64 6.984 61.256C7 61 7.064 60.72 7.176 60.416C7.288 60.112 7.424 59.824 7.584 59.552C7.76 59.264 7.944 59 8.136 58.76C8.344 58.504 8.552 58.288 8.76 58.112C9.144 57.808 9.576 57.544 10.056 57.32C10.552 57.096 11.064 56.928 11.592 56.816C12.136 56.704 12.672 56.656 13.2 56.672C13.744 56.688 14.248 56.768 14.712 56.912C15.992 57.312 16.984 57.944 17.688 58.808C18.392 59.672 18.744 60.792 18.744 62.168C18.744 62.824 18.68 63.416 18.552 63.944C18.44 64.456 18.232 64.952 17.928 65.432C17.64 65.912 17.248 66.4 16.752 66.896C16.272 67.392 15.672 67.936 14.952 68.528C14.712 68.736 14.464 68.944 14.208 69.152C13.952 69.36 13.696 69.568 13.44 69.776C13.36 69.84 13.208 69.936 12.984 70.064C12.76 70.192 12.56 70.32 12.384 70.448C12.208 70.576 12.104 70.696 12.072 70.808C12.04 70.92 12.168 70.984 12.456 71C12.808 71.032 13.088 71.04 13.296 71.024C13.504 71.008 13.784 71 14.136 71C14.552 71 14.96 70.992 15.36 70.976C15.76 70.96 16.16 70.968 16.56 71C16.72 71.016 16.896 71.024 17.088 71.024C17.28 71.008 17.472 71.008 17.664 71.024C17.856 71.024 18.04 71.048 18.216 71.096C18.392 71.128 18.544 71.2 18.672 71.312C18.8 71.424 18.896 71.576 18.96 71.768C19.024 71.96 19.056 72.168 19.056 72.392C19.072 72.6 19.056 72.808 19.008 73.016C18.96 73.208 18.88 73.36 18.768 73.472C18.56 73.712 18.304 73.832 18 73.832C17.696 73.816 17.408 73.808 17.136 73.808H8.52C8.36 73.808 8.184 73.816 7.992 73.832C7.816 73.848 7.656 73.832 7.512 73.784C7.224 73.704 7.08 73.552 7.08 73.328C7.096 73.104 7.104 72.872 7.104 72.632C7.104 72.232 7.2 71.864 7.392 71.528C7.584 71.176 7.824 70.856 8.112 70.568C8.416 70.264 8.736 69.984 9.072 69.728C9.408 69.472 9.72 69.224 10.008 68.984C10.424 68.616 10.872 68.248 11.352 67.88C11.832 67.512 12.288 67.144 12.72 66.776C13.28 66.312 13.752 65.888 14.136 65.504C14.536 65.12 14.856 64.76 15.096 64.424C15.336 64.088 15.512 63.76 15.624 63.44C15.736 63.104 15.792 62.752 15.792 62.384C15.792 61.568 15.544 60.944 15.048 60.512C14.552 60.064 13.92 59.84 13.152 59.84C12.592 59.84 12.064 59.96 11.568 60.2C11.088 60.44 10.688 60.792 10.368 61.256C10.272 61.432 10.176 61.616 10.08 61.808C10 61.984 9.904 62.152 9.792 62.312ZM27.4071 73.928C27.1191 73.928 26.8231 73.912 26.5191 73.88C26.2311 73.832 25.9431 73.752 25.6551 73.64C25.2231 73.464 24.8071 73.232 24.4071 72.944C24.0231 72.64 23.6711 72.304 23.3511 71.936C22.5831 71.072 21.9991 70.056 21.5991 68.888C21.1991 67.704 20.9991 66.504 20.9991 65.288C20.9991 63.624 21.3191 62.016 21.9591 60.464C22.0711 60.192 22.2151 59.904 22.3911 59.6C22.5831 59.296 22.7911 59.008 23.0151 58.736C23.2551 58.448 23.4951 58.192 23.7351 57.968C23.9911 57.744 24.2471 57.576 24.5031 57.464C24.8551 57.304 25.2391 57.144 25.6551 56.984C26.1671 56.824 26.7431 56.752 27.3831 56.768C28.0231 56.784 28.6071 56.856 29.1351 56.984C29.8711 57.16 30.5031 57.48 31.0311 57.944C31.5591 58.392 32.0071 58.936 32.3751 59.576C32.7431 60.2 33.0311 60.888 33.2391 61.64C33.4471 62.376 33.5991 63.128 33.6951 63.896C33.7591 64.408 33.7831 64.92 33.7671 65.432C33.7511 65.928 33.7111 66.432 33.6471 66.944C33.5831 67.408 33.5031 67.872 33.4071 68.336C33.3271 68.8 33.2151 69.248 33.0711 69.68C32.9271 70.112 32.7431 70.528 32.5191 70.928C32.2951 71.312 32.0151 71.672 31.6791 72.008C31.0711 72.6 30.4071 73.064 29.6871 73.4C28.9831 73.72 28.2231 73.896 27.4071 73.928ZM27.3831 59.936C27.1591 59.936 26.9351 59.96 26.7111 60.008C26.5031 60.04 26.3031 60.12 26.1111 60.248C25.8871 60.392 25.6871 60.568 25.5111 60.776C25.3351 60.984 25.1831 61.2 25.0551 61.424C24.7191 62 24.4871 62.616 24.3591 63.272C24.2311 63.928 24.1671 64.592 24.1671 65.264C24.1671 65.952 24.2391 66.664 24.3831 67.4C24.5431 68.136 24.8231 68.808 25.2231 69.416C25.4151 69.704 25.6391 69.96 25.8951 70.184C26.1671 70.392 26.4791 70.544 26.8311 70.64C27.1511 70.72 27.4711 70.744 27.7911 70.712C28.1271 70.68 28.4391 70.576 28.7271 70.4C29.1911 70.112 29.5591 69.728 29.8311 69.248C30.1031 68.768 30.3031 68.248 30.4311 67.688C30.5751 67.128 30.6551 66.552 30.6711 65.96C30.7031 65.368 30.7031 64.832 30.6711 64.352C30.6391 63.872 30.5591 63.368 30.4311 62.84C30.3031 62.312 30.1111 61.832 29.8551 61.4C29.6151 60.968 29.2871 60.616 28.8711 60.344C28.4711 60.056 27.9751 59.92 27.3831 59.936ZM39.7264 56.672C39.8384 56.64 39.9424 56.616 40.0384 56.6C40.1344 56.568 40.2304 56.544 40.3264 56.528C40.4384 56.496 40.5744 56.48 40.7344 56.48C40.9104 56.464 41.0704 56.472 41.2144 56.504C41.3744 56.52 41.5184 56.568 41.6464 56.648C41.7904 56.712 41.8944 56.816 41.9584 56.96C42.0224 57.12 42.0624 57.312 42.0784 57.536C42.1104 57.744 42.1264 57.96 42.1264 58.184C42.1264 58.408 42.1184 58.632 42.1024 58.856C42.1024 59.064 42.1024 59.256 42.1024 59.432V71.696C42.1024 71.872 42.1024 72.056 42.1024 72.248C42.1184 72.424 42.1184 72.608 42.1024 72.8C42.0864 72.992 42.0384 73.176 41.9584 73.352C41.8784 73.512 41.7584 73.648 41.5984 73.76C41.3744 73.936 41.0704 74.024 40.6864 74.024C40.3184 74.04 39.9984 74 39.7264 73.904C39.4384 73.808 39.2624 73.624 39.1984 73.352C39.1504 73.08 39.1264 72.808 39.1264 72.536C39.0144 70.424 38.9584 68.36 38.9584 66.344C38.9744 64.312 38.9824 62.224 38.9824 60.08C38.9504 60.16 38.8384 60.232 38.6464 60.296C38.4704 60.36 38.2624 60.416 38.0224 60.464C37.7984 60.512 37.5824 60.552 37.3744 60.584C37.1664 60.616 37.0304 60.632 36.9664 60.632C36.5504 60.68 36.1664 60.64 35.8144 60.512C35.4784 60.368 35.2864 60.048 35.2384 59.552C35.1744 59.04 35.2864 58.64 35.5744 58.352C35.8784 58.064 36.2624 57.848 36.7264 57.704C37.2384 57.528 37.7344 57.352 38.2144 57.176C38.7104 56.984 39.2144 56.816 39.7264 56.672ZM55.8096 60.608C55.6656 60.512 55.5136 60.416 55.3536 60.32C55.1936 60.208 55.0256 60.12 54.8496 60.056C54.2896 59.832 53.6736 59.712 53.0016 59.696C52.3456 59.664 51.7296 59.784 51.1536 60.056C50.6896 60.28 50.2976 60.56 49.9776 60.896C49.6736 61.232 49.4256 61.608 49.2336 62.024C49.0416 62.44 48.8976 62.88 48.8016 63.344C48.7056 63.808 48.6496 64.272 48.6336 64.736C49.0656 64.304 49.5936 63.92 50.2176 63.584C50.8416 63.232 51.6416 63.056 52.6176 63.056C53.4336 63.056 54.1936 63.176 54.8976 63.416C55.6176 63.64 56.2416 63.976 56.7696 64.424C57.2976 64.872 57.7136 65.424 58.0176 66.08C58.3216 66.736 58.4736 67.488 58.4736 68.336C58.4736 69.184 58.3136 69.96 57.9936 70.664C57.6736 71.352 57.2336 71.952 56.6736 72.464C56.1296 72.96 55.4736 73.352 54.7056 73.64C53.9536 73.912 53.1376 74.048 52.2576 74.048C51.2336 74.048 50.3376 73.896 49.5696 73.592C48.8176 73.272 48.1616 72.84 47.6016 72.296C47.2816 71.976 46.9936 71.624 46.7376 71.24C46.4976 70.84 46.2896 70.392 46.1136 69.896C45.9376 69.384 45.8016 68.8 45.7056 68.144C45.6096 67.488 45.5616 66.736 45.5616 65.888C45.5616 65.184 45.6096 64.472 45.7056 63.752C45.8016 63.032 45.9616 62.336 46.1856 61.664C46.4256 60.992 46.7376 60.36 47.1216 59.768C47.5056 59.176 47.9856 58.648 48.5616 58.184C49.1056 57.752 49.6976 57.416 50.3376 57.176C50.9776 56.936 51.6336 56.8 52.3056 56.768C52.9776 56.736 53.6496 56.8 54.3216 56.96C54.9936 57.12 55.6256 57.384 56.2176 57.752C56.3776 57.848 56.5616 57.992 56.7696 58.184C56.9776 58.36 57.1536 58.56 57.2976 58.784C57.4416 59.008 57.5296 59.264 57.5616 59.552C57.5936 59.824 57.5136 60.104 57.3216 60.392C57.2896 60.456 57.2176 60.52 57.1056 60.584C56.9936 60.648 56.8656 60.696 56.7216 60.728C56.5776 60.76 56.4256 60.768 56.2656 60.752C56.1056 60.736 55.9536 60.688 55.8096 60.608ZM52.0896 65.936C51.5456 65.968 51.0336 66.112 50.5536 66.368C50.0736 66.608 49.6576 66.936 49.3056 67.352C49.0816 67.624 48.9536 67.936 48.9216 68.288C48.8896 68.624 48.9136 68.96 48.9936 69.296C49.0576 69.696 49.2176 70.048 49.4736 70.352C49.7296 70.64 50.0256 70.88 50.3616 71.072C50.7136 71.248 51.0896 71.376 51.4896 71.456C51.9056 71.52 52.3056 71.528 52.6896 71.48C53.1216 71.432 53.5136 71.32 53.8656 71.144C54.2336 70.952 54.5456 70.72 54.8016 70.448C55.0576 70.16 55.2496 69.832 55.3776 69.464C55.5216 69.08 55.5696 68.672 55.5216 68.24C55.4736 67.776 55.3536 67.392 55.1616 67.088C54.9696 66.768 54.7216 66.52 54.4176 66.344C54.1136 66.168 53.7616 66.056 53.3616 66.008C52.9616 65.944 52.5376 65.92 52.0896 65.936Z" fill="white"/>
<path id="Year15" d="M9.792 62.312C9.552 62.68 9.264 62.904 8.928 62.984C8.608 63.064 8.296 63.04 7.992 62.912C7.688 62.784 7.432 62.576 7.224 62.288C7.032 61.984 6.952 61.64 6.984 61.256C7 61 7.064 60.72 7.176 60.416C7.288 60.112 7.424 59.824 7.584 59.552C7.76 59.264 7.944 59 8.136 58.76C8.344 58.504 8.552 58.288 8.76 58.112C9.144 57.808 9.576 57.544 10.056 57.32C10.552 57.096 11.064 56.928 11.592 56.816C12.136 56.704 12.672 56.656 13.2 56.672C13.744 56.688 14.248 56.768 14.712 56.912C15.992 57.312 16.984 57.944 17.688 58.808C18.392 59.672 18.744 60.792 18.744 62.168C18.744 62.824 18.68 63.416 18.552 63.944C18.44 64.456 18.232 64.952 17.928 65.432C17.64 65.912 17.248 66.4 16.752 66.896C16.272 67.392 15.672 67.936 14.952 68.528C14.712 68.736 14.464 68.944 14.208 69.152C13.952 69.36 13.696 69.568 13.44 69.776C13.36 69.84 13.208 69.936 12.984 70.064C12.76 70.192 12.56 70.32 12.384 70.448C12.208 70.576 12.104 70.696 12.072 70.808C12.04 70.92 12.168 70.984 12.456 71C12.808 71.032 13.088 71.04 13.296 71.024C13.504 71.008 13.784 71 14.136 71C14.552 71 14.96 70.992 15.36 70.976C15.76 70.96 16.16 70.968 16.56 71C16.72 71.016 16.896 71.024 17.088 71.024C17.28 71.008 17.472 71.008 17.664 71.024C17.856 71.024 18.04 71.048 18.216 71.096C18.392 71.128 18.544 71.2 18.672 71.312C18.8 71.424 18.896 71.576 18.96 71.768C19.024 71.96 19.056 72.168 19.056 72.392C19.072 72.6 19.056 72.808 19.008 73.016C18.96 73.208 18.88 73.36 18.768 73.472C18.56 73.712 18.304 73.832 18 73.832C17.696 73.816 17.408 73.808 17.136 73.808H8.52C8.36 73.808 8.184 73.816 7.992 73.832C7.816 73.848 7.656 73.832 7.512 73.784C7.224 73.704 7.08 73.552 7.08 73.328C7.096 73.104 7.104 72.872 7.104 72.632C7.104 72.232 7.2 71.864 7.392 71.528C7.584 71.176 7.824 70.856 8.112 70.568C8.416 70.264 8.736 69.984 9.072 69.728C9.408 69.472 9.72 69.224 10.008 68.984C10.424 68.616 10.872 68.248 11.352 67.88C11.832 67.512 12.288 67.144 12.72 66.776C13.28 66.312 13.752 65.888 14.136 65.504C14.536 65.12 14.856 64.76 15.096 64.424C15.336 64.088 15.512 63.76 15.624 63.44C15.736 63.104 15.792 62.752 15.792 62.384C15.792 61.568 15.544 60.944 15.048 60.512C14.552 60.064 13.92 59.84 13.152 59.84C12.592 59.84 12.064 59.96 11.568 60.2C11.088 60.44 10.688 60.792 10.368 61.256C10.272 61.432 10.176 61.616 10.08 61.808C10 61.984 9.904 62.152 9.792 62.312ZM27.4071 73.928C27.1191 73.928 26.8231 73.912 26.5191 73.88C26.2311 73.832 25.9431 73.752 25.6551 73.64C25.2231 73.464 24.8071 73.232 24.4071 72.944C24.0231 72.64 23.6711 72.304 23.3511 71.936C22.5831 71.072 21.9991 70.056 21.5991 68.888C21.1991 67.704 20.9991 66.504 20.9991 65.288C20.9991 63.624 21.3191 62.016 21.9591 60.464C22.0711 60.192 22.2151 59.904 22.3911 59.6C22.5831 59.296 22.7911 59.008 23.0151 58.736C23.2551 58.448 23.4951 58.192 23.7351 57.968C23.9911 57.744 24.2471 57.576 24.5031 57.464C24.8551 57.304 25.2391 57.144 25.6551 56.984C26.1671 56.824 26.7431 56.752 27.3831 56.768C28.0231 56.784 28.6071 56.856 29.1351 56.984C29.8711 57.16 30.5031 57.48 31.0311 57.944C31.5591 58.392 32.0071 58.936 32.3751 59.576C32.7431 60.2 33.0311 60.888 33.2391 61.64C33.4471 62.376 33.5991 63.128 33.6951 63.896C33.7591 64.408 33.7831 64.92 33.7671 65.432C33.7511 65.928 33.7111 66.432 33.6471 66.944C33.5831 67.408 33.5031 67.872 33.4071 68.336C33.3271 68.8 33.2151 69.248 33.0711 69.68C32.9271 70.112 32.7431 70.528 32.5191 70.928C32.2951 71.312 32.0151 71.672 31.6791 72.008C31.0711 72.6 30.4071 73.064 29.6871 73.4C28.9831 73.72 28.2231 73.896 27.4071 73.928ZM27.3831 59.936C27.1591 59.936 26.9351 59.96 26.7111 60.008C26.5031 60.04 26.3031 60.12 26.1111 60.248C25.8871 60.392 25.6871 60.568 25.5111 60.776C25.3351 60.984 25.1831 61.2 25.0551 61.424C24.7191 62 24.4871 62.616 24.3591 63.272C24.2311 63.928 24.1671 64.592 24.1671 65.264C24.1671 65.952 24.2391 66.664 24.3831 67.4C24.5431 68.136 24.8231 68.808 25.2231 69.416C25.4151 69.704 25.6391 69.96 25.8951 70.184C26.1671 70.392 26.4791 70.544 26.8311 70.64C27.1511 70.72 27.4711 70.744 27.7911 70.712C28.1271 70.68 28.4391 70.576 28.7271 70.4C29.1911 70.112 29.5591 69.728 29.8311 69.248C30.1031 68.768 30.3031 68.248 30.4311 67.688C30.5751 67.128 30.6551 66.552 30.6711 65.96C30.7031 65.368 30.7031 64.832 30.6711 64.352C30.6391 63.872 30.5591 63.368 30.4311 62.84C30.3031 62.312 30.1111 61.832 29.8551 61.4C29.6151 60.968 29.2871 60.616 28.8711 60.344C28.4711 60.056 27.9751 59.92 27.3831 59.936ZM39.7264 56.672C39.8384 56.64 39.9424 56.616 40.0384 56.6C40.1344 56.568 40.2304 56.544 40.3264 56.528C40.4384 56.496 40.5744 56.48 40.7344 56.48C40.9104 56.464 41.0704 56.472 41.2144 56.504C41.3744 56.52 41.5184 56.568 41.6464 56.648C41.7904 56.712 41.8944 56.816 41.9584 56.96C42.0224 57.12 42.0624 57.312 42.0784 57.536C42.1104 57.744 42.1264 57.96 42.1264 58.184C42.1264 58.408 42.1184 58.632 42.1024 58.856C42.1024 59.064 42.1024 59.256 42.1024 59.432V71.696C42.1024 71.872 42.1024 72.056 42.1024 72.248C42.1184 72.424 42.1184 72.608 42.1024 72.8C42.0864 72.992 42.0384 73.176 41.9584 73.352C41.8784 73.512 41.7584 73.648 41.5984 73.76C41.3744 73.936 41.0704 74.024 40.6864 74.024C40.3184 74.04 39.9984 74 39.7264 73.904C39.4384 73.808 39.2624 73.624 39.1984 73.352C39.1504 73.08 39.1264 72.808 39.1264 72.536C39.0144 70.424 38.9584 68.36 38.9584 66.344C38.9744 64.312 38.9824 62.224 38.9824 60.08C38.9504 60.16 38.8384 60.232 38.6464 60.296C38.4704 60.36 38.2624 60.416 38.0224 60.464C37.7984 60.512 37.5824 60.552 37.3744 60.584C37.1664 60.616 37.0304 60.632 36.9664 60.632C36.5504 60.68 36.1664 60.64 35.8144 60.512C35.4784 60.368 35.2864 60.048 35.2384 59.552C35.1744 59.04 35.2864 58.64 35.5744 58.352C35.8784 58.064 36.2624 57.848 36.7264 57.704C37.2384 57.528 37.7344 57.352 38.2144 57.176C38.7104 56.984 39.2144 56.816 39.7264 56.672ZM47.0736 57.224C47.2176 57.08 47.4016 56.992 47.6256 56.96C47.8656 56.912 48.1456 56.888 48.4656 56.888H54.3936C54.6016 56.888 54.8336 56.888 55.0896 56.888C55.3616 56.872 55.6176 56.888 55.8576 56.936C56.0976 56.984 56.3056 57.072 56.4816 57.2C56.6736 57.312 56.8096 57.496 56.8896 57.752C56.9376 57.912 56.9536 58.096 56.9376 58.304C56.9376 58.512 56.8976 58.712 56.8176 58.904C56.7536 59.08 56.6496 59.24 56.5056 59.384C56.3616 59.512 56.1856 59.584 55.9776 59.6C55.5616 59.68 55.1296 59.704 54.6816 59.672C54.2336 59.624 53.8016 59.6 53.3856 59.6C52.9216 59.6 52.5136 59.616 52.1616 59.648C51.8096 59.68 51.4096 59.696 50.9616 59.696C50.7856 59.696 50.5616 59.688 50.2896 59.672C50.0176 59.656 49.8096 59.672 49.6656 59.72C49.5376 59.752 49.4336 59.816 49.3536 59.912C49.2896 60.008 49.2416 60.12 49.2096 60.248C49.1776 60.36 49.1616 60.48 49.1616 60.608C49.1616 60.736 49.1616 60.848 49.1616 60.944C49.1616 61.216 49.1456 61.496 49.1136 61.784C49.0976 62.056 49.0816 62.328 49.0656 62.6C49.0336 62.968 49.0816 63.176 49.2096 63.224C49.3536 63.256 49.5936 63.224 49.9296 63.128C50.5056 62.984 51.0976 62.912 51.7056 62.912C52.5216 62.912 53.2816 63.024 53.9856 63.248C54.6896 63.456 55.2976 63.784 55.8096 64.232C56.3376 64.664 56.7456 65.216 57.0336 65.888C57.3376 66.544 57.4896 67.312 57.4896 68.192C57.4896 68.352 57.4816 68.504 57.4656 68.648C57.4656 68.792 57.4496 68.936 57.4176 69.08C57.2896 70.088 56.9136 70.976 56.2896 71.744C55.6656 72.512 54.8736 73.064 53.9136 73.4C52.7776 73.832 51.6016 74.032 50.3856 74C49.1696 73.952 48.0496 73.6 47.0256 72.944C46.7376 72.768 46.4736 72.56 46.2336 72.32C45.9936 72.064 45.8176 71.776 45.7056 71.456C45.5776 71.12 45.5376 70.776 45.5856 70.424C45.6496 70.056 45.8656 69.784 46.2336 69.608C46.5056 69.48 46.7536 69.44 46.9776 69.488C47.2176 69.52 47.4416 69.6 47.6496 69.728C47.8576 69.84 48.0576 69.984 48.2496 70.16C48.4576 70.32 48.6656 70.456 48.8736 70.568C49.2416 70.744 49.6256 70.896 50.0256 71.024C50.4256 71.136 50.8496 71.192 51.2976 71.192C52.2896 71.192 53.0816 70.928 53.6736 70.4C54.2816 69.872 54.5856 69.16 54.5856 68.264C54.5856 67.4 54.2736 66.728 53.6496 66.248C53.0256 65.752 52.1856 65.504 51.1296 65.504C50.8576 65.504 50.5856 65.52 50.3136 65.552C50.0416 65.584 49.7696 65.64 49.4976 65.72C49.2416 65.784 48.9856 65.856 48.7296 65.936C48.4896 66.016 48.2496 66.072 48.0096 66.104C47.7696 66.12 47.5296 66.096 47.2896 66.032C47.0656 65.952 46.8496 65.784 46.6416 65.528C46.4336 65.304 46.3296 65.032 46.3296 64.712C46.3296 64.392 46.3456 64.096 46.3776 63.824C46.4096 63.36 46.4336 62.896 46.4496 62.432C46.4656 61.968 46.4896 61.504 46.5216 61.04C46.5536 60.576 46.5776 60.12 46.5936 59.672C46.6256 59.208 46.6576 58.744 46.6896 58.28C46.7056 58.008 46.7456 57.792 46.8096 57.632C46.8736 57.472 46.9616 57.336 47.0736 57.224Z" fill="white"/>
<path id="Year14" d="M9.792 62.312C9.552 62.68 9.264 62.904 8.928 62.984C8.608 63.064 8.296 63.04 7.992 62.912C7.688 62.784 7.432 62.576 7.224 62.288C7.032 61.984 6.952 61.64 6.984 61.256C7 61 7.064 60.72 7.176 60.416C7.288 60.112 7.424 59.824 7.584 59.552C7.76 59.264 7.944 59 8.136 58.76C8.344 58.504 8.552 58.288 8.76 58.112C9.144 57.808 9.576 57.544 10.056 57.32C10.552 57.096 11.064 56.928 11.592 56.816C12.136 56.704 12.672 56.656 13.2 56.672C13.744 56.688 14.248 56.768 14.712 56.912C15.992 57.312 16.984 57.944 17.688 58.808C18.392 59.672 18.744 60.792 18.744 62.168C18.744 62.824 18.68 63.416 18.552 63.944C18.44 64.456 18.232 64.952 17.928 65.432C17.64 65.912 17.248 66.4 16.752 66.896C16.272 67.392 15.672 67.936 14.952 68.528C14.712 68.736 14.464 68.944 14.208 69.152C13.952 69.36 13.696 69.568 13.44 69.776C13.36 69.84 13.208 69.936 12.984 70.064C12.76 70.192 12.56 70.32 12.384 70.448C12.208 70.576 12.104 70.696 12.072 70.808C12.04 70.92 12.168 70.984 12.456 71C12.808 71.032 13.088 71.04 13.296 71.024C13.504 71.008 13.784 71 14.136 71C14.552 71 14.96 70.992 15.36 70.976C15.76 70.96 16.16 70.968 16.56 71C16.72 71.016 16.896 71.024 17.088 71.024C17.28 71.008 17.472 71.008 17.664 71.024C17.856 71.024 18.04 71.048 18.216 71.096C18.392 71.128 18.544 71.2 18.672 71.312C18.8 71.424 18.896 71.576 18.96 71.768C19.024 71.96 19.056 72.168 19.056 72.392C19.072 72.6 19.056 72.808 19.008 73.016C18.96 73.208 18.88 73.36 18.768 73.472C18.56 73.712 18.304 73.832 18 73.832C17.696 73.816 17.408 73.808 17.136 73.808H8.52C8.36 73.808 8.184 73.816 7.992 73.832C7.816 73.848 7.656 73.832 7.512 73.784C7.224 73.704 7.08 73.552 7.08 73.328C7.096 73.104 7.104 72.872 7.104 72.632C7.104 72.232 7.2 71.864 7.392 71.528C7.584 71.176 7.824 70.856 8.112 70.568C8.416 70.264 8.736 69.984 9.072 69.728C9.408 69.472 9.72 69.224 10.008 68.984C10.424 68.616 10.872 68.248 11.352 67.88C11.832 67.512 12.288 67.144 12.72 66.776C13.28 66.312 13.752 65.888 14.136 65.504C14.536 65.12 14.856 64.76 15.096 64.424C15.336 64.088 15.512 63.76 15.624 63.44C15.736 63.104 15.792 62.752 15.792 62.384C15.792 61.568 15.544 60.944 15.048 60.512C14.552 60.064 13.92 59.84 13.152 59.84C12.592 59.84 12.064 59.96 11.568 60.2C11.088 60.44 10.688 60.792 10.368 61.256C10.272 61.432 10.176 61.616 10.08 61.808C10 61.984 9.904 62.152 9.792 62.312ZM27.4071 73.928C27.1191 73.928 26.8231 73.912 26.5191 73.88C26.2311 73.832 25.9431 73.752 25.6551 73.64C25.2231 73.464 24.8071 73.232 24.4071 72.944C24.0231 72.64 23.6711 72.304 23.3511 71.936C22.5831 71.072 21.9991 70.056 21.5991 68.888C21.1991 67.704 20.9991 66.504 20.9991 65.288C20.9991 63.624 21.3191 62.016 21.9591 60.464C22.0711 60.192 22.2151 59.904 22.3911 59.6C22.5831 59.296 22.7911 59.008 23.0151 58.736C23.2551 58.448 23.4951 58.192 23.7351 57.968C23.9911 57.744 24.2471 57.576 24.5031 57.464C24.8551 57.304 25.2391 57.144 25.6551 56.984C26.1671 56.824 26.7431 56.752 27.3831 56.768C28.0231 56.784 28.6071 56.856 29.1351 56.984C29.8711 57.16 30.5031 57.48 31.0311 57.944C31.5591 58.392 32.0071 58.936 32.3751 59.576C32.7431 60.2 33.0311 60.888 33.2391 61.64C33.4471 62.376 33.5991 63.128 33.6951 63.896C33.7591 64.408 33.7831 64.92 33.7671 65.432C33.7511 65.928 33.7111 66.432 33.6471 66.944C33.5831 67.408 33.5031 67.872 33.4071 68.336C33.3271 68.8 33.2151 69.248 33.0711 69.68C32.9271 70.112 32.7431 70.528 32.5191 70.928C32.2951 71.312 32.0151 71.672 31.6791 72.008C31.0711 72.6 30.4071 73.064 29.6871 73.4C28.9831 73.72 28.2231 73.896 27.4071 73.928ZM27.3831 59.936C27.1591 59.936 26.9351 59.96 26.7111 60.008C26.5031 60.04 26.3031 60.12 26.1111 60.248C25.8871 60.392 25.6871 60.568 25.5111 60.776C25.3351 60.984 25.1831 61.2 25.0551 61.424C24.7191 62 24.4871 62.616 24.3591 63.272C24.2311 63.928 24.1671 64.592 24.1671 65.264C24.1671 65.952 24.2391 66.664 24.3831 67.4C24.5431 68.136 24.8231 68.808 25.2231 69.416C25.4151 69.704 25.6391 69.96 25.8951 70.184C26.1671 70.392 26.4791 70.544 26.8311 70.64C27.1511 70.72 27.4711 70.744 27.7911 70.712C28.1271 70.68 28.4391 70.576 28.7271 70.4C29.1911 70.112 29.5591 69.728 29.8311 69.248C30.1031 68.768 30.3031 68.248 30.4311 67.688C30.5751 67.128 30.6551 66.552 30.6711 65.96C30.7031 65.368 30.7031 64.832 30.6711 64.352C30.6391 63.872 30.5591 63.368 30.4311 62.84C30.3031 62.312 30.1111 61.832 29.8551 61.4C29.6151 60.968 29.2871 60.616 28.8711 60.344C28.4711 60.056 27.9751 59.92 27.3831 59.936ZM39.7264 56.672C39.8384 56.64 39.9424 56.616 40.0384 56.6C40.1344 56.568 40.2304 56.544 40.3264 56.528C40.4384 56.496 40.5744 56.48 40.7344 56.48C40.9104 56.464 41.0704 56.472 41.2144 56.504C41.3744 56.52 41.5184 56.568 41.6464 56.648C41.7904 56.712 41.8944 56.816 41.9584 56.96C42.0224 57.12 42.0624 57.312 42.0784 57.536C42.1104 57.744 42.1264 57.96 42.1264 58.184C42.1264 58.408 42.1184 58.632 42.1024 58.856C42.1024 59.064 42.1024 59.256 42.1024 59.432V71.696C42.1024 71.872 42.1024 72.056 42.1024 72.248C42.1184 72.424 42.1184 72.608 42.1024 72.8C42.0864 72.992 42.0384 73.176 41.9584 73.352C41.8784 73.512 41.7584 73.648 41.5984 73.76C41.3744 73.936 41.0704 74.024 40.6864 74.024C40.3184 74.04 39.9984 74 39.7264 73.904C39.4384 73.808 39.2624 73.624 39.1984 73.352C39.1504 73.08 39.1264 72.808 39.1264 72.536C39.0144 70.424 38.9584 68.36 38.9584 66.344C38.9744 64.312 38.9824 62.224 38.9824 60.08C38.9504 60.16 38.8384 60.232 38.6464 60.296C38.4704 60.36 38.2624 60.416 38.0224 60.464C37.7984 60.512 37.5824 60.552 37.3744 60.584C37.1664 60.616 37.0304 60.632 36.9664 60.632C36.5504 60.68 36.1664 60.64 35.8144 60.512C35.4784 60.368 35.2864 60.048 35.2384 59.552C35.1744 59.04 35.2864 58.64 35.5744 58.352C35.8784 58.064 36.2624 57.848 36.7264 57.704C37.2384 57.528 37.7344 57.352 38.2144 57.176C38.7104 56.984 39.2144 56.816 39.7264 56.672ZM55.6416 57.248C55.7536 57.424 55.8256 57.648 55.8576 57.92C55.9376 58.48 55.9696 59.056 55.9536 59.648C55.9536 60.224 55.9616 60.792 55.9776 61.352C55.9776 62.008 55.9776 62.656 55.9776 63.296C55.9936 63.936 56.0016 64.584 56.0016 65.24V67.28H57.0336C57.2096 67.28 57.3936 67.304 57.5856 67.352C57.7776 67.384 57.9536 67.448 58.1136 67.544C58.2736 67.64 58.4096 67.76 58.5216 67.904C58.6336 68.048 58.6976 68.224 58.7136 68.432C58.7136 68.944 58.5536 69.296 58.2336 69.488C57.9136 69.664 57.5296 69.768 57.0816 69.8C57.0496 69.8 56.9776 69.808 56.8656 69.824C56.7696 69.824 56.6576 69.824 56.5296 69.824C56.4016 69.824 56.2816 69.824 56.1696 69.824C56.0736 69.824 56.0176 69.808 56.0016 69.776V71.408C56.0016 71.584 56.0016 71.784 56.0016 72.008C56.0016 72.232 55.9856 72.456 55.9536 72.68C55.9216 72.888 55.8576 73.088 55.7616 73.28C55.6816 73.472 55.5536 73.624 55.3776 73.736C55.2976 73.784 55.1936 73.824 55.0656 73.856C54.9536 73.872 54.8256 73.888 54.6816 73.904C54.5376 73.92 54.3936 73.928 54.2496 73.928C54.1216 73.912 54.0096 73.888 53.9136 73.856C53.6256 73.76 53.4416 73.56 53.3616 73.256C53.2816 72.936 53.2256 72.64 53.1936 72.368C53.1936 72.32 53.1936 72.168 53.1936 71.912C53.1936 71.64 53.1936 71.36 53.1936 71.072C53.1936 70.768 53.1856 70.496 53.1696 70.256C53.1536 70.016 53.1296 69.896 53.0976 69.896H48.8736C48.4096 69.896 47.9216 69.888 47.4096 69.872C46.8976 69.856 46.4576 69.712 46.0896 69.44C45.8016 69.232 45.6336 69 45.5856 68.744C45.5376 68.472 45.5536 68.208 45.6336 67.952C45.7296 67.68 45.8656 67.416 46.0416 67.16C46.2176 66.904 46.3856 66.672 46.5456 66.464C47.1536 65.648 47.7376 64.816 48.2976 63.968C48.8736 63.12 49.4496 62.28 50.0256 61.448C50.3456 61.016 50.6736 60.6 51.0096 60.2C51.3616 59.8 51.6896 59.384 51.9936 58.952C52.2176 58.616 52.4576 58.272 52.7136 57.92C52.9856 57.568 53.3216 57.296 53.7216 57.104C54.1056 56.928 54.4736 56.84 54.8256 56.84C55.1776 56.84 55.4496 56.976 55.6416 57.248ZM53.2656 61.568L49.2816 67.184H53.2656V61.568Z" fill="white"/>
<path id="Year13" d="M9.792 62.312C9.552 62.68 9.264 62.904 8.928 62.984C8.608 63.064 8.296 63.04 7.992 62.912C7.688 62.784 7.432 62.576 7.224 62.288C7.032 61.984 6.952 61.64 6.984 61.256C7 61 7.064 60.72 7.176 60.416C7.288 60.112 7.424 59.824 7.584 59.552C7.76 59.264 7.944 59 8.136 58.76C8.344 58.504 8.552 58.288 8.76 58.112C9.144 57.808 9.576 57.544 10.056 57.32C10.552 57.096 11.064 56.928 11.592 56.816C12.136 56.704 12.672 56.656 13.2 56.672C13.744 56.688 14.248 56.768 14.712 56.912C15.992 57.312 16.984 57.944 17.688 58.808C18.392 59.672 18.744 60.792 18.744 62.168C18.744 62.824 18.68 63.416 18.552 63.944C18.44 64.456 18.232 64.952 17.928 65.432C17.64 65.912 17.248 66.4 16.752 66.896C16.272 67.392 15.672 67.936 14.952 68.528C14.712 68.736 14.464 68.944 14.208 69.152C13.952 69.36 13.696 69.568 13.44 69.776C13.36 69.84 13.208 69.936 12.984 70.064C12.76 70.192 12.56 70.32 12.384 70.448C12.208 70.576 12.104 70.696 12.072 70.808C12.04 70.92 12.168 70.984 12.456 71C12.808 71.032 13.088 71.04 13.296 71.024C13.504 71.008 13.784 71 14.136 71C14.552 71 14.96 70.992 15.36 70.976C15.76 70.96 16.16 70.968 16.56 71C16.72 71.016 16.896 71.024 17.088 71.024C17.28 71.008 17.472 71.008 17.664 71.024C17.856 71.024 18.04 71.048 18.216 71.096C18.392 71.128 18.544 71.2 18.672 71.312C18.8 71.424 18.896 71.576 18.96 71.768C19.024 71.96 19.056 72.168 19.056 72.392C19.072 72.6 19.056 72.808 19.008 73.016C18.96 73.208 18.88 73.36 18.768 73.472C18.56 73.712 18.304 73.832 18 73.832C17.696 73.816 17.408 73.808 17.136 73.808H8.52C8.36 73.808 8.184 73.816 7.992 73.832C7.816 73.848 7.656 73.832 7.512 73.784C7.224 73.704 7.08 73.552 7.08 73.328C7.096 73.104 7.104 72.872 7.104 72.632C7.104 72.232 7.2 71.864 7.392 71.528C7.584 71.176 7.824 70.856 8.112 70.568C8.416 70.264 8.736 69.984 9.072 69.728C9.408 69.472 9.72 69.224 10.008 68.984C10.424 68.616 10.872 68.248 11.352 67.88C11.832 67.512 12.288 67.144 12.72 66.776C13.28 66.312 13.752 65.888 14.136 65.504C14.536 65.12 14.856 64.76 15.096 64.424C15.336 64.088 15.512 63.76 15.624 63.44C15.736 63.104 15.792 62.752 15.792 62.384C15.792 61.568 15.544 60.944 15.048 60.512C14.552 60.064 13.92 59.84 13.152 59.84C12.592 59.84 12.064 59.96 11.568 60.2C11.088 60.44 10.688 60.792 10.368 61.256C10.272 61.432 10.176 61.616 10.08 61.808C10 61.984 9.904 62.152 9.792 62.312ZM27.4071 73.928C27.1191 73.928 26.8231 73.912 26.5191 73.88C26.2311 73.832 25.9431 73.752 25.6551 73.64C25.2231 73.464 24.8071 73.232 24.4071 72.944C24.0231 72.64 23.6711 72.304 23.3511 71.936C22.5831 71.072 21.9991 70.056 21.5991 68.888C21.1991 67.704 20.9991 66.504 20.9991 65.288C20.9991 63.624 21.3191 62.016 21.9591 60.464C22.0711 60.192 22.2151 59.904 22.3911 59.6C22.5831 59.296 22.7911 59.008 23.0151 58.736C23.2551 58.448 23.4951 58.192 23.7351 57.968C23.9911 57.744 24.2471 57.576 24.5031 57.464C24.8551 57.304 25.2391 57.144 25.6551 56.984C26.1671 56.824 26.7431 56.752 27.3831 56.768C28.0231 56.784 28.6071 56.856 29.1351 56.984C29.8711 57.16 30.5031 57.48 31.0311 57.944C31.5591 58.392 32.0071 58.936 32.3751 59.576C32.7431 60.2 33.0311 60.888 33.2391 61.64C33.4471 62.376 33.5991 63.128 33.6951 63.896C33.7591 64.408 33.7831 64.92 33.7671 65.432C33.7511 65.928 33.7111 66.432 33.6471 66.944C33.5831 67.408 33.5031 67.872 33.4071 68.336C33.3271 68.8 33.2151 69.248 33.0711 69.68C32.9271 70.112 32.7431 70.528 32.5191 70.928C32.2951 71.312 32.0151 71.672 31.6791 72.008C31.0711 72.6 30.4071 73.064 29.6871 73.4C28.9831 73.72 28.2231 73.896 27.4071 73.928ZM27.3831 59.936C27.1591 59.936 26.9351 59.96 26.7111 60.008C26.5031 60.04 26.3031 60.12 26.1111 60.248C25.8871 60.392 25.6871 60.568 25.5111 60.776C25.3351 60.984 25.1831 61.2 25.0551 61.424C24.7191 62 24.4871 62.616 24.3591 63.272C24.2311 63.928 24.1671 64.592 24.1671 65.264C24.1671 65.952 24.2391 66.664 24.3831 67.4C24.5431 68.136 24.8231 68.808 25.2231 69.416C25.4151 69.704 25.6391 69.96 25.8951 70.184C26.1671 70.392 26.4791 70.544 26.8311 70.64C27.1511 70.72 27.4711 70.744 27.7911 70.712C28.1271 70.68 28.4391 70.576 28.7271 70.4C29.1911 70.112 29.5591 69.728 29.8311 69.248C30.1031 68.768 30.3031 68.248 30.4311 67.688C30.5751 67.128 30.6551 66.552 30.6711 65.96C30.7031 65.368 30.7031 64.832 30.6711 64.352C30.6391 63.872 30.5591 63.368 30.4311 62.84C30.3031 62.312 30.1111 61.832 29.8551 61.4C29.6151 60.968 29.2871 60.616 28.8711 60.344C28.4711 60.056 27.9751 59.92 27.3831 59.936ZM39.7264 56.672C39.8384 56.64 39.9424 56.616 40.0384 56.6C40.1344 56.568 40.2304 56.544 40.3264 56.528C40.4384 56.496 40.5744 56.48 40.7344 56.48C40.9104 56.464 41.0704 56.472 41.2144 56.504C41.3744 56.52 41.5184 56.568 41.6464 56.648C41.7904 56.712 41.8944 56.816 41.9584 56.96C42.0224 57.12 42.0624 57.312 42.0784 57.536C42.1104 57.744 42.1264 57.96 42.1264 58.184C42.1264 58.408 42.1184 58.632 42.1024 58.856C42.1024 59.064 42.1024 59.256 42.1024 59.432V71.696C42.1024 71.872 42.1024 72.056 42.1024 72.248C42.1184 72.424 42.1184 72.608 42.1024 72.8C42.0864 72.992 42.0384 73.176 41.9584 73.352C41.8784 73.512 41.7584 73.648 41.5984 73.76C41.3744 73.936 41.0704 74.024 40.6864 74.024C40.3184 74.04 39.9984 74 39.7264 73.904C39.4384 73.808 39.2624 73.624 39.1984 73.352C39.1504 73.08 39.1264 72.808 39.1264 72.536C39.0144 70.424 38.9584 68.36 38.9584 66.344C38.9744 64.312 38.9824 62.224 38.9824 60.08C38.9504 60.16 38.8384 60.232 38.6464 60.296C38.4704 60.36 38.2624 60.416 38.0224 60.464C37.7984 60.512 37.5824 60.552 37.3744 60.584C37.1664 60.616 37.0304 60.632 36.9664 60.632C36.5504 60.68 36.1664 60.64 35.8144 60.512C35.4784 60.368 35.2864 60.048 35.2384 59.552C35.1744 59.04 35.2864 58.64 35.5744 58.352C35.8784 58.064 36.2624 57.848 36.7264 57.704C37.2384 57.528 37.7344 57.352 38.2144 57.176C38.7104 56.984 39.2144 56.816 39.7264 56.672ZM45.9696 59.336C45.7616 59.144 45.6576 58.856 45.6576 58.472C45.6736 58.296 45.7056 58.128 45.7536 57.968C45.8016 57.792 45.8896 57.64 46.0176 57.512C46.3696 57.192 46.7456 57.008 47.1456 56.96C47.5456 56.912 47.9776 56.872 48.4416 56.84C48.8096 56.824 49.1376 56.824 49.4256 56.84C49.7136 56.84 50.0416 56.84 50.4096 56.84C50.9696 56.84 51.5776 56.848 52.2336 56.864C52.9056 56.88 53.5376 56.904 54.1296 56.936C54.3696 56.952 54.6096 56.984 54.8496 57.032C55.0896 57.08 55.3056 57.168 55.4976 57.296C55.6896 57.408 55.8416 57.56 55.9536 57.752C56.0816 57.928 56.1536 58.152 56.1696 58.424C56.1856 58.744 56.1376 59.048 56.0256 59.336C55.9296 59.624 55.7936 59.904 55.6176 60.176C55.4416 60.432 55.2416 60.68 55.0176 60.92C54.8096 61.144 54.6096 61.352 54.4176 61.544C54.0656 61.912 53.6656 62.304 53.2176 62.72C52.7696 63.136 52.3696 63.528 52.0176 63.896C52.6416 63.976 53.2416 64.12 53.8176 64.328C54.4096 64.536 54.9296 64.824 55.3776 65.192C55.8256 65.56 56.1776 66.024 56.4336 66.584C56.7056 67.128 56.8416 67.784 56.8416 68.552C56.8416 69.32 56.6896 70.032 56.3856 70.688C56.0976 71.344 55.6896 71.92 55.1616 72.416C54.6336 72.896 54.0096 73.272 53.2896 73.544C52.5696 73.816 51.7776 73.952 50.9136 73.952C50.5456 73.952 50.1456 73.92 49.7136 73.856C49.2976 73.792 48.8816 73.696 48.4656 73.568C48.0496 73.44 47.6496 73.28 47.2656 73.088C46.8976 72.88 46.5776 72.632 46.3056 72.344C46.1136 72.152 45.9456 71.928 45.8016 71.672C45.6736 71.4 45.5936 71.128 45.5616 70.856C45.5456 70.568 45.6016 70.312 45.7296 70.088C45.8576 69.848 46.0816 69.672 46.4016 69.56C46.6416 69.48 46.8736 69.448 47.0976 69.464C47.3216 69.48 47.5376 69.536 47.7456 69.632C47.9536 69.712 48.1536 69.808 48.3456 69.92C48.5536 70.032 48.7536 70.144 48.9456 70.256C49.5376 70.624 50.1536 70.84 50.7936 70.904C51.4496 70.968 52.0896 70.816 52.7136 70.448C53.0656 70.24 53.3216 69.984 53.4816 69.68C53.6416 69.36 53.7056 69.04 53.6736 68.72C53.6576 68.4 53.5536 68.096 53.3616 67.808C53.1856 67.52 52.9376 67.28 52.6176 67.088C52.3136 66.912 51.9776 66.792 51.6096 66.728C51.2416 66.664 50.8736 66.6 50.5056 66.536C50.1376 66.472 49.7856 66.384 49.4496 66.272C49.1136 66.16 48.8256 65.968 48.5856 65.696C48.3136 65.392 48.2256 65.064 48.3216 64.712C48.4176 64.36 48.5936 64.016 48.8496 63.68C49.1216 63.344 49.4176 63.024 49.7376 62.72C50.0736 62.416 50.3376 62.16 50.5296 61.952C50.6416 61.84 50.7696 61.704 50.9136 61.544C51.0736 61.384 51.2176 61.224 51.3456 61.064C51.4896 60.904 51.6096 60.752 51.7056 60.608C51.8176 60.448 51.8896 60.304 51.9216 60.176C51.9696 60.048 51.9456 59.96 51.8496 59.912C51.7536 59.848 51.6336 59.816 51.4896 59.816C51.3456 59.8 51.1856 59.8 51.0096 59.816C50.8496 59.816 50.7216 59.816 50.6256 59.816H49.0176C48.7936 59.816 48.5456 59.824 48.2736 59.84C48.0016 59.84 47.7216 59.832 47.4336 59.816C47.1616 59.784 46.8896 59.736 46.6176 59.672C46.3616 59.608 46.1456 59.496 45.9696 59.336Z" fill="white"/>
<path id="Year12" d="M9.792 62.312C9.552 62.68 9.264 62.904 8.928 62.984C8.608 63.064 8.296 63.04 7.992 62.912C7.688 62.784 7.432 62.576 7.224 62.288C7.032 61.984 6.952 61.64 6.984 61.256C7 61 7.064 60.72 7.176 60.416C7.288 60.112 7.424 59.824 7.584 59.552C7.76 59.264 7.944 59 8.136 58.76C8.344 58.504 8.552 58.288 8.76 58.112C9.144 57.808 9.576 57.544 10.056 57.32C10.552 57.096 11.064 56.928 11.592 56.816C12.136 56.704 12.672 56.656 13.2 56.672C13.744 56.688 14.248 56.768 14.712 56.912C15.992 57.312 16.984 57.944 17.688 58.808C18.392 59.672 18.744 60.792 18.744 62.168C18.744 62.824 18.68 63.416 18.552 63.944C18.44 64.456 18.232 64.952 17.928 65.432C17.64 65.912 17.248 66.4 16.752 66.896C16.272 67.392 15.672 67.936 14.952 68.528C14.712 68.736 14.464 68.944 14.208 69.152C13.952 69.36 13.696 69.568 13.44 69.776C13.36 69.84 13.208 69.936 12.984 70.064C12.76 70.192 12.56 70.32 12.384 70.448C12.208 70.576 12.104 70.696 12.072 70.808C12.04 70.92 12.168 70.984 12.456 71C12.808 71.032 13.088 71.04 13.296 71.024C13.504 71.008 13.784 71 14.136 71C14.552 71 14.96 70.992 15.36 70.976C15.76 70.96 16.16 70.968 16.56 71C16.72 71.016 16.896 71.024 17.088 71.024C17.28 71.008 17.472 71.008 17.664 71.024C17.856 71.024 18.04 71.048 18.216 71.096C18.392 71.128 18.544 71.2 18.672 71.312C18.8 71.424 18.896 71.576 18.96 71.768C19.024 71.96 19.056 72.168 19.056 72.392C19.072 72.6 19.056 72.808 19.008 73.016C18.96 73.208 18.88 73.36 18.768 73.472C18.56 73.712 18.304 73.832 18 73.832C17.696 73.816 17.408 73.808 17.136 73.808H8.52C8.36 73.808 8.184 73.816 7.992 73.832C7.816 73.848 7.656 73.832 7.512 73.784C7.224 73.704 7.08 73.552 7.08 73.328C7.096 73.104 7.104 72.872 7.104 72.632C7.104 72.232 7.2 71.864 7.392 71.528C7.584 71.176 7.824 70.856 8.112 70.568C8.416 70.264 8.736 69.984 9.072 69.728C9.408 69.472 9.72 69.224 10.008 68.984C10.424 68.616 10.872 68.248 11.352 67.88C11.832 67.512 12.288 67.144 12.72 66.776C13.28 66.312 13.752 65.888 14.136 65.504C14.536 65.12 14.856 64.76 15.096 64.424C15.336 64.088 15.512 63.76 15.624 63.44C15.736 63.104 15.792 62.752 15.792 62.384C15.792 61.568 15.544 60.944 15.048 60.512C14.552 60.064 13.92 59.84 13.152 59.84C12.592 59.84 12.064 59.96 11.568 60.2C11.088 60.44 10.688 60.792 10.368 61.256C10.272 61.432 10.176 61.616 10.08 61.808C10 61.984 9.904 62.152 9.792 62.312ZM27.4071 73.928C27.1191 73.928 26.8231 73.912 26.5191 73.88C26.2311 73.832 25.9431 73.752 25.6551 73.64C25.2231 73.464 24.8071 73.232 24.4071 72.944C24.0231 72.64 23.6711 72.304 23.3511 71.936C22.5831 71.072 21.9991 70.056 21.5991 68.888C21.1991 67.704 20.9991 66.504 20.9991 65.288C20.9991 63.624 21.3191 62.016 21.9591 60.464C22.0711 60.192 22.2151 59.904 22.3911 59.6C22.5831 59.296 22.7911 59.008 23.0151 58.736C23.2551 58.448 23.4951 58.192 23.7351 57.968C23.9911 57.744 24.2471 57.576 24.5031 57.464C24.8551 57.304 25.2391 57.144 25.6551 56.984C26.1671 56.824 26.7431 56.752 27.3831 56.768C28.0231 56.784 28.6071 56.856 29.1351 56.984C29.8711 57.16 30.5031 57.48 31.0311 57.944C31.5591 58.392 32.0071 58.936 32.3751 59.576C32.7431 60.2 33.0311 60.888 33.2391 61.64C33.4471 62.376 33.5991 63.128 33.6951 63.896C33.7591 64.408 33.7831 64.92 33.7671 65.432C33.7511 65.928 33.7111 66.432 33.6471 66.944C33.5831 67.408 33.5031 67.872 33.4071 68.336C33.3271 68.8 33.2151 69.248 33.0711 69.68C32.9271 70.112 32.7431 70.528 32.5191 70.928C32.2951 71.312 32.0151 71.672 31.6791 72.008C31.0711 72.6 30.4071 73.064 29.6871 73.4C28.9831 73.72 28.2231 73.896 27.4071 73.928ZM27.3831 59.936C27.1591 59.936 26.9351 59.96 26.7111 60.008C26.5031 60.04 26.3031 60.12 26.1111 60.248C25.8871 60.392 25.6871 60.568 25.5111 60.776C25.3351 60.984 25.1831 61.2 25.0551 61.424C24.7191 62 24.4871 62.616 24.3591 63.272C24.2311 63.928 24.1671 64.592 24.1671 65.264C24.1671 65.952 24.2391 66.664 24.3831 67.4C24.5431 68.136 24.8231 68.808 25.2231 69.416C25.4151 69.704 25.6391 69.96 25.8951 70.184C26.1671 70.392 26.4791 70.544 26.8311 70.64C27.1511 70.72 27.4711 70.744 27.7911 70.712C28.1271 70.68 28.4391 70.576 28.7271 70.4C29.1911 70.112 29.5591 69.728 29.8311 69.248C30.1031 68.768 30.3031 68.248 30.4311 67.688C30.5751 67.128 30.6551 66.552 30.6711 65.96C30.7031 65.368 30.7031 64.832 30.6711 64.352C30.6391 63.872 30.5591 63.368 30.4311 62.84C30.3031 62.312 30.1111 61.832 29.8551 61.4C29.6151 60.968 29.2871 60.616 28.8711 60.344C28.4711 60.056 27.9751 59.92 27.3831 59.936ZM39.7264 56.672C39.8384 56.64 39.9424 56.616 40.0384 56.6C40.1344 56.568 40.2304 56.544 40.3264 56.528C40.4384 56.496 40.5744 56.48 40.7344 56.48C40.9104 56.464 41.0704 56.472 41.2144 56.504C41.3744 56.52 41.5184 56.568 41.6464 56.648C41.7904 56.712 41.8944 56.816 41.9584 56.96C42.0224 57.12 42.0624 57.312 42.0784 57.536C42.1104 57.744 42.1264 57.96 42.1264 58.184C42.1264 58.408 42.1184 58.632 42.1024 58.856C42.1024 59.064 42.1024 59.256 42.1024 59.432V71.696C42.1024 71.872 42.1024 72.056 42.1024 72.248C42.1184 72.424 42.1184 72.608 42.1024 72.8C42.0864 72.992 42.0384 73.176 41.9584 73.352C41.8784 73.512 41.7584 73.648 41.5984 73.76C41.3744 73.936 41.0704 74.024 40.6864 74.024C40.3184 74.04 39.9984 74 39.7264 73.904C39.4384 73.808 39.2624 73.624 39.1984 73.352C39.1504 73.08 39.1264 72.808 39.1264 72.536C39.0144 70.424 38.9584 68.36 38.9584 66.344C38.9744 64.312 38.9824 62.224 38.9824 60.08C38.9504 60.16 38.8384 60.232 38.6464 60.296C38.4704 60.36 38.2624 60.416 38.0224 60.464C37.7984 60.512 37.5824 60.552 37.3744 60.584C37.1664 60.616 37.0304 60.632 36.9664 60.632C36.5504 60.68 36.1664 60.64 35.8144 60.512C35.4784 60.368 35.2864 60.048 35.2384 59.552C35.1744 59.04 35.2864 58.64 35.5744 58.352C35.8784 58.064 36.2624 57.848 36.7264 57.704C37.2384 57.528 37.7344 57.352 38.2144 57.176C38.7104 56.984 39.2144 56.816 39.7264 56.672ZM48.3936 62.312C48.1536 62.68 47.8656 62.904 47.5296 62.984C47.2096 63.064 46.8976 63.04 46.5936 62.912C46.2896 62.784 46.0336 62.576 45.8256 62.288C45.6336 61.984 45.5536 61.64 45.5856 61.256C45.6016 61 45.6656 60.72 45.7776 60.416C45.8896 60.112 46.0256 59.824 46.1856 59.552C46.3616 59.264 46.5456 59 46.7376 58.76C46.9456 58.504 47.1536 58.288 47.3616 58.112C47.7456 57.808 48.1776 57.544 48.6576 57.32C49.1536 57.096 49.6656 56.928 50.1936 56.816C50.7376 56.704 51.2736 56.656 51.8016 56.672C52.3456 56.688 52.8496 56.768 53.3136 56.912C54.5936 57.312 55.5856 57.944 56.2896 58.808C56.9936 59.672 57.3456 60.792 57.3456 62.168C57.3456 62.824 57.2816 63.416 57.1536 63.944C57.0416 64.456 56.8336 64.952 56.5296 65.432C56.2416 65.912 55.8496 66.4 55.3536 66.896C54.8736 67.392 54.2736 67.936 53.5536 68.528C53.3136 68.736 53.0656 68.944 52.8096 69.152C52.5536 69.36 52.2976 69.568 52.0416 69.776C51.9616 69.84 51.8096 69.936 51.5856 70.064C51.3616 70.192 51.1616 70.32 50.9856 70.448C50.8096 70.576 50.7056 70.696 50.6736 70.808C50.6416 70.92 50.7696 70.984 51.0576 71C51.4096 71.032 51.6896 71.04 51.8976 71.024C52.1056 71.008 52.3856 71 52.7376 71C53.1536 71 53.5616 70.992 53.9616 70.976C54.3616 70.96 54.7616 70.968 55.1616 71C55.3216 71.016 55.4976 71.024 55.6896 71.024C55.8816 71.008 56.0736 71.008 56.2656 71.024C56.4576 71.024 56.6416 71.048 56.8176 71.096C56.9936 71.128 57.1456 71.2 57.2736 71.312C57.4016 71.424 57.4976 71.576 57.5616 71.768C57.6256 71.96 57.6576 72.168 57.6576 72.392C57.6736 72.6 57.6576 72.808 57.6096 73.016C57.5616 73.208 57.4816 73.36 57.3696 73.472C57.1616 73.712 56.9056 73.832 56.6016 73.832C56.2976 73.816 56.0096 73.808 55.7376 73.808H47.1216C46.9616 73.808 46.7856 73.816 46.5936 73.832C46.4176 73.848 46.2576 73.832 46.1136 73.784C45.8256 73.704 45.6816 73.552 45.6816 73.328C45.6976 73.104 45.7056 72.872 45.7056 72.632C45.7056 72.232 45.8016 71.864 45.9936 71.528C46.1856 71.176 46.4256 70.856 46.7136 70.568C47.0176 70.264 47.3376 69.984 47.6736 69.728C48.0096 69.472 48.3216 69.224 48.6096 68.984C49.0256 68.616 49.4736 68.248 49.9536 67.88C50.4336 67.512 50.8896 67.144 51.3216 66.776C51.8816 66.312 52.3536 65.888 52.7376 65.504C53.1376 65.12 53.4576 64.76 53.6976 64.424C53.9376 64.088 54.1136 63.76 54.2256 63.44C54.3376 63.104 54.3936 62.752 54.3936 62.384C54.3936 61.568 54.1456 60.944 53.6496 60.512C53.1536 60.064 52.5216 59.84 51.7536 59.84C51.1936 59.84 50.6656 59.96 50.1696 60.2C49.6896 60.44 49.2896 60.792 48.9696 61.256C48.8736 61.432 48.7776 61.616 48.6816 61.808C48.6016 61.984 48.5056 62.152 48.3936 62.312Z" fill="white"/>
<path id="Year11" d="M9.792 62.312C9.552 62.68 9.264 62.904 8.928 62.984C8.608 63.064 8.296 63.04 7.992 62.912C7.688 62.784 7.432 62.576 7.224 62.288C7.032 61.984 6.952 61.64 6.984 61.256C7 61 7.064 60.72 7.176 60.416C7.288 60.112 7.424 59.824 7.584 59.552C7.76 59.264 7.944 59 8.136 58.76C8.344 58.504 8.552 58.288 8.76 58.112C9.144 57.808 9.576 57.544 10.056 57.32C10.552 57.096 11.064 56.928 11.592 56.816C12.136 56.704 12.672 56.656 13.2 56.672C13.744 56.688 14.248 56.768 14.712 56.912C15.992 57.312 16.984 57.944 17.688 58.808C18.392 59.672 18.744 60.792 18.744 62.168C18.744 62.824 18.68 63.416 18.552 63.944C18.44 64.456 18.232 64.952 17.928 65.432C17.64 65.912 17.248 66.4 16.752 66.896C16.272 67.392 15.672 67.936 14.952 68.528C14.712 68.736 14.464 68.944 14.208 69.152C13.952 69.36 13.696 69.568 13.44 69.776C13.36 69.84 13.208 69.936 12.984 70.064C12.76 70.192 12.56 70.32 12.384 70.448C12.208 70.576 12.104 70.696 12.072 70.808C12.04 70.92 12.168 70.984 12.456 71C12.808 71.032 13.088 71.04 13.296 71.024C13.504 71.008 13.784 71 14.136 71C14.552 71 14.96 70.992 15.36 70.976C15.76 70.96 16.16 70.968 16.56 71C16.72 71.016 16.896 71.024 17.088 71.024C17.28 71.008 17.472 71.008 17.664 71.024C17.856 71.024 18.04 71.048 18.216 71.096C18.392 71.128 18.544 71.2 18.672 71.312C18.8 71.424 18.896 71.576 18.96 71.768C19.024 71.96 19.056 72.168 19.056 72.392C19.072 72.6 19.056 72.808 19.008 73.016C18.96 73.208 18.88 73.36 18.768 73.472C18.56 73.712 18.304 73.832 18 73.832C17.696 73.816 17.408 73.808 17.136 73.808H8.52C8.36 73.808 8.184 73.816 7.992 73.832C7.816 73.848 7.656 73.832 7.512 73.784C7.224 73.704 7.08 73.552 7.08 73.328C7.096 73.104 7.104 72.872 7.104 72.632C7.104 72.232 7.2 71.864 7.392 71.528C7.584 71.176 7.824 70.856 8.112 70.568C8.416 70.264 8.736 69.984 9.072 69.728C9.408 69.472 9.72 69.224 10.008 68.984C10.424 68.616 10.872 68.248 11.352 67.88C11.832 67.512 12.288 67.144 12.72 66.776C13.28 66.312 13.752 65.888 14.136 65.504C14.536 65.12 14.856 64.76 15.096 64.424C15.336 64.088 15.512 63.76 15.624 63.44C15.736 63.104 15.792 62.752 15.792 62.384C15.792 61.568 15.544 60.944 15.048 60.512C14.552 60.064 13.92 59.84 13.152 59.84C12.592 59.84 12.064 59.96 11.568 60.2C11.088 60.44 10.688 60.792 10.368 61.256C10.272 61.432 10.176 61.616 10.08 61.808C10 61.984 9.904 62.152 9.792 62.312ZM27.4071 73.928C27.1191 73.928 26.8231 73.912 26.5191 73.88C26.2311 73.832 25.9431 73.752 25.6551 73.64C25.2231 73.464 24.8071 73.232 24.4071 72.944C24.0231 72.64 23.6711 72.304 23.3511 71.936C22.5831 71.072 21.9991 70.056 21.5991 68.888C21.1991 67.704 20.9991 66.504 20.9991 65.288C20.9991 63.624 21.3191 62.016 21.9591 60.464C22.0711 60.192 22.2151 59.904 22.3911 59.6C22.5831 59.296 22.7911 59.008 23.0151 58.736C23.2551 58.448 23.4951 58.192 23.7351 57.968C23.9911 57.744 24.2471 57.576 24.5031 57.464C24.8551 57.304 25.2391 57.144 25.6551 56.984C26.1671 56.824 26.7431 56.752 27.3831 56.768C28.0231 56.784 28.6071 56.856 29.1351 56.984C29.8711 57.16 30.5031 57.48 31.0311 57.944C31.5591 58.392 32.0071 58.936 32.3751 59.576C32.7431 60.2 33.0311 60.888 33.2391 61.64C33.4471 62.376 33.5991 63.128 33.6951 63.896C33.7591 64.408 33.7831 64.92 33.7671 65.432C33.7511 65.928 33.7111 66.432 33.6471 66.944C33.5831 67.408 33.5031 67.872 33.4071 68.336C33.3271 68.8 33.2151 69.248 33.0711 69.68C32.9271 70.112 32.7431 70.528 32.5191 70.928C32.2951 71.312 32.0151 71.672 31.6791 72.008C31.0711 72.6 30.4071 73.064 29.6871 73.4C28.9831 73.72 28.2231 73.896 27.4071 73.928ZM27.3831 59.936C27.1591 59.936 26.9351 59.96 26.7111 60.008C26.5031 60.04 26.3031 60.12 26.1111 60.248C25.8871 60.392 25.6871 60.568 25.5111 60.776C25.3351 60.984 25.1831 61.2 25.0551 61.424C24.7191 62 24.4871 62.616 24.3591 63.272C24.2311 63.928 24.1671 64.592 24.1671 65.264C24.1671 65.952 24.2391 66.664 24.3831 67.4C24.5431 68.136 24.8231 68.808 25.2231 69.416C25.4151 69.704 25.6391 69.96 25.8951 70.184C26.1671 70.392 26.4791 70.544 26.8311 70.64C27.1511 70.72 27.4711 70.744 27.7911 70.712C28.1271 70.68 28.4391 70.576 28.7271 70.4C29.1911 70.112 29.5591 69.728 29.8311 69.248C30.1031 68.768 30.3031 68.248 30.4311 67.688C30.5751 67.128 30.6551 66.552 30.6711 65.96C30.7031 65.368 30.7031 64.832 30.6711 64.352C30.6391 63.872 30.5591 63.368 30.4311 62.84C30.3031 62.312 30.1111 61.832 29.8551 61.4C29.6151 60.968 29.2871 60.616 28.8711 60.344C28.4711 60.056 27.9751 59.92 27.3831 59.936ZM39.7264 56.672C39.8384 56.64 39.9424 56.616 40.0384 56.6C40.1344 56.568 40.2304 56.544 40.3264 56.528C40.4384 56.496 40.5744 56.48 40.7344 56.48C40.9104 56.464 41.0704 56.472 41.2144 56.504C41.3744 56.52 41.5184 56.568 41.6464 56.648C41.7904 56.712 41.8944 56.816 41.9584 56.96C42.0224 57.12 42.0624 57.312 42.0784 57.536C42.1104 57.744 42.1264 57.96 42.1264 58.184C42.1264 58.408 42.1184 58.632 42.1024 58.856C42.1024 59.064 42.1024 59.256 42.1024 59.432V71.696C42.1024 71.872 42.1024 72.056 42.1024 72.248C42.1184 72.424 42.1184 72.608 42.1024 72.8C42.0864 72.992 42.0384 73.176 41.9584 73.352C41.8784 73.512 41.7584 73.648 41.5984 73.76C41.3744 73.936 41.0704 74.024 40.6864 74.024C40.3184 74.04 39.9984 74 39.7264 73.904C39.4384 73.808 39.2624 73.624 39.1984 73.352C39.1504 73.08 39.1264 72.808 39.1264 72.536C39.0144 70.424 38.9584 68.36 38.9584 66.344C38.9744 64.312 38.9824 62.224 38.9824 60.08C38.9504 60.16 38.8384 60.232 38.6464 60.296C38.4704 60.36 38.2624 60.416 38.0224 60.464C37.7984 60.512 37.5824 60.552 37.3744 60.584C37.1664 60.616 37.0304 60.632 36.9664 60.632C36.5504 60.68 36.1664 60.64 35.8144 60.512C35.4784 60.368 35.2864 60.048 35.2384 59.552C35.1744 59.04 35.2864 58.64 35.5744 58.352C35.8784 58.064 36.2624 57.848 36.7264 57.704C37.2384 57.528 37.7344 57.352 38.2144 57.176C38.7104 56.984 39.2144 56.816 39.7264 56.672ZM49.5936 56.672C49.7056 56.64 49.8096 56.616 49.9056 56.6C50.0016 56.568 50.0976 56.544 50.1936 56.528C50.3056 56.496 50.4416 56.48 50.6016 56.48C50.7776 56.464 50.9376 56.472 51.0816 56.504C51.2416 56.52 51.3856 56.568 51.5136 56.648C51.6576 56.712 51.7616 56.816 51.8256 56.96C51.8896 57.12 51.9296 57.312 51.9456 57.536C51.9776 57.744 51.9936 57.96 51.9936 58.184C51.9936 58.408 51.9856 58.632 51.9696 58.856C51.9696 59.064 51.9696 59.256 51.9696 59.432V71.696C51.9696 71.872 51.9696 72.056 51.9696 72.248C51.9856 72.424 51.9856 72.608 51.9696 72.8C51.9536 72.992 51.9056 73.176 51.8256 73.352C51.7456 73.512 51.6256 73.648 51.4656 73.76C51.2416 73.936 50.9376 74.024 50.5536 74.024C50.1856 74.04 49.8656 74 49.5936 73.904C49.3056 73.808 49.1296 73.624 49.0656 73.352C49.0176 73.08 48.9936 72.808 48.9936 72.536C48.8816 70.424 48.8256 68.36 48.8256 66.344C48.8416 64.312 48.8496 62.224 48.8496 60.08C48.8176 60.16 48.7056 60.232 48.5136 60.296C48.3376 60.36 48.1296 60.416 47.8896 60.464C47.6656 60.512 47.4496 60.552 47.2416 60.584C47.0336 60.616 46.8976 60.632 46.8336 60.632C46.4176 60.68 46.0336 60.64 45.6816 60.512C45.3456 60.368 45.1536 60.048 45.1056 59.552C45.0416 59.04 45.1536 58.64 45.4416 58.352C45.7456 58.064 46.1296 57.848 46.5936 57.704C47.1056 57.528 47.6016 57.352 48.0816 57.176C48.5776 56.984 49.0816 56.816 49.5936 56.672Z" fill="white"/>
<g id="corner">
<path id="Rectangle 180" d="M100.48 99.552C105.105 104.867 155 99.552 155 99.552L125.847 114.432L100.48 126.899C103.858 129.112 95.8551 94.2366 100.48 99.552Z" fill="#E6E6E6"/>
<path id="Rectangle 178_2" d="M115.116 119.753L101.475 126.573L115.116 117.835L154.546 99.2922L115.116 119.753Z" fill="#D6D6D6"/>
</g>
</g>
</svg>
