<svg width="164" height="91" viewBox="0 0 164 91" fill="none" xmlns="http://www.w3.org/2000/svg">
<path d="M8.02488 8.5H51.5249H145.525H163.025V50.1657C163.025 50.1657 163.025 52 163.025 70.5C163.025 89 162.582 73.5 163.025 82.5C163.468 91.5 155.524 89.5 155.524 89.5H90.0242H39.5242C39.5242 89.5 14.5224 90 11.0229 89.5C7.52342 89 8.02488 86.5 8.02488 86.5V53.5V24.5V8.5Z" fill="white"/>
<g filter="url(#filter0_d_128:216)">
<path d="M8.02488 8.5L10.5 8L11 8.5V8L13 8.5H15.5L16.5 8L17 8.5H17.5L18 8L18.2837 9L18.5 8.5L19 8V9L19.5 8L18.5 8.5L20.5 8L21 9L22.5 8.5L26.5 8L25.5 8.5L39 9L43.5 8L44 8.5H44.5L45 8L45.5 9L46 8.5H50L57.5 9L58 8.5L60 9.5L60.5 9L63 8.5L68.5 9L78 8.5L81.5 9L84 8.5L90.5 9L98 8.5H104H110.5L124 9L142 8.5L145.5 9L146.5 8.5L147.5 9.5L148.5 9L163.025 8.5V45.5C163.025 45.5 163.025 45.5 163.025 64C163.025 82.5 163.052 55.2991 163.025 62.3995C162.998 69.5 128.5 75 128.5 75L110.5 89.5H39.5242C39.5242 89.5 14.5224 90 11.0229 89.5C7.52342 89 8.02488 86.5 8.02488 86.5V53.5V24.5V8.5Z" fill="#5A6E80"/>
</g>
<path d="M122.39 63.5318C119.127 70.802 163 63.5322 163 63.5322C163 63.5322 160.501 68.9713 157.199 70.8023C145.958 77.0339 146.321 77.5532 140.52 77.5532C135.048 77.5532 127.789 85.6245 122.39 86.9003C112.959 89.1294 109 89.9219 109 89.9219C112.369 91.974 125.654 56.2616 122.39 63.5318Z" fill="#E6E6E6"/>
<path d="M16.792 23.312C16.552 23.68 16.264 23.904 15.928 23.984C15.608 24.064 15.296 24.04 14.992 23.912C14.688 23.784 14.432 23.576 14.224 23.288C14.032 22.984 13.952 22.64 13.984 22.256C14 22 14.064 21.72 14.176 21.416C14.288 21.112 14.424 20.824 14.584 20.552C14.76 20.264 14.944 20 15.136 19.76C15.344 19.504 15.552 19.288 15.76 19.112C16.144 18.808 16.576 18.544 17.056 18.32C17.552 18.096 18.064 17.928 18.592 17.816C19.136 17.704 19.672 17.656 20.2 17.672C20.744 17.688 21.248 17.768 21.712 17.912C22.992 18.312 23.984 18.944 24.688 19.808C25.392 20.672 25.744 21.792 25.744 23.168C25.744 23.824 25.68 24.416 25.552 24.944C25.44 25.456 25.232 25.952 24.928 26.432C24.64 26.912 24.248 27.4 23.752 27.896C23.272 28.392 22.672 28.936 21.952 29.528C21.712 29.736 21.464 29.944 21.208 30.152C20.952 30.36 20.696 30.568 20.44 30.776C20.36 30.84 20.208 30.936 19.984 31.064C19.76 31.192 19.56 31.32 19.384 31.448C19.208 31.576 19.104 31.696 19.072 31.808C19.04 31.92 19.168 31.984 19.456 32C19.808 32.032 20.088 32.04 20.296 32.024C20.504 32.008 20.784 32 21.136 32C21.552 32 21.96 31.992 22.36 31.976C22.76 31.96 23.16 31.968 23.56 32C23.72 32.016 23.896 32.024 24.088 32.024C24.28 32.008 24.472 32.008 24.664 32.024C24.856 32.024 25.04 32.048 25.216 32.096C25.392 32.128 25.544 32.2 25.672 32.312C25.8 32.424 25.896 32.576 25.96 32.768C26.024 32.96 26.056 33.168 26.056 33.392C26.072 33.6 26.056 33.808 26.008 34.016C25.96 34.208 25.88 34.36 25.768 34.472C25.56 34.712 25.304 34.832 25 34.832C24.696 34.816 24.408 34.808 24.136 34.808H15.52C15.36 34.808 15.184 34.816 14.992 34.832C14.816 34.848 14.656 34.832 14.512 34.784C14.224 34.704 14.08 34.552 14.08 34.328C14.096 34.104 14.104 33.872 14.104 33.632C14.104 33.232 14.2 32.864 14.392 32.528C14.584 32.176 14.824 31.856 15.112 31.568C15.416 31.264 15.736 30.984 16.072 30.728C16.408 30.472 16.72 30.224 17.008 29.984C17.424 29.616 17.872 29.248 18.352 28.88C18.832 28.512 19.288 28.144 19.72 27.776C20.28 27.312 20.752 26.888 21.136 26.504C21.536 26.12 21.856 25.76 22.096 25.424C22.336 25.088 22.512 24.76 22.624 24.44C22.736 24.104 22.792 23.752 22.792 23.384C22.792 22.568 22.544 21.944 22.048 21.512C21.552 21.064 20.92 20.84 20.152 20.84C19.592 20.84 19.064 20.96 18.568 21.2C18.088 21.44 17.688 21.792 17.368 22.256C17.272 22.432 17.176 22.616 17.08 22.808C17 22.984 16.904 23.152 16.792 23.312ZM34.4071 34.928C34.1191 34.928 33.8231 34.912 33.5191 34.88C33.2311 34.832 32.9431 34.752 32.6551 34.64C32.2231 34.464 31.8071 34.232 31.4071 33.944C31.0231 33.64 30.6711 33.304 30.3511 32.936C29.5831 32.072 28.9991 31.056 28.5991 29.888C28.1991 28.704 27.9991 27.504 27.9991 26.288C27.9991 24.624 28.3191 23.016 28.9591 21.464C29.0711 21.192 29.2151 20.904 29.3911 20.6C29.5831 20.296 29.7911 20.008 30.0151 19.736C30.2551 19.448 30.4951 19.192 30.7351 18.968C30.9911 18.744 31.2471 18.576 31.5031 18.464C31.8551 18.304 32.2391 18.144 32.6551 17.984C33.1671 17.824 33.7431 17.752 34.3831 17.768C35.0231 17.784 35.6071 17.856 36.1351 17.984C36.8711 18.16 37.5031 18.48 38.0311 18.944C38.5591 19.392 39.0071 19.936 39.3751 20.576C39.7431 21.2 40.0311 21.888 40.2391 22.64C40.4471 23.376 40.5991 24.128 40.6951 24.896C40.7591 25.408 40.7831 25.92 40.7671 26.432C40.7511 26.928 40.7111 27.432 40.6471 27.944C40.5831 28.408 40.5031 28.872 40.4071 29.336C40.3271 29.8 40.2151 30.248 40.0711 30.68C39.9271 31.112 39.7431 31.528 39.5191 31.928C39.2951 32.312 39.0151 32.672 38.6791 33.008C38.0711 33.6 37.4071 34.064 36.6871 34.4C35.9831 34.72 35.2231 34.896 34.4071 34.928ZM34.3831 20.936C34.1591 20.936 33.9351 20.96 33.7111 21.008C33.5031 21.04 33.3031 21.12 33.1111 21.248C32.8871 21.392 32.6871 21.568 32.5111 21.776C32.3351 21.984 32.1831 22.2 32.0551 22.424C31.7191 23 31.4871 23.616 31.3591 24.272C31.2311 24.928 31.1671 25.592 31.1671 26.264C31.1671 26.952 31.2391 27.664 31.3831 28.4C31.5431 29.136 31.8231 29.808 32.2231 30.416C32.4151 30.704 32.6391 30.96 32.8951 31.184C33.1671 31.392 33.4791 31.544 33.8311 31.64C34.1511 31.72 34.4711 31.744 34.7911 31.712C35.1271 31.68 35.4391 31.576 35.7271 31.4C36.1911 31.112 36.5591 30.728 36.8311 30.248C37.1031 29.768 37.3031 29.248 37.4311 28.688C37.5751 28.128 37.6551 27.552 37.6711 26.96C37.7031 26.368 37.7031 25.832 37.6711 25.352C37.6391 24.872 37.5591 24.368 37.4311 23.84C37.3031 23.312 37.1111 22.832 36.8551 22.4C36.6151 21.968 36.2871 21.616 35.8711 21.344C35.4711 21.056 34.9751 20.92 34.3831 20.936ZM46.7264 17.672C46.8384 17.64 46.9424 17.616 47.0384 17.6C47.1344 17.568 47.2304 17.544 47.3264 17.528C47.4384 17.496 47.5744 17.48 47.7344 17.48C47.9104 17.464 48.0704 17.472 48.2144 17.504C48.3744 17.52 48.5184 17.568 48.6464 17.648C48.7904 17.712 48.8944 17.816 48.9584 17.96C49.0224 18.12 49.0624 18.312 49.0784 18.536C49.1104 18.744 49.1264 18.96 49.1264 19.184C49.1264 19.408 49.1184 19.632 49.1024 19.856C49.1024 20.064 49.1024 20.256 49.1024 20.432V32.696C49.1024 32.872 49.1024 33.056 49.1024 33.248C49.1184 33.424 49.1184 33.608 49.1024 33.8C49.0864 33.992 49.0384 34.176 48.9584 34.352C48.8784 34.512 48.7584 34.648 48.5984 34.76C48.3744 34.936 48.0704 35.024 47.6864 35.024C47.3184 35.04 46.9984 35 46.7264 34.904C46.4384 34.808 46.2624 34.624 46.1984 34.352C46.1504 34.08 46.1264 33.808 46.1264 33.536C46.0144 31.424 45.9584 29.36 45.9584 27.344C45.9744 25.312 45.9824 23.224 45.9824 21.08C45.9504 21.16 45.8384 21.232 45.6464 21.296C45.4704 21.36 45.2624 21.416 45.0224 21.464C44.7984 21.512 44.5824 21.552 44.3744 21.584C44.1664 21.616 44.0304 21.632 43.9664 21.632C43.5504 21.68 43.1664 21.64 42.8144 21.512C42.4784 21.368 42.2864 21.048 42.2384 20.552C42.1744 20.04 42.2864 19.64 42.5744 19.352C42.8784 19.064 43.2624 18.848 43.7264 18.704C44.2384 18.528 44.7344 18.352 45.2144 18.176C45.7104 17.984 46.2144 17.816 46.7264 17.672ZM58.6336 34.976C58.1536 34.976 57.6576 34.952 57.1456 34.904C56.6496 34.856 56.1616 34.76 55.6816 34.616C55.2176 34.456 54.7776 34.24 54.3616 33.968C53.9616 33.696 53.6256 33.344 53.3536 32.912C53.0496 32.448 52.8336 31.952 52.7056 31.424C52.5936 30.88 52.5536 30.328 52.5856 29.768C52.6656 28.904 52.9536 28.168 53.4496 27.56C53.9616 26.952 54.6016 26.488 55.3696 26.168C55.3056 26.168 55.2016 26.128 55.0576 26.048C54.9296 25.968 54.7936 25.872 54.6496 25.76C54.5056 25.648 54.3696 25.544 54.2416 25.448C54.1296 25.336 54.0496 25.264 54.0016 25.232C53.8096 25.024 53.6496 24.784 53.5216 24.512C53.4096 24.24 53.3136 23.968 53.2336 23.696C53.0256 22.976 53.0016 22.224 53.1616 21.44C53.3216 20.64 53.6496 19.944 54.1456 19.352C54.3536 19.096 54.6176 18.872 54.9376 18.68C55.2576 18.472 55.6016 18.304 55.9696 18.176C56.3376 18.032 56.7056 17.92 57.0736 17.84C57.4576 17.76 57.8016 17.72 58.1056 17.72C58.5216 17.72 58.9296 17.712 59.3296 17.696C59.7296 17.68 60.1296 17.704 60.5296 17.768C61.0256 17.848 61.4816 18.008 61.8976 18.248C62.3296 18.488 62.7056 18.784 63.0256 19.136C63.6656 19.84 64.0736 20.632 64.2496 21.512C64.4416 22.376 64.4176 23.264 64.1776 24.176C64.0976 24.432 63.9776 24.672 63.8176 24.896C63.6576 25.104 63.4736 25.304 63.2656 25.496C63.2176 25.528 63.1376 25.584 63.0256 25.664C62.9136 25.744 62.7856 25.832 62.6416 25.928C62.5136 26.008 62.3856 26.08 62.2576 26.144C62.1296 26.192 62.0336 26.208 61.9696 26.192C62.3536 26.432 62.7216 26.672 63.0736 26.912C63.4256 27.136 63.7136 27.456 63.9376 27.872C64.1616 28.288 64.3216 28.728 64.4176 29.192C64.5296 29.656 64.5696 30.12 64.5376 30.584C64.5216 31.048 64.4336 31.504 64.2736 31.952C64.1136 32.384 63.8816 32.776 63.5776 33.128C63.2736 33.48 62.9216 33.776 62.5216 34.016C62.1376 34.24 61.7296 34.424 61.2976 34.568C60.8656 34.712 60.4176 34.816 59.9536 34.88C59.5056 34.944 59.0656 34.976 58.6336 34.976ZM58.6816 27.968C58.3296 27.984 57.9696 28.032 57.6016 28.112C57.2496 28.192 56.9216 28.32 56.6176 28.496C56.3296 28.656 56.0816 28.88 55.8736 29.168C55.6656 29.44 55.5376 29.784 55.4896 30.2C55.4576 30.52 55.4976 30.808 55.6096 31.064C55.7376 31.304 55.8976 31.52 56.0896 31.712C56.2976 31.888 56.5376 32.032 56.8096 32.144C57.0816 32.24 57.3536 32.304 57.6256 32.336C58.2656 32.432 58.8816 32.424 59.4736 32.312C59.6976 32.264 59.9056 32.224 60.0976 32.192C60.3056 32.144 60.4896 32.08 60.6496 32C60.8256 31.92 60.9776 31.816 61.1056 31.688C61.2496 31.544 61.3696 31.352 61.4656 31.112C61.6096 30.776 61.6656 30.4 61.6336 29.984C61.6176 29.552 61.4896 29.2 61.2496 28.928C60.8976 28.512 60.5056 28.24 60.0736 28.112C59.6576 27.984 59.1936 27.936 58.6816 27.968ZM58.7056 20.36C58.3376 20.392 57.9856 20.448 57.6496 20.528C57.3136 20.608 57.0176 20.736 56.7616 20.912C56.5056 21.088 56.3056 21.32 56.1616 21.608C56.0336 21.896 55.9776 22.256 55.9936 22.688C56.0096 22.992 56.0576 23.28 56.1376 23.552C56.2176 23.808 56.3696 24.048 56.5936 24.272C56.8656 24.592 57.1936 24.784 57.5776 24.848C57.9616 24.896 58.3456 24.912 58.7296 24.896C59.3216 24.896 59.8336 24.808 60.2656 24.632C60.7136 24.456 61.0736 24.08 61.3456 23.504C61.5536 23.04 61.6096 22.608 61.5136 22.208C61.4176 21.808 61.2336 21.472 60.9616 21.2C60.6896 20.912 60.3456 20.696 59.9296 20.552C59.5296 20.392 59.1216 20.328 58.7056 20.36Z" fill="white"/>
<defs>
<filter id="filter0_d_128:216" x="0" y="0" width="163.037" height="89.7227" filterUnits="userSpaceOnUse" color-interpolation-filters="sRGB">
<feFlood flood-opacity="0" result="BackgroundImageFix"/>
<feColorMatrix in="SourceAlpha" type="matrix" values="0 0 0 0 0 0 0 0 0 0 0 0 0 0 0 0 0 0 127 0" result="hardAlpha"/>
<feOffset dx="-4" dy="-4"/>
<feGaussianBlur stdDeviation="2"/>
<feComposite in2="hardAlpha" operator="out"/>
<feColorMatrix type="matrix" values="0 0 0 0 0 0 0 0 0 0 0 0 0 0 0 0 0 0 0.25 0"/>
<feBlend mode="normal" in2="BackgroundImageFix" result="effect1_dropShadow_128:216"/>
<feBlend mode="normal" in="SourceGraphic" in2="effect1_dropShadow_128:216" result="shape"/>
</filter>
</defs>
</svg>
