<svg width="173" height="98" viewBox="0 0 173 98" fill="none" xmlns="http://www.w3.org/2000/svg">
<path d="M9.02617 7.54883H54.7707H153.621H172.024V53.2933C172.024 53.2933 172.024 55.3072 172.024 75.6182C172.024 95.9292 171.558 78.9118 172.024 88.7929C172.49 98.6739 164.136 96.4781 164.136 96.4781H95.2565H42.1508C42.1508 96.4781 15.859 97.0271 12.1789 96.4781C8.49883 95.9292 9.02617 93.1845 9.02617 93.1845V56.954V25.1151V7.54883Z" fill="white"/>
<g filter="url(#filter0_d_122:178)">
<path d="M9.02617 7.54895L11.629 7L12.1548 7.54895V7L14.258 7.54895H16.887L17.9386 7L18.4644 7.54895H18.9902L19.516 7L19.8143 8.09789L20.0418 7.54895L20.5676 7V8.09789L21.0934 7L20.0418 7.54895L22.145 7L22.6708 8.09789L24.2482 7.54895L28.4546 7L27.403 7.54895L41.5996 8.09789L46.3318 7L46.8576 7.54895H47.3834L47.9091 7L48.435 8.09789L48.9608 7.54895H53.1671L61.0541 8.09789L61.5799 7.54895L63.6831 8.64684L64.2089 8.09789L66.8379 7.54895L72.6217 8.09789L82.6119 7.54895L86.2925 8.09789L88.9215 7.54895L95.7569 8.09789L103.644 7.54895H109.953H116.789L130.985 8.09789L149.914 7.54895L153.595 8.09789L154.646 7.54895L155.698 8.64684L156.75 8.09789L172.024 7.54895V48.171C172.024 48.171 172.024 48.171 172.024 68.482C172.024 88.793 172.052 58.9293 172.024 66.7248C171.995 74.5204 135.718 80.5588 135.718 80.5588L93.1279 96.4782H42.1508C42.1508 96.4782 15.859 97.0272 12.1789 96.4782C8.49883 95.9293 9.02617 93.1846 9.02617 93.1846V56.9541V25.1152V7.54895Z" fill="#5A6E80"/>
</g>
<path d="M128.357 64.6392C123.624 72.3246 171.472 68.4819 171.472 68.4819C171.472 68.4819 167.849 74.2315 163.059 76.1672C146.76 82.7546 147.285 83.3035 138.873 83.3035C130.939 83.3035 120.411 91.8358 112.583 93.1845C98.9056 95.5409 93.165 96.3786 93.165 96.3786C98.05 98.5479 133.089 56.9538 128.357 64.6392Z" fill="#E6E6E6"/>
<path d="M18.0498 22.8013C17.8098 23.1693 17.5218 23.3933 17.1858 23.4733C16.8658 23.5533 16.5538 23.5293 16.2498 23.4013C15.9458 23.2733 15.6898 23.0653 15.4818 22.7773C15.2898 22.4733 15.2098 22.1293 15.2418 21.7453C15.2578 21.4893 15.3218 21.2093 15.4338 20.9053C15.5458 20.6013 15.6818 20.3133 15.8418 20.0413C16.0178 19.7533 16.2018 19.4893 16.3938 19.2493C16.6018 18.9933 16.8098 18.7773 17.0178 18.6013C17.4018 18.2973 17.8338 18.0333 18.3138 17.8093C18.8098 17.5853 19.3218 17.4173 19.8498 17.3053C20.3938 17.1933 20.9298 17.1453 21.4578 17.1613C22.0018 17.1773 22.5058 17.2573 22.9698 17.4013C24.2498 17.8013 25.2418 18.4333 25.9458 19.2973C26.6498 20.1613 27.0018 21.2813 27.0018 22.6573C27.0018 23.3133 26.9378 23.9053 26.8098 24.4333C26.6978 24.9453 26.4898 25.4413 26.1858 25.9213C25.8978 26.4013 25.5058 26.8893 25.0098 27.3853C24.5298 27.8813 23.9298 28.4253 23.2098 29.0173C22.9698 29.2253 22.7218 29.4333 22.4658 29.6413C22.2098 29.8493 21.9538 30.0573 21.6978 30.2653C21.6178 30.3293 21.4658 30.4253 21.2418 30.5533C21.0178 30.6813 20.8178 30.8093 20.6418 30.9373C20.4658 31.0653 20.3618 31.1853 20.3298 31.2973C20.2978 31.4093 20.4258 31.4733 20.7138 31.4893C21.0658 31.5213 21.3458 31.5293 21.5538 31.5133C21.7618 31.4973 22.0418 31.4893 22.3938 31.4893C22.8098 31.4893 23.2178 31.4813 23.6178 31.4653C24.0178 31.4493 24.4178 31.4573 24.8178 31.4893C24.9778 31.5053 25.1538 31.5133 25.3458 31.5133C25.5378 31.4973 25.7298 31.4973 25.9218 31.5133C26.1138 31.5133 26.2978 31.5373 26.4738 31.5853C26.6498 31.6173 26.8018 31.6893 26.9298 31.8013C27.0578 31.9133 27.1538 32.0653 27.2178 32.2573C27.2818 32.4493 27.3138 32.6573 27.3138 32.8813C27.3298 33.0893 27.3138 33.2973 27.2658 33.5053C27.2178 33.6973 27.1378 33.8493 27.0258 33.9613C26.8178 34.2013 26.5618 34.3213 26.2578 34.3213C25.9538 34.3053 25.6658 34.2973 25.3938 34.2973H16.7778C16.6178 34.2973 16.4418 34.3053 16.2498 34.3213C16.0738 34.3373 15.9138 34.3213 15.7698 34.2733C15.4818 34.1933 15.3378 34.0413 15.3378 33.8173C15.3538 33.5933 15.3618 33.3613 15.3618 33.1213C15.3618 32.7213 15.4578 32.3533 15.6498 32.0173C15.8418 31.6653 16.0818 31.3453 16.3698 31.0573C16.6738 30.7533 16.9938 30.4733 17.3298 30.2173C17.6658 29.9613 17.9778 29.7133 18.2658 29.4733C18.6818 29.1053 19.1298 28.7373 19.6098 28.3693C20.0898 28.0013 20.5458 27.6333 20.9778 27.2653C21.5378 26.8013 22.0098 26.3773 22.3938 25.9933C22.7938 25.6093 23.1138 25.2493 23.3538 24.9133C23.5938 24.5773 23.7698 24.2493 23.8818 23.9293C23.9938 23.5933 24.0498 23.2413 24.0498 22.8733C24.0498 22.0573 23.8018 21.4333 23.3058 21.0013C22.8098 20.5533 22.1778 20.3293 21.4098 20.3293C20.8498 20.3293 20.3218 20.4493 19.8258 20.6893C19.3458 20.9293 18.9458 21.2813 18.6258 21.7453C18.5298 21.9213 18.4338 22.1053 18.3378 22.2973C18.2578 22.4733 18.1618 22.6413 18.0498 22.8013ZM35.6649 34.4173C35.3769 34.4173 35.0809 34.4013 34.7769 34.3693C34.4889 34.3213 34.2009 34.2413 33.9129 34.1293C33.4809 33.9533 33.0649 33.7213 32.6649 33.4333C32.2809 33.1293 31.9289 32.7933 31.6089 32.4253C30.8409 31.5613 30.2569 30.5453 29.8569 29.3773C29.4569 28.1933 29.2569 26.9933 29.2569 25.7773C29.2569 24.1133 29.5769 22.5053 30.2169 20.9533C30.3289 20.6813 30.4729 20.3933 30.6489 20.0893C30.8409 19.7853 31.0489 19.4973 31.2729 19.2253C31.5129 18.9373 31.7529 18.6813 31.9929 18.4573C32.2489 18.2333 32.5049 18.0653 32.7609 17.9533C33.1129 17.7933 33.4969 17.6333 33.9129 17.4733C34.4249 17.3133 35.0009 17.2413 35.6409 17.2573C36.2809 17.2733 36.8649 17.3453 37.3929 17.4733C38.1289 17.6493 38.7609 17.9693 39.2889 18.4333C39.8169 18.8813 40.2649 19.4253 40.6329 20.0653C41.0009 20.6893 41.2889 21.3773 41.4969 22.1293C41.7049 22.8653 41.8569 23.6173 41.9529 24.3853C42.0169 24.8973 42.0409 25.4093 42.0249 25.9213C42.0089 26.4173 41.9689 26.9213 41.9049 27.4333C41.8409 27.8973 41.7609 28.3613 41.6649 28.8253C41.5849 29.2893 41.4729 29.7373 41.3289 30.1693C41.1849 30.6013 41.0009 31.0173 40.7769 31.4173C40.5529 31.8013 40.2729 32.1613 39.9369 32.4973C39.3289 33.0893 38.6649 33.5533 37.9449 33.8893C37.2409 34.2093 36.4809 34.3853 35.6649 34.4173ZM35.6409 20.4253C35.4169 20.4253 35.1929 20.4493 34.9689 20.4973C34.7609 20.5293 34.5609 20.6093 34.3689 20.7373C34.1449 20.8813 33.9449 21.0573 33.7689 21.2653C33.5929 21.4733 33.4409 21.6893 33.3129 21.9133C32.9769 22.4893 32.7449 23.1053 32.6169 23.7613C32.4889 24.4173 32.4249 25.0813 32.4249 25.7533C32.4249 26.4413 32.4969 27.1533 32.6409 27.8893C32.8009 28.6253 33.0809 29.2973 33.4809 29.9053C33.6729 30.1933 33.8969 30.4493 34.1529 30.6733C34.4249 30.8813 34.7369 31.0333 35.0889 31.1293C35.4089 31.2093 35.7289 31.2333 36.0489 31.2013C36.3849 31.1693 36.6969 31.0653 36.9849 30.8893C37.4489 30.6013 37.8169 30.2173 38.0889 29.7373C38.3609 29.2573 38.5609 28.7373 38.6889 28.1773C38.8329 27.6173 38.9129 27.0413 38.9289 26.4493C38.9609 25.8573 38.9609 25.3213 38.9289 24.8413C38.8969 24.3613 38.8169 23.8573 38.6889 23.3293C38.5609 22.8013 38.3689 22.3213 38.1129 21.8893C37.8729 21.4573 37.5449 21.1053 37.1289 20.8333C36.7289 20.5453 36.2329 20.4093 35.6409 20.4253ZM47.9842 17.1613C48.0962 17.1293 48.2002 17.1053 48.2962 17.0893C48.3922 17.0573 48.4882 17.0333 48.5842 17.0173C48.6962 16.9853 48.8322 16.9693 48.9922 16.9693C49.1682 16.9533 49.3282 16.9613 49.4722 16.9933C49.6322 17.0093 49.7762 17.0573 49.9042 17.1373C50.0482 17.2013 50.1522 17.3053 50.2162 17.4493C50.2802 17.6093 50.3202 17.8013 50.3362 18.0253C50.3682 18.2333 50.3842 18.4493 50.3842 18.6733C50.3842 18.8973 50.3762 19.1213 50.3602 19.3453C50.3602 19.5533 50.3602 19.7453 50.3602 19.9213V32.1853C50.3602 32.3613 50.3602 32.5453 50.3602 32.7373C50.3762 32.9133 50.3762 33.0973 50.3602 33.2893C50.3442 33.4813 50.2962 33.6653 50.2162 33.8413C50.1362 34.0013 50.0162 34.1373 49.8562 34.2493C49.6322 34.4253 49.3282 34.5133 48.9442 34.5133C48.5762 34.5293 48.2562 34.4893 47.9842 34.3933C47.6962 34.2973 47.5202 34.1133 47.4562 33.8413C47.4082 33.5693 47.3842 33.2973 47.3842 33.0253C47.2722 30.9133 47.2162 28.8493 47.2162 26.8333C47.2322 24.8013 47.2402 22.7133 47.2402 20.5693C47.2082 20.6493 47.0962 20.7213 46.9042 20.7853C46.7282 20.8493 46.5202 20.9053 46.2802 20.9533C46.0562 21.0013 45.8402 21.0413 45.6322 21.0733C45.4242 21.1053 45.2882 21.1213 45.2242 21.1213C44.8082 21.1693 44.4242 21.1293 44.0722 21.0013C43.7362 20.8573 43.5442 20.5373 43.4962 20.0413C43.4322 19.5293 43.5442 19.1293 43.8322 18.8413C44.1362 18.5533 44.5202 18.3373 44.9842 18.1933C45.4962 18.0173 45.9922 17.8413 46.4722 17.6653C46.9682 17.4733 47.4722 17.3053 47.9842 17.1613ZM56.6514 22.8013C56.4114 23.1693 56.1234 23.3933 55.7874 23.4733C55.4674 23.5533 55.1554 23.5293 54.8514 23.4013C54.5474 23.2733 54.2914 23.0653 54.0834 22.7773C53.8914 22.4733 53.8114 22.1293 53.8434 21.7453C53.8594 21.4893 53.9234 21.2093 54.0354 20.9053C54.1474 20.6013 54.2834 20.3133 54.4434 20.0413C54.6194 19.7533 54.8034 19.4893 54.9954 19.2493C55.2034 18.9933 55.4114 18.7773 55.6194 18.6013C56.0034 18.2973 56.4354 18.0333 56.9154 17.8093C57.4114 17.5853 57.9234 17.4173 58.4514 17.3053C58.9954 17.1933 59.5314 17.1453 60.0594 17.1613C60.6034 17.1773 61.1074 17.2573 61.5714 17.4013C62.8514 17.8013 63.8434 18.4333 64.5474 19.2973C65.2514 20.1613 65.6034 21.2813 65.6034 22.6573C65.6034 23.3133 65.5394 23.9053 65.4114 24.4333C65.2994 24.9453 65.0914 25.4413 64.7874 25.9213C64.4994 26.4013 64.1074 26.8893 63.6114 27.3853C63.1314 27.8813 62.5314 28.4253 61.8114 29.0173C61.5714 29.2253 61.3234 29.4333 61.0674 29.6413C60.8114 29.8493 60.5554 30.0573 60.2994 30.2653C60.2194 30.3293 60.0674 30.4253 59.8434 30.5533C59.6194 30.6813 59.4194 30.8093 59.2434 30.9373C59.0674 31.0653 58.9634 31.1853 58.9314 31.2973C58.8994 31.4093 59.0274 31.4733 59.3154 31.4893C59.6674 31.5213 59.9474 31.5293 60.1554 31.5133C60.3634 31.4973 60.6434 31.4893 60.9954 31.4893C61.4114 31.4893 61.8194 31.4813 62.2194 31.4653C62.6194 31.4493 63.0194 31.4573 63.4194 31.4893C63.5794 31.5053 63.7554 31.5133 63.9474 31.5133C64.1394 31.4973 64.3314 31.4973 64.5234 31.5133C64.7154 31.5133 64.8994 31.5373 65.0754 31.5853C65.2514 31.6173 65.4034 31.6893 65.5314 31.8013C65.6594 31.9133 65.7554 32.0653 65.8194 32.2573C65.8834 32.4493 65.9154 32.6573 65.9154 32.8813C65.9314 33.0893 65.9154 33.2973 65.8674 33.5053C65.8194 33.6973 65.7394 33.8493 65.6274 33.9613C65.4194 34.2013 65.1634 34.3213 64.8594 34.3213C64.5554 34.3053 64.2674 34.2973 63.9954 34.2973H55.3794C55.2194 34.2973 55.0434 34.3053 54.8514 34.3213C54.6754 34.3373 54.5154 34.3213 54.3714 34.2733C54.0834 34.1933 53.9394 34.0413 53.9394 33.8173C53.9554 33.5933 53.9634 33.3613 53.9634 33.1213C53.9634 32.7213 54.0594 32.3533 54.2514 32.0173C54.4434 31.6653 54.6834 31.3453 54.9714 31.0573C55.2754 30.7533 55.5954 30.4733 55.9314 30.2173C56.2674 29.9613 56.5794 29.7133 56.8674 29.4733C57.2834 29.1053 57.7314 28.7373 58.2114 28.3693C58.6914 28.0013 59.1474 27.6333 59.5794 27.2653C60.1394 26.8013 60.6114 26.3773 60.9954 25.9933C61.3954 25.6093 61.7154 25.2493 61.9554 24.9133C62.1954 24.5773 62.3714 24.2493 62.4834 23.9293C62.5954 23.5933 62.6514 23.2413 62.6514 22.8733C62.6514 22.0573 62.4034 21.4333 61.9074 21.0013C61.4114 20.5533 60.7794 20.3293 60.0114 20.3293C59.4514 20.3293 58.9234 20.4493 58.4274 20.6893C57.9474 20.9293 57.5474 21.2813 57.2274 21.7453C57.1314 21.9213 57.0354 22.1053 56.9394 22.2973C56.8594 22.4733 56.7634 22.6413 56.6514 22.8013Z" fill="white"/>
<defs>
<filter id="filter0_d_122:178" x="0" y="0" width="172.037" height="97.7227" filterUnits="userSpaceOnUse" color-interpolation-filters="sRGB">
<feFlood flood-opacity="0" result="BackgroundImageFix"/>
<feColorMatrix in="SourceAlpha" type="matrix" values="0 0 0 0 0 0 0 0 0 0 0 0 0 0 0 0 0 0 127 0" result="hardAlpha"/>
<feOffset dx="-5" dy="-3"/>
<feGaussianBlur stdDeviation="2"/>
<feComposite in2="hardAlpha" operator="out"/>
<feColorMatrix type="matrix" values="0 0 0 0 0 0 0 0 0 0 0 0 0 0 0 0 0 0 0.25 0"/>
<feBlend mode="normal" in2="BackgroundImageFix" result="effect1_dropShadow_122:178"/>
<feBlend mode="normal" in="SourceGraphic" in2="effect1_dropShadow_122:178" result="shape"/>
</filter>
</defs>
</svg>
