<svg width="164" height="91" viewBox="0 0 164 91" fill="none" xmlns="http://www.w3.org/2000/svg">
<path d="M7.02488 9.5H50.5249H144.525H162.025V51.1657C162.025 51.1657 162.025 53 162.025 71.5C162.025 90 161.582 74.5 162.025 83.5C162.468 92.5 154.524 90.5 154.524 90.5H89.0242H38.5242C38.5242 90.5 13.5224 91 10.0229 90.5C6.52342 90 7.02488 87.5 7.02488 87.5V54.5V25.5V9.5Z" fill="white"/>
<g filter="url(#filter0_d_128:196)">
<path d="M7.02488 9.5L9.5 9L10 9.5V9L12 9.5H14.5L15.5 9L16 9.5H16.5L17 9L17.2837 10L17.5 9.5L18 9V10L18.5 9L17.5 9.5L19.5 9L20 10L21.5 9.5L25.5 9L24.5 9.5L38 10L42.5 9L43 9.5H43.5L44 9L44.5 10L45 9.5H49L56.5 10L57 9.5L59 10.5L59.5 10L62 9.5L67.5 10L77 9.5L80.5 10L83 9.5L89.5 10L97 9.5H103H109.5L123 10L141 9.5L144.5 10L145.5 9.5L146.5 10.5L147.5 10L162.025 9.5V46.5C162.025 46.5 162.025 46.5 162.025 65C162.025 83.5 162.052 56.2991 162.025 63.3995C161.998 70.5 126.5 87.5 126.5 87.5L87 90.5H38.5242C38.5242 90.5 13.5224 91 10.0229 90.5C6.52342 90 7.02488 87.5 7.02488 87.5V54.5V25.5V9.5Z" fill="#5A6E80"/>
</g>
<path d="M141.179 63.7816C139.003 70.1137 161 66.9476 161 66.9476C161 66.9476 159.334 71.6848 157.132 73.2796C149.639 78.7071 149.881 79.1594 146.013 79.1594C142.366 79.1594 137.526 86.1892 133.927 87.3005C127.639 89.2419 127.5 87.3006 127.5 87.3006C129.746 89.0879 143.354 57.4494 141.179 63.7816Z" fill="#E6E6E6"/>
<path d="M15.792 26.312C15.552 26.68 15.264 26.904 14.928 26.984C14.608 27.064 14.296 27.04 13.992 26.912C13.688 26.784 13.432 26.576 13.224 26.288C13.032 25.984 12.952 25.64 12.984 25.256C13 25 13.064 24.72 13.176 24.416C13.288 24.112 13.424 23.824 13.584 23.552C13.76 23.264 13.944 23 14.136 22.76C14.344 22.504 14.552 22.288 14.76 22.112C15.144 21.808 15.576 21.544 16.056 21.32C16.552 21.096 17.064 20.928 17.592 20.816C18.136 20.704 18.672 20.656 19.2 20.672C19.744 20.688 20.248 20.768 20.712 20.912C21.992 21.312 22.984 21.944 23.688 22.808C24.392 23.672 24.744 24.792 24.744 26.168C24.744 26.824 24.68 27.416 24.552 27.944C24.44 28.456 24.232 28.952 23.928 29.432C23.64 29.912 23.248 30.4 22.752 30.896C22.272 31.392 21.672 31.936 20.952 32.528C20.712 32.736 20.464 32.944 20.208 33.152C19.952 33.36 19.696 33.568 19.44 33.776C19.36 33.84 19.208 33.936 18.984 34.064C18.76 34.192 18.56 34.32 18.384 34.448C18.208 34.576 18.104 34.696 18.072 34.808C18.04 34.92 18.168 34.984 18.456 35C18.808 35.032 19.088 35.04 19.296 35.024C19.504 35.008 19.784 35 20.136 35C20.552 35 20.96 34.992 21.36 34.976C21.76 34.96 22.16 34.968 22.56 35C22.72 35.016 22.896 35.024 23.088 35.024C23.28 35.008 23.472 35.008 23.664 35.024C23.856 35.024 24.04 35.048 24.216 35.096C24.392 35.128 24.544 35.2 24.672 35.312C24.8 35.424 24.896 35.576 24.96 35.768C25.024 35.96 25.056 36.168 25.056 36.392C25.072 36.6 25.056 36.808 25.008 37.016C24.96 37.208 24.88 37.36 24.768 37.472C24.56 37.712 24.304 37.832 24 37.832C23.696 37.816 23.408 37.808 23.136 37.808H14.52C14.36 37.808 14.184 37.816 13.992 37.832C13.816 37.848 13.656 37.832 13.512 37.784C13.224 37.704 13.08 37.552 13.08 37.328C13.096 37.104 13.104 36.872 13.104 36.632C13.104 36.232 13.2 35.864 13.392 35.528C13.584 35.176 13.824 34.856 14.112 34.568C14.416 34.264 14.736 33.984 15.072 33.728C15.408 33.472 15.72 33.224 16.008 32.984C16.424 32.616 16.872 32.248 17.352 31.88C17.832 31.512 18.288 31.144 18.72 30.776C19.28 30.312 19.752 29.888 20.136 29.504C20.536 29.12 20.856 28.76 21.096 28.424C21.336 28.088 21.512 27.76 21.624 27.44C21.736 27.104 21.792 26.752 21.792 26.384C21.792 25.568 21.544 24.944 21.048 24.512C20.552 24.064 19.92 23.84 19.152 23.84C18.592 23.84 18.064 23.96 17.568 24.2C17.088 24.44 16.688 24.792 16.368 25.256C16.272 25.432 16.176 25.616 16.08 25.808C16 25.984 15.904 26.152 15.792 26.312ZM33.4071 37.928C33.1191 37.928 32.8231 37.912 32.5191 37.88C32.2311 37.832 31.9431 37.752 31.6551 37.64C31.2231 37.464 30.8071 37.232 30.4071 36.944C30.0231 36.64 29.6711 36.304 29.3511 35.936C28.5831 35.072 27.9991 34.056 27.5991 32.888C27.1991 31.704 26.9991 30.504 26.9991 29.288C26.9991 27.624 27.3191 26.016 27.9591 24.464C28.0711 24.192 28.2151 23.904 28.3911 23.6C28.5831 23.296 28.7911 23.008 29.0151 22.736C29.2551 22.448 29.4951 22.192 29.7351 21.968C29.9911 21.744 30.2471 21.576 30.5031 21.464C30.8551 21.304 31.2391 21.144 31.6551 20.984C32.1671 20.824 32.7431 20.752 33.3831 20.768C34.0231 20.784 34.6071 20.856 35.1351 20.984C35.8711 21.16 36.5031 21.48 37.0311 21.944C37.5591 22.392 38.0071 22.936 38.3751 23.576C38.7431 24.2 39.0311 24.888 39.2391 25.64C39.4471 26.376 39.5991 27.128 39.6951 27.896C39.7591 28.408 39.7831 28.92 39.7671 29.432C39.7511 29.928 39.7111 30.432 39.6471 30.944C39.5831 31.408 39.5031 31.872 39.4071 32.336C39.3271 32.8 39.2151 33.248 39.0711 33.68C38.9271 34.112 38.7431 34.528 38.5191 34.928C38.2951 35.312 38.0151 35.672 37.6791 36.008C37.0711 36.6 36.4071 37.064 35.6871 37.4C34.9831 37.72 34.2231 37.896 33.4071 37.928ZM33.3831 23.936C33.1591 23.936 32.9351 23.96 32.7111 24.008C32.5031 24.04 32.3031 24.12 32.1111 24.248C31.8871 24.392 31.6871 24.568 31.5111 24.776C31.3351 24.984 31.1831 25.2 31.0551 25.424C30.7191 26 30.4871 26.616 30.3591 27.272C30.2311 27.928 30.1671 28.592 30.1671 29.264C30.1671 29.952 30.2391 30.664 30.3831 31.4C30.5431 32.136 30.8231 32.808 31.2231 33.416C31.4151 33.704 31.6391 33.96 31.8951 34.184C32.1671 34.392 32.4791 34.544 32.8311 34.64C33.1511 34.72 33.4711 34.744 33.7911 34.712C34.1271 34.68 34.4391 34.576 34.7271 34.4C35.1911 34.112 35.5591 33.728 35.8311 33.248C36.1031 32.768 36.3031 32.248 36.4311 31.688C36.5751 31.128 36.6551 30.552 36.6711 29.96C36.7031 29.368 36.7031 28.832 36.6711 28.352C36.6391 27.872 36.5591 27.368 36.4311 26.84C36.3031 26.312 36.1111 25.832 35.8551 25.4C35.6151 24.968 35.2871 24.616 34.8711 24.344C34.4711 24.056 33.9751 23.92 33.3831 23.936ZM45.7264 20.672C45.8384 20.64 45.9424 20.616 46.0384 20.6C46.1344 20.568 46.2304 20.544 46.3264 20.528C46.4384 20.496 46.5744 20.48 46.7344 20.48C46.9104 20.464 47.0704 20.472 47.2144 20.504C47.3744 20.52 47.5184 20.568 47.6464 20.648C47.7904 20.712 47.8944 20.816 47.9584 20.96C48.0224 21.12 48.0624 21.312 48.0784 21.536C48.1104 21.744 48.1264 21.96 48.1264 22.184C48.1264 22.408 48.1184 22.632 48.1024 22.856C48.1024 23.064 48.1024 23.256 48.1024 23.432V35.696C48.1024 35.872 48.1024 36.056 48.1024 36.248C48.1184 36.424 48.1184 36.608 48.1024 36.8C48.0864 36.992 48.0384 37.176 47.9584 37.352C47.8784 37.512 47.7584 37.648 47.5984 37.76C47.3744 37.936 47.0704 38.024 46.6864 38.024C46.3184 38.04 45.9984 38 45.7264 37.904C45.4384 37.808 45.2624 37.624 45.1984 37.352C45.1504 37.08 45.1264 36.808 45.1264 36.536C45.0144 34.424 44.9584 32.36 44.9584 30.344C44.9744 28.312 44.9824 26.224 44.9824 24.08C44.9504 24.16 44.8384 24.232 44.6464 24.296C44.4704 24.36 44.2624 24.416 44.0224 24.464C43.7984 24.512 43.5824 24.552 43.3744 24.584C43.1664 24.616 43.0304 24.632 42.9664 24.632C42.5504 24.68 42.1664 24.64 41.8144 24.512C41.4784 24.368 41.2864 24.048 41.2384 23.552C41.1744 23.04 41.2864 22.64 41.5744 22.352C41.8784 22.064 42.2624 21.848 42.7264 21.704C43.2384 21.528 43.7344 21.352 44.2144 21.176C44.7104 20.984 45.2144 20.816 45.7264 20.672ZM55.5936 20.672C55.7056 20.64 55.8096 20.616 55.9056 20.6C56.0016 20.568 56.0976 20.544 56.1936 20.528C56.3056 20.496 56.4416 20.48 56.6016 20.48C56.7776 20.464 56.9376 20.472 57.0816 20.504C57.2416 20.52 57.3856 20.568 57.5136 20.648C57.6576 20.712 57.7616 20.816 57.8256 20.96C57.8896 21.12 57.9296 21.312 57.9456 21.536C57.9776 21.744 57.9936 21.96 57.9936 22.184C57.9936 22.408 57.9856 22.632 57.9696 22.856C57.9696 23.064 57.9696 23.256 57.9696 23.432V35.696C57.9696 35.872 57.9696 36.056 57.9696 36.248C57.9856 36.424 57.9856 36.608 57.9696 36.8C57.9536 36.992 57.9056 37.176 57.8256 37.352C57.7456 37.512 57.6256 37.648 57.4656 37.76C57.2416 37.936 56.9376 38.024 56.5536 38.024C56.1856 38.04 55.8656 38 55.5936 37.904C55.3056 37.808 55.1296 37.624 55.0656 37.352C55.0176 37.08 54.9936 36.808 54.9936 36.536C54.8816 34.424 54.8256 32.36 54.8256 30.344C54.8416 28.312 54.8496 26.224 54.8496 24.08C54.8176 24.16 54.7056 24.232 54.5136 24.296C54.3376 24.36 54.1296 24.416 53.8896 24.464C53.6656 24.512 53.4496 24.552 53.2416 24.584C53.0336 24.616 52.8976 24.632 52.8336 24.632C52.4176 24.68 52.0336 24.64 51.6816 24.512C51.3456 24.368 51.1536 24.048 51.1056 23.552C51.0416 23.04 51.1536 22.64 51.4416 22.352C51.7456 22.064 52.1296 21.848 52.5936 21.704C53.1056 21.528 53.6016 21.352 54.0816 21.176C54.5776 20.984 55.0816 20.816 55.5936 20.672Z" fill="white"/>
<defs>
<filter id="filter0_d_128:196" x="0" y="0" width="163.037" height="90.7227" filterUnits="userSpaceOnUse" color-interpolation-filters="sRGB">
<feFlood flood-opacity="0" result="BackgroundImageFix"/>
<feColorMatrix in="SourceAlpha" type="matrix" values="0 0 0 0 0 0 0 0 0 0 0 0 0 0 0 0 0 0 127 0" result="hardAlpha"/>
<feOffset dx="-3" dy="-5"/>
<feGaussianBlur stdDeviation="2"/>
<feComposite in2="hardAlpha" operator="out"/>
<feColorMatrix type="matrix" values="0 0 0 0 0 0 0 0 0 0 0 0 0 0 0 0 0 0 0.25 0"/>
<feBlend mode="normal" in2="BackgroundImageFix" result="effect1_dropShadow_128:196"/>
<feBlend mode="normal" in="SourceGraphic" in2="effect1_dropShadow_128:196" result="shape"/>
</filter>
</defs>
</svg>
