<svg width="164" height="92" viewBox="0 0 164 92" fill="none" xmlns="http://www.w3.org/2000/svg">
<path d="M8.02488 10.5H51.5249H145.525H163.025V52.1657C163.025 52.1657 163.025 54 163.025 72.5C163.025 91 162.582 75.5 163.025 84.5C163.468 93.5 155.524 91.5 155.524 91.5H90.0242H39.5242C39.5242 91.5 14.5224 92 11.0229 91.5C7.52342 91 8.02488 88.5 8.02488 88.5V55.5V26.5V10.5Z" fill="white"/>
<g filter="url(#filter0_d_128:201)">
<path d="M8.02488 10.5L10.5 10L11 10.5V10L13 10.5H15.5L16.5 10L17 10.5H17.5L18 10L18.2837 11L18.5 10.5L19 10V11L19.5 10L18.5 10.5L20.5 10L21 11L22.5 10.5L26.5 10L25.5 10.5L39 11L43.5 10L44 10.5H44.5L45 10L45.5 11L46 10.5H50L57.5 11L58 10.5L60 11.5L60.5 11L63 10.5L68.5 11L78 10.5L81.5 11L84 10.5L90.5 11L98 10.5H104H110.5L124 11L142 10.5L145.5 11L146.5 10.5L147.5 11.5L148.5 11L163.025 10.5V47.5C163.025 47.5 163.025 47.5 163.025 66C163.025 84.5 163.052 57.2991 163.025 64.3995C162.998 71.5 128.5 77 128.5 77L88 91.5H39.5242C39.5242 91.5 14.5224 92 11.0229 91.5C7.52342 91 8.02488 88.5 8.02488 88.5V55.5V26.5V10.5Z" fill="#5A6E80"/>
</g>
<path d="M121.5 62.4999C117 69.5001 162.5 66 162.5 66C162.5 66 159.054 71.237 154.5 73C139 79.0001 139.5 79.5001 131.5 79.5001C123.955 79.5001 113.944 87.2715 106.5 88.5C93.494 90.6463 88.0352 91.4093 88.0352 91.4093C92.6805 93.3852 126 55.4998 121.5 62.4999Z" fill="#E6E6E6"/>
<path d="M16.792 25.312C16.552 25.68 16.264 25.904 15.928 25.984C15.608 26.064 15.296 26.04 14.992 25.912C14.688 25.784 14.432 25.576 14.224 25.288C14.032 24.984 13.952 24.64 13.984 24.256C14 24 14.064 23.72 14.176 23.416C14.288 23.112 14.424 22.824 14.584 22.552C14.76 22.264 14.944 22 15.136 21.76C15.344 21.504 15.552 21.288 15.76 21.112C16.144 20.808 16.576 20.544 17.056 20.32C17.552 20.096 18.064 19.928 18.592 19.816C19.136 19.704 19.672 19.656 20.2 19.672C20.744 19.688 21.248 19.768 21.712 19.912C22.992 20.312 23.984 20.944 24.688 21.808C25.392 22.672 25.744 23.792 25.744 25.168C25.744 25.824 25.68 26.416 25.552 26.944C25.44 27.456 25.232 27.952 24.928 28.432C24.64 28.912 24.248 29.4 23.752 29.896C23.272 30.392 22.672 30.936 21.952 31.528C21.712 31.736 21.464 31.944 21.208 32.152C20.952 32.36 20.696 32.568 20.44 32.776C20.36 32.84 20.208 32.936 19.984 33.064C19.76 33.192 19.56 33.32 19.384 33.448C19.208 33.576 19.104 33.696 19.072 33.808C19.04 33.92 19.168 33.984 19.456 34C19.808 34.032 20.088 34.04 20.296 34.024C20.504 34.008 20.784 34 21.136 34C21.552 34 21.96 33.992 22.36 33.976C22.76 33.96 23.16 33.968 23.56 34C23.72 34.016 23.896 34.024 24.088 34.024C24.28 34.008 24.472 34.008 24.664 34.024C24.856 34.024 25.04 34.048 25.216 34.096C25.392 34.128 25.544 34.2 25.672 34.312C25.8 34.424 25.896 34.576 25.96 34.768C26.024 34.96 26.056 35.168 26.056 35.392C26.072 35.6 26.056 35.808 26.008 36.016C25.96 36.208 25.88 36.36 25.768 36.472C25.56 36.712 25.304 36.832 25 36.832C24.696 36.816 24.408 36.808 24.136 36.808H15.52C15.36 36.808 15.184 36.816 14.992 36.832C14.816 36.848 14.656 36.832 14.512 36.784C14.224 36.704 14.08 36.552 14.08 36.328C14.096 36.104 14.104 35.872 14.104 35.632C14.104 35.232 14.2 34.864 14.392 34.528C14.584 34.176 14.824 33.856 15.112 33.568C15.416 33.264 15.736 32.984 16.072 32.728C16.408 32.472 16.72 32.224 17.008 31.984C17.424 31.616 17.872 31.248 18.352 30.88C18.832 30.512 19.288 30.144 19.72 29.776C20.28 29.312 20.752 28.888 21.136 28.504C21.536 28.12 21.856 27.76 22.096 27.424C22.336 27.088 22.512 26.76 22.624 26.44C22.736 26.104 22.792 25.752 22.792 25.384C22.792 24.568 22.544 23.944 22.048 23.512C21.552 23.064 20.92 22.84 20.152 22.84C19.592 22.84 19.064 22.96 18.568 23.2C18.088 23.44 17.688 23.792 17.368 24.256C17.272 24.432 17.176 24.616 17.08 24.808C17 24.984 16.904 25.152 16.792 25.312ZM34.4071 36.928C34.1191 36.928 33.8231 36.912 33.5191 36.88C33.2311 36.832 32.9431 36.752 32.6551 36.64C32.2231 36.464 31.8071 36.232 31.4071 35.944C31.0231 35.64 30.6711 35.304 30.3511 34.936C29.5831 34.072 28.9991 33.056 28.5991 31.888C28.1991 30.704 27.9991 29.504 27.9991 28.288C27.9991 26.624 28.3191 25.016 28.9591 23.464C29.0711 23.192 29.2151 22.904 29.3911 22.6C29.5831 22.296 29.7911 22.008 30.0151 21.736C30.2551 21.448 30.4951 21.192 30.7351 20.968C30.9911 20.744 31.2471 20.576 31.5031 20.464C31.8551 20.304 32.2391 20.144 32.6551 19.984C33.1671 19.824 33.7431 19.752 34.3831 19.768C35.0231 19.784 35.6071 19.856 36.1351 19.984C36.8711 20.16 37.5031 20.48 38.0311 20.944C38.5591 21.392 39.0071 21.936 39.3751 22.576C39.7431 23.2 40.0311 23.888 40.2391 24.64C40.4471 25.376 40.5991 26.128 40.6951 26.896C40.7591 27.408 40.7831 27.92 40.7671 28.432C40.7511 28.928 40.7111 29.432 40.6471 29.944C40.5831 30.408 40.5031 30.872 40.4071 31.336C40.3271 31.8 40.2151 32.248 40.0711 32.68C39.9271 33.112 39.7431 33.528 39.5191 33.928C39.2951 34.312 39.0151 34.672 38.6791 35.008C38.0711 35.6 37.4071 36.064 36.6871 36.4C35.9831 36.72 35.2231 36.896 34.4071 36.928ZM34.3831 22.936C34.1591 22.936 33.9351 22.96 33.7111 23.008C33.5031 23.04 33.3031 23.12 33.1111 23.248C32.8871 23.392 32.6871 23.568 32.5111 23.776C32.3351 23.984 32.1831 24.2 32.0551 24.424C31.7191 25 31.4871 25.616 31.3591 26.272C31.2311 26.928 31.1671 27.592 31.1671 28.264C31.1671 28.952 31.2391 29.664 31.3831 30.4C31.5431 31.136 31.8231 31.808 32.2231 32.416C32.4151 32.704 32.6391 32.96 32.8951 33.184C33.1671 33.392 33.4791 33.544 33.8311 33.64C34.1511 33.72 34.4711 33.744 34.7911 33.712C35.1271 33.68 35.4391 33.576 35.7271 33.4C36.1911 33.112 36.5591 32.728 36.8311 32.248C37.1031 31.768 37.3031 31.248 37.4311 30.688C37.5751 30.128 37.6551 29.552 37.6711 28.96C37.7031 28.368 37.7031 27.832 37.6711 27.352C37.6391 26.872 37.5591 26.368 37.4311 25.84C37.3031 25.312 37.1111 24.832 36.8551 24.4C36.6151 23.968 36.2871 23.616 35.8711 23.344C35.4711 23.056 34.9751 22.92 34.3831 22.936ZM46.7264 19.672C46.8384 19.64 46.9424 19.616 47.0384 19.6C47.1344 19.568 47.2304 19.544 47.3264 19.528C47.4384 19.496 47.5744 19.48 47.7344 19.48C47.9104 19.464 48.0704 19.472 48.2144 19.504C48.3744 19.52 48.5184 19.568 48.6464 19.648C48.7904 19.712 48.8944 19.816 48.9584 19.96C49.0224 20.12 49.0624 20.312 49.0784 20.536C49.1104 20.744 49.1264 20.96 49.1264 21.184C49.1264 21.408 49.1184 21.632 49.1024 21.856C49.1024 22.064 49.1024 22.256 49.1024 22.432V34.696C49.1024 34.872 49.1024 35.056 49.1024 35.248C49.1184 35.424 49.1184 35.608 49.1024 35.8C49.0864 35.992 49.0384 36.176 48.9584 36.352C48.8784 36.512 48.7584 36.648 48.5984 36.76C48.3744 36.936 48.0704 37.024 47.6864 37.024C47.3184 37.04 46.9984 37 46.7264 36.904C46.4384 36.808 46.2624 36.624 46.1984 36.352C46.1504 36.08 46.1264 35.808 46.1264 35.536C46.0144 33.424 45.9584 31.36 45.9584 29.344C45.9744 27.312 45.9824 25.224 45.9824 23.08C45.9504 23.16 45.8384 23.232 45.6464 23.296C45.4704 23.36 45.2624 23.416 45.0224 23.464C44.7984 23.512 44.5824 23.552 44.3744 23.584C44.1664 23.616 44.0304 23.632 43.9664 23.632C43.5504 23.68 43.1664 23.64 42.8144 23.512C42.4784 23.368 42.2864 23.048 42.2384 22.552C42.1744 22.04 42.2864 21.64 42.5744 21.352C42.8784 21.064 43.2624 20.848 43.7264 20.704C44.2384 20.528 44.7344 20.352 45.2144 20.176C45.7104 19.984 46.2144 19.816 46.7264 19.672ZM54.0736 20.224C54.2176 20.08 54.4016 19.992 54.6256 19.96C54.8656 19.912 55.1456 19.888 55.4656 19.888H61.3936C61.6016 19.888 61.8336 19.888 62.0896 19.888C62.3616 19.872 62.6176 19.888 62.8576 19.936C63.0976 19.984 63.3056 20.072 63.4816 20.2C63.6736 20.312 63.8096 20.496 63.8896 20.752C63.9376 20.912 63.9536 21.096 63.9376 21.304C63.9376 21.512 63.8976 21.712 63.8176 21.904C63.7536 22.08 63.6496 22.24 63.5056 22.384C63.3616 22.512 63.1856 22.584 62.9776 22.6C62.5616 22.68 62.1296 22.704 61.6816 22.672C61.2336 22.624 60.8016 22.6 60.3856 22.6C59.9216 22.6 59.5136 22.616 59.1616 22.648C58.8096 22.68 58.4096 22.696 57.9616 22.696C57.7856 22.696 57.5616 22.688 57.2896 22.672C57.0176 22.656 56.8096 22.672 56.6656 22.72C56.5376 22.752 56.4336 22.816 56.3536 22.912C56.2896 23.008 56.2416 23.12 56.2096 23.248C56.1776 23.36 56.1616 23.48 56.1616 23.608C56.1616 23.736 56.1616 23.848 56.1616 23.944C56.1616 24.216 56.1456 24.496 56.1136 24.784C56.0976 25.056 56.0816 25.328 56.0656 25.6C56.0336 25.968 56.0816 26.176 56.2096 26.224C56.3536 26.256 56.5936 26.224 56.9296 26.128C57.5056 25.984 58.0976 25.912 58.7056 25.912C59.5216 25.912 60.2816 26.024 60.9856 26.248C61.6896 26.456 62.2976 26.784 62.8096 27.232C63.3376 27.664 63.7456 28.216 64.0336 28.888C64.3376 29.544 64.4896 30.312 64.4896 31.192C64.4896 31.352 64.4816 31.504 64.4656 31.648C64.4656 31.792 64.4496 31.936 64.4176 32.08C64.2896 33.088 63.9136 33.976 63.2896 34.744C62.6656 35.512 61.8736 36.064 60.9136 36.4C59.7776 36.832 58.6016 37.032 57.3856 37C56.1696 36.952 55.0496 36.6 54.0256 35.944C53.7376 35.768 53.4736 35.56 53.2336 35.32C52.9936 35.064 52.8176 34.776 52.7056 34.456C52.5776 34.12 52.5376 33.776 52.5856 33.424C52.6496 33.056 52.8656 32.784 53.2336 32.608C53.5056 32.48 53.7536 32.44 53.9776 32.488C54.2176 32.52 54.4416 32.6 54.6496 32.728C54.8576 32.84 55.0576 32.984 55.2496 33.16C55.4576 33.32 55.6656 33.456 55.8736 33.568C56.2416 33.744 56.6256 33.896 57.0256 34.024C57.4256 34.136 57.8496 34.192 58.2976 34.192C59.2896 34.192 60.0816 33.928 60.6736 33.4C61.2816 32.872 61.5856 32.16 61.5856 31.264C61.5856 30.4 61.2736 29.728 60.6496 29.248C60.0256 28.752 59.1856 28.504 58.1296 28.504C57.8576 28.504 57.5856 28.52 57.3136 28.552C57.0416 28.584 56.7696 28.64 56.4976 28.72C56.2416 28.784 55.9856 28.856 55.7296 28.936C55.4896 29.016 55.2496 29.072 55.0096 29.104C54.7696 29.12 54.5296 29.096 54.2896 29.032C54.0656 28.952 53.8496 28.784 53.6416 28.528C53.4336 28.304 53.3296 28.032 53.3296 27.712C53.3296 27.392 53.3456 27.096 53.3776 26.824C53.4096 26.36 53.4336 25.896 53.4496 25.432C53.4656 24.968 53.4896 24.504 53.5216 24.04C53.5536 23.576 53.5776 23.12 53.5936 22.672C53.6256 22.208 53.6576 21.744 53.6896 21.28C53.7056 21.008 53.7456 20.792 53.8096 20.632C53.8736 20.472 53.9616 20.336 54.0736 20.224Z" fill="white"/>
<defs>
<filter id="filter0_d_128:201" x="0" y="0" width="163.037" height="91.7227" filterUnits="userSpaceOnUse" color-interpolation-filters="sRGB">
<feFlood flood-opacity="0" result="BackgroundImageFix"/>
<feColorMatrix in="SourceAlpha" type="matrix" values="0 0 0 0 0 0 0 0 0 0 0 0 0 0 0 0 0 0 127 0" result="hardAlpha"/>
<feOffset dx="-4" dy="-6"/>
<feGaussianBlur stdDeviation="2"/>
<feComposite in2="hardAlpha" operator="out"/>
<feColorMatrix type="matrix" values="0 0 0 0 0 0 0 0 0 0 0 0 0 0 0 0 0 0 0.25 0"/>
<feBlend mode="normal" in2="BackgroundImageFix" result="effect1_dropShadow_128:201"/>
<feBlend mode="normal" in="SourceGraphic" in2="effect1_dropShadow_128:201" result="shape"/>
</filter>
</defs>
</svg>
