<svg width="165" height="91" viewBox="0 0 165 91" fill="none" xmlns="http://www.w3.org/2000/svg">
<path d="M9.02488 9.5H52.5249H146.525H164.025V51.1657C164.025 51.1657 164.025 53 164.025 71.5C164.025 90 163.582 74.5 164.025 83.5C164.468 92.5 156.524 90.5 156.524 90.5H91.0242H40.5242C40.5242 90.5 15.5224 91 12.0229 90.5C8.52342 90 9.02488 87.5 9.02488 87.5V54.5V25.5V9.5Z" fill="white"/>
<g filter="url(#filter0_d_128:226)">
<path d="M9.02488 9.5L11.5 9L12 9.5V9L14 9.5H16.5L17.5 9L18 9.5H18.5L19 9L19.2837 10L19.5 9.5L20 9V10L20.5 9L19.5 9.5L21.5 9L22 10L23.5 9.5L27.5 9L26.5 9.5L40 10L44.5 9L45 9.5H45.5L46 9L46.5 10L47 9.5H51L58.5 10L59 9.5L61 10.5L61.5 10L64 9.5L69.5 10L79 9.5L82.5 10L85 9.5L91.5 10L99 9.5H105H111.5L125 10L143 9.5L146.5 10L147.5 9.5L148.5 10.5L149.5 10L164.025 9.5V46.5C164.025 46.5 164.025 46.5 164.025 65C164.025 83.5 164.052 56.2991 164.025 63.3995C163.998 70.5 128.5 87.5 128.5 87.5L89 90.5H40.5242C40.5242 90.5 15.5224 91 12.0229 90.5C8.52342 90 9.02488 87.5 9.02488 87.5V54.5V25.5V9.5Z" fill="#5A6E80"/>
</g>
<path d="M143.179 63.7816C141.003 70.1137 163 66.9476 163 66.9476C163 66.9476 161.334 71.6848 159.132 73.2796C151.639 78.7071 151.881 79.1594 148.013 79.1594C144.366 79.1594 139.526 86.1892 135.927 87.3005C129.639 89.2419 129.5 87.3006 129.5 87.3006C131.746 89.0879 145.354 57.4494 143.179 63.7816Z" fill="#E6E6E6"/>
<path d="M17.792 26.312C17.552 26.68 17.264 26.904 16.928 26.984C16.608 27.064 16.296 27.04 15.992 26.912C15.688 26.784 15.432 26.576 15.224 26.288C15.032 25.984 14.952 25.64 14.984 25.256C15 25 15.064 24.72 15.176 24.416C15.288 24.112 15.424 23.824 15.584 23.552C15.76 23.264 15.944 23 16.136 22.76C16.344 22.504 16.552 22.288 16.76 22.112C17.144 21.808 17.576 21.544 18.056 21.32C18.552 21.096 19.064 20.928 19.592 20.816C20.136 20.704 20.672 20.656 21.2 20.672C21.744 20.688 22.248 20.768 22.712 20.912C23.992 21.312 24.984 21.944 25.688 22.808C26.392 23.672 26.744 24.792 26.744 26.168C26.744 26.824 26.68 27.416 26.552 27.944C26.44 28.456 26.232 28.952 25.928 29.432C25.64 29.912 25.248 30.4 24.752 30.896C24.272 31.392 23.672 31.936 22.952 32.528C22.712 32.736 22.464 32.944 22.208 33.152C21.952 33.36 21.696 33.568 21.44 33.776C21.36 33.84 21.208 33.936 20.984 34.064C20.76 34.192 20.56 34.32 20.384 34.448C20.208 34.576 20.104 34.696 20.072 34.808C20.04 34.92 20.168 34.984 20.456 35C20.808 35.032 21.088 35.04 21.296 35.024C21.504 35.008 21.784 35 22.136 35C22.552 35 22.96 34.992 23.36 34.976C23.76 34.96 24.16 34.968 24.56 35C24.72 35.016 24.896 35.024 25.088 35.024C25.28 35.008 25.472 35.008 25.664 35.024C25.856 35.024 26.04 35.048 26.216 35.096C26.392 35.128 26.544 35.2 26.672 35.312C26.8 35.424 26.896 35.576 26.96 35.768C27.024 35.96 27.056 36.168 27.056 36.392C27.072 36.6 27.056 36.808 27.008 37.016C26.96 37.208 26.88 37.36 26.768 37.472C26.56 37.712 26.304 37.832 26 37.832C25.696 37.816 25.408 37.808 25.136 37.808H16.52C16.36 37.808 16.184 37.816 15.992 37.832C15.816 37.848 15.656 37.832 15.512 37.784C15.224 37.704 15.08 37.552 15.08 37.328C15.096 37.104 15.104 36.872 15.104 36.632C15.104 36.232 15.2 35.864 15.392 35.528C15.584 35.176 15.824 34.856 16.112 34.568C16.416 34.264 16.736 33.984 17.072 33.728C17.408 33.472 17.72 33.224 18.008 32.984C18.424 32.616 18.872 32.248 19.352 31.88C19.832 31.512 20.288 31.144 20.72 30.776C21.28 30.312 21.752 29.888 22.136 29.504C22.536 29.12 22.856 28.76 23.096 28.424C23.336 28.088 23.512 27.76 23.624 27.44C23.736 27.104 23.792 26.752 23.792 26.384C23.792 25.568 23.544 24.944 23.048 24.512C22.552 24.064 21.92 23.84 21.152 23.84C20.592 23.84 20.064 23.96 19.568 24.2C19.088 24.44 18.688 24.792 18.368 25.256C18.272 25.432 18.176 25.616 18.08 25.808C18 25.984 17.904 26.152 17.792 26.312ZM35.4071 37.928C35.1191 37.928 34.8231 37.912 34.5191 37.88C34.2311 37.832 33.9431 37.752 33.6551 37.64C33.2231 37.464 32.8071 37.232 32.4071 36.944C32.0231 36.64 31.6711 36.304 31.3511 35.936C30.5831 35.072 29.9991 34.056 29.5991 32.888C29.1991 31.704 28.9991 30.504 28.9991 29.288C28.9991 27.624 29.3191 26.016 29.9591 24.464C30.0711 24.192 30.2151 23.904 30.3911 23.6C30.5831 23.296 30.7911 23.008 31.0151 22.736C31.2551 22.448 31.4951 22.192 31.7351 21.968C31.9911 21.744 32.2471 21.576 32.5031 21.464C32.8551 21.304 33.2391 21.144 33.6551 20.984C34.1671 20.824 34.7431 20.752 35.3831 20.768C36.0231 20.784 36.6071 20.856 37.1351 20.984C37.8711 21.16 38.5031 21.48 39.0311 21.944C39.5591 22.392 40.0071 22.936 40.3751 23.576C40.7431 24.2 41.0311 24.888 41.2391 25.64C41.4471 26.376 41.5991 27.128 41.6951 27.896C41.7591 28.408 41.7831 28.92 41.7671 29.432C41.7511 29.928 41.7111 30.432 41.6471 30.944C41.5831 31.408 41.5031 31.872 41.4071 32.336C41.3271 32.8 41.2151 33.248 41.0711 33.68C40.9271 34.112 40.7431 34.528 40.5191 34.928C40.2951 35.312 40.0151 35.672 39.6791 36.008C39.0711 36.6 38.4071 37.064 37.6871 37.4C36.9831 37.72 36.2231 37.896 35.4071 37.928ZM35.3831 23.936C35.1591 23.936 34.9351 23.96 34.7111 24.008C34.5031 24.04 34.3031 24.12 34.1111 24.248C33.8871 24.392 33.6871 24.568 33.5111 24.776C33.3351 24.984 33.1831 25.2 33.0551 25.424C32.7191 26 32.4871 26.616 32.3591 27.272C32.2311 27.928 32.1671 28.592 32.1671 29.264C32.1671 29.952 32.2391 30.664 32.3831 31.4C32.5431 32.136 32.8231 32.808 33.2231 33.416C33.4151 33.704 33.6391 33.96 33.8951 34.184C34.1671 34.392 34.4791 34.544 34.8311 34.64C35.1511 34.72 35.4711 34.744 35.7911 34.712C36.1271 34.68 36.4391 34.576 36.7271 34.4C37.1911 34.112 37.5591 33.728 37.8311 33.248C38.1031 32.768 38.3031 32.248 38.4311 31.688C38.5751 31.128 38.6551 30.552 38.6711 29.96C38.7031 29.368 38.7031 28.832 38.6711 28.352C38.6391 27.872 38.5591 27.368 38.4311 26.84C38.3031 26.312 38.1111 25.832 37.8551 25.4C37.6151 24.968 37.2871 24.616 36.8711 24.344C36.4711 24.056 35.9751 23.92 35.3831 23.936ZM46.5264 26.312C46.2864 26.68 45.9984 26.904 45.6624 26.984C45.3424 27.064 45.0304 27.04 44.7264 26.912C44.4224 26.784 44.1664 26.576 43.9584 26.288C43.7664 25.984 43.6864 25.64 43.7184 25.256C43.7344 25 43.7984 24.72 43.9104 24.416C44.0224 24.112 44.1584 23.824 44.3184 23.552C44.4944 23.264 44.6784 23 44.8704 22.76C45.0784 22.504 45.2864 22.288 45.4944 22.112C45.8784 21.808 46.3104 21.544 46.7904 21.32C47.2864 21.096 47.7984 20.928 48.3264 20.816C48.8704 20.704 49.4064 20.656 49.9344 20.672C50.4784 20.688 50.9824 20.768 51.4464 20.912C52.7264 21.312 53.7184 21.944 54.4224 22.808C55.1264 23.672 55.4784 24.792 55.4784 26.168C55.4784 26.824 55.4144 27.416 55.2864 27.944C55.1744 28.456 54.9664 28.952 54.6624 29.432C54.3744 29.912 53.9824 30.4 53.4864 30.896C53.0064 31.392 52.4064 31.936 51.6864 32.528C51.4464 32.736 51.1984 32.944 50.9424 33.152C50.6864 33.36 50.4304 33.568 50.1744 33.776C50.0944 33.84 49.9424 33.936 49.7184 34.064C49.4944 34.192 49.2944 34.32 49.1184 34.448C48.9424 34.576 48.8384 34.696 48.8064 34.808C48.7744 34.92 48.9024 34.984 49.1904 35C49.5424 35.032 49.8224 35.04 50.0304 35.024C50.2384 35.008 50.5184 35 50.8704 35C51.2864 35 51.6944 34.992 52.0944 34.976C52.4944 34.96 52.8944 34.968 53.2944 35C53.4544 35.016 53.6304 35.024 53.8224 35.024C54.0144 35.008 54.2064 35.008 54.3984 35.024C54.5904 35.024 54.7744 35.048 54.9504 35.096C55.1264 35.128 55.2784 35.2 55.4064 35.312C55.5344 35.424 55.6304 35.576 55.6944 35.768C55.7584 35.96 55.7904 36.168 55.7904 36.392C55.8064 36.6 55.7904 36.808 55.7424 37.016C55.6944 37.208 55.6144 37.36 55.5024 37.472C55.2944 37.712 55.0384 37.832 54.7344 37.832C54.4304 37.816 54.1424 37.808 53.8704 37.808H45.2544C45.0944 37.808 44.9184 37.816 44.7264 37.832C44.5504 37.848 44.3904 37.832 44.2464 37.784C43.9584 37.704 43.8144 37.552 43.8144 37.328C43.8304 37.104 43.8384 36.872 43.8384 36.632C43.8384 36.232 43.9344 35.864 44.1264 35.528C44.3184 35.176 44.5584 34.856 44.8464 34.568C45.1504 34.264 45.4704 33.984 45.8064 33.728C46.1424 33.472 46.4544 33.224 46.7424 32.984C47.1584 32.616 47.6064 32.248 48.0864 31.88C48.5664 31.512 49.0224 31.144 49.4544 30.776C50.0144 30.312 50.4864 29.888 50.8704 29.504C51.2704 29.12 51.5904 28.76 51.8304 28.424C52.0704 28.088 52.2464 27.76 52.3584 27.44C52.4704 27.104 52.5264 26.752 52.5264 26.384C52.5264 25.568 52.2784 24.944 51.7824 24.512C51.2864 24.064 50.6544 23.84 49.8864 23.84C49.3264 23.84 48.7984 23.96 48.3024 24.2C47.8224 24.44 47.4224 24.792 47.1024 25.256C47.0064 25.432 46.9104 25.616 46.8144 25.808C46.7344 25.984 46.6384 26.152 46.5264 26.312ZM64.1414 37.928C63.8534 37.928 63.5574 37.912 63.2534 37.88C62.9654 37.832 62.6774 37.752 62.3894 37.64C61.9574 37.464 61.5414 37.232 61.1414 36.944C60.7574 36.64 60.4054 36.304 60.0854 35.936C59.3174 35.072 58.7334 34.056 58.3334 32.888C57.9334 31.704 57.7334 30.504 57.7334 29.288C57.7334 27.624 58.0534 26.016 58.6934 24.464C58.8054 24.192 58.9494 23.904 59.1254 23.6C59.3174 23.296 59.5254 23.008 59.7494 22.736C59.9894 22.448 60.2294 22.192 60.4694 21.968C60.7254 21.744 60.9814 21.576 61.2374 21.464C61.5894 21.304 61.9734 21.144 62.3894 20.984C62.9014 20.824 63.4774 20.752 64.1174 20.768C64.7574 20.784 65.3414 20.856 65.8694 20.984C66.6054 21.16 67.2374 21.48 67.7654 21.944C68.2934 22.392 68.7414 22.936 69.1094 23.576C69.4774 24.2 69.7654 24.888 69.9734 25.64C70.1814 26.376 70.3334 27.128 70.4294 27.896C70.4934 28.408 70.5174 28.92 70.5014 29.432C70.4854 29.928 70.4454 30.432 70.3814 30.944C70.3174 31.408 70.2374 31.872 70.1414 32.336C70.0614 32.8 69.9494 33.248 69.8054 33.68C69.6614 34.112 69.4774 34.528 69.2534 34.928C69.0294 35.312 68.7494 35.672 68.4134 36.008C67.8054 36.6 67.1414 37.064 66.4214 37.4C65.7174 37.72 64.9574 37.896 64.1414 37.928ZM64.1174 23.936C63.8934 23.936 63.6694 23.96 63.4454 24.008C63.2374 24.04 63.0374 24.12 62.8454 24.248C62.6214 24.392 62.4214 24.568 62.2454 24.776C62.0694 24.984 61.9174 25.2 61.7894 25.424C61.4534 26 61.2214 26.616 61.0934 27.272C60.9654 27.928 60.9014 28.592 60.9014 29.264C60.9014 29.952 60.9734 30.664 61.1174 31.4C61.2774 32.136 61.5574 32.808 61.9574 33.416C62.1494 33.704 62.3734 33.96 62.6294 34.184C62.9014 34.392 63.2134 34.544 63.5654 34.64C63.8854 34.72 64.2054 34.744 64.5254 34.712C64.8614 34.68 65.1734 34.576 65.4614 34.4C65.9254 34.112 66.2934 33.728 66.5654 33.248C66.8374 32.768 67.0374 32.248 67.1654 31.688C67.3094 31.128 67.3894 30.552 67.4054 29.96C67.4374 29.368 67.4374 28.832 67.4054 28.352C67.3734 27.872 67.2934 27.368 67.1654 26.84C67.0374 26.312 66.8454 25.832 66.5894 25.4C66.3494 24.968 66.0214 24.616 65.6054 24.344C65.2054 24.056 64.7094 23.92 64.1174 23.936Z" fill="white"/>
<defs>
<filter id="filter0_d_128:226" x="0" y="0" width="164.037" height="90.7227" filterUnits="userSpaceOnUse" color-interpolation-filters="sRGB">
<feFlood flood-opacity="0" result="BackgroundImageFix"/>
<feColorMatrix in="SourceAlpha" type="matrix" values="0 0 0 0 0 0 0 0 0 0 0 0 0 0 0 0 0 0 127 0" result="hardAlpha"/>
<feOffset dx="-5" dy="-5"/>
<feGaussianBlur stdDeviation="2"/>
<feComposite in2="hardAlpha" operator="out"/>
<feColorMatrix type="matrix" values="0 0 0 0 0 0 0 0 0 0 0 0 0 0 0 0 0 0 0.25 0"/>
<feBlend mode="normal" in2="BackgroundImageFix" result="effect1_dropShadow_128:226"/>
<feBlend mode="normal" in="SourceGraphic" in2="effect1_dropShadow_128:226" result="shape"/>
</filter>
</defs>
</svg>
