<svg width="164" height="91" viewBox="0 0 164 91" fill="none" xmlns="http://www.w3.org/2000/svg">
<path d="M8.02488 9.5H51.5249H145.525H163.025V51.1657C163.025 51.1657 163.025 53 163.025 71.5C163.025 90 162.582 74.5 163.025 83.5C163.468 92.5 155.524 90.5 155.524 90.5H90.0242H39.5242C39.5242 90.5 14.5224 91 11.0229 90.5C7.52342 90 8.02488 87.5 8.02488 87.5V54.5V25.5V9.5Z" fill="white"/>
<g filter="url(#filter0_d_122:174)">
<path d="M8.02488 9.5L10.5 9L11 9.5V9L13 9.5H15.5L16.5 9L17 9.5H17.5L18 9L18.2837 10L18.5 9.5L19 9V10L19.5 9L18.5 9.5L20.5 9L21 10L22.5 9.5L26.5 9L25.5 9.5L39 10L43.5 9L44 9.5H44.5L45 9L45.5 10L46 9.5H50L57.5 10L58 9.5L60 10.5L60.5 10L63 9.5L68.5 10L78 9.5L81.5 10L84 9.5L90.5 10L98 9.5H104H110.5L124 10L142 9.5L145.5 10L146.5 9.5L147.5 10.5L148.5 10L163.025 9.5V46.5C163.025 46.5 163.025 46.5 163.025 65C163.025 83.5 163.052 56.2991 163.025 63.3995C162.998 70.5 127.5 87.5 127.5 87.5L88 90.5H39.5242C39.5242 90.5 14.5224 91 11.0229 90.5C7.52342 90 8.02488 87.5 8.02488 87.5V54.5V25.5V9.5Z" fill="#5A6E80"/>
</g>
<path d="M142.179 63.7816C140.003 70.1137 162 66.9476 162 66.9476C162 66.9476 160.334 71.6848 158.132 73.2796C150.639 78.7071 150.881 79.1594 147.013 79.1594C143.366 79.1594 138.526 86.1892 134.927 87.3005C128.639 89.2419 128.5 87.3006 128.5 87.3006C130.746 89.0879 144.354 57.4494 142.179 63.7816Z" fill="#E6E6E6"/>
<path d="M16.792 26.312C16.552 26.68 16.264 26.904 15.928 26.984C15.608 27.064 15.296 27.04 14.992 26.912C14.688 26.784 14.432 26.576 14.224 26.288C14.032 25.984 13.952 25.64 13.984 25.256C14 25 14.064 24.72 14.176 24.416C14.288 24.112 14.424 23.824 14.584 23.552C14.76 23.264 14.944 23 15.136 22.76C15.344 22.504 15.552 22.288 15.76 22.112C16.144 21.808 16.576 21.544 17.056 21.32C17.552 21.096 18.064 20.928 18.592 20.816C19.136 20.704 19.672 20.656 20.2 20.672C20.744 20.688 21.248 20.768 21.712 20.912C22.992 21.312 23.984 21.944 24.688 22.808C25.392 23.672 25.744 24.792 25.744 26.168C25.744 26.824 25.68 27.416 25.552 27.944C25.44 28.456 25.232 28.952 24.928 29.432C24.64 29.912 24.248 30.4 23.752 30.896C23.272 31.392 22.672 31.936 21.952 32.528C21.712 32.736 21.464 32.944 21.208 33.152C20.952 33.36 20.696 33.568 20.44 33.776C20.36 33.84 20.208 33.936 19.984 34.064C19.76 34.192 19.56 34.32 19.384 34.448C19.208 34.576 19.104 34.696 19.072 34.808C19.04 34.92 19.168 34.984 19.456 35C19.808 35.032 20.088 35.04 20.296 35.024C20.504 35.008 20.784 35 21.136 35C21.552 35 21.96 34.992 22.36 34.976C22.76 34.96 23.16 34.968 23.56 35C23.72 35.016 23.896 35.024 24.088 35.024C24.28 35.008 24.472 35.008 24.664 35.024C24.856 35.024 25.04 35.048 25.216 35.096C25.392 35.128 25.544 35.2 25.672 35.312C25.8 35.424 25.896 35.576 25.96 35.768C26.024 35.96 26.056 36.168 26.056 36.392C26.072 36.6 26.056 36.808 26.008 37.016C25.96 37.208 25.88 37.36 25.768 37.472C25.56 37.712 25.304 37.832 25 37.832C24.696 37.816 24.408 37.808 24.136 37.808H15.52C15.36 37.808 15.184 37.816 14.992 37.832C14.816 37.848 14.656 37.832 14.512 37.784C14.224 37.704 14.08 37.552 14.08 37.328C14.096 37.104 14.104 36.872 14.104 36.632C14.104 36.232 14.2 35.864 14.392 35.528C14.584 35.176 14.824 34.856 15.112 34.568C15.416 34.264 15.736 33.984 16.072 33.728C16.408 33.472 16.72 33.224 17.008 32.984C17.424 32.616 17.872 32.248 18.352 31.88C18.832 31.512 19.288 31.144 19.72 30.776C20.28 30.312 20.752 29.888 21.136 29.504C21.536 29.12 21.856 28.76 22.096 28.424C22.336 28.088 22.512 27.76 22.624 27.44C22.736 27.104 22.792 26.752 22.792 26.384C22.792 25.568 22.544 24.944 22.048 24.512C21.552 24.064 20.92 23.84 20.152 23.84C19.592 23.84 19.064 23.96 18.568 24.2C18.088 24.44 17.688 24.792 17.368 25.256C17.272 25.432 17.176 25.616 17.08 25.808C17 25.984 16.904 26.152 16.792 26.312ZM34.4071 37.928C34.1191 37.928 33.8231 37.912 33.5191 37.88C33.2311 37.832 32.9431 37.752 32.6551 37.64C32.2231 37.464 31.8071 37.232 31.4071 36.944C31.0231 36.64 30.6711 36.304 30.3511 35.936C29.5831 35.072 28.9991 34.056 28.5991 32.888C28.1991 31.704 27.9991 30.504 27.9991 29.288C27.9991 27.624 28.3191 26.016 28.9591 24.464C29.0711 24.192 29.2151 23.904 29.3911 23.6C29.5831 23.296 29.7911 23.008 30.0151 22.736C30.2551 22.448 30.4951 22.192 30.7351 21.968C30.9911 21.744 31.2471 21.576 31.5031 21.464C31.8551 21.304 32.2391 21.144 32.6551 20.984C33.1671 20.824 33.7431 20.752 34.3831 20.768C35.0231 20.784 35.6071 20.856 36.1351 20.984C36.8711 21.16 37.5031 21.48 38.0311 21.944C38.5591 22.392 39.0071 22.936 39.3751 23.576C39.7431 24.2 40.0311 24.888 40.2391 25.64C40.4471 26.376 40.5991 27.128 40.6951 27.896C40.7591 28.408 40.7831 28.92 40.7671 29.432C40.7511 29.928 40.7111 30.432 40.6471 30.944C40.5831 31.408 40.5031 31.872 40.4071 32.336C40.3271 32.8 40.2151 33.248 40.0711 33.68C39.9271 34.112 39.7431 34.528 39.5191 34.928C39.2951 35.312 39.0151 35.672 38.6791 36.008C38.0711 36.6 37.4071 37.064 36.6871 37.4C35.9831 37.72 35.2231 37.896 34.4071 37.928ZM34.3831 23.936C34.1591 23.936 33.9351 23.96 33.7111 24.008C33.5031 24.04 33.3031 24.12 33.1111 24.248C32.8871 24.392 32.6871 24.568 32.5111 24.776C32.3351 24.984 32.1831 25.2 32.0551 25.424C31.7191 26 31.4871 26.616 31.3591 27.272C31.2311 27.928 31.1671 28.592 31.1671 29.264C31.1671 29.952 31.2391 30.664 31.3831 31.4C31.5431 32.136 31.8231 32.808 32.2231 33.416C32.4151 33.704 32.6391 33.96 32.8951 34.184C33.1671 34.392 33.4791 34.544 33.8311 34.64C34.1511 34.72 34.4711 34.744 34.7911 34.712C35.1271 34.68 35.4391 34.576 35.7271 34.4C36.1911 34.112 36.5591 33.728 36.8311 33.248C37.1031 32.768 37.3031 32.248 37.4311 31.688C37.5751 31.128 37.6551 30.552 37.6711 29.96C37.7031 29.368 37.7031 28.832 37.6711 28.352C37.6391 27.872 37.5591 27.368 37.4311 26.84C37.3031 26.312 37.1111 25.832 36.8551 25.4C36.6151 24.968 36.2871 24.616 35.8711 24.344C35.4711 24.056 34.9751 23.92 34.3831 23.936ZM46.7264 20.672C46.8384 20.64 46.9424 20.616 47.0384 20.6C47.1344 20.568 47.2304 20.544 47.3264 20.528C47.4384 20.496 47.5744 20.48 47.7344 20.48C47.9104 20.464 48.0704 20.472 48.2144 20.504C48.3744 20.52 48.5184 20.568 48.6464 20.648C48.7904 20.712 48.8944 20.816 48.9584 20.96C49.0224 21.12 49.0624 21.312 49.0784 21.536C49.1104 21.744 49.1264 21.96 49.1264 22.184C49.1264 22.408 49.1184 22.632 49.1024 22.856C49.1024 23.064 49.1024 23.256 49.1024 23.432V35.696C49.1024 35.872 49.1024 36.056 49.1024 36.248C49.1184 36.424 49.1184 36.608 49.1024 36.8C49.0864 36.992 49.0384 37.176 48.9584 37.352C48.8784 37.512 48.7584 37.648 48.5984 37.76C48.3744 37.936 48.0704 38.024 47.6864 38.024C47.3184 38.04 46.9984 38 46.7264 37.904C46.4384 37.808 46.2624 37.624 46.1984 37.352C46.1504 37.08 46.1264 36.808 46.1264 36.536C46.0144 34.424 45.9584 32.36 45.9584 30.344C45.9744 28.312 45.9824 26.224 45.9824 24.08C45.9504 24.16 45.8384 24.232 45.6464 24.296C45.4704 24.36 45.2624 24.416 45.0224 24.464C44.7984 24.512 44.5824 24.552 44.3744 24.584C44.1664 24.616 44.0304 24.632 43.9664 24.632C43.5504 24.68 43.1664 24.64 42.8144 24.512C42.4784 24.368 42.2864 24.048 42.2384 23.552C42.1744 23.04 42.2864 22.64 42.5744 22.352C42.8784 22.064 43.2624 21.848 43.7264 21.704C44.2384 21.528 44.7344 21.352 45.2144 21.176C45.7104 20.984 46.2144 20.816 46.7264 20.672ZM52.9696 23.336C52.7616 23.144 52.6576 22.856 52.6576 22.472C52.6736 22.296 52.7056 22.128 52.7536 21.968C52.8016 21.792 52.8896 21.64 53.0176 21.512C53.3696 21.192 53.7456 21.008 54.1456 20.96C54.5456 20.912 54.9776 20.872 55.4416 20.84C55.8096 20.824 56.1376 20.824 56.4256 20.84C56.7136 20.84 57.0416 20.84 57.4096 20.84C57.9696 20.84 58.5776 20.848 59.2336 20.864C59.9056 20.88 60.5376 20.904 61.1296 20.936C61.3696 20.952 61.6096 20.984 61.8496 21.032C62.0896 21.08 62.3056 21.168 62.4976 21.296C62.6896 21.408 62.8416 21.56 62.9536 21.752C63.0816 21.928 63.1536 22.152 63.1696 22.424C63.1856 22.744 63.1376 23.048 63.0256 23.336C62.9296 23.624 62.7936 23.904 62.6176 24.176C62.4416 24.432 62.2416 24.68 62.0176 24.92C61.8096 25.144 61.6096 25.352 61.4176 25.544C61.0656 25.912 60.6656 26.304 60.2176 26.72C59.7696 27.136 59.3696 27.528 59.0176 27.896C59.6416 27.976 60.2416 28.12 60.8176 28.328C61.4096 28.536 61.9296 28.824 62.3776 29.192C62.8256 29.56 63.1776 30.024 63.4336 30.584C63.7056 31.128 63.8416 31.784 63.8416 32.552C63.8416 33.32 63.6896 34.032 63.3856 34.688C63.0976 35.344 62.6896 35.92 62.1616 36.416C61.6336 36.896 61.0096 37.272 60.2896 37.544C59.5696 37.816 58.7776 37.952 57.9136 37.952C57.5456 37.952 57.1456 37.92 56.7136 37.856C56.2976 37.792 55.8816 37.696 55.4656 37.568C55.0496 37.44 54.6496 37.28 54.2656 37.088C53.8976 36.88 53.5776 36.632 53.3056 36.344C53.1136 36.152 52.9456 35.928 52.8016 35.672C52.6736 35.4 52.5936 35.128 52.5616 34.856C52.5456 34.568 52.6016 34.312 52.7296 34.088C52.8576 33.848 53.0816 33.672 53.4016 33.56C53.6416 33.48 53.8736 33.448 54.0976 33.464C54.3216 33.48 54.5376 33.536 54.7456 33.632C54.9536 33.712 55.1536 33.808 55.3456 33.92C55.5536 34.032 55.7536 34.144 55.9456 34.256C56.5376 34.624 57.1536 34.84 57.7936 34.904C58.4496 34.968 59.0896 34.816 59.7136 34.448C60.0656 34.24 60.3216 33.984 60.4816 33.68C60.6416 33.36 60.7056 33.04 60.6736 32.72C60.6576 32.4 60.5536 32.096 60.3616 31.808C60.1856 31.52 59.9376 31.28 59.6176 31.088C59.3136 30.912 58.9776 30.792 58.6096 30.728C58.2416 30.664 57.8736 30.6 57.5056 30.536C57.1376 30.472 56.7856 30.384 56.4496 30.272C56.1136 30.16 55.8256 29.968 55.5856 29.696C55.3136 29.392 55.2256 29.064 55.3216 28.712C55.4176 28.36 55.5936 28.016 55.8496 27.68C56.1216 27.344 56.4176 27.024 56.7376 26.72C57.0736 26.416 57.3376 26.16 57.5296 25.952C57.6416 25.84 57.7696 25.704 57.9136 25.544C58.0736 25.384 58.2176 25.224 58.3456 25.064C58.4896 24.904 58.6096 24.752 58.7056 24.608C58.8176 24.448 58.8896 24.304 58.9216 24.176C58.9696 24.048 58.9456 23.96 58.8496 23.912C58.7536 23.848 58.6336 23.816 58.4896 23.816C58.3456 23.8 58.1856 23.8 58.0096 23.816C57.8496 23.816 57.7216 23.816 57.6256 23.816H56.0176C55.7936 23.816 55.5456 23.824 55.2736 23.84C55.0016 23.84 54.7216 23.832 54.4336 23.816C54.1616 23.784 53.8896 23.736 53.6176 23.672C53.3616 23.608 53.1456 23.496 52.9696 23.336Z" fill="white"/>
<defs>
<filter id="filter0_d_122:174" x="0" y="0" width="163.037" height="90.7227" filterUnits="userSpaceOnUse" color-interpolation-filters="sRGB">
<feFlood flood-opacity="0" result="BackgroundImageFix"/>
<feColorMatrix in="SourceAlpha" type="matrix" values="0 0 0 0 0 0 0 0 0 0 0 0 0 0 0 0 0 0 127 0" result="hardAlpha"/>
<feOffset dx="-4" dy="-5"/>
<feGaussianBlur stdDeviation="2"/>
<feComposite in2="hardAlpha" operator="out"/>
<feColorMatrix type="matrix" values="0 0 0 0 0 0 0 0 0 0 0 0 0 0 0 0 0 0 0.25 0"/>
<feBlend mode="normal" in2="BackgroundImageFix" result="effect1_dropShadow_122:174"/>
<feBlend mode="normal" in="SourceGraphic" in2="effect1_dropShadow_122:174" result="shape"/>
</filter>
</defs>
</svg>
