<svg width="164" height="92" viewBox="0 0 164 92" fill="none" xmlns="http://www.w3.org/2000/svg">
<path d="M8.02488 9.5H51.5249H145.525H163.025V51.1657C163.025 51.1657 163.025 53 163.025 71.5C163.025 90 162.582 74.5 163.025 83.5C163.468 92.5 155.524 90.5 155.524 90.5H90.0242H39.5242C39.5242 90.5 14.5224 91 11.0229 90.5C7.52342 90 8.02488 87.5 8.02488 87.5V54.5V25.5V9.5Z" fill="white"/>
<g filter="url(#filter0_d_128:206)">
<path d="M8.02488 9.5L10.5 9L11 9.5V9L13 9.5H15.5L16.5 9L17 9.5H17.5L18 9L18.2837 10L18.5 9.5L19 9V10L19.5 9L18.5 9.5L20.5 9L21 10L22.5 9.5L26.5 9L25.5 9.5L39 10L43.5 9L44 9.5H44.5L45 9L45.5 10L46 9.5H50L57.5 10L58 9.5L60 10.5L60.5 10L63 9.5L68.5 10L78 9.5L81.5 10L84 9.5L90.5 10L98 9.5H104H110.5L124 10L142 9.5L145.5 10L146.5 9.5L147.5 10.5L148.5 10L163.025 9.5V46.5C163.025 46.5 163.025 46.5 163.025 65C163.025 83.5 163.052 56.2991 163.025 63.3995C162.998 70.5 128.5 76 128.5 76L110.5 90.5H39.5242C39.5242 90.5 14.5224 91 11.0229 90.5C7.52342 90 8.02488 87.5 8.02488 87.5V54.5V25.5V9.5Z" fill="#5A6E80"/>
</g>
<path d="M122.39 64.5318C119.127 71.802 163 64.5322 163 64.5322C163 64.5322 160.501 69.9713 157.199 71.8023C145.958 78.0339 146.321 78.5532 140.52 78.5532C135.048 78.5532 127.789 86.6245 122.39 87.9003C112.959 90.1294 109 90.9219 109 90.9219C112.369 92.974 125.654 57.2616 122.39 64.5318Z" fill="#E6E6E6"/>
<path d="M16.792 24.312C16.552 24.68 16.264 24.904 15.928 24.984C15.608 25.064 15.296 25.04 14.992 24.912C14.688 24.784 14.432 24.576 14.224 24.288C14.032 23.984 13.952 23.64 13.984 23.256C14 23 14.064 22.72 14.176 22.416C14.288 22.112 14.424 21.824 14.584 21.552C14.76 21.264 14.944 21 15.136 20.76C15.344 20.504 15.552 20.288 15.76 20.112C16.144 19.808 16.576 19.544 17.056 19.32C17.552 19.096 18.064 18.928 18.592 18.816C19.136 18.704 19.672 18.656 20.2 18.672C20.744 18.688 21.248 18.768 21.712 18.912C22.992 19.312 23.984 19.944 24.688 20.808C25.392 21.672 25.744 22.792 25.744 24.168C25.744 24.824 25.68 25.416 25.552 25.944C25.44 26.456 25.232 26.952 24.928 27.432C24.64 27.912 24.248 28.4 23.752 28.896C23.272 29.392 22.672 29.936 21.952 30.528C21.712 30.736 21.464 30.944 21.208 31.152C20.952 31.36 20.696 31.568 20.44 31.776C20.36 31.84 20.208 31.936 19.984 32.064C19.76 32.192 19.56 32.32 19.384 32.448C19.208 32.576 19.104 32.696 19.072 32.808C19.04 32.92 19.168 32.984 19.456 33C19.808 33.032 20.088 33.04 20.296 33.024C20.504 33.008 20.784 33 21.136 33C21.552 33 21.96 32.992 22.36 32.976C22.76 32.96 23.16 32.968 23.56 33C23.72 33.016 23.896 33.024 24.088 33.024C24.28 33.008 24.472 33.008 24.664 33.024C24.856 33.024 25.04 33.048 25.216 33.096C25.392 33.128 25.544 33.2 25.672 33.312C25.8 33.424 25.896 33.576 25.96 33.768C26.024 33.96 26.056 34.168 26.056 34.392C26.072 34.6 26.056 34.808 26.008 35.016C25.96 35.208 25.88 35.36 25.768 35.472C25.56 35.712 25.304 35.832 25 35.832C24.696 35.816 24.408 35.808 24.136 35.808H15.52C15.36 35.808 15.184 35.816 14.992 35.832C14.816 35.848 14.656 35.832 14.512 35.784C14.224 35.704 14.08 35.552 14.08 35.328C14.096 35.104 14.104 34.872 14.104 34.632C14.104 34.232 14.2 33.864 14.392 33.528C14.584 33.176 14.824 32.856 15.112 32.568C15.416 32.264 15.736 31.984 16.072 31.728C16.408 31.472 16.72 31.224 17.008 30.984C17.424 30.616 17.872 30.248 18.352 29.88C18.832 29.512 19.288 29.144 19.72 28.776C20.28 28.312 20.752 27.888 21.136 27.504C21.536 27.12 21.856 26.76 22.096 26.424C22.336 26.088 22.512 25.76 22.624 25.44C22.736 25.104 22.792 24.752 22.792 24.384C22.792 23.568 22.544 22.944 22.048 22.512C21.552 22.064 20.92 21.84 20.152 21.84C19.592 21.84 19.064 21.96 18.568 22.2C18.088 22.44 17.688 22.792 17.368 23.256C17.272 23.432 17.176 23.616 17.08 23.808C17 23.984 16.904 24.152 16.792 24.312ZM34.4071 35.928C34.1191 35.928 33.8231 35.912 33.5191 35.88C33.2311 35.832 32.9431 35.752 32.6551 35.64C32.2231 35.464 31.8071 35.232 31.4071 34.944C31.0231 34.64 30.6711 34.304 30.3511 33.936C29.5831 33.072 28.9991 32.056 28.5991 30.888C28.1991 29.704 27.9991 28.504 27.9991 27.288C27.9991 25.624 28.3191 24.016 28.9591 22.464C29.0711 22.192 29.2151 21.904 29.3911 21.6C29.5831 21.296 29.7911 21.008 30.0151 20.736C30.2551 20.448 30.4951 20.192 30.7351 19.968C30.9911 19.744 31.2471 19.576 31.5031 19.464C31.8551 19.304 32.2391 19.144 32.6551 18.984C33.1671 18.824 33.7431 18.752 34.3831 18.768C35.0231 18.784 35.6071 18.856 36.1351 18.984C36.8711 19.16 37.5031 19.48 38.0311 19.944C38.5591 20.392 39.0071 20.936 39.3751 21.576C39.7431 22.2 40.0311 22.888 40.2391 23.64C40.4471 24.376 40.5991 25.128 40.6951 25.896C40.7591 26.408 40.7831 26.92 40.7671 27.432C40.7511 27.928 40.7111 28.432 40.6471 28.944C40.5831 29.408 40.5031 29.872 40.4071 30.336C40.3271 30.8 40.2151 31.248 40.0711 31.68C39.9271 32.112 39.7431 32.528 39.5191 32.928C39.2951 33.312 39.0151 33.672 38.6791 34.008C38.0711 34.6 37.4071 35.064 36.6871 35.4C35.9831 35.72 35.2231 35.896 34.4071 35.928ZM34.3831 21.936C34.1591 21.936 33.9351 21.96 33.7111 22.008C33.5031 22.04 33.3031 22.12 33.1111 22.248C32.8871 22.392 32.6871 22.568 32.5111 22.776C32.3351 22.984 32.1831 23.2 32.0551 23.424C31.7191 24 31.4871 24.616 31.3591 25.272C31.2311 25.928 31.1671 26.592 31.1671 27.264C31.1671 27.952 31.2391 28.664 31.3831 29.4C31.5431 30.136 31.8231 30.808 32.2231 31.416C32.4151 31.704 32.6391 31.96 32.8951 32.184C33.1671 32.392 33.4791 32.544 33.8311 32.64C34.1511 32.72 34.4711 32.744 34.7911 32.712C35.1271 32.68 35.4391 32.576 35.7271 32.4C36.1911 32.112 36.5591 31.728 36.8311 31.248C37.1031 30.768 37.3031 30.248 37.4311 29.688C37.5751 29.128 37.6551 28.552 37.6711 27.96C37.7031 27.368 37.7031 26.832 37.6711 26.352C37.6391 25.872 37.5591 25.368 37.4311 24.84C37.3031 24.312 37.1111 23.832 36.8551 23.4C36.6151 22.968 36.2871 22.616 35.8711 22.344C35.4711 22.056 34.9751 21.92 34.3831 21.936ZM46.7264 18.672C46.8384 18.64 46.9424 18.616 47.0384 18.6C47.1344 18.568 47.2304 18.544 47.3264 18.528C47.4384 18.496 47.5744 18.48 47.7344 18.48C47.9104 18.464 48.0704 18.472 48.2144 18.504C48.3744 18.52 48.5184 18.568 48.6464 18.648C48.7904 18.712 48.8944 18.816 48.9584 18.96C49.0224 19.12 49.0624 19.312 49.0784 19.536C49.1104 19.744 49.1264 19.96 49.1264 20.184C49.1264 20.408 49.1184 20.632 49.1024 20.856C49.1024 21.064 49.1024 21.256 49.1024 21.432V33.696C49.1024 33.872 49.1024 34.056 49.1024 34.248C49.1184 34.424 49.1184 34.608 49.1024 34.8C49.0864 34.992 49.0384 35.176 48.9584 35.352C48.8784 35.512 48.7584 35.648 48.5984 35.76C48.3744 35.936 48.0704 36.024 47.6864 36.024C47.3184 36.04 46.9984 36 46.7264 35.904C46.4384 35.808 46.2624 35.624 46.1984 35.352C46.1504 35.08 46.1264 34.808 46.1264 34.536C46.0144 32.424 45.9584 30.36 45.9584 28.344C45.9744 26.312 45.9824 24.224 45.9824 22.08C45.9504 22.16 45.8384 22.232 45.6464 22.296C45.4704 22.36 45.2624 22.416 45.0224 22.464C44.7984 22.512 44.5824 22.552 44.3744 22.584C44.1664 22.616 44.0304 22.632 43.9664 22.632C43.5504 22.68 43.1664 22.64 42.8144 22.512C42.4784 22.368 42.2864 22.048 42.2384 21.552C42.1744 21.04 42.2864 20.64 42.5744 20.352C42.8784 20.064 43.2624 19.848 43.7264 19.704C44.2384 19.528 44.7344 19.352 45.2144 19.176C45.7104 18.984 46.2144 18.816 46.7264 18.672ZM62.8096 22.608C62.6656 22.512 62.5136 22.416 62.3536 22.32C62.1936 22.208 62.0256 22.12 61.8496 22.056C61.2896 21.832 60.6736 21.712 60.0016 21.696C59.3456 21.664 58.7296 21.784 58.1536 22.056C57.6896 22.28 57.2976 22.56 56.9776 22.896C56.6736 23.232 56.4256 23.608 56.2336 24.024C56.0416 24.44 55.8976 24.88 55.8016 25.344C55.7056 25.808 55.6496 26.272 55.6336 26.736C56.0656 26.304 56.5936 25.92 57.2176 25.584C57.8416 25.232 58.6416 25.056 59.6176 25.056C60.4336 25.056 61.1936 25.176 61.8976 25.416C62.6176 25.64 63.2416 25.976 63.7696 26.424C64.2976 26.872 64.7136 27.424 65.0176 28.08C65.3216 28.736 65.4736 29.488 65.4736 30.336C65.4736 31.184 65.3136 31.96 64.9936 32.664C64.6736 33.352 64.2336 33.952 63.6736 34.464C63.1296 34.96 62.4736 35.352 61.7056 35.64C60.9536 35.912 60.1376 36.048 59.2576 36.048C58.2336 36.048 57.3376 35.896 56.5696 35.592C55.8176 35.272 55.1616 34.84 54.6016 34.296C54.2816 33.976 53.9936 33.624 53.7376 33.24C53.4976 32.84 53.2896 32.392 53.1136 31.896C52.9376 31.384 52.8016 30.8 52.7056 30.144C52.6096 29.488 52.5616 28.736 52.5616 27.888C52.5616 27.184 52.6096 26.472 52.7056 25.752C52.8016 25.032 52.9616 24.336 53.1856 23.664C53.4256 22.992 53.7376 22.36 54.1216 21.768C54.5056 21.176 54.9856 20.648 55.5616 20.184C56.1056 19.752 56.6976 19.416 57.3376 19.176C57.9776 18.936 58.6336 18.8 59.3056 18.768C59.9776 18.736 60.6496 18.8 61.3216 18.96C61.9936 19.12 62.6256 19.384 63.2176 19.752C63.3776 19.848 63.5616 19.992 63.7696 20.184C63.9776 20.36 64.1536 20.56 64.2976 20.784C64.4416 21.008 64.5296 21.264 64.5616 21.552C64.5936 21.824 64.5136 22.104 64.3216 22.392C64.2896 22.456 64.2176 22.52 64.1056 22.584C63.9936 22.648 63.8656 22.696 63.7216 22.728C63.5776 22.76 63.4256 22.768 63.2656 22.752C63.1056 22.736 62.9536 22.688 62.8096 22.608ZM59.0896 27.936C58.5456 27.968 58.0336 28.112 57.5536 28.368C57.0736 28.608 56.6576 28.936 56.3056 29.352C56.0816 29.624 55.9536 29.936 55.9216 30.288C55.8896 30.624 55.9136 30.96 55.9936 31.296C56.0576 31.696 56.2176 32.048 56.4736 32.352C56.7296 32.64 57.0256 32.88 57.3616 33.072C57.7136 33.248 58.0896 33.376 58.4896 33.456C58.9056 33.52 59.3056 33.528 59.6896 33.48C60.1216 33.432 60.5136 33.32 60.8656 33.144C61.2336 32.952 61.5456 32.72 61.8016 32.448C62.0576 32.16 62.2496 31.832 62.3776 31.464C62.5216 31.08 62.5696 30.672 62.5216 30.24C62.4736 29.776 62.3536 29.392 62.1616 29.088C61.9696 28.768 61.7216 28.52 61.4176 28.344C61.1136 28.168 60.7616 28.056 60.3616 28.008C59.9616 27.944 59.5376 27.92 59.0896 27.936Z" fill="white"/>
<defs>
<filter id="filter0_d_128:206" x="0" y="0" width="163.037" height="90.7227" filterUnits="userSpaceOnUse" color-interpolation-filters="sRGB">
<feFlood flood-opacity="0" result="BackgroundImageFix"/>
<feColorMatrix in="SourceAlpha" type="matrix" values="0 0 0 0 0 0 0 0 0 0 0 0 0 0 0 0 0 0 127 0" result="hardAlpha"/>
<feOffset dx="-4" dy="-5"/>
<feGaussianBlur stdDeviation="2"/>
<feComposite in2="hardAlpha" operator="out"/>
<feColorMatrix type="matrix" values="0 0 0 0 0 0 0 0 0 0 0 0 0 0 0 0 0 0 0.25 0"/>
<feBlend mode="normal" in2="BackgroundImageFix" result="effect1_dropShadow_128:206"/>
<feBlend mode="normal" in="SourceGraphic" in2="effect1_dropShadow_128:206" result="shape"/>
</filter>
</defs>
</svg>
