<svg width="165" height="92" viewBox="0 0 165 92" fill="none" xmlns="http://www.w3.org/2000/svg">
<path d="M9.02488 9.5H52.5249H146.525H164.025V51.1657C164.025 51.1657 164.025 53 164.025 71.5C164.025 90 163.582 74.5 164.025 83.5C164.468 92.5 156.524 90.5 156.524 90.5H91.0242H40.5242C40.5242 90.5 15.5224 91 12.0229 90.5C8.52342 90 9.02488 87.5 9.02488 87.5V54.5V25.5V9.5Z" fill="white"/>
<g filter="url(#filter0_d_128:221)">
<path d="M9.02488 9.5L11.5 9L12 9.5V9L14 9.5H16.5L17.5 9L18 9.5H18.5L19 9L19.2837 10L19.5 9.5L20 9V10L20.5 9L19.5 9.5L21.5 9L22 10L23.5 9.5L27.5 9L26.5 9.5L40 10L44.5 9L45 9.5H45.5L46 9L46.5 10L47 9.5H51L58.5 10L59 9.5L61 10.5L61.5 10L64 9.5L69.5 10L79 9.5L82.5 10L85 9.5L91.5 10L99 9.5H105H111.5L125 10L143 9.5L146.5 10L147.5 9.5L148.5 10.5L149.5 10L164.025 9.5V46.5C164.025 46.5 164.025 46.5 164.025 65C164.025 83.5 164.052 56.2991 164.025 63.3995C163.998 70.5 129.5 76 129.5 76L111.5 90.5H40.5242C40.5242 90.5 15.5224 91 12.0229 90.5C8.52342 90 9.02488 87.5 9.02488 87.5V54.5V25.5V9.5Z" fill="#5A6E80"/>
</g>
<path d="M123.39 64.5318C120.127 71.802 164 64.5322 164 64.5322C164 64.5322 161.501 69.9713 158.199 71.8023C146.958 78.0339 147.321 78.5532 141.52 78.5532C136.048 78.5532 128.789 86.6245 123.39 87.9003C113.959 90.1294 110 90.9219 110 90.9219C113.369 92.974 126.654 57.2616 123.39 64.5318Z" fill="#E6E6E6"/>
<path d="M17.792 24.312C17.552 24.68 17.264 24.904 16.928 24.984C16.608 25.064 16.296 25.04 15.992 24.912C15.688 24.784 15.432 24.576 15.224 24.288C15.032 23.984 14.952 23.64 14.984 23.256C15 23 15.064 22.72 15.176 22.416C15.288 22.112 15.424 21.824 15.584 21.552C15.76 21.264 15.944 21 16.136 20.76C16.344 20.504 16.552 20.288 16.76 20.112C17.144 19.808 17.576 19.544 18.056 19.32C18.552 19.096 19.064 18.928 19.592 18.816C20.136 18.704 20.672 18.656 21.2 18.672C21.744 18.688 22.248 18.768 22.712 18.912C23.992 19.312 24.984 19.944 25.688 20.808C26.392 21.672 26.744 22.792 26.744 24.168C26.744 24.824 26.68 25.416 26.552 25.944C26.44 26.456 26.232 26.952 25.928 27.432C25.64 27.912 25.248 28.4 24.752 28.896C24.272 29.392 23.672 29.936 22.952 30.528C22.712 30.736 22.464 30.944 22.208 31.152C21.952 31.36 21.696 31.568 21.44 31.776C21.36 31.84 21.208 31.936 20.984 32.064C20.76 32.192 20.56 32.32 20.384 32.448C20.208 32.576 20.104 32.696 20.072 32.808C20.04 32.92 20.168 32.984 20.456 33C20.808 33.032 21.088 33.04 21.296 33.024C21.504 33.008 21.784 33 22.136 33C22.552 33 22.96 32.992 23.36 32.976C23.76 32.96 24.16 32.968 24.56 33C24.72 33.016 24.896 33.024 25.088 33.024C25.28 33.008 25.472 33.008 25.664 33.024C25.856 33.024 26.04 33.048 26.216 33.096C26.392 33.128 26.544 33.2 26.672 33.312C26.8 33.424 26.896 33.576 26.96 33.768C27.024 33.96 27.056 34.168 27.056 34.392C27.072 34.6 27.056 34.808 27.008 35.016C26.96 35.208 26.88 35.36 26.768 35.472C26.56 35.712 26.304 35.832 26 35.832C25.696 35.816 25.408 35.808 25.136 35.808H16.52C16.36 35.808 16.184 35.816 15.992 35.832C15.816 35.848 15.656 35.832 15.512 35.784C15.224 35.704 15.08 35.552 15.08 35.328C15.096 35.104 15.104 34.872 15.104 34.632C15.104 34.232 15.2 33.864 15.392 33.528C15.584 33.176 15.824 32.856 16.112 32.568C16.416 32.264 16.736 31.984 17.072 31.728C17.408 31.472 17.72 31.224 18.008 30.984C18.424 30.616 18.872 30.248 19.352 29.88C19.832 29.512 20.288 29.144 20.72 28.776C21.28 28.312 21.752 27.888 22.136 27.504C22.536 27.12 22.856 26.76 23.096 26.424C23.336 26.088 23.512 25.76 23.624 25.44C23.736 25.104 23.792 24.752 23.792 24.384C23.792 23.568 23.544 22.944 23.048 22.512C22.552 22.064 21.92 21.84 21.152 21.84C20.592 21.84 20.064 21.96 19.568 22.2C19.088 22.44 18.688 22.792 18.368 23.256C18.272 23.432 18.176 23.616 18.08 23.808C18 23.984 17.904 24.152 17.792 24.312ZM35.4071 35.928C35.1191 35.928 34.8231 35.912 34.5191 35.88C34.2311 35.832 33.9431 35.752 33.6551 35.64C33.2231 35.464 32.8071 35.232 32.4071 34.944C32.0231 34.64 31.6711 34.304 31.3511 33.936C30.5831 33.072 29.9991 32.056 29.5991 30.888C29.1991 29.704 28.9991 28.504 28.9991 27.288C28.9991 25.624 29.3191 24.016 29.9591 22.464C30.0711 22.192 30.2151 21.904 30.3911 21.6C30.5831 21.296 30.7911 21.008 31.0151 20.736C31.2551 20.448 31.4951 20.192 31.7351 19.968C31.9911 19.744 32.2471 19.576 32.5031 19.464C32.8551 19.304 33.2391 19.144 33.6551 18.984C34.1671 18.824 34.7431 18.752 35.3831 18.768C36.0231 18.784 36.6071 18.856 37.1351 18.984C37.8711 19.16 38.5031 19.48 39.0311 19.944C39.5591 20.392 40.0071 20.936 40.3751 21.576C40.7431 22.2 41.0311 22.888 41.2391 23.64C41.4471 24.376 41.5991 25.128 41.6951 25.896C41.7591 26.408 41.7831 26.92 41.7671 27.432C41.7511 27.928 41.7111 28.432 41.6471 28.944C41.5831 29.408 41.5031 29.872 41.4071 30.336C41.3271 30.8 41.2151 31.248 41.0711 31.68C40.9271 32.112 40.7431 32.528 40.5191 32.928C40.2951 33.312 40.0151 33.672 39.6791 34.008C39.0711 34.6 38.4071 35.064 37.6871 35.4C36.9831 35.72 36.2231 35.896 35.4071 35.928ZM35.3831 21.936C35.1591 21.936 34.9351 21.96 34.7111 22.008C34.5031 22.04 34.3031 22.12 34.1111 22.248C33.8871 22.392 33.6871 22.568 33.5111 22.776C33.3351 22.984 33.1831 23.2 33.0551 23.424C32.7191 24 32.4871 24.616 32.3591 25.272C32.2311 25.928 32.1671 26.592 32.1671 27.264C32.1671 27.952 32.2391 28.664 32.3831 29.4C32.5431 30.136 32.8231 30.808 33.2231 31.416C33.4151 31.704 33.6391 31.96 33.8951 32.184C34.1671 32.392 34.4791 32.544 34.8311 32.64C35.1511 32.72 35.4711 32.744 35.7911 32.712C36.1271 32.68 36.4391 32.576 36.7271 32.4C37.1911 32.112 37.5591 31.728 37.8311 31.248C38.1031 30.768 38.3031 30.248 38.4311 29.688C38.5751 29.128 38.6551 28.552 38.6711 27.96C38.7031 27.368 38.7031 26.832 38.6711 26.352C38.6391 25.872 38.5591 25.368 38.4311 24.84C38.3031 24.312 38.1111 23.832 37.8551 23.4C37.6151 22.968 37.2871 22.616 36.8711 22.344C36.4711 22.056 35.9751 21.92 35.3831 21.936ZM47.7264 18.672C47.8384 18.64 47.9424 18.616 48.0384 18.6C48.1344 18.568 48.2304 18.544 48.3264 18.528C48.4384 18.496 48.5744 18.48 48.7344 18.48C48.9104 18.464 49.0704 18.472 49.2144 18.504C49.3744 18.52 49.5184 18.568 49.6464 18.648C49.7904 18.712 49.8944 18.816 49.9584 18.96C50.0224 19.12 50.0624 19.312 50.0784 19.536C50.1104 19.744 50.1264 19.96 50.1264 20.184C50.1264 20.408 50.1184 20.632 50.1024 20.856C50.1024 21.064 50.1024 21.256 50.1024 21.432V33.696C50.1024 33.872 50.1024 34.056 50.1024 34.248C50.1184 34.424 50.1184 34.608 50.1024 34.8C50.0864 34.992 50.0384 35.176 49.9584 35.352C49.8784 35.512 49.7584 35.648 49.5984 35.76C49.3744 35.936 49.0704 36.024 48.6864 36.024C48.3184 36.04 47.9984 36 47.7264 35.904C47.4384 35.808 47.2624 35.624 47.1984 35.352C47.1504 35.08 47.1264 34.808 47.1264 34.536C47.0144 32.424 46.9584 30.36 46.9584 28.344C46.9744 26.312 46.9824 24.224 46.9824 22.08C46.9504 22.16 46.8384 22.232 46.6464 22.296C46.4704 22.36 46.2624 22.416 46.0224 22.464C45.7984 22.512 45.5824 22.552 45.3744 22.584C45.1664 22.616 45.0304 22.632 44.9664 22.632C44.5504 22.68 44.1664 22.64 43.8144 22.512C43.4784 22.368 43.2864 22.048 43.2384 21.552C43.1744 21.04 43.2864 20.64 43.5744 20.352C43.8784 20.064 44.2624 19.848 44.7264 19.704C45.2384 19.528 45.7344 19.352 46.2144 19.176C46.7104 18.984 47.2144 18.816 47.7264 18.672ZM59.0816 36.048C58.3456 36.048 57.6336 35.968 56.9456 35.808C56.2736 35.632 55.6576 35.296 55.0976 34.8C54.8896 34.608 54.6896 34.392 54.4976 34.152C54.3216 33.896 54.1936 33.648 54.1136 33.408C54.0496 33.152 54.0576 32.904 54.1376 32.664C54.2176 32.408 54.4176 32.184 54.7376 31.992C54.9456 31.864 55.1296 31.8 55.2896 31.8C55.4656 31.8 55.6256 31.84 55.7696 31.92C55.9296 32 56.0736 32.112 56.2016 32.256C56.3456 32.384 56.4896 32.512 56.6336 32.64C57.0016 32.944 57.3936 33.144 57.8096 33.24C58.2416 33.336 58.6896 33.384 59.1536 33.384C59.6816 33.384 60.1696 33.256 60.6176 33C61.0656 32.744 61.4416 32.408 61.7456 31.992C62.0656 31.576 62.2976 31.104 62.4416 30.576C62.5856 30.048 62.6176 29.52 62.5376 28.992C62.0736 29.264 61.5456 29.48 60.9536 29.64C60.3616 29.784 59.7936 29.856 59.2496 29.856C58.3856 29.856 57.6016 29.736 56.8976 29.496C56.2096 29.24 55.6176 28.888 55.1216 28.44C54.6256 27.976 54.2416 27.416 53.9696 26.76C53.6976 26.104 53.5616 25.376 53.5616 24.576C53.5616 23.744 53.7056 22.976 53.9936 22.272C54.2816 21.552 54.6896 20.936 55.2176 20.424C55.7456 19.896 56.3776 19.488 57.1136 19.2C57.8496 18.896 58.6656 18.744 59.5616 18.744C60.5856 18.744 61.4416 18.896 62.1296 19.2C62.8336 19.488 63.4736 19.928 64.0496 20.52C64.6416 21.144 65.0736 21.96 65.3456 22.968C65.6336 23.976 65.7776 25.304 65.7776 26.952C65.7776 28.296 65.6256 29.528 65.3216 30.648C65.0336 31.768 64.6096 32.728 64.0496 33.528C63.4896 34.328 62.7856 34.952 61.9376 35.4C61.1056 35.832 60.1536 36.048 59.0816 36.048ZM59.6336 21.648C59.3456 21.632 59.0576 21.648 58.7696 21.696C58.4976 21.728 58.2496 21.784 58.0256 21.864C57.5936 22.04 57.2496 22.328 56.9936 22.728C56.7376 23.112 56.5776 23.536 56.5136 24C56.4496 24.464 56.4816 24.928 56.6096 25.392C56.7536 25.856 57.0016 26.24 57.3536 26.544C57.6576 26.832 58.0176 27.024 58.4336 27.12C58.8496 27.216 59.2656 27.24 59.6816 27.192C60.1136 27.144 60.5216 27.024 60.9056 26.832C61.2896 26.64 61.6096 26.392 61.8656 26.088C62.1216 25.784 62.2896 25.464 62.3696 25.128C62.4656 24.776 62.4816 24.432 62.4176 24.096C62.3696 23.744 62.2576 23.416 62.0816 23.112C61.9056 22.792 61.6896 22.512 61.4336 22.272C61.2096 22.096 60.9376 21.96 60.6176 21.864C60.3136 21.752 59.9856 21.68 59.6336 21.648Z" fill="white"/>
<defs>
<filter id="filter0_d_128:221" x="0" y="0" width="164.037" height="90.7227" filterUnits="userSpaceOnUse" color-interpolation-filters="sRGB">
<feFlood flood-opacity="0" result="BackgroundImageFix"/>
<feColorMatrix in="SourceAlpha" type="matrix" values="0 0 0 0 0 0 0 0 0 0 0 0 0 0 0 0 0 0 127 0" result="hardAlpha"/>
<feOffset dx="-5" dy="-5"/>
<feGaussianBlur stdDeviation="2"/>
<feComposite in2="hardAlpha" operator="out"/>
<feColorMatrix type="matrix" values="0 0 0 0 0 0 0 0 0 0 0 0 0 0 0 0 0 0 0.25 0"/>
<feBlend mode="normal" in2="BackgroundImageFix" result="effect1_dropShadow_128:221"/>
<feBlend mode="normal" in="SourceGraphic" in2="effect1_dropShadow_128:221" result="shape"/>
</filter>
</defs>
</svg>
