<svg width="353" height="390" viewBox="0 0 353 390" fill="none" xmlns="http://www.w3.org/2000/svg">
<g id="dashboard">
<g id="notebook">
<path id="Vector" d="M296.609 245.639L249.543 218.408C247.152 217.025 243.273 217.025 240.883 218.408L1.79297 356.443C-0.597656 357.826 -0.597656 360.064 1.79297 361.443L48.8594 388.678C51.25 390.057 55.1289 390.057 57.5195 388.678L147.121 336.947L160.891 344.955C168.184 349.166 180.008 349.166 187.301 344.959L228.359 321.428C235.652 317.217 235.656 310.393 228.363 306.182L214.598 298.178L296.609 250.639C299 249.26 299 247.021 296.609 245.639Z" fill="#D8D9D9" fill-opacity="0.42"/>
<path id="Vector_2" d="M187.305 340.982L222.68 320.529C226.328 318.424 228.148 315.666 228.148 312.908C228.152 310.146 228.164 307.986 228.164 307.986L194.879 289.096C192.934 287.971 191.359 285.24 191.359 282.994V239.381L129.57 275.084V318.697C129.57 320.943 131.145 323.674 133.09 324.799L160.895 340.986C168.188 345.193 180.012 345.193 187.305 340.982Z" fill="#A8A8A8"/>
<path id="Vector_3" d="M144.406 326.42V331.318L133.082 324.795C131.148 323.678 129.562 320.951 129.562 318.693V275.088L141.336 268.295C141.578 271.283 141.844 274.377 142.086 277.385L133.832 282.162V316.236C133.832 318.49 135.398 321.217 137.352 322.334L144.406 326.42Z" fill="#8A8A8A"/>
<path id="Vector_4" d="M133.832 316.244C133.832 318.49 135.406 321.221 137.352 322.342L160.891 336.064C168.184 340.275 180.008 340.275 187.301 336.068L222.695 315.615C229.988 311.408 229.988 304.584 222.695 300.373L199.141 286.639C197.195 285.514 195.621 282.783 195.621 280.537V246.463L133.832 282.162V316.244Z" fill="#EFEFEF"/>
<path id="Vector_5" d="M228.16 307.99C228.16 307.99 228.16 310.146 228.16 312.912C228.16 315.674 226.328 318.42 222.691 320.533L187.309 340.979C183.812 343.01 179.281 344.025 174.703 344.107V339.209C179.281 339.146 183.812 338.088 187.309 336.076L222.691 315.615C226.328 313.521 228.16 310.756 228.16 307.99Z" fill="#A8A8A8"/>
<path id="Vector_6" d="M34.625 363.295C36.9062 364.611 40.7266 364.537 43.1562 363.135C73.5312 345.599 251.73 242.717 282.105 225.181C284.535 223.779 286.504 220.365 286.504 217.556V8.40802C286.504 5.60333 284.656 2.25958 282.375 0.943176C280.094 -0.373231 276.277 -0.302918 273.844 1.09943L34.8984 139.056C32.4688 140.459 30.4961 143.873 30.4961 146.678V355.826C30.4961 358.635 32.3438 361.978 34.625 363.295Z" fill="#E3E3E3"/>
<path id="Vector_7" d="M43.1562 363.131L282.105 225.178C284.535 223.771 286.508 220.361 286.508 217.553V8.4043C286.508 5.5957 284.535 4.45898 282.105 5.86133L43.1602 143.818C40.7305 145.221 38.7578 148.635 38.7578 151.439L38.7539 360.588C38.7539 363.396 40.7266 364.533 43.1562 363.131Z" fill="#C1C1C1"/>
<path id="Vector_8" d="M47.0117 332.963V154.182C47.0117 152.498 48.1953 150.447 49.6523 149.607L275.602 19.1582C277.059 18.3144 278.242 18.9941 278.242 20.6816L278.25 199.463C278.25 201.146 277.066 203.193 275.609 204.037L49.6523 334.486C48.1914 335.326 47.0117 334.646 47.0117 332.963Z" fill="#00B2A7"/>
<path id="Vector_9" d="M48.4727 334.846C47.6055 334.846 47.0117 334.154 47.0117 332.963V154.182C47.0117 152.498 48.1953 150.447 49.6523 149.607L275.602 19.1582C276.023 18.9121 276.426 18.7949 276.781 18.7949C277.648 18.7949 278.242 19.4863 278.242 20.6816L278.246 55.0723L81.4062 168.545C80.2148 169.24 79.25 170.924 79.25 172.303V183.799L79.2422 317.4L49.6523 334.486C49.2266 334.729 48.8281 334.846 48.4727 334.846ZM84.7852 314.201V191.936C84.7852 190.686 84.7852 187.588 84.7852 187.068V314.201Z" fill="white"/>
</g>
<g id="board">
<path id="Vector_10" d="M130.625 256.677C130.148 256.677 129.605 256.845 129.031 257.173C126.895 258.411 125.152 261.423 125.152 263.896C125.152 264.982 125.492 265.779 126.113 266.134C126.73 266.493 127.59 266.388 128.531 265.845C130.672 264.611 132.414 261.595 132.414 259.126C132.414 258.036 132.07 257.243 131.453 256.884C131.211 256.743 130.93 256.677 130.625 256.677ZM126.938 267.345C126.457 267.345 126.008 267.232 125.613 267.001C124.672 266.458 124.152 265.353 124.152 263.896C124.152 261.06 126.078 257.728 128.531 256.31C129.797 255.579 131.012 255.478 131.953 256.017C132.895 256.56 133.414 257.665 133.414 259.126C133.414 261.962 131.488 265.294 129.031 266.712C128.305 267.134 127.59 267.345 126.938 267.345Z" fill="#179DAF"/>
<path id="Vector_11" d="M282.25 34.4541L49.543 168.649V340.165C49.543 342.446 52.0117 343.884 53.9922 342.743L58.1367 340.349L277.914 213.626C280.301 212.247 282.25 208.892 282.25 206.118V34.4541Z" fill="#EAEAE9"/>
<path id="Vector_12" d="M282.25 34.4541L49.543 168.649V340.165C49.543 341.896 50.9648 343.142 52.5195 343.142C53.0117 343.142 53.5156 343.017 53.9922 342.743L58.1367 340.349L277.914 213.626C280.301 212.247 282.25 208.892 282.25 206.118V34.4541ZM281.25 36.1846V206.118C281.25 208.517 279.492 211.56 277.414 212.763L57.6367 339.481L53.4922 341.876C53.1836 342.052 52.8555 342.142 52.5195 342.142C52.0117 342.142 51.5117 341.938 51.1406 341.583C50.7539 341.212 50.543 340.708 50.543 340.165V169.228L281.25 36.1846Z" fill="#D8D9D9"/>
<path id="Vector_13" d="M51.1016 342.782C51.1016 342.782 49.543 342.021 49.543 340.165V173.591C49.543 172.224 49.543 168.649 49.543 168.649L44.0078 165.454L44 336.021C44 336.231 44.0156 336.442 44.043 336.653C44.2422 338.06 45.0703 339.31 46.3086 340.013L50.875 342.657L51.1016 342.782Z" fill="#E5E5E4"/>
<path id="Vector_14" d="M44.0078 165.532V153.958C44.0078 152.579 44.9727 150.896 46.1641 150.2L274.574 18.5244C275.766 17.8291 277.703 17.8252 278.898 18.5127L280.086 19.2002C281.281 19.8916 282.25 21.5713 282.25 22.9502V34.544L49.543 168.724L44.0078 165.532Z" fill="#179DAF"/>
<path id="Vector_15" d="M44.0117 165.532H44.0078V153.958C44.0078 152.579 44.9727 150.896 46.1641 150.2L274.574 18.5244C275.172 18.1768 275.961 18.001 276.746 18.001C277.523 18.001 278.301 18.1729 278.898 18.5127L280.086 19.2002C281.27 19.8838 282.23 21.5322 282.25 22.9072C282.238 21.958 281.758 21.4111 281.062 21.4111C280.773 21.4111 280.441 21.5088 280.094 21.7119L51.6992 153.392C50.707 153.974 49.8711 155.239 49.6172 156.442C49.7187 155.962 49.9102 155.466 50.1719 155.013L44.6406 151.825C44.25 152.505 44.0117 153.263 44.0117 153.954V165.532ZM282.25 22.9385C282.25 22.9346 282.25 22.9346 282.25 22.9346C282.25 22.9346 282.25 22.9346 282.25 22.9385ZM282.25 22.9229V22.9189V22.9229Z" fill="#0095A9"/>
<path id="Vector_16" d="M49.543 157.153C49.543 155.775 50.5078 154.091 51.6992 153.392L280.094 21.7121C281.285 21.0168 282.25 21.5714 282.25 22.9503V34.5441L49.543 168.724V157.153Z" fill="#179DAF"/>
<path id="Vector_17" d="M49.543 168.724V157.153C49.543 156.923 49.5664 156.685 49.6172 156.442C49.8711 155.239 50.707 153.974 51.6992 153.392L280.094 21.7119C280.441 21.5088 280.773 21.4111 281.062 21.4111C281.77 21.4111 282.25 21.9736 282.25 22.9502V34.5439L49.543 168.724Z" fill="#006D90"/>
<path id="Vector_18" d="M50.1719 155.013C49.7812 155.692 49.543 156.466 49.543 157.153V168.724L44.0117 165.536V153.954C44.0117 153.263 44.25 152.505 44.6406 151.825L50.1719 155.013Z" fill="#179DAF"/>
<path id="Vector_19" d="M49.543 168.724L44.0117 165.536V153.954C44.0117 153.263 44.25 152.505 44.6406 151.825L50.1719 155.013C49.7812 155.692 49.543 156.466 49.543 157.153V168.724Z" fill="#007F91"/>
<path id="Vector_20" d="M272.098 34.0165C272.098 35.3134 273.004 35.8368 274.129 35.1884C275.25 34.5438 276.16 32.9657 276.16 31.6727C276.16 30.3759 275.25 29.8524 274.129 30.5009C273.004 31.1493 272.098 32.7235 272.098 34.0165Z" fill="#F9F9F8"/>
<path id="Vector_21" d="M263.973 38.7083C263.973 40.0052 264.883 40.5286 266.004 39.8802C267.125 39.2317 268.035 37.6575 268.035 36.3646C268.035 35.0677 267.125 34.5442 266.004 35.1888C264.883 35.8372 263.973 37.4153 263.973 38.7083Z" fill="#F9F9F8"/>
<path id="Vector_22" d="M255.848 43.3996C255.848 44.6925 256.758 45.2199 257.879 44.5714C259 43.923 259.91 42.3488 259.91 41.0519C259.91 39.7589 259 39.2316 257.879 39.88C256.758 40.5285 255.848 42.1027 255.848 43.3996Z" fill="#F9F9F8"/>
<path id="Vector_23" d="M49.543 168.728V340.165C49.543 342.446 52.0117 343.884 53.9922 342.743L58.1367 340.349L108.992 311.024V134.442L49.543 168.724V168.728Z" fill="#F9F9F8"/>
<path id="Vector_24" d="M113.055 137.341V303.849L277.371 208.981V42.4697L113.055 137.341Z" fill="#F9F9F8"/>
<path id="Vector_25" d="M95.3828 154.563L57.457 176.477C56.7578 176.884 56.1875 177.868 56.1875 178.68V182.63C56.1875 183.438 56.7539 183.766 57.457 183.364L95.3828 161.446C96.0859 161.04 96.6523 160.055 96.6523 159.247L96.6562 155.298C96.6562 154.489 96.0859 154.157 95.3828 154.563Z" fill="#179DAF"/>
<path id="Vector_26" d="M56.8906 183.536C56.4727 183.536 56.1875 183.204 56.1875 182.63V178.681C56.1875 177.868 56.7578 176.884 57.457 176.478L95.3828 154.563C95.5898 154.446 95.7812 154.392 95.9531 154.392C96.3672 154.392 96.6562 154.724 96.6562 155.298L96.6523 159.247C96.6523 160.056 96.0859 161.04 95.3828 161.446L57.457 183.364C57.2539 183.478 57.0586 183.536 56.8906 183.536Z" fill="#B7E1E0"/>
<path id="Vector_27" d="M100.871 156.137C100.676 156.251 100.512 156.27 100.391 156.2C100.207 156.095 99.9922 155.727 99.9922 155.04C99.9922 153.899 100.598 152.583 101.309 152.173C101.426 152.102 101.535 152.067 101.625 152.067L101.789 152.114C101.973 152.216 102.184 152.583 102.184 153.266C102.184 154.411 101.582 155.727 100.871 156.137ZM103.828 156.13L102.711 155.055C102.93 154.489 103.066 153.872 103.066 153.266C103.066 152.356 102.762 151.657 102.23 151.348C101.828 151.118 101.34 151.137 100.871 151.411C99.8828 151.977 99.1133 153.575 99.1133 155.04C99.1133 155.954 99.418 156.653 99.9492 156.962C100.133 157.067 100.336 157.122 100.547 157.122C100.797 157.122 101.055 157.048 101.309 156.899C101.68 156.684 102.02 156.325 102.301 155.884L103.219 156.762C103.305 156.848 103.414 156.887 103.523 156.887C103.641 156.887 103.754 156.841 103.84 156.755C104.008 156.579 104.004 156.298 103.828 156.13Z" fill="#335863"/>
<path id="Vector_28" d="M57.1094 194.95L56.2578 195.438L56.168 195.372V193.067L56.2578 192.896L57.1094 192.403L57.2031 192.474V194.774L57.1094 194.95Z" fill="#335863"/>
<path id="Vector_29" d="M58.3867 194.212L57.5352 194.704L57.4414 194.634V192.333L57.5352 192.161L58.3867 191.669L58.4766 191.739V194.04L58.3867 194.212Z" fill="#335863"/>
<path id="Vector_30" d="M59.6602 193.478L58.8086 193.97L58.7188 193.899V191.595L58.8086 191.423L59.6602 190.931L59.75 191.001V193.306L59.6602 193.478Z" fill="#335863"/>
<path id="Vector_31" d="M57.1094 197.919L56.2578 198.411L56.168 198.341V196.04L56.2578 195.864L57.1094 195.376L57.2031 195.442V197.747L57.1094 197.919Z" fill="#335863"/>
<path id="Vector_32" d="M58.3867 197.185L57.5352 197.673L57.4414 197.606V195.302L57.5352 195.13L58.3867 194.638L58.4766 194.708V197.009L58.3867 197.185Z" fill="#335863"/>
<path id="Vector_33" d="M59.6602 196.446L58.8086 196.938L58.7188 196.868V194.567L58.8086 194.392L59.6602 193.903L59.75 193.97V196.274L59.6602 196.446Z" fill="#335863"/>
<path id="Vector_34" d="M57.2461 205.767L56.1992 205.126V204.939L57.2461 203.091C57.2969 203.005 57.3711 203.017 57.3711 203.114V205.599C57.3711 205.7 57.2969 205.798 57.2461 205.767Z" fill="#335863"/>
<path id="Vector_35" d="M56.8047 204.356L58.1836 203.56V204.216L56.8047 205.009C56.6875 205.079 56.5938 204.985 56.5938 204.806C56.5938 204.626 56.6875 204.423 56.8047 204.356Z" fill="#335863"/>
<path id="Vector_36" d="M58.4414 203.411L58.9102 203.138V203.794L58.4414 204.067V203.411Z" fill="#335863"/>
<path id="Vector_37" d="M60.1797 202.735V205.146C60.1797 205.329 60.0859 205.528 59.9688 205.595C59.8516 205.665 59.7539 205.575 59.7539 205.392V203.31L59.1719 203.646V202.989L59.9688 202.532C60.0859 202.462 60.1797 202.556 60.1797 202.735Z" fill="#335863"/>
<path id="Vector_38" d="M57.6523 211.169C56.6758 211.841 56.0117 213.696 56.1992 215.067C56.375 216.325 57.1172 216.274 57.1992 216.856L57.293 216.919L58.2265 216.388L58.3203 216.216C58.418 215.45 59.3711 214.52 59.3789 212.653C59.3828 211.22 58.5976 210.516 57.6523 211.169Z" fill="#335863"/>
<path id="Vector_39" d="M58.2109 217.892L57.3086 218.411L57.1992 218.325V217.497L57.3086 217.286L58.2109 216.763L58.3203 216.849V217.677L58.2109 217.892Z" fill="#335863"/>
<path id="Vector_40" d="M58.1955 196.872C57.3635 197.352 56.6838 196.7 56.6838 195.415C56.6838 194.134 57.3635 192.696 58.1955 192.212C59.0314 191.731 59.7111 192.384 59.7111 193.669C59.7111 194.954 59.0314 196.391 58.1955 196.872ZM57.8713 191.716C57.0393 192.399 56.3752 193.813 56.2385 195.169C56.1603 195.958 56.258 196.598 56.4768 197.055L56.1721 198.63C56.1486 198.759 56.2189 198.825 56.2932 198.743L57.2033 197.755C57.5783 197.876 58.0353 197.77 58.5197 197.368C59.3518 196.684 60.0197 195.266 60.1525 193.911C60.3674 191.712 59.2189 190.606 57.8713 191.716Z" fill="#335863"/>
<path id="Vector_41" d="M58.1955 227.219C57.3635 227.7 56.6838 227.048 56.6838 225.762C56.6838 224.481 57.3635 223.044 58.1955 222.559C59.0314 222.079 59.7111 222.731 59.7111 224.016C59.7111 225.302 59.0314 226.739 58.1955 227.219ZM57.8713 222.063C57.0393 222.747 56.3752 224.161 56.2385 225.516C56.1603 226.305 56.258 226.946 56.4768 227.403L56.1721 228.977C56.1486 229.106 56.2189 229.173 56.2932 229.094L57.2033 228.102C57.5783 228.223 58.0353 228.118 58.5197 227.716C59.3518 227.032 60.0197 225.618 60.1525 224.259C60.3674 222.059 59.2189 220.954 57.8713 222.063Z" fill="#335863"/>
<path id="Vector_42" d="M59.1484 233.184C59.1484 233.864 58.793 234.622 58.3516 234.876C57.9102 235.13 57.5508 234.786 57.5508 234.106C57.5508 233.426 57.9102 232.672 58.3516 232.415C58.793 232.161 59.1484 232.505 59.1484 233.184Z" fill="#335863"/>
<path id="Vector_43" d="M60.5195 233.426C60.5195 233.88 60.2812 234.383 59.9883 234.551C59.6953 234.723 59.457 234.493 59.457 234.04C59.457 233.587 59.6953 233.083 59.9883 232.915C60.2812 232.747 60.5195 232.973 60.5195 233.426Z" fill="#335863"/>
<path id="Vector_44" d="M59.293 238.028L57.4102 239.118V236.731C57.4102 236.227 57.7148 235.645 58.0898 235.426L58.6094 235.126C58.9883 234.907 59.293 235.137 59.293 235.641V238.028Z" fill="#335863"/>
<path id="Vector_45" d="M60.0742 234.829L59.5547 235.125V237.879L60.5352 237.313V235.176C60.5352 234.836 60.3281 234.68 60.0742 234.829Z" fill="#335863"/>
<path id="Vector_46" d="M56.1797 235.931C56.1797 236.384 56.418 236.614 56.7109 236.443C57.0078 236.275 57.2461 235.771 57.2461 235.318C57.2461 234.868 57.0078 234.638 56.7109 234.806C56.418 234.974 56.1797 235.482 56.1797 235.931Z" fill="#335863"/>
<path id="Vector_47" d="M56.6289 236.817L57.1484 236.517V239.267L56.168 239.833V237.696C56.168 237.356 56.375 236.962 56.6289 236.817Z" fill="#335863"/>
<path id="Vector_48" d="M65.3945 189.552L87.6016 176.732C88.1992 176.388 88.6836 176.634 88.6836 177.278C88.6836 177.927 88.1992 178.732 87.6016 179.079L65.3945 191.899C64.7969 192.243 64.3125 191.997 64.3125 191.349C64.3125 190.704 64.7969 189.899 65.3945 189.552Z" fill="#D8D9D9"/>
<path id="Vector_49" d="M65.3945 200.005L87.6016 187.184C88.1992 186.841 88.6836 187.083 88.6836 187.731C88.6836 188.38 88.1992 189.184 87.6016 189.532L65.3945 202.352C64.7969 202.696 64.3125 202.45 64.3125 201.806C64.3125 201.157 64.7969 200.352 65.3945 200.005Z" fill="#D8D9D9"/>
<path id="Vector_50" d="M65.3945 210.458L87.6016 197.638C88.1992 197.294 88.6836 197.536 88.6836 198.184C88.6836 198.833 88.1992 199.638 87.6016 199.981L65.3945 212.806C64.7969 213.149 64.3125 212.903 64.3125 212.255C64.3125 211.61 64.7969 210.806 65.3945 210.458Z" fill="#D8D9D9"/>
<path id="Vector_51" d="M65.3945 220.911L87.6016 208.091C88.1992 207.747 88.6836 207.989 88.6836 208.638C88.6836 209.286 88.1992 210.091 87.6016 210.434L65.3945 223.259C64.7969 223.602 64.3125 223.356 64.3125 222.708C64.3125 222.059 64.7969 221.259 65.3945 220.911Z" fill="#D8D9D9"/>
<path id="Vector_52" d="M65.3945 231.364L87.6016 218.544C88.1992 218.2 88.6836 218.442 88.6836 219.091C88.6836 219.739 88.1992 220.544 87.6016 220.888L65.3945 233.712C64.7969 234.056 64.3125 233.809 64.3125 233.161C64.3125 232.513 64.7969 231.708 65.3945 231.364Z" fill="#D8D9D9"/>
<path id="Vector_53" d="M69.457 239.899L91.6641 227.079C92.2617 226.731 92.7461 226.977 92.7461 227.626C92.7461 228.274 92.2617 229.079 91.6641 229.422L69.457 242.243C68.8555 242.59 68.375 242.344 68.375 241.696C68.375 241.047 68.8555 240.243 69.457 239.899Z" fill="#335863"/>
<path id="Vector_54" d="M69.457 246.962L91.6641 234.138C92.2617 233.794 92.7461 234.04 92.7461 234.688C92.7461 235.333 92.2617 236.138 91.6641 236.485L69.457 249.306C68.8555 249.649 68.375 249.407 68.375 248.759C68.375 248.11 68.8555 247.306 69.457 246.962Z" fill="#D8D9D9"/>
<path id="Vector_55" d="M69.457 254.02L91.6641 241.2C92.2617 240.856 92.7461 241.099 92.7461 241.747C92.7461 242.395 92.2617 243.2 91.6641 243.548L69.457 256.368C68.8555 256.712 68.375 256.466 68.375 255.817C68.375 255.173 68.8555 254.368 69.457 254.02Z" fill="#D8D9D9"/>
<path id="Vector_56" d="M73.7773 258.509L95.9844 245.689C96.582 245.345 97.0664 245.591 97.0664 246.235C97.0664 246.884 96.582 247.689 95.9844 248.036L73.7773 260.857C73.1797 261.2 72.6953 260.954 72.6953 260.306C72.6953 259.661 73.1797 258.857 73.7773 258.509Z" fill="#D8D9D9"/>
<path id="Vector_57" d="M68.5859 264.587L70.3906 261.403C70.4609 261.282 70.4609 261.122 70.3906 261.079L68.5859 259.981C68.5 259.927 68.375 260.095 68.375 260.266V264.548C68.375 264.716 68.5 264.739 68.5859 264.587Z" fill="#335863"/>
<path id="Vector_58" d="M73.7773 265.548L95.9844 252.724C96.582 252.38 97.0664 252.626 97.0664 253.274C97.0664 253.919 96.582 254.724 95.9844 255.071L73.7773 267.892C73.1797 268.239 72.6953 267.993 72.6953 267.345C72.6953 266.696 73.1797 265.892 73.7773 265.548Z" fill="#D8D9D9"/>
<path id="Vector_59" d="M68.5859 271.622L70.3906 268.438C70.4609 268.317 70.4609 268.157 70.3906 268.118L68.5859 267.016C68.5 266.965 68.375 267.133 68.375 267.301V271.582C68.375 271.754 68.5 271.774 68.5859 271.622Z" fill="#335863"/>
<path id="Vector_60" d="M73.7773 272.583L95.9844 259.762C96.582 259.415 97.0664 259.661 97.0664 260.309C97.0664 260.958 96.582 261.762 95.9844 262.106L73.7773 274.926C73.1797 275.274 72.6953 275.028 72.6953 274.38C72.6953 273.731 73.1797 272.926 73.7773 272.583Z" fill="#D8D9D9"/>
<path id="Vector_61" d="M68.5859 278.657L70.3906 275.477C70.4609 275.356 70.4609 275.196 70.3906 275.153L68.5859 274.051C68.5 274 68.375 274.168 68.375 274.336V278.618C68.375 278.789 68.5 278.813 68.5859 278.657Z" fill="#335863"/>
<path id="Vector_62" d="M73.7773 279.618L95.9844 266.798C96.582 266.454 97.0664 266.7 97.0664 267.345C97.0664 267.993 96.582 268.798 95.9844 269.142L73.7773 281.966C73.1797 282.31 72.6953 282.064 72.6953 281.419C72.6953 280.771 73.1797 279.966 73.7773 279.618Z" fill="#D8D9D9"/>
<path id="Vector_63" d="M68.5859 285.696L70.3906 282.512C70.4609 282.391 70.4609 282.231 70.3906 282.188L68.5859 281.091C68.5 281.036 68.375 281.204 68.375 281.376V285.657C68.375 285.825 68.5 285.848 68.5859 285.696Z" fill="#335863"/>
<path id="Vector_64" d="M73.7773 286.657L95.9844 273.833C96.582 273.489 97.0664 273.735 97.0664 274.384C97.0664 275.032 96.582 275.837 95.9844 276.181L73.7773 289.001C73.1797 289.345 72.6953 289.103 72.6953 288.454C72.6953 287.806 73.1797 287.001 73.7773 286.657Z" fill="#D8D9D9"/>
<path id="Vector_65" d="M68.5859 292.731L70.3906 289.547C70.4609 289.426 70.4609 289.266 70.3906 289.227L68.5859 288.125C68.5 288.075 68.375 288.243 68.375 288.411V292.692C68.375 292.864 68.5 292.883 68.5859 292.731Z" fill="#335863"/>
<path id="Vector_66" d="M73.7773 293.692L95.9844 280.872C96.582 280.524 97.0664 280.77 97.0664 281.419C97.0664 282.067 96.582 282.872 95.9844 283.215L73.7773 296.036C73.1797 296.383 72.6953 296.137 72.6953 295.489C72.6953 294.84 73.1797 294.036 73.7773 293.692Z" fill="#D8D9D9"/>
<path id="Vector_67" d="M68.5859 299.766L70.3906 296.587C70.4609 296.466 70.4609 296.305 70.3906 296.262L68.5859 295.165C68.5 295.11 68.375 295.278 68.375 295.45V299.727C68.375 299.899 68.5 299.923 68.5859 299.766Z" fill="#335863"/>
<path id="Vector_68" d="M73.7773 300.727L95.9844 287.907C96.582 287.563 97.0664 287.806 97.0664 288.454C97.0664 289.102 96.582 289.907 95.9844 290.255L73.7773 303.075C73.1797 303.419 72.6953 303.173 72.6953 302.524C72.6953 301.88 73.1797 301.075 73.7773 300.727Z" fill="#D8D9D9"/>
<path id="Vector_69" d="M68.5859 306.805L70.3906 303.622C70.4609 303.501 70.4609 303.341 70.3906 303.298L68.5859 302.2C68.5 302.145 68.375 302.313 68.375 302.485V306.766C68.375 306.934 68.5 306.958 68.5859 306.805Z" fill="#335863"/>
<path id="Vector_70" d="M73.7773 307.767L95.9844 294.942C96.582 294.599 97.0664 294.845 97.0664 295.493C97.0664 296.138 96.582 296.942 95.9844 297.29L73.7773 310.11C73.1797 310.458 72.6953 310.212 72.6953 309.563C72.6953 308.915 73.1797 308.11 73.7773 307.767Z" fill="#D8D9D9"/>
<path id="Vector_71" d="M68.5859 313.84L70.3906 310.661C70.4609 310.536 70.4609 310.376 70.3906 310.337L68.5859 309.235C68.5 309.18 68.375 309.352 68.375 309.52V313.801C68.375 313.969 68.5 313.993 68.5859 313.84Z" fill="#335863"/>
<path id="Vector_72" d="M118.199 160.177L191.188 118.036C191.789 117.689 192.273 116.849 192.273 116.161V97.552C192.273 96.8645 191.789 96.5832 191.188 96.927L118.199 139.06C117.602 139.407 117.117 140.247 117.117 140.935V159.552C117.117 160.243 117.602 160.521 118.199 160.177Z" fill="#EAEAE9"/>
<path id="Vector_73" d="M124.562 147.044L124.57 147.001L125.051 145.001L124.387 145.384L124.348 145.38L124.328 145.325V144.962L124.348 144.888L124.387 144.837L125.449 144.224H125.492L125.508 144.282V144.599C125.508 144.634 125.5 144.7 125.473 144.794L124.992 146.798L124.969 146.868L124.93 146.915L124.617 147.095H124.582L124.562 147.044Z" fill="#335863"/>
<path id="Vector_74" d="M126.574 145.055C126.578 144.86 126.578 144.668 126.574 144.485L126.555 144.336L126.516 144.231L126.445 144.192L126.336 144.223L126.223 144.317L126.152 144.442L126.113 144.59L126.098 144.758C126.09 144.95 126.09 145.141 126.098 145.332L126.113 145.481L126.152 145.582L126.223 145.625L126.336 145.59L126.445 145.496L126.516 145.371L126.559 145.223L126.574 145.055ZM126.336 143.676C126.445 143.614 126.543 143.582 126.621 143.586L126.82 143.676C126.871 143.727 126.91 143.805 126.938 143.903C126.965 144 126.977 144.11 126.98 144.227C126.984 144.325 126.988 144.426 126.988 144.535C126.988 144.641 126.984 144.743 126.98 144.836C126.977 144.961 126.965 145.09 126.938 145.215C126.91 145.344 126.871 145.465 126.82 145.582C126.766 145.696 126.703 145.801 126.621 145.895C126.543 145.993 126.445 146.075 126.336 146.137C126.223 146.2 126.129 146.231 126.047 146.227L125.848 146.141C125.797 146.086 125.758 146.008 125.73 145.914C125.707 145.817 125.691 145.707 125.688 145.586C125.684 145.493 125.68 145.395 125.68 145.285C125.68 145.18 125.684 145.078 125.688 144.977C125.691 144.852 125.707 144.723 125.73 144.598C125.758 144.469 125.797 144.348 125.848 144.235C125.902 144.121 125.969 144.012 126.047 143.918C126.129 143.821 126.223 143.743 126.336 143.676Z" fill="#335863"/>
<path id="Vector_75" d="M128.461 144.392L128.484 144.513L128.551 144.517L128.621 144.435L128.641 144.286V144.06L128.621 143.942L128.551 143.935L128.484 144.017L128.461 144.165V144.392ZM128.898 143.896V144.153L128.875 144.36L128.809 144.552L128.703 144.716L128.551 144.841L128.398 144.892L128.293 144.849L128.23 144.731L128.203 144.556L128.199 144.431L128.203 144.298L128.23 144.091L128.293 143.899L128.398 143.735L128.551 143.61L128.703 143.563L128.809 143.603L128.875 143.72L128.898 143.896ZM127.43 143.79L127.453 143.911L127.52 143.915L127.59 143.833L127.613 143.685V143.458L127.59 143.341L127.52 143.333L127.453 143.419L127.43 143.563V143.79ZM128.426 142.571L128.457 142.505L128.504 142.458L128.688 142.353L128.727 142.349L128.742 142.392L128.738 142.411L128.73 142.435L127.633 145.29L127.602 145.353L127.555 145.399L127.375 145.505L127.336 145.509L127.32 145.466L127.324 145.45L127.328 145.423L128.426 142.571ZM127.871 143.294V143.552L127.844 143.759L127.781 143.95L127.672 144.114L127.52 144.239L127.371 144.29L127.266 144.247L127.199 144.13L127.172 143.954L127.168 143.829L127.172 143.696L127.199 143.493L127.266 143.302L127.371 143.134L127.52 143.009L127.672 142.958L127.777 143.005L127.844 143.118L127.871 143.294Z" fill="#335863"/>
<path id="Vector_76" d="M124.555 141.31L123.82 140.181C123.016 141.548 122.402 143.181 122.09 144.849L123.273 144.755C123.504 143.524 123.961 142.317 124.555 141.31Z" fill="#335863"/>
<path id="Vector_77" d="M126.621 139.075V137.161C125.574 137.767 124.605 138.845 123.82 140.181L124.555 141.31C125.133 140.325 125.848 139.524 126.621 139.075Z" fill="#335863"/>
<path id="Vector_78" d="M123.098 146.532C123.098 145.946 123.16 145.349 123.273 144.755L122.09 144.849C121.937 145.649 121.855 146.458 121.855 147.251C121.855 148.04 121.937 148.755 122.09 149.384L123.273 148.106C123.16 147.642 123.098 147.118 123.098 146.532Z" fill="#335863"/>
<path id="Vector_79" d="M130.666 139.732L130.666 139.73C130.373 138.502 129.819 137.732 129.184 137.386C128.635 137.09 127.943 137.059 127.121 137.46V138.317C127.756 138.132 128.375 138.184 128.926 138.483L128.927 138.484C129.687 138.899 130.204 139.727 130.455 140.774C130.579 141.28 130.641 141.848 130.641 142.466C130.641 143.084 130.579 143.713 130.46 144.332C130.219 145.623 129.742 146.88 129.118 147.938L130.666 139.732ZM130.666 139.732C130.808 140.317 130.887 140.988 130.887 141.747C130.887 142.506 130.808 143.283 130.661 144.056L130.661 144.057C130.359 145.67 129.766 147.247 128.991 148.563C128.228 149.852 127.318 150.856 126.372 151.403C125.437 151.94 124.657 151.936 124.059 151.612C123.469 151.291 122.949 150.601 122.643 149.523L123.067 149.064C123.354 149.711 123.773 150.218 124.315 150.514L124.317 150.515M130.666 139.732L124.317 150.515M124.317 150.515C125.079 150.927 125.981 150.869 126.871 150.352M124.317 150.515L126.871 150.352M126.871 150.352C127.746 149.848 128.511 148.969 129.118 147.938L126.871 150.352Z" fill="#179DAF" stroke="#179DAF"/>
<path id="Vector_80" d="M138.512 134.368L160.719 121.548C161.316 121.204 161.801 121.45 161.801 122.095C161.801 122.743 161.316 123.548 160.719 123.892L138.508 136.716C137.914 137.06 137.426 136.814 137.426 136.169C137.426 135.521 137.914 134.716 138.512 134.368Z" fill="#335863"/>
<path id="Vector_81" d="M138.512 139.099L176.965 116.899C177.562 116.556 178.047 116.802 178.047 117.45C178.047 118.099 177.562 118.899 176.965 119.247L138.508 141.442C137.914 141.786 137.426 141.544 137.426 140.895C137.426 140.247 137.914 139.442 138.512 139.099Z" fill="#D8D9D9"/>
<path id="Vector_82" d="M197.402 114.438L270.391 72.2976C270.988 71.9538 271.473 71.114 271.473 70.4226V51.8171C271.473 51.1257 270.988 50.8444 270.391 51.1921L197.402 93.3249C196.805 93.6687 196.32 94.5085 196.32 95.1999V113.813C196.32 114.505 196.805 114.786 197.402 114.438Z" fill="#EAEAE9"/>
<path id="Vector_83" d="M205.016 99.0869L204.996 98.9736L204.941 98.9111L204.867 98.8916L204.773 98.9229L204.688 98.9971L204.609 99.1025L204.555 99.2275L204.535 99.3643L204.555 99.4775L204.609 99.5439L204.688 99.5596L204.773 99.5322L204.867 99.458L204.941 99.3486L204.996 99.2236L205.016 99.0869ZM204.125 99.6025C204.125 99.4697 204.145 99.3408 204.18 99.2158C204.215 99.0869 204.266 98.9697 204.324 98.8643C204.387 98.7549 204.457 98.6572 204.535 98.5752L204.773 98.376L205.02 98.2939L205.227 98.3408L205.371 98.5244C205.406 98.6104 205.426 98.7197 205.426 98.8486L205.41 99.04L205.375 99.2197L205.32 99.3916L205.266 99.5518L204.844 100.696L204.816 100.751L204.773 100.802L204.422 101.009L204.391 101.005L204.375 100.958L204.379 100.927L204.387 100.907L204.672 100.126L204.465 100.157L204.289 100.083L204.172 99.8994C204.141 99.8213 204.125 99.7236 204.125 99.6025Z" fill="#335863"/>
<path id="Vector_84" d="M206.496 98.8988C206.504 98.6996 206.504 98.5082 206.496 98.3246L206.48 98.1761L206.441 98.0746L206.371 98.0316L206.262 98.0629L206.148 98.1605L206.078 98.2855L206.039 98.434L206.023 98.598C206.016 98.7894 206.016 98.9808 206.023 99.1722L206.039 99.3207L206.078 99.4222L206.148 99.4652L206.262 99.4301L206.371 99.3363L206.441 99.2113L206.484 99.0629L206.496 98.8988ZM206.262 97.516C206.371 97.4535 206.469 97.4261 206.547 97.4301L206.746 97.516C206.797 97.5707 206.836 97.6449 206.863 97.7426C206.891 97.8402 206.902 97.9496 206.91 98.0707C206.91 98.1683 206.914 98.266 206.914 98.3754C206.914 98.4808 206.91 98.5824 206.91 98.6801C206.902 98.8051 206.891 98.9301 206.863 99.059C206.836 99.184 206.797 99.3051 206.746 99.4222C206.691 99.5355 206.629 99.641 206.547 99.7386C206.469 99.8324 206.371 99.9144 206.262 99.9769C206.148 100.043 206.055 100.071 205.973 100.067L205.773 99.9808C205.723 99.9261 205.684 99.8519 205.656 99.7543C205.633 99.6566 205.617 99.5472 205.613 99.4261C205.609 99.3324 205.605 99.2347 205.605 99.1293C205.605 99.0199 205.609 98.9183 205.613 98.8168C205.617 98.6918 205.633 98.5668 205.656 98.4379C205.684 98.309 205.723 98.1879 205.773 98.0746C205.828 97.9613 205.895 97.8519 205.973 97.7582C206.055 97.6605 206.148 97.5824 206.262 97.516Z" fill="#335863"/>
<path id="Vector_85" d="M208.387 98.2314L208.41 98.3525L208.477 98.3564L208.547 98.2744L208.566 98.126V97.8994L208.547 97.7822L208.477 97.7744L208.41 97.8604L208.387 98.0049V98.2314ZM208.828 97.7354V97.9971L208.801 98.2002L208.734 98.3916L208.629 98.5557L208.477 98.6807L208.328 98.7314L208.219 98.6885L208.156 98.5713L208.129 98.3955L208.125 98.2705L208.129 98.1377L208.156 97.9346L208.219 97.7432L208.328 97.5752L208.477 97.4502L208.629 97.4033L208.734 97.4463L208.801 97.5635L208.828 97.7354ZM207.355 97.6299L207.379 97.751L207.449 97.7549L207.516 97.6729L207.539 97.5244V97.3018L207.516 97.1807L207.449 97.1768L207.379 97.2588L207.355 97.4072V97.6299ZM208.352 96.4111L208.383 96.3447L208.43 96.3018L208.613 96.1963L208.652 96.1924L208.668 96.2314L208.664 96.251L208.656 96.2744L207.562 99.1299L207.527 99.1963L207.48 99.2393L207.301 99.3447L207.262 99.3486L207.246 99.3057L207.25 99.29L207.254 99.2666L208.352 96.4111ZM207.797 97.1338V97.3916L207.77 97.5986L207.707 97.79L207.598 97.9541L207.449 98.0791L207.297 98.1299L207.191 98.0869L207.125 97.9697L207.098 97.7979L207.094 97.6689L207.098 97.5361L207.125 97.333L207.191 97.1416L207.297 96.9736L207.449 96.8486L207.598 96.8018L207.703 96.8447L207.77 96.958L207.797 97.1338Z" fill="#335863"/>
<path id="Vector_86" d="M206.48 92.9541V91.04C205.434 91.6455 204.469 92.7236 203.68 94.0596L204.414 95.1885C204.996 94.2041 205.707 93.4033 206.48 92.9541Z" fill="#335863"/>
<path id="Vector_87" d="M211.016 93.493C210.699 92.1844 210.086 91.2625 209.281 90.825C208.496 90.3993 207.527 90.4344 206.48 91.0399V92.9539C207.254 92.5086 207.969 92.4852 208.551 92.8016C209.145 93.1258 209.598 93.8055 209.828 94.7664C209.941 95.2313 210.004 95.7586 210.004 96.3446C210.004 96.9266 209.941 97.5243 209.828 98.118C209.598 99.3485 209.145 100.552 208.551 101.559C207.973 102.544 207.254 103.352 206.48 103.798C205.707 104.243 204.996 104.266 204.414 103.95C203.82 103.63 203.367 102.95 203.133 101.985C203.023 101.52 202.961 100.993 202.961 100.411C202.961 99.825 203.023 99.2274 203.133 98.6336C203.367 97.4032 203.82 96.2 204.414 95.1883L203.68 94.0594C202.879 95.4227 202.262 97.0555 201.949 98.7274C201.801 99.5282 201.715 100.337 201.715 101.13C201.715 101.919 201.801 102.634 201.949 103.259C202.262 104.567 202.879 105.493 203.68 105.927C204.469 106.356 205.434 106.317 206.48 105.712C207.527 105.11 208.496 104.028 209.281 102.692C210.086 101.329 210.699 99.6961 211.016 98.0282C211.164 97.2235 211.246 96.4149 211.246 95.6258C211.246 94.8329 211.164 94.118 211.016 93.493Z" fill="#179DAF"/>
<path id="Vector_88" d="M218.352 88.2469L240.559 75.4266C241.156 75.0829 241.641 75.3251 241.641 75.9735C241.641 76.6219 241.156 77.4266 240.559 77.7704L218.352 90.5946C217.754 90.9383 217.27 90.6923 217.27 90.0477C217.27 89.3993 217.754 88.5946 218.352 88.2469Z" fill="#335863"/>
<path id="Vector_89" d="M218.352 92.9733L256.809 70.7819C257.406 70.4342 257.891 70.6803 257.891 71.3287C257.891 71.9733 257.406 72.7819 256.809 73.1256L218.352 95.3209C217.754 95.6647 217.27 95.4225 217.27 94.7741C217.27 94.1256 217.754 93.3209 218.352 92.9733Z" fill="#D8D9D9"/>
<path id="Vector_90" d="M125.637 165.278L141.211 156.259C141.809 155.915 142.293 156.157 142.293 156.806C142.293 157.454 141.809 158.259 141.211 158.602L125.637 167.622C125.039 167.97 124.555 167.724 124.555 167.075C124.555 166.427 125.039 165.622 125.637 165.278Z" fill="#335863"/>
<path id="Vector_91" d="M270.875 86.2236C270.73 86.2236 270.566 86.2705 270.391 86.3721L146.633 157.821C146.461 157.923 146.297 157.97 146.148 157.97C145.797 157.97 145.551 157.685 145.551 157.196V150.317C145.551 149.825 145.309 149.544 144.953 149.544C144.809 149.544 144.645 149.591 144.469 149.692L122.262 162.513C121.664 162.856 121.18 163.696 121.18 164.388V171.267C121.18 171.958 120.695 172.798 120.098 173.142L118.199 174.239C117.602 174.583 117.117 175.423 117.117 176.114V295.563C117.117 296.056 117.363 296.337 117.719 296.337C117.863 296.337 118.027 296.29 118.199 296.188L270.395 208.321C270.992 207.978 271.477 207.138 271.477 206.446V86.9971C271.477 86.5049 271.23 86.2236 270.875 86.2236ZM145.012 150.536H145.016H145.012ZM270.477 87.4814V206.446C270.477 206.782 270.18 207.29 269.895 207.458L118.117 295.079V176.114C118.117 175.782 118.41 175.271 118.699 175.103L120.598 174.009C121.5 173.489 122.18 172.31 122.18 171.267V164.388C122.18 164.056 122.473 163.544 122.762 163.38L144.551 150.802V157.196C144.551 158.36 145.355 158.97 146.148 158.97C146.48 158.97 146.809 158.876 147.133 158.688L270.477 87.4814ZM270.934 87.2158H270.938H270.934Z" fill="#D8D9D9"/>
<path id="Vector_92" d="M127.641 174.055C127.195 174.313 126.805 174.989 126.805 175.497V180.036C126.805 180.204 126.852 180.29 126.875 180.301C126.895 180.313 126.992 180.313 127.141 180.227L139.207 173.266C139.652 173.012 140.043 172.336 140.043 171.825V167.29C140.043 167.118 139.996 167.036 139.973 167.02C139.953 167.008 139.855 167.012 139.707 167.098L127.641 174.055ZM126.902 181.305C126.715 181.305 126.535 181.262 126.375 181.168C126.012 180.961 125.805 180.547 125.805 180.036V175.497C125.805 174.637 126.391 173.622 127.141 173.192L139.207 166.231C139.652 165.973 140.113 165.95 140.473 166.157C140.836 166.364 141.043 166.778 141.043 167.29V171.825C141.043 172.688 140.457 173.704 139.707 174.133L127.641 181.094C127.391 181.235 127.141 181.305 126.902 181.305Z" fill="#D8D9D9"/>
<path id="Vector_93" d="M128.355 175.927L136.223 171.36C136.621 171.13 136.941 171.294 136.941 171.724C136.941 172.157 136.621 172.692 136.223 172.923L128.355 177.489C127.957 177.72 127.633 177.556 127.633 177.122C127.633 176.692 127.957 176.157 128.355 175.927Z" fill="#D8D9D9"/>
<path id="Vector_94" d="M138.051 170.614L138.703 171.54L138.801 171.481L139.453 169.802L139.406 169.677L138.102 170.431L138.051 170.614Z" fill="#335863"/>
<path id="Vector_95" d="M125.242 225.255C125.816 224.919 126.285 225.189 126.285 225.856C126.285 226.521 125.816 227.333 125.242 227.665C124.664 227.997 124.199 227.728 124.199 227.06C124.199 226.396 124.664 225.587 125.242 225.255Z" fill="#179DAF"/>
<path id="Vector_96" d="M133.367 215.872C133.941 215.54 134.41 215.809 134.41 216.473C134.41 217.141 133.941 217.95 133.367 218.282C132.789 218.618 132.324 218.344 132.324 217.68C132.324 217.012 132.789 216.204 133.367 215.872Z" fill="#179DAF"/>
<path id="Vector_97" d="M141.488 211.18C142.066 210.848 142.535 211.118 142.535 211.786C142.535 212.45 142.066 213.258 141.488 213.59C140.914 213.926 140.445 213.657 140.445 212.989C140.445 212.325 140.914 211.512 141.488 211.18Z" fill="#179DAF"/>
<path id="Vector_98" d="M149.613 208.551C150.191 208.219 150.66 208.489 150.66 209.153C150.66 209.821 150.191 210.629 149.613 210.961C149.039 211.294 148.57 211.024 148.57 210.36C148.57 209.692 149.039 208.883 149.613 208.551Z" fill="#179DAF"/>
<path id="Vector_99" d="M157.746 200.102C158.324 199.77 158.793 200.04 158.793 200.707C158.793 201.372 158.324 202.18 157.746 202.516C157.172 202.848 156.703 202.579 156.703 201.911C156.703 201.247 157.172 200.438 157.746 200.102Z" fill="#179DAF"/>
<path id="Vector_100" d="M165.863 197.11C166.437 196.778 166.906 197.047 166.906 197.711C166.906 198.379 166.437 199.188 165.863 199.52C165.285 199.852 164.816 199.583 164.816 198.919C164.816 198.251 165.285 197.442 165.863 197.11Z" fill="#179DAF"/>
<path id="Vector_101" d="M173.984 187.727C174.562 187.395 175.031 187.665 175.031 188.332C175.031 188.997 174.562 189.805 173.984 190.137C173.41 190.473 172.941 190.204 172.941 189.536C172.941 188.872 173.41 188.059 173.984 187.727Z" fill="#179DAF"/>
<path id="Vector_102" d="M182.109 185.383C182.688 185.051 183.152 185.321 183.152 185.989C183.152 186.653 182.688 187.461 182.109 187.793C181.535 188.129 181.066 187.856 181.066 187.192C181.066 186.524 181.535 185.715 182.109 185.383Z" fill="#179DAF"/>
<path id="Vector_103" d="M190.234 159.586C190.812 159.254 191.277 159.524 191.277 160.188C191.277 160.856 190.812 161.665 190.234 161.997C189.656 162.329 189.191 162.059 189.191 161.395C189.191 160.727 189.656 159.919 190.234 159.586Z" fill="#179DAF"/>
<path id="Vector_104" d="M198.359 173.657C198.934 173.325 199.402 173.594 199.402 174.262C199.402 174.926 198.934 175.735 198.359 176.067C197.781 176.399 197.312 176.133 197.312 175.465C197.312 174.801 197.781 173.993 198.359 173.657Z" fill="#179DAF"/>
<path id="Vector_105" d="M206.48 173.657C207.059 173.325 207.527 173.594 207.527 174.262C207.527 174.926 207.059 175.735 206.48 176.067C205.906 176.399 205.438 176.133 205.438 175.465C205.438 174.801 205.906 173.993 206.48 173.657Z" fill="#179DAF"/>
<path id="Vector_106" d="M214.605 173.657C215.184 173.325 215.648 173.594 215.648 174.262C215.648 174.926 215.184 175.735 214.605 176.067C214.031 176.403 213.562 176.133 213.562 175.465C213.562 174.801 214.031 173.993 214.605 173.657Z" fill="#179DAF"/>
<path id="Vector_107" d="M222.73 159.586C223.309 159.254 223.773 159.524 223.773 160.188C223.773 160.856 223.309 161.665 222.73 161.997C222.152 162.329 221.688 162.059 221.688 161.395C221.688 160.727 222.152 159.919 222.73 159.586Z" fill="#179DAF"/>
<path id="Vector_108" d="M230.855 156.891C231.43 156.559 231.898 156.829 231.898 157.493C231.898 158.161 231.43 158.969 230.855 159.301C230.277 159.633 229.812 159.364 229.812 158.7C229.812 158.036 230.277 157.223 230.855 156.891Z" fill="#179DAF"/>
<path id="Vector_109" d="M239.008 145.516C239.582 145.18 240.051 145.453 240.051 146.117C240.051 146.785 239.582 147.594 239.008 147.926C238.43 148.258 237.965 147.989 237.965 147.325C237.965 146.657 238.43 145.848 239.008 145.516Z" fill="#179DAF"/>
<path id="Vector_110" d="M247.102 145.516C247.68 145.18 248.148 145.453 248.148 146.117C248.148 146.785 247.68 147.594 247.102 147.926C246.527 148.258 246.059 147.989 246.059 147.325C246.059 146.657 246.527 145.848 247.102 145.516Z" fill="#179DAF"/>
<path id="Vector_111" d="M255.227 145.516C255.805 145.18 256.27 145.453 256.27 146.117C256.27 146.785 255.805 147.594 255.227 147.926C254.648 148.258 254.184 147.989 254.184 147.325C254.184 146.657 254.648 145.848 255.227 145.516Z" fill="#179DAF"/>
<path id="Vector_112" d="M263.352 140.825C263.926 140.493 264.395 140.762 264.395 141.426C264.395 142.094 263.926 142.903 263.352 143.235C262.773 143.567 262.309 143.297 262.309 142.633C262.309 141.969 262.773 141.157 263.352 140.825Z" fill="#179DAF"/>
<path id="Vector_113" d="M125.219 226.719L125.055 226.657C124.953 226.567 124.942 226.411 125.031 226.305L133.234 216.88L133.297 216.829L141.363 212.173L149.477 209.54L157.555 201.137L157.649 201.075L165.715 198.102L173.797 188.77L173.918 188.692L181.914 186.387L189.996 160.716C190.024 160.622 190.109 160.555 190.207 160.544C190.297 160.532 190.402 160.583 190.453 160.669L198.504 174.614L206.504 174.602L214.461 174.614L222.516 160.669L222.652 160.555L230.699 157.883L238.774 146.575L238.977 146.469H255.16L263.227 141.813C263.344 141.743 263.496 141.786 263.567 141.907C263.637 142.024 263.598 142.176 263.477 142.247L255.352 146.938L255.227 146.969H239.106L231.059 158.243L230.934 158.333L222.899 161.001L214.824 174.989L214.606 175.114L206.504 175.102L198.356 175.114L198.141 174.989L190.301 161.411L182.348 186.665L182.18 186.829L174.129 189.153L166.051 198.477L165.949 198.551L157.879 201.524L149.793 209.93L149.692 209.993L141.567 212.626L133.586 217.239L125.41 226.633L125.219 226.719Z" fill="#179DAF"/>
<path id="Vector_114" d="M125.242 231.649C125.071 231.649 124.903 231.559 124.809 231.399C124.672 231.161 124.754 230.852 124.992 230.716L263.102 150.977C263.34 150.841 263.645 150.923 263.785 151.161C263.922 151.399 263.84 151.708 263.602 151.844L125.492 231.583L125.242 231.649Z" fill="#D8D9D9"/>
<path id="Vector_115" d="M125.242 220.563C125.816 220.227 126.285 220.5 126.285 221.164C126.285 221.828 125.816 222.641 125.242 222.973C124.664 223.305 124.199 223.035 124.199 222.371C124.199 221.703 124.664 220.895 125.242 220.563Z" fill="#179DAF"/>
<path id="Vector_116" d="M133.367 206.493C133.941 206.157 134.41 206.427 134.41 207.095C134.41 207.759 133.941 208.567 133.367 208.903C132.789 209.235 132.32 208.966 132.32 208.298C132.32 207.634 132.789 206.825 133.367 206.493Z" fill="#179DAF"/>
<path id="Vector_117" d="M141.492 204.735C142.066 204.403 142.535 204.672 142.535 205.336C142.535 206.004 142.066 206.813 141.492 207.145C140.914 207.477 140.445 207.208 140.445 206.544C140.445 205.876 140.914 205.067 141.492 204.735Z" fill="#179DAF"/>
<path id="Vector_118" d="M149.613 187.727C150.191 187.395 150.656 187.665 150.656 188.332C150.656 188.997 150.191 189.805 149.613 190.137C149.039 190.473 148.57 190.204 148.57 189.536C148.57 188.872 149.039 188.059 149.613 187.727Z" fill="#179DAF"/>
<path id="Vector_119" d="M157.746 192.419C158.324 192.086 158.793 192.356 158.793 193.02C158.793 193.688 158.324 194.497 157.746 194.829C157.172 195.165 156.703 194.891 156.703 194.227C156.703 193.563 157.172 192.754 157.746 192.419Z" fill="#179DAF"/>
<path id="Vector_120" d="M165.863 190.075C166.441 189.743 166.906 190.012 166.906 190.676C166.906 191.344 166.441 192.153 165.863 192.485C165.289 192.817 164.82 192.547 164.82 191.883C164.82 191.215 165.289 190.407 165.863 190.075Z" fill="#179DAF"/>
<path id="Vector_121" d="M173.984 183.04C174.562 182.708 175.031 182.977 175.031 183.641C175.031 184.305 174.562 185.118 173.984 185.45C173.41 185.782 172.941 185.512 172.941 184.848C172.941 184.18 173.41 183.372 173.984 183.04Z" fill="#179DAF"/>
<path id="Vector_122" d="M182.109 173.657C182.688 173.325 183.152 173.594 183.152 174.262C183.152 174.926 182.688 175.735 182.109 176.067C181.535 176.399 181.066 176.133 181.066 175.465C181.066 174.801 181.535 173.993 182.109 173.657Z" fill="#179DAF"/>
<path id="Vector_123" d="M190.234 171.313C190.812 170.981 191.277 171.251 191.277 171.915C191.277 172.583 190.812 173.391 190.234 173.723C189.656 174.055 189.191 173.786 189.191 173.122C189.191 172.454 189.656 171.645 190.234 171.313Z" fill="#179DAF"/>
<path id="Vector_124" d="M198.355 164.278C198.934 163.942 199.402 164.215 199.402 164.879C199.402 165.543 198.934 166.356 198.355 166.688C197.781 167.02 197.312 166.75 197.312 166.086C197.312 165.418 197.781 164.61 198.355 164.278Z" fill="#179DAF"/>
<path id="Vector_125" d="M206.48 164.278C207.059 163.946 207.523 164.215 207.523 164.879C207.523 165.547 207.059 166.356 206.48 166.688C205.906 167.02 205.438 166.751 205.438 166.086C205.438 165.419 205.906 164.61 206.48 164.278Z" fill="#179DAF"/>
<path id="Vector_126" d="M214.605 145.516C215.184 145.18 215.648 145.453 215.648 146.117C215.648 146.785 215.184 147.594 214.605 147.926C214.031 148.258 213.562 147.989 213.562 147.325C213.562 146.657 214.031 145.848 214.605 145.516Z" fill="#179DAF"/>
<path id="Vector_127" d="M222.73 154.829C223.309 154.497 223.773 154.766 223.773 155.43C223.773 156.098 223.309 156.907 222.73 157.243C222.152 157.575 221.688 157.305 221.688 156.637C221.688 155.973 222.152 155.161 222.73 154.829Z" fill="#179DAF"/>
<path id="Vector_128" d="M230.855 145.516C231.43 145.18 231.898 145.453 231.898 146.117C231.898 146.785 231.43 147.594 230.855 147.926C230.277 148.258 229.812 147.989 229.812 147.325C229.812 146.657 230.277 145.848 230.855 145.516Z" fill="#179DAF"/>
<path id="Vector_129" d="M238.977 140.825C239.555 140.493 240.023 140.762 240.023 141.426C240.023 142.094 239.555 142.903 238.977 143.235C238.402 143.567 237.934 143.297 237.934 142.633C237.934 141.969 238.402 141.157 238.977 140.825Z" fill="#179DAF"/>
<path id="Vector_130" d="M247.102 140.825C247.68 140.493 248.145 140.762 248.145 141.426C248.145 142.094 247.68 142.903 247.102 143.235C246.523 143.567 246.059 143.297 246.059 142.633C246.059 141.965 246.523 141.157 247.102 140.825Z" fill="#179DAF"/>
<path id="Vector_131" d="M255.227 136.133C255.805 135.801 256.27 136.071 256.27 136.739C256.27 137.403 255.805 138.211 255.227 138.543C254.648 138.879 254.184 138.606 254.184 137.942C254.184 137.278 254.648 136.465 255.227 136.133Z" fill="#179DAF"/>
<path id="Vector_132" d="M263.352 136.133C263.926 135.801 264.395 136.071 264.395 136.739C264.395 137.403 263.926 138.211 263.352 138.543C262.773 138.879 262.309 138.606 262.309 137.942C262.309 137.278 262.773 136.465 263.352 136.133Z" fill="#179DAF"/>
<path id="Vector_133" d="M125.242 222.017L125.117 221.985C124.996 221.915 124.957 221.763 125.028 221.642L133.207 207.536L133.371 207.419L141.317 205.72L149.387 188.825L149.539 188.696L149.738 188.72L157.781 193.36L165.742 191.056L173.813 184.06L181.922 174.7L182.039 174.622L190.113 172.294L198.196 165.294L198.36 165.231H206.317L214.379 146.622L214.567 146.474L214.797 146.556L222.731 155.72L230.664 146.556L230.731 146.505L238.883 141.798L239.008 141.763H247.063L255.102 137.122L255.227 137.091H263.352C263.488 137.091 263.602 137.2 263.602 137.341C263.602 137.478 263.488 137.591 263.352 137.591H255.293L247.258 142.231L247.133 142.263H239.074L231.016 146.915L222.922 156.267C222.824 156.376 222.637 156.376 222.543 156.267L214.68 147.185L206.711 165.583C206.672 165.673 206.582 165.731 206.481 165.731H198.453L190.399 172.708L190.305 172.759L182.25 175.083L174.164 184.415L166.028 191.47L165.93 191.521L157.817 193.872L157.621 193.849L149.723 189.286L141.715 206.048L141.543 206.185L133.586 207.884L125.457 221.892L125.242 222.017Z" fill="#179DAF"/>
<path id="Vector_134" d="M124.773 223.114C124.434 223.114 124.199 222.845 124.199 222.372C124.199 221.704 124.664 220.896 125.242 220.563C125.41 220.466 125.566 220.419 125.707 220.419C125.719 220.419 125.727 220.419 125.734 220.419L125.027 221.642C125.004 221.681 124.992 221.724 124.992 221.767C124.992 221.853 125.035 221.938 125.117 221.985L125.242 222.017L125.457 221.892L126.164 220.673C126.242 220.798 126.285 220.962 126.285 221.165C126.285 221.829 125.816 222.642 125.242 222.974C125.074 223.071 124.918 223.114 124.773 223.114Z" fill="#00A990"/>
<path id="Vector_135" d="M132.91 209.044L133.586 207.884L134.285 207.735C134.109 208.216 133.766 208.673 133.367 208.903C133.203 208.997 133.047 209.04 132.91 209.044Z" fill="#00A990"/>
<path id="Vector_136" d="M132.461 208.825C132.371 208.696 132.32 208.521 132.32 208.298C132.32 207.634 132.789 206.825 133.367 206.493C133.535 206.396 133.691 206.349 133.832 206.349C134.176 206.349 134.41 206.622 134.41 207.095C134.41 207.13 134.41 207.165 134.406 207.196L133.371 207.419L133.207 207.536L132.461 208.825Z" fill="#00A990"/>
<path id="Vector_137" d="M141.023 207.29C140.68 207.29 140.445 207.017 140.445 206.544C140.445 206.501 140.449 206.462 140.453 206.419L141.543 206.185L141.715 206.048L142.336 204.747C142.461 204.876 142.535 205.075 142.535 205.337C142.535 206.005 142.066 206.813 141.492 207.146C141.324 207.243 141.164 207.29 141.023 207.29ZM140.578 205.88C140.758 205.407 141.098 204.962 141.492 204.735C141.617 204.661 141.742 204.618 141.852 204.599L141.316 205.72L140.578 205.88Z" fill="#00A990"/>
<path id="Vector_138" d="M149.25 190.274L149.723 189.286L150.215 189.571C150.047 189.81 149.84 190.009 149.613 190.138C149.488 190.212 149.363 190.259 149.25 190.274Z" fill="#00A990"/>
<path id="Vector_139" d="M148.766 190.126C148.641 190.001 148.57 189.798 148.57 189.536C148.57 188.872 149.039 188.06 149.613 187.728C149.781 187.634 149.937 187.587 150.082 187.587C150.422 187.587 150.656 187.86 150.656 188.333C150.656 188.591 150.586 188.872 150.465 189.138L149.738 188.72L149.539 188.696L149.387 188.825L148.766 190.126Z" fill="#00A990"/>
<path id="Vector_140" d="M157.281 194.974C156.938 194.974 156.703 194.7 156.703 194.228C156.703 193.97 156.773 193.692 156.895 193.427L157.621 193.849L157.816 193.872L158.684 193.618C158.512 194.114 158.156 194.595 157.746 194.829C157.578 194.927 157.422 194.974 157.281 194.974Z" fill="#00A990"/>
<path id="Vector_141" d="M157.781 193.36L157.141 192.993C157.312 192.755 157.52 192.552 157.746 192.419C157.914 192.325 158.074 192.278 158.215 192.278C158.555 192.278 158.793 192.552 158.793 193.021C158.793 193.036 158.793 193.052 158.789 193.067L157.781 193.36Z" fill="#00A990"/>
<path id="Vector_142" d="M165.398 192.63C165.055 192.63 164.82 192.356 164.82 191.884C164.82 191.868 164.82 191.856 164.82 191.841L165.93 191.521L166.027 191.47L166.906 190.704C166.895 191.364 166.434 192.157 165.863 192.485C165.695 192.583 165.539 192.63 165.398 192.63ZM164.926 191.29C165.098 190.794 165.453 190.313 165.863 190.075C166.031 189.978 166.187 189.931 166.332 189.931C166.516 189.931 166.668 190.013 166.77 190.161L165.742 191.056L164.926 191.29Z" fill="#00A990"/>
<path id="Vector_143" d="M173.52 185.591C173.332 185.591 173.176 185.509 173.074 185.36L174.164 184.415L175.012 183.435C175.023 183.501 175.031 183.567 175.031 183.642C175.031 184.306 174.562 185.118 173.984 185.45C173.816 185.548 173.66 185.591 173.52 185.591ZM172.941 184.813C172.957 184.157 173.418 183.368 173.984 183.04C174.152 182.942 174.312 182.896 174.453 182.896C174.562 182.896 174.664 182.927 174.746 182.981L173.812 184.06L172.941 184.813Z" fill="#00A990"/>
<path id="Vector_144" d="M181.645 176.212C181.531 176.212 181.43 176.181 181.348 176.126L182.25 175.083L183.047 174.853C182.879 175.349 182.52 175.833 182.109 176.067C181.941 176.165 181.785 176.212 181.645 176.212Z" fill="#00A990"/>
<path id="Vector_145" d="M181.082 175.669C181.07 175.606 181.066 175.54 181.066 175.466C181.066 174.802 181.535 173.993 182.109 173.657C182.277 173.56 182.434 173.517 182.578 173.517C182.918 173.517 183.152 173.79 183.152 174.263C183.152 174.274 183.152 174.29 183.152 174.302L182.039 174.622L181.922 174.7L181.082 175.669Z" fill="#00A990"/>
<path id="Vector_146" d="M189.77 173.868C189.426 173.868 189.191 173.595 189.191 173.122C189.191 173.106 189.191 173.095 189.191 173.079L190.305 172.759L190.398 172.708L191.277 171.946C191.262 172.606 190.801 173.396 190.234 173.724C190.066 173.821 189.91 173.868 189.77 173.868ZM189.297 172.528C189.469 172.032 189.824 171.552 190.234 171.313C190.402 171.216 190.559 171.169 190.699 171.169C190.887 171.169 191.043 171.251 191.145 171.399L190.113 172.294L189.297 172.528Z" fill="#00A990"/>
<path id="Vector_147" d="M197.891 166.829C197.707 166.829 197.551 166.751 197.449 166.599L198.453 165.731H199.188C199 166.13 198.699 166.493 198.355 166.688C198.191 166.786 198.031 166.829 197.891 166.829Z" fill="#00A990"/>
<path id="Vector_148" d="M197.312 166.056C197.328 165.396 197.789 164.606 198.355 164.278C198.523 164.181 198.684 164.134 198.824 164.134C199.168 164.134 199.402 164.407 199.402 164.88C199.402 164.993 199.387 165.114 199.363 165.231H198.359L198.195 165.294L197.312 166.056Z" fill="#00A990"/>
<path id="Vector_149" d="M206.016 166.829C205.672 166.829 205.438 166.556 205.438 166.087C205.438 165.97 205.453 165.853 205.477 165.731H206.48C206.582 165.731 206.672 165.673 206.711 165.583L207.289 164.251C207.437 164.376 207.523 164.591 207.523 164.88C207.523 165.548 207.059 166.356 206.48 166.688C206.312 166.786 206.156 166.829 206.016 166.829ZM206.316 165.231H205.652C205.844 164.833 206.145 164.474 206.48 164.278C206.586 164.216 206.687 164.177 206.785 164.153L206.316 165.231Z" fill="#00A990"/>
<path id="Vector_150" d="M214.305 148.048L214.68 147.185L215.023 147.587C214.895 147.724 214.754 147.841 214.605 147.927C214.5 147.989 214.398 148.028 214.305 148.048Z" fill="#00A990"/>
<path id="Vector_151" d="M213.801 147.954C213.652 147.829 213.562 147.614 213.562 147.325C213.562 146.657 214.031 145.849 214.605 145.517C214.773 145.419 214.934 145.372 215.074 145.372C215.414 145.372 215.648 145.646 215.648 146.118C215.648 146.462 215.527 146.841 215.328 147.173L214.797 146.556L214.566 146.474L214.379 146.622L213.801 147.954Z" fill="#00A990"/>
<path id="Vector_152" d="M222.266 157.384C221.922 157.384 221.688 157.11 221.688 156.638C221.688 156.31 221.801 155.946 221.984 155.622L222.543 156.267C222.59 156.321 222.66 156.349 222.73 156.349C222.801 156.349 222.871 156.321 222.922 156.267L223.766 155.286C223.773 155.333 223.773 155.384 223.773 155.431C223.773 156.099 223.309 156.907 222.73 157.243C222.562 157.337 222.406 157.384 222.266 157.384ZM222.73 155.72L222.285 155.204C222.418 155.052 222.57 154.923 222.73 154.829C222.898 154.731 223.055 154.688 223.195 154.688C223.324 154.688 223.438 154.724 223.531 154.798L222.73 155.72Z" fill="#00A990"/>
<path id="Vector_153" d="M230.387 148.067C230.277 148.067 230.176 148.04 230.09 147.985L231.016 146.915L231.867 146.423C231.758 147.017 231.344 147.642 230.855 147.927C230.687 148.024 230.527 148.067 230.387 148.067Z" fill="#00A990"/>
<path id="Vector_154" d="M229.828 147.524C229.816 147.462 229.812 147.396 229.812 147.325C229.812 146.657 230.277 145.849 230.855 145.517C231.023 145.419 231.18 145.372 231.32 145.372C231.59 145.372 231.793 145.544 231.867 145.849L230.73 146.505L230.664 146.556L229.828 147.524Z" fill="#00A990"/>
<path id="Vector_155" d="M238.512 143.38C238.242 143.38 238.039 143.208 237.965 142.903L239.074 142.263H239.816C239.629 142.669 239.324 143.036 238.977 143.235C238.809 143.333 238.652 143.38 238.512 143.38Z" fill="#00A990"/>
<path id="Vector_156" d="M237.965 142.329C238.078 141.735 238.488 141.106 238.977 140.825C239.145 140.728 239.305 140.685 239.445 140.685C239.789 140.685 240.023 140.958 240.023 141.427C240.023 141.536 240.008 141.649 239.988 141.763H239.008L238.883 141.798L237.965 142.329Z" fill="#00A990"/>
<path id="Vector_157" d="M246.637 143.38C246.293 143.38 246.059 143.106 246.059 142.634C246.059 142.513 246.074 142.388 246.102 142.263H247.133L247.258 142.231L248.117 141.735C248.004 142.325 247.594 142.954 247.102 143.235C246.934 143.333 246.777 143.38 246.637 143.38ZM247.062 141.763H246.281C246.469 141.372 246.766 141.017 247.102 140.825C247.27 140.728 247.43 140.681 247.566 140.681C247.84 140.681 248.043 140.853 248.117 141.157L247.062 141.763Z" fill="#00A990"/>
<path id="Vector_158" d="M254.762 138.688C254.492 138.688 254.289 138.517 254.215 138.216L255.293 137.591H256.059C255.867 137.989 255.566 138.349 255.227 138.544C255.059 138.642 254.902 138.688 254.762 138.688Z" fill="#00A990"/>
<path id="Vector_159" d="M254.215 137.638C254.324 137.048 254.738 136.419 255.227 136.134C255.395 136.04 255.551 135.993 255.691 135.993C256.035 135.993 256.27 136.267 256.27 136.739C256.27 136.853 256.258 136.97 256.23 137.091H255.227L255.102 137.122L254.215 137.638Z" fill="#00A990"/>
<path id="Vector_160" d="M262.887 138.688C262.543 138.688 262.309 138.415 262.309 137.942C262.309 137.829 262.32 137.708 262.348 137.591H263.352C263.488 137.591 263.602 137.478 263.602 137.341C263.602 137.2 263.488 137.091 263.352 137.091H262.52C262.711 136.692 263.012 136.329 263.352 136.134C263.52 136.04 263.676 135.993 263.816 135.993C264.16 135.993 264.395 136.267 264.395 136.739C264.395 137.403 263.926 138.212 263.352 138.544C263.184 138.642 263.023 138.688 262.887 138.688Z" fill="#00A990"/>
<path id="Vector_161" d="M125.242 222.017L125.117 221.985C125.035 221.938 124.992 221.853 124.992 221.767C124.992 221.724 125.004 221.681 125.027 221.642L132.461 208.825L133.207 207.536L133.371 207.419L134.406 207.196L140.578 205.88L141.316 205.72L149.387 188.825L149.539 188.696L149.738 188.72L157.141 192.993L157.781 193.36L158.789 193.067L164.926 191.29L165.742 191.056L166.77 190.161L172.941 184.813L173.812 184.06L181.082 175.669L181.922 174.7L182.039 174.622L183.152 174.302L189.297 172.528L190.113 172.294L191.145 171.399L197.312 166.056L198.195 165.294L198.359 165.231H206.316L214.379 146.622L214.566 146.474L214.797 146.556L222.73 155.72L230.664 146.556L230.73 146.505L231.867 145.849L237.965 142.329L238.883 141.798L239.008 141.763H247.062L248.117 141.157L254.215 137.638L255.102 137.122L255.227 137.091H263.352C263.488 137.091 263.602 137.2 263.602 137.341C263.602 137.478 263.488 137.591 263.352 137.591H255.293L254.215 138.216L247.258 142.231L247.133 142.263H239.074L237.965 142.903L231.867 146.423L231.016 146.915L230.09 147.985L222.922 156.267C222.871 156.321 222.801 156.349 222.73 156.349C222.66 156.349 222.59 156.321 222.543 156.267L215.023 147.587L214.68 147.185L214.305 148.048L207.289 164.251L206.711 165.583C206.672 165.673 206.582 165.731 206.48 165.731H198.453L197.449 166.599L195.066 168.665L194.684 168.997L191.277 171.946L190.398 172.708L190.305 172.759L189.191 173.079L186.371 173.896L185.793 174.06L183.047 174.853L182.25 175.083L181.348 176.126L175.012 183.435L174.164 184.415L173.074 185.36L166.906 190.704L166.027 191.47L165.93 191.521L164.82 191.841L157.816 193.872L157.621 193.849L150.215 189.571L149.723 189.286L149.25 190.274L142.336 204.747L141.715 206.048L141.543 206.185L140.453 206.419L133.586 207.884L132.91 209.044L126.164 220.673L125.457 221.892L125.242 222.017Z" fill="#04ABC2"/>
<path id="Vector_162" d="M129.496 185.759L137.363 181.192C137.762 180.962 138.086 181.126 138.086 181.559C138.086 181.989 137.762 182.524 137.363 182.755L129.496 187.321C129.098 187.552 128.773 187.388 128.773 186.958C128.773 186.524 129.098 185.989 129.496 185.759Z" fill="#D8D9D9"/>
<path id="Vector_163" d="M125.242 187.727C125.816 187.395 126.285 187.665 126.285 188.332C126.285 188.997 125.816 189.805 125.242 190.141C124.664 190.473 124.199 190.204 124.199 189.536C124.199 188.872 124.664 188.063 125.242 187.727Z" fill="#179DAF"/>
<path id="Vector_164" d="M124.773 190.282C124.434 190.282 124.199 190.009 124.199 189.536C124.199 188.872 124.664 188.063 125.242 187.728C125.41 187.634 125.566 187.587 125.707 187.587C126.051 187.587 126.285 187.86 126.285 188.333C126.285 188.997 125.816 189.806 125.242 190.142C125.074 190.239 124.914 190.282 124.773 190.282Z" fill="#00A990"/>
<path id="Vector_165" d="M129.496 190.435L137.363 185.872C137.762 185.642 138.086 185.806 138.086 186.235C138.086 186.669 137.762 187.204 137.363 187.435L129.496 192.001C129.098 192.227 128.773 192.063 128.773 191.634C128.773 191.204 129.098 190.665 129.496 190.435Z" fill="#D8D9D9"/>
<path id="Vector_166" d="M125.242 192.419C125.816 192.086 126.285 192.356 126.285 193.02C126.285 193.688 125.816 194.497 125.242 194.829C124.664 195.165 124.199 194.891 124.199 194.227C124.199 193.563 124.664 192.754 125.242 192.419Z" fill="#179DAF"/>
<path id="Vector_167" d="M125.242 254.919L125.066 254.848C124.969 254.751 124.965 254.595 125.063 254.497L129.184 250.255L133.23 249.743L137.316 244.462L141.41 245.024L145.383 241.434L149.441 239.005L153.578 233.27L157.688 234.556L161.633 231.032C161.738 230.938 161.895 230.946 161.988 231.052C162.078 231.153 162.07 231.309 161.969 231.403L157.809 235.122L153.773 233.856L149.742 239.407L145.68 241.837L141.57 245.552L137.539 244.997L133.5 250.212L129.422 250.731L125.422 254.841L125.242 254.919Z" fill="#179DAF"/>
<path id="Vector_168" d="M126.086 243.802C126.086 243.985 126.109 244.146 126.156 244.282C126.203 244.423 126.266 244.532 126.348 244.61C126.434 244.692 126.535 244.735 126.656 244.743C126.773 244.747 126.914 244.708 127.062 244.622C127.211 244.532 127.348 244.415 127.469 244.271C127.59 244.126 127.691 243.962 127.773 243.786C127.859 243.61 127.922 243.427 127.969 243.235C128.012 243.048 128.035 242.86 128.035 242.677C128.035 242.493 128.012 242.333 127.969 242.192C127.922 242.056 127.859 241.946 127.773 241.864C127.691 241.786 127.59 241.743 127.469 241.735C127.348 241.728 127.211 241.771 127.062 241.856C126.914 241.942 126.773 242.06 126.656 242.204C126.535 242.353 126.434 242.513 126.348 242.688C126.266 242.864 126.203 243.048 126.156 243.239C126.109 243.431 126.086 243.618 126.086 243.802ZM126.848 241.2L126.953 241.11L127.062 241.032C127.285 240.907 127.488 240.841 127.676 240.849C127.867 240.853 128.027 240.911 128.164 241.032C128.301 241.153 128.41 241.325 128.484 241.548C128.562 241.771 128.602 242.04 128.602 242.349C128.602 242.661 128.562 242.974 128.484 243.286C128.41 243.599 128.301 243.896 128.164 244.169C128.027 244.45 127.867 244.7 127.676 244.919C127.488 245.142 127.285 245.317 127.062 245.442C126.84 245.571 126.633 245.634 126.445 245.63C126.258 245.626 126.098 245.563 125.961 245.442C125.824 245.325 125.715 245.153 125.637 244.931C125.559 244.708 125.523 244.438 125.523 244.126C125.523 243.95 125.535 243.778 125.559 243.61C125.586 243.442 125.621 243.282 125.664 243.122C125.703 242.962 125.75 242.81 125.801 242.657C125.852 242.505 125.906 242.36 125.957 242.22L127.039 239.142L127.102 238.989L127.223 238.853L127.562 238.657L127.648 238.669L127.68 238.79L127.672 238.868L127.648 238.927L126.848 241.2Z" fill="#335863"/>
<path id="Vector_169" d="M129.613 242.333L129.695 242.579L129.855 242.747C129.926 242.782 130.02 242.79 130.137 242.771C130.254 242.751 130.406 242.688 130.594 242.583C130.715 242.509 130.832 242.419 130.941 242.31C131.055 242.2 131.152 242.075 131.234 241.927C131.316 241.782 131.383 241.622 131.434 241.45C131.484 241.278 131.508 241.091 131.508 240.892C131.508 240.696 131.484 240.544 131.438 240.435C131.387 240.325 131.324 240.251 131.242 240.216C131.164 240.181 131.066 240.177 130.957 240.204C130.844 240.231 130.723 240.282 130.594 240.356L130.098 240.642L129.988 240.634L129.938 240.489V240.161L129.973 239.989L130.035 239.829L131.102 237.435L129.391 238.423L129.281 238.415L129.23 238.271V237.942L129.281 237.739L129.391 237.603L131.734 236.251L131.848 236.259L131.895 236.403V236.731L131.867 236.911L131.789 237.106L130.734 239.462C130.934 239.353 131.117 239.294 131.281 239.29C131.445 239.282 131.586 239.325 131.703 239.419C131.816 239.513 131.91 239.657 131.973 239.849C132.039 240.04 132.074 240.278 132.074 240.563C132.074 240.876 132.035 241.181 131.953 241.47C131.875 241.763 131.77 242.032 131.637 242.278C131.504 242.521 131.348 242.743 131.168 242.938C130.988 243.134 130.793 243.29 130.594 243.407C130.328 243.56 130.098 243.642 129.906 243.661C129.715 243.677 129.555 243.642 129.43 243.56C129.305 243.478 129.211 243.356 129.152 243.2C129.09 243.044 129.059 242.864 129.051 242.665L129.09 242.501L129.184 242.388L129.457 242.231H129.562L129.613 242.333Z" fill="#335863"/>
<path id="Vector_170" d="M133.148 240.29L133.23 240.536L133.391 240.704C133.465 240.739 133.559 240.747 133.676 240.728C133.793 240.712 133.941 240.646 134.129 240.54C134.254 240.47 134.371 240.38 134.48 240.271C134.59 240.161 134.687 240.032 134.77 239.884C134.855 239.739 134.922 239.579 134.969 239.411C135.02 239.239 135.043 239.052 135.043 238.849C135.043 238.653 135.02 238.501 134.973 238.392C134.926 238.282 134.863 238.208 134.781 238.173C134.699 238.138 134.602 238.134 134.492 238.161C134.379 238.188 134.258 238.239 134.129 238.317L133.637 238.603L133.523 238.591L133.477 238.446V238.118L133.508 237.946L133.57 237.786L134.641 235.396L132.93 236.384L132.816 236.376L132.77 236.228V235.899L132.816 235.696L132.93 235.56L135.27 234.208L135.383 234.216L135.43 234.36V234.688L135.402 234.868L135.324 235.063L134.273 237.419C134.469 237.31 134.652 237.255 134.816 237.247C134.98 237.239 135.121 237.286 135.238 237.38C135.355 237.474 135.445 237.614 135.512 237.806C135.578 237.997 135.609 238.235 135.609 238.524C135.609 238.833 135.57 239.138 135.492 239.431C135.41 239.724 135.305 239.989 135.172 240.235C135.039 240.481 134.883 240.7 134.703 240.896C134.523 241.091 134.332 241.247 134.129 241.364C133.863 241.517 133.633 241.603 133.441 241.618C133.25 241.634 133.09 241.603 132.965 241.517C132.844 241.435 132.75 241.313 132.688 241.157C132.625 241.001 132.594 240.821 132.59 240.626L132.629 240.458L132.719 240.345L132.996 240.188H133.098L133.148 240.29Z" fill="#335863"/>
<path id="Vector_171" d="M125.977 258.145L161.078 237.806C161.477 237.575 161.801 237.739 161.801 238.169C161.801 238.602 161.477 239.138 161.078 239.368L125.977 259.712C125.578 259.938 125.254 259.778 125.254 259.345C125.254 258.915 125.578 258.376 125.977 258.145Z" fill="#D8D9D9"/>
<path id="Vector_172" d="M125.977 234.681L133.844 230.118C134.242 229.888 134.562 230.052 134.562 230.481C134.562 230.915 134.242 231.45 133.844 231.681L125.977 236.247C125.578 236.474 125.254 236.313 125.254 235.88C125.254 235.45 125.578 234.911 125.977 234.681Z" fill="#D8D9D9"/>
<path id="Vector_173" d="M125.242 283.036L125.066 282.966C124.969 282.872 124.965 282.712 125.063 282.614L129.184 278.376L133.258 277.856L137.363 274.27L141.316 273.192L145.438 264.985L149.574 267.009L153.563 263.497L153.629 263.481L157.586 262.731L161.586 255.821C161.652 255.7 161.809 255.661 161.926 255.727C162.047 255.798 162.086 255.954 162.016 256.071L157.906 263.181L153.789 263.962L149.656 267.606L145.664 265.653L141.664 273.618L137.551 274.739L133.473 278.333L129.422 278.849L125.422 282.962L125.242 283.036Z" fill="#179DAF"/>
<path id="Vector_174" d="M125.242 283.036L125.066 282.966C125.016 282.919 124.992 282.853 124.992 282.786C124.992 282.724 125.016 282.661 125.062 282.614L129.184 278.376L133.258 277.856L137.363 274.271L141.316 273.192L145.438 264.985L149.574 267.009L153.562 263.497L153.629 263.481L157.586 262.731L161.586 255.821C161.629 255.739 161.715 255.696 161.801 255.696C161.844 255.696 161.887 255.708 161.926 255.728C162.008 255.774 162.051 255.86 162.051 255.946C162.051 255.989 162.039 256.032 162.016 256.071L157.906 263.181L153.789 263.962L149.656 267.606L145.664 265.653L141.664 273.618L137.551 274.739L133.473 278.333L129.422 278.849L125.422 282.962L125.242 283.036Z" fill="#00A990"/>
<path id="Vector_175" d="M127.316 273.075L127.27 273.278L127.156 273.415L126.914 273.556L126.801 273.548L126.754 273.403V268.36L125.789 270.04L125.672 270.165L125.562 270.134L125.422 269.935L125.387 269.767L125.453 269.567L126.723 267.333L126.816 267.212L126.914 267.149L127.156 267.009L127.27 267.017L127.316 267.165V273.075Z" fill="#335863"/>
<path id="Vector_176" d="M129.914 268.454C130.035 268.224 130.125 268.005 130.184 267.798C130.242 267.591 130.27 267.353 130.27 267.079C130.27 266.755 130.211 266.521 130.086 266.376C129.965 266.228 129.77 266.232 129.504 266.388C129.367 266.466 129.25 266.564 129.152 266.681C129.055 266.802 128.973 266.931 128.906 267.075C128.844 267.216 128.793 267.372 128.754 267.532C128.715 267.689 128.684 267.849 128.66 268.009L128.598 268.2L128.508 268.306L128.23 268.466L128.141 268.458L128.102 268.341C128.105 268.114 128.141 267.864 128.203 267.595C128.266 267.325 128.355 267.064 128.477 266.806C128.594 266.548 128.742 266.31 128.914 266.087C129.086 265.868 129.285 265.689 129.504 265.564C129.723 265.435 129.914 265.38 130.082 265.384C130.25 265.392 130.387 265.45 130.496 265.568C130.609 265.681 130.691 265.837 130.75 266.04C130.809 266.247 130.836 266.482 130.836 266.755C130.836 266.95 130.828 267.13 130.805 267.302C130.789 267.47 130.754 267.638 130.711 267.81C130.664 267.978 130.605 268.15 130.535 268.329C130.461 268.505 130.375 268.689 130.27 268.888L128.945 271.56L130.766 270.509L130.879 270.517L130.926 270.665V270.993L130.879 271.193L130.766 271.333L128.203 272.81L128.09 272.806L128.043 272.657V272.329L128.074 272.138C128.094 272.075 128.125 272.001 128.172 271.904L129.914 268.454Z" fill="#335863"/>
<path id="Vector_177" d="M132.145 268.114C132.152 268.684 132.238 269.063 132.398 269.247C132.559 269.431 132.793 269.431 133.102 269.251C133.41 269.075 133.645 268.802 133.805 268.434C133.965 268.063 134.051 267.591 134.059 267.009C134.062 266.727 134.062 266.47 134.062 266.227C134.062 265.989 134.062 265.731 134.059 265.458C134.051 264.884 133.965 264.505 133.805 264.317C133.645 264.134 133.41 264.134 133.102 264.309C132.793 264.489 132.559 264.763 132.398 265.134C132.238 265.505 132.152 265.977 132.145 266.563C132.141 266.841 132.137 267.099 132.137 267.341C132.137 267.583 132.141 267.837 132.145 268.114ZM134.617 265.138C134.621 265.411 134.625 265.665 134.625 265.907C134.625 266.149 134.621 266.407 134.617 266.684C134.613 267.04 134.582 267.388 134.52 267.731C134.457 268.075 134.367 268.395 134.242 268.692C134.121 268.993 133.965 269.259 133.777 269.493C133.586 269.731 133.363 269.927 133.102 270.075C132.84 270.227 132.617 270.29 132.426 270.27C132.238 270.255 132.082 270.165 131.961 270.009C131.836 269.856 131.746 269.642 131.684 269.372C131.621 269.099 131.59 268.786 131.586 268.434C131.582 268.161 131.582 267.907 131.582 267.665C131.582 267.423 131.582 267.165 131.586 266.888C131.59 266.532 131.621 266.181 131.684 265.837C131.746 265.493 131.836 265.173 131.961 264.876C132.082 264.579 132.238 264.309 132.426 264.075C132.617 263.833 132.84 263.638 133.102 263.485C133.363 263.333 133.586 263.27 133.777 263.294C133.965 263.313 134.121 263.407 134.242 263.559C134.367 263.712 134.457 263.927 134.52 264.2C134.582 264.474 134.613 264.786 134.617 265.138Z" fill="#335863"/>
<path id="Vector_178" d="M125.977 286.266L161.078 265.923C161.477 265.692 161.801 265.856 161.801 266.29C161.801 266.72 161.477 267.255 161.078 267.485L125.977 287.829C125.578 288.059 125.254 287.895 125.254 287.462C125.254 287.032 125.578 286.497 125.977 286.266Z" fill="#D8D9D9"/>
<path id="Vector_179" d="M125.977 262.802L133.844 258.235C134.242 258.005 134.562 258.169 134.562 258.599C134.562 259.032 134.242 259.567 133.844 259.798L125.977 264.364C125.578 264.595 125.254 264.431 125.254 263.997C125.254 263.567 125.578 263.032 125.977 262.802Z" fill="#D8D9D9"/>
<path id="Vector_180" d="M173.988 226.72L173.793 226.626C173.707 226.516 173.723 226.36 173.832 226.274L177.891 223.032L181.984 218.356L186.137 217.759L190.098 216.864L194.199 212.016L198.238 212.731L202.285 206.321L206.398 206.388L210.379 202.829C210.48 202.739 210.637 202.747 210.73 202.849C210.824 202.954 210.812 203.11 210.711 203.204L206.586 206.891L202.559 206.825L198.48 213.282L194.394 212.559L190.371 217.313L186.227 218.247L182.238 218.825L178.238 223.391L174.141 226.665L173.988 226.72Z" fill="#179DAF"/>
<path id="Vector_181" d="M174.832 215.599C174.832 215.786 174.855 215.946 174.898 216.083C174.945 216.22 175.008 216.329 175.094 216.411C175.176 216.493 175.277 216.536 175.398 216.54C175.52 216.548 175.656 216.509 175.805 216.419C175.957 216.333 176.09 216.216 176.211 216.071C176.336 215.927 176.437 215.763 176.52 215.587C176.602 215.411 176.668 215.228 176.711 215.036C176.758 214.845 176.781 214.661 176.781 214.474C176.781 214.294 176.758 214.134 176.711 213.993C176.668 213.853 176.602 213.747 176.52 213.665C176.437 213.583 176.336 213.54 176.211 213.536C176.09 213.528 175.957 213.567 175.805 213.657C175.656 213.743 175.52 213.86 175.398 214.005C175.277 214.149 175.176 214.313 175.094 214.489C175.008 214.665 174.945 214.849 174.898 215.04C174.855 215.231 174.832 215.419 174.832 215.599ZM175.594 213.001L175.695 212.911L175.805 212.833C176.027 212.704 176.234 212.642 176.422 212.646C176.609 212.649 176.773 212.712 176.91 212.833C177.043 212.95 177.152 213.122 177.23 213.345C177.305 213.571 177.344 213.837 177.344 214.149C177.344 214.462 177.305 214.774 177.23 215.083C177.152 215.399 177.043 215.692 176.91 215.97C176.773 216.247 176.609 216.497 176.422 216.72C176.234 216.938 176.027 217.118 175.805 217.243C175.586 217.372 175.379 217.435 175.191 217.431C175.004 217.427 174.84 217.364 174.703 217.243C174.566 217.126 174.461 216.954 174.383 216.728C174.305 216.509 174.266 216.239 174.266 215.927C174.266 215.751 174.281 215.579 174.305 215.411C174.332 215.243 174.363 215.079 174.406 214.923C174.449 214.763 174.496 214.606 174.547 214.458C174.598 214.306 174.648 214.161 174.699 214.021L175.781 210.942L175.848 210.79L175.965 210.653L176.305 210.458L176.391 210.466L176.426 210.591L176.414 210.669L176.395 210.728L175.594 213.001Z" fill="#335863"/>
<path id="Vector_182" d="M179.711 211.532C179.832 211.298 179.918 211.075 179.98 210.872C180.039 210.665 180.066 210.426 180.066 210.153C180.066 209.829 180.004 209.594 179.883 209.45C179.762 209.305 179.566 209.305 179.301 209.462C179.164 209.54 179.043 209.637 178.949 209.755C178.852 209.876 178.77 210.005 178.703 210.149C178.637 210.29 178.586 210.442 178.547 210.602C178.512 210.762 178.48 210.923 178.457 211.083L178.395 211.274L178.301 211.384L178.031 211.54L177.938 211.536L177.898 211.415C177.902 211.184 177.934 210.938 178 210.669C178.062 210.399 178.156 210.137 178.273 209.88C178.391 209.622 178.539 209.384 178.711 209.161C178.883 208.938 179.078 208.762 179.301 208.637C179.52 208.509 179.711 208.45 179.879 208.458C180.043 208.466 180.184 208.524 180.293 208.641C180.406 208.755 180.488 208.911 180.547 209.118C180.605 209.321 180.633 209.555 180.633 209.825C180.633 210.02 180.625 210.204 180.602 210.376C180.582 210.544 180.551 210.712 180.504 210.884C180.461 211.055 180.402 211.223 180.328 211.403C180.258 211.575 180.172 211.762 180.066 211.962L178.742 214.634L180.559 213.583L180.676 213.591L180.723 213.739V214.067L180.676 214.266L180.559 214.407L178 215.884L177.887 215.88L177.84 215.731V215.403L177.871 215.212C177.887 215.149 177.922 215.075 177.969 214.977L179.711 211.532Z" fill="#335863"/>
<path id="Vector_183" d="M183.754 206.157L183.867 206.165L183.914 206.31V206.642L183.898 206.825L183.852 207.044L182.531 213.052L182.469 213.239L182.355 213.372L182.082 213.528L181.98 213.521L181.941 213.392V213.349L181.961 213.271L183.285 207.251L181.336 208.38L181.223 208.372L181.172 208.224V207.892L181.223 207.692L181.336 207.556L183.754 206.157Z" fill="#335863"/>
<path id="Vector_184" d="M174.723 229.946L209.824 209.606C210.223 209.376 210.547 209.54 210.547 209.97C210.547 210.403 210.223 210.938 209.824 211.169L174.723 231.509C174.324 231.739 174 231.575 174 231.145C174 230.712 174.324 230.177 174.723 229.946Z" fill="#D8D9D9"/>
<path id="Vector_185" d="M174.723 206.481L182.586 201.919C182.984 201.688 183.309 201.852 183.309 202.282C183.309 202.716 182.984 203.251 182.586 203.481L174.723 208.044C174.324 208.274 174 208.114 174 207.681C174 207.247 174.324 206.712 174.723 206.481Z" fill="#D8D9D9"/>
<path id="Vector_186" d="M173.988 254.837L173.855 254.802C173.738 254.727 173.703 254.575 173.773 254.458L177.926 247.645L182.102 248.419L186.031 247.345L190.094 242.388L194.133 241.368L198.238 234.052L202.434 235.27L206.379 234.524L210.379 230.962C210.48 230.872 210.641 230.88 210.73 230.981C210.824 231.087 210.812 231.243 210.711 231.337L206.605 234.989L206.539 235.005L202.41 235.786L198.48 234.645L194.461 241.802L190.375 242.833L186.312 247.786L186.238 247.806L182.121 248.931L182.062 248.923L178.172 248.2L174.199 254.716L173.988 254.837Z" fill="#179DAF"/>
<path id="Vector_187" d="M173.988 254.837L173.855 254.802C173.777 254.755 173.738 254.669 173.738 254.587C173.738 254.544 173.75 254.497 173.773 254.458L177.926 247.646L182.102 248.419L186.031 247.345L190.094 242.388L194.133 241.368L198.238 234.052L202.434 235.271L206.379 234.524L210.379 230.962C210.426 230.919 210.484 230.899 210.547 230.899C210.613 230.899 210.684 230.927 210.73 230.981C210.773 231.032 210.797 231.091 210.797 231.149C210.797 231.216 210.766 231.286 210.711 231.337L206.605 234.989L206.539 235.005L202.41 235.786L198.48 234.646L194.461 241.802L190.375 242.833L186.312 247.786L186.238 247.806L182.121 248.931L182.062 248.923L178.172 248.2L174.199 254.716L173.988 254.837Z" fill="#00A990"/>
<path id="Vector_188" d="M176.633 240.454C176.633 240.267 176.609 240.103 176.562 239.962C176.52 239.825 176.457 239.72 176.375 239.65C176.293 239.575 176.195 239.54 176.078 239.54C175.965 239.54 175.84 239.579 175.707 239.657C175.566 239.736 175.441 239.841 175.328 239.974C175.215 240.107 175.117 240.255 175.035 240.423C174.957 240.587 174.891 240.767 174.848 240.954C174.801 241.146 174.777 241.337 174.777 241.525C174.777 241.72 174.801 241.888 174.848 242.021C174.891 242.157 174.957 242.263 175.035 242.333C175.117 242.407 175.215 242.443 175.328 242.443C175.441 242.446 175.566 242.407 175.707 242.325C175.84 242.251 175.965 242.146 176.078 242.009C176.195 241.876 176.293 241.728 176.375 241.56C176.457 241.396 176.52 241.22 176.562 241.032C176.609 240.841 176.633 240.65 176.633 240.454ZM175.867 243.04L175.781 243.103L175.707 243.15C175.516 243.263 175.332 243.321 175.152 243.329C174.973 243.337 174.816 243.29 174.676 243.185C174.539 243.083 174.426 242.923 174.34 242.704C174.254 242.486 174.211 242.2 174.211 241.853C174.211 241.54 174.254 241.232 174.332 240.923C174.41 240.614 174.52 240.325 174.656 240.056C174.793 239.782 174.953 239.54 175.133 239.325C175.312 239.114 175.504 238.946 175.707 238.829C175.934 238.7 176.141 238.634 176.328 238.638C176.512 238.642 176.668 238.7 176.797 238.818C176.926 238.939 177.023 239.107 177.094 239.329C177.164 239.552 177.195 239.818 177.195 240.13C177.195 240.282 177.18 240.446 177.148 240.618C177.117 240.794 177.078 240.966 177.031 241.142C176.98 241.314 176.93 241.486 176.875 241.65C176.82 241.818 176.77 241.97 176.723 242.107L175.641 245.185L175.574 245.337L175.457 245.474L175.117 245.669L175.031 245.661L175 245.536L175.004 245.458L175.027 245.4L175.867 243.04Z" fill="#335863"/>
<path id="Vector_189" d="M178.176 242.353L178.262 242.599L178.422 242.767C178.492 242.802 178.586 242.81 178.703 242.79C178.82 242.774 178.973 242.712 179.16 242.603C179.281 242.532 179.398 242.442 179.508 242.333C179.621 242.224 179.715 242.095 179.801 241.95C179.883 241.802 179.949 241.642 180 241.474C180.051 241.302 180.074 241.114 180.074 240.911C180.074 240.716 180.051 240.563 180.004 240.454C179.957 240.345 179.891 240.271 179.809 240.235C179.727 240.2 179.633 240.196 179.52 240.224C179.41 240.251 179.289 240.306 179.16 240.38L178.664 240.665L178.551 240.657L178.504 240.509V240.181L178.539 240.009L178.598 239.849L179.668 237.458L177.957 238.446L177.844 238.438L177.797 238.29V237.962L177.844 237.759L177.957 237.622L180.301 236.271L180.414 236.278L180.461 236.423V236.755L180.43 236.931L180.352 237.126L179.301 239.481C179.5 239.372 179.68 239.317 179.844 239.31C180.008 239.306 180.148 239.349 180.266 239.442C180.383 239.536 180.473 239.681 180.543 239.868C180.605 240.06 180.637 240.298 180.637 240.587C180.637 240.896 180.598 241.2 180.52 241.493C180.441 241.786 180.336 242.056 180.203 242.298C180.066 242.544 179.914 242.763 179.73 242.958C179.551 243.153 179.363 243.31 179.16 243.427C178.895 243.579 178.664 243.665 178.473 243.681C178.281 243.7 178.121 243.665 177.996 243.579C177.871 243.497 177.777 243.376 177.715 243.22C177.656 243.063 177.625 242.884 177.621 242.688L177.656 242.521L177.75 242.411L178.023 242.251H178.125L178.176 242.353Z" fill="#335863"/>
<path id="Vector_190" d="M174.723 258.063L209.824 237.724C210.223 237.493 210.547 237.657 210.547 238.087C210.547 238.52 210.223 239.056 209.824 239.286L174.723 259.63C174.324 259.856 174 259.692 174 259.263C174 258.833 174.324 258.294 174.723 258.063Z" fill="#D8D9D9"/>
<path id="Vector_191" d="M174.723 234.599L182.586 230.036C182.984 229.806 183.309 229.97 183.309 230.399C183.309 230.833 182.984 231.368 182.586 231.599L174.723 236.165C174.324 236.392 174 236.227 174 235.798C174 235.368 174.324 234.829 174.723 234.599Z" fill="#D8D9D9"/>
<path id="Vector_192" d="M226.793 181.072C228.523 180.072 230.121 180.021 231.422 180.728L226.793 193.212V181.072Z" fill="#0095A9"/>
<path id="Vector_193" d="M222.164 186.075C223.465 183.864 225.062 182.071 226.793 181.071V193.212L222.164 186.075Z" fill="#179DAF"/>
<path id="Vector_194" d="M219.297 193.79C219.812 191.028 220.832 188.333 222.164 186.075L226.793 193.212L219.297 193.79Z" fill="#179DAF"/>
<path id="Vector_195" d="M226.793 193.212L222.164 186.075C223.465 183.864 225.062 182.071 226.793 181.071V193.212Z" fill="#007F90"/>
<path id="Vector_196" d="M219.301 193.759C219.824 191.009 220.836 188.325 222.164 186.075C220.836 188.325 219.824 191.009 219.301 193.759Z" fill="#A5A8A9"/>
<path id="Vector_197" d="M219.297 193.79C219.297 193.778 219.301 193.767 219.301 193.759C219.824 191.009 220.836 188.325 222.164 186.075L226.793 193.212L219.297 193.79Z" fill="#007F90"/>
<path id="Vector_198" d="M231.422 180.728C232.754 181.45 233.77 182.974 234.289 185.134L226.793 193.212L231.422 180.728Z" fill="#0095A9"/>
<path id="Vector_199" d="M219.297 201.29C219.047 200.255 218.906 199.075 218.906 197.763C218.906 196.454 219.047 195.118 219.297 193.79L226.793 193.212L219.297 201.29Z" fill="#0095A9"/>
<path id="Vector_200" d="M234.289 192.634C233.77 195.396 232.754 198.091 231.422 200.349L226.793 193.212L234.289 192.634Z" fill="#0095A9"/>
<path id="Vector_201" d="M226.793 205.353C225.062 206.353 223.465 206.403 222.164 205.696L226.793 193.212V205.353Z" fill="#0095A9"/>
<path id="Vector_202" d="M219.297 201.29L226.793 193.212L222.164 205.696C220.832 204.974 219.812 203.454 219.297 201.29Z" fill="#0095A9"/>
<path id="Vector_203" d="M234.289 185.134C234.539 186.173 234.68 187.349 234.68 188.661C234.68 189.97 234.539 191.31 234.289 192.634L226.793 193.212L234.289 185.134Z" fill="#0095A9"/>
<path id="Vector_204" d="M231.422 200.349C230.121 202.56 228.523 204.353 226.793 205.353V193.212L231.422 200.349Z" fill="#0095A9"/>
<path id="Vector_205" d="M222.859 211.544L230.727 206.977C231.125 206.747 231.449 206.911 231.449 207.345C231.449 207.774 231.125 208.309 230.727 208.54L222.859 213.106C222.461 213.337 222.137 213.173 222.141 212.743C222.141 212.309 222.461 211.774 222.859 211.544Z" fill="#335863"/>
<path id="Vector_206" d="M221.125 217.251L232.461 210.673C232.859 210.442 233.184 210.606 233.184 211.036C233.184 211.47 232.859 212.005 232.461 212.235L221.125 218.813C220.727 219.044 220.402 218.88 220.402 218.446C220.402 218.017 220.727 217.477 221.125 217.251Z" fill="#D8D9D9"/>
<path id="Vector_207" d="M221.125 221.95L232.461 215.376C232.859 215.145 233.184 215.305 233.184 215.739C233.184 216.169 232.859 216.708 232.461 216.938L221.125 223.512C220.727 223.743 220.402 223.579 220.402 223.149C220.402 222.716 220.727 222.18 221.125 221.95Z" fill="#D8D9D9"/>
<path id="Vector_208" d="M221.125 226.653L232.461 220.075C232.859 219.845 233.184 220.009 233.184 220.438C233.184 220.872 232.859 221.407 232.461 221.638L221.125 228.216C220.727 228.446 220.402 228.282 220.402 227.849C220.402 227.419 220.727 226.884 221.125 226.653Z" fill="#D8D9D9"/>
<path id="Vector_209" d="M255.227 164.595C256.961 163.595 258.555 163.544 259.855 164.251L255.227 176.736V164.595Z" fill="#0095A9"/>
<path id="Vector_210" d="M250.598 169.595C251.898 167.388 253.496 165.595 255.227 164.595V176.735L250.598 169.595Z" fill="#0095A9"/>
<path id="Vector_211" d="M247.73 177.313C248.25 174.552 249.266 171.856 250.598 169.595L255.227 176.735L247.73 177.313Z" fill="#179DAF"/>
<path id="Vector_212" d="M259.855 164.251C261.187 164.974 262.207 166.493 262.723 168.657L255.227 176.735L259.855 164.251Z" fill="#0095A9"/>
<path id="Vector_213" d="M247.73 184.813C247.48 183.774 247.344 182.599 247.344 181.286C247.344 179.978 247.48 178.638 247.73 177.313L255.227 176.735L247.73 184.813Z" fill="#179DAF"/>
<path id="Vector_214" d="M262.723 176.157C262.207 178.919 261.187 181.614 259.855 183.872L255.227 176.735L262.723 176.157Z" fill="#0095A9"/>
<path id="Vector_215" d="M255.227 188.876C253.496 189.876 251.898 189.927 250.598 189.22L255.227 176.735V188.876Z" fill="#0095A9"/>
<path id="Vector_216" d="M247.73 184.813L255.227 176.735L250.598 189.22C249.266 188.497 248.25 186.974 247.73 184.813Z" fill="#179DAF"/>
<path id="Vector_217" d="M247.73 177.313C248.25 174.552 249.266 171.856 250.598 169.595L255.227 176.735L247.73 177.313Z" fill="#007F90"/>
<path id="Vector_218" d="M247.73 184.813C247.48 183.774 247.344 182.599 247.344 181.286C247.344 179.978 247.48 178.638 247.73 177.313L255.227 176.735L247.73 184.813Z" fill="#007F90"/>
<path id="Vector_219" d="M250.598 189.22C249.266 188.497 248.25 186.974 247.73 184.813L255.227 176.735L250.598 189.22Z" fill="#179DAF"/>
<path id="Vector_220" d="M262.723 168.657C262.973 169.692 263.113 170.872 263.113 172.181C263.113 173.493 262.973 174.829 262.723 176.157L255.227 176.735L262.723 168.657Z" fill="#0095A9"/>
<path id="Vector_221" d="M259.855 183.872C258.555 186.083 256.961 187.876 255.227 188.876V176.735L259.855 183.872Z" fill="#0095A9"/>
<path id="Vector_222" d="M251.293 195.126L259.16 190.56C259.559 190.333 259.883 190.497 259.883 190.927C259.883 191.357 259.559 191.896 259.16 192.126L251.293 196.689C250.895 196.919 250.574 196.755 250.574 196.325C250.574 195.892 250.895 195.357 251.293 195.126Z" fill="#335863"/>
<path id="Vector_223" d="M249.559 200.833L260.895 194.255C261.293 194.024 261.617 194.188 261.617 194.622C261.617 195.052 261.293 195.591 260.895 195.817L249.559 202.395C249.16 202.626 248.84 202.462 248.84 202.032C248.84 201.598 249.16 201.063 249.559 200.833Z" fill="#D8D9D9"/>
<path id="Vector_224" d="M249.559 205.536L260.895 198.958C261.293 198.727 261.617 198.892 261.617 199.321C261.617 199.755 261.293 200.29 260.895 200.52L249.559 207.099C249.16 207.325 248.84 207.165 248.84 206.731C248.84 206.302 249.16 205.763 249.559 205.536Z" fill="#D8D9D9"/>
<path id="Vector_225" d="M249.559 210.235L260.895 203.661C261.293 203.43 261.617 203.591 261.617 204.024C261.617 204.454 261.293 204.993 260.895 205.223L249.559 211.798C249.16 212.028 248.84 211.864 248.84 211.434C248.84 211.001 249.16 210.466 249.559 210.235Z" fill="#D8D9D9"/>
</g>
<g id="plangirl">
<path id="Vector_226" d="M320.605 187.27C319.818 186.412 318.781 185.903 317.655 185.688C316.011 185.375 314.294 185.536 312.65 185.724C310.111 186.019 310.02 186.859 307.5 187.27C305.846 187.538 303.653 189.259 302 189.5C301.052 189.643 298.438 189.666 297.5 189.773C296.686 189.862 292.5 192.5 292.5 192.5C296 193.348 305 184.224 308.5 180.5C311.319 177.5 314.655 174.5 317.655 172C322 170.5 319.655 168.5 317.655 172C316 172 323.345 172.132 323.5 170.5C323.655 168.868 317.67 168.661 317 168.5C316.07 168.259 315.259 168.527 315 169.501C314.875 169.984 314.5 171 312 172C309.5 173 308.5 174.479 306.5 175.5C303.327 178.021 303 178.5 300.5 180.5C293.97 185.724 297.5 182.5 292.5 187.27C290.162 189.5 286.737 193.724 288.051 195.538C289.196 197.138 291.064 198.139 292.887 198.783C295.658 199.748 298.661 200.025 301.584 200.017C302.165 200.008 302.746 199.999 303.327 199.972C317.307 199.355 321.24 198.461 322.214 193.348C322.634 191.132 322.071 188.87 320.605 187.27Z" fill="#FBBEA3"/>
<path id="Vector_227" d="M339.196 316.216C339.312 317.414 339.401 318.647 339.33 319.845C339.258 320.998 338.4 320.345 337.703 320.086C336.353 319.568 335.191 318.647 334.083 317.726C333.082 316.895 331.866 315.992 330.606 316.323C328.899 316.77 327.862 318.987 327.049 320.372C326.754 320.864 326.459 321.382 326.423 321.963C326.36 323.089 327.299 324.01 328.237 324.635C329.712 325.619 331.357 326.316 332.841 327.263C333.761 327.844 334.61 328.524 335.46 329.194C336.246 329.82 337.104 330.409 337.837 331.089C338.508 331.705 339.089 332.447 339.741 333.091C340.983 334.324 343.29 334.843 344.988 334.423C346.105 334.155 347.088 333.359 347.571 332.313C348.384 330.57 347.803 328.532 347.437 326.647C346.963 324.215 346.91 320.301 347.231 317.851L339.196 316.216Z" fill="#EF9C76"/>
<path id="Vector_228" d="M347.313 325.868C345.802 328.022 342.835 328.979 340.233 328.46C337.293 327.003 332.091 322.391 334.888 319.665C335.335 319.227 335.621 319.289 336.408 319.433C335.586 318.941 334.826 318.342 334.084 317.725C333.083 316.894 331.867 315.991 330.607 316.322C328.9 316.769 327.863 318.986 327.049 320.371C326.763 320.863 326.459 321.381 326.424 321.962C326.352 323.088 327.3 324.009 328.238 324.635C329.713 325.618 331.358 326.315 332.85 327.262C333.762 327.843 334.611 328.523 335.46 329.193C336.247 329.819 337.105 330.409 337.838 331.088C338.508 331.696 339.089 332.447 339.742 333.09C340.984 334.324 343.281 334.842 344.989 334.431C346.106 334.154 347.089 333.349 347.572 332.313C348.385 330.57 347.804 328.532 347.438 326.646C347.393 326.404 347.348 326.136 347.313 325.868Z" fill="#5F649C"/>
<path id="Vector_229" d="M339.321 319.951C339.142 322.426 340.188 321.005 341.028 321.747C342.977 323.472 344.988 323.186 346.409 321.774C347.142 320.889 346.999 319.513 347.151 318.422C347.804 313.443 348.742 312.049 349.582 309.198C350.7 305.399 350.762 301.35 350.262 297.426C349.717 293.198 348.233 289.274 347.357 285.136C346.499 281.051 347.491 276.144 347.178 271.863C347.017 269.744 346.695 267.465 345.194 265.963C343.54 264.301 340.751 264.095 338.642 265.123C336.532 266.16 335.076 268.225 334.325 270.441C333.377 273.275 333.127 276.904 333.154 279.889C333.181 282.097 333.333 284.296 333.627 286.486C334.325 291.732 335.782 296.836 336.908 301.994C337.364 304.049 337.748 306.114 338.106 308.179C338.642 311.298 339.536 316.947 339.321 319.951Z" fill="#EF9C76"/>
<path id="Vector_230" d="M315.688 281.096C315.679 282.008 315.751 282.928 315.813 283.822C316.368 290.839 316.949 297.855 317.458 304.872C317.932 311.477 319.845 317.806 320.613 324.358C320.953 327.289 321.033 330.284 321.972 333.081C322.321 334.109 323.071 335.396 324.037 335.96C324.948 336.478 326.834 336.907 327.701 336.129C328.095 335.79 328.264 335.253 328.381 334.744C328.604 333.752 328.702 332.742 328.819 331.732C329.632 325.01 331.616 318.494 332.635 311.799C333.19 308.161 332.796 304.666 332.6 301.037C332.394 297.087 331.563 293.234 330.651 289.4C329.891 286.235 331.536 283.152 330.535 279.827C329.677 276.993 327.487 274.499 324.627 273.659C321.775 272.819 318.361 273.883 316.806 276.403C315.939 277.806 315.697 279.433 315.688 281.096Z" fill="#FBBEA3"/>
<path id="Vector_231" d="M329.239 337.694C328.765 335.262 328.694 332.751 329.016 330.302L320.989 327.271C321.114 328.442 321.159 329.631 321.132 330.811C321.078 333.242 318.451 332.849 316.6 332.491C315.09 332.197 313.588 331.785 312.086 331.428V338.203H306.241C308.788 341.206 313.892 340.965 317.342 342.359C320.337 343.557 323.322 346.328 326.79 345.479C327.907 345.202 328.882 344.397 329.373 343.369C330.187 341.618 329.597 339.589 329.239 337.694Z" fill="#FBBEA3"/>
<path id="Vector_232" d="M327.005 339.426C321.892 341.607 311.675 338.72 312.31 331.48C311.524 331.293 310.728 331.114 309.924 330.962C309.53 330.89 309.128 330.828 308.726 330.774C308.413 330.729 307.993 330.613 307.68 330.694C306.518 330.998 305.553 331.999 305.142 333.107C304.73 334.224 304.811 335.494 305.213 336.62C305.24 336.7 305.267 336.79 305.302 336.87C305.535 337.406 305.964 337.916 306.357 338.345C306.724 338.747 307.144 339.096 307.6 339.391C308.547 340.007 309.62 340.392 310.701 340.687C312.9 341.295 315.224 341.5 317.342 342.358C320.328 343.565 323.322 346.327 326.79 345.478C327.908 345.201 328.882 344.405 329.365 343.359C330.187 341.616 329.597 339.587 329.23 337.692C329.123 337.12 329.043 336.548 328.98 335.976C328.354 337.576 328.06 339.426 327.005 339.426Z" fill="#5F649C"/>
<path id="Vector_233" d="M348.242 188.602C349.207 184.437 349.538 180.111 349.225 175.838C348.984 172.567 349.44 167.633 345.659 166.158C343.657 165.381 340.903 166.203 339.214 167.419C338.66 167.812 336.488 169.153 335.97 169.439C334.325 170.359 332.698 171.325 331.098 172.326C329.534 173.3 329.623 174.757 327.943 175.499C324.421 177.072 321.597 179.137 318.477 181.336C315.376 183.516 312.792 184.839 311.237 188.728C309.78 192.348 309.727 196.45 310.451 200.303C311.461 205.594 313.946 209.992 314.419 215.382C314.732 218.984 314.643 222.622 314.133 226.197C314.053 226.814 313.963 227.484 314.276 228.012C314.634 228.61 315.376 228.798 316.037 228.861C318.772 229.129 320.176 234.331 322.768 233.384C327.264 231.73 332.493 232.695 336.568 230.103C339.491 228.235 344.443 231.623 343.469 227.18C343.147 225.705 343.227 223.882 343.558 222.425C343.907 220.852 344.416 219.413 343.862 217.768C343.63 217.089 343.236 216.481 342.95 215.829C342.262 214.22 342.262 212.387 342.432 210.626C342.611 208.696 342.968 206.774 343.397 204.888C343.898 202.671 344.497 200.481 345.194 198.318C346.07 195.574 347.116 192.884 347.866 190.095C348.001 189.595 348.135 189.103 348.242 188.602Z" fill="#AE7D4F"/>
<path id="Vector_234" d="M349.76 241.141C349.894 243.555 349.993 245.986 350.154 248.417C350.663 256.131 331.669 240.712 332 248.417C332.25 254.299 331 263.76 331 271.63C331 283.5 333.5 294 333.5 310.5C333 314.5 333.153 325.24 331 330C328.376 335.801 322.463 331.075 321 330C315.762 326.121 311.745 276.823 311.888 271.156C312.067 264.47 312.237 257.784 312.407 251.099C312.621 242.938 312.291 234.652 314.034 226.652C314.454 224.74 315.509 222.666 315.517 220.735C331.66 227.564 344.263 216.731 344.317 216.588C346.23 220.431 346.686 223.265 347.293 225.16C348.983 230.389 349.456 235.743 349.76 241.141Z" fill="#1D292C"/>
<path id="Vector_235" d="M351 268.5C351.134 270.913 350.839 279.689 351 282.12C351.509 289.834 350.17 296.295 350.5 304C350.647 307.455 350.515 319.817 347.5 324C345.384 326.937 340.325 322.944 339.5 321.5C337.5 314.5 336.363 308.816 334.5 299.5C333.5 294.5 331.5 270.5 331.5 265.5C331.5 252.5 330.357 260.167 330.5 254.5C330.679 247.814 328.704 250.132 328.874 243.446C329.088 235.286 327.131 238 328.874 230C329.294 228.087 329.5 225.5 336.5 222.5C340 221 340.116 220.391 344 219C345.913 222.843 348.392 229.105 349 231C350.689 236.229 350.696 263.101 351 268.5Z" fill="#1D292C"/>
<path id="Vector_236" d="M338.499 165.971C338.553 167.285 338.606 168.599 338.66 169.912C338.705 171.003 338.758 172.12 339.152 173.13C339.616 174.319 340.215 174.9 340.117 176.241C340.01 177.671 339.366 178.895 338.454 179.941C336.729 181.917 334.396 183.293 331.894 183.803C330.213 184.151 328.309 184.035 326.781 183.15C324.6 181.89 325.217 180.174 325.378 177.903C325.539 175.472 325.458 172.388 323.465 170.279L338.499 165.971Z" fill="#FBBEA3"/>
<path id="Vector_237" d="M319.13 147.468C318.307 148.478 317.673 149.631 317.458 150.99C317.056 153.555 317.914 156.102 317.619 158.65C317.369 160.893 318.584 163.664 319.147 165.845C319.505 167.221 319.97 168.75 321.167 169.42C321.891 169.814 322.767 169.823 323.465 170.278C323.885 170.555 324.207 170.976 324.6 171.297C325.771 172.245 327.916 171.762 329.248 171.574C330.597 171.387 332.054 171.154 333.306 170.547C335.666 169.394 337.257 167.025 338.669 164.719C350.315 145.841 326.986 137.68 319.13 147.468Z" fill="#FBBEA3"/>
<path id="Vector_238" d="M341.019 144.974C340.805 144.437 340.572 143.901 340.215 143.41C338.722 141.363 336.622 139.825 334.315 138.949C331.473 137.859 328.336 137.752 325.377 138.404C324.787 138.538 324.188 138.699 323.634 138.958C322.553 139.468 321.659 140.317 320.783 141.157C319.835 142.06 318.53 142.927 317.878 144.098C317.225 145.278 316.698 146.663 316.734 148.049C316.752 148.665 317.082 149.166 317.359 149.711C317.565 150.104 317.869 150.426 318.128 150.784C318.995 151.964 319.379 153.662 319.889 155.029C320.112 155.619 320.354 156.254 320.854 156.612C321.829 157.318 323.196 156.656 324.313 157.041C324.975 157.264 325.484 157.818 325.815 158.453C326.146 159.087 326.316 159.794 326.485 160.5C326.754 161.599 326.771 162.529 326.888 163.628C327.004 164.737 327.29 165.916 328.014 166.766C329.65 168.669 332.832 168.607 334.995 168.142C335.772 167.972 336.559 167.785 337.283 167.427C341.046 165.595 343.281 160.187 343.719 156.111C343.817 155.19 343.844 154.261 343.835 153.331C343.826 152.348 343.781 151.356 343.558 150.399C343.209 148.969 342.449 147.691 341.707 146.458C341.421 145.975 341.225 145.474 341.019 144.974Z" fill="#291A2F"/>
<path id="Vector_239" d="M300.574 189.119C300.883 188.898 301.244 188.8 301.633 188.641C302.217 188.408 302.811 188.181 303.405 187.962C304.597 187.54 305.803 187.157 307.022 186.805C309.469 186.1 311.952 185.536 314.442 185.021C315.648 184.769 316.588 184.731 317.733 185.083C318.691 185.378 319.526 185.747 320.279 186.371C321.756 187.6 322.649 189.397 322.737 191.237C322.752 191.48 322.748 191.717 322.728 191.964C322.593 193.81 321.318 196.454 319.313 197.132C317.592 197.724 315.856 198.276 314.125 198.803C311.503 199.597 308.867 200.353 306.204 200.973C305.598 201.112 304.993 201.251 304.394 201.372C303.916 201.469 303.176 201.732 302.718 201.647C301.512 201.434 300.564 199.629 300.115 198.678C299.063 196.437 298.638 193.745 299.265 191.319C299.46 190.583 299.792 189.869 300.349 189.304C300.42 189.237 300.493 189.179 300.574 189.119Z" fill="#AE7D4F"/>
<path id="Vector_240" d="M352.05 183.792C351.254 180.583 350.271 177.401 348.903 174.407C346.74 169.67 346.267 156.334 345.855 153.643C345.855 153.625 345.855 153.616 345.847 153.599C345.56 151.176 345.006 148.817 343.844 146.725C343.254 145.661 342.521 144.696 341.744 143.784C339.465 141.103 336.577 138.743 333.19 138.162C331.581 137.885 329.936 138.019 328.31 138.153L328.622 138.636C328.524 138.654 328.417 138.645 328.318 138.663C327.451 138.788 326.593 139.011 325.789 139.288C324.198 139.834 322.696 140.638 321.972 142.336C321.436 143.579 321.445 145.018 321.57 146.376C321.758 148.352 322.151 150.309 322.741 152.195C323.009 153.071 323.268 154.162 323.796 154.904C324.287 155.592 324.788 155.869 325.074 156.79C326.012 159.784 326.397 162.966 326.209 166.112C326.084 168.168 325.717 170.197 325.458 172.244C324.904 176.552 324.797 180.932 325.136 185.267C325.279 187.01 325.217 188.628 325.7 190.344C325.941 191.229 326.263 192.078 326.683 192.883C326.835 193.178 328.14 194.867 328.095 195.046C327.809 196.074 328.73 196.967 329.391 197.772C331.134 199.926 331.366 204.708 334.817 204.565C335.988 204.52 337.212 204.127 338.294 204.583C339.304 204.994 339.992 206.058 341.029 206.397C342.191 206.764 343.451 206.085 344.238 205.11C345.015 204.145 345.444 202.92 345.981 201.776C346.222 201.258 346.508 200.731 346.991 200.471C347.581 200.167 348.278 200.355 348.93 200.266C350.611 200.042 351.558 198.147 352.068 196.449C353.301 192.302 353.095 187.984 352.05 183.792Z" fill="#291A2F"/>
<path id="Vector_241" d="M323.867 155.798C325.843 154.806 327.362 157.255 326.728 159.883C326.549 160.651 326.022 161.483 325.673 162.18C323.242 166.962 321.007 163.807 321.749 162.216C323.474 158.515 321.374 157.04 323.867 155.798Z" fill="#FBBEA3"/>
<path id="Vector_242" d="M324.762 160.089C324.913 159.767 326.692 157.372 324.744 157.041C324.207 156.952 323.868 157.559 323.984 158.069C324.046 158.337 324.216 158.569 324.27 158.837C324.306 158.989 324.297 159.159 324.279 159.32C324.198 159.758 323.626 160.384 323.957 160.848C324.252 161.251 324.672 160.276 324.762 160.089Z" fill="#F4AA84"/>
</g>
</g>
</svg>
