<svg width="750" height="500" viewBox="0 0 750 500" fill="none" xmlns="http://www.w3.org/2000/svg">
<g id="discuss">
<g id="surface1">
<path id="Vector" d="M540.691 303.055H247.883C242.359 303.055 237.883 298.578 237.883 293.055V80.3906C237.883 74.8672 242.359 70.3906 247.883 70.3906H540.691C546.215 70.3906 550.691 74.8672 550.691 80.3906V293.055C550.691 298.578 546.215 303.055 540.691 303.055Z" fill="#D2D2D2"/>
<path id="Vector_2" d="M550.691 297.055H257.879C252.359 297.055 247.883 292.578 247.883 287.055V74.3906C247.883 68.8672 252.359 64.3906 257.879 64.3906H550.691C556.215 64.3906 560.691 68.8672 560.691 74.3906V287.055C560.691 292.578 556.215 297.055 550.691 297.055Z" fill="#FDFCFE"/>
<path id="Vector_3" d="M550.691 297.055H257.879C252.359 297.055 247.883 292.578 247.883 287.055V74.3906C247.883 68.8672 252.359 64.3906 257.879 64.3906H550.691C556.215 64.3906 560.691 68.8672 560.691 74.3906V287.055C560.691 292.578 556.215 297.055 550.691 297.055Z" stroke="#D2D2D2" stroke-width="1.5" stroke-miterlimit="10" stroke-linecap="round" stroke-linejoin="round"/>
<path id="Vector_4" d="M338.098 116.902C332.586 105.176 320.676 97.0547 306.859 97.0547V131.555L338.098 116.902Z" fill="#F6FB18"/>
<path id="Vector_5" d="M338.098 116.902C332.586 105.176 320.676 97.0547 306.859 97.0547V131.555L338.098 116.902Z" stroke="#D2D2D2" stroke-width="1.5" stroke-miterlimit="10" stroke-linecap="round" stroke-linejoin="round"/>
<path id="Vector_6" d="M272.359 131.555C272.359 112.5 287.805 97.0547 306.859 97.0547C325.914 97.0547 341.359 112.5 341.359 131.555C341.359 150.609 325.914 166.055 306.859 166.055C287.805 166.055 272.359 150.609 272.359 131.555Z" stroke="#D2D2D2" stroke-width="1.5" stroke-miterlimit="10" stroke-linecap="round" stroke-linejoin="round"/>
<path id="Vector_7" d="M513 110H413V105H513V110Z" fill="#FB6A18"/>
<path id="Vector_8" d="M471.129 142.25H417V137H471.129V142.25Z" fill="#D2D2D2"/>
<path id="Vector_9" d="M451.129 153.25H417V148H451.129V153.25Z" fill="#D2D2D2"/>
<path id="Vector_10" d="M471.129 175.25H417V170H471.129V175.25Z" fill="#D2D2D2"/>
<path id="Vector_11" d="M451.129 185.25H417V180H451.129V185.25Z" fill="#D2D2D2"/>
<path id="Vector_12" d="M291.906 180.492H272.359V175.242H291.906V180.492Z" fill="#3971B8"/>
<path id="Vector_13" d="M303.359 190.992H272.359V185.742H303.359V190.992Z" fill="#D2D2D2"/>
<path id="Vector_14" d="M291.906 206.66H272.359V201.41H291.906V206.66Z" fill="#3971B8"/>
<path id="Vector_15" d="M303.359 217.16H272.359V211.91H303.359V217.16Z" fill="#D2D2D2"/>
<path id="Vector_16" d="M291.906 232.824H272.359V227.574H291.906V232.824Z" fill="#3971B8"/>
<path id="Vector_17" d="M303.359 243.324H272.359V238.074H303.359V243.324Z" fill="#D2D2D2"/>
<path id="Vector_18" d="M225.359 372.223C225.359 372.223 173.527 422.555 95.6094 380.973L97.6875 368.387L223.789 360.707L225.359 372.223Z" fill="#D4562A"/>
<path id="Vector_19" d="M112.691 333.473L85.8594 437.723H210.609C210.609 437.723 222.148 369.723 216.004 333.473H112.691Z" fill="#424242"/>
<path id="Vector_20" d="M122.109 219.223C122.109 219.223 110.359 209.473 113.109 192.473C115.859 175.473 128.859 172.723 128.859 172.723C128.859 172.723 113.609 156.973 131.359 136.473C131.359 136.473 136.859 131.223 143.609 130.473C143.609 130.473 149.109 104.973 178.109 107.723C207.109 110.473 198.234 138.723 190.047 142.473C190.047 142.473 194.961 155.723 187.535 162.223V170.973C187.535 170.973 207.359 175.973 209.859 196.973C212.359 217.973 190.047 225.473 190.047 225.473C190.047 225.473 132.859 230.141 122.109 219.223Z" fill="#151D4A"/>
<path id="Vector_21" d="M145.84 199.004L103.645 210.383C101.074 211.078 98.9454 212.867 97.8243 215.285C91.9922 227.871 73.6719 268.473 70.1094 289.223C70.1094 289.223 62.7618 314.57 79.0821 324.016C83.4571 326.547 88.6251 327.328 93.6251 326.602L104.859 324.973L95.6094 380.973C95.6094 380.973 135.859 386.223 143.859 357.973L148.859 333.473H198.859C198.859 333.473 195.359 361.723 225.359 372.223L216.859 309.973L221.254 285.918L237.27 299.875C242.078 304.066 247.738 307.227 253.914 308.824C263.844 311.391 277.203 310.652 285.109 292.973C298.859 262.223 306.609 221.723 306.609 221.723L288.359 202.973L252.609 255.223L221.555 212.406C220.301 210.672 218.469 209.445 216.391 208.941L175.359 199.004H145.84Z" fill="#F3A5A5"/>
<path id="Vector_22" d="M203.691 260.055C202.125 242.082 183.359 210.387 175.359 199.004H145.84C145.84 199.004 161.027 282.555 148.859 333.473H198.859C198.859 333.473 204.828 273.062 203.691 260.055Z" fill="#FDFCFE"/>
<path id="Vector_23" d="M203.086 282.699C187.398 287.746 168.07 290.262 153.508 291.512C153.199 306.32 151.867 320.895 148.859 333.473H198.859C198.859 333.473 201.691 304.789 203.086 282.699Z" fill="white"/>
<path id="Vector_24" d="M175.359 199.004L174.574 187.824C176.445 187.84 178.305 187.574 180.109 186.973C193.609 182.473 190.094 166.012 188.109 156.973C187.211 152.879 185.988 148.289 184.086 144.145C173.465 148.16 162.609 142.473 162.609 142.473C158.609 150.973 151.109 152.223 151.109 152.223C151.445 158.578 149.32 162.52 147.875 164.438C148.422 166.172 145.84 199.004 145.84 199.004C145.84 199.004 148.937 218.473 150.371 231.371C154.484 231.715 158.711 231.902 163.027 231.902C173.656 231.902 183.746 230.812 192.844 228.867C186.75 216.598 179.566 204.992 175.359 199.004Z" fill="#EACDB0"/>
<path id="Vector_25" d="M166.16 148.223C166.16 148.223 178.484 152.109 184.73 145.633C184.523 145.133 184.309 144.637 184.086 144.145C173.465 148.16 162.609 142.473 162.609 142.473C158.609 150.973 151.109 152.223 151.109 152.223C151.164 153.262 151.148 154.234 151.086 155.145C155.383 155.277 162.828 154.52 166.16 148.223Z" fill="#EFBB86"/>
<path id="Vector_26" d="M150.008 160.937C153.047 164.242 153.121 169.117 150.172 171.828C147.226 174.535 142.375 174.058 139.336 170.754C136.297 167.453 136.226 162.578 139.172 159.867C142.117 157.156 146.973 157.637 150.008 160.937Z" fill="#EACDB0"/>
<path id="Vector_27" d="M83.8594 295.973C83.8594 295.973 87.3594 280.723 107.859 278.223C128.359 275.723 150.859 277.473 159.609 274.723L161.375 300.223C161.375 300.223 124.461 323.473 104.859 324.973L83.8594 295.973Z" fill="#F3A5A5"/>
<path id="Vector_28" d="M108.461 278.035C108.461 278.035 110.852 272.051 115.422 252.57L114.617 277.629L108.461 278.035Z" fill="#D4562A"/>
<path id="Vector_29" d="M174.574 187.824C174.574 187.824 163.484 187.348 157.234 176.598C157.234 176.598 158.188 190.441 175.086 195.066L174.574 187.824Z" fill="#EFBB86"/>
<path id="Vector_30" d="M141.609 162.598L148.859 167.598" stroke="#EFBB86" stroke-width="1.5" stroke-miterlimit="10" stroke-linecap="round" stroke-linejoin="round"/>
<path id="Vector_31" d="M221.254 285.918C221.254 285.918 225.301 271.234 225.359 259.973C225.398 252.57 218.109 243.473 216.004 234.723" stroke="#D4562A" stroke-width="1.5" stroke-miterlimit="10" stroke-linecap="round" stroke-linejoin="round"/>
<path id="Vector_32" d="M228.109 307.223H175.859L185.359 238.973H237.609L228.109 307.223Z" fill="#C3CDDA"/>
<path id="Vector_33" d="M159.758 276.836C159.758 276.836 167.984 273.098 170.609 269.723C173.234 266.348 182.215 261.574 182.215 261.574L181.359 268.965C181.359 268.965 208.984 260.348 212.484 261.723C215.984 263.098 209.234 267.223 209.234 267.223C209.234 267.223 215.734 264.879 215.984 266.238C216.234 267.598 213.984 271.223 212.609 272.223C212.609 272.223 214.359 271.723 214.484 273.473C214.609 275.223 205.484 282.598 197.984 285.473C197.984 285.473 206.359 283.723 208.734 285.473C208.734 285.473 196.484 291.598 191.984 292.973C187.484 294.348 161.176 297.344 161.176 297.344L159.758 276.836Z" fill="#EACDB0"/>
<path id="Vector_34" d="M159.262 301.52C159.262 301.52 145.145 310.445 128.492 317.77" stroke="#D4562A" stroke-width="1.5" stroke-miterlimit="10" stroke-linecap="round" stroke-linejoin="round"/>
<path id="Vector_35" d="M83.8594 295.973C83.8594 295.973 87.3594 280.723 107.859 278.223C128.359 275.723 150.859 277.473 159.609 274.723" stroke="#D4562A" stroke-width="1.5" stroke-miterlimit="10" stroke-linecap="round" stroke-linejoin="round"/>
<path id="Vector_36" d="M252.609 255.223C252.609 255.223 245.859 261.473 243.109 272.223" stroke="#D4562A" stroke-width="1.5" stroke-miterlimit="10" stroke-linecap="round" stroke-linejoin="round"/>
<path id="Vector_37" d="M159.758 276.836L161.176 297.344L165.898 296.785L159.758 276.836Z" fill="#EFBB86"/>
<path id="Vector_38" d="M289.594 204.238L303.641 185.566C303.641 185.566 309.105 179.422 316.766 175.816C326.121 171.41 338.391 163.066 338.391 163.066C338.391 163.066 342.516 165.691 338.391 169.566L327.266 180.316L334.184 185.449C336.93 187.305 337.102 191.441 334.348 193.285C334.203 193.383 334.051 193.477 333.891 193.566C333.891 193.566 335.391 198.066 330.891 200.191C330.891 200.191 331.016 203.441 327.766 204.816C324.516 206.191 318.961 204.066 318.961 204.066C318.961 204.066 317.762 210.754 308.012 212.629L303.711 218.742L289.594 204.238Z" fill="#EACDB0"/>
<path id="Vector_39" d="M289.594 204.238L307.027 214.254L303.711 218.742L289.594 204.238Z" fill="#EFBB86"/>
<path id="Vector_40" d="M205.285 238.973L204.473 244.387H222.953L223.691 238.973" stroke="#151D4A" stroke-width="1.5" stroke-miterlimit="10" stroke-linecap="round" stroke-linejoin="round"/>
<path id="Vector_41" d="M151.211 68.0547H100.176C97.0703 68.0547 94.5469 70.5742 94.5469 73.6836V92.4453C94.5469 95.5547 97.0703 98.0742 100.176 98.0742H133.148L143.609 109.848V98.0742H151.211C154.316 98.0742 156.84 95.5547 156.84 92.4453V73.6836C156.84 70.5742 154.316 68.0547 151.211 68.0547Z" fill="#FDFCFE"/>
<path id="Vector_42" d="M115.41 82.3633C115.41 84.0078 114.078 85.3398 112.434 85.3398C110.793 85.3398 109.461 84.0078 109.461 82.3633C109.461 80.7188 110.793 79.3906 112.434 79.3906C114.078 79.3906 115.41 80.7188 115.41 82.3633Z" fill="#D2D2D2"/>
<path id="Vector_43" d="M129.668 82.3633C129.668 84.0078 128.336 85.3398 126.691 85.3398C125.051 85.3398 123.719 84.0078 123.719 82.3633C123.719 80.7188 125.051 79.3906 126.691 79.3906C128.336 79.3906 129.668 80.7188 129.668 82.3633Z" fill="#D2D2D2"/>
<path id="Vector_44" d="M142.609 82.3633C142.609 84.0078 141.277 85.3398 139.637 85.3398C137.992 85.3398 136.66 84.0078 136.66 82.3633C136.66 80.7188 137.992 79.3906 139.637 79.3906C141.277 79.3906 142.609 80.7188 142.609 82.3633Z" fill="#D2D2D2"/>
<path id="Vector_45" d="M326.68 310.07L291.859 323.555C291.859 323.555 266.691 332.723 263.191 354.387C259.691 376.055 253.527 410.223 253.527 410.223L207.191 419.055V437.723H416.359L414.629 391.508L440.164 389.766C434.609 354.223 428.359 326.055 390.691 317.055L356.547 308.398L326.68 310.07Z" fill="#96BE8B"/>
<path id="Vector_46" d="M319.184 313.153C319.184 313.153 317.609 337.973 341.609 336.723C365.609 335.473 364.226 310.239 364.226 310.239" stroke="#5B925D" stroke-width="1.5" stroke-miterlimit="10" stroke-linecap="round" stroke-linejoin="round"/>
<path id="Vector_47" d="M292.984 394.973L256.547 393.262C254.816 403.078 253.527 410.223 253.527 410.223L207.191 419.055V437.723H292.758L292.984 394.973Z" fill="#EACDB0"/>
<path id="Vector_48" d="M256.547 393.262L292.984 394.973V403.848L256.547 393.262Z" fill="#EFBB86"/>
<path id="Vector_49" d="M370.234 251.223C368.609 242.723 360.359 242.223 360.359 242.223C361.359 235.723 354.984 230.848 345.109 231.848C335.234 232.848 332.734 227.473 321.484 226.098C310.234 224.723 305.234 235.598 307.859 244.973C310.484 254.348 321.484 255.223 321.484 255.223L322.359 286.348L349.726 287.098C356.844 287.098 362.609 281.695 362.609 275.035C362.609 273.996 362.457 272.996 362.191 272.035C367.68 266.535 371.359 257.098 370.234 251.223Z" fill="#151D4A"/>
<path id="Vector_50" d="M357.734 263.223C354.445 263.223 351.629 265.242 350.449 268.105C348.07 265.918 345.898 262.137 345.734 255.598C345.734 255.598 336.461 259.629 332.984 256.223C329.359 252.664 329.609 247.973 329.609 247.973C329.609 247.973 326.344 254.848 318.441 252.664L315.277 281.566C315.277 281.566 312.711 294.457 327.891 297.258L326.359 313.473C326.359 313.473 325.371 328.148 338.191 328.723C356.859 329.555 356.859 313.473 356.859 313.473L354.156 278.105C355.231 278.656 356.445 278.973 357.734 278.973C362.086 278.973 365.609 275.445 365.609 271.098C365.609 266.746 362.086 263.223 357.734 263.223Z" fill="#EACDB0"/>
<path id="Vector_51" d="M345.734 255.598C345.734 255.598 336.461 259.629 332.984 256.223C329.359 252.664 329.609 247.973 329.609 247.973C329.609 247.973 326.344 254.848 318.441 252.664C318.441 252.664 323.359 256.387 329.027 254.887C329.027 254.887 332.863 262.723 340.363 261.723C340.363 261.723 344.711 269.16 350.449 268.105C348.07 265.918 345.898 262.137 345.734 255.598Z" fill="#EFBB86"/>
<path id="Vector_52" d="M327.891 297.258C327.891 297.258 341.359 299.348 346.484 287.098C346.484 287.098 345.43 303.141 327.207 304.492L327.891 297.258Z" fill="#EFBB86"/>
<path id="Vector_53" d="M353.359 272.473L361.484 268.223" stroke="#F3746B" stroke-width="1.5" stroke-miterlimit="10" stroke-linecap="round" stroke-linejoin="round"/>
<path id="Vector_54" d="M292.609 436.723L293.359 369.973" stroke="#5B925D" stroke-width="1.5" stroke-miterlimit="10" stroke-linecap="round" stroke-linejoin="round"/>
<path id="Vector_55" d="M257.879 385.684L293.164 387.473" stroke="#5B925D" stroke-width="1.5" stroke-miterlimit="10" stroke-linecap="round" stroke-linejoin="round"/>
<path id="Vector_56" d="M341.859 417.555L318.191 405.723C318.191 405.723 314.527 403.223 309.527 407.055C304.527 410.887 289.859 424.723 283.191 425.387C283.191 425.387 280.691 430.887 288.527 430.887C288.527 430.887 291.691 434.555 297.859 431.887C297.859 431.887 301.859 434.887 307.527 431.387C307.527 431.387 311.191 433.887 317.191 432.387L325.191 429.887C325.191 429.887 331.027 436.887 341.859 437.723H419.027C419.027 437.723 447.691 435.723 444.027 411.723C440.965 391.664 440.164 389.766 440.164 389.766L396.848 392.723L398.289 405.695L341.859 417.555Z" fill="#EACDB0"/>
<path id="Vector_57" d="M396.848 392.723L440.164 389.766L441.551 396.48L396.848 392.723Z" fill="#F3746B"/>
<path id="Vector_58" d="M398.289 405.695C398.289 405.695 407.609 404.223 414.734 409.598" stroke="#F3746B" stroke-width="1.5" stroke-miterlimit="10" stroke-linecap="round" stroke-linejoin="round"/>
<path id="Vector_59" d="M396.848 392.723L392.859 365.973" stroke="#4A2F91" stroke-width="1.5" stroke-miterlimit="10" stroke-linecap="round" stroke-linejoin="round"/>
<path id="Vector_60" d="M395.801 385.684L438.797 381.355" stroke="#4A2F91" stroke-width="1.5" stroke-miterlimit="10" stroke-linecap="round" stroke-linejoin="round"/>
<path id="Vector_61" d="M324.609 437.723H231.359V429.805H324.609V437.723Z" fill="#888888"/>
<path id="Vector_62" d="M276.172 437.723H176.691L156.691 359.387H256.172L276.172 437.723Z" fill="#DDDDDD"/>
<path id="Vector_63" d="M256.172 359.387H249.172L269.172 437.723H276.172L256.172 359.387Z" fill="#888888"/>
<path id="Vector_64" d="M213.93 395.852C214.969 400.004 213.203 404.024 209.988 404.825C206.774 405.629 203.324 402.911 202.289 398.758C201.254 394.606 203.016 390.59 206.234 389.786C209.445 388.985 212.895 391.7 213.93 395.852Z" fill="#FDFCFE"/>
<path id="Vector_65" d="M529.859 290.746C529.859 290.746 502.609 296.304 485.109 277.304C467.609 258.304 494.359 230.585 494.359 230.585C494.359 230.585 480.109 217.304 486.859 204.554C486.859 204.554 493.527 195.304 505.816 201.304C505.816 201.304 520.184 181.804 544.148 192.804C568.109 203.804 567.852 234.808 567.109 240.472C567.109 240.472 596.684 285.98 529.859 290.746Z" fill="#151D4A"/>
<path id="Vector_66" d="M521.359 334L500.527 364.5L462.609 301.054C462.609 301.054 464.359 294.387 461.027 287.387C457.691 280.387 459.859 272.387 459.859 272.387C459.859 272.387 456.359 270.722 454.027 273.887L450.473 285.09L429.5 280.054C428.934 279.879 427 280.054 426 281C424.459 282.457 425.766 281.176 425 284.5C425 284.5 418.199 280.152 415 285.09V289.5C415 289.5 412.668 291.668 411.5 295L415 301.054C422.938 306.367 442.25 303.75 446 308L479.621 370.582C484.496 378.863 491.02 386.324 500.527 387.722C506.898 388.656 516.57 386.875 521.359 380.304C534.625 362.109 541.609 346.304 541.609 346.304L521.359 334Z" fill="#EACDB0"/>
<path id="Vector_67" d="M531.75 341.043L526.359 373.137C526.359 373.137 538.027 353.66 541.609 346.305L531.75 341.043Z" fill="#EFBB86"/>
<path id="Vector_68" d="M635.5 324.5C635.5 324.5 648.668 323.418 657 349.5C665.336 375.582 635.5 437.723 635.5 437.723H547.027L587.691 364.223L635.5 324.5Z" fill="#151D4A"/>
<path id="Vector_69" d="M606.027 373.137L612.148 377.637L599.234 437.723" stroke="#1D427F" stroke-width="1.5" stroke-miterlimit="10" stroke-linecap="round" stroke-linejoin="round"/>
<path id="Vector_70" d="M612.191 257.621C607.504 251.715 600.879 248.512 595.156 246.774C589.805 245.149 584.172 244.653 578.594 245.118L561.359 246.555L538.562 260.43L530.148 264.926C523.742 268.352 518.789 274.039 516.469 280.922C515.793 282.93 515.156 285.215 514.609 287.805C511.609 302.055 504.609 326.555 504.609 326.555L541.609 346.305L550.297 328.473C553.922 329.203 556.859 328.887 556.859 328.887C566.191 334.387 587.691 364.223 587.691 364.223L644.527 317.555C644.527 317.555 622.191 270.223 612.191 257.621Z" fill="#6F90BA"/>
<path id="Vector_71" d="M550.297 328.473C550.297 328.473 540.445 328.352 538.691 319.887C536.734 310.43 533.359 302.723 533.359 302.723C533.359 302.723 535.734 333.805 531.75 341.043L541.609 346.305L550.297 328.473Z" fill="#1D427F"/>
<path id="Vector_72" d="M561.359 246.555L543.074 237.48C545.859 236.422 547.859 233.586 547.859 230.242C547.859 225.996 544.641 222.555 540.672 222.555C536.703 222.555 533.484 225.996 533.484 230.242C533.484 230.441 533.5 230.633 533.512 230.828C533.41 230.738 533.312 230.656 533.207 230.566C524.734 229.43 508.129 209.172 508.125 209.168C506.555 211.047 505.273 213.516 504.859 216.723L505.191 225.223C505.191 225.223 501.219 232.945 498.859 236.223C496.5 239.5 504.859 239.5 504.859 239.5C504.859 239.5 504.527 252.887 512.527 256.887C519.496 260.375 526.215 258.035 530.473 254.844L538.562 260.43C538.562 260.43 541.027 280.723 554.027 279.055C570 277.008 561.359 246.555 561.359 246.555Z" fill="#EACDB0"/>
<path id="Vector_73" d="M530.703 229.805C521.84 225.898 508.129 209.172 508.125 209.168C506.719 210.852 505.547 213.016 505.02 215.758C511.762 220.246 522.277 226.77 530.703 229.805Z" fill="#EFBB86"/>
<path id="Vector_74" d="M530.473 254.844C530.473 254.844 535.609 249.352 537.609 244.953C537.609 244.953 539.059 254.516 537.086 259.41L530.473 254.844Z" fill="#EFBB86"/>
<path id="Vector_75" d="M592.5 321.555V335.5L537.609 389.305L508.277 401.062C506.059 401.949 504.199 403.539 502.977 405.594L488.859 429.305C488.859 429.305 493.484 431.805 497.859 428.055L496.109 431.68C496.109 431.68 502.734 433.305 505.984 429.805L504.484 432.68C504.484 432.68 507.734 434.18 512.75 433.051C512.75 433.051 518.859 433.051 521.234 430.68C525.113 426.805 530.984 418.18 530.984 418.18C530.984 418.18 540.609 419.055 544.734 413.055L548.859 407.055L584 374.5C592.246 369.082 617.957 340.344 618.609 330.5V321.555H592.5Z" fill="#EACDB0"/>
<path id="Vector_76" d="M592 321H619L618.671 328L592 321Z" fill="#EFBB86"/>
<path id="Vector_77" d="M537.609 437.723H444.359V429.805H537.609V437.723Z" fill="#888888"/>
<path id="Vector_78" d="M489.172 437.723H389.691L369.691 359.387H469.172L489.172 437.723Z" fill="#DDDDDD"/>
<path id="Vector_79" d="M469.172 359.387H462.172L482.172 437.723H489.172L469.172 359.387Z" fill="#888888"/>
<path id="Vector_80" d="M426.93 395.852C427.969 400.004 426.203 404.024 422.988 404.825C419.774 405.629 416.324 402.911 415.289 398.758C414.254 394.606 416.016 390.59 419.231 389.786C422.449 388.985 425.895 391.7 426.93 395.852Z" fill="#FDFCFE"/>
<path id="Vector_81" d="M579.859 321.555L577.609 275.055" stroke="#1D427F" stroke-width="1.5" stroke-miterlimit="10" stroke-linecap="round" stroke-linejoin="round"/>
<path id="Vector_82" d="M618.609 321.555V293.902" stroke="#1D427F" stroke-width="1.5" stroke-miterlimit="10" stroke-linecap="round" stroke-linejoin="round"/>
<path id="Vector_83" d="M63.3594 437.723H680.027" stroke="#D2D2D2" stroke-width="3" stroke-miterlimit="10" stroke-linecap="round" stroke-linejoin="round"/>
</g>
<path id="Issue" d="M359.936 114H358.854V101.203H359.936V114ZM368.865 111.583C368.865 111.062 368.654 110.643 368.232 110.326C367.816 110.01 367.187 109.764 366.343 109.588C365.499 109.406 364.843 109.201 364.374 108.973C363.911 108.738 363.565 108.454 363.337 108.12C363.114 107.786 363.003 107.382 363.003 106.907C363.003 106.157 363.316 105.539 363.943 105.053C364.57 104.561 365.373 104.314 366.352 104.314C367.412 104.314 368.262 104.578 368.9 105.105C369.545 105.627 369.867 106.31 369.867 107.153H368.812C368.812 106.597 368.578 106.134 368.109 105.765C367.646 105.396 367.061 105.211 366.352 105.211C365.66 105.211 365.104 105.366 364.682 105.677C364.266 105.981 364.058 106.38 364.058 106.872C364.058 107.347 364.23 107.716 364.576 107.979C364.928 108.237 365.563 108.475 366.483 108.691C367.409 108.908 368.101 109.14 368.558 109.386C369.021 109.632 369.363 109.928 369.586 110.273C369.809 110.619 369.92 111.038 369.92 111.53C369.92 112.333 369.595 112.975 368.944 113.455C368.3 113.936 367.456 114.176 366.413 114.176C365.306 114.176 364.406 113.909 363.715 113.376C363.029 112.837 362.687 112.157 362.687 111.337H363.741C363.782 111.952 364.04 112.433 364.515 112.778C364.995 113.118 365.628 113.288 366.413 113.288C367.146 113.288 367.737 113.127 368.188 112.805C368.64 112.482 368.865 112.075 368.865 111.583ZM377.988 111.583C377.988 111.062 377.777 110.643 377.355 110.326C376.939 110.01 376.31 109.764 375.466 109.588C374.622 109.406 373.966 109.201 373.497 108.973C373.034 108.738 372.688 108.454 372.46 108.12C372.237 107.786 372.126 107.382 372.126 106.907C372.126 106.157 372.439 105.539 373.066 105.053C373.693 104.561 374.496 104.314 375.475 104.314C376.535 104.314 377.385 104.578 378.023 105.105C378.668 105.627 378.99 106.31 378.99 107.153H377.936C377.936 106.597 377.701 106.134 377.232 105.765C376.77 105.396 376.184 105.211 375.475 105.211C374.783 105.211 374.227 105.366 373.805 105.677C373.389 105.981 373.181 106.38 373.181 106.872C373.181 107.347 373.354 107.716 373.699 107.979C374.051 108.237 374.687 108.475 375.606 108.691C376.532 108.908 377.224 109.14 377.681 109.386C378.144 109.632 378.486 109.928 378.709 110.273C378.932 110.619 379.043 111.038 379.043 111.53C379.043 112.333 378.718 112.975 378.067 113.455C377.423 113.936 376.579 114.176 375.536 114.176C374.429 114.176 373.529 113.909 372.838 113.376C372.152 112.837 371.81 112.157 371.81 111.337H372.864C372.905 111.952 373.163 112.433 373.638 112.778C374.118 113.118 374.751 113.288 375.536 113.288C376.269 113.288 376.86 113.127 377.312 112.805C377.763 112.482 377.988 112.075 377.988 111.583ZM387.533 112.796C386.9 113.716 385.89 114.176 384.501 114.176C383.487 114.176 382.717 113.883 382.189 113.297C381.662 112.705 381.393 111.832 381.381 110.678V104.49H382.427V110.546C382.427 112.356 383.159 113.262 384.624 113.262C386.147 113.262 387.111 112.632 387.516 111.372V104.49H388.57V114H387.551L387.533 112.796ZM394.995 114.176C394.187 114.176 393.454 113.977 392.798 113.578C392.147 113.18 391.641 112.626 391.277 111.917C390.914 111.202 390.732 110.402 390.732 109.518V109.14C390.732 108.226 390.908 107.402 391.26 106.67C391.617 105.938 392.112 105.363 392.745 104.947C393.378 104.525 394.063 104.314 394.802 104.314C395.956 104.314 396.87 104.71 397.544 105.501C398.224 106.286 398.563 107.361 398.563 108.727V109.315H391.778V109.518C391.778 110.596 392.086 111.495 392.701 112.216C393.322 112.931 394.102 113.288 395.039 113.288C395.602 113.288 396.097 113.186 396.524 112.98C396.958 112.775 397.351 112.447 397.702 111.996L398.361 112.497C397.588 113.616 396.466 114.176 394.995 114.176ZM394.802 105.211C394.011 105.211 393.343 105.501 392.798 106.081C392.259 106.661 391.931 107.44 391.813 108.419H397.518V108.305C397.488 107.391 397.228 106.646 396.735 106.072C396.243 105.498 395.599 105.211 394.802 105.211Z" fill="black"/>
<path id="Why ? Action" d="M360.097 145.313L360.404 146.858L360.78 145.382L362.94 138.047H363.699L365.832 145.382L366.201 146.872L366.529 145.313L368.327 138.047H369.188L366.639 148H365.832L363.576 140.214L363.323 139.229L363.077 140.214L360.767 148H359.96L357.417 138.047H358.278L360.097 145.313ZM371.431 141.854C371.7 141.412 372.044 141.071 372.463 140.829C372.882 140.588 373.34 140.467 373.837 140.467C374.63 140.467 375.22 140.69 375.607 141.137C375.995 141.583 376.191 142.253 376.195 143.146V148H375.382V143.14C375.377 142.479 375.236 141.987 374.958 141.663C374.685 141.34 374.245 141.178 373.639 141.178C373.133 141.178 372.684 141.337 372.292 141.656C371.905 141.971 371.618 142.397 371.431 142.935V148H370.617V137.5H371.431V141.854ZM380.646 146.824L382.806 140.604H383.688L380.529 149.258L380.365 149.641C379.96 150.538 379.333 150.987 378.485 150.987C378.289 150.987 378.08 150.955 377.856 150.892L377.85 150.215L378.273 150.256C378.674 150.256 378.998 150.156 379.244 149.955C379.495 149.759 379.707 149.42 379.88 148.937L380.242 147.938L377.453 140.604H378.349L380.646 146.824ZM389.867 145.238C389.876 144.701 389.949 144.268 390.086 143.939C390.223 143.611 390.517 143.226 390.968 142.784C391.419 142.338 391.708 142.023 391.836 141.841C391.968 141.654 392.068 141.451 392.137 141.232C392.21 141.009 392.246 140.756 392.246 140.474C392.246 139.904 392.093 139.457 391.788 139.134C391.487 138.806 391.066 138.642 390.523 138.642C389.977 138.642 389.535 138.799 389.197 139.113C388.865 139.423 388.694 139.845 388.685 140.378H387.871C387.88 139.631 388.133 139.034 388.63 138.587C389.127 138.136 389.758 137.91 390.523 137.91C391.307 137.91 391.925 138.14 392.376 138.601C392.832 139.056 393.06 139.676 393.06 140.46C393.06 140.952 392.948 141.415 392.725 141.848C392.501 142.276 392.077 142.777 391.453 143.352C390.938 143.785 390.681 144.413 390.681 145.238H389.867ZM389.758 147.521C389.758 147.367 389.806 147.237 389.901 147.132C390.002 147.022 390.141 146.968 390.318 146.968C390.492 146.968 390.628 147.022 390.729 147.132C390.833 147.237 390.886 147.367 390.886 147.521C390.886 147.672 390.833 147.799 390.729 147.904C390.628 148.005 390.492 148.055 390.318 148.055C390.141 148.055 390.002 148.005 389.901 147.904C389.806 147.799 389.758 147.672 389.758 147.521ZM363.631 177.211H359.112L358.087 180H357.205L360.972 170.047H361.771L365.538 180H364.663L363.631 177.211ZM359.372 176.493H363.364L361.368 171.072L359.372 176.493ZM369.551 179.446C370.12 179.446 370.597 179.287 370.979 178.968C371.367 178.644 371.576 178.227 371.608 177.717H372.395C372.372 178.168 372.23 178.58 371.971 178.954C371.711 179.323 371.365 179.613 370.932 179.822C370.503 180.032 370.043 180.137 369.551 180.137C368.58 180.137 367.81 179.799 367.24 179.125C366.675 178.451 366.393 177.544 366.393 176.404V176.158C366.393 175.429 366.52 174.784 366.775 174.224C367.031 173.663 367.395 173.23 367.869 172.925C368.348 172.619 368.906 172.467 369.544 172.467C370.355 172.467 371.023 172.708 371.547 173.191C372.076 173.674 372.358 174.31 372.395 175.099H371.608C371.572 174.52 371.362 174.053 370.979 173.697C370.601 173.342 370.123 173.164 369.544 173.164C368.806 173.164 368.231 173.431 367.821 173.964C367.416 174.497 367.213 175.244 367.213 176.206V176.445C367.213 177.389 367.416 178.125 367.821 178.653C368.231 179.182 368.808 179.446 369.551 179.446ZM375.307 170.71V172.604H376.838V173.273H375.307V178.202C375.307 178.612 375.38 178.918 375.525 179.118C375.676 179.319 375.924 179.419 376.271 179.419C376.407 179.419 376.628 179.396 376.934 179.351L376.968 180.021C376.754 180.098 376.462 180.137 376.093 180.137C375.532 180.137 375.124 179.975 374.869 179.651C374.614 179.323 374.486 178.842 374.486 178.209V173.273H373.126V172.604H374.486V170.71H375.307ZM379.449 180H378.629V172.604H379.449V180ZM378.485 170.464C378.485 170.309 378.535 170.179 378.636 170.074C378.736 169.965 378.873 169.91 379.046 169.91C379.219 169.91 379.356 169.965 379.456 170.074C379.561 170.179 379.613 170.309 379.613 170.464C379.613 170.619 379.561 170.749 379.456 170.854C379.356 170.958 379.219 171.011 379.046 171.011C378.873 171.011 378.736 170.958 378.636 170.854C378.535 170.749 378.485 170.619 378.485 170.464ZM381.227 176.192C381.227 175.481 381.363 174.841 381.637 174.271C381.915 173.702 382.304 173.26 382.806 172.945C383.312 172.626 383.883 172.467 384.521 172.467C385.506 172.467 386.303 172.813 386.914 173.506C387.525 174.194 387.83 175.108 387.83 176.247V176.418C387.83 177.133 387.691 177.778 387.413 178.353C387.14 178.922 386.752 179.362 386.251 179.672C385.75 179.982 385.178 180.137 384.535 180.137C383.555 180.137 382.758 179.793 382.143 179.104C381.532 178.412 381.227 177.496 381.227 176.356V176.192ZM382.047 176.418C382.047 177.302 382.275 178.029 382.73 178.599C383.191 179.164 383.792 179.446 384.535 179.446C385.273 179.446 385.87 179.164 386.326 178.599C386.786 178.029 387.017 177.279 387.017 176.35V176.192C387.017 175.627 386.912 175.11 386.702 174.641C386.493 174.171 386.199 173.809 385.82 173.554C385.442 173.294 385.009 173.164 384.521 173.164C383.792 173.164 383.198 173.451 382.737 174.025C382.277 174.595 382.047 175.342 382.047 176.268V176.418ZM390.305 172.604L390.332 173.868C390.61 173.412 390.956 173.066 391.371 172.829C391.786 172.588 392.244 172.467 392.745 172.467C393.538 172.467 394.128 172.69 394.516 173.137C394.903 173.583 395.099 174.253 395.104 175.146V180H394.29V175.14C394.285 174.479 394.144 173.987 393.866 173.663C393.593 173.34 393.153 173.178 392.547 173.178C392.041 173.178 391.592 173.337 391.2 173.656C390.813 173.971 390.526 174.397 390.339 174.935V180H389.525V172.604H390.305Z" fill="black"/>
</g>
</svg>
