<svg width="524" height="509" viewBox="0 0 524 509" fill="none" xmlns="http://www.w3.org/2000/svg">
<g id="graduate">
<g id="LGirl">
<path id="Vector" d="M137.893 476.741L137.275 480.544L143.925 485.73L148.176 482.623L145.159 478.128L138.511 472.941L137.893 476.741Z" fill="#514943"/>
<path id="Vector_2" d="M145.122 359.824L143.245 371.369L151.241 411.902L137.712 475.446L144.674 478.329L167.202 416.854L171.276 398.82L173.495 360.257L145.122 359.824Z" fill="#CAB5A1"/>
<path id="Vector_3" d="M189.654 371.591L186.411 480.227L179.64 480.966L170.952 412.501L153.387 365.695L189.654 371.591Z" fill="#CAB5A1"/>
<path id="Vector_4" d="M179.587 480.114L180.006 483.958L187.748 487.005L190.989 482.763L186.91 479.317L179.587 480.114Z" fill="#514943"/>
<path id="Vector_5" d="M137.647 262.402C137.647 262.402 147.664 254.748 161.02 262.402C174.376 270.056 205.257 340.473 211.102 385.254C213.357 402.519 215.853 421.43 216 438.988C216.112 452.619 179.93 452.479 167.222 451.728C143.49 450.322 107.179 453.002 108.014 439.988C108.849 426.976 128.465 379.135 130.969 338.182C133.474 297.231 122.622 270.822 137.647 262.402Z" fill="#565656"/>
<path id="Vector_6" d="M142.745 226.485C146.799 227.687 151.513 231.776 152.034 236.245C152.286 238.399 151.391 240.258 151.752 242.552C152.445 247.076 146.422 252.974 151.356 256.603C153.891 258.469 157.329 258.328 160.47 258.107C160.85 258.08 161.249 258.047 161.57 257.84C162.099 257.501 162.26 256.778 162.141 256.16C162.022 255.544 161.682 254.997 161.392 254.437C158.365 248.602 160.09 240.894 159.358 234.544C158.625 228.207 155.532 221.688 149.68 218.484C146.41 220.131 144.484 222.119 143.336 225.596L142.745 226.485Z" fill="#A8946A"/>
<path id="Vector_7" d="M154.231 230.854C148.358 218.53 133.884 226.927 132.457 239.408C131.643 246.531 136.595 254.153 142.698 256.376C142.593 257.592 142.86 258.939 142.659 260.198C144.623 260.54 146.562 260.525 148.437 260.36C149.546 260.262 150.284 259.17 149.974 258.101C149.789 257.459 149.609 256.834 149.504 256.409C150.569 256.004 151.619 255.384 152.634 254.525C155.803 251.841 157.381 247.248 157.381 242.938C157.381 238.627 155.996 234.558 154.231 230.854Z" fill="#EACDB0"/>
<path id="Vector_8" d="M153.512 308.063C151.83 303.001 147.748 299.18 144.69 294.808C143.517 293.131 142.426 291.345 141.457 289.486C136.872 280.233 139.161 272.837 141.853 265.764C144.547 258.68 145.355 258.377 138.94 253.038C132.98 248.079 136.182 236.442 136.664 234.819C137.636 231.716 139.086 229.026 140.971 227.439C142.832 225.875 144.923 225.631 147.246 225.669C148.838 225.694 148.88 226.297 150.251 225.486C151.303 224.866 152.246 222.941 152.521 221.806C152.985 219.893 152.277 217.836 151.051 216.293C143.875 207.254 133.272 214.591 127.507 221.231C122.754 226.704 118.75 233.023 116.818 240.065C115.011 246.65 114.232 256.372 114.773 263.157C115.285 269.586 118.845 275.89 117.36 282.165C116.01 287.87 110.92 291.748 106.492 295.59C102.066 299.433 97.6778 304.617 98.5278 310.417C99.0537 313.999 101.61 317.07 104.761 318.852C107.912 320.631 111.599 321.254 115.219 321.334C118.115 321.397 121.061 321.136 123.876 321.822C126.691 322.508 129.451 324.415 130.1 327.239C130.459 328.798 130.284 330.74 131.603 331.646C132.222 332.069 133.015 332.122 133.764 332.161C136.054 332.28 138.658 332.282 140.236 330.618C142.68 328.043 141.411 322.734 144.665 321.313C145.619 320.897 146.705 320.99 147.735 320.839C153.013 320.074 155.194 313.124 153.512 308.063Z" fill="#A8946A"/>
<g id="hat">
<path id="Vector_9" d="M118.833 237.153C119.41 238.886 120.807 240.097 122.448 240.222C125.762 240.475 131.978 240.163 139.837 236.31C147.695 232.457 151.748 227.734 153.577 224.958C154.483 223.585 154.379 221.738 153.363 220.22L144.353 206.762L113.709 221.788L118.833 237.153Z" fill="#44403D"/>
<path id="Vector_10" d="M115.783 228.004L113.709 221.788L144.353 206.762L147.98 212.179L136.378 229.46L115.783 228.004Z" fill="#383533"/>
<g id="Group">
<g id="Group_2">
<path id="Vector_11" d="M104.866 226.125L122.247 200.238L153.197 202.425L135.815 228.311L104.866 226.125Z" fill="#565656"/>
</g>
</g>
<path id="Vector_12" d="M120.314 232.49C120.924 233.735 122.428 234.249 123.673 233.638C124.918 233.028 125.433 231.524 124.821 230.279C124.211 229.035 122.709 228.521 121.462 229.131C120.218 229.741 119.704 231.245 120.314 232.49Z" fill="#FCB206"/>
<path id="Vector_13" d="M125.341 238.758C125.763 238.702 126.175 238.573 126.542 238.368C127.273 237.961 126.705 237.387 126.437 236.844C126.202 236.369 125.967 235.895 125.732 235.419C125.168 234.281 124.606 233.143 124.042 232.005C123.607 231.125 123.259 230.325 122.59 229.596C122.311 229.291 122.047 229.002 121.845 228.694C121.271 227.816 121.559 226.937 122.293 225.625C122.994 224.37 123.809 223.132 124.517 222.071C126.059 219.763 127.751 217.374 129.69 214.766C129.962 214.401 129.885 213.887 129.522 213.616C129.157 213.346 128.643 213.421 128.372 213.785C126.416 216.416 124.708 218.828 123.152 221.158C122.425 222.246 121.589 223.517 120.858 224.825C120.147 226.096 119.556 227.546 120.15 228.99C120.555 229.974 121.25 230.812 121.666 231.779C121.975 232.498 122.297 233.114 122.436 233.883C122.658 235.101 122.878 236.318 123.099 237.537C123.205 238.116 123.287 238.475 123.902 238.654C124.362 238.788 124.859 238.821 125.341 238.758Z" fill="#FFDB31"/>
</g>
<g id="hand">
<rect id="Rectangle 27" x="100.931" y="239.558" width="11" height="72.3471" transform="rotate(-4.26323 100.931 239.558)" fill="#FAD4AE"/>
<path id="Vector_14" d="M105.112 222.351L109.842 222.146L112.117 227.185L117.157 228.546L115.956 237.356L107.627 247.009L103.527 244.66L100.905 239.208L101.404 230.365L105.112 222.351Z" fill="#EACDB0"/>
</g>
<path id="Vector_15" d="M93.3931 284.332C91.4328 286.013 90.0643 287.302 89.8203 287.841C89.7072 288.09 89.7367 288.448 89.888 288.898C102.347 305.546 137.28 346 137.28 346L145 314C145 314 142.955 287.585 137.28 269.715C131.461 272.268 123.512 272.606 114.213 274.112C104.455 275.693 93.3983 284.329 93.3931 284.332Z" fill="#5C5C5C"/>
</g>
<g id="RGirl">
<path id="Vector_16" d="M374.876 477.906L375.204 481.781L368.095 486.49L364.047 483.03L367.439 478.738L374.549 474.03L374.876 477.906Z" fill="#514943"/>
<path id="Vector_17" d="M376.656 359.608L377.65 371.378L366.443 411.576L375.162 476.613L367.914 478.976L349.961 415.325L347.252 396.85L348.005 357.845L376.656 359.608Z" fill="#CAB5A1"/>
<path id="Vector_18" d="M321.024 371.789L334.384 480.747L341.272 480.86L343.663 411.201L357.009 362.499L321.024 371.789Z" fill="#CAB5A1"/>
<path id="Vector_19" d="M341.247 480.001L341.182 483.906L333.67 487.688L330.009 483.72L333.798 479.877L341.247 480.001Z" fill="#514943"/>
<path id="Vector_20" d="M349.771 257.604C349.771 257.604 338.593 257.013 330.853 281.714C323.115 306.414 302.53 431.439 305.021 444.098C307.513 456.758 332.746 447.405 348.934 448.486C365.12 449.568 389.313 456.48 394.964 441.513C394.964 441.513 376.802 326.431 372.956 302.353C369.109 278.275 371.762 257.56 349.771 257.604Z" fill="#565656"/>
<path id="Vector_21" d="M347.832 229.392C342.82 230.675 338.816 235.227 338.185 240.36C335.501 237.775 334.173 233.853 334.735 230.17C335.299 226.485 337.737 223.138 341.07 221.475C344.137 223.167 346.486 226.11 347.458 229.474L347.832 229.392Z" fill="#9E6652"/>
<path id="Vector_22" d="M337.166 234.052C339.967 220.485 356.931 223.119 361.628 234.219C364.298 240.532 361.242 249.355 355.624 253.624C355.486 254.827 355.275 258.148 354.339 258.938C353.328 259.794 350.199 258.911 348.973 258.606C348.632 258.52 348.276 258.416 348.034 258.165C347.729 257.85 347.69 257.016 347.699 256.094C346.797 256.019 345.874 255.827 344.937 255.502C341.004 254.138 338.199 250.429 337.081 246.421C335.963 242.411 336.323 238.128 337.166 234.052Z" fill="#EACDB0"/>
<path id="Vector_23" d="M361.212 281.518C357.976 281.39 354.752 280.991 351.585 280.317C353.761 280.781 354.872 257.417 354.978 255.797C355.46 248.3 356.284 242.087 351.28 236.403C350.003 234.953 340.19 228.591 339.824 226.695C339.42 224.597 340.292 222.405 341.697 220.797C343.861 218.321 346.398 217.114 349.604 217.089C356.076 217.043 362.921 219.746 367.199 224.685C372.368 230.652 373.735 239.295 373.854 246.966C373.884 249.025 373.797 251.096 374.086 253.133C374.398 255.315 375.13 257.408 375.778 259.513C376.732 262.624 377.507 265.843 377.373 269.093C377.241 272.344 376.107 275.66 373.73 277.883C370.421 280.986 365.555 281.688 361.212 281.518Z" fill="#9E6652"/>
<path id="Vector_24" d="M375.135 231.981C374.714 233.672 373.476 234.93 371.925 235.17C368.789 235.657 362.855 235.821 355.092 232.738C347.33 229.656 343.124 225.464 341.178 222.959C340.214 221.719 340.175 219.954 341.029 218.435L348.603 204.963L378.869 216.984L375.135 231.981Z" fill="#44403D"/>
<path id="Vector_25" d="M377.361 223.052L378.869 216.984L348.603 204.963L345.553 210.386L357.873 225.964L377.361 223.052Z" fill="#383533"/>
<g id="Group_3">
<g id="Group_4">
<path id="Vector_26" d="M387.604 220.453L369.148 197.116L339.868 201.494L358.323 224.831L387.604 220.453Z" fill="#565656"/>
</g>
</g>
<path id="Vector_27" d="M369.062 233.991C368.658 233.968 368.256 233.875 367.894 233.709C367.165 233.376 367.662 232.785 367.879 232.251C368.067 231.782 368.256 231.313 368.446 230.843C368.896 229.719 369.348 228.595 369.796 227.47C370.147 226.601 370.421 225.813 371 225.07C371.242 224.759 371.473 224.466 371.643 224.157C372.126 223.278 371.782 222.464 370.988 221.271C370.228 220.129 369.363 219.012 368.607 218.055C366.972 215.974 365.186 213.825 363.144 211.488C362.864 211.162 362.894 210.666 363.222 210.383C363.546 210.098 364.044 210.131 364.326 210.458C366.386 212.815 368.186 214.984 369.842 217.086C370.614 218.067 371.5 219.212 372.296 220.403C373.063 221.56 373.735 222.895 373.275 224.312C372.963 225.278 372.365 226.128 372.041 227.079C371.802 227.785 371.539 228.394 371.465 229.136C371.346 230.311 371.227 231.488 371.107 232.663C371.05 233.221 370.995 233.569 370.424 233.785C369.996 233.946 369.526 234.015 369.062 233.991Z" fill="#FFDB31"/>
<path id="Vector_28" d="M373.379 227.654C372.894 228.884 371.5 229.485 370.271 228.997C369.039 228.509 368.438 227.116 368.928 225.887C369.418 224.657 370.81 224.056 372.037 224.546C373.268 225.032 373.869 226.426 373.379 227.654Z" fill="#FCB206"/>
<path id="Vector_29" d="M347.214 258.024L332.169 260.339L286.646 276.928L346.057 281.557L347.214 258.024Z" fill="#565656"/>
<path id="Vector_30" d="M312.617 264.391L325.9 267.061L329.443 292.913L308.089 296.278C308.089 296.278 281.581 273.136 282.443 273.125C283.305 273.115 295.485 261.703 295.485 261.703L312.617 264.391Z" fill="#5C5C5C"/>
<path id="Vector_31" d="M323.125 293.91L323.856 303.572L321.707 309.767L314.418 307.237L312.135 295.641L323.125 293.91Z" fill="#EACDB0"/>
<path id="Vector_32" d="M342.071 274.268L338.798 251.671C338.798 251.671 334.66 249.546 330.806 250.783C326.953 252.022 328.681 254.92 328.681 254.92L334.845 276.589L334.497 293.706C334.497 293.706 341.644 298.584 344.914 292.22L342.071 274.268Z" fill="#E0D9D1"/>
<path id="Vector_33" d="M328.517 254.571C328.517 254.571 336.516 255.327 335.27 252.272L336.379 253.244L341.903 289.467L341.011 295.391C337.848 295.992 334.497 293.706 334.497 293.706L334.845 276.589L328.681 254.92C328.681 254.92 328.603 254.789 328.517 254.571Z" fill="#C7BCAF"/>
<path id="Vector_34" d="M342.071 274.268L341.706 271.757C341.706 271.757 339.043 273.115 338.561 273.27C338.079 273.424 333.65 272.387 333.65 272.387L334.521 275.452L339.007 276.314L342.071 274.268Z" fill="#99142B"/>
<path id="Vector_35" d="M345.989 283.828L342.199 273.456L334.483 274.999L331.011 280.785L337.57 289.273L342.589 291.046L345.989 283.828Z" fill="#EACDB0"/>
<path id="Vector_36" d="M377.187 265.514L382.704 271.141L410.481 310.876L398.136 334.795H377.303L367.269 268.436L377.187 265.514Z" fill="#565656"/>
<path id="Vector_37" d="M410.481 310.877L362.258 285.415L347.214 281.557C347.214 281.557 339.113 295.831 340.27 301.232C341.427 306.633 356.087 334.795 356.087 334.795H398.136L410.481 310.877Z" fill="#5C5C5C"/>
</g>
<g id="MGirl">
<path id="Vector_38" d="M258.064 207.375C257.642 207.428 257.211 207.404 256.804 207.298C255.994 207.087 256.4 206.388 256.526 205.796C256.634 205.277 256.743 204.759 256.851 204.241C257.113 202.997 257.374 201.754 257.635 200.512C257.837 199.551 257.975 198.689 258.439 197.816C258.634 197.45 258.818 197.107 258.935 196.757C259.273 195.762 258.774 194.985 257.736 193.897C256.743 192.857 255.645 191.862 254.693 191.012C252.625 189.162 250.389 187.271 247.859 185.23C247.506 184.945 247.451 184.429 247.737 184.074C248.02 183.722 248.537 183.668 248.891 183.951C251.443 186.009 253.698 187.919 255.789 189.787C256.764 190.658 257.889 191.68 258.925 192.764C259.931 193.818 260.864 195.074 260.65 196.62C260.504 197.673 260.041 198.659 259.88 199.7C259.759 200.473 259.601 201.15 259.658 201.929C259.749 203.163 259.841 204.399 259.93 205.633C259.973 206.219 259.981 206.588 259.431 206.915C259.02 207.158 258.548 207.316 258.064 207.375Z" fill="#FFDB31"/>
<path id="Vector_39" d="M261.366 200.051C261.085 201.409 259.758 202.283 258.4 202.001C257.042 201.722 256.168 200.395 256.448 199.037C256.729 197.679 258.056 196.805 259.414 197.086C260.772 197.366 261.646 198.693 261.366 200.051Z" fill="#FCB206"/>
<path id="Vector_40" d="M214.602 268.44L211.805 265.354L204.089 266.126L202.932 273.07L208.718 273.455L212.576 268.44H214.602Z" fill="#EACDB0"/>
<path id="Vector_41" d="M259.646 324.124L269.188 346.129L270.088 408.038L289.71 474.632L280.586 478.676L240.547 401.353L235.99 376.863L234.179 325.283L259.646 324.124Z" fill="#CAB5A1"/>
<path id="Vector_42" d="M213.446 329.055L212.695 393.937L224.923 477.591H234.323L240.262 400.402L253.126 323.214L213.446 329.055Z" fill="#CAB5A1"/>
<path id="Vector_43" d="M234.269 476.473V481.556L224.103 486.641L219.02 481.556L224.103 476.473H234.269Z" fill="#3A3029"/>
<path id="Vector_44" d="M292.047 196.299L297.834 182.025L294.748 170.066L301.692 165.437L309.793 173.538L305.936 180.868L302.078 203.629L292.047 196.299Z" fill="#EACDB0"/>
<path id="Vector_45" d="M291.276 262.268L312.058 261.492C312.527 258.261 312.997 255.032 313.458 251.801C314.783 242.535 315.157 231.903 313.859 222.531C313.562 220.379 313.134 218.251 312.551 216.163C310.45 208.646 308.526 197.91 303.042 192.005C298.027 186.604 292.953 188.258 292.953 188.258L291.949 191.174L277.388 224.076L248.454 241.05C248.454 241.05 262.472 261.272 265.814 267.669L291.276 262.268Z" fill="#565656"/>
<path id="Vector_46" d="M232.911 241.93L221.835 249.152L204.217 270.003L221.064 271.527L232.911 241.93Z" fill="#565656"/>
<path id="Vector_47" d="M289.553 476.336L290.632 481.286L282.08 488.336L276.187 484.436L279.922 478.435L288.474 471.386L289.553 476.336Z" fill="#3A3029"/>
<path id="Vector_48" d="M239.581 240.311C239.581 240.311 219.52 233.488 207.561 308.938C195.602 384.39 197.531 444.59 207.561 449.407C217.592 454.221 238.4 445.794 259.244 447.8C280.088 449.807 298.991 442.182 298.991 442.181C298.991 423.402 293.805 404.166 291.197 385.615C287.148 356.814 284.609 327.664 278.794 299.163C275.117 281.147 269.8 242.667 247.119 239.618C244.592 239.279 242.021 239.576 239.581 240.311Z" fill="#565656"/>
<path id="Vector_49" d="M240.909 243.752C243.825 243.467 246.74 243.181 249.658 242.896C249.69 240.56 249.533 238.22 249.192 235.908C251.625 235.057 254.435 233.779 254.861 231.238C254.996 230.438 254.858 229.62 254.721 228.821C254.155 225.515 253.588 222.208 253.021 218.902C252.826 217.758 252.616 216.581 251.997 215.6C250.907 213.881 248.791 213.126 246.786 212.775C241.668 211.88 236.089 212.981 232.115 216.328C231.059 217.219 230.102 218.29 229.635 219.591C228.913 221.598 229.448 223.812 229.986 225.875C230.483 227.78 230.981 229.683 231.478 231.588C232.049 233.777 232.876 236.267 234.985 237.09C236.103 237.527 237.426 237.402 238.439 238.048C240.226 239.189 239.98 241.846 240.909 243.752Z" fill="#EACDB0"/>
<path id="Vector_50" d="M212.418 210.707C212.361 208.441 212.679 206.147 213.132 204.08C213.91 200.529 218.101 198.932 221.728 198.68C229.561 198.138 237.121 194.586 244.771 197.327C249.144 198.894 255.018 199.27 258.974 201.479C260.627 202.401 261.944 203.842 262.97 205.431C266.527 210.939 266.536 218.528 262.994 224.047C262.199 225.286 261.249 226.416 260.25 227.496C258.183 229.731 255.71 232.493 252.871 233.319C252.806 230.779 255.131 222.772 253.183 220.688C250.092 217.38 243.09 218.524 239.249 219.332C235.058 220.213 231.321 223.174 227.166 223.803C224.178 224.255 220.366 222.784 217.826 221.236C213.848 218.81 212.52 214.802 212.418 210.707Z" fill="#3A3029"/>
<path id="Vector_51" d="M263.965 204.196C263.838 206.017 262.788 207.541 261.231 208.071C258.085 209.144 251.989 210.395 243.416 208.627C234.845 206.858 229.741 203.297 227.277 201.067C226.056 199.964 225.694 198.15 226.299 196.426L231.662 181.144L265.088 188.038L263.965 204.196Z" fill="#44403D"/>
<g id="Group_5">
<path id="Vector_52" d="M264.634 194.575L265.088 188.038L231.662 181.144L229.502 187.295L245.054 201.129L264.634 194.575Z" fill="#383533"/>
<g id="Group_6">
<path id="Vector_53" d="M274.734 190.028L251.438 169.305L222.016 179.153L245.312 199.876L274.734 190.028Z" fill="#565656"/>
</g>
</g>
<path id="Vector_54" d="M293.979 175.354L274.565 160.214C274.565 160.214 274.785 155.203 278.002 152.255C281.221 149.308 283.013 152.475 283.013 152.475L300.014 169.827L316.231 178.648C316.231 178.648 316.981 187.949 309.273 187.61L293.979 175.354Z" fill="#E0D9D1"/>
<path id="Vector_55" d="M282.773 152.135C282.773 152.135 279.206 160.031 277.012 157.231L277.33 158.791L308.304 183.32L314.329 185.65C316.582 183.009 316.231 178.648 316.231 178.648L300.014 169.826L283.013 152.475C283.013 152.475 282.932 152.331 282.773 152.135Z" fill="#C7BCAF"/>
<path id="Vector_56" d="M293.979 175.354L291.823 173.672C291.823 173.672 294.517 171.903 294.92 171.533C295.322 171.166 296.717 166.461 296.717 166.461L299.122 168.916L297.533 173.578L293.979 175.354Z" fill="#99142B"/>
<path id="Vector_57" d="M301.692 165.437L298.027 167.655L298.991 172.381L306.321 177.01L309.793 173.538L301.692 165.437Z" fill="#EACDB0"/>
</g>
<g id="certification">
<path id="Vector_58" d="M357.355 456.715L130.684 438.079L145.086 262.923L371.755 281.56L357.355 456.715Z" fill="#FFF7ED"/>
<path id="Vector_59" d="M155.719 275.364L358.717 292.053L346.203 444.243L143.206 427.551L155.719 275.364ZM152.896 272.035L139.877 430.376L349.027 447.571L362.046 289.231L152.896 272.035Z" fill="#BFB286"/>
<path id="Vector_60" d="M159.075 278.822L147.096 424.509L342.993 440.615L354.97 294.93L159.075 278.822ZM354.138 295.635L342.286 439.783L147.929 423.802L159.78 279.655L354.138 295.635Z" fill="#BFB286"/>
<path id="Vector_61" d="M201.061 401.657L204.155 399.392L201.474 396.653L203.875 393.663L200.576 391.71L202.122 388.202L198.429 387.171L199.015 383.381L195.181 383.34L194.767 379.528L191.052 380.481L189.664 376.907L186.323 378.788L184.058 375.695L181.319 378.376L178.33 375.974L176.377 379.274L172.869 377.728L171.837 381.42L168.048 380.836L168.006 384.669L164.195 385.084L165.147 388.797L161.573 390.185L163.455 393.526L160.361 395.791L163.044 398.532L160.642 401.52L163.942 403.472L162.394 406.981L166.088 408.012L165.502 411.802L169.335 411.843L169.751 415.655L173.464 414.703L174.852 418.276L178.193 416.395L180.458 419.489L183.198 416.807L186.186 419.209L188.139 415.909L191.647 417.455L192.68 413.763L196.47 414.349L196.51 410.514L200.321 410.099L199.369 406.385L202.944 404.998L201.061 401.657Z" fill="#BFA754"/>
<path id="Vector_62" d="M181.201 410.456L178.695 411.522L179.375 408.886L177.587 406.832L180.304 406.663L181.704 404.329L182.705 406.861L185.357 407.471L183.26 409.206L183.498 411.917L181.201 410.456Z" fill="#FFF7ED"/>
<path id="Vector_63" d="M171.055 404.959L168.549 406.024L169.227 403.389L167.441 401.335L170.157 401.164L171.558 398.832L172.559 401.363L175.211 401.974L173.114 403.708L173.352 406.419L171.055 404.959Z" fill="#FFF7ED"/>
<path id="Vector_64" d="M192.109 406.69L189.604 407.754L190.282 405.119L188.495 403.066L191.212 402.896L192.614 400.563L193.614 403.093L196.267 403.705L194.167 405.438L194.407 408.149L192.109 406.69Z" fill="#FFF7ED"/>
<path id="Vector_65" d="M305.039 354.458L198.614 345.709L198.709 344.554L305.134 353.305L305.039 354.458Z" fill="#DBD0A9"/>
<path id="Vector_66" d="M303.122 377.768L196.697 369.018L196.792 367.864L303.217 376.615L303.122 377.768Z" fill="#DBD0A9"/>
<path id="Vector_67" d="M338.362 364.31L164.127 349.983L164.222 348.831L338.457 363.156L338.362 364.31Z" fill="#DBD0A9"/>
<path id="Vector_68" d="M290.994 409.956L209.998 403.297L210.092 402.144L291.089 408.803L290.994 409.956Z" fill="#DBD0A9"/>
<path id="Vector_69" d="M290.373 417.491L209.378 410.832L209.473 409.679L290.468 416.338L290.373 417.491Z" fill="#DBD0A9"/>
<path id="Vector_70" d="M289.755 425.025L208.759 418.366L208.854 417.213L289.849 423.873L289.755 425.025Z" fill="#DBD0A9"/>
<path id="Vector_71" d="M337.743 371.844L163.508 357.519L163.603 356.364L337.837 370.691L337.743 371.844Z" fill="#DBD0A9"/>
<path id="Vector_72" d="M158.974 264.085C159.15 264.284 168.84 257.17 168.84 257.17L193.989 261.971L198.572 267.384L179.328 265.784L158.974 264.085Z" fill="#565656"/>
<path id="Vector_73" d="M182.808 266.087L187.586 263.374L194.384 265.876L196.938 273.056L191.656 273.391L187.062 266.524L182.808 266.087Z" fill="#EACDB0"/>
<path id="Vector_74" d="M213.333 310.912C213.272 310.719 213.173 310.617 213.037 310.605C212.866 310.59 212.575 310.676 212.168 310.86C211.223 311.304 210.35 311.493 209.552 311.425C208.358 311.322 207.365 311.015 206.574 310.502C205.783 309.989 205.21 309.295 204.859 308.423C204.509 307.55 204.383 306.527 204.484 305.355C204.582 304.196 204.907 303.197 205.462 302.353C206.013 301.512 206.737 300.885 207.63 300.472C208.524 300.059 209.514 299.898 210.602 299.99C211.24 300.046 211.772 300.178 212.199 300.391C212.626 300.602 213.039 300.888 213.437 301.248C213.554 301.355 213.654 301.412 213.735 301.418C213.841 301.429 213.931 301.363 214.005 301.221C214.077 301.079 214.145 300.844 214.208 300.519L214.565 300.549C214.464 301.25 214.338 302.502 214.184 304.307L213.821 304.276C213.804 303.572 213.734 302.995 213.608 302.543C213.483 302.092 213.247 301.699 212.899 301.363C212.671 301.105 212.382 300.893 212.029 300.727C211.677 300.563 211.31 300.465 210.931 300.431C210.207 300.37 209.585 300.566 209.062 301.018C208.541 301.47 208.129 302.091 207.831 302.88C207.531 303.67 207.341 304.542 207.26 305.498C206.954 309.084 207.796 310.962 209.784 311.131C210.234 311.169 210.608 311.096 210.91 310.914C211.054 310.834 211.158 310.733 211.226 310.611C211.292 310.489 211.333 310.331 211.35 310.133L211.479 308.616C211.521 308.13 211.511 307.772 211.449 307.54C211.387 307.308 211.255 307.14 211.053 307.039C210.849 306.938 210.519 306.859 210.06 306.798L210.087 306.488C210.68 306.574 211.564 306.667 212.737 306.767C213.693 306.848 214.388 306.889 214.82 306.89L214.794 307.202C214.579 307.204 214.424 307.232 214.329 307.288C214.231 307.344 214.159 307.457 214.109 307.629C214.058 307.8 214.015 308.084 213.982 308.477L213.72 311.557L213.41 311.53C213.417 311.313 213.391 311.107 213.333 310.912Z" fill="#9E8A46"/>
<path id="Vector_75" d="M221.467 306.31C221.812 306.116 222.062 305.837 222.219 305.472C222.374 305.109 222.474 304.665 222.519 304.139C222.591 303.289 222.496 302.635 222.233 302.174C221.967 301.713 221.494 301.453 220.812 301.395C220.534 301.371 220.325 301.39 220.185 301.452C220.043 301.514 219.942 301.636 219.879 301.817C219.816 301.996 219.767 302.275 219.736 302.648L219.41 306.472L220.078 306.529C220.659 306.577 221.122 306.505 221.467 306.31ZM224.927 312.519C224.594 312.634 224.202 312.671 223.753 312.634C223.156 312.582 222.694 312.415 222.367 312.133C222.038 311.85 221.848 311.396 221.794 310.769L221.645 309.198C221.597 308.691 221.536 308.278 221.464 307.963C221.392 307.65 221.27 307.395 221.101 307.201C220.932 307.005 220.696 306.895 220.393 306.868L219.383 306.782L219.079 310.355C219.047 310.744 219.05 311.03 219.091 311.212C219.131 311.395 219.226 311.524 219.377 311.604C219.529 311.683 219.778 311.744 220.126 311.79L220.1 312.1C219.55 312.023 218.771 311.942 217.76 311.854C216.652 311.761 215.834 311.707 215.305 311.692L215.332 311.381C215.677 311.395 215.931 311.377 216.093 311.324C216.255 311.271 216.374 311.158 216.447 310.986C216.52 310.815 216.573 310.534 216.606 310.146L217.263 302.437C217.296 302.049 217.29 301.762 217.248 301.58C217.204 301.399 217.108 301.268 216.955 301.19C216.805 301.11 216.557 301.048 216.215 301.004L216.241 300.692C216.765 300.768 217.549 300.851 218.596 300.94C219.012 300.974 219.472 301.009 219.978 301.042C220.485 301.075 220.837 301.099 221.035 301.116C222.46 301.238 223.515 301.563 224.199 302.092C224.882 302.621 225.186 303.319 225.112 304.183C225.073 304.644 224.927 305.072 224.675 305.468C224.422 305.864 224.023 306.193 223.476 306.455C222.929 306.717 222.224 306.862 221.36 306.889L221.375 306.892C221.998 307.001 222.504 307.15 222.893 307.341C223.282 307.532 223.577 307.778 223.782 308.076C223.984 308.378 224.113 308.749 224.168 309.192L224.388 310.822C224.439 311.25 224.511 311.549 224.606 311.72C224.701 311.891 224.847 311.984 225.045 312.001C225.165 312.007 225.275 311.986 225.37 311.937C225.465 311.891 225.575 311.809 225.696 311.698L225.893 311.906C225.583 312.201 225.26 312.404 224.927 312.519Z" fill="#9E8A46"/>
<path id="Vector_76" d="M230.336 304.238L228.369 308.297L231.519 308.565L230.336 304.238ZM235.532 312.852C235.69 313.021 235.854 313.119 236.026 313.143L235.999 313.453C235.379 313.371 234.594 313.288 233.645 313.208C232.583 313.117 231.794 313.065 231.282 313.053L231.308 312.741C231.698 312.759 231.981 312.735 232.159 312.668C232.334 312.602 232.432 312.468 232.448 312.266C232.462 312.108 232.42 311.858 232.322 311.512L231.606 308.886L228.223 308.597L227.721 309.632C227.376 310.336 227.186 310.901 227.15 311.326C227.117 311.71 227.207 311.987 227.423 312.159C227.637 312.329 227.974 312.442 228.432 312.497L228.407 312.807C227.711 312.717 227.07 312.647 226.484 312.598C226.008 312.557 225.613 312.539 225.296 312.542L225.322 312.231C225.845 312.189 226.336 311.684 226.796 310.714L231.112 301.928C231.278 301.958 231.457 301.981 231.65 301.996C231.852 302.014 232.031 302.022 232.189 302.02L235.132 312.066C235.239 312.421 235.372 312.683 235.532 312.852Z" fill="#9E8A46"/>
<path id="Vector_77" d="M239.896 313.003C239.941 313.192 240.041 313.33 240.197 313.417C240.353 313.504 240.595 313.562 240.924 313.59C241.778 313.663 242.477 313.519 243.02 313.161C243.562 312.802 243.975 312.246 244.262 311.494C244.548 310.741 244.739 309.778 244.839 308.605C244.94 307.427 244.905 306.449 244.733 305.674C244.563 304.898 244.239 304.301 243.76 303.882C243.281 303.465 242.627 303.221 241.796 303.15C241.472 303.123 241.228 303.14 241.064 303.2C240.898 303.259 240.776 303.379 240.699 303.561C240.624 303.744 240.57 304.018 240.538 304.389L239.876 312.156C239.845 312.531 239.851 312.813 239.896 313.003ZM238.912 302.675L239.397 302.71C240.856 302.803 241.67 302.856 241.835 302.871C243.859 303.043 245.333 303.629 246.258 304.631C247.185 305.632 247.574 307.009 247.425 308.763C247.328 309.891 246.998 310.858 246.436 311.663C245.874 312.469 245.107 313.064 244.138 313.447C243.168 313.83 242.042 313.969 240.764 313.859C240.612 313.845 240.256 313.809 239.7 313.746C239.142 313.682 238.742 313.64 238.499 313.62C237.432 313.53 236.633 313.477 236.106 313.462L236.132 313.15C236.477 313.165 236.731 313.146 236.894 313.094C237.055 313.042 237.173 312.929 237.247 312.757C237.321 312.585 237.373 312.305 237.406 311.915L238.062 304.208C238.095 303.818 238.091 303.533 238.047 303.35C238.005 303.168 237.907 303.039 237.756 302.96C237.604 302.88 237.358 302.819 237.016 302.773L237.042 302.463C237.7 302.555 238.324 302.626 238.912 302.675Z" fill="#9E8A46"/>
<path id="Vector_78" d="M258.085 304.83C257.914 304.946 257.789 305.135 257.71 305.394C257.628 305.656 257.565 306.051 257.52 306.581L257.17 310.701C257.043 312.183 256.738 313.263 256.251 313.938C255.93 314.375 255.494 314.698 254.947 314.906C254.399 315.114 253.742 315.185 252.973 315.12C251.78 315.017 250.868 314.678 250.24 314.1C249.934 313.809 249.709 313.482 249.563 313.119C249.418 312.754 249.335 312.335 249.311 311.863C249.287 311.389 249.307 310.796 249.367 310.082L249.781 305.206C249.816 304.815 249.81 304.53 249.768 304.348C249.724 304.166 249.626 304.036 249.472 303.956C249.319 303.876 249.07 303.815 248.728 303.771L248.754 303.459C249.283 303.536 250.087 303.619 251.169 303.712C252.242 303.803 253.068 303.857 253.647 303.876L253.62 304.187C253.244 304.17 252.97 304.187 252.795 304.24C252.619 304.291 252.492 304.402 252.414 304.574C252.336 304.746 252.281 305.026 252.248 305.415L251.749 311.271C251.688 311.999 251.701 312.599 251.795 313.067C251.887 313.536 252.08 313.901 252.37 314.163C252.661 314.425 253.08 314.579 253.626 314.626C254.658 314.713 255.417 314.425 255.904 313.764C256.391 313.102 256.688 312.13 256.798 310.846L257.147 306.741C257.199 306.14 257.2 305.691 257.15 305.394C257.102 305.097 256.98 304.874 256.784 304.725C256.588 304.574 256.269 304.458 255.827 304.375L255.854 304.065C256.242 304.128 256.799 304.19 257.527 304.253C258.103 304.301 258.555 304.325 258.88 304.321L258.855 304.633C258.511 304.649 258.255 304.716 258.085 304.83Z" fill="#9E8A46"/>
<path id="Vector_79" d="M262.536 306.978L260.571 311.036L263.719 311.305L262.536 306.978ZM267.732 315.593C267.892 315.762 268.056 315.859 268.227 315.883L268.201 316.195C267.582 316.11 266.797 316.029 265.846 315.948C264.783 315.857 263.997 315.806 263.483 315.792L263.51 315.482C263.9 315.5 264.183 315.476 264.36 315.41C264.536 315.342 264.633 315.209 264.651 315.006C264.663 314.849 264.62 314.599 264.523 314.254L263.807 311.626L260.424 311.338L259.923 312.373C259.578 313.077 259.387 313.64 259.351 314.067C259.317 314.451 259.409 314.727 259.623 314.899C259.839 315.071 260.175 315.182 260.635 315.238L260.607 315.548C259.913 315.458 259.272 315.388 258.685 315.339C258.21 315.298 257.814 315.28 257.497 315.283L257.524 314.973C258.047 314.93 258.538 314.424 258.998 313.455L263.314 304.668C263.48 304.698 263.658 304.721 263.85 304.737C264.052 304.755 264.233 304.763 264.391 304.76L267.333 314.807C267.44 315.162 267.574 315.425 267.732 315.593Z" fill="#9E8A46"/>
<path id="Vector_80" d="M268.245 307.778C268.305 307.07 268.341 306.187 268.357 305.129C269.298 305.239 270.899 305.391 273.153 305.583C275.409 305.774 277.006 305.896 277.944 305.944C277.78 306.99 277.667 307.867 277.606 308.574C277.569 309.02 277.552 309.416 277.558 309.763L277.202 309.733C277.104 308.853 276.952 308.152 276.747 307.627C276.542 307.103 276.276 306.716 275.949 306.466C275.62 306.217 275.209 306.071 274.713 306.029L274.356 305.998L273.601 314.873C273.565 315.304 273.583 315.62 273.653 315.825C273.726 316.03 273.871 316.178 274.089 316.267C274.309 316.357 274.659 316.425 275.138 316.472L275.112 316.782C273.81 316.641 272.828 316.543 272.165 316.485C271.512 316.43 270.563 316.365 269.316 316.289L269.342 315.978C269.829 316.014 270.187 316.008 270.418 315.955C270.649 315.904 270.816 315.783 270.918 315.593C271.022 315.403 271.092 315.093 271.128 314.663L271.883 305.787L271.542 305.759C271.042 305.715 270.608 305.789 270.243 305.977C269.879 306.164 269.55 306.5 269.261 306.981C268.97 307.463 268.699 308.132 268.448 308.987L268.091 308.957C268.156 308.616 268.207 308.223 268.245 307.778Z" fill="#9E8A46"/>
<path id="Vector_81" d="M282.876 306.8C282.714 306.851 282.597 306.964 282.526 307.136C282.455 307.309 282.404 307.59 282.371 307.98L281.715 315.687C281.681 316.075 281.685 316.362 281.726 316.543C281.767 316.725 281.862 316.854 282.014 316.934C282.164 317.013 282.415 317.074 282.761 317.12L282.736 317.432C282.187 317.353 281.406 317.272 280.395 317.186C279.288 317.091 278.469 317.038 277.94 317.023L277.968 316.711C278.313 316.726 278.567 316.707 278.729 316.656C278.891 316.603 279.009 316.49 279.083 316.318C279.155 316.146 279.209 315.866 279.242 315.476L279.898 307.769C279.931 307.379 279.927 307.094 279.883 306.912C279.839 306.729 279.743 306.6 279.592 306.52C279.44 306.441 279.193 306.38 278.851 306.334L278.876 306.024C279.395 306.098 280.211 306.184 281.324 306.277C282.335 306.364 283.117 306.416 283.671 306.432L283.644 306.743C283.295 306.728 283.038 306.747 282.876 306.8Z" fill="#9E8A46"/>
<path id="Vector_82" d="M288.603 307.612C288.131 308.039 287.742 308.654 287.436 309.461C287.132 310.268 286.933 311.205 286.842 312.272C286.751 313.349 286.802 314.308 286.995 315.15C287.188 315.991 287.49 316.654 287.903 317.138C288.315 317.622 288.797 317.887 289.347 317.934C289.92 317.982 290.441 317.793 290.913 317.367C291.384 316.942 291.773 316.324 292.079 315.518C292.384 314.712 292.582 313.774 292.673 312.707C292.765 311.634 292.714 310.676 292.521 309.832C292.328 308.988 292.023 308.325 291.609 307.841C291.195 307.358 290.714 307.092 290.168 307.046C289.597 306.998 289.074 307.186 288.603 307.612ZM293.074 307.683C293.863 308.199 294.45 308.899 294.832 309.785C295.215 310.671 295.357 311.698 295.257 312.866C295.161 314.008 294.84 314.999 294.297 315.84C293.755 316.681 293.045 317.308 292.171 317.723C291.294 318.137 290.325 318.298 289.264 318.208C288.166 318.116 287.222 317.81 286.434 317.296C285.646 316.779 285.06 316.078 284.68 315.194C284.299 314.308 284.159 313.282 284.258 312.114C284.356 310.97 284.674 309.978 285.213 309.137C285.754 308.298 286.463 307.671 287.338 307.255C288.214 306.841 289.184 306.68 290.253 306.77C291.345 306.863 292.286 307.168 293.074 307.683Z" fill="#9E8A46"/>
<path id="Vector_83" d="M306.232 308.928C306.062 309.046 305.936 309.233 305.856 309.493C305.774 309.754 305.712 310.149 305.666 310.681L304.929 319.352C304.854 319.34 304.727 319.326 304.551 319.311C304.368 319.296 304.228 319.285 304.132 319.282L298.116 310.168L297.608 316.13C297.555 316.742 297.551 317.194 297.591 317.485C297.634 317.777 297.751 317.996 297.944 318.145C298.138 318.294 298.466 318.411 298.927 318.496L298.901 318.808C298.503 318.743 297.946 318.68 297.228 318.619C296.656 318.57 296.205 318.547 295.874 318.55L295.901 318.238C296.243 318.222 296.499 318.155 296.669 318.041C296.841 317.925 296.966 317.736 297.046 317.477C297.127 317.216 297.191 316.82 297.236 316.288L297.831 309.296C297.864 308.906 297.858 308.619 297.816 308.438C297.772 308.256 297.676 308.125 297.524 308.047C297.373 307.968 297.126 307.905 296.784 307.861L296.809 307.551C297.136 307.608 297.585 307.662 298.157 307.712C298.676 307.754 299.124 307.778 299.496 307.778L304.881 315.702L305.294 310.839C305.346 310.227 305.352 309.777 305.31 309.484C305.268 309.193 305.15 308.973 304.957 308.824C304.765 308.676 304.436 308.557 303.975 308.473L304.001 308.163C304.398 308.227 304.956 308.291 305.673 308.351C306.25 308.399 306.703 308.423 307.028 308.42L307.002 308.731C306.659 308.747 306.403 308.814 306.232 308.928Z" fill="#9E8A46"/>
<path id="Vector_84" d="M211.431 329.433C211.386 329.284 211.306 329.206 211.196 329.195C211.114 329.189 211.004 329.224 210.866 329.298C210.545 329.485 210.246 329.637 209.975 329.756C209.702 329.876 209.393 329.965 209.05 330.026C208.706 330.086 208.325 330.096 207.905 330.062C206.808 329.968 205.864 329.664 205.075 329.149C204.286 328.633 203.702 327.932 203.32 327.046C202.941 326.162 202.799 325.136 202.898 323.966C202.996 322.824 203.316 321.832 203.855 320.991C204.396 320.151 205.103 319.524 205.979 319.109C206.854 318.695 207.826 318.534 208.893 318.624C209.511 318.677 210.029 318.809 210.453 319.025C210.875 319.239 211.28 319.522 211.667 319.876C211.776 319.977 211.872 320.031 211.96 320.039C212.171 320.057 212.329 319.759 212.432 319.147L212.789 319.177C212.688 319.876 212.563 321.129 212.407 322.935L212.052 322.904C212.031 322.378 211.994 321.948 211.943 321.615C211.894 321.282 211.803 320.985 211.675 320.725C211.547 320.464 211.363 320.22 211.123 319.991C210.887 319.721 210.601 319.507 210.268 319.349C209.934 319.191 209.583 319.096 209.216 319.064C208.501 319.002 207.894 319.198 207.392 319.65C206.89 320.101 206.5 320.72 206.218 321.507C205.938 322.292 205.756 323.17 205.673 324.141C205.59 325.113 205.626 326.01 205.78 326.832C205.935 327.655 206.227 328.329 206.66 328.852C207.091 329.375 207.66 329.667 208.369 329.727C208.727 329.757 209.085 329.723 209.44 329.62C209.794 329.516 210.102 329.352 210.361 329.124C210.641 328.945 210.867 328.728 211.039 328.475C211.211 328.223 211.348 327.925 211.45 327.583C211.554 327.239 211.66 326.789 211.768 326.227L212.126 326.257C211.966 328.133 211.875 329.439 211.853 330.176L211.496 330.146C211.499 329.821 211.476 329.583 211.431 329.433Z" fill="#9E8A46"/>
<path id="Vector_85" d="M221.968 328.66C221.886 329.611 221.856 330.401 221.874 331.029C221.173 330.939 219.989 330.823 218.319 330.681C216.063 330.49 214.377 330.36 213.256 330.295L213.283 329.985C213.628 329.998 213.881 329.98 214.044 329.928C214.205 329.875 214.324 329.762 214.397 329.59C214.47 329.418 214.523 329.138 214.556 328.748L215.213 321.041C215.245 320.652 215.241 320.366 215.198 320.183C215.155 320.003 215.058 319.872 214.906 319.792C214.755 319.713 214.508 319.652 214.166 319.608L214.192 319.296C215.307 319.421 216.992 319.581 219.248 319.772C220.77 319.902 221.853 319.979 222.498 320.003C222.355 320.851 222.254 321.615 222.197 322.293C222.157 322.753 222.142 323.105 222.153 323.351L221.796 323.321C221.754 322.558 221.642 321.95 221.461 321.496C221.282 321.044 221.033 320.708 220.715 320.494C220.397 320.278 219.992 320.149 219.502 320.108L218.865 320.052C218.541 320.025 218.306 320.031 218.156 320.073C218.007 320.114 217.902 320.206 217.839 320.352C217.775 320.497 217.73 320.737 217.701 321.07L217.374 324.915L217.867 324.958C218.423 325.004 218.86 324.838 219.178 324.457C219.495 324.077 219.734 323.613 219.893 323.066L220.248 323.098C220.17 323.606 220.111 324.091 220.07 324.557L220.016 325.301C219.971 325.827 219.938 326.565 219.918 327.516L219.562 327.486C219.471 326.097 218.898 325.358 217.842 325.269L217.347 325.227L217.014 329.141C216.987 329.475 216.99 329.718 217.029 329.872C217.067 330.025 217.154 330.135 217.295 330.2C217.435 330.265 217.665 330.312 217.989 330.339L218.756 330.404C219.484 330.465 220.096 330.265 220.592 329.796C221.088 329.329 221.479 328.506 221.769 327.33L222.124 327.361C222.066 327.696 222.013 328.13 221.968 328.66Z" fill="#9E8A46"/>
<path id="Vector_86" d="M229.264 325.752C229.61 325.557 229.86 325.277 230.015 324.914C230.172 324.551 230.271 324.106 230.316 323.58C230.389 322.73 230.292 322.075 230.03 321.615C229.765 321.154 229.292 320.895 228.609 320.836C228.332 320.813 228.122 320.833 227.982 320.895C227.84 320.957 227.739 321.077 227.676 321.258C227.611 321.439 227.565 321.716 227.533 322.09L227.207 325.913L227.874 325.969C228.457 326.02 228.919 325.946 229.264 325.752ZM232.724 331.96C232.391 332.073 232 332.113 231.551 332.073C230.954 332.024 230.491 331.856 230.164 331.575C229.836 331.291 229.646 330.838 229.592 330.211L229.442 328.639C229.394 328.131 229.334 327.72 229.261 327.405C229.189 327.091 229.067 326.837 228.898 326.641C228.73 326.446 228.493 326.335 228.189 326.309L227.18 326.223L226.876 329.796C226.843 330.187 226.847 330.472 226.888 330.654C226.927 330.835 227.024 330.966 227.174 331.044C227.325 331.124 227.575 331.186 227.923 331.231L227.896 331.541C227.348 331.465 226.567 331.383 225.556 331.297C224.448 331.202 223.631 331.148 223.103 331.133L223.13 330.823C223.475 330.836 223.728 330.817 223.891 330.765C224.052 330.713 224.171 330.601 224.243 330.428C224.317 330.256 224.37 329.976 224.403 329.587L225.059 321.879C225.092 321.49 225.087 321.204 225.045 321.023C225.001 320.841 224.905 320.709 224.753 320.631C224.602 320.551 224.355 320.489 224.013 320.446L224.038 320.134C224.563 320.209 225.346 320.292 226.394 320.381C226.808 320.416 227.269 320.45 227.776 320.483C228.282 320.517 228.635 320.541 228.832 320.557C230.258 320.679 231.312 321.005 231.995 321.534C232.679 322.063 232.984 322.76 232.91 323.625C232.871 324.085 232.724 324.513 232.473 324.909C232.22 325.306 231.82 325.636 231.273 325.896C230.726 326.157 230.021 326.303 229.158 326.332H229.173C229.795 326.442 230.301 326.591 230.69 326.782C231.079 326.974 231.374 327.218 231.578 327.519C231.781 327.819 231.911 328.19 231.965 328.633L232.185 330.264C232.235 330.692 232.309 330.99 232.403 331.162C232.498 331.332 232.645 331.427 232.841 331.444C232.963 331.448 233.071 331.427 233.168 331.379C233.262 331.331 233.372 331.251 233.493 331.139L233.689 331.347C233.379 331.641 233.058 331.846 232.724 331.96Z" fill="#9E8A46"/>
<path id="Vector_87" d="M234.487 323.682C234.547 322.974 234.584 322.091 234.597 321.032C235.541 321.143 237.139 321.295 239.395 321.487C241.651 321.68 243.249 321.799 244.186 321.849C244.02 322.894 243.907 323.771 243.847 324.48C243.809 324.924 243.794 325.321 243.8 325.667L243.445 325.637C243.345 324.757 243.193 324.055 242.989 323.532C242.783 323.007 242.518 322.62 242.191 322.37C241.862 322.121 241.451 321.975 240.955 321.933L240.599 321.903L239.843 330.779C239.807 331.208 239.825 331.525 239.896 331.73C239.967 331.935 240.113 332.082 240.331 332.171C240.551 332.262 240.899 332.329 241.38 332.376L241.354 332.687C240.052 332.545 239.07 332.447 238.407 332.391C237.754 332.335 236.805 332.269 235.559 332.194L235.584 331.882C236.071 331.918 236.43 331.91 236.66 331.859C236.891 331.808 237.058 331.687 237.161 331.496C237.263 331.308 237.332 330.997 237.37 330.568L238.125 321.692L237.784 321.663C237.283 321.621 236.85 321.693 236.485 321.882C236.121 322.069 235.794 322.405 235.501 322.887C235.212 323.369 234.941 324.037 234.689 324.891L234.333 324.861C234.398 324.52 234.45 324.127 234.487 323.682Z" fill="#9E8A46"/>
<path id="Vector_88" d="M249.118 322.705C248.956 322.758 248.84 322.869 248.769 323.041C248.698 323.214 248.645 323.494 248.612 323.885L247.957 331.591C247.923 331.98 247.928 332.266 247.967 332.447C248.008 332.63 248.104 332.761 248.255 332.839C248.407 332.919 248.656 332.981 249.004 333.024L248.977 333.336C248.428 333.26 247.649 333.178 246.638 333.092C245.529 332.997 244.712 332.942 244.183 332.928L244.209 332.616C244.555 332.631 244.808 332.612 244.971 332.559C245.132 332.508 245.252 332.395 245.324 332.223C245.398 332.051 245.45 331.769 245.484 331.38L246.139 323.674C246.172 323.283 246.168 322.999 246.126 322.816C246.082 322.634 245.984 322.504 245.833 322.425C245.683 322.346 245.435 322.284 245.093 322.239L245.119 321.929C245.637 322.004 246.453 322.088 247.565 322.183C248.577 322.269 249.36 322.319 249.914 322.336L249.887 322.648C249.537 322.632 249.28 322.652 249.118 322.705Z" fill="#9E8A46"/>
<path id="Vector_89" d="M256.016 322.902C257.538 323.032 258.621 323.108 259.266 323.133C259.12 324.011 259.017 324.795 258.96 325.482C258.918 325.973 258.9 326.369 258.904 326.669L258.549 326.639C258.479 325.835 258.348 325.19 258.155 324.704C257.963 324.219 257.703 323.862 257.379 323.633C257.055 323.404 256.644 323.268 256.15 323.226L255.633 323.182C255.309 323.155 255.074 323.161 254.925 323.202C254.777 323.243 254.67 323.336 254.607 323.481C254.543 323.625 254.498 323.865 254.469 324.199L254.136 328.113L254.682 328.16C255.233 328.206 255.667 328.038 255.985 327.655C256.303 327.272 256.542 326.808 256.701 326.261L257.057 326.291C256.979 326.799 256.92 327.286 256.879 327.751L256.823 328.494C256.778 329.035 256.748 329.774 256.734 330.711L256.371 330.679C256.275 329.296 255.702 328.559 254.656 328.47L254.109 328.423L253.805 331.996C253.77 332.411 253.787 332.717 253.858 332.914C253.927 333.112 254.072 333.253 254.292 333.338C254.51 333.422 254.863 333.488 255.348 333.534L255.319 333.876C254.048 333.737 253.101 333.641 252.479 333.588C252.179 333.564 251.362 333.508 250.024 333.425L250.051 333.113C250.396 333.128 250.649 333.109 250.812 333.056C250.973 333.003 251.092 332.892 251.165 332.72C251.239 332.548 251.291 332.266 251.324 331.877L251.981 324.171C252.015 323.781 252.009 323.496 251.966 323.313C251.923 323.131 251.825 323.001 251.674 322.922C251.523 322.843 251.276 322.781 250.934 322.736L250.96 322.426C252.076 322.551 253.76 322.711 256.016 322.902Z" fill="#9E8A46"/>
<path id="Vector_90" d="M264.154 323.984C263.991 324.037 263.875 324.148 263.804 324.322C263.733 324.493 263.682 324.774 263.649 325.164L262.992 332.871C262.959 333.259 262.963 333.546 263.004 333.727C263.043 333.909 263.139 334.04 263.292 334.118C263.441 334.197 263.691 334.26 264.039 334.304L264.013 334.616C263.463 334.539 262.684 334.457 261.673 334.37C260.564 334.277 259.747 334.222 259.218 334.207L259.244 333.897C259.59 333.91 259.844 333.891 260.006 333.84C260.168 333.787 260.287 333.674 260.359 333.502C260.433 333.33 260.486 333.05 260.519 332.66L261.176 324.953C261.209 324.564 261.203 324.278 261.161 324.096C261.117 323.915 261.021 323.784 260.87 323.705C260.718 323.625 260.471 323.564 260.128 323.518L260.154 323.208C260.672 323.282 261.488 323.368 262.601 323.463C263.613 323.549 264.395 323.6 264.949 323.616L264.922 323.927C264.572 323.912 264.315 323.931 264.154 323.984Z" fill="#9E8A46"/>
<path id="Vector_91" d="M274.066 334.765C274.021 334.616 273.941 334.536 273.831 334.527C273.75 334.519 273.64 334.554 273.501 334.628C273.18 334.815 272.882 334.968 272.611 335.087C272.338 335.206 272.029 335.297 271.685 335.356C271.342 335.416 270.96 335.428 270.54 335.393C269.443 335.3 268.5 334.995 267.711 334.48C266.922 333.965 266.337 333.264 265.957 332.378C265.576 331.492 265.436 330.465 265.535 329.298C265.632 328.154 265.951 327.164 266.491 326.323C267.032 325.482 267.739 324.855 268.616 324.441C269.491 324.026 270.462 323.863 271.529 323.954C272.146 324.007 272.666 324.141 273.088 324.355C273.51 324.569 273.916 324.854 274.303 325.206C274.411 325.307 274.509 325.363 274.595 325.369C274.808 325.387 274.964 325.09 275.068 324.477L275.424 324.508C275.325 325.208 275.198 326.46 275.044 328.265L274.687 328.235C274.666 327.709 274.63 327.278 274.579 326.945C274.529 326.614 274.438 326.315 274.312 326.056C274.184 325.795 273.998 325.55 273.759 325.321C273.522 325.051 273.237 324.837 272.904 324.679C272.571 324.521 272.22 324.426 271.851 324.394C271.138 324.334 270.531 324.53 270.028 324.982C269.526 325.432 269.135 326.052 268.854 326.837C268.573 327.622 268.393 328.502 268.31 329.472C268.227 330.444 268.261 331.341 268.415 332.164C268.57 332.987 268.863 333.66 269.295 334.182C269.726 334.706 270.296 334.997 271.004 335.057C271.364 335.089 271.72 335.053 272.076 334.95C272.431 334.848 272.737 334.683 272.996 334.456C273.277 334.275 273.503 334.06 273.674 333.806C273.846 333.553 273.983 333.256 274.087 332.913C274.19 332.571 274.295 332.119 274.405 331.558L274.761 331.588C274.601 333.464 274.511 334.771 274.488 335.508L274.133 335.478C274.134 335.151 274.113 334.914 274.066 334.765Z" fill="#9E8A46"/>
<path id="Vector_92" d="M280.173 327.257L278.207 331.315L281.356 331.583L280.173 327.257ZM285.369 335.871C285.527 336.041 285.693 336.137 285.863 336.162L285.837 336.473C285.218 336.389 284.433 336.308 283.482 336.226C282.419 336.136 281.631 336.085 281.119 336.071L281.145 335.761C281.535 335.779 281.82 335.753 281.996 335.687C282.172 335.621 282.269 335.486 282.285 335.284C282.299 335.128 282.257 334.878 282.159 334.533L281.443 331.904L278.06 331.617L277.56 332.65C277.213 333.356 277.023 333.919 276.987 334.344C276.954 334.728 277.044 335.006 277.26 335.177C277.474 335.349 277.811 335.461 278.271 335.515L278.244 335.827C277.547 335.737 276.907 335.667 276.321 335.618C275.846 335.577 275.45 335.559 275.133 335.562L275.16 335.251C275.683 335.209 276.175 334.703 276.634 333.734L280.95 324.948C281.114 324.977 281.294 324.999 281.487 325.016C281.689 325.033 281.868 325.04 282.026 325.039L284.969 335.084C285.078 335.441 285.209 335.702 285.369 335.871Z" fill="#9E8A46"/>
<path id="Vector_93" d="M285.881 328.056C285.941 327.349 285.977 326.466 285.991 325.407C286.934 325.518 288.533 325.669 290.789 325.862C293.045 326.053 294.642 326.174 295.58 326.224C295.414 327.268 295.301 328.146 295.242 328.853C295.204 329.299 295.188 329.694 295.194 330.042L294.837 330.011C294.739 329.132 294.588 328.43 294.383 327.905C294.177 327.381 293.911 326.994 293.583 326.745C293.256 326.495 292.844 326.349 292.349 326.306L291.991 326.278L291.236 335.152C291.2 335.582 291.217 335.9 291.288 336.105C291.36 336.31 291.506 336.457 291.725 336.546C291.945 336.637 292.294 336.704 292.774 336.75L292.746 337.062C291.446 336.92 290.462 336.822 289.8 336.765C289.148 336.709 288.198 336.643 286.952 336.569L286.978 336.257C287.465 336.293 287.822 336.285 288.054 336.234C288.284 336.183 288.452 336.061 288.554 335.871C288.657 335.683 288.727 335.372 288.764 334.943L289.519 326.067L289.178 326.038C288.678 325.994 288.244 326.068 287.879 326.255C287.514 326.444 287.186 326.778 286.895 327.26C286.604 327.743 286.334 328.412 286.083 329.266L285.727 329.236C285.79 328.894 285.843 328.502 285.881 328.056Z" fill="#9E8A46"/>
<path id="Vector_94" d="M304.288 335.668C304.209 336.618 304.177 337.408 304.195 338.035C303.494 337.945 302.31 337.828 300.64 337.687C298.384 337.495 296.698 337.366 295.577 337.301L295.604 336.991C295.949 337.006 296.202 336.986 296.365 336.933C296.526 336.881 296.645 336.769 296.717 336.597C296.791 336.426 296.844 336.144 296.877 335.755L297.533 328.048C297.567 327.658 297.561 327.373 297.519 327.191C297.475 327.009 297.377 326.877 297.227 326.799C297.076 326.719 296.829 326.657 296.487 326.614L296.512 326.302C297.629 326.428 299.312 326.587 301.568 326.779C303.09 326.909 304.175 326.986 304.819 327.01C304.676 327.858 304.576 328.621 304.517 329.299C304.48 329.759 304.463 330.111 304.472 330.357L304.117 330.327C304.074 329.564 303.964 328.956 303.784 328.503C303.603 328.05 303.354 327.715 303.036 327.5C302.718 327.284 302.313 327.155 301.823 327.114L301.186 327.058C300.863 327.033 300.626 327.039 300.477 327.079C300.33 327.12 300.223 327.213 300.159 327.358C300.096 327.503 300.051 327.742 300.022 328.077L299.695 331.923L300.188 331.963C300.744 332.012 301.181 331.844 301.499 331.465C301.815 331.083 302.055 330.621 302.213 330.074L302.569 330.104C302.491 330.612 302.432 331.098 302.393 331.563L302.337 332.307C302.292 332.833 302.259 333.571 302.239 334.522L301.883 334.492C301.791 333.104 301.219 332.364 300.162 332.275L299.668 332.233L299.335 336.147C299.306 336.481 299.311 336.725 299.349 336.878C299.388 337.031 299.477 337.141 299.615 337.206C299.755 337.272 299.986 337.318 300.31 337.346L301.077 337.411C301.805 337.473 302.417 337.271 302.913 336.804C303.408 336.337 303.8 335.514 304.088 334.337L304.445 334.367C304.386 334.703 304.335 335.137 304.288 335.668Z" fill="#9E8A46"/>
</g>
<g id="paper">
<g id="Vector_95">
<path d="M34.1774 299.978C30.4401 296.458 25.8429 294.92 23.1012 296.273C22.5943 293.206 18.6758 288.611 20.7117 287.727C22.7492 286.844 30.6869 289.694 33.5428 291.743C34.6979 294.792 34.8306 297.723 33.9052 299.711L34.1774 299.978Z" fill="#F4F849"/>
<path d="M34.1774 299.978C30.4401 296.458 25.8429 294.92 23.1012 296.273C22.5943 293.206 18.6758 288.611 20.7117 287.727C22.7492 286.844 30.6869 289.694 33.5428 291.743C34.6979 294.792 34.8306 297.723 33.9052 299.711L34.1774 299.978Z" fill="#F4F849"/>
<path d="M34.1774 299.978C30.4401 296.458 25.8429 294.92 23.1012 296.273C22.5943 293.206 18.6758 288.611 20.7117 287.727C22.7492 286.844 30.6869 289.694 33.5428 291.743C34.6979 294.792 34.8306 297.723 33.9052 299.711L34.1774 299.978Z" fill="#4696F3"/>
</g>
<path id="Vector_96" d="M64 328.612C58.9204 329.359 54.8625 332.01 54.2226 335C51.5026 333.495 45.468 333.717 46.0377 331.572C46.6089 329.426 53.769 324.969 57.1473 324C60.2552 324.986 62.6362 326.7 63.6212 328.659L64 328.612Z" fill="#E65A84"/>
<g id="Vector_97">
<path d="M447.035 270.272C452.012 269.011 455.778 265.959 456.11 262.92C458.969 264.14 464.95 263.304 464.602 265.496C464.252 267.689 457.584 272.853 454.322 274.161C451.13 273.497 448.586 272.035 447.407 270.186L447.035 270.272Z" fill="#F4F849"/>
<path d="M447.035 270.272C452.012 269.011 455.778 265.959 456.11 262.92C458.969 264.14 464.95 263.304 464.602 265.496C464.252 267.689 457.584 272.853 454.322 274.161C451.13 273.497 448.586 272.035 447.407 270.186L447.035 270.272Z" fill="#F4F849"/>
<path d="M447.035 270.272C452.012 269.011 455.778 265.959 456.11 262.92C458.969 264.14 464.95 263.304 464.602 265.496C464.252 267.689 457.584 272.853 454.322 274.161C451.13 273.497 448.586 272.035 447.407 270.186L447.035 270.272Z" fill="#4696F3"/>
</g>
<path id="Vector_98" d="M487.651 341.19C492.628 339.929 496.395 336.878 496.727 333.839C499.586 335.059 505.566 334.222 505.218 336.414C504.869 338.607 498.201 343.771 494.939 345.079C491.746 344.416 489.203 342.953 488.023 341.105L487.651 341.19Z" fill="#4696F3"/>
<path id="Vector_99" d="M435.177 261.978C431.44 258.458 426.843 256.92 424.101 258.273C423.594 255.206 419.676 250.611 421.712 249.727C423.749 248.844 431.687 251.694 434.543 253.743C435.698 256.792 435.831 259.723 434.905 261.711L435.177 261.978Z" fill="#F4F849"/>
<path id="Vector_100" d="M67 248.612C61.9204 249.359 57.8625 252.01 57.2226 255C54.5026 253.495 48.468 253.717 49.0377 251.572C49.6089 249.426 56.769 244.969 60.1473 244C63.2552 244.986 65.6362 246.7 66.6212 248.659L67 248.612Z" fill="#E65A84"/>
<path id="Vector_101" d="M438.579 225.168C436.882 220.322 433.509 216.841 430.452 216.78C431.414 213.824 430.051 207.941 432.265 208.094C434.481 208.247 440.215 214.432 441.807 217.565C441.429 220.803 440.198 223.466 438.461 224.805L438.579 225.168Z" fill="#E65A84"/>
<path id="Vector_102" d="M23 210.612C17.9204 211.359 13.8625 214.01 13.2226 217C10.5026 215.495 4.46803 215.717 5.03769 213.572C5.60888 211.426 12.769 206.969 16.1473 206C19.2552 206.986 21.6362 208.7 22.6212 210.659L23 210.612Z" fill="#E65A84"/>
<path id="Vector_103" d="M82.1774 363.978C78.4401 360.458 73.8429 358.92 71.1012 360.273C70.5943 357.206 66.6758 352.611 68.7117 351.727C70.7492 350.844 78.6869 353.694 81.5428 355.743C82.6979 358.792 82.8306 361.723 81.9052 363.711L82.1774 363.978Z" fill="#F4F849"/>
<path id="Vector 1" d="M18.3535 379C16.348 392.951 34.1764 400.282 43.3412 402.204" stroke="#E55A84" stroke-width="3"/>
<path id="Ellipse 1" d="M28.9853 391.211C27.7593 392.532 25.3923 392.651 23.6725 391.054C21.9528 389.457 21.8971 387.088 23.1231 385.768C24.3491 384.447 26.7161 384.328 28.4358 385.925C30.1556 387.522 30.2113 389.891 28.9853 391.211Z" stroke="#E55A84" stroke-width="3"/>
<path id="Vector 2" d="M491.292 367.71C471.695 391.424 497.761 401.092 513.243 402.962" stroke="#4696F3" stroke-width="3"/>
<circle id="Ellipse 3" cx="490.642" cy="385.642" r="5.5" transform="rotate(58.0895 490.642 385.642)" stroke="#4696F3" stroke-width="3"/>
</g>
</g>
</svg>
