<svg width="750" height="500" viewBox="0 0 750 500" fill="none" xmlns="http://www.w3.org/2000/svg">
<g id="onsite" clip-path="url(#clip0_85:24)">
<g id="surface1">
<path id="Vector" d="M409.648 354.531C403.969 361.281 398.816 372.473 395.617 374.246C392.422 376.023 387.031 376.641 381.937 393.039C376.844 409.434 402.562 407.191 402.562 407.191C402.562 407.191 413.558 400.875 417.996 385.613L429.012 375.848L409.648 354.531Z" fill="#EACDB0"/>
<path id="Vector_2" d="M389.754 405.395C389.754 405.395 398.078 402.684 405.141 395.227C412.227 387.738 413.141 374.422 413.141 374.422L416.535 380.762L423.324 373.508L426.598 373.188L429.012 375.848L417.996 385.613C413.559 400.875 402.562 407.191 402.562 407.191C402.562 407.191 395.473 407.805 389.473 406.02C389.629 405.633 389.754 405.395 389.754 405.395Z" fill="#EFBB86"/>
<path id="Vector_3" d="M448.207 295.805C440.328 301.562 435.629 305.738 431.715 313.574C427.797 321.406 403.246 349.555 401.684 352.062C400.113 354.574 415.477 381.211 427.773 387.738C427.773 387.738 446.336 366.324 457.043 358.23C467.75 350.133 464.094 321.406 459.133 311.746C454.172 302.086 448.207 295.805 448.207 295.805Z" fill="#E1CFE3"/>
<path id="Vector_4" d="M447.922 347.633V331.644C447.922 331.644 450.004 330.808 451.633 336.207C452.281 338.363 452.23 340.637 451.941 342.59L463.895 333.601C464.387 343.664 462.77 353.898 457.043 358.23C446.336 366.324 427.773 387.738 427.773 387.738C424.602 386.055 421.227 383.027 417.988 379.426C425.547 371.898 439.891 357.371 447.922 347.633Z" fill="#B99EBC"/>
<path id="Vector_5" d="M371.555 400.875C369.508 401.512 368 402.488 368 405.062C368 407.641 368.441 411.727 369.418 413.324C370.395 414.922 375.441 415.879 375.441 415.879C375.441 415.879 375.105 405.242 374.039 403.289C372.973 401.336 371.555 400.875 371.555 400.875Z" fill="#EACDB0"/>
<path id="Vector_6" d="M369.418 413.324C369.145 412.875 368.918 412.219 368.723 411.465C369.82 412.539 370.187 412.547 371.527 412.688L375.355 413.883C375.414 415.082 375.441 415.879 375.441 415.879C375.441 415.879 370.395 414.922 369.418 413.324Z" fill="#EFBB86"/>
<path id="Vector_7" d="M376.437 396.98C373.949 397.25 371.461 399.113 371.461 401.688C371.461 404.266 370.574 411.461 371.461 412.613C372.351 413.77 376.703 417.055 378.211 417.32C379.722 417.586 382.285 417.145 381.937 416.344C381.586 415.543 376.437 396.98 376.437 396.98Z" fill="#EACDB0"/>
<path id="Vector_8" d="M371.086 410.68C372.969 412.809 377.789 412.617 377.789 412.617C377.789 412.617 379.91 414.879 380.172 415.605C380.328 416.047 381.195 416.625 381.316 417.07C380.52 417.375 379.156 417.488 378.211 417.32C376.73 417.059 372.527 413.898 371.527 412.688L371.086 410.684C371.086 410.684 371.086 410.684 371.086 410.68Z" fill="#EFBB86"/>
<path id="Vector_9" d="M385.754 392.734C378.121 393.164 376.703 393.875 376.437 396.98C376.168 400.09 376.348 409.148 377.324 411.461C378.301 413.77 378.832 415.812 380.078 417.055C381.32 418.297 383.18 418.301 383.18 418.301C383.18 418.301 387.359 412.168 387.535 407.02C387.715 401.867 385.754 392.734 385.754 392.734Z" fill="#EACDB0"/>
<path id="Vector_10" d="M381.363 413.199C381.75 411.09 382.609 408.84 382.719 401.781C382.758 399.129 385.219 412.981 384.121 416.781C383.574 417.723 383.18 418.301 383.18 418.301C383.18 418.301 381.32 418.297 380.078 417.055C378.832 415.813 378.301 413.77 377.324 411.461C377.262 411.309 377.199 411.129 377.145 410.922C377.641 412.219 379.223 413.07 381.363 413.199Z" fill="#EFBB86"/>
<path id="Vector_11" d="M402.457 408.352C401.977 412.594 396.418 414.122 395.797 416.255C395.176 418.387 395.617 420.341 394.555 420.872C393.488 421.407 389.047 418.919 389.227 416.079C389.227 416.079 388.07 418.477 385.492 418.919C382.918 419.364 382.297 417.481 382.742 414.649C383.184 411.813 383.098 410.305 383.008 406.93C382.918 403.555 382.117 400.446 383.629 396.716C385.141 392.985 387.184 389.7 391.266 390.321C395.352 390.942 397.84 396.094 400.059 397.872C402.277 399.645 402.988 403.645 402.457 408.352Z" fill="#EACDB0"/>
<path id="Vector_12" d="M389.227 416.079C389.473 410.68 389.754 406.262 389.754 405.395C389.754 404.52 389.473 398.794 391.512 398.446C391.816 398.395 396.297 401.231 396.383 403.145C396.473 405.063 396.383 408.501 394.992 409.477C393.598 410.458 389.227 416.079 389.227 416.079Z" fill="#EFBB86"/>
<path id="Vector_13" d="M574.297 307.309C566.199 297.036 563.414 295.989 555.058 291.118C546.703 286.243 515.015 273.883 508.488 272.313C501.961 270.747 475.629 283.02 466.988 286.938C458.351 290.856 447.355 294.712 445.48 298.528C439.211 311.305 451.632 329.419 451.695 367.368C451.73 387.247 456.261 431.946 456.261 431.946C456.261 431.946 555.754 432.133 557.148 430.044C558.539 427.954 562.023 356.575 563.765 341.95C565.504 327.329 574.297 307.309 574.297 307.309Z" fill="#E1CFE3"/>
<path id="Vector_14" d="M445.847 318.535C445.101 316.133 444.66 313.687 444.285 311.23C443.945 308.77 443.679 306.297 443.715 303.781C444.465 306.184 444.906 308.629 445.273 311.086C445.613 313.551 445.883 316.02 445.847 318.535Z" fill="#CBB2A3"/>
<path id="Vector_15" d="M472.312 415.941C473.383 414.895 538.359 416.984 539.664 410.195C540.969 403.406 541.867 391.059 541.867 391.059C534.047 395.238 522.688 393.496 522.688 393.496C530.262 391.023 541.23 378.598 541.754 374.941C543.363 363.68 537.344 332.629 537.344 332.629L541.754 323.758L546.91 320.887C546.91 320.887 556.691 325.758 565.055 334.719C564.488 337.195 564.039 339.641 563.766 341.949C562.121 355.738 558.934 419.965 557.406 429.02C537.281 429.762 500.801 431.098 476.387 431.934C464.559 431.961 456.262 431.945 456.262 431.945C456.262 431.945 456.105 426.066 455.754 417.637C462.563 417.238 471.648 416.59 472.312 415.941Z" fill="#B99EBC"/>
<path id="Vector_16" d="M507.113 287.516C513.941 281.324 514.715 274.402 514.07 272.969C513.43 271.531 510.613 270.484 510.613 270.484C510.613 270.484 509.504 274.988 510.156 276.102C510.809 277.211 507.113 287.516 507.113 287.516Z" fill="#CBB2A3"/>
<path id="Vector_17" d="M481.005 277.954C481.016 281.464 481.128 284.96 481.41 288.451C482.104 297.006 481.425 308.293 481.95 310.379C482.536 312.703 486.02 321 486.02 321C486.02 321 492.208 317.345 494.789 313.363C497.366 309.381 500.718 309.177 505.232 303.303C509.745 297.429 512.812 288.098 511.809 280.332C511.678 279.339 510.887 269.398 510.714 259.109C510.536 248.816 502.138 241 494.141 241C486.147 241 481.36 256.269 481.113 266.558C481.009 270.778 480.989 274.746 481.005 277.954Z" fill="#EACDB0"/>
<path id="Vector_18" d="M510.644 255.094C510.82 263.188 511.621 271.008 511.754 271.789C512.066 273.68 511.984 275.688 511.59 277.691C509.801 278.023 486.742 278.578 480.769 275.801C480.637 273.844 480.57 271.883 480.562 269.918C480.547 267.395 480.566 264.273 480.672 260.953C480.777 257.523 481.715 253.391 483.367 249.762L502.336 243.039C506.988 245.523 510.527 249.902 510.644 255.094Z" fill="#EFBB86"/>
<path id="Vector_19" d="M466.359 221.383C454.109 221.383 449.523 230.793 449.523 237.844C449.523 244.176 451.555 254.309 466.359 254.309C473.762 254.309 478.773 246.938 478.773 237.844C478.773 228.754 473.762 221.383 466.359 221.383Z" fill="#EDEDED"/>
<path id="Vector_20" d="M465.816 225.414C456.566 225.414 453.105 232.52 453.105 237.844C453.105 242.625 454.637 250.273 465.816 250.273C471.406 250.273 475.191 244.711 475.191 237.844C475.191 230.98 471.406 225.414 465.816 225.414Z" fill="#B1BCD7"/>
<path id="Vector_21" d="M450.902 226.938C451.629 231.231 453.754 232.872 454.699 238.661C455.648 244.446 453.117 252.856 456.894 260.176C460.668 267.5 467.473 276.094 471 276.5C474.527 276.906 502.062 273.172 511.594 254.223C514.328 248.786 520.172 227.457 515.172 214.434C510.168 201.411 502.031 189.477 483.226 189.114C464.422 188.75 447.066 204.192 450.902 226.938Z" fill="#EACDB0"/>
<path id="Vector_22" d="M472.312 422.379C472.32 422.797 471.73 423.403 470.297 423.403C468.859 423.403 430.234 423.403 425.012 423.403C419.785 423.403 418.566 421.34 420.137 418.727C421.703 416.114 428.316 410.371 444.684 406.368C461.047 402.364 469.652 411.727 472.312 415.942C474.266 419.036 472.312 422.379 472.312 422.379Z" fill="#AAA9A9"/>
<path id="Vector_23" d="M419.75 419.512C420.652 422.508 455.207 420.946 455.207 420.946C455.207 420.946 451.703 416.211 447.828 416.078C443.953 415.942 442.07 417.289 436.879 418.184C431.684 419.074 435.531 416.067 435.531 416.067C435.531 416.067 431.863 415.254 430.367 414.098C430.367 414.098 438.93 411.567 442.52 410.981C446.109 410.395 455.25 410.785 456.426 410.981C457.258 411.117 461.473 408.668 466.57 409.899C469.414 411.977 471.297 414.332 472.312 415.942C474.266 419.035 472.312 422.379 472.312 422.379C472.32 422.797 471.73 423.403 470.297 423.403C468.859 423.403 430.234 423.403 425.012 423.403C420.324 423.403 418.867 421.738 419.75 419.512Z" fill="#6C6C6C"/>
<path id="Vector_24" d="M567.55 394.062C567.55 394.062 535.347 399.043 517.89 402.164C501.355 405.125 487.074 406.41 483.027 405.625C478.98 404.844 465.14 399.75 460.699 397.922C456.261 396.094 447.382 395.051 442.812 396.484C438.242 397.922 434.496 399.488 432.671 399.488C430.843 399.488 431.191 402.449 433.628 403.059C436.066 403.668 438.242 403.582 438.242 403.582C438.242 403.582 429.972 408.105 428.492 408.543C427.011 408.977 428.765 411.676 430.769 411.504C430.769 411.504 429.015 412.547 429.625 413.59C430.234 414.637 434.585 414.637 434.585 414.637C434.585 414.637 429.273 417.246 433.714 418.293C438.152 419.336 443.464 414.375 445.64 413.938C447.816 413.504 452.863 413.766 455.304 415.594C457.738 417.422 468.187 425.863 482.46 420.816C482.46 420.816 579.355 424.742 589.019 424.742C598.683 424.742 604.519 416.203 601.417 399.75C598.32 383.301 592.312 371.023 592.312 371.023L558.89 373.375L567.55 394.062Z" fill="#EACDB0"/>
<path id="Vector_25" d="M445.871 400.965C446.723 400.766 447.402 400.648 447.828 400.621C447.828 400.621 447.004 400.766 445.871 400.965Z" fill="#F16069"/>
<path id="Vector_26" d="M438.242 403.582C438.242 403.582 436.066 403.668 433.629 403.059C432.941 402.887 432.43 402.527 432.074 402.102C434.785 403.301 438.121 402.535 439.949 402.102C441.105 401.824 443.934 401.309 445.871 400.965C443.934 401.422 441.09 402.313 438.242 403.582Z" fill="#F16069"/>
<path id="Vector_27" d="M438.668 407.496C438.879 407.402 439.055 407.328 439.168 407.293C439.168 407.293 438.98 407.371 438.668 407.496Z" fill="#F16069"/>
<path id="Vector_28" d="M428.508 410.48C428.539 410.512 429.496 411.352 431.508 410.477C433.184 409.746 437.25 408.078 438.668 407.496C436.887 408.309 432.055 411.035 430.77 411.504C429.879 411.578 429.039 411.09 428.508 410.48Z" fill="#F16069"/>
<path id="Vector_29" d="M433.512 413.68C434.988 413.242 438.078 411.371 439.973 410.477C441.867 409.582 444.281 409.477 444.281 409.477C444.281 409.477 443.562 409.543 441.672 410.477C439.777 411.41 434.586 414.637 434.586 414.637C434.586 414.637 431.793 414.637 430.367 414.098C430.383 414.098 432.035 414.109 433.512 413.68Z" fill="#F16069"/>
<path id="Vector_30" d="M461.062 415.812C463.801 417.508 471.898 419.727 476.73 418.812C481.559 417.898 482.605 413.852 482.605 413.852L483.953 418.207C483.953 418.207 551.152 420.121 564.82 419.508C578.328 418.898 599.402 418.59 602.152 410.477C601.398 419.895 596.297 424.742 589.02 424.742C579.355 424.742 482.461 420.816 482.461 420.816C468.187 425.863 457.738 417.422 455.305 415.594C453.277 414.074 449.449 413.641 446.965 413.785C450.672 412.484 458.316 414.113 461.062 415.812Z" fill="#EFBB86"/>
<path id="Vector_31" d="M567.551 394.062C567.551 394.062 580.141 392.352 582.664 392.09L580.75 384.258L564.82 387.477L567.551 394.062Z" fill="#EFBB86"/>
<path id="Vector_32" d="M601.199 372.134C601.672 373.36 601.371 374.739 600.429 375.657C594.578 381.372 586.898 389.153 578.996 390.352C570.379 391.657 556.015 392.181 555.23 390.352C554.449 388.52 551.578 365.282 546.355 353.528C541.133 341.778 537.734 335.77 536.429 328.981C535.125 322.192 546.875 306.263 552.101 304.958C557.32 303.649 569.336 302.868 574.297 307.309C579.258 311.747 582.914 328.723 588.66 341.516C593.297 351.845 599.121 366.759 601.199 372.134Z" fill="#E1CFE3"/>
<path id="Vector_33" d="M568.875 304.73C567.273 304.547 565.676 304.41 564.074 304.379C562.477 304.312 560.879 304.316 559.285 304.41C557.695 304.507 556.113 304.668 554.555 304.945C553.773 305.07 553.004 305.254 552.234 305.425C551.516 305.687 550.777 305.879 550.117 306.289C549.414 306.605 548.805 307.101 548.16 307.531C547.574 308.05 546.945 308.519 546.41 309.097C545.262 310.179 544.297 311.441 543.316 312.691C542.359 313.964 541.492 315.308 540.668 316.679C539.816 318.039 539.062 319.453 538.328 320.886C539.406 317.847 540.898 314.961 542.688 312.25C543.598 310.906 544.586 309.601 545.738 308.433C546.281 307.816 546.945 307.312 547.559 306.761C548.242 306.293 548.887 305.761 549.652 305.406C550.371 304.972 551.203 304.75 552 304.48C552.801 304.312 553.594 304.117 554.402 304.015C556.016 303.785 557.641 303.632 559.266 303.644C562.504 303.64 565.742 303.953 568.875 304.73Z" fill="#B99EBC"/>
<path id="Rectangle 131" d="M511.11 248.41C511.11 248.41 531.61 248.91 531.61 277.91C531.61 306.91 529.682 303.997 545.61 314.91C561.539 325.823 515.257 369.711 515.257 369.711C515.257 369.711 540.111 341.705 525.61 324.807C511.11 307.91 511.11 277.91 511.11 277.91L511.11 248.41Z" fill="#5A4E4A"/>
<path id="hair" d="M499.898 226.938C499.184 222.477 496.199 219.899 496.199 219.899C496.199 219.899 489.012 216.914 483.453 216.372C477.891 215.829 472.195 214.204 472.195 214.204C472.195 214.204 473.961 218.668 476.941 220.571C476.941 220.571 463.652 219.899 459.445 215.965C459.445 215.965 460.262 219.207 461.074 221.383C461.074 221.383 454.566 220.711 452.531 218.137C452.531 218.137 450.902 223.809 450.902 226.938C450.902 226.938 443.082 216.239 445.07 207.739C447.062 199.239 449.773 195.985 449.773 195.985C449.773 195.985 448.145 208.282 445.07 207.739C445.07 207.739 454.02 192.27 459.445 188.11C467.237 182.136 475.449 181.157 475.449 181.157C475.449 181.157 470.746 189.007 472.195 182.136C472.195 182.136 482.594 178.039 489.961 181.157C497.328 184.278 496.34 184.012 504.148 185.985C511.965 187.954 521.748 200.813 523 202.5C527.035 211.5 526.117 206.704 523 202.5C523 202.5 530 216.778 530 221.383C530 236.881 517.117 260.125 514.5 257.5C511.887 254.872 499.898 226.938 499.898 226.938Z" fill="#5A4E4A"/>
<g id="ear">
<path id="Vector_34" d="M500.945 232.691C498.332 230.063 499.898 226.938 499.898 226.938C499.469 224.238 498.203 222.234 497.273 221.066C499.23 209.207 498.434 196.898 494.961 185.395C496.988 186.219 498.195 186.586 501.137 187.344C504.742 192.77 507.441 198.875 509.297 205.062C511.664 212.938 512.809 221.445 510.602 229.367C510.035 231.398 509.211 233.379 508.168 235.234C504.824 234.953 502 233.75 500.945 232.691Z" fill="#95453A"/>
<path id="Vector_35" d="M504.629 222.519C504.629 222.519 505.559 192.773 489.961 183.281C489.961 183.281 502.031 181.925 508.949 193.996C515.863 206.066 515.395 216.418 515.223 222.218C515.047 228.019 504.629 222.519 504.629 222.519Z" fill="#EDEDED"/>
<path id="Vector_36" d="M509.383 221.383C521.633 221.383 526.219 230.793 526.219 237.844C526.219 244.176 524.187 254.309 509.383 254.309C501.98 254.309 496.969 246.938 496.969 237.844C496.969 228.754 501.98 221.383 509.383 221.383Z" fill="#EDEDED"/>
<path id="Vector_37" d="M502.777 237.844C502.777 229.773 508.105 223.23 514.68 223.23C521.25 223.23 526.219 229.773 526.219 237.844C526.219 245.914 521.25 252.461 514.68 252.461C508.105 252.461 502.777 245.914 502.777 237.844Z" fill="#B1BCD7"/>
<path id="Vector_38" d="M508.152 237.844C508.152 232.352 511.777 227.898 516.25 227.898C520.723 227.898 524.348 232.352 524.348 237.844C524.348 243.34 520.723 247.789 516.25 247.789C511.777 247.789 508.152 243.34 508.152 237.844Z" fill="#EDEDED"/>
</g>
<path id="Vector_39" d="M594.68 376.945C594.637 372.77 585.824 334.52 578.039 313.199C581.352 320.484 584.441 332.121 588.66 341.516C593.297 351.844 599.121 366.758 601.199 372.133C601.672 373.359 601.371 374.738 600.43 375.656C598.187 377.844 595.68 380.336 592.988 382.645C593.191 382.449 594.719 380.84 594.68 376.945Z" fill="#B99EBC"/>
<path id="Vector_40" d="M174.625 333.852C174.465 335.137 174.734 336.434 175.359 337.571C177.637 341.715 178.793 346.477 178.644 351.207C178.547 354.321 177.906 357.508 178.754 360.508C180.219 365.684 185.68 368.883 187.437 373.969C188.996 378.473 187.547 384.141 190.785 387.637C191.586 388.504 192.832 389.168 193.93 388.731C194.48 388.508 194.894 388.051 195.285 387.602C199 383.387 202.973 378.262 201.828 372.762C200.754 367.594 195.426 364.102 194.418 358.922C193.594 354.688 195.758 349.805 193.332 346.239C192.664 345.254 191.703 344.504 190.973 343.563C188.09 339.86 189.156 333.957 185.836 330.641C184.75 329.559 183.394 328.946 181.918 328.633C178.433 327.887 175.062 330.313 174.625 333.852Z" fill="#74A17A"/>
<path id="Vector_41" d="M195.738 399.508C195.965 396.754 196.059 393.992 196.16 391.23C196.035 388.473 195.887 385.719 195.652 382.961C195.414 380.207 195.105 377.453 194.617 374.715C194.125 371.992 193.469 369.215 192.324 366.656C190.324 361.602 188.711 356.312 187.078 351.074L184.707 343.176C183.734 340.598 182.785 338.012 181.867 335.406C182.27 338.148 182.895 340.836 183.445 343.547L185.82 351.461C187.461 356.727 189.063 361.98 191.113 367.16C192.219 369.641 192.832 372.262 193.324 374.945C193.801 377.625 194.109 380.348 194.344 383.074C194.57 385.805 194.73 388.543 194.836 391.285L195.738 399.508Z" fill="#ACBF82"/>
<path id="Vector_42" d="M181.188 343.641C181.645 344.328 182.227 344.844 182.855 345.301C183.18 345.516 183.559 345.656 183.91 345.836C184.27 346.008 184.578 346.234 184.871 346.496L184.996 346.609L185.105 346.441C185.371 346.039 185.688 345.664 185.941 345.258C186.184 344.848 186.438 344.441 186.656 344.016C187.074 343.16 187.387 342.25 187.547 341.266L187.469 341.227C186.781 341.949 186.246 342.746 185.816 343.602C185.609 344.027 185.441 344.477 185.258 344.918C185.086 345.367 184.98 345.848 184.82 346.301L185.059 346.242C184.723 346.043 184.41 345.813 184.141 345.52C183.867 345.238 183.621 344.918 183.32 344.676C182.699 344.211 182.035 343.805 181.242 343.57L181.188 343.641Z" fill="#F69BA0"/>
<path id="Vector_43" d="M181.855 353.062C182.332 353.453 182.82 353.875 183.332 354.227C183.844 354.59 184.359 354.938 184.922 355.219C185.488 355.488 186.09 355.703 186.637 356.016C187.184 356.316 187.684 356.699 188.172 357.098L188.344 357.234L188.52 357.008C189.273 356.02 189.922 354.969 190.531 353.895C191.105 352.801 191.617 351.672 191.984 350.465L191.91 350.422C191.063 351.359 190.359 352.379 189.719 353.434C189.117 354.512 188.547 355.605 188.09 356.766L188.438 356.68C187.863 356.41 187.301 356.133 186.785 355.773C186.266 355.426 185.801 354.98 185.301 354.602C184.797 354.227 184.242 353.926 183.68 353.645C183.109 353.367 182.543 353.102 181.875 352.977L181.855 353.062Z" fill="#ACBF82"/>
<path id="Vector_44" d="M185.207 365.5C185.727 366.023 186.305 366.41 186.902 366.758C187.488 367.121 188.137 367.359 188.828 367.523C189.516 367.691 190.137 367.992 190.691 368.418C191.246 368.836 191.785 369.301 192.34 369.664L192.758 369.938L193.066 369.473C193.527 368.785 193.941 368.074 194.266 367.312C194.59 366.555 194.879 365.773 195.039 364.926L194.941 364.871C194.309 365.465 193.805 366.121 193.336 366.805C192.867 367.484 192.492 368.215 192.156 368.969L192.887 368.777C192.254 368.43 191.582 368.23 190.918 367.996C190.254 367.77 189.645 367.438 189.098 366.984C188.555 366.52 187.961 366.156 187.305 365.918C186.656 365.664 185.984 365.461 185.254 365.402L185.207 365.5Z" fill="#ACBF82"/>
<path id="Vector_45" d="M200.125 400.047C202.277 399.692 210.355 397.109 209.789 395C207.371 385.949 204.949 375.68 213.332 371.25C217.367 369.121 222.434 368.039 224.73 364.098C227.094 360.035 225.352 354.875 223.23 350.684C221.105 346.488 218.551 342.004 219.461 337.391C220.414 332.563 224.977 329.004 225.707 324.137C226.707 317.488 220.254 312.137 214.055 309.543C211.945 308.66 209.629 307.906 207.406 308.442C205.82 308.824 204.445 309.844 203.355 311.059C199 315.93 199.18 323.274 200.172 329.727C201.168 336.184 202.687 343.004 200.254 349.063C198.527 353.371 194.832 357.422 195.82 361.953C196.219 363.77 197.352 365.352 197.781 367.16C198.945 372.031 194.898 376.422 193.043 381.074C190.648 387.078 192.293 394.414 196.828 398.973C197.691 399.836 198.918 400.246 200.125 400.047Z" fill="#C2D191"/>
<path id="Vector_46" d="M199.363 400.148C199.859 396.562 200.359 392.992 201 389.449C201.148 388.562 201.336 387.68 201.48 386.797C201.613 385.906 201.691 385.012 201.84 384.129C202.105 382.352 202.406 380.586 202.746 378.828C203.429 375.316 204.246 371.82 205.445 368.496C206.047 366.84 206.761 365.223 207.707 363.824C208.175 363.129 208.726 362.512 209.34 362.094C210.144 361.562 210.914 360.883 211.519 360.066C212.761 358.422 213.136 356.332 213.09 354.445C213.047 352.535 212.687 350.715 212.281 348.934C211.453 345.379 210.406 341.945 209.828 338.445C209.238 334.969 209.121 331.402 210.039 328.066C210.324 327.254 210.547 326.426 210.812 325.594C211.086 324.77 211.441 323.969 211.843 323.18C212.648 321.609 213.699 320.145 214.859 318.754C213.433 319.871 212.113 321.164 211.011 322.656C210.457 323.402 209.937 324.184 209.496 325.016C209.043 325.836 208.656 326.711 208.457 327.633C207.449 331.285 207.593 335.109 208.207 338.719C208.812 342.348 209.875 345.832 210.679 349.301C211.074 351.031 211.41 352.773 211.445 354.477C211.48 356.172 211.152 357.824 210.195 359.094C209.722 359.727 209.129 360.266 208.429 360.727C207.547 361.328 206.894 362.098 206.351 362.891C205.277 364.488 204.535 366.203 203.902 367.934C202.652 371.398 201.824 374.949 201.129 378.516C200.785 380.301 200.484 382.09 200.215 383.883C200.09 384.781 199.922 385.672 199.816 386.574C199.722 387.477 199.683 388.383 199.625 389.289C199.429 392.91 199.297 396.527 199.363 400.148Z" fill="#5B925D"/>
<path id="Vector_47" d="M213.668 329.492C213.05 329.711 212.527 330.07 212.047 330.457C211.57 330.848 211.113 331.266 210.777 331.789C210.437 332.312 210.136 332.863 209.699 333.293C209.281 333.734 208.773 334.098 208.289 334.488L208.925 334.527C208.711 334.062 208.445 333.629 208.203 333.184C207.949 332.742 207.699 332.305 207.402 331.895C207.121 331.477 206.8 331.082 206.5 330.68C206.191 330.273 205.847 329.902 205.57 329.477L205.461 329.492C205.437 330.059 205.609 330.582 205.781 331.074C205.968 331.566 206.179 332.043 206.437 332.492C206.675 332.953 206.976 333.371 207.281 333.785C207.597 334.195 207.894 334.609 208.258 334.988L208.656 335.406L208.894 335.027C209.222 334.512 209.539 333.973 209.945 333.52C210.336 333.051 210.867 332.715 211.371 332.355C211.875 332 212.273 331.547 212.664 331.086C213.05 330.613 213.414 330.133 213.738 329.578L213.668 329.492Z" fill="#F69BA0"/>
<path id="Vector_48" d="M205.84 343.199C206.094 343.812 206.43 344.379 206.805 344.902C207.184 345.426 207.582 345.934 208.035 346.387C208.504 346.828 209.035 347.207 209.535 347.617C210.027 348.035 210.461 348.504 210.852 349.02L210.977 349.18L211.152 349.039C211.805 348.52 212.32 348.047 212.836 347.496C213.324 346.937 213.844 346.41 214.297 345.832C214.754 345.258 215.18 344.66 215.582 344.047C215.992 343.438 216.359 342.797 216.785 342.199L216.723 342.109C216.008 342.445 215.453 342.973 214.898 343.469C214.355 343.98 213.852 344.527 213.383 345.098C212.91 345.664 212.512 346.285 212.07 346.879C211.645 347.453 211.285 348.172 210.879 348.68L211.18 348.699C210.684 348.293 210.234 347.836 209.852 347.32C209.477 346.797 209.141 346.238 208.746 345.738C208.344 345.246 207.883 344.805 207.426 344.359C206.961 343.926 206.465 343.516 205.926 343.133L205.84 343.199Z" fill="#F69BA0"/>
<path id="Vector_49" d="M220.242 353.984C219.562 354.785 218.855 355.52 218.137 356.223C217.41 356.926 216.637 357.543 215.879 358.219C215.109 358.875 214.234 359.461 213.246 359.75C212.266 360.059 211.227 360.098 210.223 360.086L210.672 360.402C210.492 359.559 210.23 358.762 209.953 357.953C209.684 357.148 209.332 356.367 208.914 355.621C208.496 354.871 208.004 354.156 207.422 353.512C206.828 352.883 206.145 352.293 205.324 352L205.27 352.094C205.891 352.656 206.367 353.305 206.781 353.996C207.203 354.68 207.562 355.406 207.914 356.137L208.922 358.359C209.254 359.105 209.543 359.883 209.836 360.637L209.977 361L210.285 360.953C211.352 360.785 212.367 360.426 213.355 360.074C214.336 359.691 215.344 359.355 216.309 358.863C217.281 358.387 218.102 357.648 218.785 356.828C219.473 356.004 220.031 355.066 220.34 354.035L220.242 353.984Z" fill="#5B925D"/>
<path id="Vector_50" d="M200.766 361.875C200.434 362.668 200.32 363.531 200.344 364.391C200.379 365.242 200.516 366.105 200.813 366.91C201.129 367.711 201.59 368.445 202.106 369.113L203.613 371.113L203.723 371.258L203.895 371.137C204.711 370.555 205.637 370.113 206.523 369.652C207.406 369.18 208.32 368.773 209.238 368.387C210.152 367.988 211.066 367.59 212.004 367.238C212.938 366.855 213.895 366.551 214.867 366.184L214.852 366.074C212.773 366.031 210.676 366.473 208.766 367.312C207.809 367.73 206.906 368.27 206.035 368.836C205.168 369.414 204.391 370.113 203.633 370.832L203.914 370.852C203.356 370.262 202.848 369.613 202.523 368.863C202.16 368.137 201.981 367.344 201.734 366.598C201.254 365.098 200.945 363.555 200.871 361.902L200.766 361.875Z" fill="#5B925D"/>
<path id="Vector_51" d="M185.48 423.402H208.535C210.675 423.402 212.496 421.555 212.816 419.051L216.468 390.688C216.867 387.586 214.84 384.789 212.187 384.789H181.832C179.179 384.789 177.148 387.586 177.55 390.688L181.199 419.051C181.519 421.555 183.34 423.402 185.48 423.402Z" fill="#50708E"/>
<path id="Vector_52" d="M181.832 384.789H197.351C194.699 384.789 192.668 387.586 193.066 390.688L196.718 419.051C197.039 421.555 198.859 423.402 201 423.402H185.48C183.34 423.402 181.519 421.555 181.199 419.051L177.55 390.688C177.148 387.586 179.179 384.789 181.832 384.789Z" fill="#85A0B8"/>
<path id="Vector_53" d="M392.012 415.613H295.582C294.609 415.613 293.824 416.402 293.824 417.375V421.645C293.824 422.617 294.609 423.402 295.582 423.402H392.012V415.613Z" fill="#666666"/>
<path id="Vector_54" d="M416.828 420.989V422.727C416.828 423.102 416.523 423.403 416.148 423.403H391.855C391.102 423.403 390.488 422.794 390.488 422.036V416.977C390.488 416.161 391.199 415.524 392.012 415.614L416.227 420.313C416.566 420.352 416.828 420.645 416.828 420.989Z" fill="#D2D2D2"/>
<path id="Vector_55" d="M223.492 251.719H403.718C407.363 251.719 410.617 254.008 411.851 257.438L451.269 366.895C452.914 372.539 448.785 376.77 442.148 377.484C441.132 377.594 436.289 375.418 428.687 371.844H267.566C263.918 371.844 260.664 369.555 259.429 366.125L223.824 267.246C217.804 264.105 214.371 262.309 214.371 262.309C214.371 262.309 212.144 251.719 223.492 251.719Z" fill="#D2D2D2"/>
<path id="Vector_56" d="M398.074 257.359H217.848C215.289 257.359 213.504 259.898 214.371 262.309L253.785 371.77C255.023 375.199 258.277 377.484 261.922 377.484H442.148C444.711 377.484 446.492 374.945 445.625 372.535L406.211 263.078C404.977 259.648 401.723 257.359 398.074 257.359Z" fill="#C4C4C4"/>
<path id="Vector_57" d="M357.387 377.484L349.387 347.812L319.066 377.484H357.387Z" fill="#AAA9A9"/>
<path id="Vector_58" d="M313.507 295.805C314.3 300.695 317.464 302.668 321.257 302.668C325.05 302.668 327.902 299.535 327.238 295.805C326.574 292.07 323.277 288.938 319.488 288.938C315.695 288.938 312.898 292.059 313.507 295.805Z" fill="#AAA9A9"/>
<path id="Vector_59" d="M398.207 359.27L395.891 352.836H398.805L401.121 359.27H398.207Z" fill="#1C1242"/>
<path id="Vector_60" d="M392.07 359.27L389.754 352.836H392.668L394.984 359.27H392.07Z" fill="#1C1242"/>
<path id="Vector_61" d="M385.938 359.27L383.621 352.836H386.531L388.852 359.27H385.938Z" fill="#1C1242"/>
<path id="Vector_62" d="M379.805 359.27L377.484 352.836H380.398L382.719 359.27H379.805Z" fill="#1C1242"/>
<path id="Vector_63" d="M292.668 359.27L290.352 352.836H293.266L295.582 359.27H292.668Z" fill="#1C1242"/>
<path id="Vector_64" d="M286.535 359.27L284.215 352.836H287.129L289.445 359.27H286.535Z" fill="#1C1242"/>
<path id="Vector_65" d="M280.398 359.27L278.082 352.836H280.996L283.312 359.27H280.398Z" fill="#1C1242"/>
<path id="Vector_66" d="M274.266 359.27L271.945 352.836H274.859L277.18 359.27H274.266Z" fill="#1C1242"/>
<path id="Vector_67" d="M296.527 412.824C298.308 407.715 319.875 338.121 319.875 338.121H347.558L349.387 347.812C349.387 347.812 330.824 407.715 329.047 412.824C328.91 413.215 328.781 413.605 328.66 414H328.664C327.035 419 331.328 418.977 336.16 418.977C340.996 418.977 384.984 418.977 384.984 418.977V423.402H303.644C293.859 423.402 294.75 417.937 296.527 412.824Z" fill="#C4C4C4"/>
<path id="Vector_68" d="M347.558 338.121C347.558 338.121 325.992 407.715 324.215 412.824C322.433 417.937 321.547 423.402 331.328 423.402H298.808C289.027 423.402 289.914 417.937 291.695 412.824C293.472 407.715 315.039 338.121 315.039 338.121H347.558Z" fill="#D2D2D2"/>
<path id="Vector_69" d="M340.777 338.121C338.633 338.023 336.488 337.973 334.344 337.902C332.199 337.828 330.055 337.812 327.91 337.766C325.766 337.73 323.621 337.672 321.477 337.668L315.039 337.629H314.684L314.57 337.977C313.672 340.777 312.789 343.586 311.945 346.402L309.383 354.852C307.73 360.5 306.078 366.148 304.566 371.844C306.551 366.297 308.387 360.703 310.227 355.113L312.898 346.699C313.801 343.898 314.66 341.086 315.512 338.27L315.039 338.613L321.477 338.574C323.621 338.574 325.766 338.512 327.91 338.477C330.055 338.43 332.199 338.414 334.344 338.34C336.488 338.27 338.633 338.219 340.777 338.121Z" fill="#AAA9A9"/>
<path id="Vector_70" d="M152.176 440.488H629.52C634.238 440.488 638.062 436.664 638.062 431.945C638.062 427.227 634.238 423.402 629.52 423.402H152.176C147.461 423.402 143.637 427.227 143.637 431.945C143.637 436.664 147.461 440.488 152.176 440.488Z" fill="#D8D8D8"/>
<path id="Vector_71" d="M152.176 440.488H629.52C634.238 440.488 638.062 436.664 638.062 431.945H143.637C143.637 436.664 147.461 440.488 152.176 440.488Z" fill="#8D8D8D"/>
<g id="user">
<g id="Group">
<g id="Group_2">
<path id="Vector_72" d="M282.218 210.367C283.582 217.223 277.234 223.316 275.25 224.461C273.261 225.602 259.925 230.934 251.914 231.125C243.902 231.312 233.328 214.367 237.656 212.461C241.984 210.559 271.461 208.465 274.699 208.465C277.937 208.465 282.218 210.367 282.218 210.367Z" fill="#EACDB0"/>
</g>
</g>
<g id="Group_3">
<g id="Group_4">
<path id="Vector_73" d="M261.207 206.75C257.711 227.317 249.406 243.313 246.816 243.598C244.226 243.883 219.328 235.313 212.465 232.172C205.601 229.028 214.574 180.762 218.844 181.614C223.117 182.461 232.48 191.735 240.215 196.18C247.945 200.629 261.207 206.75 261.207 206.75Z" fill="white"/>
</g>
</g>
<g id="Group_5">
<g id="Group_6">
<path id="Vector_74" d="M220.203 215.301C222.602 219.414 242.387 229.848 253.281 233.648C250.59 239.723 248.051 243.461 246.816 243.598C244.598 243.84 226.027 237.594 216.43 233.82C217.23 226.18 220.203 215.301 220.203 215.301Z" fill="#CBEAFB"/>
</g>
</g>
<g id="Group_7">
<g id="Group_8">
<path id="Vector_75" d="M282.246 209.415C282.441 217.575 275.093 218.747 266.297 216.653C257.5 214.559 243.132 194.754 236.738 185.805C230.347 176.856 218.414 160.907 215.949 159.477C213.48 158.051 207.824 157.294 202.98 149.243C198.14 141.196 204.507 124.344 206.797 122.344C209.086 120.344 228.687 127.02 230.965 130.395C233.242 133.77 229.351 151.907 230.043 154.192C230.734 156.477 247.418 175.141 254.703 179.711C261.988 184.282 282.105 203.512 282.246 209.415Z" fill="#EACDB0"/>
</g>
</g>
<g id="Group_9">
<g id="Group_10">
<path id="Vector_76" d="M216.836 135.809C214.531 134.668 213.973 129.476 215.426 130.391C216.875 131.309 219.414 131.285 222.844 131.238C226.277 131.191 227.687 130.894 227.687 130.894C227.687 130.894 228.035 133.144 228.019 134.984C228.019 134.984 219.144 136.953 216.836 135.809Z" fill="#EFBB86"/>
</g>
</g>
<g id="Group_11">
<g id="Group_12">
<path id="Vector_77" d="M201.57 136.988C202.968 134.391 204.046 132.418 204.046 132.418L217.535 145.398C221.222 142.203 225.734 139.285 225.734 139.285L226.921 141.398C224.738 145.094 222.839 152.898 222.796 154.805C222.796 154.805 220.722 157.09 219.566 157.277C219.566 157.277 233.996 180.129 243.269 191.363C252.492 202.535 258.804 212.195 263.152 215.301C254.382 210.242 242.421 193.754 236.738 185.805C230.347 176.855 218.414 160.906 215.949 159.477C213.48 158.051 207.824 157.293 202.98 149.242C201.062 146.051 200.918 141.477 201.57 136.988Z" fill="#EFBB86"/>
</g>
</g>
<g id="Group_13">
<g id="Group_14">
<path id="Vector_78" d="M229.64 138.293C229.476 139.625 216.078 151.242 214.676 152.574C214.57 152.676 213.519 152.828 213.234 152.574C209.668 149.442 194.105 121.184 193.828 120.16C193.57 119.211 203.902 109.488 207.055 106.891C207.484 106.535 209.254 106.75 209.547 107.18C212.73 111.895 229.851 136.57 229.64 138.293Z" fill="#03052E"/>
</g>
</g>
<g id="Group_15">
<g id="Group_16">
<path id="Vector_79" d="M228.199 138.293C228.039 139.625 214.637 151.242 213.234 152.574C211.832 153.906 192.687 121.266 192.387 120.16C192.129 119.211 203.633 109.648 206.785 107.047C207.215 106.691 207.812 106.75 208.105 107.18C211.289 111.895 228.41 136.57 228.199 138.293Z" fill="#2B3784"/>
</g>
</g>
<g id="Group_17">
<g id="Group_18">
<path id="Vector_80" d="M225.945 136.384C225.793 137.63 213.254 148.497 211.941 149.743C210.629 150.993 192.722 120.454 192.441 119.423C192.199 118.532 202.961 109.587 205.91 107.153C206.312 106.821 206.875 106.872 207.144 107.274C210.125 111.688 226.144 134.774 225.945 136.384Z" fill="#00ACE4"/>
</g>
</g>
<g id="Group_19">
<g id="Group_20">
<path id="Vector_81" d="M217.906 120.453C215.832 119.203 213.285 114.965 213.054 113.539C212.824 112.11 212.968 110.825 214.082 110.539C215.199 110.254 218.632 114.727 220.343 116.063C222.058 117.395 224.14 120.157 223.293 122.012C222.441 123.868 218.64 123.153 218.23 122.868C217.824 122.582 217.906 120.453 217.906 120.453Z" fill="#EACDB0"/>
</g>
</g>
<g id="Group_21">
<g id="Group_22">
<path id="Vector_82" d="M213.441 110.914C212.781 112.539 217.07 119.055 220.828 120.93L219.43 122.527C219.43 122.527 218.797 122.387 217.98 122.195C217.871 121.473 217.906 120.453 217.906 120.453C215.832 119.203 213.285 114.965 213.055 113.539C212.883 112.453 212.926 111.461 213.441 110.914Z" fill="#EFBB86"/>
</g>
</g>
<g id="Group_23">
<g id="Group_24">
<path id="Vector_83" d="M222.73 127.04C219.16 125.129 216.359 125.344 214.418 124.559C212.477 123.774 212.125 120.774 213.445 120.274C214.766 119.774 222.813 121.059 224.891 121.989C226.965 122.915 227.953 127.192 227.953 127.192L222.73 127.04Z" fill="#EACDB0"/>
</g>
</g>
<g id="Group_25">
<g id="Group_26">
<path id="Vector_84" d="M221.168 124.812C223.187 125.191 223.883 124.812 223.883 124.812C223.824 125.602 224.57 125.996 225.41 127.117L222.73 127.039C219.16 125.129 216.359 125.344 214.418 124.559C213.531 124.199 212.996 123.379 212.777 122.551C213.645 124.191 219.16 124.434 221.168 124.812Z" fill="#EFBB86"/>
</g>
</g>
<g id="Group_27">
<g id="Group_28">
<path id="Vector_85" d="M230.965 130.395C229.058 133.032 219.719 131.891 217.832 131.606C215.949 131.317 214.769 130.13 214.961 128.93C215.347 126.512 227.695 126.938 228.715 127.321C229.734 127.7 230.965 130.395 230.965 130.395Z" fill="#EACDB0"/>
</g>
</g>
<g id="Group_29">
<g id="Group_30">
<path id="Vector_86" d="M215.027 129.512C216.305 130.781 219.371 131.504 222.723 131.773C225.621 132.008 227.289 131.895 227.676 131.863C224.152 132.422 219.156 131.805 217.832 131.605C216.262 131.367 215.23 130.492 215.027 129.512Z" fill="#EFBB86"/>
</g>
</g>
<g id="Group_31">
<g id="Group_32">
<path id="Vector_87" d="M187.242 167.333C207.074 177.426 210.328 177.036 218.843 181.614C227.363 186.192 224.828 234.36 224.285 241.79C223.746 249.215 221.695 278.731 222.824 286.727C223.957 294.727 228.363 324.434 230.316 329.001C232.269 333.571 235.992 341.286 230.234 345.852C224.472 350.426 212.289 353.567 185.828 351.852C159.371 350.141 130.847 333.856 129.586 331.571C128.324 329.286 142.234 287.301 142.816 279.301C143.398 271.305 144.98 265.305 145.82 261.594C146.66 257.88 138.246 240.454 136.898 229.317C135.554 218.176 123.453 187.446 125.746 181.817C128.043 176.188 149.121 169.915 163.476 162.758C177.828 155.598 187.242 167.333 187.242 167.333Z" fill="white"/>
</g>
</g>
<g id="Group_33">
<g id="Group_34">
<path id="Vector_88" d="M206.902 179.824C203.637 190.555 196.992 200.227 188.145 207.125C177.406 204.488 166.484 199.758 157.691 193.055C167.52 200.293 178.238 206.383 189.715 210.539C199.406 202.602 205.156 192.23 206.902 179.824Z" fill="#CBEAFB"/>
</g>
</g>
<g id="Group_35">
<g id="Group_36">
<path id="Vector_89" d="M202.855 174.716C199.047 173.091 194.152 170.848 187.242 167.333C187.242 167.333 177.828 155.598 163.477 162.758C158.496 165.239 152.707 167.618 147.172 169.899C155.723 184.446 169.578 195.825 185.57 201.239C194.004 194.598 200.066 185.079 202.855 174.716Z" fill="#EACDB0"/>
</g>
</g>
<g id="Group_37">
<g id="Group_38">
<path id="Vector_90" d="M129.586 331.57C128.324 329.285 142.234 287.301 142.816 279.301C143.398 271.305 144.98 265.305 145.82 261.594C146.66 257.879 138.246 240.453 136.898 229.316C136.664 227.379 136.101 224.844 135.351 221.961L144.293 215.301C149.535 229.926 152.808 255.633 157.777 261.918C162.746 268.199 175.129 270.77 175.129 270.77C175.129 270.77 162.898 273.629 157.566 272.484C157.566 272.484 151.875 295.051 151.808 306.191C151.746 317.328 152.777 334.184 152.91 336.469C152.961 337.32 152.773 340.297 152.515 343.688C139.703 338.613 130.301 332.863 129.586 331.57Z" fill="#CBEAFB"/>
</g>
</g>
<g id="Group_39">
<g id="Group_40">
<path id="Vector_91" d="M165.727 142.465C165.523 154.383 164.738 162.57 162.094 164.855C162.094 164.855 166.637 184.637 184.773 182.945C190.906 182.375 190.324 172.094 187.242 167.332L189.066 152.715L165.727 142.465Z" fill="#EACDB0"/>
</g>
</g>
<g id="Group_41">
<g id="Group_42">
<path id="Vector_92" d="M163.477 162.758C165.027 159.102 165.562 151.977 165.727 142.465L189.066 152.715L187.895 162.09C183.758 163.945 163.477 162.758 163.477 162.758Z" fill="#EFBB86"/>
</g>
</g>
<g id="Group_43">
<g id="Group_44">
<path id="Vector_93" d="M139.543 230.54C145.004 219.805 147.191 202.372 142.262 193.196C137.332 184.02 128.027 180.715 125.746 181.817C123.465 182.919 117.285 197.231 111.48 203.84C105.679 210.446 89.8318 228.981 89.3514 230.54C88.8709 232.102 100.804 244.692 123.25 253.938C125.922 255.04 139.543 230.54 139.543 230.54Z" fill="white"/>
</g>
</g>
<g id="Group_45">
<g id="Group_46">
<path id="Vector_94" d="M122.895 238.863L119.312 246.207C119.312 246.207 136.953 228.523 144.277 215.328C143.391 220.832 141.738 226.227 139.543 230.539C139.543 230.539 125.926 255.039 123.25 253.938C119.41 252.355 115.902 250.676 112.688 248.969L122.895 238.863Z" fill="#CBEAFB"/>
</g>
</g>
<g id="Group_47">
<g id="Group_48">
<path id="Vector_95" d="M190.414 143.532C189.203 138.618 189.23 133.594 188.937 128.567C188.719 124.813 188.527 121.371 185.117 119.125C182.625 117.485 179.5 117.161 176.566 117.532C168.687 118.532 166.992 126.211 167.594 133.481C168.059 139.047 170.23 144.391 172.391 149.512C169.492 149.383 165.535 147.864 163.805 145.45C164.582 148.625 166.055 151.539 168.355 153.786C159.957 153.641 152.16 148.145 147.715 140.766C143.266 133.387 141.855 124.375 142.328 115.688C142.891 105.383 146.105 95.0472 152.48 87.1136C165.305 71.1488 190.012 69.2894 205.055 83.0082C210.226 87.723 213.98 94.0433 215.855 100.899C218.324 109.911 218.273 119.582 216.351 128.696C215.555 132.473 215.191 135.739 214.816 139.52C214.699 140.692 213.277 154.297 214.101 154.246C208.797 154.571 202.699 153.496 199.105 149.442C200.719 152.227 202.109 154.911 203.719 157.696C197.019 156.582 192.098 150.34 190.414 143.532Z" fill="#3D3D3D"/>
</g>
</g>
<g id="Group_49">
<g id="Group_50">
<path id="Vector_96" d="M162.887 124.988C160.515 123.59 157.668 122.828 155.473 125.059C152.23 128.344 156.832 143.625 163.816 139.91C163.816 139.91 173.926 154.051 181.348 158.051C188.769 162.047 194.055 160.051 196.836 157.191C199.613 154.336 209.09 142.621 210.797 130.199C211.402 125.773 210.75 117.062 210.887 115.203C211.305 109.492 213.469 104.801 208.961 100.316C204.41 95.7891 198.105 93.0508 191.687 92.8203C183.601 92.5352 175.523 96.1719 170.172 102.234C164.258 108.934 163.23 116.5 162.887 124.988Z" fill="#EACDB0"/>
</g>
</g>
<g id="Group_51">
<g id="Group_52">
<path id="Vector_97" d="M156.617 129.235C157.223 126.438 159.609 125.884 161.387 127.837C163.207 129.837 163.512 136.169 163.047 137.102C162.578 138.036 159.449 137.97 158.855 136.036C158.266 134.102 160.086 132.891 161.844 133.462C161.844 133.462 162.336 130.641 160.898 128.825C159.461 127.009 157.965 127.704 157.598 128.169C157.227 128.638 156.617 129.235 156.617 129.235Z" fill="#EFBB86"/>
</g>
</g>
<g id="Group_53">
<g id="Group_54">
<path id="Vector_98" d="M166.871 111.844C173.371 111.567 179.816 110.137 185.82 107.637C186.965 104.993 187.004 102.649 187.176 99.7742C188.809 102.77 189.777 106.122 189.945 109.532C193.73 109.286 197.531 109.083 201.316 108.837C202.379 105.837 202.504 102.751 202.336 99.575C203.617 102.559 204.258 106.313 204.695 109.528C206.98 108.719 209.875 109.903 212.262 110.329C215.219 103.743 215.023 91.8054 208.769 86.8093C202.676 81.9422 192.094 80.6218 184.648 81.6961C168.809 83.989 156.359 97.1414 157.344 113.528C157.902 122.876 162.59 131.712 169.316 138.231C165.316 130.255 164.523 120.45 166.871 111.844Z" fill="#444444"/>
</g>
</g>
</g>
</g>
<g id="ans">
<path id="Vector_99" d="M581.267 178.863C581.725 177.738 574.267 185.405 581.267 178.863ZM581.267 178.863C574.166 185.499 574.267 185.405 581.267 178.863ZM581.267 178.863C580.194 172.497 572.837 150.483 572.824 140.427C572.686 111.608 609.676 102 653.715 102C692.123 102 724.5 96.5 730.302 118C736.104 139.5 733.5 147.5 733.5 147.5C733.5 147.5 732 157 730.302 160.178C728.604 163.356 712.998 188.311 689.275 188.311C682.271 188.311 637.28 191.875 632.107 190.906C626.934 189.937 621.807 188.655 620.479 188.311C619.118 187.961 617.676 187.781 616.222 187.78C614.635 187.776 613.063 187.988 611.598 188.405L564 195L581.267 178.863Z" stroke="#7B7B7B" stroke-miterlimit="10" stroke-linecap="round"/>
<g id="Line 69">
<path d="M601.388 131.608C599.477 126.582 606.267 128.011 606.267 128.011M640.558 132.797C622.096 124.913 623.674 134.107 631.364 133.185M606.267 128.011L615.931 130.862M606.267 128.011C606.267 128.011 607.885 137.301 615.931 130.862M615.931 130.862C615.279 146.52 621.08 132.019 621.08 132.019M621.08 132.019C621.08 132.019 639.054 132.263 631.364 133.185M621.08 132.019C621.08 132.019 624.705 131.129 631.364 133.185" stroke="#888888"/>
<path d="M601.388 131.608C599.477 126.582 606.267 128.011 606.267 128.011M640.558 132.797C622.096 124.913 623.674 134.107 631.364 133.185M606.267 128.011L615.931 130.862M606.267 128.011C606.267 128.011 607.885 137.301 615.931 130.862M615.931 130.862C615.279 146.52 621.08 132.019 621.08 132.019M621.08 132.019C621.08 132.019 639.054 132.263 631.364 133.185M621.08 132.019C621.08 132.019 624.705 131.129 631.364 133.185" stroke="#888888"/>
<path d="M601.388 131.608C599.477 126.582 606.267 128.011 606.267 128.011M640.558 132.797C622.096 124.913 623.674 134.107 631.364 133.185M606.267 128.011L615.931 130.862M606.267 128.011C606.267 128.011 607.885 137.301 615.931 130.862M615.931 130.862C615.279 146.52 621.08 132.019 621.08 132.019M621.08 132.019C621.08 132.019 639.054 132.263 631.364 133.185M621.08 132.019C621.08 132.019 624.705 131.129 631.364 133.185" stroke="#888888"/>
<path d="M601.388 131.608C599.477 126.582 606.267 128.011 606.267 128.011M640.558 132.797C622.096 124.913 623.674 134.107 631.364 133.185M606.267 128.011L615.931 130.862M606.267 128.011C606.267 128.011 607.885 137.301 615.931 130.862M615.931 130.862C615.279 146.52 621.08 132.019 621.08 132.019M621.08 132.019C621.08 132.019 639.054 132.263 631.364 133.185M621.08 132.019C621.08 132.019 624.705 131.129 631.364 133.185" stroke="#888888"/>
</g>
<g id="Line 71">
<path d="M651.473 135.346C649.621 132.901 656.392 133.524 656.392 133.524M690.619 135.477C672.253 131.82 781.801 132.894 681.384 137.401M656.392 133.524L662.755 135.799M656.392 133.524C656.392 133.524 654.637 139.054 662.755 135.799M662.755 135.799C661.922 143.494 674.38 133.188 674.38 133.188M674.38 133.188C674.38 133.188 580.968 141.908 681.384 137.401M674.38 133.188C674.38 133.188 674.751 136.469 681.384 137.401" stroke="#888888"/>
<path d="M651.473 135.346C649.621 132.901 656.392 133.524 656.392 133.524M690.619 135.477C672.253 131.82 781.801 132.894 681.384 137.401M656.392 133.524L662.755 135.799M656.392 133.524C656.392 133.524 654.637 139.054 662.755 135.799M662.755 135.799C661.922 143.494 674.38 133.188 674.38 133.188M674.38 133.188C674.38 133.188 580.968 141.908 681.384 137.401M674.38 133.188C674.38 133.188 674.751 136.469 681.384 137.401" stroke="#888888"/>
<path d="M651.473 135.346C649.621 132.901 656.392 133.524 656.392 133.524M690.619 135.477C672.253 131.82 781.801 132.894 681.384 137.401M656.392 133.524L662.755 135.799M656.392 133.524C656.392 133.524 654.637 139.054 662.755 135.799M662.755 135.799C661.922 143.494 674.38 133.188 674.38 133.188M674.38 133.188C674.38 133.188 580.968 141.908 681.384 137.401M674.38 133.188C674.38 133.188 674.751 136.469 681.384 137.401" stroke="#888888"/>
<path d="M651.473 135.346C649.621 132.901 656.392 133.524 656.392 133.524M690.619 135.477C672.253 131.82 781.801 132.894 681.384 137.401M656.392 133.524L662.755 135.799M656.392 133.524C656.392 133.524 654.637 139.054 662.755 135.799M662.755 135.799C661.922 143.494 674.38 133.188 674.38 133.188M674.38 133.188C674.38 133.188 580.968 141.908 681.384 137.401M674.38 133.188C674.38 133.188 674.751 136.469 681.384 137.401" stroke="#888888"/>
</g>
<g id="Line 70">
<path d="M692.661 161.582C697.462 166.378 679.564 165.035 679.564 165.035M589.044 160.576C637.508 168.048 633.801 159.268 613.399 160.175M679.564 165.035L654.13 162.343M679.564 165.035C679.564 165.035 675.755 156.163 654.13 162.343M654.13 162.343C656.657 147.378 640.56 161.254 640.56 161.254M640.56 161.254C640.56 161.254 592.997 161.082 613.399 160.175M640.56 161.254C640.56 161.254 630.918 162.117 613.399 160.175" stroke="#888888"/>
<path d="M692.661 161.582C697.462 166.378 679.564 165.035 679.564 165.035M589.044 160.576C637.508 168.048 633.801 159.268 613.399 160.175M679.564 165.035L654.13 162.343M679.564 165.035C679.564 165.035 675.755 156.163 654.13 162.343M654.13 162.343C656.657 147.378 640.56 161.254 640.56 161.254M640.56 161.254C640.56 161.254 592.997 161.082 613.399 160.175M640.56 161.254C640.56 161.254 630.918 162.117 613.399 160.175" stroke="#888888"/>
<path d="M692.661 161.582C697.462 166.378 679.564 165.035 679.564 165.035M589.044 160.576C637.508 168.048 633.801 159.268 613.399 160.175M679.564 165.035L654.13 162.343M679.564 165.035C679.564 165.035 675.755 156.163 654.13 162.343M654.13 162.343C656.657 147.378 640.56 161.254 640.56 161.254M640.56 161.254C640.56 161.254 592.997 161.082 613.399 160.175M640.56 161.254C640.56 161.254 630.918 162.117 613.399 160.175" stroke="#888888"/>
<path d="M692.661 161.582C697.462 166.378 679.564 165.035 679.564 165.035M589.044 160.576C637.508 168.048 633.801 159.268 613.399 160.175M679.564 165.035L654.13 162.343M679.564 165.035C679.564 165.035 675.755 156.163 654.13 162.343M654.13 162.343C656.657 147.378 640.56 161.254 640.56 161.254M640.56 161.254C640.56 161.254 592.997 161.082 613.399 160.175M640.56 161.254C640.56 161.254 630.918 162.117 613.399 160.175" stroke="#888888"/>
</g>
</g>
<g id="help">
<path id="Vector_100" d="M247 47.6679C247 47.6679 247.225 42.4432 252.241 38.2539C255.219 35.7666 258.795 35.0462 262 35.0019C264.927 34.9654 267.542 35.4673 269.106 36.24C271.78 37.5667 277 40.7966 277 47.6679C277 54.8986 272.441 58.176 267.258 61.7874C262.075 65.3988 260.75 68.9405 260.75 73" stroke="#7B7B7B" stroke-opacity="0.81" stroke-width="3" stroke-miterlimit="10" stroke-linecap="round"/>
<path id="Vector_101" d="M260.5 86C261.881 86 263 84.8807 263 83.5C263 82.1193 261.881 81 260.5 81C259.119 81 258 82.1193 258 83.5C258 84.8807 259.119 86 260.5 86Z" fill="#7B7B7B" fill-opacity="0.81"/>
</g>
</g>
<defs>
<clipPath id="clip0_85:24">
<rect width="750" height="500" fill="white"/>
</clipPath>
</defs>
</svg>
