<svg width="580" height="403" viewBox="0 0 580 403" fill="none" xmlns="http://www.w3.org/2000/svg">
<g id="school">
<g id="background">
<path id="Vector" d="M0.0234375 258.184H44.6875V86.168H0.0234375V258.184Z" fill="#BDF3FF"/>
<path id="Vector_2" d="M219.316 251.184H263.727V79.168H219.316V251.184Z" fill="#BDF3FF"/>
<path id="Vector_3" d="M428.23 251.184H472.645V97.168L428.23 79.168V251.184Z" fill="#BDF3FF"/>
<path id="Vector_4" d="M44.6875 229.184H89.0977V125.188H44.6875V229.184Z" fill="#BDF3FF"/>
<path id="Vector_5" d="M0.0859375 276.852H579.977V187.977H0.0859375V276.852Z" fill="#BDF3FF"/>
<path id="Vector_6" d="M71.6953 229.184H116.109V106.402H71.6953V229.184Z" fill="#BDF3FF"/>
<path id="Vector_7" d="M122.457 229.184H166.871V106.402H122.457V229.184Z" fill="#BDF3FF"/>
<path id="Vector_8" d="M483.539 220.184H527.953V97.4023H483.539V220.184Z" fill="#BDF3FF"/>
<path id="Vector_9" d="M535.875 229.184H579.965V93.3203L535.875 106.402V229.184Z" fill="#BDF3FF"/>
<path id="Vector_10" d="M188.062 201.711C195.633 201.711 201.824 195.52 201.824 187.949V90.7695C201.824 83.1992 195.633 77.0078 188.062 77.0078C180.492 77.0078 174.301 83.1992 174.301 90.7695V187.949C174.301 195.52 180.492 201.711 188.062 201.711Z" fill="#BDF3FF"/>
<path id="Vector_11" d="M429.02 192.992H357.258V93.3203C396.891 93.3203 429.02 125.449 429.02 165.086V192.992Z" fill="#BDF3FF"/>
<path id="Vector_12" d="M544.68 136.051C545.469 136.051 546.113 135.406 546.113 134.617V73.1719C546.113 72.3828 545.469 71.7383 544.68 71.7383C543.891 71.7383 543.242 72.3828 543.242 73.1719V134.617C543.242 135.406 543.891 136.051 544.68 136.051Z" fill="#BDF3FF"/>
<path id="Vector_13" d="M241.133 229.184H288.102V168.012H241.133V229.184Z" fill="#BDF3FF"/>
<path id="Vector_14" d="M357.926 229.184H402.34V142.594H357.926V229.184Z" fill="#BDF3FF"/>
<path id="Vector_15" d="M304.812 229.184H349.227V142.594H304.812V229.184Z" fill="#BDF3FF"/>
<path id="Vector_16" d="M266.055 185.145C266.844 185.145 267.488 184.496 267.488 183.707V122.262C267.488 121.473 266.844 120.828 266.055 120.828C265.262 120.828 264.617 121.473 264.617 122.262V183.707C264.617 184.496 265.262 185.145 266.055 185.145Z" fill="#BDF3FF"/>
</g>
<g id="building">
<path id="Vector_17" d="M128.93 275.707H451.07V135.23H128.93V275.707Z" fill="#D49078"/>
<path id="Vector_18" d="M330.781 255.137H449.07V167.559H330.781V255.137Z" fill="#333B4E"/>
<path id="Vector_19" d="M413.898 240.113H409.52L413.699 222.969H418.074L413.898 240.113ZM418.809 219.969H414.43L421.453 191.141H422.676V204.102L418.809 219.969Z" fill="#4A6A6F"/>
<path id="Vector_20" d="M404.562 240.113H403.66V236.617L407.043 222.969H408.812L404.562 240.113ZM409.559 219.969H407.789L414.938 191.129H416.707L409.559 219.969Z" fill="#4A6A6F"/>
<path id="Vector_21" d="M395.949 254.652H390.082L393.344 243.113H399.207L395.949 254.652Z" fill="#4A6A6F"/>
<path id="Vector_22" d="M383.453 254.652H381.082L384.59 243.113H386.957L383.453 254.652Z" fill="#4A6A6F"/>
<path id="Vector_23" d="M439.676 254.652H433.812L436.633 243.113H442.496L439.676 254.652ZM443.23 240.113H437.367L441.559 222.969H445.676V230.121L443.23 240.113Z" fill="#4A6A6F"/>
<path id="Vector_24" d="M427.16 254.652H424.789L424.816 254.555H426.66V247.27L427.715 243.113H430.086L427.16 254.652ZM430.844 240.113H428.473L432.816 222.969H435.188L430.844 240.113Z" fill="#4A6A6F"/>
<path id="Vector_25" d="M389.793 240.113H385.875L391.492 214.398H395.41L389.793 240.113ZM396.066 211.398H392.148L396.574 191.129H399.676V194.875L396.066 211.398Z" fill="#4A6A6F"/>
<path id="Vector_26" d="M381.465 239.969H379.883L385.566 214.398H387.148L381.465 239.969ZM387.816 211.398H386.23L390.738 191.129H392.32L387.816 211.398Z" fill="#4A6A6F"/>
<path id="Vector_27" d="M362.645 254.652H358.82L362.125 243.113H365.953L362.645 254.652ZM366.812 240.113H362.984L369.398 217.73H373.223L366.812 240.113Z" fill="#4A6A6F"/>
<path id="Vector_28" d="M354.48 254.652H352.934L356.297 243.113H357.844L354.48 254.652ZM358.719 240.113H357.172L363.695 217.73H365.242L358.719 240.113Z" fill="#4A6A6F"/>
<path id="Vector_29" d="M436.27 219.969H432.043L437.77 194.129H441.996L436.27 219.969ZM442.66 191.129H438.438L443.656 167.566H447.883H445.676V177.535L442.66 191.129Z" fill="#4A6A6F"/>
<path id="Vector_30" d="M427.254 219.969H426.66V215.027L431.371 194.129H433.082L427.254 219.969ZM433.758 191.129H432.051L437.363 167.566H439.07L433.758 191.129Z" fill="#4A6A6F"/>
<path id="Vector_31" d="M392.113 188.129H388.148L393.281 167.566H397.246L392.113 188.129Z" fill="#4A6A6F"/>
<path id="Vector_32" d="M383.758 188.129H382.152L387.375 167.566H388.977L383.758 188.129Z" fill="#4A6A6F"/>
<path id="Vector_33" d="M367.699 214.73H363.297L369.113 191.129H373.516L367.699 214.73Z" fill="#4A6A6F"/>
<path id="Vector_34" d="M358.41 214.73H356.633L362.551 191.129H364.328L358.41 214.73Z" fill="#4A6A6F"/>
<path id="Vector_35" d="M368.238 188.129H362.516L367.609 167.566H373.336L368.238 188.129Z" fill="#4A6A6F"/>
<path id="Vector_36" d="M356.16 188.129H353.848L359.031 167.566H361.344L356.16 188.129Z" fill="#4A6A6F"/>
<path id="Vector_37" d="M340.129 254.652H336.305L341.129 237.816H344.953L340.129 254.652ZM345.812 234.816H341.988L346.883 217.73H347.676V228.32L345.812 234.816Z" fill="#4A6A6F"/>
<path id="Vector_38" d="M331.766 251.93L331.828 249.809L335.324 237.816H336.871L332.77 251.891L331.766 251.93ZM337.746 234.816H336.199L341.18 217.73H342.727L337.746 234.816Z" fill="#4A6A6F"/>
<path id="Vector_39" d="M345.492 214.73H341.09L346.551 194.629H347.676V206.707L345.492 214.73Z" fill="#4A6A6F"/>
<path id="Vector_40" d="M336.211 214.73H334.43L339.988 194.629H341.766L336.211 214.73Z" fill="#4A6A6F"/>
<path id="Vector_41" d="M345.57 191.629H339.93L344.91 167.566H350.551H347.676V181.469L345.57 191.629Z" fill="#4A6A6F"/>
<path id="Vector_42" d="M333.668 191.629H333.531L333.875 179.816L336.457 167.566H338.734L333.668 191.629Z" fill="#4A6A6F"/>
<path id="Vector_43" d="M418.965 188.129H413.359L418.016 167.566H423.617H422.676V171.734L418.965 188.129Z" fill="#4A6A6F"/>
<path id="Vector_44" d="M407.141 188.129H404.879L409.613 167.566H411.879L407.141 188.129Z" fill="#4A6A6F"/>
<path id="Vector_45" d="M425.832 194.129H450.59V191.129H425.832V194.129Z" fill="#D49078"/>
<path id="Vector_46" d="M403.512 222.969H448.59V219.969H403.512V222.969Z" fill="#D49078"/>
<path id="Vector_47" d="M351.668 191.129H425.48V188.129H351.668V191.129Z" fill="#D49078"/>
<path id="Vector_48" d="M377 214.398H403.668V211.398H377V214.398Z" fill="#D49078"/>
<path id="Vector_49" d="M367 242.969H384.969V239.969H367V242.969Z" fill="#D49078"/>
<path id="Vector_50" d="M328.668 237.816H351.078V234.816H328.668V237.816Z" fill="#D49078"/>
<path id="Vector_51" d="M332.383 217.73H377V214.73H332.383V217.73Z" fill="#D49078"/>
<path id="Vector_52" d="M329.668 194.629H352.078V191.629H329.668V194.629Z" fill="#D49078"/>
<path id="Vector_53" d="M351.492 243.113H448.359V240.113H351.492V243.113Z" fill="#D49078"/>
<path id="Vector_54" d="M507.668 167.566H332V135.23H503.918C505.988 135.23 507.668 136.91 507.668 138.98V167.566Z" fill="#FAD4AE"/>
<path id="Vector_55" d="M507.668 167.566H334.234L334.266 166.504H507.668V167.566Z" fill="#C18065"/>
<path id="Vector_56" d="M451.031 275.809H76.9844V257.492C76.9844 255.926 78.2539 254.652 79.8242 254.652H451.031V275.809Z" fill="#A46B58"/>
<path id="Vector_57" d="M128.93 208.964H75.832L74.1953 190.547C73.9999 188.382 75.7265 186.531 77.9023 186.57L128.93 187.496V208.964Z" fill="#FAD4AE"/>
<path id="Vector_58" d="M504.168 208.965H451.07V187.496H499.551C502.098 187.496 504.168 189.563 504.168 192.113V208.965Z" fill="#FAD4AE"/>
<path id="Vector_59" d="M504.168 208.965H451.07V207.82H504.168V208.965Z" fill="#C18065"/>
<path id="Vector_60" d="M248.93 121.761C248.93 120.179 250.211 118.894 251.793 118.89L333.129 118.66C334.5 118.609 335.633 119.73 335.594 121.105L331.07 275.707H248.93V121.761Z" fill="#A46B58"/>
<path id="Vector_61" d="M255.93 131.23L255.828 254.566H325.172L326.449 131.23H255.93Z" fill="#FAD4AE"/>
<path id="Vector_62" d="M257.852 219.898L257.828 253.566H278.395V219.898H257.852Z" fill="#333B4E"/>
<path id="Vector_63" d="M280.492 253.566H301V219.898H280.492V253.566Z" fill="#333B4E"/>
<path id="Vector_64" d="M303.137 219.898V253.566H322.625L324.172 219.898H303.137Z" fill="#333B4E"/>
<path id="Vector_65" d="M313.148 253.566H309.496L314.164 239.566H317.816L313.148 253.566Z" fill="#4F7476"/>
<path id="Vector_66" d="M305.355 253.566H303.883L308.633 239.566H310.105L305.355 253.566Z" fill="#4F7476"/>
<path id="Vector_67" d="M290.191 253.566H286.547L291.211 239.566H294.855L290.191 253.566Z" fill="#4F7476"/>
<path id="Vector_68" d="M282.41 253.566H280.938L285.684 239.566H287.156L282.41 253.566Z" fill="#4F7476"/>
<path id="Vector_69" d="M266.34 253.566H263.246L267.203 239.566H270.297L266.34 253.566Z" fill="#4F7476"/>
<path id="Vector_70" d="M259.734 253.566H258.484L262.512 239.566H263.762L259.734 253.566Z" fill="#4F7476"/>
<path id="Vector_71" d="M332.113 239.566H325.324L325.535 219.23H332.703L332.113 239.566ZM255.84 239.566H248.93V219.23H255.859L255.84 239.566Z" fill="#623E3A"/>
<path id="Vector_72" d="M325.324 239.566H323.27L324.172 219.898H303.137V239.566H301V219.898H280.492V239.566H278.395V219.898H257.852L257.84 239.566H255.84L255.859 219.23H325.535L325.324 239.566Z" fill="#8D7265"/>
<path id="Vector_73" d="M278.395 239.566H270.297L275.137 222.453H272.039L267.203 239.566H263.762L268.836 221.93H267.582L262.512 239.566H257.84L257.852 219.898H278.395V239.566Z" fill="#292635"/>
<path id="Vector_74" d="M301 239.566H294.855L300.555 222.453H296.91L291.211 239.566H287.156L293.133 221.93H291.656L285.684 239.566H280.492V219.898H301V239.566Z" fill="#292635"/>
<path id="Vector_75" d="M323.27 239.566H317.816L323.523 222.453H319.871L314.164 239.566H310.105L316.09 221.93H314.613L308.633 239.566H303.137V219.898H324.172L323.27 239.566Z" fill="#292635"/>
<path id="Vector_76" d="M317.816 239.566H314.164L319.871 222.453H323.523L317.816 239.566Z" fill="#374249"/>
<path id="Vector_77" d="M310.105 239.566H308.633L314.613 221.93H316.09L310.105 239.566Z" fill="#374249"/>
<path id="Vector_78" d="M294.855 239.566H291.211L296.91 222.453H300.555L294.855 239.566Z" fill="#374249"/>
<path id="Vector_79" d="M287.156 239.566H285.684L291.656 221.93H293.133L287.156 239.566Z" fill="#374249"/>
<path id="Vector_80" d="M270.297 239.566H267.203L272.039 222.453H275.137L270.297 239.566Z" fill="#374249"/>
<path id="Vector_81" d="M263.762 239.566H262.512L267.582 221.93H268.836L263.762 239.566Z" fill="#374249"/>
<path id="Vector_82" d="M333.41 229.375H247.359V212.871H334.41L333.41 229.375Z" fill="#E2BA7D"/>
<path id="Vector_83" d="M334.336 214.066L334.41 212.871H247.359V214.066H334.336Z" fill="#FFF5B6"/>
<path id="Vector_84" d="M139.668 152.23H154.156V148.23H139.668V152.23Z" fill="#BE6B58"/>
<path id="Vector_85" d="M146.91 157.441H161.402V153.441H146.91V157.441Z" fill="#BE6B58"/>
<path id="Vector_86" d="M195.883 209.23H210.371V205.23H195.883V209.23Z" fill="#BE6B58"/>
<path id="Vector_87" d="M203.129 214.438H217.617V210.438H203.129V214.438Z" fill="#BE6B58"/>
<path id="Vector_88" d="M204.934 203.887H219.422V199.887H204.934V203.887Z" fill="#BE6B58"/>
<path id="Vector_89" d="M212.18 209.094H226.668V205.094H212.18V209.094Z" fill="#BE6B58"/>
<path id="Vector_90" d="M217.617 152.105H232.105V148.105H217.617V152.105Z" fill="#BE6B58"/>
<path id="Vector_91" d="M224.863 157.312H239.352V153.312H224.863V157.312Z" fill="#BE6B58"/>
<path id="Vector_92" d="M170.367 235.566H184.855V231.566H170.367V235.566Z" fill="#BE6B58"/>
<path id="Vector_93" d="M177.609 240.773H192.102V236.773H177.609V240.773Z" fill="#BE6B58"/>
<path id="Vector_94" d="M160.922 179.348H175.41V175.348H160.922V179.348Z" fill="#BE6B58"/>
<path id="Vector_95" d="M168.164 184.555H182.656V180.555H168.164V184.555Z" fill="#BE6B58"/>
<path id="Vector_96" d="M209.75 146.566H224.238V142.566H209.75V146.566Z" fill="#BE6B58"/>
<path id="Vector_97" d="M193.082 146.566H207.574V142.566H193.082V146.566Z" fill="#BE6B58"/>
<path id="Vector_98" d="M201.547 152.23H216.035V148.23H201.547V152.23Z" fill="#BE6B58"/>
<path id="Vector_99" d="M158.336 209.395H172.828V205.395H158.336V209.395Z" fill="#BE6B58"/>
<path id="Vector_100" d="M141.672 209.395H156.16V205.395H141.672V209.395Z" fill="#BE6B58"/>
<path id="Vector_101" d="M150.133 215.062H164.625V211.062H150.133V215.062Z" fill="#BE6B58"/>
<path id="Vector_102" d="M402.332 143.961H416.824V139.961H402.332V143.961Z" fill="#E6B38B"/>
<path id="Vector_103" d="M409.578 149.168H424.066V145.168H409.578V149.168Z" fill="#E6B38B"/>
<path id="Vector_104" d="M425.105 149.629H439.594V145.629H425.105V149.629Z" fill="#E6B38B"/>
<path id="Vector_105" d="M432.352 154.836H446.84V150.836H432.352V154.836Z" fill="#E6B38B"/>
<path id="Vector_106" d="M490.102 147.629H504.59V143.629H490.102V147.629Z" fill="#E6B38B"/>
<path id="Vector_107" d="M490.102 163.566H504.59V159.566H490.102V163.566Z" fill="#E6B38B"/>
<path id="Vector_108" d="M449.02 144.566H463.512V140.566H449.02V144.566Z" fill="#E6B38B"/>
<path id="Vector_109" d="M456.266 149.773H470.754V145.773H456.266V149.773Z" fill="#E6B38B"/>
<path id="Vector_110" d="M376.188 158.961H390.676V154.961H376.188V158.961Z" fill="#E6B38B"/>
<path id="Vector_111" d="M383.43 164.168H397.922V160.168H383.43V164.168Z" fill="#E6B38B"/>
<path id="Vector_112" d="M479.234 194.293H493.723V190.293H479.234V194.293Z" fill="#E6B38B"/>
<path id="Vector_113" d="M486.477 199.504H500.969V195.504H486.477V199.504Z" fill="#E6B38B"/>
<path id="Vector_114" d="M452.645 194.629H467.133V190.629H452.645V194.629Z" fill="#E6B38B"/>
<path id="Vector_115" d="M459.887 205.836H474.379V201.836H459.887V205.836Z" fill="#E6B38B"/>
<path id="Vector_116" d="M354.418 143.73H368.906V139.73H354.418V143.73Z" fill="#E6B38B"/>
<path id="Vector_117" d="M337.75 143.73H352.238V139.73H337.75V143.73Z" fill="#E6B38B"/>
<path id="Vector_118" d="M346.215 149.398H360.703V145.398H346.215V149.398Z" fill="#E6B38B"/>
<path id="Vector_119" d="M238 254.652H222.246V254.52L238 254.355V254.652Z" fill="#7A504A"/>
<path id="Vector_120" d="M222.238 256.52L222.246 254.652H238V256.355L222.238 256.52Z" fill="#623E3A"/>
<path id="Vector_121" d="M238 210.609L222.387 210.91L222.238 254.52L238 254.355V210.609Z" fill="#FAD4AE"/>
<path id="Vector_122" d="M224.816 231.43L224.879 213.363L235.5 213.156V231.43H224.816ZM224.805 234.93H235.5V251.879L224.746 251.996L224.805 234.93Z" fill="#333B4E"/>
<path id="Vector_123" d="M225.305 235.43H235V251.387L225.25 251.488L225.305 235.43ZM224.246 252.5L236 252.375V234.43H224.309L224.246 252.5Z" fill="#00232D"/>
<path id="Vector_124" d="M235 230.93H225.32L225.375 213.852L235 213.668V230.93ZM224.379 212.871L224.316 231.93H236V212.648L224.379 212.871Z" fill="#00232D"/>
<path id="Vector_125" d="M224.246 252.5L227.223 252.469L224.246 252.5ZM224.246 252.5L224.27 245.664L224.246 252.5Z" fill="#D0E2BD"/>
<path id="Vector_126" d="M225.25 251.488L225.273 243.93C226.91 241.043 228.531 238.152 230.426 235.43H234.371C231.73 240.555 229.66 246.043 227.602 251.465L225.25 251.488Z" fill="#588683"/>
<path id="Vector_127" d="M224.246 252.5L224.27 245.664L224.348 245.562C224.656 245.02 224.969 244.477 225.273 243.93L225.25 251.488L227.602 251.465C227.477 251.801 227.348 252.133 227.223 252.469L224.246 252.5ZM234.371 235.43H230.426C230.656 235.094 230.895 234.762 231.137 234.43H234.898C234.719 234.762 234.547 235.094 234.371 235.43Z" fill="#3A786F"/>
<path id="Vector_128" d="M227.477 230.93H225.32L225.332 226.891C226.059 225.309 226.785 223.727 227.504 222.141C227.875 221.32 228.258 220.5 228.645 219.68C230.051 217.637 231.52 215.633 233.121 213.703L235 213.668V220.398C231.844 223.434 229.777 227.246 227.477 230.93Z" fill="#588683"/>
<path id="Vector_129" d="M233.984 212.688L236 212.648L233.984 212.688Z" fill="#D0E2BD"/>
<path id="Vector_130" d="M226.844 231.93H224.316L224.324 229.082C224.66 228.352 224.996 227.621 225.332 226.891L225.32 230.93H227.477C227.266 231.266 227.055 231.598 226.844 231.93ZM235 220.398V213.668L233.121 213.703C233.406 213.363 233.691 213.023 233.984 212.688L236 212.648V219.492C235.652 219.785 235.32 220.09 235 220.398Z" fill="#3A786F"/>
<path id="Vector_131" d="M210.832 254.652H195.078V254.52L210.832 254.355V254.652Z" fill="#7A504A"/>
<path id="Vector_132" d="M195.07 256.52L195.078 254.652H210.832V256.355L195.07 256.52Z" fill="#623E3A"/>
<path id="Vector_133" d="M210.832 210.609L195.219 210.91L195.07 254.52L210.832 254.355V210.609Z" fill="#FAD4AE"/>
<path id="Vector_134" d="M197.648 231.43L197.711 213.363L208.332 213.156V231.43H197.648ZM197.637 234.93H208.332V251.879L197.578 251.996L197.637 234.93Z" fill="#333B4E"/>
<path id="Vector_135" d="M198.137 235.43H207.832V251.387L198.082 251.488L198.137 235.43ZM197.078 252.5L208.832 252.375V234.43H197.141L197.078 252.5Z" fill="#00232D"/>
<path id="Vector_136" d="M198.207 213.852L207.832 213.668V230.93H198.148L198.207 213.852ZM197.148 231.93H208.832V212.648L197.211 212.871L197.148 231.93Z" fill="#00232D"/>
<path id="Vector_137" d="M197.078 252.5L200.055 252.469L197.078 252.5ZM197.078 252.5L197.102 245.664L197.078 252.5Z" fill="#D0E2BD"/>
<path id="Vector_138" d="M198.082 251.488L198.105 243.93C199.742 241.043 201.363 238.152 203.254 235.43H207.203C204.562 240.555 202.492 246.043 200.434 251.465L198.082 251.488Z" fill="#588683"/>
<path id="Vector_139" d="M197.078 252.5L197.102 245.664L197.18 245.562C197.488 245.02 197.797 244.477 198.105 243.93L198.082 251.488L200.434 251.465C200.309 251.801 200.18 252.133 200.055 252.469L197.078 252.5ZM207.203 235.43H203.254C203.488 235.094 203.727 234.762 203.969 234.43H207.727C207.551 234.762 207.375 235.094 207.203 235.43Z" fill="#3A786F"/>
<path id="Vector_140" d="M206.816 212.688L208.832 212.648L206.816 212.688Z" fill="#D0E2BD"/>
<path id="Vector_141" d="M200.309 230.93H198.148L198.164 226.891C198.891 225.309 199.617 223.727 200.336 222.141C200.707 221.32 201.09 220.5 201.477 219.68C202.883 217.637 204.352 215.633 205.953 213.703L207.832 213.668V220.398C204.676 223.434 202.609 227.246 200.309 230.93Z" fill="#588683"/>
<path id="Vector_142" d="M199.672 231.93H197.148L197.156 229.082C197.492 228.352 197.828 227.621 198.164 226.891L198.148 230.93H200.309C200.098 231.266 199.887 231.598 199.672 231.93ZM207.832 220.398V213.668L205.953 213.703C206.238 213.363 206.523 213.023 206.816 212.688L208.832 212.648V219.492C208.484 219.785 208.152 220.09 207.832 220.398Z" fill="#3A786F"/>
<path id="Vector_143" d="M183.664 254.652H167.91V254.52L183.664 254.355V254.652Z" fill="#7A504A"/>
<path id="Vector_144" d="M167.902 256.52L167.91 254.652H183.664V256.355L167.902 256.52Z" fill="#623E3A"/>
<path id="Vector_145" d="M183.664 210.609L168.051 210.91L167.902 254.52L183.664 254.355V210.609Z" fill="#FAD4AE"/>
<path id="Vector_146" d="M170.48 231.43L170.539 213.363L181.164 213.156V231.43H170.48ZM170.469 234.93H181.164V251.879L170.41 251.996L170.469 234.93Z" fill="#333B4E"/>
<path id="Vector_147" d="M180.664 230.93H170.98L171.039 213.852L180.664 213.668V230.93ZM170.043 212.871L169.977 231.93H181.664V212.648L170.043 212.871Z" fill="#00232D"/>
<path id="Vector_148" d="M170.969 235.43H180.664V251.387L170.914 251.488L170.969 235.43ZM169.91 252.5L181.664 252.375V234.43H169.969L169.91 252.5Z" fill="#00232D"/>
<path id="Vector_149" d="M169.91 252.5L172.887 252.469L169.91 252.5Z" fill="#D0E2BD"/>
<path id="Vector_150" d="M170.914 251.488L170.938 243.93C172.57 241.043 174.195 238.152 176.086 235.43H180.035C177.395 240.555 175.324 246.043 173.266 251.465L170.914 251.488Z" fill="#588683"/>
<path id="Vector_151" d="M169.91 252.5L169.934 245.664L170.012 245.562C170.32 245.02 170.629 244.477 170.938 243.93L170.914 251.488L173.266 251.465C173.141 251.801 173.012 252.133 172.887 252.469L169.91 252.5ZM180.035 235.43H176.086C176.32 235.094 176.559 234.762 176.801 234.43H180.559C180.383 234.762 180.207 235.094 180.035 235.43Z" fill="#3A786F"/>
<path id="Vector_152" d="M173.141 230.93H170.98L170.996 226.891C171.723 225.309 172.449 223.727 173.168 222.141C173.539 221.32 173.922 220.5 174.309 219.68C175.715 217.637 177.184 215.633 178.785 213.703L180.664 213.668V220.398C177.508 223.434 175.441 227.246 173.141 230.93Z" fill="#588683"/>
<path id="Vector_153" d="M179.648 212.688L181.664 212.648L179.648 212.688Z" fill="#D0E2BD"/>
<path id="Vector_154" d="M172.504 231.93H169.977L169.988 229.082C170.324 228.352 170.66 227.621 170.996 226.891L170.98 230.93H173.141C172.93 231.266 172.719 231.598 172.504 231.93ZM180.664 220.398V213.668L178.785 213.703C179.07 213.363 179.355 213.023 179.648 212.688L181.664 212.648V219.492C181.316 219.785 180.984 220.09 180.664 220.398Z" fill="#3A786F"/>
<path id="Vector_155" d="M156.496 254.652H140.738L140.742 254.52L156.496 254.355V254.652Z" fill="#7A504A"/>
<path id="Vector_156" d="M140.734 256.52L140.738 254.652H156.496V256.355L140.734 256.52Z" fill="#623E3A"/>
<path id="Vector_157" d="M156.496 210.609L140.879 210.91L140.734 254.52L156.496 254.355V210.609Z" fill="#FAD4AE"/>
<path id="Vector_158" d="M143.312 231.43L143.371 213.363L153.996 213.156V231.43H143.312ZM143.301 234.93H153.996V251.879L143.242 251.996L143.301 234.93Z" fill="#333B4E"/>
<path id="Vector_159" d="M143.797 235.43H153.496V251.387L143.742 251.488L143.797 235.43ZM142.742 252.5L154.496 252.375V234.43H142.801L142.742 252.5Z" fill="#00232D"/>
<path id="Vector_160" d="M143.871 213.852L153.496 213.668V230.93H143.812L143.871 213.852ZM142.809 231.93H154.496V212.648L142.875 212.871L142.809 231.93Z" fill="#00232D"/>
<path id="Vector_161" d="M142.742 252.5L145.719 252.469L142.742 252.5ZM142.742 252.5L142.766 245.664L142.742 252.5Z" fill="#D0E2BD"/>
<path id="Vector_162" d="M143.742 251.488L143.77 243.93C145.402 241.043 147.027 238.152 148.918 235.43H152.867C150.227 240.555 148.152 246.043 146.098 251.465L143.742 251.488Z" fill="#588683"/>
<path id="Vector_163" d="M142.742 252.5L142.766 245.664L142.84 245.562C143.152 245.02 143.461 244.477 143.77 243.93L143.742 251.488L146.098 251.465C145.973 251.801 145.844 252.133 145.719 252.469L142.742 252.5ZM152.867 235.43H148.918C149.152 235.094 149.391 234.762 149.633 234.43H153.391C153.215 234.762 153.039 235.094 152.867 235.43Z" fill="#3A786F"/>
<path id="Vector_164" d="M145.973 230.93H143.812L143.828 226.891C144.555 225.309 145.281 223.727 145.996 222.141C146.371 221.32 146.754 220.5 147.141 219.68C148.547 217.637 150.016 215.633 151.617 213.703L153.496 213.668V220.398C150.34 223.434 148.273 227.246 145.973 230.93Z" fill="#588683"/>
<path id="Vector_165" d="M152.48 212.688L154.496 212.648L152.48 212.688Z" fill="#D0E2BD"/>
<path id="Vector_166" d="M145.336 231.93H142.809L142.82 229.082C143.156 228.352 143.492 227.621 143.828 226.891L143.812 230.93H145.973C145.762 231.266 145.551 231.598 145.336 231.93ZM153.496 220.398V213.668L151.617 213.703C151.898 213.363 152.188 213.023 152.48 212.688L154.496 212.648V219.492C154.148 219.785 153.816 220.09 153.496 220.398Z" fill="#3A786F"/>
<path id="Vector_167" d="M222.238 197.875L222.246 195.871L238 195.707V197.707L222.238 197.875Z" fill="#7A504A"/>
<path id="Vector_168" d="M238 151.961L222.387 152.262L222.238 195.871L238 195.707V151.961Z" fill="#FAD4AE"/>
<path id="Vector_169" d="M224.816 172.781L224.879 154.715L235.5 154.508V172.781H224.816ZM224.805 176.281H235.5V193.234L224.746 193.348L224.805 176.281Z" fill="#333B4E"/>
<path id="Vector_170" d="M225.305 176.781H235V192.738L225.25 192.84L225.305 176.781ZM224.246 193.852L236 193.727V175.781H224.309L224.246 193.852Z" fill="#00232D"/>
<path id="Vector_171" d="M235 172.281H225.32L225.375 155.207L235 155.02V172.281ZM224.379 154.227L224.316 173.281H236V154L224.379 154.227Z" fill="#00232D"/>
<path id="Vector_172" d="M224.246 193.852L224.27 187.016L224.246 193.852Z" fill="#D0E2BD"/>
<path id="Vector_173" d="M225.25 192.84L225.273 185.281C226.91 182.395 228.531 179.504 230.426 176.781H234.371C231.73 181.91 229.66 187.395 227.602 192.816L225.25 192.84Z" fill="#588683"/>
<path id="Vector_174" d="M224.246 193.852L224.27 187.016L224.348 186.914C224.656 186.371 224.969 185.828 225.273 185.281L225.25 192.84L227.602 192.816C227.477 193.152 227.348 193.484 227.223 193.82L224.246 193.852ZM234.371 176.781H230.426C230.656 176.445 230.895 176.113 231.137 175.781H234.898C234.719 176.113 234.547 176.445 234.371 176.781Z" fill="#3A786F"/>
<path id="Vector_175" d="M233.984 154.039L236 154L233.984 154.039Z" fill="#D0E2BD"/>
<path id="Vector_176" d="M227.477 172.281H225.32L225.332 168.242C226.059 166.664 226.785 165.082 227.504 163.496C227.875 162.672 228.258 161.852 228.645 161.031C230.051 158.988 231.52 156.984 233.121 155.055L235 155.02V161.75C231.844 164.785 229.777 168.598 227.477 172.281Z" fill="#588683"/>
<path id="Vector_177" d="M226.844 173.281H224.316L224.324 170.434C224.66 169.703 224.996 168.973 225.332 168.242L225.32 172.281H227.477C227.266 172.617 227.055 172.949 226.844 173.281ZM235 161.75V155.02L233.121 155.055C233.406 154.715 233.691 154.375 233.984 154.039L236 154V160.848C235.652 161.137 235.32 161.441 235 161.75Z" fill="#3A786F"/>
<path id="Vector_178" d="M195.07 197.875L195.078 195.871L210.832 195.707V197.707L195.07 197.875Z" fill="#7A504A"/>
<path id="Vector_179" d="M210.832 151.961L195.219 152.262L195.07 195.871L210.832 195.707V151.961Z" fill="#FAD4AE"/>
<path id="Vector_180" d="M197.648 172.781L197.711 154.715L208.332 154.508V172.781H197.648ZM197.637 176.281H208.332V193.234L197.578 193.348L197.637 176.281Z" fill="#333B4E"/>
<path id="Vector_181" d="M198.137 176.781H207.832V192.738L198.082 192.84L198.137 176.781ZM197.078 193.852L208.832 193.727V175.781H197.141L197.078 193.852Z" fill="#00232D"/>
<path id="Vector_182" d="M207.832 172.281H198.148L198.207 155.207L207.832 155.02V172.281ZM197.211 154.227L197.148 173.281H208.832V154L197.211 154.227Z" fill="#00232D"/>
<path id="Vector_183" d="M197.078 193.852L197.102 187.016L197.078 193.852Z" fill="#D0E2BD"/>
<path id="Vector_184" d="M198.082 192.84L198.105 185.281C199.742 182.395 201.363 179.504 203.254 176.781H207.203C204.562 181.91 202.492 187.395 200.434 192.816L198.082 192.84Z" fill="#588683"/>
<path id="Vector_185" d="M197.078 193.852L197.102 187.016L197.18 186.914C197.488 186.371 197.797 185.828 198.105 185.281L198.082 192.84L200.434 192.816C200.309 193.152 200.18 193.484 200.055 193.82L197.078 193.852ZM207.203 176.781H203.254C203.488 176.445 203.727 176.113 203.969 175.781H207.727C207.551 176.113 207.375 176.445 207.203 176.781Z" fill="#3A786F"/>
<path id="Vector_186" d="M200.309 172.281H198.148L198.164 168.242C198.891 166.664 199.617 165.082 200.336 163.496C200.707 162.672 201.09 161.852 201.477 161.031C202.883 158.988 204.352 156.984 205.953 155.055L207.832 155.02V161.75C204.676 164.785 202.609 168.598 200.309 172.281Z" fill="#588683"/>
<path id="Vector_187" d="M206.816 154.039L208.832 154L206.816 154.039Z" fill="#D0E2BD"/>
<path id="Vector_188" d="M199.672 173.281H197.148L197.156 170.434C197.492 169.703 197.828 168.973 198.164 168.242L198.148 172.281H200.309C200.098 172.617 199.887 172.949 199.672 173.281ZM207.832 161.75V155.02L205.953 155.055C206.238 154.715 206.523 154.375 206.816 154.039L208.832 154V160.848C208.484 161.137 208.152 161.441 207.832 161.75Z" fill="#3A786F"/>
<path id="Vector_189" d="M167.902 197.875L167.91 195.871L183.664 195.707V197.707L167.902 197.875Z" fill="#7A504A"/>
<path id="Vector_190" d="M183.664 151.961L168.051 152.262L167.902 195.871L183.664 195.707V151.961Z" fill="#FAD4AE"/>
<path id="Vector_191" d="M170.48 172.781L170.539 154.715L181.164 154.508V172.781H170.48ZM170.469 176.281H181.164V193.234L170.41 193.348L170.469 176.281Z" fill="#333B4E"/>
<path id="Vector_192" d="M180.664 172.281H170.98L171.039 155.207L180.664 155.02V172.281ZM170.043 154.227L169.977 173.281H181.664V154L170.043 154.227Z" fill="#00232D"/>
<path id="Vector_193" d="M170.969 176.781H180.664V192.738L170.914 192.84L170.969 176.781ZM169.91 193.852L181.664 193.727V175.781H169.969L169.91 193.852Z" fill="#00232D"/>
<path id="Vector_194" d="M170.914 192.84L170.938 185.281C172.57 182.395 174.195 179.504 176.086 176.781H180.035C177.395 181.91 175.32 187.395 173.266 192.816L170.914 192.84Z" fill="#588683"/>
<path id="Vector_195" d="M179.648 154.039L181.664 154L179.648 154.039Z" fill="#D0E2BD"/>
<path id="Vector_196" d="M173.141 172.281H170.98L170.996 168.242C171.723 166.664 172.449 165.082 173.168 163.496C173.539 162.672 173.922 161.852 174.309 161.031C175.715 158.988 177.184 156.984 178.785 155.055L180.664 155.02V161.75C177.508 164.785 175.441 168.598 173.141 172.281Z" fill="#588683"/>
<path id="Vector_197" d="M172.504 173.281H169.977L169.988 170.434C170.324 169.703 170.66 168.977 170.996 168.242L170.98 172.281H173.141C172.93 172.617 172.719 172.949 172.504 173.281ZM180.664 161.75V155.02L178.785 155.055C179.066 154.715 179.355 154.375 179.648 154.039L181.664 154V160.848C181.316 161.137 180.984 161.441 180.664 161.75Z" fill="#3A786F"/>
<path id="Vector_198" d="M169.91 193.852L169.934 187.016L170.012 186.914C170.32 186.371 170.629 185.828 170.938 185.281L170.914 192.84L173.266 192.816C173.141 193.152 173.012 193.484 172.887 193.82L169.91 193.852ZM180.035 176.781H176.086C176.32 176.445 176.559 176.113 176.801 175.781H180.559C180.383 176.113 180.207 176.445 180.035 176.781Z" fill="#3A786F"/>
<path id="Vector_199" d="M140.734 197.875L140.742 195.871L156.496 195.707V197.707L140.734 197.875Z" fill="#7A504A"/>
<path id="Vector_200" d="M156.496 151.961L140.879 152.262L140.734 195.871L156.496 195.707V151.961Z" fill="#FAD4AE"/>
<path id="Vector_201" d="M143.312 172.781L143.371 154.715L153.996 154.508V172.781H143.312ZM143.301 176.281H153.996V193.234L143.242 193.348L143.301 176.281Z" fill="#333B4E"/>
<path id="Vector_202" d="M143.797 176.781H153.496V192.738L143.742 192.84L143.797 176.781ZM142.742 193.852L154.496 193.727V175.781H142.801L142.742 193.852Z" fill="#00232D"/>
<path id="Vector_203" d="M143.871 155.207L153.496 155.02V172.281H143.812L143.871 155.207ZM142.809 173.281H154.496V154L142.875 154.227L142.809 173.281Z" fill="#00232D"/>
<path id="Vector_204" d="M142.742 193.852L142.766 187.016L142.742 193.852Z" fill="#D0E2BD"/>
<path id="Vector_205" d="M143.742 192.84L143.77 185.281C145.402 182.395 147.027 179.504 148.918 176.781H152.867C150.227 181.91 148.152 187.395 146.098 192.816L143.742 192.84Z" fill="#588683"/>
<path id="Vector_206" d="M142.742 193.852L142.766 187.016L142.84 186.914C143.152 186.371 143.461 185.828 143.77 185.281L143.742 192.84L146.098 192.816C145.973 193.152 145.844 193.484 145.719 193.82L142.742 193.852ZM152.867 176.781H148.918C149.152 176.445 149.391 176.113 149.633 175.781H153.391C153.215 176.113 153.039 176.445 152.867 176.781Z" fill="#3A786F"/>
<path id="Vector_207" d="M152.48 154.039L154.496 154L152.48 154.039Z" fill="#D0E2BD"/>
<path id="Vector_208" d="M145.973 172.281H143.812L143.828 168.242C144.555 166.664 145.281 165.082 145.996 163.496C146.371 162.672 146.754 161.852 147.141 161.031C148.547 158.988 150.016 156.984 151.617 155.055L153.496 155.02V161.75C150.34 164.785 148.273 168.598 145.973 172.281Z" fill="#588683"/>
<path id="Vector_209" d="M145.336 173.281H142.809L142.82 170.434C143.156 169.703 143.492 168.973 143.828 168.242L143.812 172.281H145.973C145.762 172.617 145.551 172.949 145.336 173.281ZM153.496 161.75V155.02L151.617 155.055C151.898 154.715 152.188 154.375 152.48 154.039L154.496 154V160.848C154.148 161.137 153.816 161.441 153.496 161.75Z" fill="#3A786F"/>
<path id="Vector_210" d="M449.66 254.555H449.07V194.129H449.66V254.555ZM449.66 191.129H449.07V167.566H449.66V191.129Z" fill="#6A483C"/>
<path id="Vector_211" d="M449.07 254.555H445.676V243.113H448.359V240.113H445.676V230.121L447.422 222.969H448.59V219.969H445.676V194.129H449.07V254.555ZM449.07 191.129H445.676V177.535L447.883 167.566H449.07V191.129Z" fill="#191D27"/>
<path id="Vector_212" d="M445.676 230.121V222.969H447.422L445.676 230.121Z" fill="#253537"/>
<path id="Vector_213" d="M445.676 177.535V167.566H447.883L445.676 177.535Z" fill="#253537"/>
<path id="Vector_214" d="M449.66 194.129H445.676V191.129H449.66V194.129Z" fill="#6A483C"/>
<path id="Vector_215" d="M448.59 222.969H445.676V219.969H448.59V222.969Z" fill="#6A483C"/>
<path id="Vector_216" d="M445.676 243.113H448.359V240.113H445.676V243.113Z" fill="#6A483C"/>
<path id="Vector_217" d="M424.816 254.555H422.676V243.113H426.66V247.27L424.816 254.555ZM426.66 240.113H422.676V222.969H426.66V240.113ZM425.547 219.969H422.676V204.102L425.832 191.141H422.676V191.129H425.48V188.129H422.676V171.734L423.617 167.566H426.66V191.129H425.832V194.129H426.66V215.027L425.547 219.969Z" fill="#191D27"/>
<path id="Vector_218" d="M422.676 204.102V191.141H425.832L422.676 204.102Z" fill="#253537"/>
<path id="Vector_219" d="M426.66 254.555H424.816L426.66 247.27V254.555Z" fill="#253537"/>
<path id="Vector_220" d="M426.66 219.969H425.547L426.66 215.027V219.969Z" fill="#253537"/>
<path id="Vector_221" d="M422.676 171.734V167.566H423.617L422.676 171.734Z" fill="#253537"/>
<path id="Vector_222" d="M425.832 194.129H426.66V191.129H425.832V194.129Z" fill="#6A483C"/>
<path id="Vector_223" d="M426.66 222.969H422.676V219.969H426.66V222.969Z" fill="#6A483C"/>
<path id="Vector_224" d="M422.676 191.129H425.48V188.129H422.676V191.129Z" fill="#6A483C"/>
<path id="Vector_225" d="M422.676 243.113H426.66V240.113H422.676V243.113Z" fill="#6A483C"/>
<path id="Vector_226" d="M403.66 254.555H399.676V243.113H403.66V254.555ZM402.793 240.113H399.676V214.398H403.66V219.969H403.512V222.969H403.66V236.617L402.793 240.113ZM403.66 211.398H399.676V194.875L400.492 191.129H403.66V211.398ZM403.66 188.129H399.676V167.566H403.66V188.129Z" fill="#191D27"/>
<path id="Vector_227" d="M403.66 240.113H402.793L403.66 236.617V240.113Z" fill="#253537"/>
<path id="Vector_228" d="M399.676 194.875V191.129H400.492L399.676 194.875Z" fill="#253537"/>
<path id="Vector_229" d="M403.512 222.969H403.66V219.969H403.512V222.969Z" fill="#6A483C"/>
<path id="Vector_230" d="M403.66 191.129H399.676V188.129H403.66V191.129Z" fill="#6A483C"/>
<path id="Vector_231" d="M399.676 214.398H403.66V211.398H399.676V214.398Z" fill="#6A483C"/>
<path id="Vector_232" d="M403.66 243.113H399.676V240.113H403.66V243.113Z" fill="#6A483C"/>
<path id="Vector_233" d="M377.992 254.555H374.008V243.113H377.992V254.555ZM377.992 239.969H374.008V217.73H377V214.73H374.008V191.129H377.992V211.398H377V214.398H377.992V239.969ZM377.992 188.129H374.008V167.566H377.992V188.129Z" fill="#191D27"/>
<path id="Vector_234" d="M374.008 191.129H377.992V188.129H374.008V191.129Z" fill="#6A483C"/>
<path id="Vector_235" d="M377 214.398H377.992V211.398H377V214.398Z" fill="#6A483C"/>
<path id="Vector_236" d="M374.008 240.113H377.992V239.969H374.008V240.113Z" fill="#6A483C"/>
<path id="Vector_237" d="M374.008 217.73H377V214.73H374.008V217.73Z" fill="#6A483C"/>
<path id="Vector_238" d="M374.008 243.113H377.992V240.113H374.008V243.113Z" fill="#6A483C"/>
<path id="Vector_239" d="M351.66 254.555H347.676V237.816H351.078V234.816H347.676V228.32L350.707 217.73H351.66V240.113H351.492V243.113H351.66V254.555ZM351.66 214.73H347.676V206.707L350.957 194.629H351.66V214.73ZM351.66 191.629H347.676V181.469L350.551 167.566H351.66V191.629Z" fill="#191D27"/>
<path id="Vector_240" d="M347.676 228.32V217.73H350.707L347.676 228.32Z" fill="#253537"/>
<path id="Vector_241" d="M347.676 206.707V194.629H350.957L347.676 206.707Z" fill="#253537"/>
<path id="Vector_242" d="M347.676 181.469V167.566H350.551L347.676 181.469Z" fill="#253537"/>
<path id="Vector_243" d="M347.676 237.816H351.078V234.816H347.676V237.816Z" fill="#6A483C"/>
<path id="Vector_244" d="M351.66 217.73H347.676V214.73H351.66V217.73Z" fill="#6A483C"/>
<path id="Vector_245" d="M351.66 194.629H347.676V191.629H351.66V194.629Z" fill="#6A483C"/>
<path id="Vector_246" d="M351.492 243.113H351.66V240.113H351.492V243.113Z" fill="#6A483C"/>
<path id="Vector_247" d="M428.668 254.555H424.668V167.566H428.668V254.555Z" fill="#9057D9"/>
<path id="Vector_248" d="M405.668 254.555H401.668V167.566H405.668V254.555Z" fill="#A4DCE3"/>
<path id="Vector_249" d="M380 254.555H376V167.566H380V254.555Z" fill="#FF8972"/>
<path id="Vector_250" d="M353.668 254.555H349.668V167.566H353.668V254.555Z" fill="#C7EF97"/>
<path id="Vector_251" d="M451.07 254.555H447.07V167.566H451.07V254.555Z" fill="#FF909A"/>
<path id="Vector_252" d="M324.195 258.281H255.91V254.797H324.195V258.281Z" fill="#C59055"/>
<path id="Vector_253" d="M324.195 255.875H255.91V254.797H324.195V255.875Z" fill="#FFF5B6"/>
<path id="Vector_254" d="M324.195 261.77H255.91V258.281H324.195V261.77Z" fill="#C59055"/>
<path id="Vector_255" d="M324.195 259.359H255.91V258.281H324.195V259.359Z" fill="#FFF5B6"/>
<path id="Vector_256" d="M324.195 265.254H255.91V261.77H324.195V265.254Z" fill="#C59055"/>
<path id="Vector_257" d="M324.195 262.848H255.91V261.77H324.195V262.848Z" fill="#FFF5B6"/>
<path id="Vector_258" d="M324.195 268.738H255.91V265.254H324.195V268.738Z" fill="#C59055"/>
<path id="Vector_259" d="M324.195 266.332H255.91V265.254H324.195V266.332Z" fill="#FFF5B6"/>
<path id="Vector_260" d="M324.195 272.223H255.91V268.738H324.195V272.223Z" fill="#C59055"/>
<path id="Vector_261" d="M324.195 269.816H255.91V268.738H324.195V269.816Z" fill="#FFF5B6"/>
<path id="Vector_262" d="M324.195 275.707H255.91V272.223H324.195V275.707Z" fill="#C59055"/>
<path id="Vector_263" d="M324.195 273.301H255.91V272.223H324.195V273.301Z" fill="#FFF5B6"/>
<path id="Vector_264" d="M247.141 275.707H256.926L256.832 252.262L246.047 251.832L247.141 275.707Z" fill="#E2BA7D"/>
<path id="Vector_265" d="M256.84 254.277H246.16L246.047 251.832L256.832 252.262L256.84 254.277Z" fill="#B5734D"/>
<path id="Vector_266" d="M245.383 249.09L257.387 249.621C257.656 249.633 257.867 249.863 257.867 250.144V251.761C257.867 252.058 257.633 252.293 257.348 252.281L245.426 251.804C245.168 251.797 244.961 251.582 244.946 251.312L244.864 249.636C244.848 249.328 245.09 249.074 245.383 249.09Z" fill="#E2BA7D"/>
<path id="Vector_267" d="M252.168 259.359H254.781C255.086 259.359 255.332 259.113 255.332 258.809V257.09C255.332 256.785 255.086 256.539 254.781 256.539H252.719C252.414 256.539 252.168 256.785 252.168 257.09V259.359Z" fill="#F4D18B"/>
<path id="Vector_268" d="M250.926 261.379H253.531C253.836 261.379 254.082 261.133 254.082 260.828V260.238C254.082 259.934 253.836 259.688 253.531 259.688H250.926C250.621 259.688 250.375 259.934 250.375 260.238V260.828C250.375 261.133 250.621 261.379 250.926 261.379Z" fill="#F4D18B"/>
<path id="Vector_269" d="M250.184 259.145H251.027C251.328 259.145 251.578 258.898 251.578 258.594V257.656C251.578 257.352 251.328 257.105 251.027 257.105H250.184C249.879 257.105 249.633 257.352 249.633 257.656V258.594C249.633 258.898 249.879 259.145 250.184 259.145Z" fill="#F4D18B"/>
<path id="Vector_270" d="M250.582 272.73H253.461C253.727 272.73 253.957 272.523 253.992 272.246L254.125 271.27H250.027L250.043 272.18C250.047 272.484 250.285 272.73 250.582 272.73Z" fill="#F4D18B"/>
<path id="Vector_271" d="M250.531 270.742H253.707C253.988 270.742 254.223 270.515 254.246 270.226L254.289 269.695C254.316 269.355 254.051 269.07 253.727 269.086L250.5 269.25C250.207 269.265 249.981 269.515 249.984 269.82L249.992 270.187C249.996 270.492 250.234 270.742 250.531 270.742Z" fill="#F4D18B"/>
<path id="Vector_272" d="M248.781 274.641H251.453C251.746 274.641 251.985 274.402 251.992 274.098L252.008 273.629C252.02 273.313 251.774 273.051 251.469 273.051H248.766C248.457 273.051 248.211 273.316 248.227 273.637L248.246 274.102C248.258 274.402 248.496 274.641 248.781 274.641Z" fill="#F4D18B"/>
<path id="Vector_273" d="M247.91 272.52H248.883C249.184 272.52 249.426 272.258 249.422 271.945L249.395 270.477L249.332 270.414H247.856C247.547 270.414 247.301 270.687 247.317 271.012L247.375 271.988C247.391 272.285 247.629 272.52 247.91 272.52Z" fill="#F4D18B"/>
<path id="Vector_274" d="M333.133 275.707H323.348L323.441 252.262L334.227 251.832L333.133 275.707Z" fill="#E2BA7D"/>
<path id="Vector_275" d="M334.113 254.277H323.434L323.441 252.262L334.227 251.832L334.113 254.277Z" fill="#B5734D"/>
<path id="Vector_276" d="M334.891 249.09L322.887 249.621C322.617 249.633 322.406 249.863 322.406 250.144V251.761C322.406 252.058 322.645 252.293 322.926 252.281L334.848 251.804C335.105 251.797 335.316 251.582 335.328 251.312L335.41 249.636C335.43 249.328 335.188 249.074 334.891 249.09Z" fill="#E2BA7D"/>
<path id="Vector_277" d="M328.105 259.359H325.492C325.187 259.359 324.941 259.113 324.941 258.809V257.09C324.941 256.785 325.187 256.539 325.492 256.539H327.559C327.859 256.539 328.105 256.785 328.105 257.09V259.359Z" fill="#F4D18B"/>
<path id="Vector_278" d="M329.348 261.379H326.742C326.437 261.379 326.191 261.133 326.191 260.828V260.238C326.191 259.934 326.437 259.688 326.742 259.688H329.348C329.652 259.688 329.898 259.934 329.898 260.238V260.828C329.898 261.133 329.652 261.379 329.348 261.379Z" fill="#F4D18B"/>
<path id="Vector_279" d="M330.09 259.145H329.246C328.945 259.145 328.695 258.898 328.695 258.594V257.656C328.695 257.352 328.945 257.105 329.246 257.105H330.09C330.395 257.105 330.641 257.352 330.641 257.656V258.594C330.641 258.898 330.395 259.145 330.09 259.145Z" fill="#F4D18B"/>
<path id="Vector_280" d="M329.691 272.73H326.816C326.547 272.73 326.316 272.523 326.281 272.246L326.148 271.27H330.246L330.23 272.18C330.227 272.484 329.988 272.73 329.691 272.73Z" fill="#F4D18B"/>
<path id="Vector_281" d="M329.742 270.742H326.566C326.285 270.742 326.051 270.515 326.027 270.226L325.984 269.695C325.961 269.355 326.223 269.07 326.551 269.086L329.773 269.25C330.066 269.265 330.293 269.515 330.289 269.82L330.281 270.187C330.277 270.492 330.039 270.742 329.742 270.742Z" fill="#F4D18B"/>
<path id="Vector_282" d="M331.492 274.641H328.82C328.528 274.641 328.289 274.402 328.281 274.098L328.266 273.629C328.258 273.313 328.5 273.051 328.805 273.051H331.512C331.817 273.051 332.063 273.316 332.051 273.637L332.028 274.102C332.016 274.402 331.778 274.641 331.492 274.641Z" fill="#F4D18B"/>
<path id="Vector_283" d="M332.363 272.52H331.395C331.09 272.52 330.848 272.258 330.856 271.945L330.879 270.477L330.942 270.414H332.418C332.727 270.414 332.973 270.687 332.957 271.012L332.899 271.988C332.883 272.285 332.649 272.52 332.363 272.52Z" fill="#F4D18B"/>
<path id="Vector_284" d="M224.316 270.078H228.785C229.387 270.078 229.875 269.594 229.875 268.988V265.848C229.875 265.242 229.387 264.758 228.785 264.758H224.383C223.781 264.758 223.289 265.242 223.289 265.848V269.055C223.289 269.621 223.75 270.078 224.316 270.078Z" fill="#CC9F77"/>
<path id="Vector_285" d="M220.656 273.887H226.188C226.789 273.887 227.277 273.398 227.277 272.797V271.785C227.277 271.184 226.789 270.695 226.188 270.695H220.656C220.055 270.695 219.566 271.184 219.566 271.785V272.797C219.566 273.398 220.055 273.887 220.656 273.887Z" fill="#CC9F77"/>
<path id="Vector_286" d="M219.113 269.672H220.973C221.578 269.672 222.066 269.184 222.066 268.578V266.914C222.066 266.309 221.578 265.82 220.973 265.82H219.113C218.512 265.82 218.023 266.309 218.023 266.914V268.578C218.023 269.184 218.512 269.672 219.113 269.672Z" fill="#CC9F77"/>
<path id="Vector_287" d="M212.082 261.32H215.719C216.211 261.32 216.609 260.926 216.609 260.434V257.871C216.609 257.383 216.211 256.984 215.719 256.984H212.133C211.641 256.984 211.242 257.383 211.242 257.871V260.484C211.242 260.949 211.617 261.32 212.082 261.32Z" fill="#CC9F77"/>
<path id="Vector_288" d="M209.098 264.422H213.602C214.094 264.422 214.492 264.023 214.492 263.535V262.711C214.492 262.219 214.094 261.82 213.602 261.82H209.098C208.605 261.82 208.211 262.219 208.211 262.711V263.535C208.211 264.023 208.605 264.422 209.098 264.422Z" fill="#CC9F77"/>
<path id="Vector_289" d="M207.84 260.988H209.355C209.848 260.988 210.246 260.59 210.246 260.102V258.742C210.246 258.25 209.848 257.852 209.355 257.852H207.84C207.348 257.852 206.949 258.25 206.949 258.742V260.102C206.949 260.59 207.348 260.988 207.84 260.988Z" fill="#CC9F77"/>
<path id="Vector_290" d="M235.801 264.504H242.313C242.918 264.504 243.434 264.078 243.52 263.508L243.703 262.254C243.762 261.852 243.438 261.496 243.012 261.496H235.262C234.867 261.496 234.555 261.801 234.559 262.172L234.578 263.367C234.59 263.996 235.133 264.504 235.801 264.504Z" fill="#CC9F77"/>
<path id="Vector_291" d="M235.684 260.414H242.875C243.508 260.414 244.035 259.953 244.09 259.355L244.188 258.265C244.246 257.57 243.649 256.98 242.91 257.015L235.613 257.351C234.957 257.382 234.442 257.902 234.453 258.523L234.465 259.277C234.473 259.906 235.016 260.414 235.684 260.414Z" fill="#CC9F77"/>
<path id="Vector_292" d="M231.73 268.426H237.773C238.433 268.426 238.972 267.93 238.992 267.309L239.027 266.348C239.051 265.695 238.496 265.156 237.808 265.156H231.687C230.992 265.156 230.437 265.703 230.469 266.359L230.512 267.32C230.543 267.937 231.078 268.426 231.73 268.426Z" fill="#CC9F77"/>
<path id="Vector_293" d="M229.762 264.062H231.953C232.637 264.062 233.187 263.531 233.172 262.887L233.125 260.414C233.117 260.043 232.797 259.746 232.406 259.746H229.637C228.934 259.746 228.379 260.309 228.418 260.973L228.543 262.977C228.582 263.586 229.117 264.062 229.762 264.062Z" fill="#CC9F77"/>
<path id="Vector_294" d="M151.645 265.801L158.063 265.922C158.629 265.93 159.102 266.371 159.18 266.953L159.352 268.219C159.406 268.614 159.109 268.969 158.727 268.973L151.207 269.035C150.801 269.039 150.457 268.719 150.445 268.321L150.414 267.024C150.395 266.332 150.945 265.785 151.645 265.801Z" fill="#CC9F77"/>
<path id="Vector_295" d="M196.184 269.988L203.105 269.863C203.68 269.856 204.152 270.297 204.199 270.879L204.285 271.93C204.34 272.594 203.813 273.176 203.156 273.176L196.23 273.16C195.563 273.156 195.016 272.645 194.996 272L194.977 271.211C194.957 270.547 195.5 270 196.184 269.988Z" fill="#CC9F77"/>
<path id="Vector_296" d="M183.223 256.793L189.77 257.153C190.442 257.192 190.996 257.762 191.035 258.446L191.09 259.485C191.129 260.188 190.594 260.754 189.903 260.735L183.383 260.575C182.594 260.555 181.922 259.907 181.91 259.145L181.891 258.024C181.879 257.293 182.469 256.75 183.223 256.793Z" fill="#CC9F77"/>
<path id="Vector_297" d="M189.539 265.996L192.027 266.031C192.781 266.043 193.41 266.641 193.434 267.352L193.512 270.039C193.52 270.434 193.195 270.758 192.777 270.77L189.715 270.84C188.914 270.86 188.227 270.25 188.219 269.508L188.203 267.227C188.199 266.528 188.785 265.985 189.539 265.996Z" fill="#CC9F77"/>
<path id="Vector_298" d="M172.285 269.531H178.797C179.402 269.531 179.922 269.105 180.004 268.535L180.188 267.277C180.246 266.879 179.922 266.523 179.496 266.523H171.746C171.356 266.523 171.039 266.828 171.047 267.195L171.063 268.395C171.074 269.023 171.617 269.531 172.285 269.531Z" fill="#CC9F77"/>
<path id="Vector_299" d="M172.168 265.441H179.359C179.992 265.441 180.52 264.98 180.574 264.382L180.672 263.293C180.734 262.597 180.133 262.007 179.395 262.043L172.098 262.378C171.441 262.41 170.93 262.929 170.938 263.55L170.949 264.304C170.961 264.933 171.504 265.441 172.168 265.441Z" fill="#CC9F77"/>
<path id="Vector_300" d="M168.219 273.453H174.258C174.918 273.453 175.457 272.957 175.477 272.336L175.512 271.375C175.535 270.723 174.98 270.184 174.293 270.184H168.172C167.477 270.184 166.926 270.73 166.953 271.387L166.996 272.348C167.027 272.965 167.562 273.453 168.219 273.453Z" fill="#CC9F77"/>
<path id="Vector_301" d="M166.246 269.09H168.437C169.121 269.09 169.672 268.559 169.656 267.914L169.609 265.438C169.602 265.07 169.281 264.773 168.895 264.773H166.121C165.418 264.773 164.863 265.336 164.902 265.996L165.027 268.004C165.066 268.613 165.602 269.09 166.246 269.09Z" fill="#CC9F77"/>
<path id="Vector_302" d="M168.238 263.543H161.727C161.117 263.543 160.602 263.117 160.516 262.547L160.332 261.293C160.273 260.895 160.602 260.535 161.027 260.535H168.777C169.168 260.535 169.48 260.84 169.477 261.211L169.457 262.406C169.445 263.039 168.902 263.543 168.238 263.543Z" fill="#CC9F77"/>
<path id="Vector_303" d="M137.434 260.179H130.246C129.609 260.179 129.082 259.718 129.027 259.121L128.934 258.031C128.871 257.335 129.473 256.746 130.207 256.781L137.508 257.117C138.164 257.148 138.676 257.668 138.668 258.289L138.656 259.043C138.645 259.675 138.102 260.179 137.434 260.179Z" fill="#CC9F77"/>
<path id="Vector_304" d="M141.387 268.191H135.344C134.688 268.191 134.149 267.695 134.125 267.074L134.094 266.113C134.071 265.465 134.621 264.922 135.313 264.922H141.43C142.125 264.922 142.68 265.469 142.649 266.129L142.606 267.086C142.578 267.703 142.039 268.191 141.387 268.191Z" fill="#CC9F77"/>
<path id="Vector_305" d="M131.406 269.09H129.215C128.531 269.09 127.985 268.559 127.996 267.914L128.047 265.438C128.055 265.07 128.371 264.773 128.762 264.773H131.535C132.235 264.773 132.793 265.336 132.754 265.996L132.625 268.004C132.59 268.613 132.055 269.09 131.406 269.09Z" fill="#CC9F77"/>
<path id="Vector_306" d="M87.0939 259H79.9064C79.2696 259 78.7423 258.539 78.6876 257.941L78.5939 256.851C78.5314 256.152 79.129 255.566 79.8673 255.601L87.1642 255.937C87.8204 255.968 88.336 256.484 88.3243 257.109L88.3126 257.863C88.3048 258.492 87.7618 259 87.0939 259Z" fill="#CC9F77"/>
<path id="Vector_307" d="M91.762 263.676H85.719C85.0627 263.676 84.5237 263.18 84.5002 262.559L84.469 261.598C84.4455 260.945 84.9963 260.406 85.6877 260.406H91.8049C92.5002 260.406 93.0549 260.953 93.0237 261.609L92.9807 262.57C92.9534 263.187 92.4143 263.676 91.762 263.676Z" fill="#CC9F77"/>
<path id="Vector_308" d="M125.641 262.461H119.598C118.942 262.461 118.403 262.559 118.379 261.488L118.348 257.949C118.324 256.828 118.875 256.844 119.567 256.844H125.684C126.379 256.844 126.934 256.84 126.903 257.969L126.86 261.512C126.832 262.57 126.293 262.461 125.641 262.461Z" fill="#CC9F77"/>
<path id="Vector_309" d="M91.762 270.402H85.719C85.0627 270.402 84.5237 270.5 84.5002 269.43L84.469 265.887C84.4455 264.766 84.9963 264.785 85.6877 264.785H91.8049C92.5002 264.785 93.0549 264.781 93.0237 265.91L92.9807 269.449C92.9534 270.512 92.4143 270.402 91.762 270.402Z" fill="#CC9F77"/>
<path id="Vector_310" d="M81.7814 269.09H79.59C78.9103 269.09 78.3596 268.559 78.3713 267.914L78.4221 265.438C78.426 265.07 78.7463 264.773 79.1369 264.773H81.9103C82.6096 264.773 83.1682 265.336 83.1252 265.996L83.0002 268.004C82.965 268.613 82.4299 269.09 81.7814 269.09Z" fill="#CC9F77"/>
<path id="Vector_311" d="M116.156 273H113.965C113.285 273 112.735 272.469 112.746 271.824L112.797 269.348C112.805 268.98 113.121 268.684 113.512 268.684H116.285C116.985 268.684 117.543 269.242 117.504 269.906L117.375 271.91C117.34 272.523 116.805 273 116.156 273Z" fill="#CC9F77"/>
<path id="Vector_312" d="M110.949 273H108.758C108.074 273 107.524 272.469 107.535 271.824L107.586 269.348C107.594 268.98 107.91 268.684 108.305 268.684H111.074C111.778 268.684 112.336 269.242 112.293 269.906L112.168 271.91C112.129 272.523 111.594 273 110.949 273Z" fill="#CC9F77"/>
<path id="Vector_313" d="M430.164 270.078H434.594C435.195 270.078 435.684 269.594 435.684 268.992V265.844C435.684 265.242 435.195 264.758 434.594 264.758H430.227C429.625 264.758 429.141 265.242 429.141 265.844V269.055C429.141 269.621 429.598 270.078 430.164 270.078Z" fill="#CC9F77"/>
<path id="Vector_314" d="M426.523 273.887H432.012C432.613 273.887 433.102 273.398 433.102 272.797V271.781C433.102 271.18 432.613 270.695 432.012 270.695H426.523C425.926 270.695 425.438 271.18 425.438 271.781V272.797C425.438 273.398 425.926 273.887 426.523 273.887Z" fill="#CC9F77"/>
<path id="Vector_315" d="M424.988 269.672H426.832C427.434 269.672 427.922 269.184 427.922 268.582V266.91C427.922 266.309 427.434 265.82 426.832 265.82H424.988C424.391 265.82 423.902 266.309 423.902 266.91V268.582C423.902 269.184 424.391 269.672 424.988 269.672Z" fill="#CC9F77"/>
<path id="Vector_316" d="M418 261.32H421.609C422.102 261.32 422.496 260.926 422.496 260.438V257.871C422.496 257.383 422.102 256.984 421.609 256.984H418.055C417.562 256.984 417.168 257.383 417.168 257.871V260.488C417.168 260.949 417.539 261.32 418 261.32Z" fill="#CC9F77"/>
<path id="Vector_317" d="M415.035 264.422H419.508C419.996 264.422 420.395 264.027 420.395 263.535V262.707C420.395 262.219 419.996 261.82 419.508 261.82H415.035C414.547 261.82 414.148 262.219 414.148 262.707V263.535C414.148 264.027 414.547 264.422 415.035 264.422Z" fill="#CC9F77"/>
<path id="Vector_318" d="M413.785 260.988H415.289C415.777 260.988 416.172 260.594 416.172 260.102V258.738C416.172 258.25 415.777 257.852 415.289 257.852H413.785C413.297 257.852 412.898 258.25 412.898 258.738V260.102C412.898 260.594 413.297 260.988 413.785 260.988Z" fill="#CC9F77"/>
<path id="Vector_319" d="M441.57 264.504H448.039C448.645 264.504 449.16 264.078 449.242 263.508L449.426 262.254C449.485 261.852 449.16 261.496 448.735 261.496H441.035C440.645 261.496 440.332 261.801 440.34 262.172L440.36 263.367C440.367 263.996 440.906 264.504 441.57 264.504Z" fill="#CC9F77"/>
<path id="Vector_320" d="M441.457 260.414H448.602C449.231 260.414 449.758 259.953 449.809 259.355L449.906 258.265C449.965 257.57 449.371 256.98 448.637 257.015L441.387 257.351C440.731 257.382 440.223 257.902 440.231 258.523L440.242 259.277C440.254 259.906 440.793 260.414 441.457 260.414Z" fill="#CC9F77"/>
<path id="Vector_321" d="M437.527 268.426H443.531C444.187 268.426 444.722 267.93 444.742 267.309L444.777 266.348C444.801 265.695 444.25 265.156 443.566 265.156H437.484C436.793 265.156 436.242 265.703 436.273 266.359L436.316 267.32C436.344 267.937 436.879 268.426 437.527 268.426Z" fill="#CC9F77"/>
<path id="Vector_322" d="M435.57 264.062H437.746C438.426 264.062 438.973 263.531 438.961 262.887L438.91 260.414C438.902 260.043 438.59 259.746 438.199 259.746H435.445C434.746 259.746 434.191 260.309 434.234 260.973L434.359 262.977C434.398 263.586 434.93 264.062 435.57 264.062Z" fill="#CC9F77"/>
<path id="Vector_323" d="M357.934 265.801L364.313 265.922C364.875 265.93 365.348 266.371 365.426 266.953L365.594 268.219C365.648 268.614 365.355 268.969 364.973 268.973L357.5 269.035C357.094 269.039 356.754 268.719 356.742 268.321L356.711 267.024C356.691 266.332 357.238 265.785 357.934 265.801Z" fill="#CC9F77"/>
<path id="Vector_324" d="M402.199 269.988L409.078 269.863C409.648 269.856 410.117 270.297 410.164 270.879L410.25 271.93C410.305 272.594 409.781 273.176 409.129 273.176L402.242 273.16C401.582 273.156 401.035 272.645 401.019 272L400.996 271.211C400.98 270.547 401.519 270 402.199 269.988Z" fill="#CC9F77"/>
<path id="Vector_325" d="M389.316 256.793L395.824 257.153C396.492 257.192 397.047 257.762 397.082 258.446L397.137 259.485C397.176 260.188 396.641 260.754 395.953 260.735L389.477 260.575C388.695 260.555 388.024 259.907 388.012 259.145L387.992 258.024C387.984 257.293 388.57 256.75 389.316 256.793Z" fill="#CC9F77"/>
<path id="Vector_326" d="M395.594 265.996L398.066 266.031C398.816 266.043 399.445 266.641 399.465 267.352L399.539 270.039C399.555 270.434 399.23 270.758 398.813 270.77L395.77 270.84C394.973 270.86 394.289 270.25 394.285 269.508L394.266 267.227C394.262 266.528 394.848 265.985 395.594 265.996Z" fill="#CC9F77"/>
<path id="Vector_327" d="M378.445 269.531H384.918C385.523 269.531 386.035 269.105 386.117 268.535L386.305 267.277C386.359 266.879 386.035 266.523 385.613 266.523H377.91C377.523 266.523 377.211 266.828 377.215 267.195L377.234 268.395C377.242 269.023 377.785 269.531 378.445 269.531Z" fill="#CC9F77"/>
<path id="Vector_328" d="M378.332 265.441H385.477C386.11 265.441 386.633 264.98 386.688 264.382L386.781 263.293C386.844 262.597 386.246 262.007 385.516 262.043L378.262 262.378C377.61 262.41 377.098 262.929 377.11 263.55L377.121 264.304C377.129 264.933 377.668 265.441 378.332 265.441Z" fill="#CC9F77"/>
<path id="Vector_329" d="M374.406 273.453H380.41C381.062 273.453 381.597 272.957 381.621 272.336L381.652 271.375C381.676 270.723 381.129 270.184 380.441 270.184H374.359C373.672 270.184 373.117 270.73 373.148 271.387L373.191 272.348C373.222 272.965 373.758 273.453 374.406 273.453Z" fill="#CC9F77"/>
<path id="Vector_330" d="M372.445 269.09H374.625C375.305 269.09 375.848 268.559 375.836 267.914L375.789 265.438C375.781 265.07 375.465 264.773 375.074 264.773H372.32C371.621 264.773 371.07 265.336 371.109 265.996L371.234 268.004C371.273 268.613 371.805 269.09 372.445 269.09Z" fill="#CC9F77"/>
<path id="Vector_331" d="M374.426 263.543H367.953C367.348 263.543 366.836 263.117 366.754 262.547L366.567 261.293C366.512 260.895 366.836 260.535 367.258 260.535H374.961C375.348 260.535 375.66 260.84 375.656 261.211L375.637 262.406C375.625 263.039 375.086 263.543 374.426 263.543Z" fill="#CC9F77"/>
<path id="Vector_332" d="M343.813 260.179H336.668C336.035 260.179 335.512 259.718 335.457 259.121L335.363 258.031C335.301 257.335 335.899 256.746 336.629 256.781L343.883 257.117C344.535 257.148 345.047 257.668 345.035 258.289L345.024 259.043C345.016 259.675 344.477 260.179 343.813 260.179Z" fill="#CC9F77"/>
<path id="Vector_333" d="M347.738 268.191H341.734C341.082 268.191 340.547 267.695 340.523 267.074L340.488 266.113C340.469 265.465 341.016 264.922 341.703 264.922H347.781C348.473 264.922 349.023 265.469 348.996 266.129L348.949 267.086C348.922 267.703 348.387 268.191 347.738 268.191Z" fill="#CC9F77"/>
<path id="Vector_334" d="M337.82 269.09H335.644C334.965 269.09 334.418 268.559 334.433 267.914L334.48 265.438C334.488 265.07 334.805 264.773 335.191 264.773H337.945C338.644 264.773 339.199 265.336 339.156 265.996L339.031 268.004C338.996 268.613 338.465 269.09 337.82 269.09Z" fill="#CC9F77"/>
<path id="Vector_335" d="M129 137.566H248.93V131.316H129C127.758 131.316 126.75 132.32 126.75 133.566V135.316C126.75 136.559 127.758 137.566 129 137.566Z" fill="#FAD4AE"/>
<path id="Vector_336" d="M128.93 141.73H248.93V137.566H128.93V141.73Z" fill="#AE5E4A"/>
<path id="Vector_337" d="M85.2852 208.965H75.7656V208.199L75.832 208.965H85.2852Z" fill="#A38F8E"/>
<path id="Vector_338" d="M128.93 208.965H75.832L75.7656 208.199H128.93V208.965Z" fill="#C18065"/>
<path id="Vector_339" d="M487.613 257.289H451.07V256.289H487.613V257.289Z" fill="#314755"/>
<path id="Vector_340" d="M456 275.711L455 275.703L455.168 256.785L456.168 256.793L456 275.711Z" fill="#314755"/>
<path id="Vector_341" d="M460.668 275.707H459.668V256.984H460.668V275.707Z" fill="#314755"/>
<path id="Vector_342" d="M464.707 275.707H463.707V257.016H464.707V275.707Z" fill="#314755"/>
<path id="Vector_343" d="M475.41 275.711L474.41 275.703L474.578 256.785L475.578 256.793L475.41 275.711Z" fill="#314755"/>
<path id="Vector_344" d="M480.078 275.707H479.078V256.984H480.078V275.707Z" fill="#314755"/>
<path id="Vector_345" d="M484.117 275.707H483.117V257.016H484.117V275.707Z" fill="#314755"/>
<path id="Vector_346" d="M303.137 249.23H301.871C301.391 249.23 301 248.84 301 248.359V242.438C301 241.953 301.391 241.566 301.871 241.566H303.137V249.23Z" fill="#8D7265"/>
<path id="Vector_347" d="M303.953 249.23H303.137V241.566H303.953C304.438 241.566 304.828 241.953 304.828 242.438V248.359C304.828 248.84 304.438 249.23 303.953 249.23Z" fill="#292635"/>
<path id="Vector_348" d="M301.871 247.23H303.953C304.438 247.23 304.828 246.84 304.828 246.359V240.438C304.828 239.953 304.438 239.566 303.953 239.566H301.871C301.391 239.566 301 239.953 301 240.438V246.359C301 246.84 301.391 247.23 301.871 247.23Z" fill="#FAD4AE"/>
<path id="Vector_349" d="M280.492 249.23H279.266C278.781 249.23 278.395 248.84 278.395 248.359V242.438C278.395 241.953 278.781 241.566 279.266 241.566H280.492V249.23Z" fill="#8D7265"/>
<path id="Vector_350" d="M281.348 249.23H280.492V241.566H281.348C281.828 241.566 282.219 241.953 282.219 242.438V248.359C282.219 248.84 281.828 249.23 281.348 249.23Z" fill="#292635"/>
<path id="Vector_351" d="M279.266 247.23H281.348C281.828 247.23 282.219 246.84 282.219 246.359V240.438C282.219 239.953 281.828 239.566 281.348 239.566H279.266C278.781 239.566 278.395 239.953 278.395 240.438V246.359C278.395 246.84 278.781 247.23 279.266 247.23Z" fill="#FAD4AE"/>
<path id="Vector_352" d="M259.66 170.953H272.879V135.23H259.66V170.953Z" fill="#333B4E"/>
<path id="Vector_353" d="M260.16 170.453H272.379V135.73H260.16V170.453ZM273.379 171.453H259.16V134.73H273.379V171.453Z" fill="#00232D"/>
<path id="Vector_354" d="M259.66 210.609H272.879V174.887H259.66V210.609Z" fill="#333B4E"/>
<path id="Vector_355" d="M260.16 210.109H272.379V175.387H260.16V210.109ZM273.379 211.109H259.16V174.387H273.379V211.109Z" fill="#00232D"/>
<path id="Vector_356" d="M276.211 170.953H289.43V135.23H276.211V170.953Z" fill="#333B4E"/>
<path id="Vector_357" d="M276.711 170.453H288.93V135.73H276.711V170.453ZM289.93 171.453H275.711V134.73H289.93V171.453Z" fill="#00232D"/>
<path id="Vector_358" d="M276.211 210.609H289.43V174.887H276.211V210.609Z" fill="#333B4E"/>
<path id="Vector_359" d="M276.711 210.109H288.93V175.387H276.711V210.109ZM289.93 211.109H275.711V174.387H289.93V211.109Z" fill="#00232D"/>
<path id="Vector_360" d="M292.766 170.953H305.984V135.23H292.766V170.953Z" fill="#333B4E"/>
<path id="Vector_361" d="M293.266 170.453H305.48V135.73H293.266V170.453ZM306.48 171.453H292.266V134.73H306.48V171.453Z" fill="#00232D"/>
<path id="Vector_362" d="M292.766 210.609H305.984V174.887H292.766V210.609Z" fill="#333B4E"/>
<path id="Vector_363" d="M293.266 210.109H305.48V175.387H293.266V210.109ZM306.48 211.109H292.266V174.387H306.48V211.109Z" fill="#00232D"/>
<path id="Vector_364" d="M309.316 170.953H322.535V135.23H309.316V170.953Z" fill="#333B4E"/>
<path id="Vector_365" d="M309.816 170.453H322.035V135.73H309.816V170.453ZM323.035 171.453H308.816V134.73H323.035V171.453Z" fill="#00232D"/>
<path id="Vector_366" d="M309.316 210.609H322.535V174.887H309.316V210.609Z" fill="#333B4E"/>
<path id="Vector_367" d="M309.816 210.109H322.035V175.387H309.816V210.109ZM323.035 211.109H308.816V174.387H323.035V211.109Z" fill="#00232D"/>
<path id="Vector_368" d="M315.82 210.109H310.98L317.875 175.387H322.035V178.805L315.82 210.109Z" fill="#537D7C"/>
<path id="Vector_369" d="M315.656 210.934H310.816L310.98 210.109H315.82L315.656 210.934ZM322.035 178.805V175.387H317.875L318.035 174.578H322.875L322.035 178.805Z" fill="#326D67"/>
<path id="Vector_370" d="M309.816 200.484V191.105L313.094 175.387H315.051L309.816 200.484Z" fill="#537D7C"/>
<path id="Vector_371" d="M309 204.406V195.023L309.816 191.105V200.484L309 204.406ZM315.051 175.387H313.094L313.262 174.586H315.215L315.051 175.387Z" fill="#326D67"/>
<path id="Vector_372" d="M299.258 210.109H294.418L301.309 175.387H305.48V178.754L299.258 210.109Z" fill="#537D7C"/>
<path id="Vector_373" d="M299.094 210.934H294.254L294.418 210.109H299.258L299.094 210.934ZM305.48 178.754V175.387H301.309L301.473 174.578H306.312L305.48 178.754Z" fill="#326D67"/>
<path id="Vector_374" d="M293.266 200.434V191.051L296.531 175.387H298.484L293.266 200.434Z" fill="#537D7C"/>
<path id="Vector_375" d="M292.438 204.406V195.023L293.266 191.051V200.434L292.438 204.406ZM298.484 175.387H296.531L296.695 174.586H298.652L298.484 175.387Z" fill="#326D67"/>
<path id="Vector_376" d="M282.695 210.109H277.855L284.746 175.387H288.93V178.695L282.695 210.109Z" fill="#537D7C"/>
<path id="Vector_377" d="M282.531 210.934H277.691L277.855 210.109H282.695L282.531 210.934ZM288.93 178.695V175.387H284.746L284.906 174.578H289.746L288.93 178.695Z" fill="#326D67"/>
<path id="Vector_378" d="M276.711 200.383V191L279.969 175.387H281.922L276.711 200.383Z" fill="#537D7C"/>
<path id="Vector_379" d="M275.871 204.406V195.023L276.711 191V200.383L275.871 204.406ZM281.922 175.387H279.969L280.133 174.586H282.09L281.922 175.387Z" fill="#326D67"/>
<path id="Vector_380" d="M266.133 210.109H261.293L268.184 175.387H272.379V178.641L266.133 210.109Z" fill="#537D7C"/>
<path id="Vector_381" d="M265.969 210.934H261.129L261.293 210.109H266.133L265.969 210.934ZM272.379 178.641V175.387H268.184L268.344 174.578H273.184L272.379 178.641Z" fill="#326D67"/>
<path id="Vector_382" d="M260.16 200.328V190.945L263.402 175.387H265.359L260.16 200.328Z" fill="#537D7C"/>
<path id="Vector_383" d="M259.309 204.406V195.023L260.16 190.945V200.328L259.309 204.406ZM265.359 175.387H263.402L263.57 174.586H265.527L265.359 175.387Z" fill="#326D67"/>
<path id="Vector_384" d="M315.82 170.453H310.98L317.871 135.73H322.035V139.141L315.82 170.453Z" fill="#537D7C"/>
<path id="Vector_385" d="M315.656 171.27H310.816L310.98 170.453H315.82L315.656 171.27ZM322.035 139.141V135.73H317.871L318.035 134.914H322.875L322.035 139.141Z" fill="#326D67"/>
<path id="Vector_386" d="M309.816 160.824V151.441L313.094 135.73H315.047L309.816 160.824Z" fill="#537D7C"/>
<path id="Vector_387" d="M309 164.742V155.359L309.816 151.441V160.824L309 164.742ZM315.047 135.73H313.094L313.262 134.922H315.215L315.047 135.73Z" fill="#326D67"/>
<path id="Vector_388" d="M299.258 170.453H294.418L301.309 135.73H305.48V139.09L299.258 170.453Z" fill="#537D7C"/>
<path id="Vector_389" d="M299.094 171.27H294.254L294.418 170.453H299.258L299.094 171.27ZM305.48 139.09V135.73H301.309L301.473 134.914H306.312L305.48 139.09Z" fill="#326D67"/>
<path id="Vector_390" d="M293.266 160.77V151.391L296.527 135.73H298.484L293.266 160.77Z" fill="#537D7C"/>
<path id="Vector_391" d="M292.438 164.742V155.359L293.266 151.391V160.77L292.438 164.742ZM298.484 135.73H296.527L296.695 134.922H298.652L298.484 135.73Z" fill="#326D67"/>
<path id="Vector_392" d="M282.695 170.453H277.855L284.746 135.73H288.93V139.031L282.695 170.453Z" fill="#537D7C"/>
<path id="Vector_393" d="M282.531 171.27H277.691L277.855 170.453H282.695L282.531 171.27ZM288.93 139.031V135.73H284.746L284.906 134.914H289.746L288.93 139.031Z" fill="#326D67"/>
<path id="Vector_394" d="M276.711 160.719V151.336L279.965 135.73H281.922L276.711 160.719Z" fill="#537D7C"/>
<path id="Vector_395" d="M275.871 164.742V155.359L276.711 151.336V160.719L275.871 164.742ZM281.922 135.73H279.965L280.133 134.922H282.09L281.922 135.73Z" fill="#326D67"/>
<path id="Vector_396" d="M266.133 170.453H261.289L268.184 135.73H272.379V138.98L266.133 170.453Z" fill="#537D7C"/>
<path id="Vector_397" d="M265.969 171.27H261.129L261.289 170.453H266.133L265.969 171.27ZM272.379 138.98V135.73H268.184L268.344 134.914H273.184L272.379 138.98Z" fill="#326D67"/>
<path id="Vector_398" d="M260.16 160.664V151.281L263.402 135.73H265.355L260.16 160.664Z" fill="#537D7C"/>
<path id="Vector_399" d="M259.309 164.742V155.359L260.16 151.281V160.664L259.309 164.742ZM265.355 135.73H263.402L263.57 134.922H265.527L265.355 135.73Z" fill="#326D67"/>
<g id="NTUST" filter="url(#filter0_d_70:6)">
<path d="M276.699 227H274.941L271.52 221.387V227H269.762V218.469H271.52L274.947 224.094V218.469H276.699V227ZM285.44 219.893H282.827V227H281.069V219.893H278.491V218.469H285.44V219.893ZM293.865 218.469V224.088C293.865 225.021 293.572 225.76 292.986 226.303C292.404 226.846 291.608 227.117 290.596 227.117C289.6 227.117 288.809 226.854 288.223 226.326C287.637 225.799 287.338 225.074 287.326 224.152V218.469H289.084V224.1C289.084 224.658 289.217 225.066 289.483 225.324C289.752 225.578 290.123 225.705 290.596 225.705C291.584 225.705 292.086 225.186 292.102 224.146V218.469H293.865ZM300.691 224.762C300.691 224.43 300.573 224.176 300.339 224C300.105 223.82 299.683 223.633 299.073 223.438C298.464 223.238 297.982 223.043 297.626 222.852C296.657 222.328 296.173 221.623 296.173 220.736C296.173 220.275 296.302 219.865 296.56 219.506C296.821 219.143 297.194 218.859 297.679 218.656C298.167 218.453 298.714 218.352 299.319 218.352C299.929 218.352 300.472 218.463 300.948 218.686C301.425 218.904 301.794 219.215 302.056 219.617C302.321 220.02 302.454 220.477 302.454 220.988H300.696C300.696 220.598 300.573 220.295 300.327 220.08C300.081 219.861 299.735 219.752 299.29 219.752C298.86 219.752 298.526 219.844 298.288 220.027C298.05 220.207 297.931 220.445 297.931 220.742C297.931 221.02 298.069 221.252 298.347 221.439C298.628 221.627 299.04 221.803 299.583 221.967C300.583 222.268 301.312 222.641 301.769 223.086C302.226 223.531 302.454 224.086 302.454 224.75C302.454 225.488 302.175 226.068 301.616 226.49C301.058 226.908 300.306 227.117 299.36 227.117C298.704 227.117 298.107 226.998 297.567 226.76C297.028 226.518 296.616 226.188 296.331 225.77C296.05 225.352 295.909 224.867 295.909 224.316H297.673C297.673 225.258 298.235 225.729 299.36 225.729C299.778 225.729 300.105 225.645 300.339 225.477C300.573 225.305 300.691 225.066 300.691 224.762ZM311.031 219.893H308.418V227H306.66V219.893H304.082V218.469H311.031V219.893Z" fill="black" fill-opacity="0.62" shape-rendering="crispEdges"/>
</g>
</g>
<g id="smallTree">
<path id="Vector_400" d="M223.012 275.762H224.832V269.57H223.012V275.762Z" fill="#653E36"/>
<path id="Vector_401" d="M217.844 275.762H219.668V269.57H217.844V275.762Z" fill="#653E36"/>
<path id="Vector_402" d="M198.926 275.762H200.746V269.57H198.926V275.762Z" fill="#653E36"/>
<path id="Vector_403" d="M195.148 275.762H196.973V269.57H195.148V275.762Z" fill="#653E36"/>
<path id="Vector_404" d="M206.777 258.574C206.777 265.672 213.426 271.422 221.621 271.422C229.816 271.422 236.465 265.672 236.465 258.574C236.465 251.48 229.816 245.73 221.621 245.73C213.426 245.73 206.777 251.48 206.777 258.574Z" fill="#96E792"/>
<path id="Vector_405" d="M229.473 260.355C229.465 260.223 229.453 260.086 229.426 259.953C229.352 259.57 228.91 259.203 228.535 259.156C228.426 259.141 228.32 259.148 228.215 259.148L228.176 259.133C227.465 258.922 226.527 259.41 226.23 260.074C225.949 260.684 226.004 261.379 226.395 261.875C226.551 262.152 226.824 262.402 227.141 262.43H227.215C227.551 262.547 227.93 262.574 228.289 262.504C229.039 262.363 229.625 261.555 229.562 260.801C229.551 260.641 229.52 260.496 229.473 260.355ZM236.465 258.574C236.465 265.672 229.816 271.422 221.621 271.422C213.426 271.422 206.777 265.672 206.777 258.574C206.777 253.57 210.094 249.246 214.914 247.129C212.687 248.941 211.289 251.508 211.289 254.363C211.289 257.02 212.5 259.43 214.465 261.211C214.5 261.184 215.082 260.168 216.41 259.949C219.012 259.527 220.691 260.664 221.406 262.336C221.676 262.969 221.727 263.629 221.609 264.246C221.992 264.281 222.383 264.305 222.773 264.305C229.117 264.305 234.262 259.855 234.262 254.363C234.262 253.168 234.004 252.027 233.559 250.965C235.375 253.098 236.465 255.723 236.465 258.574Z" fill="#43C081"/>
<path id="Vector_406" d="M185.965 261.238C185.965 266.863 191.234 271.422 197.73 271.422C204.23 271.422 209.5 266.863 209.5 261.238C209.5 255.613 204.23 251.055 197.73 251.055C191.234 251.055 185.965 255.613 185.965 261.238Z" fill="#96E792"/>
<path id="Vector_407" d="M203.957 262.648C203.949 262.543 203.941 262.438 203.922 262.328C203.859 262.027 203.512 261.734 203.215 261.695L202.961 261.691L202.93 261.68C202.363 261.512 201.621 261.898 201.387 262.426C201.164 262.91 201.207 263.461 201.516 263.852C201.641 264.074 201.859 264.27 202.105 264.293H202.168C202.434 264.387 202.734 264.406 203.02 264.352C203.613 264.238 204.078 263.602 204.027 263.004C204.02 262.875 203.992 262.762 203.957 262.648ZM209.5 261.238C209.5 266.863 204.23 271.422 197.73 271.422C191.234 271.422 185.965 266.863 185.965 261.238C185.965 257.27 188.594 253.844 192.414 252.16C190.648 253.598 189.539 255.633 189.539 257.898C189.539 260.004 190.5 261.914 192.059 263.328C192.086 263.305 192.547 262.5 193.602 262.328C195.664 261.992 196.996 262.895 197.562 264.219C197.777 264.719 197.816 265.242 197.723 265.734C198.027 265.762 198.336 265.781 198.648 265.781C203.676 265.781 207.754 262.25 207.754 257.898C207.754 256.949 207.551 256.047 207.195 255.203C208.637 256.895 209.5 258.977 209.5 261.238Z" fill="#43C081"/>
<path id="Vector_408" d="M165.953 275.762H167.773V269.57H165.953V275.762Z" fill="#653E36"/>
<path id="Vector_409" d="M160.785 275.762H162.609V269.57H160.785V275.762Z" fill="#653E36"/>
<path id="Vector_410" d="M141.867 275.762H143.688V269.57H141.867V275.762Z" fill="#653E36"/>
<path id="Vector_411" d="M138.09 275.762H139.914V269.57H138.09V275.762Z" fill="#653E36"/>
<path id="Vector_412" d="M149.723 258.574C149.723 265.672 156.367 271.422 164.562 271.422C172.762 271.422 179.406 265.672 179.406 258.574C179.406 251.48 172.762 245.73 164.562 245.73C156.367 245.73 149.723 251.48 149.723 258.574Z" fill="#96E792"/>
<path id="Vector_413" d="M172.414 260.355C172.406 260.223 172.395 260.086 172.367 259.953C172.293 259.57 171.855 259.203 171.477 259.156C171.367 259.141 171.266 259.148 171.156 259.148L171.117 259.133C170.406 258.922 169.473 259.41 169.172 260.074C168.895 260.684 168.945 261.379 169.336 261.875C169.492 262.152 169.77 262.402 170.082 262.43H170.156C170.492 262.547 170.871 262.574 171.23 262.504C171.98 262.363 172.566 261.555 172.508 260.801C172.492 260.641 172.461 260.496 172.414 260.355ZM179.406 258.574C179.406 265.672 172.762 271.422 164.562 271.422C156.367 271.422 149.723 265.672 149.723 258.574C149.723 253.57 153.035 249.246 157.859 247.129C155.629 248.941 154.23 251.508 154.23 254.363C154.23 257.02 155.441 259.43 157.406 261.211C157.441 261.184 158.023 260.168 159.355 259.949C161.953 259.527 163.637 260.664 164.352 262.336C164.617 262.969 164.672 263.629 164.555 264.246C164.937 264.281 165.324 264.305 165.719 264.305C172.059 264.305 177.203 259.855 177.203 254.363C177.203 253.168 176.945 252.027 176.5 250.965C178.316 253.098 179.406 255.723 179.406 258.574Z" fill="#43C081"/>
<path id="Vector_414" d="M128.906 261.238C128.906 266.863 134.176 271.422 140.676 271.422C147.172 271.422 152.441 266.863 152.441 261.238C152.441 255.613 147.172 251.055 140.676 251.055C134.176 251.055 128.906 255.613 128.906 261.238Z" fill="#96E792"/>
<path id="Vector_415" d="M146.898 262.648C146.891 262.543 146.883 262.438 146.863 262.328C146.801 262.027 146.453 261.734 146.156 261.695L145.902 261.691L145.871 261.68C145.305 261.512 144.566 261.898 144.328 262.426C144.105 262.91 144.148 263.461 144.461 263.852C144.582 264.074 144.801 264.27 145.051 264.293H145.109C145.375 264.387 145.676 264.406 145.961 264.352C146.555 264.238 147.02 263.602 146.973 263.004C146.961 262.875 146.934 262.762 146.898 262.648ZM152.441 261.238C152.441 266.863 147.172 271.422 140.676 271.422C134.176 271.422 128.906 266.863 128.906 261.238C128.906 257.27 131.535 253.844 135.359 252.16C133.594 253.598 132.48 255.633 132.48 257.898C132.48 260.004 133.441 261.914 135 263.328C135.027 263.305 135.488 262.5 136.543 262.328C138.605 261.992 139.938 262.895 140.504 264.219C140.719 264.719 140.758 265.242 140.664 265.734C140.969 265.762 141.277 265.781 141.59 265.781C146.617 265.781 150.695 262.25 150.695 257.898C150.695 256.949 150.492 256.047 150.137 255.203C151.578 256.895 152.441 258.977 152.441 261.238Z" fill="#43C081"/>
<path id="Vector_416" d="M355.312 275.762H353.492V269.57H355.312V275.762Z" fill="#653E36"/>
<path id="Vector_417" d="M360.477 275.762H358.656V269.57H360.477V275.762Z" fill="#653E36"/>
<path id="Vector_418" d="M379.398 275.762H377.578V269.57H379.398V275.762Z" fill="#653E36"/>
<path id="Vector_419" d="M383.176 275.762H381.352V269.57H383.176V275.762Z" fill="#653E36"/>
<path id="Vector_420" d="M371.547 258.574C371.547 265.672 364.898 271.422 356.703 271.422C348.508 271.422 341.859 265.672 341.859 258.574C341.859 251.48 348.508 245.73 356.703 245.73C364.898 245.73 371.547 251.48 371.547 258.574Z" fill="#96E792"/>
<path id="Vector_421" d="M348.762 260.801C348.699 261.555 349.285 262.363 350.035 262.504C350.395 262.574 350.77 262.547 351.105 262.43H351.184C351.496 262.402 351.773 262.152 351.93 261.875C352.32 261.379 352.371 260.684 352.094 260.074C351.793 259.41 350.859 258.922 350.145 259.133L350.105 259.148C350.004 259.148 349.898 259.141 349.789 259.156C349.41 259.203 348.973 259.57 348.898 259.953C348.871 260.086 348.859 260.223 348.848 260.355C348.805 260.496 348.773 260.641 348.762 260.801ZM344.766 250.965C344.32 252.027 344.062 253.168 344.062 254.363C344.062 259.855 349.203 264.305 355.551 264.305C355.941 264.305 356.328 264.281 356.715 264.246C356.598 263.629 356.645 262.969 356.914 262.336C357.629 260.664 359.312 259.527 361.91 259.949C363.242 260.168 363.824 261.184 363.859 261.211C365.824 259.43 367.035 257.02 367.035 254.363C367.035 251.508 365.637 248.941 363.406 247.129C368.23 249.246 371.547 253.57 371.547 258.574C371.547 265.672 364.898 271.422 356.703 271.422C348.508 271.422 341.859 265.672 341.859 258.574C341.859 255.723 342.949 253.098 344.766 250.965Z" fill="#43C081"/>
<path id="Vector_422" d="M392.359 261.238C392.359 266.863 387.09 271.422 380.594 271.422C374.094 271.422 368.824 266.863 368.824 261.238C368.824 255.613 374.094 251.055 380.594 251.055C387.09 251.055 392.359 255.613 392.359 261.238Z" fill="#96E792"/>
<path id="Vector_423" d="M374.293 263.004C374.246 263.602 374.711 264.238 375.305 264.352C375.59 264.406 375.891 264.387 376.156 264.293H376.219C376.465 264.27 376.684 264.074 376.809 263.852C377.117 263.461 377.16 262.91 376.938 262.426C376.699 261.898 375.961 261.512 375.395 261.68L375.363 261.691L375.109 261.695C374.812 261.734 374.465 262.027 374.402 262.328C374.383 262.438 374.375 262.543 374.367 262.648C374.332 262.762 374.305 262.875 374.293 263.004ZM371.129 255.203C370.773 256.047 370.57 256.949 370.57 257.898C370.57 262.25 374.648 265.781 379.676 265.781C379.988 265.781 380.297 265.762 380.602 265.734C380.508 265.242 380.547 264.719 380.762 264.219C381.328 262.895 382.66 261.992 384.723 262.328C385.773 262.5 386.238 263.305 386.266 263.328C387.824 261.914 388.781 260.004 388.781 257.898C388.781 255.633 387.676 253.598 385.906 252.16C389.73 253.844 392.359 257.27 392.359 261.238C392.359 266.863 387.09 271.422 380.594 271.422C374.094 271.422 368.824 266.863 368.824 261.238C368.824 258.977 369.688 256.895 371.129 255.203Z" fill="#43C081"/>
<path id="Vector_424" d="M412.371 275.762H410.551V269.57H412.371V275.762Z" fill="#653E36"/>
<path id="Vector_425" d="M417.535 275.762H415.715V269.57H417.535V275.762Z" fill="#653E36"/>
<path id="Vector_426" d="M436.457 275.762H434.637V269.57H436.457V275.762Z" fill="#653E36"/>
<path id="Vector_427" d="M440.234 275.762H438.41V269.57H440.234V275.762Z" fill="#653E36"/>
<path id="Vector_428" d="M428.602 258.574C428.602 265.672 421.957 271.422 413.762 271.422C405.562 271.422 398.918 265.672 398.918 258.574C398.918 251.48 405.562 245.73 413.762 245.73C421.957 245.73 428.602 251.48 428.602 258.574Z" fill="#96E792"/>
<path id="Vector_429" d="M405.816 260.801C405.758 261.555 406.344 262.363 407.094 262.504C407.449 262.574 407.828 262.547 408.164 262.43H408.242C408.555 262.402 408.832 262.152 408.988 261.875C409.379 261.379 409.43 260.684 409.152 260.074C408.852 259.41 407.918 258.922 407.203 259.133L407.164 259.148C407.059 259.148 406.957 259.141 406.848 259.156C406.469 259.203 406.031 259.57 405.957 259.953C405.93 260.086 405.918 260.223 405.906 260.355C405.863 260.496 405.828 260.641 405.816 260.801ZM401.824 250.965C401.379 252.027 401.121 253.168 401.121 254.363C401.121 259.855 406.262 264.305 412.605 264.305C413 264.305 413.387 264.281 413.77 264.246C413.652 263.629 413.703 262.969 413.973 262.336C414.688 260.664 416.367 259.527 418.969 259.949C420.301 260.168 420.883 261.184 420.918 261.211C422.883 259.43 424.094 257.02 424.094 254.363C424.094 251.508 422.695 248.941 420.465 247.129C425.289 249.246 428.602 253.57 428.602 258.574C428.602 265.672 421.957 271.422 413.762 271.422C405.562 271.422 398.918 265.672 398.918 258.574C398.918 255.723 400.008 253.098 401.824 250.965Z" fill="#43C081"/>
<path id="Vector_430" d="M449.418 261.238C449.418 266.863 444.148 271.422 437.648 271.422C431.152 271.422 425.883 266.863 425.883 261.238C425.883 255.613 431.152 251.055 437.648 251.055C444.148 251.055 449.418 255.613 449.418 261.238Z" fill="#96E792"/>
<path id="Vector_431" d="M431.352 263.004C431.305 263.602 431.77 264.238 432.363 264.352C432.648 264.406 432.945 264.387 433.215 264.293H433.273C433.523 264.27 433.742 264.074 433.863 263.852C434.176 263.461 434.219 262.91 433.996 262.426C433.758 261.898 433.02 261.512 432.453 261.68L432.422 261.691L432.168 261.695C431.871 261.734 431.523 262.027 431.461 262.328C431.441 262.438 431.434 262.543 431.426 262.648C431.391 262.762 431.363 262.875 431.352 263.004ZM428.188 255.203C427.832 256.047 427.629 256.949 427.629 257.898C427.629 262.25 431.707 265.781 436.734 265.781C437.047 265.781 437.355 265.762 437.656 265.734C437.566 265.242 437.605 264.719 437.816 264.219C438.387 262.895 439.719 261.992 441.777 262.328C442.836 262.5 443.297 263.305 443.324 263.328C444.883 261.914 445.84 260.004 445.84 257.898C445.84 255.633 444.73 253.598 442.965 252.16C446.789 253.844 449.418 257.27 449.418 261.238C449.418 266.863 444.148 271.422 437.648 271.422C431.152 271.422 425.883 266.863 425.883 261.238C425.883 258.977 426.746 256.895 428.188 255.203Z" fill="#43C081"/>
</g>
<g id="RTree">
<path id="Vector_432" d="M533.297 275.809H539.496V253.426H533.297V275.809Z" fill="#653E36"/>
<path id="Vector_433" d="M505.133 257.391H569.035L536.809 202.152L505.133 257.391Z" fill="#43C081"/>
<path id="Vector_434" d="M559.676 241.344L536.809 202.152L514.336 241.344H559.676Z" fill="#4F9F79"/>
<path id="Vector_435" d="M510.109 234.105H564.059L536.852 187.469L510.109 234.105Z" fill="#43C081"/>
<path id="Vector_436" d="M553.34 215.73L536.852 187.469L520.648 215.73H553.34Z" fill="#4F9F79"/>
<path id="Vector_437" d="M516.164 209.195H558.004L536.902 173.031L516.164 209.195Z" fill="#43C081"/>
<path id="Vector_438" d="M548.559 193.008L536.902 173.031L525.449 193.008H548.559Z" fill="#4F9F79"/>
<path id="Vector_439" d="M522.656 187.09H551.512L536.961 162.145L522.656 187.09Z" fill="#43C081"/>
</g>
<g id="LTree">
<path id="Vector_440" d="M34.125 275.809H40.3242V253.426H34.125V275.809Z" fill="#653E36"/>
<path id="Vector_441" d="M5.96484 257.391H69.8633L37.6367 202.152L5.96484 257.391Z" fill="#43C081"/>
<path id="Vector_442" d="M60.5039 241.344L37.6367 202.152L15.1641 241.344H60.5039Z" fill="#4F9F79"/>
<path id="Vector_443" d="M10.9375 234.105H64.8906L37.6797 187.469L10.9375 234.105Z" fill="#43C081"/>
<path id="Vector_444" d="M54.168 215.73L37.6797 187.469L21.4766 215.73H54.168Z" fill="#4F9F79"/>
<path id="Vector_445" d="M16.9961 209.195H58.832L37.7344 173.031L16.9961 209.195Z" fill="#43C081"/>
<path id="Vector_446" d="M49.3867 193.008L37.7344 173.031L26.2812 193.008H49.3867Z" fill="#4F9F79"/>
<path id="Vector_447" d="M23.4844 187.09H52.3438L37.7891 162.145L23.4844 187.09Z" fill="#43C081"/>
</g>
<g id="statue">
<rect id="Rectangle 4" x="268.791" y="313.784" width="45" height="10" fill="#A8A7A7"/>
<g id="Rectangle 5" filter="url(#filter1_i_70:6)">
<path d="M269.544 299.966L297.014 308.158L289.002 315.056H262.104L269.544 299.966Z" fill="#C4C4C4"/>
</g>
<path id="Rectangle 3" d="M253.791 312.784L268.791 314.784V323.784L252.791 320.784L253.791 312.784Z" fill="#C4C4C4"/>
<g id="Rectangle 14" filter="url(#filter2_i_70:6)">
<path d="M284.12 295.784L298.791 300.35L293.74 306.784L279.791 300.35L284.12 295.784Z" fill="#7C7B7B"/>
</g>
<g id="Rectangle 19" filter="url(#filter3_i_70:6)">
<path d="M298.12 286.784L312.791 291.35L307.74 297.784L293.791 291.35L298.12 286.784Z" fill="#7C7B7B"/>
</g>
<g id="Rectangle 24" filter="url(#filter4_i_70:6)">
<path d="M321.892 271.784L335.791 276.35L331.006 282.784L317.791 276.35L321.892 271.784Z" fill="#7C7B7B"/>
</g>
<path id="Rectangle 17" d="M298.508 293.369L308.291 296.284L310.034 299.784L293.074 295.493L298.508 293.369Z" fill="#A8A7A7"/>
<path id="Rectangle 18" d="M313.541 289.657L309.791 299.784L308.331 296.49L311.185 288.784L313.541 289.657Z" fill="#A8A7A7"/>
<path id="Rectangle 23" d="M336.666 275.283L332.791 285.283L331.633 281.725L334.138 274.347L336.666 275.283Z" fill="#A8A7A7"/>
<g id="Rectangle 20" filter="url(#filter5_i_70:6)">
<path d="M312.099 290.84L299.853 287.646L318.791 279.783L332.785 285.245L312.099 290.84Z" fill="#C4C4C4"/>
</g>
<g id="Rectangle 26" filter="url(#filter6_i_70:6)">
<path d="M367.29 250.784L361.291 235.855L370.791 241.784L376.791 253.284L367.29 250.784Z" fill="#C4C4C4"/>
</g>
<g id="Rectangle 25" filter="url(#filter7_i_70:6)">
<path d="M333.791 275.784L324.291 272.784L367.291 250.284L376.791 253.284L333.791 275.784Z" fill="#A2A2A2"/>
</g>
<path id="Rectangle 22" d="M322.791 278.284L331.791 281.784L332.791 285.284L318.791 280.284L322.791 278.284Z" fill="#A8A7A7"/>
<path id="Rectangle 6" d="M293.026 306.784L304.971 311.127L301.487 314.784H289.791L293.026 306.784Z" fill="#606060"/>
<path id="Rectangle 10" d="M367.722 250.208L294.596 288.767L294.596 278.783L361.49 236.247L367.722 250.208Z" fill="#C4C4C4"/>
<path id="Rectangle 9" d="M319.843 279.481L279.484 297.273L274.66 277.283L325.203 264.052L319.843 279.481Z" fill="#CDCDCD"/>
<path id="Rectangle 8" d="M295.292 299.992L262.361 287.377L266.542 278.379L301.791 278.379L295.292 299.992Z" fill="#C4C4C4"/>
<path id="Rectangle 7" d="M256.791 279.784L285.291 284.284L279.05 303.47L246.791 293.284L256.791 279.784Z" fill="#B4B4B4"/>
<path id="Rectangle 11" d="M281.791 301.284L295.809 304.91L295.502 308.36L281.291 304.284L281.791 301.284Z" fill="#A8A7A7"/>
<path id="Rectangle 13" d="M299.451 298.901L295.444 308.655L293.9 304.622L296.821 297.927L299.451 298.901Z" fill="#A8A7A7"/>
<g id="Rectangle 15" filter="url(#filter8_i_70:6)">
<path d="M295.291 295.784L309.79 299.783L298.579 301.496L280.974 296.21L295.291 295.784Z" fill="#C4C4C4"/>
</g>
<path id="Rectangle 12" d="M288.786 285.641L281.858 304.549L278.271 303.234L285.199 284.326L288.786 285.641Z" fill="#A8A7A7"/>
<path id="Rectangle 16" d="M304.592 279.965L298.291 296.783L295.291 295.784L301.791 278.284L304.592 279.965Z" fill="#A8A7A7"/>
<path id="Rectangle 21" d="M327.663 265.506L321.787 281.295L318.668 280.252L324.791 263.784L327.663 265.506Z" fill="#A8A7A7"/>
<line id="Line 2" x1="253.82" y1="313.637" x2="268.82" y2="316.637" stroke="#878787" stroke-width="0.3"/>
<line id="Line 3" x1="272.791" y1="316.634" x2="312.791" y2="316.634" stroke="#878787" stroke-width="0.3"/>
</g>
</g>
<defs>
<filter id="filter0_d_70:6" x="265.762" y="218.352" width="49.2695" height="16.7656" filterUnits="userSpaceOnUse" color-interpolation-filters="sRGB">
<feFlood flood-opacity="0" result="BackgroundImageFix"/>
<feColorMatrix in="SourceAlpha" type="matrix" values="0 0 0 0 0 0 0 0 0 0 0 0 0 0 0 0 0 0 127 0" result="hardAlpha"/>
<feOffset dy="4"/>
<feGaussianBlur stdDeviation="2"/>
<feComposite in2="hardAlpha" operator="out"/>
<feColorMatrix type="matrix" values="0 0 0 0 0 0 0 0 0 0 0 0 0 0 0 0 0 0 0.25 0"/>
<feBlend mode="normal" in2="BackgroundImageFix" result="effect1_dropShadow_70:6"/>
<feBlend mode="normal" in="SourceGraphic" in2="effect1_dropShadow_70:6" result="shape"/>
</filter>
<filter id="filter1_i_70:6" x="262.104" y="299.966" width="34.9097" height="19.0898" filterUnits="userSpaceOnUse" color-interpolation-filters="sRGB">
<feFlood flood-opacity="0" result="BackgroundImageFix"/>
<feBlend mode="normal" in="SourceGraphic" in2="BackgroundImageFix" result="shape"/>
<feColorMatrix in="SourceAlpha" type="matrix" values="0 0 0 0 0 0 0 0 0 0 0 0 0 0 0 0 0 0 127 0" result="hardAlpha"/>
<feOffset dy="4"/>
<feGaussianBlur stdDeviation="2"/>
<feComposite in2="hardAlpha" operator="arithmetic" k2="-1" k3="1"/>
<feColorMatrix type="matrix" values="0 0 0 0 0 0 0 0 0 0 0 0 0 0 0 0 0 0 0.25 0"/>
<feBlend mode="normal" in2="shape" result="effect1_innerShadow_70:6"/>
</filter>
<filter id="filter2_i_70:6" x="279.791" y="295.784" width="19" height="15" filterUnits="userSpaceOnUse" color-interpolation-filters="sRGB">
<feFlood flood-opacity="0" result="BackgroundImageFix"/>
<feBlend mode="normal" in="SourceGraphic" in2="BackgroundImageFix" result="shape"/>
<feColorMatrix in="SourceAlpha" type="matrix" values="0 0 0 0 0 0 0 0 0 0 0 0 0 0 0 0 0 0 127 0" result="hardAlpha"/>
<feOffset dy="4"/>
<feGaussianBlur stdDeviation="2"/>
<feComposite in2="hardAlpha" operator="arithmetic" k2="-1" k3="1"/>
<feColorMatrix type="matrix" values="0 0 0 0 0 0 0 0 0 0 0 0 0 0 0 0 0 0 0.38 0"/>
<feBlend mode="normal" in2="shape" result="effect1_innerShadow_70:6"/>
</filter>
<filter id="filter3_i_70:6" x="293.791" y="286.784" width="19" height="15" filterUnits="userSpaceOnUse" color-interpolation-filters="sRGB">
<feFlood flood-opacity="0" result="BackgroundImageFix"/>
<feBlend mode="normal" in="SourceGraphic" in2="BackgroundImageFix" result="shape"/>
<feColorMatrix in="SourceAlpha" type="matrix" values="0 0 0 0 0 0 0 0 0 0 0 0 0 0 0 0 0 0 127 0" result="hardAlpha"/>
<feOffset dy="4"/>
<feGaussianBlur stdDeviation="2"/>
<feComposite in2="hardAlpha" operator="arithmetic" k2="-1" k3="1"/>
<feColorMatrix type="matrix" values="0 0 0 0 0 0 0 0 0 0 0 0 0 0 0 0 0 0 0.38 0"/>
<feBlend mode="normal" in2="shape" result="effect1_innerShadow_70:6"/>
</filter>
<filter id="filter4_i_70:6" x="317.791" y="271.784" width="18" height="15" filterUnits="userSpaceOnUse" color-interpolation-filters="sRGB">
<feFlood flood-opacity="0" result="BackgroundImageFix"/>
<feBlend mode="normal" in="SourceGraphic" in2="BackgroundImageFix" result="shape"/>
<feColorMatrix in="SourceAlpha" type="matrix" values="0 0 0 0 0 0 0 0 0 0 0 0 0 0 0 0 0 0 127 0" result="hardAlpha"/>
<feOffset dy="4"/>
<feGaussianBlur stdDeviation="2"/>
<feComposite in2="hardAlpha" operator="arithmetic" k2="-1" k3="1"/>
<feColorMatrix type="matrix" values="0 0 0 0 0 0 0 0 0 0 0 0 0 0 0 0 0 0 0.38 0"/>
<feBlend mode="normal" in2="shape" result="effect1_innerShadow_70:6"/>
</filter>
<filter id="filter5_i_70:6" x="299.853" y="279.783" width="32.9326" height="15.0566" filterUnits="userSpaceOnUse" color-interpolation-filters="sRGB">
<feFlood flood-opacity="0" result="BackgroundImageFix"/>
<feBlend mode="normal" in="SourceGraphic" in2="BackgroundImageFix" result="shape"/>
<feColorMatrix in="SourceAlpha" type="matrix" values="0 0 0 0 0 0 0 0 0 0 0 0 0 0 0 0 0 0 127 0" result="hardAlpha"/>
<feOffset dy="4"/>
<feGaussianBlur stdDeviation="2"/>
<feComposite in2="hardAlpha" operator="arithmetic" k2="-1" k3="1"/>
<feColorMatrix type="matrix" values="0 0 0 0 0 0 0 0 0 0 0 0 0 0 0 0 0 0 0.25 0"/>
<feBlend mode="normal" in2="shape" result="effect1_innerShadow_70:6"/>
</filter>
<filter id="filter6_i_70:6" x="361.291" y="235.854" width="15.5" height="21.4297" filterUnits="userSpaceOnUse" color-interpolation-filters="sRGB">
<feFlood flood-opacity="0" result="BackgroundImageFix"/>
<feBlend mode="normal" in="SourceGraphic" in2="BackgroundImageFix" result="shape"/>
<feColorMatrix in="SourceAlpha" type="matrix" values="0 0 0 0 0 0 0 0 0 0 0 0 0 0 0 0 0 0 127 0" result="hardAlpha"/>
<feOffset dy="4"/>
<feGaussianBlur stdDeviation="2"/>
<feComposite in2="hardAlpha" operator="arithmetic" k2="-1" k3="1"/>
<feColorMatrix type="matrix" values="0 0 0 0 0 0 0 0 0 0 0 0 0 0 0 0 0 0 0.25 0"/>
<feBlend mode="normal" in2="shape" result="effect1_innerShadow_70:6"/>
</filter>
<filter id="filter7_i_70:6" x="324.291" y="250.284" width="52.5" height="29.5" filterUnits="userSpaceOnUse" color-interpolation-filters="sRGB">
<feFlood flood-opacity="0" result="BackgroundImageFix"/>
<feBlend mode="normal" in="SourceGraphic" in2="BackgroundImageFix" result="shape"/>
<feColorMatrix in="SourceAlpha" type="matrix" values="0 0 0 0 0 0 0 0 0 0 0 0 0 0 0 0 0 0 127 0" result="hardAlpha"/>
<feOffset dy="4"/>
<feGaussianBlur stdDeviation="2"/>
<feComposite in2="hardAlpha" operator="arithmetic" k2="-1" k3="1"/>
<feColorMatrix type="matrix" values="0 0 0 0 0 0 0 0 0 0 0 0 0 0 0 0 0 0 0.25 0"/>
<feBlend mode="normal" in2="shape" result="effect1_innerShadow_70:6"/>
</filter>
<filter id="filter8_i_70:6" x="280.974" y="295.783" width="28.8169" height="9.71289" filterUnits="userSpaceOnUse" color-interpolation-filters="sRGB">
<feFlood flood-opacity="0" result="BackgroundImageFix"/>
<feBlend mode="normal" in="SourceGraphic" in2="BackgroundImageFix" result="shape"/>
<feColorMatrix in="SourceAlpha" type="matrix" values="0 0 0 0 0 0 0 0 0 0 0 0 0 0 0 0 0 0 127 0" result="hardAlpha"/>
<feOffset dy="4"/>
<feGaussianBlur stdDeviation="2"/>
<feComposite in2="hardAlpha" operator="arithmetic" k2="-1" k3="1"/>
<feColorMatrix type="matrix" values="0 0 0 0 0 0 0 0 0 0 0 0 0 0 0 0 0 0 0.25 0"/>
<feBlend mode="normal" in2="shape" result="effect1_innerShadow_70:6"/>
</filter>
</defs>
</svg>
