<?xml version="1.0" encoding="UTF-8"?>
<svg xmlns="http://www.w3.org/2000/svg" xmlns:xlink="http://www.w3.org/1999/xlink" width="508pt" height="324.5pt" viewBox="0 0 508 324.5" version="1.1">
<g id="surface1">
<path style=" stroke:none;fill-rule:nonzero;fill:rgb(96.899414%,90.19928%,82.398987%);fill-opacity:1;" d="M 0 324.5 L 508 324.5 L 508 0.00390625 L 0 0.00390625 Z M 0 324.5 "/>
<path style=" stroke:none;fill-rule:nonzero;fill:rgb(56.898499%,57.998657%,27.799988%);fill-opacity:1;" d="M 179.324219 277.726563 C 179.324219 277.714844 179.484375 276.226563 179.484375 273.558594 C 179.488281 261.785156 176.347656 227.027344 142.5 195.414063 C 142.34375 195.265625 142.097656 195.273438 141.949219 195.433594 C 141.800781 195.589844 141.8125 195.835938 141.96875 195.984375 C 175.609375 227.410156 178.703125 261.914063 178.703125 273.558594 C 178.703125 274.878906 178.664063 275.902344 178.625 276.59375 C 178.605469 276.941406 178.585938 277.207031 178.570313 277.382813 C 178.558594 277.558594 178.546875 277.644531 178.546875 277.644531 C 178.523438 277.859375 178.679688 278.050781 178.894531 278.074219 C 179.109375 278.097656 179.300781 277.941406 179.324219 277.730469 "/>
<path style=" stroke:none;fill-rule:nonzero;fill:rgb(56.898499%,57.998657%,27.799988%);fill-opacity:1;" d="M 170.425781 234.042969 C 170.429688 234.027344 180.832031 199.523438 180.835938 169.277344 C 180.835938 163.359375 180.4375 157.601563 179.480469 152.292969 C 178.089844 144.585938 177.4375 137.066406 177.4375 130.011719 C 177.4375 118.390625 179.207031 108.023438 182.355469 100.140625 C 185.503906 92.253906 190.023438 86.886719 195.445313 85.152344 C 195.652344 85.085938 195.765625 84.863281 195.699219 84.660156 C 195.632813 84.453125 195.414063 84.339844 195.210938 84.40625 C 189.449219 86.265625 184.828125 91.855469 181.632813 99.851563 C 178.433594 107.859375 176.65625 118.3125 176.65625 130.011719 C 176.65625 137.113281 177.3125 144.679688 178.710938 152.429688 C 179.65625 157.679688 180.054688 163.394531 180.054688 169.277344 C 180.054688 184.3125 177.460938 200.457031 174.863281 212.835938 C 173.566406 219.023438 172.269531 224.273438 171.296875 227.972656 C 170.8125 229.820313 170.40625 231.285156 170.121094 232.285156 C 169.839844 233.285156 169.675781 233.816406 169.675781 233.820313 C 169.613281 234.027344 169.730469 234.246094 169.9375 234.308594 C 170.144531 234.367188 170.363281 234.253906 170.425781 234.042969 "/>
<path style=" stroke:none;fill-rule:nonzero;fill:rgb(56.898499%,57.998657%,27.799988%);fill-opacity:1;" d="M 177.441406 129.5 C 177.4375 129.476563 177.085938 123.148438 174.230469 115.042969 C 171.375 106.941406 166.011719 97.054688 155.964844 89.964844 C 155.789063 89.839844 155.546875 89.882813 155.421875 90.058594 C 155.296875 90.234375 155.339844 90.480469 155.515625 90.601563 C 165.382813 97.566406 170.671875 107.300781 173.492188 115.304688 C 174.90625 119.304688 175.695313 122.871094 176.136719 125.433594 C 176.355469 126.714844 176.488281 127.746094 176.5625 128.453125 C 176.601563 128.808594 176.625 129.082031 176.640625 129.269531 C 176.65625 129.453125 176.660156 129.542969 176.660156 129.542969 C 176.671875 129.761719 176.855469 129.925781 177.070313 129.914063 C 177.289063 129.902344 177.453125 129.714844 177.441406 129.5 "/>
<path style=" stroke:none;fill-rule:nonzero;fill:rgb(56.898499%,57.998657%,27.799988%);fill-opacity:1;" d="M 179.484375 189.953125 C 179.484375 189.953125 179.492188 189.871094 179.519531 189.699219 C 179.714844 188.425781 180.742188 182.554688 183.894531 176.054688 C 187.050781 169.546875 192.320313 162.425781 200.992188 158.574219 C 201.1875 158.488281 201.277344 158.257813 201.191406 158.058594 C 201.101563 157.863281 200.871094 157.773438 200.675781 157.859375 C 191.183594 162.078125 185.695313 170.09375 182.582031 177.023438 C 179.464844 183.960938 178.710938 189.832031 178.707031 189.855469 C 178.679688 190.070313 178.832031 190.265625 179.046875 190.292969 C 179.261719 190.320313 179.457031 190.167969 179.484375 189.953125 "/>
<path style=" stroke:none;fill-rule:nonzero;fill:rgb(56.898499%,57.998657%,27.799988%);fill-opacity:1;" d="M 140.105469 185.25 C 145.761719 191.367188 146.8125 199.59375 146.550781 199.835938 C 146.210938 200.148438 138.171875 198.382813 132.515625 192.265625 C 126.863281 186.144531 125.78125 177.945313 126.074219 177.675781 C 126.320313 177.449219 134.453125 179.128906 140.105469 185.25 "/>
<path style=" stroke:none;fill-rule:nonzero;fill:rgb(56.898499%,57.998657%,27.799988%);fill-opacity:1;" d="M 205.019531 148.625 C 198.089844 153.25 195.136719 160.996094 195.335938 161.296875 C 195.59375 161.679688 203.824219 161.84375 210.753906 157.222656 C 217.683594 152.597656 220.65625 144.878906 220.433594 144.550781 C 220.246094 144.269531 211.945313 144 205.019531 148.625 "/>
<path style=" stroke:none;fill-rule:nonzero;fill:rgb(56.898499%,57.998657%,27.799988%);fill-opacity:1;" d="M 182.648438 145.703125 C 178.78125 153.082031 179.902344 161.296875 180.226563 161.464844 C 180.632813 161.675781 187.9375 157.878906 191.804688 150.5 C 195.675781 143.121094 194.585938 134.921875 194.230469 134.738281 C 193.933594 134.582031 186.519531 138.320313 182.648438 145.703125 "/>
<path style=" stroke:none;fill-rule:nonzero;fill:rgb(56.898499%,57.998657%,27.799988%);fill-opacity:1;" d="M 170.820313 135.105469 C 177.011719 140.683594 178.808594 148.773438 178.566406 149.042969 C 178.261719 149.382813 170.09375 148.359375 163.902344 142.78125 C 157.714844 137.203125 155.890625 129.136719 156.15625 128.84375 C 156.382813 128.59375 164.632813 129.527344 170.820313 135.105469 "/>
<path style=" stroke:none;fill-rule:nonzero;fill:rgb(56.898499%,57.998657%,27.799988%);fill-opacity:1;" d="M 176.394531 175.28125 C 180.222656 182.683594 179.054688 190.890625 178.734375 191.054688 C 178.324219 191.265625 171.039063 187.429688 167.214844 180.027344 C 163.386719 172.628906 164.519531 164.4375 164.875 164.253906 C 165.175781 164.101563 172.566406 167.882813 176.394531 175.28125 "/>
<path style=" stroke:none;fill-rule:nonzero;fill:rgb(56.898499%,57.998657%,27.799988%);fill-opacity:1;" d="M 179.367188 204.523438 C 174.289063 211.132813 173.988281 219.414063 174.273438 219.636719 C 174.640625 219.914063 182.488281 217.429688 187.5625 210.820313 C 192.640625 204.214844 192.972656 195.953125 192.65625 195.710938 C 192.390625 195.507813 184.445313 197.917969 179.367188 204.523438 "/>
<path style=" stroke:none;fill-rule:nonzero;fill:rgb(56.898499%,57.998657%,27.799988%);fill-opacity:1;" d="M 178.886719 236.476563 C 175.019531 243.855469 176.140625 252.070313 176.460938 252.234375 C 176.867188 252.449219 184.175781 248.652344 188.039063 241.273438 C 191.910156 233.894531 190.820313 225.695313 190.46875 225.511719 C 190.171875 225.355469 182.753906 229.097656 178.886719 236.476563 "/>
<path style=" stroke:none;fill-rule:nonzero;fill:rgb(56.898499%,57.998657%,27.799988%);fill-opacity:1;" d="M 153.664063 227.652344 C 160.363281 230.167969 167.253906 228.339844 167.363281 228.050781 C 167.5 227.683594 163.484375 221.851563 156.785156 219.335938 C 150.078125 216.820313 143.203125 218.617188 143.082031 218.9375 C 142.980469 219.210938 146.957031 225.136719 153.664063 227.652344 "/>
<path style=" stroke:none;fill-rule:nonzero;fill:rgb(56.898499%,57.998657%,27.799988%);fill-opacity:1;" d="M 179.859375 116.855469 C 176.425781 122.671875 177 129.363281 177.25 129.511719 C 177.570313 129.703125 183.640625 126.929688 187.074219 121.113281 C 190.503906 115.296875 189.960938 108.617188 189.683594 108.453125 C 189.445313 108.316406 183.289063 111.039063 179.859375 116.855469 "/>
<path style=" stroke:none;fill-rule:nonzero;fill:rgb(56.898499%,57.998657%,27.799988%);fill-opacity:1;" d="M 197.964844 76.855469 C 191.035156 81.480469 188.085938 89.226563 188.285156 89.527344 C 188.539063 89.90625 196.769531 90.074219 203.699219 85.453125 C 210.632813 80.828125 213.605469 73.109375 213.382813 72.777344 C 213.195313 72.5 204.894531 72.230469 197.964844 76.855469 "/>
<path style=" stroke:none;fill-rule:nonzero;fill:rgb(56.898499%,57.998657%,27.799988%);fill-opacity:1;" d="M 151.734375 81.671875 C 158.667969 86.292969 161.617188 94.039063 161.414063 94.339844 C 161.160156 94.722656 152.929688 94.890625 146 90.265625 C 139.070313 85.640625 136.097656 77.925781 136.316406 77.59375 C 136.507813 77.316406 144.808594 77.046875 151.734375 81.671875 "/>
<path style=" stroke:none;fill-rule:nonzero;fill:rgb(56.898499%,57.998657%,27.799988%);fill-opacity:1;" d="M 160.398438 103.964844 C 168.367188 106.402344 173.417969 112.972656 173.3125 113.320313 C 173.179688 113.757813 165.34375 116.285156 157.378906 113.847656 C 149.410156 111.410156 144.347656 104.871094 144.464844 104.488281 C 144.5625 104.167969 152.433594 101.523438 160.398438 103.964844 "/>
<path style=" stroke:none;fill-rule:nonzero;fill:rgb(56.898499%,57.998657%,27.799988%);fill-opacity:1;" d="M 173.273438 94.226563 C 173.738281 100.738281 170.359375 106.285156 170.078125 106.304688 C 169.722656 106.332031 165.664063 101.316406 165.195313 94.808594 C 164.726563 88.296875 168.074219 82.75 168.386719 82.726563 C 168.648438 82.710938 172.804688 87.714844 173.273438 94.226563 "/>
<path style=" stroke:none;fill-rule:nonzero;fill:rgb(56.898499%,57.998657%,27.799988%);fill-opacity:1;" d="M 195.167969 176.597656 C 189.246094 179.339844 182.859375 178.144531 182.742188 177.886719 C 182.59375 177.5625 185.84375 171.988281 191.769531 169.246094 C 197.691406 166.503906 204.0625 167.671875 204.191406 167.957031 C 204.304688 168.195313 201.09375 173.855469 195.167969 176.597656 "/>
<path style=" stroke:none;fill-rule:nonzero;fill:rgb(56.898499%,57.998657%,27.799988%);fill-opacity:1;" d="M 162.660156 199.441406 C 162.761719 207.058594 158.449219 213.292969 158.121094 213.296875 C 157.699219 213.304688 153.3125 207.183594 153.214844 199.566406 C 153.109375 191.949219 157.394531 185.714844 157.757813 185.710938 C 158.0625 185.707031 162.5625 191.824219 162.660156 199.441406 "/>
<path style=" stroke:none;fill-rule:nonzero;fill:rgb(63.499451%,63.899231%,34.899902%);fill-opacity:1;" d="M 259.792969 277.546875 C 259.789063 277.542969 259.699219 277.21875 259.539063 276.585938 C 258.40625 272.15625 253.867188 252.980469 253.867188 230.667969 C 253.867188 220.585938 254.796875 209.867188 257.375 199.582031 C 261.285156 183.984375 262.839844 166.050781 262.839844 148.363281 C 262.839844 129.757813 261.117188 111.425781 258.589844 96.394531 C 257.324219 88.875 255.855469 82.183594 254.300781 76.6875 C 252.742188 71.191406 251.101563 66.898438 249.449219 64.144531 L 248.546875 64.6875 C 250.109375 67.292969 251.742188 71.53125 253.285156 76.976563 C 257.917969 93.320313 261.785156 120.554688 261.785156 148.363281 C 261.785156 165.988281 260.234375 183.851563 256.351563 199.324219 C 253.746094 209.71875 252.8125 220.523438 252.8125 230.667969 C 252.816406 256.328125 258.769531 277.800781 258.773438 277.828125 L 259.792969 277.546875 "/>
<path style=" stroke:none;fill-rule:nonzero;fill:rgb(63.499451%,63.899231%,34.899902%);fill-opacity:1;" d="M 261.21875 116.59375 L 261.253906 116.472656 C 261.433594 115.859375 262.347656 112.960938 264.304688 109.753906 C 266.257813 106.539063 269.25 103.03125 273.5625 101.117188 L 273.136719 100.152344 C 268.242188 102.328125 265.019531 106.382813 263.011719 109.863281 C 261.003906 113.351563 260.207031 116.289063 260.199219 116.316406 L 261.21875 116.59375 "/>
<path style=" stroke:none;fill-rule:nonzero;fill:rgb(63.499451%,63.899231%,34.899902%);fill-opacity:1;" d="M 259.445313 104.679688 L 259.441406 104.679688 C 259.335938 104.667969 257.984375 104.480469 256.539063 103.304688 C 255.09375 102.125 253.515625 99.960938 252.949219 95.839844 C 252.4375 92.074219 251.074219 89.628906 249.492188 88.136719 C 247.90625 86.644531 246.140625 86.117188 244.832031 86.113281 C 244.46875 86.117188 244.136719 86.15625 243.84375 86.234375 L 244.128906 87.253906 C 244.304688 87.203125 244.546875 87.171875 244.832031 87.171875 C 245.859375 87.167969 247.386719 87.597656 248.765625 88.902344 C 250.148438 90.207031 251.414063 92.398438 251.90625 95.984375 C 252.507813 100.457031 254.328125 102.933594 256.035156 104.246094 C 257.734375 105.5625 259.28125 105.722656 259.34375 105.730469 L 259.445313 104.679688 "/>
<path style=" stroke:none;fill-rule:nonzero;fill:rgb(63.499451%,63.899231%,34.899902%);fill-opacity:1;" d="M 261.824219 171.511719 C 261.878906 171.480469 263.027344 170.828125 264.160156 169.101563 C 265.296875 167.375 266.402344 164.578125 266.402344 160.324219 C 266.398438 156.546875 267.058594 154.148438 267.96875 152.753906 C 268.882813 151.359375 269.992188 150.902344 271.171875 150.894531 C 271.828125 150.894531 272.507813 151.050781 273.144531 151.316406 L 273.554688 150.34375 C 272.808594 150.035156 272 149.839844 271.171875 149.839844 C 269.691406 149.828125 268.148438 150.511719 267.082031 152.179688 C 266.007813 153.84375 265.351563 156.429688 265.347656 160.324219 C 265.347656 164.398438 264.300781 166.964844 263.28125 168.519531 C 262.769531 169.296875 262.261719 169.824219 261.890625 170.148438 C 261.703125 170.3125 261.554688 170.425781 261.449219 170.496094 L 261.335938 170.574219 L 261.3125 170.589844 L 261.308594 170.589844 L 261.824219 171.511719 "/>
<path style=" stroke:none;fill-rule:nonzero;fill:rgb(63.499451%,63.899231%,34.899902%);fill-opacity:1;" d="M 262.304688 145.378906 L 262.296875 145.378906 C 262.199219 145.378906 260.96875 145.332031 259.636719 144.570313 C 258.304688 143.800781 256.839844 142.351563 256.171875 139.375 L 255.140625 139.605469 C 255.878906 142.949219 257.664063 144.710938 259.265625 145.566406 C 260.863281 146.429688 262.25 146.433594 262.304688 146.433594 L 262.304688 145.378906 "/>
<path style=" stroke:none;fill-rule:nonzero;fill:rgb(63.499451%,63.899231%,34.899902%);fill-opacity:1;" d="M 254.359375 247.023438 C 254.390625 247 256.121094 245.824219 257.863281 243.550781 C 259.601563 241.28125 261.355469 237.894531 261.355469 233.496094 C 261.355469 232.84375 261.3125 232.167969 261.230469 231.472656 C 261.128906 230.605469 261.078125 229.550781 261.078125 228.34375 C 261.078125 222.363281 262.304688 212.738281 264.007813 203.59375 C 264.863281 199.015625 265.835938 194.558594 266.828125 190.726563 C 267.824219 186.894531 268.851563 183.6875 269.785156 181.644531 L 268.824219 181.203125 C 267.84375 183.355469 266.8125 186.597656 265.808594 190.460938 C 262.796875 202.050781 260.027344 219.1875 260.023438 228.34375 C 260.023438 229.582031 260.074219 230.671875 260.183594 231.59375 C 260.261719 232.25 260.300781 232.886719 260.300781 233.496094 C 260.300781 237.605469 258.667969 240.761719 257.023438 242.910156 C 256.203125 243.980469 255.382813 244.796875 254.769531 245.339844 C 254.460938 245.613281 254.207031 245.816406 254.03125 245.953125 L 253.828125 246.101563 L 253.78125 246.140625 L 253.765625 246.148438 L 254.359375 247.023438 "/>
<path style=" stroke:none;fill-rule:nonzero;fill:rgb(63.499451%,63.899231%,34.899902%);fill-opacity:1;" d="M 261.847656 217.480469 C 261.847656 217.480469 261.890625 217.375 261.976563 217.171875 C 262.585938 215.742188 265.386719 209.742188 269.617188 206.640625 L 268.992188 205.789063 C 266.394531 207.707031 264.378906 210.527344 262.996094 212.867188 C 261.617188 215.207031 260.875 217.074219 260.867188 217.09375 L 261.847656 217.480469 "/>
<path style=" stroke:none;fill-rule:nonzero;fill:rgb(63.499451%,63.899231%,34.899902%);fill-opacity:1;" d="M 254.738281 214.382813 C 254.738281 214.351563 254.683594 212.53125 253.992188 210.066406 C 253.296875 207.597656 251.960938 204.480469 249.371094 201.886719 L 248.625 202.632813 C 251.042969 205.050781 252.316406 208 252.976563 210.351563 C 253.304688 211.523438 253.484375 212.550781 253.578125 213.273438 C 253.625 213.636719 253.652344 213.925781 253.667969 214.121094 C 253.675781 214.21875 253.679688 214.296875 253.679688 214.34375 L 253.683594 214.414063 L 254.738281 214.382813 "/>
<path style=" stroke:none;fill-rule:nonzero;fill:rgb(63.499451%,63.899231%,34.899902%);fill-opacity:1;" d="M 258.980469 188.015625 L 258.941406 188.015625 C 258.726563 188.011719 257.625 187.9375 256.644531 187.398438 C 256.152344 187.132813 255.691406 186.753906 255.351563 186.21875 C 255.011719 185.683594 254.777344 184.976563 254.773438 183.996094 C 254.773438 183.320313 254.886719 182.519531 255.164063 181.570313 C 255.773438 179.445313 255.980469 177.253906 255.980469 175.234375 C 255.980469 170.765625 254.964844 167.15625 254.957031 167.128906 L 253.941406 167.414063 C 253.941406 167.414063 253.953125 167.460938 253.980469 167.566406 C 254.167969 168.28125 254.925781 171.464844 254.925781 175.234375 C 254.925781 177.179688 254.726563 179.28125 254.148438 181.277344 C 253.851563 182.304688 253.71875 183.203125 253.71875 183.996094 C 253.71875 185.222656 254.046875 186.195313 254.554688 186.925781 C 255.316406 188.023438 256.4375 188.550781 257.335938 188.8125 C 258.238281 189.070313 258.945313 189.070313 258.980469 189.070313 L 258.980469 188.015625 "/>
<path style=" stroke:none;fill-rule:nonzero;fill:rgb(63.499451%,63.899231%,34.899902%);fill-opacity:1;" d="M 260.445313 58.628906 C 259.140625 69.96875 258.847656 71.058594 253.121094 73.269531 C 247.394531 75.484375 243.421875 70.183594 240.648438 63.007813 C 237.871094 55.832031 237.355469 49.5 243.082031 47.289063 C 248.808594 45.074219 261.328125 50.984375 260.445313 58.628906 "/>
<path style=" stroke:none;fill-rule:nonzero;fill:rgb(63.499451%,63.899231%,34.899902%);fill-opacity:1;" d="M 264.558594 103.621094 C 264.558594 103.621094 268.074219 83.902344 277.921875 86.644531 C 287.765625 89.382813 283.003906 100.660156 273.351563 105.203125 C 263.695313 109.753906 264.558594 103.621094 264.558594 103.621094 "/>
<path style=" stroke:none;fill-rule:nonzero;fill:rgb(63.499451%,63.899231%,34.899902%);fill-opacity:1;" d="M 252.507813 88.503906 C 251.820313 83.738281 249.367188 78.226563 241.878906 77.074219 C 228.164063 74.964844 226.578125 85.339844 231.855469 89.382813 C 235.488281 92.167969 242.300781 91.292969 247.273438 92.492188 C 249.519531 93.035156 253.078125 92.464844 252.507813 88.503906 "/>
<path style=" stroke:none;fill-rule:nonzero;fill:rgb(63.499451%,63.899231%,34.899902%);fill-opacity:1;" d="M 269.304688 154.917969 C 271.636719 159.375 281.832031 169.027344 289.347656 156.632813 C 296.867188 144.238281 280.234375 138.9375 269.832031 146.28125 C 267.59375 147.863281 268.300781 153.003906 269.304688 154.917969 "/>
<path style=" stroke:none;fill-rule:nonzero;fill:rgb(63.499451%,63.899231%,34.899902%);fill-opacity:1;" d="M 257.519531 143.46875 C 260.230469 142.53125 263.40625 135.453125 257.304688 131.972656 C 249.101563 127.292969 245.542969 119.265625 238.851563 125.050781 C 231.066406 131.777344 241.351563 149.050781 257.519531 143.46875 "/>
<path style=" stroke:none;fill-rule:nonzero;fill:rgb(63.499451%,63.899231%,34.899902%);fill-opacity:1;" d="M 267.457031 188.015625 C 267.457031 188.015625 281.304688 188.015625 281.566406 181.425781 C 281.832031 174.832031 278.007813 168.722656 271.546875 171.050781 C 265.085938 173.378906 258.753906 181.6875 267.457031 188.015625 "/>
<path style=" stroke:none;fill-rule:nonzero;fill:rgb(63.499451%,63.899231%,34.899902%);fill-opacity:1;" d="M 265.332031 210.300781 C 265.332031 210.300781 266.742188 209.039063 274.316406 209.730469 C 280.515625 210.300781 283.8125 204.5 278.402344 200.148438 C 273 195.796875 264.523438 196.976563 265.332031 210.300781 "/>
<path style=" stroke:none;fill-rule:nonzero;fill:rgb(63.499451%,63.899231%,34.899902%);fill-opacity:1;" d="M 255.65625 172.28125 C 255.65625 172.28125 258.757813 170.609375 258.578125 168.238281 C 258.402344 165.863281 260.601563 156.191406 248.996094 157.074219 C 237.394531 157.949219 248.070313 172.632813 255.65625 172.28125 "/>
<path style=" stroke:none;fill-rule:nonzero;fill:rgb(63.499451%,63.899231%,34.899902%);fill-opacity:1;" d="M 251.054688 204.78125 C 251.054688 204.78125 261.683594 189.796875 248.203125 188.015625 C 239.285156 186.839844 236.035156 201.074219 251.054688 204.78125 "/>
<path style=" stroke:none;fill-rule:nonzero;fill:rgb(25.099182%,32.899475%,23.498535%);fill-opacity:1;" d="M 355.351563 277.679688 C 355.351563 277.671875 355.328125 275.976563 355.300781 272.953125 C 355.277344 269.929688 355.253906 265.585938 355.253906 260.296875 C 355.25 233.875 355.878906 183.90625 360.21875 158.3125 L 359.019531 158.109375 C 354.648438 183.898438 354.035156 233.839844 354.03125 260.296875 C 354.03125 270.875 354.132813 277.691406 354.132813 277.695313 L 355.351563 277.679688 "/>
<path style=" stroke:none;fill-rule:nonzero;fill:rgb(25.099182%,32.899475%,23.498535%);fill-opacity:1;" d="M 354.964844 223.425781 C 354.996094 223.429688 356.824219 223.769531 360.058594 223.769531 C 369.621094 223.777344 391.503906 220.761719 415.3125 197.25 L 414.460938 196.382813 C 390.875 219.65625 369.375 222.546875 360.058594 222.550781 C 358.484375 222.550781 357.261719 222.46875 356.433594 222.386719 C 356.019531 222.34375 355.703125 222.304688 355.496094 222.273438 C 355.390625 222.257813 355.3125 222.246094 355.261719 222.238281 L 355.191406 222.226563 L 354.964844 223.425781 "/>
<path style=" stroke:none;fill-rule:nonzero;fill:rgb(25.099182%,32.899475%,23.498535%);fill-opacity:1;" d="M 355.144531 222.21875 C 355.144531 222.21875 354.976563 222.199219 354.648438 222.15625 C 352.195313 221.824219 341 220.019531 330.292969 213.78125 C 324.9375 210.664063 319.703125 206.449219 315.722656 200.769531 C 311.742188 195.089844 308.996094 187.945313 308.617188 178.910156 L 307.402344 178.964844 C 307.808594 188.835938 311.003906 196.589844 315.5625 202.621094 C 322.402344 211.671875 332.269531 216.859375 340.40625 219.796875 C 348.546875 222.734375 354.980469 223.425781 355.011719 223.429688 L 355.144531 222.21875 "/>
<path style=" stroke:none;fill-rule:nonzero;fill:rgb(25.099182%,32.899475%,23.498535%);fill-opacity:1;" d="M 385.589844 217.546875 C 385.589844 217.546875 385.582031 217.460938 385.570313 217.285156 C 385.535156 216.761719 385.460938 215.488281 385.460938 213.726563 C 385.460938 210.535156 385.699219 205.746094 386.816406 200.976563 C 387.929688 196.199219 389.925781 191.464844 393.351563 188.328125 L 392.53125 187.429688 C 388.828125 190.828125 386.777344 195.792969 385.628906 200.695313 C 384.480469 205.605469 384.242188 210.472656 384.242188 213.726563 C 384.242188 216.117188 384.375 217.636719 384.375 217.652344 L 385.589844 217.546875 "/>
<path style=" stroke:none;fill-rule:nonzero;fill:rgb(25.099182%,32.899475%,23.498535%);fill-opacity:1;" d="M 370.683594 222.535156 C 370.742188 222.566406 378.476563 227.207031 390.257813 227.207031 C 395.65625 227.207031 401.902344 226.230469 408.621094 223.386719 L 408.148438 222.265625 C 401.582031 225.039063 395.507813 225.988281 390.257813 225.988281 C 384.53125 225.988281 379.78125 224.859375 376.46875 223.730469 C 374.8125 223.164063 373.515625 222.601563 372.636719 222.179688 C 372.195313 221.96875 371.863281 221.792969 371.640625 221.671875 C 371.527344 221.613281 371.445313 221.566406 371.390625 221.535156 L 371.3125 221.488281 L 370.683594 222.535156 "/>
<path style=" stroke:none;fill-rule:nonzero;fill:rgb(25.099182%,32.899475%,23.498535%);fill-opacity:1;" d="M 333.800781 215.835938 C 333.800781 215.835938 333.722656 215.859375 333.566406 215.898438 C 332.457031 216.191406 327.585938 217.375 321.984375 217.371094 C 316.707031 217.378906 310.828125 216.316406 306.796875 212.621094 L 305.972656 213.523438 C 310.375 217.535156 316.5625 218.589844 321.984375 218.59375 C 328.578125 218.589844 334.105469 217.015625 334.136719 217.007813 L 333.800781 215.835938 "/>
<path style=" stroke:none;fill-rule:nonzero;fill:rgb(25.099182%,32.899475%,23.498535%);fill-opacity:1;" d="M 319.824219 190.816406 C 319.828125 190.816406 319.910156 190.875 320.074219 190.992188 C 321.300781 191.871094 326.867188 195.960938 332.105469 201.257813 C 334.722656 203.90625 337.257813 206.859375 339.121094 209.84375 C 340.992188 212.832031 342.175781 215.84375 342.171875 218.589844 C 342.171875 219.019531 342.144531 219.4375 342.085938 219.855469 L 343.296875 220.023438 C 343.359375 219.550781 343.394531 219.070313 343.394531 218.589844 C 343.386719 215.285156 341.914063 211.871094 339.761719 208.578125 C 336.523438 203.644531 331.726563 198.972656 327.726563 195.515625 C 323.730469 192.058594 320.535156 189.824219 320.523438 189.816406 L 319.828125 190.816406 "/>
<path style=" stroke:none;fill-rule:nonzero;fill:rgb(25.099182%,32.899475%,23.498535%);fill-opacity:1;" d="M 356.613281 190.882813 C 356.753906 190.839844 366.238281 187.023438 373.191406 168.589844 L 372.050781 168.15625 C 368.625 177.226563 364.613281 182.636719 361.484375 185.769531 C 359.917969 187.339844 358.574219 188.339844 357.625 188.945313 C 357.152344 189.25 356.78125 189.453125 356.527344 189.578125 C 356.402344 189.644531 356.308594 189.6875 356.246094 189.714844 L 356.183594 189.742188 L 356.167969 189.75 L 356.613281 190.882813 "/>
<path style=" stroke:none;fill-rule:nonzero;fill:rgb(25.099182%,32.899475%,23.498535%);fill-opacity:1;" d="M 357.269531 178.34375 L 357.246094 178.339844 C 356.945313 178.261719 354 177.460938 350.882813 174.914063 C 347.765625 172.363281 344.46875 168.097656 343.386719 160.964844 L 342.183594 161.148438 C 343.335938 168.820313 347.027344 173.453125 350.433594 176.117188 C 353.835938 178.78125 356.9375 179.515625 356.992188 179.53125 L 357.269531 178.34375 "/>
<path style=" stroke:none;fill-rule:nonzero;fill:rgb(25.099182%,32.899475%,23.498535%);fill-opacity:1;" d="M 355.484375 223.277344 C 355.507813 223.257813 360.707031 218.5625 366.597656 210.746094 C 372.488281 202.929688 379.082031 191.996094 381.851563 179.476563 L 380.664063 179.214844 C 377.949219 191.480469 371.453125 202.285156 365.625 210.011719 C 362.710938 213.878906 359.96875 216.972656 357.953125 219.097656 C 356.949219 220.160156 356.125 220.980469 355.554688 221.535156 C 355.269531 221.8125 355.046875 222.023438 354.894531 222.164063 C 354.746094 222.304688 354.667969 222.371094 354.667969 222.371094 L 355.488281 223.277344 "/>
<path style=" stroke:none;fill-rule:nonzero;fill:rgb(25.099182%,32.899475%,23.498535%);fill-opacity:1;" d="M 360.234375 218.203125 C 360.265625 218.199219 362.957031 217.902344 366.117188 216.644531 C 369.273438 215.386719 372.945313 213.160156 374.800781 209.21875 L 373.699219 208.699219 C 372.050781 212.222656 368.679688 214.316406 365.667969 215.511719 C 364.167969 216.109375 362.765625 216.480469 361.742188 216.703125 C 361.234375 216.8125 360.816406 216.886719 360.53125 216.929688 C 360.390625 216.953125 360.277344 216.96875 360.203125 216.980469 L 360.097656 216.992188 L 360.234375 218.203125 "/>
<path style=" stroke:none;fill-rule:nonzero;fill:rgb(25.099182%,32.899475%,23.498535%);fill-opacity:1;" d="M 371.140625 202.71875 L 371.132813 202.714844 C 371.011719 202.6875 369.648438 202.316406 368.265625 201.273438 C 366.878906 200.226563 365.464844 198.546875 365.109375 195.777344 L 363.902344 195.929688 C 364.308594 199.164063 366.0625 201.195313 367.683594 202.359375 C 369.3125 203.53125 370.808594 203.890625 370.855469 203.902344 L 371.140625 202.71875 "/>
<path style=" stroke:none;fill-rule:nonzero;fill:rgb(25.099182%,32.899475%,23.498535%);fill-opacity:1;" d="M 333.398438 170.488281 C 333.046875 171.394531 332.886719 172.359375 332.886719 173.355469 C 332.894531 176.714844 334.667969 180.453125 337.324219 184.363281 C 339.988281 188.273438 343.566406 192.347656 347.289063 196.273438 C 350.269531 199.40625 352.003906 203.789063 352.972656 208.117188 C 353.945313 212.445313 354.15625 216.707031 354.15625 219.574219 C 354.15625 220.660156 354.128906 221.550781 354.097656 222.160156 C 354.082031 222.46875 354.066406 222.707031 354.054688 222.867188 C 354.046875 223.027344 354.039063 223.109375 354.039063 223.109375 L 354.644531 223.160156 L 354.40625 222.601563 L 354.347656 222.625 C 353.707031 222.890625 348.097656 225.085938 341.34375 225.082031 C 339.746094 225.082031 338.085938 224.960938 336.410156 224.664063 L 336.199219 225.863281 C 337.953125 226.175781 339.683594 226.300781 341.34375 226.300781 C 348.828125 226.296875 354.839844 223.738281 354.882813 223.722656 L 355.222656 223.578125 L 355.253906 223.214844 C 355.253906 223.199219 355.378906 221.796875 355.378906 219.574219 C 355.375 216.648438 355.164063 212.308594 354.164063 207.851563 C 353.160156 203.398438 351.378906 198.8125 348.175781 195.433594 C 344.472656 191.53125 340.929688 187.492188 338.332031 183.675781 C 335.726563 179.863281 334.09375 176.269531 334.105469 173.355469 C 334.105469 172.488281 334.242188 171.683594 334.535156 170.929688 L 333.402344 170.488281 "/>
<path style=" stroke:none;fill-rule:nonzero;fill:rgb(25.099182%,32.899475%,23.498535%);fill-opacity:1;" d="M 350.082031 197.902344 L 350.054688 197.785156 C 349.9375 197.226563 349.453125 194.730469 349.453125 191.699219 C 349.453125 189.96875 349.609375 188.0625 350.078125 186.25 L 348.898438 185.949219 C 348.394531 187.894531 348.234375 189.894531 348.234375 191.699219 C 348.234375 195.3125 348.886719 198.144531 348.894531 198.175781 L 350.082031 197.902344 "/>
<path style=" stroke:none;fill-rule:nonzero;fill:rgb(25.099182%,32.899475%,23.498535%);fill-opacity:1;" d="M 353.394531 204.941406 C 353.3125 204.710938 353.183594 204.632813 353.113281 204.585938 C 352.96875 204.496094 352.890625 204.484375 352.792969 204.453125 C 352.464844 204.367188 351.96875 204.296875 351.277344 204.132813 C 349.222656 203.644531 345.734375 202.4375 343.300781 198.574219 L 342.269531 199.226563 C 344.222656 202.328125 346.835938 203.890625 348.945313 204.691406 C 350.003906 205.097656 350.9375 205.316406 351.605469 205.453125 C 351.9375 205.523438 352.207031 205.570313 352.375 205.609375 L 352.519531 205.644531 L 352.621094 205.355469 L 352.457031 205.613281 L 352.519531 205.644531 L 352.621094 205.355469 L 352.457031 205.613281 L 352.753906 205.144531 L 352.230469 205.3125 C 352.308594 205.523438 352.417969 205.582031 352.457031 205.613281 L 352.753906 205.144531 L 352.230469 205.3125 L 353.394531 204.941406 "/>
<path style=" stroke:none;fill-rule:nonzero;fill:rgb(93.699646%,72.898865%,66.299438%);fill-opacity:1;" d="M 365.78125 154.734375 C 365.78125 157.992188 363.140625 160.632813 359.882813 160.632813 C 356.625 160.632813 353.984375 157.992188 353.984375 154.734375 C 353.984375 151.476563 356.625 148.835938 359.882813 148.835938 C 363.140625 148.835938 365.78125 151.476563 365.78125 154.734375 "/>
<path style=" stroke:none;fill-rule:nonzero;fill:rgb(93.699646%,72.898865%,66.299438%);fill-opacity:1;" d="M 378.988281 168.507813 C 377.996094 171.609375 374.679688 173.324219 371.574219 172.335938 C 368.472656 171.34375 366.761719 168.023438 367.75 164.921875 C 368.738281 161.816406 372.058594 160.101563 375.160156 161.09375 C 378.265625 162.085938 379.980469 165.402344 378.988281 168.507813 "/>
<path style=" stroke:none;fill-rule:nonzero;fill:rgb(93.699646%,72.898865%,66.299438%);fill-opacity:1;" d="M 387.925781 179.324219 C 386.933594 182.429688 383.613281 184.144531 380.511719 183.152344 C 377.40625 182.164063 375.691406 178.84375 376.6875 175.738281 C 377.675781 172.636719 380.992188 170.921875 384.097656 171.914063 C 387.199219 172.902344 388.914063 176.222656 387.925781 179.324219 "/>
<path style=" stroke:none;fill-rule:nonzero;fill:rgb(93.699646%,72.898865%,66.299438%);fill-opacity:1;" d="M 398.429688 188.574219 C 396.703125 191.335938 393.0625 192.179688 390.304688 190.453125 C 387.539063 188.726563 386.699219 185.085938 388.429688 182.324219 C 390.152344 179.5625 393.792969 178.71875 396.554688 180.445313 C 399.316406 182.171875 400.15625 185.8125 398.429688 188.574219 "/>
<path style=" stroke:none;fill-rule:nonzero;fill:rgb(93.699646%,72.898865%,66.299438%);fill-opacity:1;" d="M 419.605469 197.011719 C 417.878906 199.773438 414.242188 200.613281 411.476563 198.886719 C 408.714844 197.160156 407.875 193.519531 409.601563 190.757813 C 411.328125 187.996094 414.96875 187.15625 417.730469 188.882813 C 420.492188 190.609375 421.332031 194.246094 419.605469 197.011719 "/>
<path style=" stroke:none;fill-rule:nonzero;fill:rgb(93.699646%,72.898865%,66.299438%);fill-opacity:1;" d="M 413.707031 224.757813 C 411.980469 227.519531 408.339844 228.363281 405.578125 226.636719 C 402.816406 224.910156 401.976563 221.269531 403.703125 218.507813 C 405.429688 215.742188 409.066406 214.902344 411.828125 216.628906 C 414.59375 218.355469 415.433594 221.996094 413.707031 224.757813 "/>
<path style=" stroke:none;fill-rule:nonzero;fill:rgb(93.699646%,72.898865%,66.299438%);fill-opacity:1;" d="M 382.335938 210.511719 C 380.605469 213.273438 376.96875 214.113281 374.207031 212.386719 C 371.441406 210.660156 370.601563 207.023438 372.328125 204.257813 C 374.058594 201.496094 377.691406 200.65625 380.457031 202.382813 C 383.222656 204.109375 384.058594 207.746094 382.335938 210.511719 "/>
<path style=" stroke:none;fill-rule:nonzero;fill:rgb(93.699646%,72.898865%,66.299438%);fill-opacity:1;" d="M 369.523438 194.148438 C 370.097656 197.355469 367.964844 200.421875 364.757813 200.992188 C 361.550781 201.566406 358.484375 199.433594 357.910156 196.226563 C 357.339844 193.019531 359.472656 189.953125 362.683594 189.378906 C 365.886719 188.808594 368.949219 190.941406 369.523438 194.148438 "/>
<path style=" stroke:none;fill-rule:nonzero;fill:rgb(93.699646%,72.898865%,66.299438%);fill-opacity:1;" d="M 348.367188 161.453125 C 348.015625 164.691406 345.101563 167.03125 341.863281 166.679688 C 338.625 166.324219 336.285156 163.414063 336.640625 160.175781 C 336.992188 156.9375 339.902344 154.597656 343.144531 154.949219 C 346.382813 155.304688 348.722656 158.214844 348.367188 161.453125 "/>
<path style=" stroke:none;fill-rule:nonzero;fill:rgb(93.699646%,72.898865%,66.299438%);fill-opacity:1;" d="M 337.144531 169.859375 C 336.921875 173.105469 334.105469 175.558594 330.855469 175.335938 C 327.605469 175.109375 325.152344 172.289063 325.378906 169.042969 C 325.601563 165.792969 328.421875 163.339844 331.671875 163.566406 C 334.917969 163.789063 337.371094 166.609375 337.144531 169.859375 "/>
<path style=" stroke:none;fill-rule:nonzero;fill:rgb(93.699646%,72.898865%,66.299438%);fill-opacity:1;" d="M 325.351563 188.394531 C 325.121094 191.640625 322.308594 194.09375 319.058594 193.871094 C 315.808594 193.644531 313.355469 190.824219 313.578125 187.574219 C 313.804688 184.324219 316.621094 181.871094 319.871094 182.097656 C 323.121094 182.324219 325.574219 185.140625 325.351563 188.394531 "/>
<path style=" stroke:none;fill-rule:nonzero;fill:rgb(93.699646%,72.898865%,66.299438%);fill-opacity:1;" d="M 312.855469 177.941406 C 312.628906 181.191406 309.8125 183.644531 306.5625 183.417969 C 303.3125 183.191406 300.855469 180.375 301.085938 177.125 C 301.308594 173.875 304.128906 171.421875 307.378906 171.648438 C 310.625 171.875 313.078125 174.691406 312.855469 177.941406 "/>
<path style=" stroke:none;fill-rule:nonzero;fill:rgb(93.699646%,72.898865%,66.299438%);fill-opacity:1;" d="M 311.609375 212.226563 C 311.386719 215.476563 308.566406 217.925781 305.316406 217.703125 C 302.070313 217.476563 299.617188 214.65625 299.84375 211.410156 C 300.066406 208.160156 302.886719 205.707031 306.136719 205.933594 C 309.382813 206.15625 311.835938 208.976563 311.609375 212.226563 "/>
<path style=" stroke:none;fill-rule:nonzero;fill:rgb(93.699646%,72.898865%,66.299438%);fill-opacity:1;" d="M 339.015625 226.953125 C 338.433594 230.15625 335.359375 232.285156 332.15625 231.703125 C 328.949219 231.117188 326.824219 228.046875 327.410156 224.839844 C 327.992188 221.636719 331.0625 219.507813 334.269531 220.09375 C 337.476563 220.675781 339.601563 223.746094 339.015625 226.953125 "/>
<path style=" stroke:none;fill-rule:nonzero;fill:rgb(93.699646%,72.898865%,66.299438%);fill-opacity:1;" d="M 345.195313 199.296875 C 344.613281 202.503906 341.542969 204.628906 338.339844 204.046875 C 335.136719 203.460938 333.007813 200.390625 333.59375 197.183594 C 334.175781 193.980469 337.246094 191.855469 340.449219 192.4375 C 343.65625 193.019531 345.78125 196.09375 345.195313 199.296875 "/>
<path style=" stroke:none;fill-rule:nonzero;fill:rgb(93.699646%,72.898865%,66.299438%);fill-opacity:1;" d="M 354.203125 185.671875 C 353.625 188.875 350.550781 191.003906 347.347656 190.421875 C 344.144531 189.835938 342.019531 186.765625 342.601563 183.558594 C 343.183594 180.355469 346.253906 178.226563 349.460938 178.8125 C 352.660156 179.394531 354.789063 182.464844 354.203125 185.671875 "/>
<path style=" stroke:none;fill-rule:nonzero;fill:rgb(25.099182%,32.899475%,23.498535%);fill-opacity:1;" d="M 438.152344 277.628906 C 438.152344 277.628906 438.117188 277.25 438.054688 276.546875 C 437.617188 271.625 435.871094 250.738281 435.871094 232.136719 C 435.867188 221.515625 436.449219 211.613281 438.128906 205.972656 C 440.59375 197.644531 445.578125 186.382813 449.949219 175.09375 C 454.316406 163.792969 458.089844 152.476563 458.097656 143.839844 C 458.097656 143.285156 458.082031 142.742188 458.050781 142.210938 L 456.796875 142.285156 C 456.824219 142.792969 456.839844 143.308594 456.839844 143.839844 C 456.847656 152.121094 453.136719 163.390625 448.777344 174.636719 C 444.421875 185.898438 439.433594 197.152344 436.921875 205.617188 C 435.175781 211.53125 434.617188 221.457031 434.613281 232.136719 C 434.613281 253.480469 436.898438 277.734375 436.898438 277.746094 L 438.152344 277.628906 "/>
<path style=" stroke:none;fill-rule:nonzero;fill:rgb(25.099182%,32.899475%,23.498535%);fill-opacity:1;" d="M 428.75 168.296875 C 428.75 168.296875 428.863281 168.613281 429.066406 169.210938 C 430.472656 173.394531 436.105469 191.171875 436.097656 206.082031 C 436.097656 207.386719 436.054688 208.671875 435.964844 209.921875 L 437.21875 210.015625 C 437.3125 208.730469 437.355469 207.414063 437.355469 206.082031 C 437.347656 188.707031 429.941406 167.90625 429.9375 167.875 L 428.75 168.296875 "/>
<path style=" stroke:none;fill-rule:nonzero;fill:rgb(42.698669%,51.799011%,42.399597%);fill-opacity:1;" d="M 466.515625 90.382813 C 467.003906 90.691406 453.839844 105.421875 447.824219 123.136719 C 441.96875 141.460938 455.523438 153.472656 455.835938 153.191406 C 456.03125 153.558594 472.800781 146.703125 473.332031 127.472656 C 473.507813 108.765625 465.949219 90.511719 466.515625 90.382813 "/>
<path style=" stroke:none;fill-rule:nonzero;fill:rgb(42.698669%,51.799011%,42.399597%);fill-opacity:1;" d="M 420.136719 118.753906 C 420.703125 118.863281 413.820313 137.382813 414.679688 156.070313 C 415.90625 175.265625 432.914063 181.507813 433.101563 181.132813 C 433.421875 181.402344 446.53125 168.902344 440.011719 150.804688 C 433.351563 133.320313 419.660156 119.082031 420.136719 118.753906 "/>
<path style=" stroke:none;fill-rule:nonzero;fill:rgb(25.099182%,32.899475%,23.498535%);fill-opacity:1;" d="M 130.089844 277.71875 C 130.089844 277.710938 130.179688 275.996094 130.179688 272.917969 C 130.171875 255.96875 127.492188 197.554688 92.238281 152.816406 L 91.25 153.59375 C 126.207031 197.914063 128.929688 256.097656 128.921875 272.917969 C 128.921875 274.445313 128.902344 275.632813 128.878906 276.433594 C 128.855469 277.238281 128.835938 277.652344 128.835938 277.652344 L 130.089844 277.71875 "/>
<path style=" stroke:none;fill-rule:nonzero;fill:rgb(25.099182%,32.899475%,23.498535%);fill-opacity:1;" d="M 123.710938 220.382813 C 123.679688 220.332031 107.917969 194.421875 76.351563 175.476563 L 75.703125 176.554688 C 91.351563 185.945313 103.09375 197.074219 110.917969 205.851563 C 114.832031 210.242188 117.765625 214.046875 119.71875 216.746094 C 120.695313 218.097656 121.425781 219.171875 121.914063 219.90625 C 122.15625 220.277344 122.339844 220.558594 122.460938 220.75 C 122.578125 220.941406 122.636719 221.035156 122.636719 221.035156 L 123.710938 220.382813 "/>
<path style=" stroke:none;fill-rule:nonzero;fill:rgb(25.099182%,32.899475%,23.498535%);fill-opacity:1;" d="M 111.257813 184.117188 C 111.257813 184.117188 111.238281 184.03125 111.195313 183.855469 C 110.921875 182.636719 109.792969 177.253906 109.792969 170.507813 C 109.792969 164.878906 110.578125 158.304688 113.269531 152.421875 L 112.128906 151.898438 C 109.332031 158.019531 108.535156 164.761719 108.535156 170.507813 C 108.535156 178.375 110.03125 184.390625 110.039063 184.421875 L 111.257813 184.117188 "/>
<path style=" stroke:none;fill-rule:nonzero;fill:rgb(42.698669%,51.799011%,42.399597%);fill-opacity:1;" d="M 57.691406 108.03125 C 57.398438 108.53125 75.878906 115.515625 89.394531 128.449219 C 103.046875 142 96.570313 158.914063 96.164063 158.808594 C 96.15625 159.226563 78.121094 160.886719 68.769531 144.078125 C 59.972656 127.566406 58.246094 107.886719 57.691406 108.03125 "/>
<path style=" stroke:none;fill-rule:nonzero;fill:rgb(42.698669%,51.799011%,42.399597%);fill-opacity:1;" d="M 126.152344 109.222656 C 125.6875 109.261719 129.667969 124.570313 127.464844 139.382813 C 124.917969 154.574219 110.863281 158.160156 110.75 157.84375 C 110.472656 158.035156 101.050781 147.011719 107.714844 133.128906 C 114.441406 119.746094 126.507813 109.519531 126.152344 109.222656 "/>
<path style=" stroke:none;fill-rule:nonzero;fill:rgb(42.698669%,51.799011%,42.399597%);fill-opacity:1;" d="M 34.667969 157.054688 C 35.015625 156.746094 43.390625 170.164063 55.660156 178.75 C 68.4375 187.351563 80.703125 179.617188 80.558594 179.316406 C 80.886719 179.246094 79.363281 164.824219 64.703125 160.113281 C 50.359375 155.792969 34.644531 157.515625 34.667969 157.054688 "/>
</g>
</svg>
