<svg width="122" height="130" viewBox="0 0 122 130" fill="none" xmlns="http://www.w3.org/2000/svg">
<path d="M56.3516 129.676C56.3516 129.668 56.3281 127.973 56.3008 124.949C56.2773 121.926 56.2539 117.582 56.2539 112.293C56.25 85.8711 56.8789 35.9023 61.2188 10.3086L60.0195 10.1055C55.6484 35.8945 55.0352 85.8359 55.0312 112.293C55.0312 122.871 55.1328 129.688 55.1328 129.691L56.3516 129.676Z" fill="#40543C"/>
<path d="M55.9648 75.4219C55.9961 75.4258 57.8242 75.7656 61.0586 75.7656C70.6211 75.7734 92.5039 72.7578 116.312 49.2461L115.461 48.3789C91.875 71.6523 70.375 74.543 61.0586 74.5469C59.4844 74.5469 58.2617 74.4648 57.4336 74.3828C57.0195 74.3398 56.7031 74.3008 56.4961 74.2695C56.3906 74.2539 56.3125 74.2422 56.2617 74.2344L56.1914 74.2227L55.9648 75.4219Z" fill="#40543C"/>
<path d="M56.1445 74.2148C56.1445 74.2148 55.9766 74.1953 55.6484 74.1523C53.1953 73.8203 42 72.0156 31.293 65.7773C25.9375 62.6602 20.7031 58.4453 16.7227 52.7656C12.7422 47.0859 9.99609 39.9414 9.61719 30.9062L8.40234 30.9609C8.80859 40.832 12.0039 48.5859 16.5625 54.6172C23.4023 63.668 33.2695 68.8555 41.4062 71.793C49.5469 74.7305 55.9805 75.4219 56.0117 75.4258L56.1445 74.2148Z" fill="#40543C"/>
<path d="M86.5898 69.543C86.5898 69.543 86.582 69.457 86.5703 69.2812C86.5352 68.7578 86.4609 67.4844 86.4609 65.7227C86.4609 62.5312 86.6992 57.7422 87.8164 52.9727C88.9297 48.1953 90.9258 43.4609 94.3516 40.3242L93.5312 39.4258C89.8281 42.8242 87.7773 47.7891 86.6289 52.6914C85.4805 57.6016 85.2422 62.4688 85.2422 65.7227C85.2422 68.1133 85.375 69.6328 85.375 69.6484L86.5898 69.543Z" fill="#40543C"/>
<path d="M71.6836 74.5312C71.7422 74.5625 79.4766 79.2031 91.2578 79.2031C96.6562 79.2031 102.902 78.2266 109.621 75.3828L109.148 74.2617C102.582 77.0352 96.5078 77.9844 91.2578 77.9844C85.5312 77.9844 80.7812 76.8555 77.4688 75.7266C75.8125 75.1602 74.5156 74.5977 73.6367 74.1758C73.1953 73.9648 72.8633 73.7891 72.6406 73.668C72.5273 73.6094 72.4453 73.5625 72.3906 73.5312L72.3125 73.4844L71.6836 74.5312Z" fill="#40543C"/>
<path d="M34.8008 67.832C34.8008 67.832 34.7227 67.8555 34.5664 67.8945C33.457 68.1875 28.5859 69.3711 22.9844 69.3672C17.707 69.375 11.8281 68.3125 7.79688 64.6172L6.97266 65.5195C11.375 69.5312 17.5625 70.5859 22.9844 70.5898C29.5781 70.5859 35.1055 69.0117 35.1367 69.0039L34.8008 67.832Z" fill="#40543C"/>
<path d="M20.8242 42.8125C20.8281 42.8125 20.9102 42.8711 21.0742 42.9883C22.3008 43.8672 27.8672 47.957 33.1055 53.2539C35.7227 55.9023 38.2578 58.8555 40.1211 61.8398C41.9922 64.8281 43.1758 67.8398 43.1719 70.5859C43.1719 71.0156 43.1445 71.4336 43.0859 71.8516L44.2969 72.0195C44.3594 71.5469 44.3945 71.0664 44.3945 70.5859C44.3867 67.2812 42.9141 63.8672 40.7617 60.5742C37.5234 55.6406 32.7266 50.9688 28.7266 47.5117C24.7305 44.0547 21.5352 41.8203 21.5234 41.8125L20.8281 42.8125" fill="#40543C"/>
<path d="M57.6133 42.8789C57.7539 42.8359 67.2383 39.0195 74.1914 20.5859L73.0508 20.1523C69.625 29.2227 65.6133 34.6328 62.4844 37.7656C60.918 39.3359 59.5742 40.3359 58.625 40.9414C58.1523 41.2461 57.7812 41.4492 57.5273 41.5742C57.4023 41.6406 57.3086 41.6836 57.2461 41.7109L57.1836 41.7383L57.168 41.7461L57.6133 42.8789Z" fill="#40543C"/>
<path d="M58.2695 30.3398L58.2461 30.3359C57.9453 30.2578 55 29.457 51.8828 26.9102C48.7656 24.3594 45.4687 20.0937 44.3867 12.9609L43.1836 13.1445C44.3359 20.8164 48.0273 25.4492 51.4336 28.1133C54.8359 30.7773 57.9375 31.5117 57.9922 31.5273L58.2695 30.3398Z" fill="#40543C"/>
<path d="M56.4844 75.2734C56.5078 75.2539 61.707 70.5586 67.5977 62.7422C73.4883 54.9258 80.082 43.9922 82.8516 31.4727L81.6641 31.2109C78.9492 43.4766 72.4531 54.2812 66.625 62.0078C63.7109 65.875 60.9688 68.9688 58.9531 71.0938C57.9492 72.1562 57.125 72.9766 56.5547 73.5312C56.2695 73.8086 56.0469 74.0195 55.8945 74.1602C55.7461 74.3008 55.668 74.3672 55.668 74.3672L56.4883 75.2734" fill="#40543C"/>
<path d="M61.2344 70.1992C61.2656 70.1953 63.957 69.8984 67.1172 68.6406C70.2734 67.3828 73.9453 65.1562 75.8008 61.2148L74.6992 60.6953C73.0508 64.2187 69.6797 66.3125 66.668 67.5078C65.168 68.1055 63.7656 68.4766 62.7422 68.6992C62.2344 68.8086 61.8164 68.8828 61.5312 68.9258C61.3906 68.9492 61.2773 68.9648 61.2031 68.9766L61.0977 68.9883L61.2344 70.1992Z" fill="#40543C"/>
<path d="M72.1406 54.7148L72.1328 54.7109C72.0117 54.6836 70.6484 54.3125 69.2656 53.2695C67.8789 52.2227 66.4648 50.543 66.1094 47.7734L64.9023 47.9258C65.3086 51.1602 67.0625 53.1914 68.6836 54.3555C70.3125 55.5273 71.8086 55.8867 71.8555 55.8984L72.1406 54.7148Z" fill="#40543C"/>
<path d="M34.3984 22.4844C34.0469 23.3906 33.8867 24.3555 33.8867 25.3516C33.8945 28.7109 35.668 32.4492 38.3242 36.3594C40.9883 40.2695 44.5664 44.3438 48.2891 48.2695C51.2695 51.4023 53.0039 55.7852 53.9727 60.1133C54.9453 64.4414 55.1562 68.7031 55.1562 71.5703C55.1562 72.6562 55.1289 73.5469 55.0977 74.1562C55.082 74.4648 55.0664 74.7031 55.0547 74.8633C55.0469 75.0234 55.0391 75.1055 55.0391 75.1055L55.6445 75.1562L55.4062 74.5977L55.3477 74.6211C54.707 74.8867 49.0977 77.082 42.3438 77.0781C40.7461 77.0781 39.0859 76.957 37.4102 76.6602L37.1992 77.8594C38.9531 78.1719 40.6836 78.2969 42.3438 78.2969C49.8281 78.293 55.8398 75.7344 55.8828 75.7188L56.2227 75.5742L56.2539 75.2109C56.2539 75.1953 56.3789 73.793 56.3789 71.5703C56.375 68.6445 56.1641 64.3047 55.1641 59.8477C54.1602 55.3945 52.3789 50.8086 49.1758 47.4297C45.4727 43.5273 41.9297 39.4883 39.332 35.6719C36.7266 31.8594 35.0937 28.2656 35.1055 25.3516C35.1055 24.4844 35.2422 23.6797 35.5352 22.9258L34.4023 22.4844" fill="#40543C"/>
<path d="M51.082 49.8984L51.0547 49.7812C50.9375 49.2227 50.4531 46.7266 50.4531 43.6953C50.4531 41.9648 50.6094 40.0586 51.0781 38.2461L49.8984 37.9453C49.3945 39.8906 49.2344 41.8906 49.2344 43.6953C49.2344 47.3086 49.8867 50.1406 49.8945 50.1719L51.082 49.8984Z" fill="#40543C"/>
<path d="M54.3945 56.9375C54.3125 56.707 54.1836 56.6289 54.1133 56.582C53.9688 56.4922 53.8906 56.4805 53.793 56.4492C53.4648 56.3633 52.9688 56.293 52.2773 56.1289C50.2227 55.6406 46.7344 54.4336 44.3008 50.5703L43.2695 51.2227C45.2227 54.3242 47.8359 55.8867 49.9453 56.6875C51.0039 57.0938 51.9375 57.3125 52.6055 57.4492C52.9375 57.5195 53.207 57.5664 53.375 57.6055L53.5195 57.6406L53.6211 57.3516L53.457 57.6094L53.5195 57.6406L53.6211 57.3516L53.457 57.6094L53.7539 57.1406L53.2305 57.3086C53.3086 57.5195 53.418 57.5781 53.457 57.6094L53.7539 57.1406L53.2305 57.3086L54.3945 56.9375Z" fill="#40543C"/>
<path d="M66.7812 6.73047C66.7812 9.98828 64.1406 12.6289 60.8828 12.6289C57.625 12.6289 54.9844 9.98828 54.9844 6.73047C54.9844 3.47266 57.625 0.832031 60.8828 0.832031C64.1406 0.832031 66.7812 3.47266 66.7812 6.73047Z" fill="#EFBAA9"/>
<path d="M79.9883 20.5039C78.9961 23.6054 75.6797 25.3203 72.5742 24.332C69.4727 23.3398 67.7617 20.0195 68.75 16.9179C69.7383 13.8124 73.0586 12.0976 76.1602 13.0898C79.2656 14.082 80.9805 17.3984 79.9883 20.5039Z" fill="#EFBAA9"/>
<path d="M88.9258 31.3203C87.9336 34.4258 84.6133 36.1406 81.5117 35.1484C78.4062 34.1601 76.6914 30.8398 77.6875 27.7344C78.6758 24.6328 81.9922 22.9179 85.0977 23.9101C88.1992 24.8984 89.9141 28.2187 88.9258 31.3203Z" fill="#EFBAA9"/>
<path d="M99.4297 40.5704C97.7031 43.3321 94.0625 44.1758 91.3047 42.4493C88.5391 40.7227 87.6992 37.0821 89.4297 34.3204C91.1524 31.5586 94.793 30.7149 97.5547 32.4415C100.316 34.168 101.156 37.8086 99.4297 40.5704Z" fill="#EFBAA9"/>
<path d="M120.605 49.0077C118.879 51.7695 115.242 52.6093 112.477 50.8827C109.715 49.1562 108.875 45.5156 110.602 42.7538C112.328 39.9921 115.969 39.1523 118.73 40.8788C121.492 42.6054 122.332 46.2421 120.605 49.0077Z" fill="#EFBAA9"/>
<path d="M114.707 76.7539C112.98 79.5156 109.34 80.3594 106.578 78.6328C103.816 76.9063 102.977 73.2656 104.703 70.5039C106.43 67.7383 110.066 66.8984 112.828 68.625C115.594 70.3516 116.434 73.9922 114.707 76.7539Z" fill="#EFBAA9"/>
<path d="M83.3359 62.5077C81.6055 65.2695 77.9688 66.1093 75.207 64.3827C72.4414 62.6562 71.6016 59.0195 73.3281 56.2538C75.0586 53.4921 78.6914 52.6523 81.457 54.3788C84.2227 56.1054 85.0586 59.7421 83.3359 62.5077Z" fill="#EFBAA9"/>
<path d="M70.5234 46.1445C71.0976 49.3515 68.9648 52.4179 65.7578 52.9882C62.5508 53.5625 59.4844 51.4297 58.9102 48.2226C58.3398 45.0156 60.4727 41.9492 63.6836 41.375C66.8867 40.8047 69.9492 42.9375 70.5234 46.1445Z" fill="#EFBAA9"/>
<path d="M49.3672 13.4493C49.0156 16.6875 46.1016 19.0274 42.8633 18.6758C39.625 18.3204 37.2851 15.4102 37.6406 12.1719C37.9922 8.93364 40.9023 6.5938 44.1445 6.94536C47.3828 7.30083 49.7226 10.211 49.3672 13.4493Z" fill="#EFBAA9"/>
<path d="M38.1445 21.8555C37.9219 25.1015 35.1055 27.5547 31.8555 27.332C28.6055 27.1055 26.1523 24.2851 26.3789 21.039C26.6015 17.789 29.4219 15.3359 32.6719 15.5625C35.918 15.7851 38.3711 18.6055 38.1445 21.8555Z" fill="#EFBAA9"/>
<path d="M26.3516 40.3906C26.1211 43.6367 23.3086 46.0898 20.0586 45.8672C16.8086 45.6406 14.3555 42.8203 14.5781 39.5703C14.8047 36.3203 17.6211 33.8672 20.8711 34.0937C24.1211 34.3203 26.5742 37.1367 26.3516 40.3906Z" fill="#EFBAA9"/>
<path d="M13.8555 29.9375C13.6289 33.1875 10.8125 35.6406 7.56249 35.414C4.31249 35.1875 1.85546 32.3711 2.08593 29.1211C2.30859 25.8711 5.1289 23.418 8.3789 23.6445C11.625 23.8711 14.0781 26.6875 13.8555 29.9375Z" fill="#EFBAA9"/>
<path d="M12.6094 64.2226C12.3867 67.4726 9.56639 69.9219 6.31639 69.6992C3.0703 69.4726 0.617174 66.6523 0.843736 63.4062C1.06639 60.1562 3.8867 57.7031 7.1367 57.9297C10.3828 58.1523 12.8359 60.9726 12.6094 64.2226Z" fill="#EFBAA9"/>
<path d="M40.0156 78.9492C39.4336 82.1523 36.3594 84.2812 33.1563 83.6992C29.9492 83.1133 27.8242 80.0429 28.4102 76.8359C28.9922 73.6328 32.0625 71.5039 35.2695 72.0898C38.4766 72.6718 40.6016 75.7422 40.0156 78.9492Z" fill="#EFBAA9"/>
<path d="M46.1953 51.293C45.6133 54.5 42.543 56.625 39.3398 56.043C36.1367 55.4571 34.0078 52.3868 34.5938 49.1797C35.1758 45.9766 38.2461 43.8516 41.4492 44.4336C44.6562 45.0157 46.7812 48.0899 46.1953 51.293Z" fill="#EFBAA9"/>
<path d="M55.2031 37.6679C54.625 40.8711 51.5508 43 48.3477 42.4179C45.1445 41.832 43.0195 38.7617 43.6016 35.5547C44.1836 32.3515 47.2539 30.2226 50.4609 30.8086C53.6602 31.3906 55.7891 34.4609 55.2031 37.6679Z" fill="#EFBAA9"/>
</svg>
