<svg width="988" height="974" viewBox="0 0 988 974" fill="none" xmlns="http://www.w3.org/2000/svg">
<g id="girlnballoon" clip-path="url(#clip0)">
<g id="balloon">
<g id="Vector" filter="url(#filter0_d)">
<path d="M264.202 679.759C265.378 673.525 271.47 669.861 277.545 668.394C284.478 666.721 291.868 666.927 298.923 667.682C313.131 669.202 327.082 673.31 341.501 672.673C354.037 672.078 366.188 668.389 376.74 661.976C387.354 655.539 395.907 646.495 401.479 635.815C407.09 625.067 409.579 613.107 408.691 601.155C408.573 599.669 408.394 598.19 408.173 596.714C408.014 595.659 406.315 596.108 406.472 597.157C408.188 609.039 406.415 621.139 401.346 632.136C396.369 643.022 388.282 652.388 377.988 659.188C367.726 665.95 355.732 669.997 343.252 670.91C329.018 671.891 315.187 668.031 301.199 666.283C294.134 665.4 286.929 665.071 279.875 666.229C273.627 667.254 267.217 669.89 264.01 675.351C263.279 676.585 262.769 677.926 262.501 679.317C262.304 680.364 264.003 680.813 264.202 679.759H264.202Z" fill="#3F3D56"/>
</g>
<g id="Vector_2" filter="url(#filter1_d)">
<path d="M413.306 596.257H400.375V605.683H413.306V596.257Z" fill="#6C63FF"/>
</g>
</g>
<g id="ball" filter="url(#filter2_d)">
<path d="M406.5 598.5C427.211 598.5 444 576.106 444 556.5C444 536.894 427.211 521 406.5 521C385.789 521 369 536.894 369 556.5C369 576.106 385.789 598.5 406.5 598.5Z" fill="#6C63FF"/>
</g>
<path id="leftarm" d="M201.239 641.166L194.961 665.458L201.423 696.623C201.423 696.623 201.582 709.363 207.504 708.396C213.425 707.429 207.22 694.581 207.22 694.581L204.323 669.027L213.584 643.781C214.334 641.736 213.386 639.541 211.214 638.289C207.547 636.176 202.336 637.679 201.239 641.166Z" fill="#FFB9B9"/>
<g id="girl">
<path id="Vector_3" d="M223.274 620.223L217.94 635.877L207.864 630.845C207.864 630.845 212.013 619.663 212.013 617.986C212.013 616.309 223.274 620.223 223.274 620.223Z" fill="#FFB9B9"/>
<path id="Vector_4" d="M219.125 626.373C225.999 626.373 231.571 621.116 231.571 614.632C231.571 608.147 225.999 602.89 219.125 602.89C212.251 602.89 206.679 608.147 206.679 614.632C206.679 621.116 212.251 626.373 219.125 626.373Z" fill="#FFB9B9"/>
<path id="Vector_5" d="M222.385 639.511L220.014 637.275L219.422 634.48C219.422 634.48 211.717 624.975 205.197 628.329C203.16 629.378 201.644 631.791 200.521 634.614C197.664 641.992 197.93 650.125 201.266 657.322L211.717 680.326L235.424 678.089L231.275 663.553C231.275 663.553 235.424 654.607 227.719 648.457L222.385 639.511Z" fill="#6C63FF"/>
<path id="Vector_6" d="M225.643 604.61C225.644 604.596 225.645 604.582 225.645 604.568C225.645 601.361 224.637 598.226 222.748 595.56C220.859 592.893 218.175 590.815 215.034 589.588C211.894 588.361 208.438 588.04 205.104 588.665C201.77 589.291 198.707 590.835 196.304 593.103C193.9 595.37 192.263 598.259 191.6 601.405C190.937 604.55 191.277 607.81 192.578 610.773C193.879 613.735 196.082 616.267 198.908 618.049C201.735 619.831 205.058 620.782 208.457 620.782C208.856 620.782 210.435 623.602 210.828 623.577C210.851 615.019 216.72 605.185 225.643 604.61Z" fill="#2F2E41"/>
<path id="Vector_7" d="M190.084 602.891C196.303 602.891 201.345 598.134 201.345 592.268C201.345 586.401 196.303 581.645 190.084 581.645C183.865 581.645 178.823 586.401 178.823 592.268C178.823 598.134 183.865 602.891 190.084 602.891Z" fill="#2F2E41"/>
<path id="Vector_8" d="M189.568 576.176C192.281 576.16 194.909 577.07 196.967 578.738C199.025 580.406 200.375 582.721 200.766 585.254C201.157 587.787 200.565 590.368 199.097 592.521C197.629 594.674 195.386 596.254 192.78 596.969C194.394 596.967 195.987 596.637 197.454 596.003C198.92 595.368 200.225 594.444 201.279 593.292C202.334 592.14 203.113 590.787 203.565 589.326C204.016 587.865 204.13 586.329 203.897 584.823C203.664 583.317 203.091 581.876 202.216 580.597C201.341 579.319 200.185 578.232 198.826 577.412C197.467 576.592 195.937 576.057 194.339 575.844C192.742 575.63 191.115 575.744 189.568 576.176V576.176Z" fill="#2F2E41"/>
<path id="Vector_9" d="M216.162 601.213H225.183C227.192 601.213 229.118 601.966 230.539 603.306C231.959 604.645 232.757 606.463 232.757 608.357V611.277H216.162V601.213Z" fill="#2F2E41"/>
</g>
<g id="leftleg">
<path id="Vector_10" opacity="0.3" d="M236.313 759.835L228.454 773.578L222.823 783.418C221.022 784.43 218.621 784.413 216.037 783.815C215.587 780.986 218.278 766.036 216.162 753.847L216.257 753.411L217.306 752.17L222.361 754.211L231.281 757.806L236.313 759.835Z" fill="black"/>
<path id="Vector_11" d="M204.012 773.136L188.602 790.468L184.454 799.414L189.788 803.328L194.529 801.65C194.529 801.65 198.678 791.587 202.827 789.909C206.975 788.232 217.051 777.05 217.051 777.05L204.012 773.136Z" fill="#FFB9B9"/>
<path id="Vector_12" d="M236.313 759.835L228.454 773.578L222.823 783.418C221.022 784.43 218.621 784.413 216.037 783.815C214.833 783.524 213.653 783.152 212.505 782.702C205.452 779.98 198.299 774.573 198.299 774.573L211.835 758.616L216.257 753.411L217.306 752.17L222.361 754.211L231.281 757.806L236.313 759.835Z" fill="#2F2E41"/>
<path id="Vector_13" d="M193.101 800.422C193.101 800.422 196.734 796.112 198.904 798.828C201.074 801.543 196.345 803.87 196.345 803.87L196.07 817.879C196.07 817.879 198.651 828.59 191.683 824.452C184.715 820.314 184.441 819.818 183.071 817.339C181.7 814.861 178.868 804.904 176.424 801.692C173.979 798.481 171.741 792.015 174.643 791.218C177.544 790.421 191.069 787.583 190.395 788.528C189.721 789.474 186.065 792.534 187.961 794.754C189.857 796.974 193.101 800.422 193.101 800.422Z" fill="#2F2E41"/>
</g>
<g id="rightleg">
<path id="Vector_14" d="M227.719 781.523C227.719 781.523 236.016 804.446 232.46 812.832L243.128 821.778L249.648 813.95C249.648 813.95 242.536 807.241 243.128 802.209C243.721 797.177 244.314 779.286 244.314 779.286L227.719 781.523Z" fill="#FFB9B9"/>
<path id="Vector_15" d="M236.313 676.692C236.313 676.692 220.903 667.746 210.235 678.928L210.828 682.283C210.828 682.283 201.938 691.787 207.272 711.915C212.606 732.042 220.903 784.598 220.903 784.598C220.903 784.598 240.461 785.716 249.352 779.566C249.352 779.566 246.388 710.237 236.313 703.528V676.692Z" fill="#2F2E41"/>
<path id="Vector_16" d="M267.425 826.248C266.94 826.515 266.478 826.768 266.053 827H229.267C228.926 826.816 228.652 826.539 228.482 826.205C228.312 825.871 228.253 825.496 228.313 825.13C228.484 824.3 228.924 822.612 229.468 820.671C230.758 816.08 232.651 810.067 233.061 810.707C233.062 810.707 233.063 810.707 233.064 810.708C233.065 810.708 233.066 810.709 233.067 810.709C233.067 810.71 233.068 810.711 233.068 810.711C233.069 810.712 233.069 810.713 233.069 810.714C233.643 811.713 234.828 816.185 237.795 815.629C240.761 815.067 245.502 813.949 245.502 813.949C245.502 813.949 243.81 810.363 245.428 808.914C245.776 808.609 246.216 808.415 246.687 808.359C250.243 807.803 250.243 812.831 250.243 812.831L263.28 819.539C264.404 819.833 265.501 820.211 266.56 820.671C269.206 821.839 271.823 823.836 267.425 826.248Z" fill="#2F2E41"/>
</g>
<path id="rightarm" d="M203.987 645.574L220.736 664.859L251.012 678.754C251.012 678.754 261.885 686.289 264.652 681.284C267.418 676.278 252.793 673.196 252.793 673.196L229.422 660.008L213.671 637.921C212.396 636.132 209.965 635.521 207.591 636.392C203.584 637.863 201.702 642.659 203.987 645.574Z" fill="#FFB9B9"/>
</g>
<defs>
<filter id="filter0_d" x="258.485" y="596.112" width="154.381" height="92.2483" filterUnits="userSpaceOnUse" color-interpolation-filters="sRGB">
<feFlood flood-opacity="0" result="BackgroundImageFix"/>
<feColorMatrix in="SourceAlpha" type="matrix" values="0 0 0 0 0 0 0 0 0 0 0 0 0 0 0 0 0 0 127 0" result="hardAlpha"/>
<feOffset dy="4"/>
<feGaussianBlur stdDeviation="2"/>
<feComposite in2="hardAlpha" operator="out"/>
<feColorMatrix type="matrix" values="0 0 0 0 0 0 0 0 0 0 0 0 0 0 0 0 0 0 0.25 0"/>
<feBlend mode="normal" in2="BackgroundImageFix" result="effect1_dropShadow"/>
<feBlend mode="normal" in="SourceGraphic" in2="effect1_dropShadow" result="shape"/>
</filter>
<filter id="filter1_d" x="396.375" y="596.257" width="20.9313" height="17.4263" filterUnits="userSpaceOnUse" color-interpolation-filters="sRGB">
<feFlood flood-opacity="0" result="BackgroundImageFix"/>
<feColorMatrix in="SourceAlpha" type="matrix" values="0 0 0 0 0 0 0 0 0 0 0 0 0 0 0 0 0 0 127 0" result="hardAlpha"/>
<feOffset dy="4"/>
<feGaussianBlur stdDeviation="2"/>
<feComposite in2="hardAlpha" operator="out"/>
<feColorMatrix type="matrix" values="0 0 0 0 0 0 0 0 0 0 0 0 0 0 0 0 0 0 0.25 0"/>
<feBlend mode="normal" in2="BackgroundImageFix" result="effect1_dropShadow"/>
<feBlend mode="normal" in="SourceGraphic" in2="effect1_dropShadow" result="shape"/>
</filter>
<filter id="filter2_d" x="365" y="521" width="83" height="85.5" filterUnits="userSpaceOnUse" color-interpolation-filters="sRGB">
<feFlood flood-opacity="0" result="BackgroundImageFix"/>
<feColorMatrix in="SourceAlpha" type="matrix" values="0 0 0 0 0 0 0 0 0 0 0 0 0 0 0 0 0 0 127 0" result="hardAlpha"/>
<feOffset dy="4"/>
<feGaussianBlur stdDeviation="2"/>
<feComposite in2="hardAlpha" operator="out"/>
<feColorMatrix type="matrix" values="0 0 0 0 0 0 0 0 0 0 0 0 0 0 0 0 0 0 0.25 0"/>
<feBlend mode="normal" in2="BackgroundImageFix" result="effect1_dropShadow"/>
<feBlend mode="normal" in="SourceGraphic" in2="effect1_dropShadow" result="shape"/>
</filter>
<clipPath id="clip0">
<rect width="988" height="974" fill="white"/>
</clipPath>
</defs>
</svg>
