<svg width="847" height="589" viewBox="0 0 847 589" fill="none" xmlns="http://www.w3.org/2000/svg">
<g id="pull">
<path id="Vector" d="M649.783 287.819H705.783V231.819H649.783V287.819Z" fill="#FFB8B8"/>
<path id="Vector_2" d="M740.707 566.513L729.673 566.512L724.425 523.955L740.709 523.956L740.707 566.513Z" fill="#FFB8B8"/>
<path id="Vector_3" d="M708.403 582.799C708.408 584.035 708.902 585.219 709.777 586.092C710.652 586.965 711.837 587.456 713.073 587.459H733.833L734.243 586.609L737.413 580.069L738.653 586.609L738.813 587.459H746.643L746.573 586.609L744.443 561.069L740.703 560.849L728.883 560.139L727.003 560.029V567.499L710.423 578.949C709.799 579.379 709.29 579.954 708.938 580.624C708.586 581.295 708.402 582.041 708.403 582.799Z" fill="#2F2E41"/>
<path id="Vector_4" d="M676.18 559.507L665.576 562.557L648.768 523.109L664.418 518.608L676.18 559.507Z" fill="#FFB8B8"/>
<path id="Vector_5" d="M649.633 584.089C649.982 585.275 650.784 586.275 651.867 586.873C652.949 587.47 654.224 587.616 655.413 587.279L657.743 586.609L670.633 582.899L675.373 581.539L676.763 573.449L680.153 580.169L687.673 577.999L678.263 553.249L674.613 554.069L673.303 554.359L663.053 556.659L661.213 557.069L663.283 564.249L650.513 579.839C650.034 580.423 649.704 581.115 649.551 581.856C649.398 582.596 649.426 583.362 649.633 584.089Z" fill="#2F2E41"/>
<path id="Vector_6" d="M611.794 456.757C610.86 454.295 610.515 451.647 610.788 449.027C611.061 446.407 611.943 443.888 613.364 441.67L638.783 309.819L648.783 259.819H708.783C708.783 259.819 746.283 301.319 738.283 354.319L740.522 428.959C742.646 434.079 743.17 439.721 742.026 445.145L741.135 449.367L741.478 450.003C743.115 453.032 743.995 456.413 744.042 459.856C744.088 463.299 743.301 466.702 741.747 469.775L741.567 529.413L723.567 528.413L699.783 454.819L682.283 366.319L652.783 434.819L651.783 450.819L652.268 464.922L666.271 521.689L646.771 529.189L611.794 456.757Z" fill="#1B3D65"/>
<path id="Line 1" d="M556.99 111.498L557.965 61" stroke="#545252" stroke-width="8"/>
<g id="hand">
<path id="Vector_7" d="M568.277 92.7033C567.999 93.2357 567.674 93.7421 567.306 94.2163L618.058 131.484L675.773 150.213C679.404 151.391 682.452 153.902 684.305 157.239C686.157 160.577 686.674 164.493 685.753 168.197C684.831 171.901 682.54 175.118 679.34 177.199C676.14 179.28 672.27 180.07 668.51 179.409H668.51C656.327 177.27 644.552 173.244 633.609 167.476L597.486 148.434L553.785 96.3879C552.191 95.3066 550.943 93.7876 550.191 92.0136C549.439 90.2396 549.216 88.2861 549.549 86.3884C549.881 84.4906 550.755 82.7293 552.065 81.3165C553.375 79.9037 555.065 78.8995 556.933 78.4247C558.8 77.95 560.765 78.0249 562.59 78.6405C564.416 79.2561 566.025 80.3861 567.223 81.8946C568.422 83.4032 569.159 85.2259 569.346 87.1434C569.533 89.061 569.162 90.9918 568.277 92.7034V92.7033Z" fill="#FFB8B8"/>
<path id="Vector_8" d="M610.574 155.584L621.676 131.188L677.064 142.443C679.832 143.872 682.29 145.832 684.3 148.212C686.31 150.591 687.831 153.343 688.777 156.31C689.723 159.277 690.076 162.402 689.815 165.505C689.553 168.609 688.683 171.63 687.254 174.398C685.825 177.165 683.865 179.623 681.486 181.633C679.106 183.643 676.354 185.164 673.387 186.11C667.395 188.021 660.888 187.473 655.3 184.587L610.574 155.584Z" fill="white"/>
</g>
<path id="Vector_9" d="M689.014 129.022C703.42 121.147 708.715 103.083 700.84 88.6767C692.964 74.2701 674.901 68.9754 660.495 76.8508C646.088 84.7262 640.793 102.789 648.669 117.196C656.544 131.603 674.607 136.897 689.014 129.022Z" fill="#FFB8B8"/>
<path id="Vector_10" d="M671.783 140.819L683.055 126.33L699.133 125.633L700.738 139.26L708.705 142.933C716.66 173.156 717.889 204.755 712.304 235.503V235.503C711.237 236.509 710.456 237.781 710.044 239.188C709.632 240.595 709.603 242.087 709.96 243.51L710.476 245.569L710.428 245.644C708.733 248.319 708.158 251.554 708.827 254.649V254.649L723.392 280.529C692.462 293.135 669.788 269.627 648.783 238.819L635.783 193.819L671.783 140.819Z" fill="#DACA76"/>
<path id="Vector_11" d="M669.783 66.8187H688.987C701.577 66.8187 711.783 78.3007 711.783 92.4644C721.283 102.003 718.432 113.954 710.894 126.819C697.291 128.511 683.985 132.07 671.353 137.394L669.561 129.74L666.025 139.821C662.881 141.344 659.763 143.01 656.672 144.819C660.28 127.868 661.764 110.956 659.287 97.8187H652.783V90.7006L650.575 97.8187H638.783V97.8187C638.783 93.7477 639.585 89.7166 641.143 85.9555C642.701 82.1944 644.984 78.777 647.863 75.8984C650.741 73.0197 654.159 70.7363 657.92 69.1784C661.681 67.6205 665.712 66.8187 669.783 66.8187V66.8187Z" fill="#0A0A0C"/>
<path id="Vector_12" d="M637.897 224.129L634.861 193.769L675.162 134.111L676.819 135.23L636.923 194.29L639.887 223.93L637.897 224.129Z" fill="#A7A7AB"/>
<path id="Vector_13" d="M638.892 227.029C640.549 227.029 641.892 225.686 641.892 224.029C641.892 222.373 640.549 221.029 638.892 221.029C637.235 221.029 635.892 222.373 635.892 224.029C635.892 225.686 637.235 227.029 638.892 227.029Z" fill="#2F2E41"/>
<path id="Vector_14" d="M695.392 78.5294C703.124 78.5294 709.392 72.2614 709.392 64.5294C709.392 56.7974 703.124 50.5294 695.392 50.5294C687.66 50.5294 681.392 56.7974 681.392 64.5294C681.392 72.2614 687.66 78.5294 695.392 78.5294Z" fill="#21212C"/>
<path id="Vector_15" d="M665.062 296.923C665.663 296.926 666.262 296.982 666.852 297.092L676.677 234.898L666.834 175.024C666.215 171.257 667.047 167.396 669.163 164.219C671.278 161.042 674.52 158.785 678.234 157.904C681.948 157.023 685.858 157.583 689.175 159.472C692.492 161.36 694.97 164.436 696.108 168.08V168.08C699.798 179.886 701.624 192.196 701.52 204.565L701.177 245.398L674.986 308.109C674.757 310.022 673.98 311.828 672.748 313.31C671.517 314.791 669.884 315.886 668.045 316.461C666.206 317.037 664.24 317.068 662.384 316.553C660.528 316.037 658.86 314.996 657.581 313.555C656.302 312.114 655.468 310.334 655.177 308.429C654.886 306.524 655.152 304.576 655.942 302.819C656.733 301.062 658.014 299.571 659.632 298.525C661.25 297.479 663.136 296.923 665.062 296.923V296.923Z" fill="#FFB8B8"/>
<path id="Vector_16" d="M701.524 230.489L674.754 231.819L659.339 177.441C659.337 174.325 659.949 171.24 661.139 168.361C662.33 165.482 664.077 162.865 666.279 160.661C668.482 158.458 671.097 156.709 673.975 155.516C676.854 154.324 679.939 153.71 683.055 153.71C686.17 153.71 689.256 154.324 692.134 155.516C695.012 156.709 697.627 158.458 699.83 160.661C702.032 162.865 703.779 165.482 704.97 168.361C706.161 171.24 706.773 174.325 706.771 177.441L701.524 230.489Z" fill="#F2F2F2"/>
</g>
</svg>
